<?xml version="1.0" encoding="utf-8" standalone="no"?>
<!DOCTYPE svg PUBLIC "-//W3C//DTD SVG 1.1//EN"
  "http://www.w3.org/Graphics/SVG/1.1/DTD/svg11.dtd">
<!-- Created with matplotlib (http://matplotlib.org/) -->
<svg height="421pt" version="1.1" viewBox="0 0 709 421" width="709pt" xmlns="http://www.w3.org/2000/svg" xmlns:xlink="http://www.w3.org/1999/xlink">
 <defs>
  <style type="text/css">
*{stroke-linecap:butt;stroke-linejoin:round;}
  </style>
 </defs>
 <g id="figure_1">
  <g id="patch_1">
   <path d="
M0 421.823
L709.424 421.823
L709.424 0
L0 0
z
" style="fill:#ffffff;"/>
  </g>
  <g id="axes_1">
   <g id="patch_2">
    <path d="
M54.0442 174.898
L261.464 174.898
L261.464 20.7894
L54.0442 20.7894
z
" style="fill:#ffffff;"/>
   </g>
   <g id="matplotlib.axis_1">
    <g id="xtick_1">
     <g id="line2d_1">
      <defs>
       <path d="
M0 0
L0 6" id="me1deecec79" style="stroke:#262626;"/>
      </defs>
      <g>
       <use style="fill:#262626;stroke:#262626;" x="90.1172622283" xlink:href="#me1deecec79" y="174.8978125"/>
      </g>
     </g>
     <g id="text_1">
      <!-- 10 -->
      <defs>
       <path d="
M4.15625 35.2969
Q4.15625 48 6.76562 55.7344
Q9.375 63.4844 14.5156 67.6719
Q19.6719 71.875 27.4844 71.875
Q33.25 71.875 37.5938 69.5469
Q41.9375 67.2344 44.7656 62.8594
Q47.6094 58.5 49.2188 52.2188
Q50.8281 45.9531 50.8281 35.2969
Q50.8281 22.7031 48.2344 14.9688
Q45.6562 7.23438 40.5 3
Q35.3594 -1.21875 27.4844 -1.21875
Q17.1406 -1.21875 11.2344 6.20312
Q4.15625 15.1406 4.15625 35.2969
M13.1875 35.2969
Q13.1875 17.6719 17.3125 11.8281
Q21.4375 6 27.4844 6
Q33.5469 6 37.6719 11.8594
Q41.7969 17.7188 41.7969 35.2969
Q41.7969 52.9844 37.6719 58.7812
Q33.5469 64.5938 27.3906 64.5938
Q21.3438 64.5938 17.7188 59.4688
Q13.1875 52.9375 13.1875 35.2969" id="ArialMT-30"/>
       <path d="
M37.25 0
L28.4688 0
L28.4688 56
Q25.2969 52.9844 20.1406 49.9531
Q14.9844 46.9219 10.8906 45.4062
L10.8906 53.9062
Q18.2656 57.375 23.7812 62.2969
Q29.2969 67.2344 31.5938 71.875
L37.25 71.875
z
" id="ArialMT-31"/>
      </defs>
      <g style="fill:#262626;" transform="translate(85.3399184783 195.055625)scale(0.1 -0.1)">
       <use xlink:href="#ArialMT-31"/>
       <use x="55.615234375" xlink:href="#ArialMT-30"/>
      </g>
     </g>
    </g>
    <g id="xtick_2">
     <g id="line2d_2">
      <g>
       <use style="fill:#262626;stroke:#262626;" x="135.208566576" xlink:href="#me1deecec79" y="174.8978125"/>
      </g>
     </g>
     <g id="text_2">
      <!-- 20 -->
      <defs>
       <path d="
M50.3438 8.45312
L50.3438 0
L3.03125 0
Q2.9375 3.17188 4.04688 6.10938
Q5.85938 10.9375 9.82812 15.625
Q13.8125 20.3125 21.3438 26.4688
Q33.0156 36.0312 37.1094 41.625
Q41.2188 47.2188 41.2188 52.2031
Q41.2188 57.4219 37.4688 61
Q33.7344 64.5938 27.7344 64.5938
Q21.3906 64.5938 17.5781 60.7812
Q13.7656 56.9844 13.7188 50.25
L4.6875 51.1719
Q5.60938 61.2812 11.6562 66.5781
Q17.7188 71.875 27.9375 71.875
Q38.2344 71.875 44.2344 66.1562
Q50.25 60.4531 50.25 52
Q50.25 47.7031 48.4844 43.5469
Q46.7344 39.4062 42.6562 34.8125
Q38.5781 30.2188 29.1094 22.2188
Q21.1875 15.5781 18.9375 13.2031
Q16.7031 10.8438 15.2344 8.45312
z
" id="ArialMT-32"/>
      </defs>
      <g style="fill:#262626;" transform="translate(130.033566576 195.055625)scale(0.1 -0.1)">
       <use xlink:href="#ArialMT-32"/>
       <use x="55.615234375" xlink:href="#ArialMT-30"/>
      </g>
     </g>
    </g>
    <g id="xtick_3">
     <g id="line2d_3">
      <g>
       <use style="fill:#262626;stroke:#262626;" x="180.299870924" xlink:href="#me1deecec79" y="174.8978125"/>
      </g>
     </g>
     <g id="text_3">
      <!-- 30 -->
      <defs>
       <path d="
M4.20312 18.8906
L12.9844 20.0625
Q14.5 12.5938 18.1406 9.29688
Q21.7812 6 27 6
Q33.2031 6 37.4688 10.2969
Q41.75 14.5938 41.75 20.9531
Q41.75 27 37.7969 30.9219
Q33.8438 34.8594 27.7344 34.8594
Q25.25 34.8594 21.5312 33.8906
L22.5156 41.6094
Q23.3906 41.5 23.9219 41.5
Q29.5469 41.5 34.0312 44.4219
Q38.5312 47.3594 38.5312 53.4688
Q38.5312 58.2969 35.25 61.4688
Q31.9844 64.6562 26.8125 64.6562
Q21.6875 64.6562 18.2656 61.4219
Q14.8438 58.2031 13.875 51.7656
L5.07812 53.3281
Q6.6875 62.1562 12.3906 67.0156
Q18.1094 71.875 26.6094 71.875
Q32.4688 71.875 37.3906 69.3594
Q42.3281 66.8438 44.9375 62.5
Q47.5625 58.1562 47.5625 53.2656
Q47.5625 48.6406 45.0625 44.8281
Q42.5781 41.0156 37.7031 38.7656
Q44.0469 37.3125 47.5625 32.6875
Q51.0781 28.0781 51.0781 21.1406
Q51.0781 11.7656 44.2344 5.25
Q37.4062 -1.26562 26.9531 -1.26562
Q17.5312 -1.26562 11.2969 4.34375
Q5.07812 9.96875 4.20312 18.8906" id="ArialMT-33"/>
      </defs>
      <g style="fill:#262626;" transform="translate(175.188152174 195.055625)scale(0.1 -0.1)">
       <use xlink:href="#ArialMT-33"/>
       <use x="55.615234375" xlink:href="#ArialMT-30"/>
      </g>
     </g>
    </g>
    <g id="xtick_4">
     <g id="line2d_4">
      <g>
       <use style="fill:#262626;stroke:#262626;" x="225.391175272" xlink:href="#me1deecec79" y="174.8978125"/>
      </g>
     </g>
     <g id="text_4">
      <!-- 40 -->
      <defs>
       <path d="
M32.3281 0
L32.3281 17.1406
L1.26562 17.1406
L1.26562 25.2031
L33.9375 71.5781
L41.1094 71.5781
L41.1094 25.2031
L50.7812 25.2031
L50.7812 17.1406
L41.1094 17.1406
L41.1094 0
z

M32.3281 25.2031
L32.3281 57.4688
L9.90625 25.2031
z
" id="ArialMT-34"/>
      </defs>
      <g style="fill:#262626;" transform="translate(220.132581522 195.055625)scale(0.1 -0.1)">
       <use xlink:href="#ArialMT-34"/>
       <use x="55.615234375" xlink:href="#ArialMT-30"/>
      </g>
     </g>
    </g>
   </g>
   <g id="matplotlib.axis_2">
    <g id="ytick_1">
     <g id="line2d_5">
      <defs>
       <path d="
M0 0
L-6 0" id="m4aded61697" style="stroke:#262626;"/>
      </defs>
      <g>
       <use style="fill:#262626;stroke:#262626;" x="54.04421875" xlink:href="#m4aded61697" y="157.356204136"/>
      </g>
     </g>
     <g id="text_5">
      <!-- −1.5 -->
      <defs>
       <path d="
M52.8281 31.2031
L5.5625 31.2031
L5.5625 39.4062
L52.8281 39.4062
z
" id="ArialMT-2212"/>
       <path d="
M9.07812 0
L9.07812 10.0156
L19.0938 10.0156
L19.0938 0
z
" id="ArialMT-2e"/>
       <path d="
M4.15625 18.75
L13.375 19.5312
Q14.4062 12.7969 18.1406 9.39062
Q21.875 6 27.1562 6
Q33.5 6 37.8906 10.7812
Q42.2812 15.5781 42.2812 23.4844
Q42.2812 31 38.0625 35.3438
Q33.8438 39.7031 27 39.7031
Q22.75 39.7031 19.3281 37.7656
Q15.9219 35.8438 13.9688 32.7656
L5.71875 33.8438
L12.6406 70.6094
L48.25 70.6094
L48.25 62.2031
L19.6719 62.2031
L15.8281 42.9688
Q22.2656 47.4688 29.3438 47.4688
Q38.7188 47.4688 45.1562 40.9688
Q51.6094 34.4688 51.6094 24.2656
Q51.6094 14.5469 45.9531 7.46875
Q39.0625 -1.21875 27.1562 -1.21875
Q17.3906 -1.21875 11.2031 4.25
Q5.03125 9.71875 4.15625 18.75" id="ArialMT-35"/>
      </defs>
      <g style="fill:#262626;" transform="translate(22.25984375 159.941360386)scale(0.1 -0.1)">
       <use xlink:href="#ArialMT-2212"/>
       <use x="58.3984375" xlink:href="#ArialMT-31"/>
       <use x="114.013671875" xlink:href="#ArialMT-2e"/>
       <use x="141.796875" xlink:href="#ArialMT-35"/>
      </g>
     </g>
    </g>
    <g id="ytick_2">
     <g id="line2d_6">
      <g>
       <use style="fill:#262626;stroke:#262626;" x="54.04421875" xlink:href="#m4aded61697" y="138.703538358"/>
      </g>
     </g>
     <g id="text_6">
      <!-- −1.0 -->
      <g style="fill:#262626;" transform="translate(22.33796875 141.288694608)scale(0.1 -0.1)">
       <use xlink:href="#ArialMT-2212"/>
       <use x="58.3984375" xlink:href="#ArialMT-31"/>
       <use x="114.013671875" xlink:href="#ArialMT-2e"/>
       <use x="141.796875" xlink:href="#ArialMT-30"/>
      </g>
     </g>
    </g>
    <g id="ytick_3">
     <g id="line2d_7">
      <g>
       <use style="fill:#262626;stroke:#262626;" x="54.04421875" xlink:href="#m4aded61697" y="120.050872581"/>
      </g>
     </g>
     <g id="text_7">
      <!-- −0.5 -->
      <g style="fill:#262626;" transform="translate(22.25984375 122.636028831)scale(0.1 -0.1)">
       <use xlink:href="#ArialMT-2212"/>
       <use x="58.3984375" xlink:href="#ArialMT-30"/>
       <use x="114.013671875" xlink:href="#ArialMT-2e"/>
       <use x="141.796875" xlink:href="#ArialMT-35"/>
      </g>
     </g>
    </g>
    <g id="ytick_4">
     <g id="line2d_8">
      <g>
       <use style="fill:#262626;stroke:#262626;" x="54.04421875" xlink:href="#m4aded61697" y="101.398206803"/>
      </g>
     </g>
     <g id="text_8">
      <!-- 0.0 -->
      <g style="fill:#262626;" transform="translate(28.03796875 103.983363053)scale(0.1 -0.1)">
       <use xlink:href="#ArialMT-30"/>
       <use x="55.615234375" xlink:href="#ArialMT-2e"/>
       <use x="83.3984375" xlink:href="#ArialMT-30"/>
      </g>
     </g>
    </g>
    <g id="ytick_5">
     <g id="line2d_9">
      <g>
       <use style="fill:#262626;stroke:#262626;" x="54.04421875" xlink:href="#m4aded61697" y="82.7455410249"/>
      </g>
     </g>
     <g id="text_9">
      <!-- 0.5 -->
      <g style="fill:#262626;" transform="translate(27.95984375 85.3306972749)scale(0.1 -0.1)">
       <use xlink:href="#ArialMT-30"/>
       <use x="55.615234375" xlink:href="#ArialMT-2e"/>
       <use x="83.3984375" xlink:href="#ArialMT-35"/>
      </g>
     </g>
    </g>
    <g id="ytick_6">
     <g id="line2d_10">
      <g>
       <use style="fill:#262626;stroke:#262626;" x="54.04421875" xlink:href="#m4aded61697" y="64.092875247"/>
      </g>
     </g>
     <g id="text_10">
      <!-- 1.0 -->
      <g style="fill:#262626;" transform="translate(28.71140625 66.678031497)scale(0.1 -0.1)">
       <use xlink:href="#ArialMT-31"/>
       <use x="55.615234375" xlink:href="#ArialMT-2e"/>
       <use x="83.3984375" xlink:href="#ArialMT-30"/>
      </g>
     </g>
    </g>
    <g id="ytick_7">
     <g id="line2d_11">
      <g>
       <use style="fill:#262626;stroke:#262626;" x="54.04421875" xlink:href="#m4aded61697" y="45.4402094692"/>
      </g>
     </g>
     <g id="text_11">
      <!-- 1.5 -->
      <g style="fill:#262626;" transform="translate(28.63328125 48.0253657192)scale(0.1 -0.1)">
       <use xlink:href="#ArialMT-31"/>
       <use x="55.615234375" xlink:href="#ArialMT-2e"/>
       <use x="83.3984375" xlink:href="#ArialMT-35"/>
      </g>
     </g>
    </g>
    <g id="ytick_8">
     <g id="line2d_12">
      <g>
       <use style="fill:#262626;stroke:#262626;" x="54.04421875" xlink:href="#m4aded61697" y="26.7875436914"/>
      </g>
     </g>
     <g id="text_12">
      <!-- 2.0 -->
      <g style="fill:#262626;" transform="translate(27.91609375 29.3726999414)scale(0.1 -0.1)">
       <use xlink:href="#ArialMT-32"/>
       <use x="55.615234375" xlink:href="#ArialMT-2e"/>
       <use x="83.3984375" xlink:href="#ArialMT-30"/>
      </g>
     </g>
    </g>
    <g id="text_13">
     <!-- Expression -->
     <defs>
      <path d="
M7.90625 0
L7.90625 71.5781
L59.6719 71.5781
L59.6719 63.1406
L17.3906 63.1406
L17.3906 41.2188
L56.9844 41.2188
L56.9844 32.8125
L17.3906 32.8125
L17.3906 8.45312
L61.3281 8.45312
L61.3281 0
z
" id="ArialMT-45"/>
      <path d="
M6.59375 -19.875
L6.59375 51.8594
L14.5938 51.8594
L14.5938 45.125
Q17.4375 49.0781 21 51.0469
Q24.5625 53.0312 29.6406 53.0312
Q36.2812 53.0312 41.3594 49.6094
Q46.4375 46.1875 49.0156 39.9531
Q51.6094 33.7344 51.6094 26.3125
Q51.6094 18.3594 48.75 11.9844
Q45.9062 5.60938 40.4531 2.21875
Q35.0156 -1.17188 29 -1.17188
Q24.6094 -1.17188 21.1094 0.6875
Q17.625 2.54688 15.375 5.375
L15.375 -19.875
z

M14.5469 25.6406
Q14.5469 15.625 18.5938 10.8438
Q22.6562 6.0625 28.4219 6.0625
Q34.2812 6.0625 38.4531 11.0156
Q42.625 15.9688 42.625 26.375
Q42.625 36.2812 38.5469 41.2031
Q34.4688 46.1406 28.8125 46.1406
Q23.1875 46.1406 18.8594 40.8906
Q14.5469 35.6406 14.5469 25.6406" id="ArialMT-70"/>
      <path d="
M3.32812 25.9219
Q3.32812 40.3281 11.3281 47.2656
Q18.0156 53.0312 27.6406 53.0312
Q38.3281 53.0312 45.1094 46.0156
Q51.9062 39.0156 51.9062 26.6562
Q51.9062 16.6562 48.9062 10.9062
Q45.9062 5.17188 40.1562 2
Q34.4219 -1.17188 27.6406 -1.17188
Q16.75 -1.17188 10.0312 5.8125
Q3.32812 12.7969 3.32812 25.9219
M12.3594 25.9219
Q12.3594 15.9688 16.7031 11.0156
Q21.0469 6.0625 27.6406 6.0625
Q34.1875 6.0625 38.5312 11.0312
Q42.875 16.0156 42.875 26.2188
Q42.875 35.8438 38.5 40.7969
Q34.125 45.75 27.6406 45.75
Q21.0469 45.75 16.7031 40.8125
Q12.3594 35.8906 12.3594 25.9219" id="ArialMT-6f"/>
      <path d="
M0.734375 0
L19.6719 26.9531
L2.15625 51.8594
L13.1406 51.8594
L21.0938 39.7031
Q23.3438 36.2344 24.7031 33.8906
Q26.8594 37.1094 28.6562 39.5938
L37.4062 51.8594
L47.9062 51.8594
L29.9844 27.4375
L49.2656 0
L38.4844 0
L27.8281 16.1094
L25 20.4531
L11.375 0
z
" id="ArialMT-78"/>
      <path d="
M6.64062 61.4688
L6.64062 71.5781
L15.4375 71.5781
L15.4375 61.4688
z

M6.64062 0
L6.64062 51.8594
L15.4375 51.8594
L15.4375 0
z
" id="ArialMT-69"/>
      <path d="
M3.07812 15.4844
L11.7656 16.8438
Q12.5 11.625 15.8438 8.84375
Q19.1875 6.0625 25.2031 6.0625
Q31.25 6.0625 34.1719 8.51562
Q37.1094 10.9844 37.1094 14.3125
Q37.1094 17.2812 34.5156 19
Q32.7188 20.1719 25.5312 21.9688
Q15.875 24.4219 12.1406 26.2031
Q8.40625 27.9844 6.46875 31.125
Q4.54688 34.2812 4.54688 38.0938
Q4.54688 41.5469 6.125 44.5
Q7.71875 47.4688 10.4531 49.4219
Q12.5 50.9219 16.0312 51.9688
Q19.5781 53.0312 23.6406 53.0312
Q29.7344 53.0312 34.3438 51.2656
Q38.9688 49.5156 41.1562 46.5
Q43.3594 43.5 44.1875 38.4844
L35.5938 37.3125
Q35.0156 41.3125 32.2031 43.5469
Q29.3906 45.7969 24.2656 45.7969
Q18.2188 45.7969 15.625 43.7969
Q13.0312 41.7969 13.0312 39.1094
Q13.0312 37.4062 14.1094 36.0312
Q15.1875 34.625 17.4844 33.6875
Q18.7969 33.2031 25.25 31.4531
Q34.5781 28.9531 38.25 27.3594
Q41.9375 25.7812 44.0312 22.75
Q46.1406 19.7344 46.1406 15.2344
Q46.1406 10.8438 43.5781 6.95312
Q41.0156 3.07812 36.1719 0.953125
Q31.3438 -1.17188 25.25 -1.17188
Q15.1406 -1.17188 9.84375 3.03125
Q4.54688 7.23438 3.07812 15.4844" id="ArialMT-73"/>
      <path d="
M6.59375 0
L6.59375 51.8594
L14.5 51.8594
L14.5 44.4844
Q20.2188 53.0312 31 53.0312
Q35.6875 53.0312 39.625 51.3438
Q43.5625 49.6562 45.5156 46.9219
Q47.4688 44.1875 48.25 40.4375
Q48.7344 37.9844 48.7344 31.8906
L48.7344 0
L39.9375 0
L39.9375 31.5469
Q39.9375 36.9219 38.9062 39.5781
Q37.8906 42.2344 35.2812 43.8125
Q32.6719 45.4062 29.1562 45.4062
Q23.5312 45.4062 19.4531 41.8438
Q15.375 38.2812 15.375 28.3281
L15.375 0
z
" id="ArialMT-6e"/>
      <path d="
M6.5 0
L6.5 51.8594
L14.4062 51.8594
L14.4062 44
Q17.4375 49.5156 20 51.2656
Q22.5625 53.0312 25.6406 53.0312
Q30.0781 53.0312 34.6719 50.2031
L31.6406 42.0469
Q28.4219 43.9531 25.2031 43.9531
Q22.3125 43.9531 20.0156 42.2188
Q17.7188 40.4844 16.75 37.4062
Q15.2812 32.7188 15.2812 27.1562
L15.2812 0
z
" id="ArialMT-72"/>
      <path d="
M42.0938 16.7031
L51.1719 15.5781
Q49.0312 7.625 43.2188 3.21875
Q37.4062 -1.17188 28.375 -1.17188
Q17 -1.17188 10.3281 5.82812
Q3.65625 12.8438 3.65625 25.4844
Q3.65625 38.5781 10.3906 45.7969
Q17.1406 53.0312 27.875 53.0312
Q38.2812 53.0312 44.875 45.9531
Q51.4688 38.875 51.4688 26.0312
Q51.4688 25.25 51.4219 23.6875
L12.75 23.6875
Q13.2344 15.1406 17.5781 10.5938
Q21.9219 6.0625 28.4219 6.0625
Q33.25 6.0625 36.6719 8.59375
Q40.0938 11.1406 42.0938 16.7031
M13.2344 30.9062
L42.1875 30.9062
Q41.6094 37.4531 38.875 40.7188
Q34.6719 45.7969 27.9844 45.7969
Q21.9219 45.7969 17.7969 41.75
Q13.6719 37.7031 13.2344 30.9062" id="ArialMT-65"/>
     </defs>
     <g style="fill:#262626;" transform="translate(15.07359375 124.23671875)rotate(-90.0)scale(0.11 -0.11)">
      <use xlink:href="#ArialMT-45"/>
      <use x="66.69921875" xlink:href="#ArialMT-78"/>
      <use x="116.69921875" xlink:href="#ArialMT-70"/>
      <use x="172.314453125" xlink:href="#ArialMT-72"/>
      <use x="205.615234375" xlink:href="#ArialMT-65"/>
      <use x="261.23046875" xlink:href="#ArialMT-73"/>
      <use x="311.23046875" xlink:href="#ArialMT-73"/>
      <use x="361.23046875" xlink:href="#ArialMT-69"/>
      <use x="383.447265625" xlink:href="#ArialMT-6f"/>
      <use x="439.0625" xlink:href="#ArialMT-6e"/>
     </g>
    </g>
   </g>
   <g id="line2d_13">
    <path clip-path="url(#p2fc4386486)" d="
M54.0442 155.619
L63.0625 147.222
L72.0807 149.327
L81.099 151.384
L90.1173 148.67
L99.1355 144.314
L108.154 146.359
L117.172 137.914
L126.19 126.794
L135.209 118.261
L144.227 96.825
L153.245 83.134
L162.263 62.1846
L171.282 55.0376
L180.3 55.0151
L189.318 60.2132
L198.336 69.0179
L207.355 76.0333
L216.373 69.6163
L225.391 71.7456
L234.409 76.2748
L243.428 77.2123
L252.446 76.6376
L261.464 78.7451" style="fill:none;stroke:#d9544d;stroke-linecap:round;"/>
   </g>
   <g id="line2d_14">
    <path clip-path="url(#p2fc4386486)" d="
M54.0442 140.035
L63.0625 145.352
L72.0807 154.413
L81.099 156.246
L90.1173 154.786
L99.1355 149.322
L108.154 144.726
L117.172 134.45
L126.19 126.554
L135.209 119.081
L144.227 101.108
L153.245 91.1574
L162.263 71.5155
L171.282 59.8523
L180.3 60.1549
L189.318 64.7204
L198.336 71.5908
L207.355 75.8631
L216.373 68.6247
L225.391 68.6252
L234.409 69.7904
L243.428 70.1016
L252.446 67.9668
L261.464 67.5191" style="fill:none;stroke:#d9544d;stroke-linecap:round;"/>
   </g>
   <g id="line2d_15">
    <path clip-path="url(#p2fc4386486)" d="
M54.0442 150.724
L63.0625 149.201
L72.0807 153.158
L81.099 150.418
L90.1173 148.277
L99.1355 147.149
L108.154 145.992
L117.172 134.658
L126.19 129.302
L135.209 121.396
L144.227 99.4185
L153.245 84.9409
L162.263 70.0096
L171.282 65.3684
L180.3 69.4943
L189.318 71.8724
L198.336 72.3404
L207.355 74.5858
L216.373 65.884
L225.391 60.6787
L234.409 67.2222
L243.428 70.2606
L252.446 68.2609
L261.464 62.9458" style="fill:none;stroke:#d9544d;stroke-linecap:round;"/>
   </g>
   <g id="line2d_16">
    <path clip-path="url(#p2fc4386486)" d="
M54.0442 151.438
L63.0625 144.699
L72.0807 148.045
L81.099 142.443
L90.1173 145.547
L99.1355 147.332
L108.154 149.294
L117.172 133.893
L126.19 118.917
L135.209 99.0756
L144.227 56.9804
L153.245 44.702
L162.263 33.5323
L171.282 49.9672
L180.3 72.4451
L189.318 67.1834
L198.336 78.8859
L207.355 102.535
L216.373 92.1164
L225.391 90.5108
L234.409 99.2141
L243.428 102.027
L252.446 87.7847
L261.464 74.989" style="fill:none;stroke:#d9544d;stroke-linecap:round;"/>
   </g>
   <g id="line2d_17">
    <path clip-path="url(#p2fc4386486)" d="
M54.0442 151.64
L63.0625 145.926
L72.0807 143.314
L81.099 137.584
L90.1173 145.368
L99.1355 145.373
L108.154 143.106
L117.172 136.893
L126.19 139.577
L135.209 133.255
L144.227 108.88
L153.245 87.0284
L162.263 59.2401
L171.282 46.6203
L180.3 54.8122
L189.318 59.1062
L198.336 59.9482
L207.355 75.2226
L216.373 71.1334
L225.391 76.4322
L234.409 80.9938
L243.428 79.3621
L252.446 76.1791
L261.464 76.5627" style="fill:none;stroke:#d9544d;stroke-linecap:round;"/>
   </g>
   <g id="line2d_18">
    <path clip-path="url(#p2fc4386486)" d="
M54.0442 143.878
L63.0625 143.645
L72.0807 148.05
L81.099 151.104
L90.1173 152.395
L99.1355 149.097
L108.154 147.41
L117.172 140.789
L126.19 134.057
L135.209 121.676
L144.227 99.6566
L153.245 85.4566
L162.263 72.0126
L171.282 65.368
L180.3 64.505
L189.318 63.0723
L198.336 68.212
L207.355 75.2761
L216.373 66.9685
L225.391 64.888
L234.409 68.0483
L243.428 70.3808
L252.446 69.1169
L261.464 68.4934" style="fill:none;stroke:#d9544d;stroke-linecap:round;"/>
   </g>
   <g id="line2d_19">
    <path clip-path="url(#p2fc4386486)" d="
M54.0442 153.341
L63.0625 147.611
L72.0807 145.897
L81.099 144.616
L90.1173 148.95
L99.1355 148.226
L108.154 142.994
L117.172 137.983
L126.19 134.901
L135.209 124.363
L144.227 102.404
L153.245 92.3249
L162.263 68.1872
L171.282 55.959
L180.3 61.7795
L189.318 64.6249
L198.336 68.4572
L207.355 75.5714
L216.373 72.7316
L225.391 70.2822
L234.409 69.0144
L243.428 67.6407
L252.446 67.5454
L261.464 68.1522" style="fill:none;stroke:#d9544d;stroke-linecap:round;"/>
   </g>
   <g id="line2d_20">
    <path clip-path="url(#p2fc4386486)" d="
M54.0442 119.163
L63.0625 135.8
L72.0807 158.691
L81.099 168.031
L90.1173 163.528
L99.1355 151.103
L108.154 143.067
L117.172 131.79
L126.19 115.175
L135.209 109.661
L144.227 86.2162
L153.245 66.9703
L162.263 42.0753
L171.282 44.3297
L180.3 61.0386
L189.318 78.1033
L198.336 81.2835
L207.355 78.2931
L216.373 71.7836
L225.391 80.541
L234.409 89.2524
L243.428 90.1921
L252.446 80.0227
L261.464 87.4448" style="fill:none;stroke:#d9544d;stroke-linecap:round;"/>
   </g>
   <g id="line2d_21">
    <path clip-path="url(#p2fc4386486)" d="
M54.0442 156.893
L63.0625 152.556
L72.0807 152.121
L81.099 149.363
L90.1173 146.556
L99.1355 140.639
L108.154 143.061
L117.172 142.512
L126.19 128.382
L135.209 112.568
L144.227 84.0274
L153.245 72.4902
L162.263 52.761
L171.282 50.6988
L180.3 60.359
L189.318 71.385
L198.336 71.2373
L207.355 78.0289
L216.373 76.7166
L225.391 73.8303
L234.409 77.8781
L243.428 89.7032
L252.446 73.8463
L261.464 75.943" style="fill:none;stroke:#d9544d;stroke-linecap:round;"/>
   </g>
   <g id="line2d_22">
    <path clip-path="url(#p2fc4386486)" d="
M54.0442 157.453
L63.0625 155.55
L72.0807 146.951
L81.099 143.449
L90.1173 144.911
L99.1355 131.154
L108.154 129.731
L117.172 131.708
L126.19 135.5
L135.209 131.959
L144.227 98.7833
L153.245 81.391
L162.263 64.3236
L171.282 65.3971
L180.3 78.3541
L189.318 80.0683
L198.336 93.4348
L207.355 89.9974
L216.373 69.6152
L225.391 64.0051
L234.409 71.6142
L243.428 88.4318
L252.446 50.0356
L261.464 29.7393" style="fill:none;stroke:#d9544d;stroke-linecap:round;"/>
   </g>
   <g id="line2d_23">
    <path clip-path="url(#p2fc4386486)" d="
M54.0442 152.99
L63.0625 154.489
L72.0807 148.728
L81.099 139.576
L90.1173 144.354
L99.1355 136.858
L108.154 134.545
L117.172 137.703
L126.19 132.677
L135.209 132.521
L144.227 119.963
L153.245 98.0659
L162.263 77.2485
L171.282 74.7149
L180.3 69.1109
L189.318 63.3459
L198.336 67.2373
L207.355 76.6286
L216.373 67.4439
L225.391 66.7519
L234.409 66.3745
L243.428 63.2817
L252.446 52.7046
L261.464 56.2454" style="fill:none;stroke:#d9544d;stroke-linecap:round;"/>
   </g>
   <g id="line2d_24">
    <path clip-path="url(#p2fc4386486)" d="
M54.0442 146.164
L63.0625 140.849
L72.0807 140.205
L81.099 142.917
L90.1173 143.848
L99.1355 152.223
L108.154 156.384
L117.172 150.86
L126.19 137.585
L135.209 117.369
L144.227 88.899
L153.245 74.6165
L162.263 56.8057
L171.282 51.5065
L180.3 59.0681
L189.318 65.8355
L198.336 66.9862
L207.355 74.6785
L216.373 69.6455
L225.391 76.2355
L234.409 83.1752
L243.428 84.7481
L252.446 76.9057
L261.464 76.0469" style="fill:none;stroke:#d9544d;stroke-linecap:round;"/>
   </g>
   <g id="line2d_25">
    <path clip-path="url(#p2fc4386486)" d="
M54.0442 129.337
L63.0625 135.556
L72.0807 140.41
L81.099 138.592
L90.1173 140.839
L99.1355 151.137
L108.154 157.771
L117.172 151.723
L126.19 144.58
L135.209 135.012
L144.227 107.924
L153.245 78.8433
L162.263 54.0369
L171.282 53.7205
L180.3 61.2226
L189.318 69.4878
L198.336 77.6001
L207.355 81.6845
L216.373 71.319
L225.391 70.4443
L234.409 75.7285
L243.428 75.5349
L252.446 66.5783
L261.464 64.4738" style="fill:none;stroke:#d9544d;stroke-linecap:round;"/>
   </g>
   <g id="line2d_26">
    <path clip-path="url(#p2fc4386486)" d="
M54.0442 146.051
L63.0625 145.545
L72.0807 155.123
L81.099 158.064
L90.1173 154.241
L99.1355 149.931
L108.154 144.807
L117.172 138.815
L126.19 125.437
L135.209 106.82
L144.227 85.9658
L153.245 79.2243
L162.263 60.445
L171.282 56.6878
L180.3 62.2853
L189.318 67.825
L198.336 73.5233
L207.355 76.8056
L216.373 71.0407
L225.391 75.7763
L234.409 77.6164
L243.428 80.3041
L252.446 70.4344
L261.464 70.7877" style="fill:none;stroke:#d9544d;stroke-linecap:round;"/>
   </g>
   <g id="line2d_27">
    <path clip-path="url(#p2fc4386486)" d="
M54.0442 133.681
L63.0625 140.127
L72.0807 147.176
L81.099 152.265
L90.1173 152.67
L99.1355 149.349
L108.154 147.661
L117.172 143.387
L126.19 129.193
L135.209 113.365
L144.227 98.4297
L153.245 90.0792
L162.263 61.8177
L171.282 51.5782
L180.3 49.3724
L189.318 46.3535
L198.336 58.7278
L207.355 72.039
L216.373 68.9426
L225.391 76.3785
L234.409 85.8575
L243.428 89.4011
L252.446 87.7759
L261.464 87.9311" style="fill:none;stroke:#d9544d;stroke-linecap:round;"/>
   </g>
   <g id="line2d_28">
    <path clip-path="url(#p2fc4386486)" d="
M54.0442 124.951
L63.0625 117.68
L72.0807 118.608
L81.099 125.345
L90.1173 144.877
L99.1355 141.046
L108.154 149.42
L117.172 158.901
L126.19 167.215
L135.209 146.718
L144.227 103.927
L153.245 91.8909
L162.263 63.8213
L171.282 43.3925
L180.3 50.6676
L189.318 53.0315
L198.336 66.5943
L207.355 87.1369
L216.373 87.0913
L225.391 87.8915
L234.409 91.294
L243.428 85.0359
L252.446 67.359
L261.464 59.6619" style="fill:none;stroke:#d9544d;stroke-linecap:round;"/>
   </g>
   <g id="line2d_29">
    <path clip-path="url(#p2fc4386486)" d="
M54.0442 162.916
L63.0625 151.953
L72.0807 149.278
L81.099 147.441
L90.1173 145.766
L99.1355 143.252
L108.154 142.841
L117.172 142.481
L126.19 127.875
L135.209 111.908
L144.227 90.8552
L153.245 79.9985
L162.263 62.6633
L171.282 58.3997
L180.3 60.7781
L189.318 60.5346
L198.336 69.1386
L207.355 76.0784
L216.373 67.1383
L225.391 68.0638
L234.409 76.3365
L243.428 82.2636
L252.446 76.0473
L261.464 79.5498" style="fill:none;stroke:#d9544d;stroke-linecap:round;"/>
   </g>
   <g id="line2d_30">
    <path clip-path="url(#p2fc4386486)" d="
M54.0442 147.449
L63.0625 145.342
L72.0807 146.437
L81.099 146.589
L90.1173 146.126
L99.1355 144.71
L108.154 143.224
L117.172 144.012
L126.19 138.214
L135.209 123.334
L144.227 100.789
L153.245 83.7938
L162.263 57.7079
L171.282 49.5598
L180.3 53.1057
L189.318 57.3124
L198.336 68.3803
L207.355 82.7422
L216.373 73.3735
L225.391 72.5587
L234.409 79.3142
L243.428 80.0644
L252.446 75.9485
L261.464 73.4688" style="fill:none;stroke:#d9544d;stroke-linecap:round;"/>
   </g>
   <g id="line2d_31">
    <path clip-path="url(#p2fc4386486)" d="
M54.0442 142.492
L63.0625 138.204
L72.0807 144.604
L81.099 153.617
L90.1173 160.421
L99.1355 149.128
L108.154 149.149
L117.172 137.453
L126.19 119.183
L135.209 105.07
L144.227 72.6354
L153.245 64.5763
L162.263 45.8727
L171.282 43.4442
L180.3 55.6284
L189.318 61.6695
L198.336 75.6258
L207.355 99.0771
L216.373 91.2607
L225.391 88.1244
L234.409 93.5889
L243.428 90.2706
L252.446 77.2696
L261.464 75.1939" style="fill:none;stroke:#d9544d;stroke-linecap:round;"/>
   </g>
   <g id="line2d_32">
    <path clip-path="url(#p2fc4386486)" d="
M54.0442 133.257
L63.0625 133.623
L72.0807 135.894
L81.099 140.328
L90.1173 147.916
L99.1355 154.411
L108.154 154.035
L117.172 145.289
L126.19 141.709
L135.209 136.169
L144.227 113.183
L153.245 96.4079
L162.263 74.937
L171.282 66.7044
L180.3 65.9587
L189.318 59.9398
L198.336 61.606
L207.355 71.6072
L216.373 64.4424
L225.391 63.8034
L234.409 70.0459
L243.428 69.6355
L252.446 66.7341
L261.464 65.9199" style="fill:none;stroke:#d9544d;stroke-linecap:round;"/>
   </g>
   <g id="line2d_33">
    <path clip-path="url(#p2fc4386486)" d="
M54.0442 149.287
L63.0625 143.136
L72.0807 146.309
L81.099 146.898
L90.1173 151.658
L99.1355 148.661
L108.154 145.8
L117.172 146.885
L126.19 133.582
L135.209 115.767
L144.227 101.705
L153.245 85.8557
L162.263 65.3022
L171.282 59.6035
L180.3 60.6607
L189.318 61.0563
L198.336 69.2398
L207.355 76.0624
L216.373 66.7482
L225.391 70.1931
L234.409 74.8094
L243.428 72.1759
L252.446 68.2881
L261.464 73.8739" style="fill:none;stroke:#d9544d;stroke-linecap:round;"/>
   </g>
   <g id="patch_3">
    <path d="
M54.0442 174.898
L54.0442 20.7894" style="fill:none;stroke:#262626;stroke-linecap:square;stroke-linejoin:miter;stroke-width:1.25;"/>
   </g>
   <g id="patch_4">
    <path d="
M54.0442 174.898
L261.464 174.898" style="fill:none;stroke:#262626;stroke-linecap:square;stroke-linejoin:miter;stroke-width:1.25;"/>
   </g>
   <g id="text_14">
    <!-- Botrytis -->
    <defs>
     <path d="
M7.32812 0
L7.32812 71.5781
L34.1875 71.5781
Q42.3906 71.5781 47.3438 69.4062
Q52.2969 67.2344 55.0938 62.7188
Q57.9062 58.2031 57.9062 53.2656
Q57.9062 48.6875 55.4219 44.625
Q52.9375 40.5781 47.9062 38.0938
Q54.3906 36.1875 57.875 31.5938
Q61.375 27 61.375 20.75
Q61.375 15.7188 59.25 11.3906
Q57.125 7.07812 54 4.73438
Q50.875 2.39062 46.1562 1.1875
Q41.4531 0 34.625 0
z

M16.7969 41.5
L32.2812 41.5
Q38.5781 41.5 41.3125 42.3281
Q44.9219 43.4062 46.75 45.8906
Q48.5781 48.3906 48.5781 52.1562
Q48.5781 55.7188 46.875 58.4219
Q45.1719 61.1406 41.9844 62.1406
Q38.8125 63.1406 31.1094 63.1406
L16.7969 63.1406
z

M16.7969 8.45312
L34.625 8.45312
Q39.2031 8.45312 41.0625 8.79688
Q44.3438 9.375 46.5312 10.7344
Q48.7344 12.1094 50.1406 14.7188
Q51.5625 17.3281 51.5625 20.75
Q51.5625 24.75 49.5156 27.7031
Q47.4688 30.6719 43.8281 31.8594
Q40.1875 33.0625 33.3438 33.0625
L16.7969 33.0625
z
" id="ArialMT-42"/>
     <path d="
M6.20312 -19.9688
L5.21875 -11.7188
Q8.10938 -12.5 10.25 -12.5
Q13.1875 -12.5 14.9375 -11.5156
Q16.7031 -10.5469 17.8281 -8.79688
Q18.6562 -7.46875 20.5156 -2.25
Q20.75 -1.51562 21.2969 -0.09375
L1.60938 51.8594
L11.0781 51.8594
L21.875 21.8281
Q23.9688 16.1094 25.6406 9.8125
Q27.1562 15.875 29.25 21.625
L40.3281 51.8594
L49.125 51.8594
L29.3906 -0.875
Q26.2188 -9.42188 24.4688 -12.6406
Q22.125 -17 19.0938 -19.0156
Q16.0625 -21.0469 11.8594 -21.0469
Q9.32812 -21.0469 6.20312 -19.9688" id="ArialMT-79"/>
     <path d="
M25.7812 7.85938
L27.0469 0.09375
Q23.3438 -0.6875 20.4062 -0.6875
Q15.625 -0.6875 12.9844 0.828125
Q10.3594 2.34375 9.28125 4.8125
Q8.20312 7.28125 8.20312 15.1875
L8.20312 45.0156
L1.76562 45.0156
L1.76562 51.8594
L8.20312 51.8594
L8.20312 64.7031
L16.9375 69.9688
L16.9375 51.8594
L25.7812 51.8594
L25.7812 45.0156
L16.9375 45.0156
L16.9375 14.7031
Q16.9375 10.9375 17.4062 9.85938
Q17.875 8.79688 18.9219 8.15625
Q19.9688 7.51562 21.9219 7.51562
Q23.3906 7.51562 25.7812 7.85938" id="ArialMT-74"/>
    </defs>
    <g style="fill:#262626;" transform="translate(138.42203125 15.789375)scale(0.12 -0.12)">
     <use xlink:href="#ArialMT-42"/>
     <use x="66.69921875" xlink:href="#ArialMT-6f"/>
     <use x="122.314453125" xlink:href="#ArialMT-74"/>
     <use x="150.09765625" xlink:href="#ArialMT-72"/>
     <use x="183.3984375" xlink:href="#ArialMT-79"/>
     <use x="233.3984375" xlink:href="#ArialMT-74"/>
     <use x="261.181640625" xlink:href="#ArialMT-69"/>
     <use x="283.3984375" xlink:href="#ArialMT-73"/>
    </g>
   </g>
  </g>
  <g id="axes_2">
   <g id="patch_5">
    <path d="
M274.424 174.898
L481.844 174.898
L481.844 20.7894
L274.424 20.7894
z
" style="fill:#ffffff;"/>
   </g>
   <g id="matplotlib.axis_3">
    <g id="xtick_5">
     <g id="line2d_34">
      <g>
       <use style="fill:#262626;stroke:#262626;" x="284.79521875" xlink:href="#me1deecec79" y="174.8978125"/>
      </g>
     </g>
     <g id="text_15">
      <!-- 20 -->
      <g style="fill:#262626;" transform="translate(279.62021875 195.055625)scale(0.1 -0.1)">
       <use xlink:href="#ArialMT-32"/>
       <use x="55.615234375" xlink:href="#ArialMT-30"/>
      </g>
     </g>
    </g>
    <g id="xtick_6">
     <g id="line2d_35">
      <g>
       <use style="fill:#262626;stroke:#262626;" x="336.65021875" xlink:href="#me1deecec79" y="174.8978125"/>
      </g>
     </g>
     <g id="text_16">
      <!-- 25 -->
      <g style="fill:#262626;" transform="translate(331.43615625 195.055625)scale(0.1 -0.1)">
       <use xlink:href="#ArialMT-32"/>
       <use x="55.615234375" xlink:href="#ArialMT-35"/>
      </g>
     </g>
    </g>
    <g id="xtick_7">
     <g id="line2d_36">
      <g>
       <use style="fill:#262626;stroke:#262626;" x="388.50521875" xlink:href="#me1deecec79" y="174.8978125"/>
      </g>
     </g>
     <g id="text_17">
      <!-- 30 -->
      <g style="fill:#262626;" transform="translate(383.3935 195.055625)scale(0.1 -0.1)">
       <use xlink:href="#ArialMT-33"/>
       <use x="55.615234375" xlink:href="#ArialMT-30"/>
      </g>
     </g>
    </g>
    <g id="xtick_8">
     <g id="line2d_37">
      <g>
       <use style="fill:#262626;stroke:#262626;" x="440.36021875" xlink:href="#me1deecec79" y="174.8978125"/>
      </g>
     </g>
     <g id="text_18">
      <!-- 35 -->
      <g style="fill:#262626;" transform="translate(435.2094375 195.055625)scale(0.1 -0.1)">
       <use xlink:href="#ArialMT-33"/>
       <use x="55.615234375" xlink:href="#ArialMT-35"/>
      </g>
     </g>
    </g>
   </g>
   <g id="matplotlib.axis_4">
    <g id="ytick_9">
     <g id="line2d_38">
      <g>
       <use style="fill:#262626;stroke:#262626;" x="274.42421875" xlink:href="#m4aded61697" y="157.356204136"/>
      </g>
     </g>
    </g>
    <g id="ytick_10">
     <g id="line2d_39">
      <g>
       <use style="fill:#262626;stroke:#262626;" x="274.42421875" xlink:href="#m4aded61697" y="138.703538358"/>
      </g>
     </g>
    </g>
    <g id="ytick_11">
     <g id="line2d_40">
      <g>
       <use style="fill:#262626;stroke:#262626;" x="274.42421875" xlink:href="#m4aded61697" y="120.050872581"/>
      </g>
     </g>
    </g>
    <g id="ytick_12">
     <g id="line2d_41">
      <g>
       <use style="fill:#262626;stroke:#262626;" x="274.42421875" xlink:href="#m4aded61697" y="101.398206803"/>
      </g>
     </g>
    </g>
    <g id="ytick_13">
     <g id="line2d_42">
      <g>
       <use style="fill:#262626;stroke:#262626;" x="274.42421875" xlink:href="#m4aded61697" y="82.7455410249"/>
      </g>
     </g>
    </g>
    <g id="ytick_14">
     <g id="line2d_43">
      <g>
       <use style="fill:#262626;stroke:#262626;" x="274.42421875" xlink:href="#m4aded61697" y="64.092875247"/>
      </g>
     </g>
    </g>
    <g id="ytick_15">
     <g id="line2d_44">
      <g>
       <use style="fill:#262626;stroke:#262626;" x="274.42421875" xlink:href="#m4aded61697" y="45.4402094692"/>
      </g>
     </g>
    </g>
    <g id="ytick_16">
     <g id="line2d_45">
      <g>
       <use style="fill:#262626;stroke:#262626;" x="274.42421875" xlink:href="#m4aded61697" y="26.7875436914"/>
      </g>
     </g>
    </g>
   </g>
   <g id="line2d_46">
    <path clip-path="url(#p5d6dd64791)" d="
M274.424 152.318
L295.166 151.667
L315.908 141.277
L336.65 119.36
L357.392 116.476
L378.134 99.1391
L398.876 77.1948
L419.618 79.1806
L440.36 72.5231
L461.102 59.3434
L481.844 46.901" style="fill:none;stroke:#d9544d;stroke-linecap:round;"/>
   </g>
   <g id="line2d_47">
    <path clip-path="url(#p5d6dd64791)" d="
M274.424 145.524
L295.166 145.335
L315.908 139.238
L336.65 116.301
L357.392 120.418
L378.134 114.858
L398.876 91.7023
L419.618 80.7468
L440.36 70.9844
L461.102 50.8911
L481.844 39.382" style="fill:none;stroke:#d9544d;stroke-linecap:round;"/>
   </g>
   <g id="line2d_48">
    <path clip-path="url(#p5d6dd64791)" d="
M274.424 135.189
L295.166 147.019
L315.908 142.269
L336.65 125.346
L357.392 126.541
L378.134 110.698
L398.876 86.2252
L419.618 77.6357
L440.36 69.4806
L461.102 54.7386
L481.844 40.2383" style="fill:none;stroke:#d9544d;stroke-linecap:round;"/>
   </g>
   <g id="line2d_49">
    <path clip-path="url(#p5d6dd64791)" d="
M274.424 132.906
L295.166 134.985
L315.908 136.735
L336.65 140.3
L357.392 140.324
L378.134 111.325
L398.876 79.5044
L419.618 63.185
L440.36 59.9794
L461.102 60.3179
L481.844 55.8183" style="fill:none;stroke:#d9544d;stroke-linecap:round;"/>
   </g>
   <g id="line2d_50">
    <path clip-path="url(#p5d6dd64791)" d="
M274.424 147.305
L295.166 147.472
L315.908 141.001
L336.65 121.156
L357.392 118.556
L378.134 107.208
L398.876 86.9163
L419.618 82.0326
L440.36 66.8745
L461.102 50.8677
L481.844 45.9922" style="fill:none;stroke:#d9544d;stroke-linecap:round;"/>
   </g>
   <g id="line2d_51">
    <path clip-path="url(#p5d6dd64791)" d="
M274.424 140.498
L295.166 152.818
L315.908 143.937
L336.65 124.51
L357.392 122.674
L378.134 103.215
L398.876 78.4027
L419.618 72.2488
L440.36 69.4246
L461.102 56.7843
L481.844 50.8685" style="fill:none;stroke:#d9544d;stroke-linecap:round;"/>
   </g>
   <g id="line2d_52">
    <path clip-path="url(#p5d6dd64791)" d="
M274.424 150.986
L295.166 149.168
L315.908 138.079
L336.65 121.219
L357.392 121.077
L378.134 106.973
L398.876 82.2302
L419.618 71.1957
L440.36 66.2344
L461.102 58.0205
L481.844 50.197" style="fill:none;stroke:#d9544d;stroke-linecap:round;"/>
   </g>
   <g id="line2d_53">
    <path clip-path="url(#p5d6dd64791)" d="
M274.424 150.013
L295.166 148.109
L315.908 141.155
L336.65 123.423
L357.392 121.314
L378.134 98.5413
L398.876 78.7146
L419.618 76.0071
L440.36 73.2185
L461.102 61.2307
L481.844 43.6545" style="fill:none;stroke:#d9544d;stroke-linecap:round;"/>
   </g>
   <g id="line2d_54">
    <path clip-path="url(#p5d6dd64791)" d="
M274.424 134.699
L295.166 136.53
L315.908 133.913
L336.65 128.837
L357.392 132.927
L378.134 122.703
L398.876 94.1495
L419.618 75.0959
L440.36 64.6421
L461.102 51.8403
L481.844 40.0441" style="fill:none;stroke:#d9544d;stroke-linecap:round;"/>
   </g>
   <g id="line2d_55">
    <path clip-path="url(#p5d6dd64791)" d="
M274.424 146.72
L295.166 147.067
L315.908 138.327
L336.65 124.576
L357.392 127.271
L378.134 109.381
L398.876 77.0581
L419.618 69.9391
L440.36 58.6165
L461.102 58.759
L481.844 57.665" style="fill:none;stroke:#d9544d;stroke-linecap:round;"/>
   </g>
   <g id="line2d_56">
    <path clip-path="url(#p5d6dd64791)" d="
M274.424 141.338
L295.166 143.437
L315.908 139.36
L336.65 131.558
L357.392 130.515
L378.134 107.138
L398.876 77.4957
L419.618 72.8692
L440.36 61.6641
L461.102 60.1885
L481.844 49.8162" style="fill:none;stroke:#d9544d;stroke-linecap:round;"/>
   </g>
   <g id="line2d_57">
    <path clip-path="url(#p5d6dd64791)" d="
M274.424 119.601
L295.166 135.447
L315.908 131.629
L336.65 112.701
L357.392 138.267
L378.134 134.455
L398.876 104.273
L419.618 88.2541
L440.36 71.7793
L461.102 49.6874
L481.844 29.286" style="fill:none;stroke:#d9544d;stroke-linecap:round;"/>
   </g>
   <g id="line2d_58">
    <path clip-path="url(#p5d6dd64791)" d="
M274.424 130.649
L295.166 131.821
L315.908 135.394
L336.65 135.771
L357.392 138.309
L378.134 119.198
L398.876 90.2384
L419.618 75.7924
L440.36 64.1363
L461.102 51.4921
L481.844 42.5773" style="fill:none;stroke:#d9544d;stroke-linecap:round;"/>
   </g>
   <g id="line2d_59">
    <path clip-path="url(#p5d6dd64791)" d="
M274.424 106.644
L295.166 127.982
L315.908 131.552
L336.65 123.018
L357.392 136.298
L378.134 135.563
L398.876 112.009
L419.618 95.0303
L440.36 72.7936
L461.102 47.6876
L481.844 26.8022" style="fill:none;stroke:#d9544d;stroke-linecap:round;"/>
   </g>
   <g id="line2d_60">
    <path clip-path="url(#p5d6dd64791)" d="
M274.424 145.108
L295.166 148.764
L315.908 143.025
L336.65 129.584
L357.392 119.441
L378.134 101.025
L398.876 82.4746
L419.618 70.1493
L440.36 64.8596
L461.102 58.8213
L481.844 52.1288" style="fill:none;stroke:#d9544d;stroke-linecap:round;"/>
   </g>
   <g id="line2d_61">
    <path clip-path="url(#p5d6dd64791)" d="
M274.424 146.084
L295.166 143.966
L315.908 132.765
L336.65 117.417
L357.392 127.245
L378.134 121.572
L398.876 91.6931
L419.618 74.5221
L440.36 59.1088
L461.102 52.3993
L481.844 48.6085" style="fill:none;stroke:#d9544d;stroke-linecap:round;"/>
   </g>
   <g id="line2d_62">
    <path clip-path="url(#p5d6dd64791)" d="
M274.424 124.796
L295.166 135.18
L315.908 149.331
L336.65 138.672
L357.392 129.522
L378.134 112.078
L398.876 87.6993
L419.618 74.5081
L440.36 62.9137
L461.102 54.2558
L481.844 46.4245" style="fill:none;stroke:#d9544d;stroke-linecap:round;"/>
   </g>
   <g id="line2d_63">
    <path clip-path="url(#p5d6dd64791)" d="
M274.424 126.32
L295.166 132.17
L315.908 138.953
L336.65 132.333
L357.392 131.48
L378.134 121.641
L398.876 97.1629
L419.618 84.3654
L440.36 67.745
L461.102 47.7604
L481.844 35.4493" style="fill:none;stroke:#d9544d;stroke-linecap:round;"/>
   </g>
   <g id="line2d_64">
    <path clip-path="url(#p5d6dd64791)" d="
M274.424 118.325
L295.166 125.6
L315.908 131.165
L336.65 139.688
L357.392 153.34
L378.134 124.818
L398.876 82.6338
L419.618 64.23
L440.36 65.9402
L461.102 62.4397
L481.844 47.2005" style="fill:none;stroke:#d9544d;stroke-linecap:round;"/>
   </g>
   <g id="line2d_65">
    <path clip-path="url(#p5d6dd64791)" d="
M274.424 140.294
L295.166 145.406
L315.908 141.222
L336.65 125.072
L357.392 123.193
L378.134 111.73
L398.876 90.4275
L419.618 76.4025
L440.36 64.8297
L461.102 52.8488
L481.844 43.9546" style="fill:none;stroke:#d9544d;stroke-linecap:round;"/>
   </g>
   <g id="line2d_66">
    <path clip-path="url(#p5d6dd64791)" d="
M274.424 146.747
L295.166 146.564
L315.908 139.176
L336.65 121.668
L357.392 116.782
L378.134 111.227
L398.876 93.7734
L419.618 79.1591
L440.36 64.2855
L461.102 50.848
L481.844 45.1509" style="fill:none;stroke:#d9544d;stroke-linecap:round;"/>
   </g>
   <g id="patch_6">
    <path d="
M274.424 174.898
L274.424 20.7894" style="fill:none;stroke:#262626;stroke-linecap:square;stroke-linejoin:miter;stroke-width:1.25;"/>
   </g>
   <g id="patch_7">
    <path d="
M274.424 174.898
L481.844 174.898" style="fill:none;stroke:#262626;stroke-linecap:square;stroke-linejoin:miter;stroke-width:1.25;"/>
   </g>
   <g id="text_19">
    <!-- Senescence -->
    <defs>
     <path d="
M4.5 23
L13.4219 23.7812
Q14.0625 18.4062 16.375 14.9688
Q18.7031 11.5312 23.5781 9.40625
Q28.4688 7.28125 34.5781 7.28125
Q39.9844 7.28125 44.1406 8.89062
Q48.2969 10.5 50.3125 13.2969
Q52.3438 16.1094 52.3438 19.4375
Q52.3438 22.7969 50.3906 25.3125
Q48.4375 27.8281 43.9531 29.5469
Q41.0625 30.6719 31.2031 33.0312
Q21.3438 35.4062 17.3906 37.5
Q12.25 40.1875 9.73438 44.1562
Q7.23438 48.1406 7.23438 53.0781
Q7.23438 58.5 10.2969 63.2031
Q13.375 67.9219 19.2812 70.3594
Q25.2031 72.7969 32.4219 72.7969
Q40.375 72.7969 46.4531 70.2344
Q52.5469 67.6719 55.8125 62.6875
Q59.0781 57.7188 59.3281 51.4219
L50.25 50.7344
Q49.5156 57.5156 45.2812 60.9844
Q41.0625 64.4531 32.8125 64.4531
Q24.2188 64.4531 20.2812 61.2969
Q16.3594 58.1562 16.3594 53.7188
Q16.3594 49.8594 19.1406 47.3594
Q21.875 44.875 33.4219 42.2656
Q44.9688 39.6562 49.2656 37.7031
Q55.5156 34.8125 58.4844 30.3906
Q61.4688 25.9844 61.4688 20.2188
Q61.4688 14.5 58.2031 9.4375
Q54.9375 4.39062 48.7969 1.57812
Q42.6719 -1.21875 35.0156 -1.21875
Q25.2969 -1.21875 18.7188 1.60938
Q12.1562 4.4375 8.42188 10.125
Q4.6875 15.8281 4.5 23" id="ArialMT-53"/>
     <path d="
M40.4375 19
L49.0781 17.875
Q47.6562 8.9375 41.8125 3.875
Q35.9844 -1.17188 27.4844 -1.17188
Q16.8438 -1.17188 10.375 5.78125
Q3.90625 12.75 3.90625 25.7344
Q3.90625 34.125 6.6875 40.4219
Q9.46875 46.7344 15.1562 49.875
Q20.8438 53.0312 27.5469 53.0312
Q35.9844 53.0312 41.3594 48.75
Q46.7344 44.4844 48.25 36.625
L39.7031 35.2969
Q38.4844 40.5312 35.375 43.1562
Q32.2812 45.7969 27.875 45.7969
Q21.2344 45.7969 17.0781 41.0312
Q12.9375 36.2812 12.9375 25.9844
Q12.9375 15.5312 16.9375 10.7969
Q20.9531 6.0625 27.3906 6.0625
Q32.5625 6.0625 36.0312 9.23438
Q39.5 12.4062 40.4375 19" id="ArialMT-63"/>
    </defs>
    <g style="fill:#262626;" transform="translate(345.63109375 15.789375)scale(0.12 -0.12)">
     <use xlink:href="#ArialMT-53"/>
     <use x="66.69921875" xlink:href="#ArialMT-65"/>
     <use x="122.314453125" xlink:href="#ArialMT-6e"/>
     <use x="177.9296875" xlink:href="#ArialMT-65"/>
     <use x="233.544921875" xlink:href="#ArialMT-73"/>
     <use x="283.544921875" xlink:href="#ArialMT-63"/>
     <use x="333.544921875" xlink:href="#ArialMT-65"/>
     <use x="389.16015625" xlink:href="#ArialMT-6e"/>
     <use x="444.775390625" xlink:href="#ArialMT-63"/>
     <use x="494.775390625" xlink:href="#ArialMT-65"/>
    </g>
   </g>
  </g>
  <g id="axes_3">
   <g id="patch_8">
    <path d="
M494.804 174.898
L702.224 174.898
L702.224 20.7894
L494.804 20.7894
z
" style="fill:#ffffff;"/>
   </g>
   <g id="matplotlib.axis_5">
    <g id="xtick_9">
     <g id="line2d_67">
      <g>
       <use style="fill:#262626;stroke:#262626;" x="534.522942154" xlink:href="#me1deecec79" y="174.8978125"/>
      </g>
     </g>
     <g id="text_20">
      <!-- 5 -->
      <g style="fill:#262626;" transform="translate(532.150285904 195.055625)scale(0.1 -0.1)">
       <use xlink:href="#ArialMT-35"/>
      </g>
     </g>
    </g>
    <g id="xtick_10">
     <g id="line2d_68">
      <g>
       <use style="fill:#262626;stroke:#262626;" x="578.654857048" xlink:href="#me1deecec79" y="174.8978125"/>
      </g>
     </g>
     <g id="text_21">
      <!-- 10 -->
      <g style="fill:#262626;" transform="translate(573.877513298 195.055625)scale(0.1 -0.1)">
       <use xlink:href="#ArialMT-31"/>
       <use x="55.615234375" xlink:href="#ArialMT-30"/>
      </g>
     </g>
    </g>
    <g id="xtick_11">
     <g id="line2d_69">
      <g>
       <use style="fill:#262626;stroke:#262626;" x="622.786771941" xlink:href="#me1deecec79" y="174.8978125"/>
      </g>
     </g>
     <g id="text_22">
      <!-- 15 -->
      <g style="fill:#262626;" transform="translate(617.970365691 195.055625)scale(0.1 -0.1)">
       <use xlink:href="#ArialMT-31"/>
       <use x="55.615234375" xlink:href="#ArialMT-35"/>
      </g>
     </g>
    </g>
    <g id="xtick_12">
     <g id="line2d_70">
      <g>
       <use style="fill:#262626;stroke:#262626;" x="666.918686835" xlink:href="#me1deecec79" y="174.8978125"/>
      </g>
     </g>
     <g id="text_23">
      <!-- 20 -->
      <g style="fill:#262626;" transform="translate(661.743686835 195.055625)scale(0.1 -0.1)">
       <use xlink:href="#ArialMT-32"/>
       <use x="55.615234375" xlink:href="#ArialMT-30"/>
      </g>
     </g>
    </g>
   </g>
   <g id="matplotlib.axis_6">
    <g id="ytick_17">
     <g id="line2d_71">
      <g>
       <use style="fill:#262626;stroke:#262626;" x="494.80421875" xlink:href="#m4aded61697" y="157.356204136"/>
      </g>
     </g>
    </g>
    <g id="ytick_18">
     <g id="line2d_72">
      <g>
       <use style="fill:#262626;stroke:#262626;" x="494.80421875" xlink:href="#m4aded61697" y="138.703538358"/>
      </g>
     </g>
    </g>
    <g id="ytick_19">
     <g id="line2d_73">
      <g>
       <use style="fill:#262626;stroke:#262626;" x="494.80421875" xlink:href="#m4aded61697" y="120.050872581"/>
      </g>
     </g>
    </g>
    <g id="ytick_20">
     <g id="line2d_74">
      <g>
       <use style="fill:#262626;stroke:#262626;" x="494.80421875" xlink:href="#m4aded61697" y="101.398206803"/>
      </g>
     </g>
    </g>
    <g id="ytick_21">
     <g id="line2d_75">
      <g>
       <use style="fill:#262626;stroke:#262626;" x="494.80421875" xlink:href="#m4aded61697" y="82.7455410249"/>
      </g>
     </g>
    </g>
    <g id="ytick_22">
     <g id="line2d_76">
      <g>
       <use style="fill:#262626;stroke:#262626;" x="494.80421875" xlink:href="#m4aded61697" y="64.092875247"/>
      </g>
     </g>
    </g>
    <g id="ytick_23">
     <g id="line2d_77">
      <g>
       <use style="fill:#262626;stroke:#262626;" x="494.80421875" xlink:href="#m4aded61697" y="45.4402094692"/>
      </g>
     </g>
    </g>
    <g id="ytick_24">
     <g id="line2d_78">
      <g>
       <use style="fill:#262626;stroke:#262626;" x="494.80421875" xlink:href="#m4aded61697" y="26.7875436914"/>
      </g>
     </g>
    </g>
   </g>
   <g id="line2d_79">
    <path clip-path="url(#pb2724296c0)" d="
M494.804 155.264
L499.217 126.559
L516.87 96.0285
L543.349 44.6724
L596.308 88.8171
L702.224 97.0481" style="fill:none;stroke:#d9544d;stroke-linecap:round;"/>
   </g>
   <g id="line2d_80">
    <path clip-path="url(#pb2724296c0)" d="
M494.804 148.283
L499.217 135.289
L516.87 117.318
L543.349 81.8425
L596.308 62.3388
L702.224 63.3176" style="fill:none;stroke:#d9544d;stroke-linecap:round;"/>
   </g>
   <g id="line2d_81">
    <path clip-path="url(#pb2724296c0)" d="
M494.804 161.449
L499.217 127.445
L516.87 104.582
L543.349 70.8077
L596.308 73.7328
L702.224 70.3723" style="fill:none;stroke:#d9544d;stroke-linecap:round;"/>
   </g>
   <g id="line2d_82">
    <path clip-path="url(#pb2724296c0)" d="
M494.804 168.398
L499.217 121.188
L516.87 89.8308
L543.349 72.5913
L596.308 82.4904
L702.224 73.8905" style="fill:none;stroke:#d9544d;stroke-linecap:round;"/>
   </g>
   <g id="line2d_83">
    <path clip-path="url(#pb2724296c0)" d="
M494.804 149.187
L499.217 147.405
L516.87 93.4113
L543.349 72.5043
L596.308 68.4876
L702.224 77.3934" style="fill:none;stroke:#d9544d;stroke-linecap:round;"/>
   </g>
   <g id="line2d_84">
    <path clip-path="url(#pb2724296c0)" d="
M494.804 157.396
L499.217 138.275
L516.87 85.291
L543.349 63.7738
L596.308 85.1167
L702.224 78.5365" style="fill:none;stroke:#d9544d;stroke-linecap:round;"/>
   </g>
   <g id="line2d_85">
    <path clip-path="url(#pb2724296c0)" d="
M494.804 158.846
L499.217 137.25
L516.87 88.9111
L543.349 69.3113
L596.308 77.3375
L702.224 76.7328" style="fill:none;stroke:#d9544d;stroke-linecap:round;"/>
   </g>
   <g id="line2d_86">
    <path clip-path="url(#pb2724296c0)" d="
M494.804 162.813
L499.217 130.503
L516.87 89.5898
L543.349 66.0121
L596.308 77.5726
L702.224 81.8983" style="fill:none;stroke:#d9544d;stroke-linecap:round;"/>
   </g>
   <g id="line2d_87">
    <path clip-path="url(#pb2724296c0)" d="
M494.804 160.549
L499.217 135.643
L516.87 86.9337
L543.349 75.0683
L596.308 74.3734
L702.224 75.8221" style="fill:none;stroke:#d9544d;stroke-linecap:round;"/>
   </g>
   <g id="line2d_88">
    <path clip-path="url(#pb2724296c0)" d="
M494.804 150.844
L499.217 138.615
L516.87 97.0626
L543.349 54.5659
L596.308 71.6843
L702.224 95.6169" style="fill:none;stroke:#d9544d;stroke-linecap:round;"/>
   </g>
   <g id="line2d_89">
    <path clip-path="url(#pb2724296c0)" d="
M494.804 162.022
L499.217 130.869
L516.87 84.3116
L543.349 71.9771
L596.308 67.2107
L702.224 91.9989" style="fill:none;stroke:#d9544d;stroke-linecap:round;"/>
   </g>
   <g id="line2d_90">
    <path clip-path="url(#pb2724296c0)" d="
M494.804 160.818
L499.217 134.854
L516.87 88.6386
L543.349 72.8076
L596.308 74.9827
L702.224 76.289" style="fill:none;stroke:#d9544d;stroke-linecap:round;"/>
   </g>
   <g id="line2d_91">
    <path clip-path="url(#pb2724296c0)" d="
M494.804 163.945
L499.217 122.852
L516.87 82.4552
L543.349 58.0931
L596.308 82.9273
L702.224 98.1171" style="fill:none;stroke:#d9544d;stroke-linecap:round;"/>
   </g>
   <g id="line2d_92">
    <path clip-path="url(#pb2724296c0)" d="
M494.804 159.376
L499.217 137.375
L516.87 85.6416
L543.349 74.1483
L596.308 78.5691
L702.224 73.2791" style="fill:none;stroke:#d9544d;stroke-linecap:round;"/>
   </g>
   <g id="line2d_93">
    <path clip-path="url(#pb2724296c0)" d="
M494.804 160.232
L499.217 134.308
L516.87 92.7142
L543.349 69.4661
L596.308 73.4017
L702.224 78.2668" style="fill:none;stroke:#d9544d;stroke-linecap:round;"/>
   </g>
   <g id="line2d_94">
    <path clip-path="url(#pb2724296c0)" d="
M494.804 161.136
L499.217 133.621
L516.87 90.61
L543.349 72.1976
L596.308 71.4176
L702.224 79.4069" style="fill:none;stroke:#d9544d;stroke-linecap:round;"/>
   </g>
   <g id="line2d_95">
    <path clip-path="url(#pb2724296c0)" d="
M494.804 153.617
L499.217 132.265
L516.87 99.7202
L543.349 52.4103
L596.308 71.9459
L702.224 98.4307" style="fill:none;stroke:#d9544d;stroke-linecap:round;"/>
   </g>
   <g id="line2d_96">
    <path clip-path="url(#pb2724296c0)" d="
M494.804 162.541
L499.217 131.12
L516.87 91.311
L543.349 68.1579
L596.308 77.364
L702.224 77.896" style="fill:none;stroke:#d9544d;stroke-linecap:round;"/>
   </g>
   <g id="line2d_97">
    <path clip-path="url(#pb2724296c0)" d="
M494.804 157.09
L499.217 133.014
L516.87 97.103
L543.349 55.6282
L596.308 87.7955
L702.224 77.7579" style="fill:none;stroke:#d9544d;stroke-linecap:round;"/>
   </g>
   <g id="line2d_98">
    <path clip-path="url(#pb2724296c0)" d="
M494.804 162.184
L499.217 132.883
L516.87 85.0565
L543.349 70.2668
L596.308 83.0373
L702.224 74.9616" style="fill:none;stroke:#d9544d;stroke-linecap:round;"/>
   </g>
   <g id="line2d_99">
    <path clip-path="url(#pb2724296c0)" d="
M494.804 150.372
L499.217 138.657
L516.87 111.04
L543.349 66.5308
L596.308 69.8846
L702.224 71.9037" style="fill:none;stroke:#d9544d;stroke-linecap:round;"/>
   </g>
   <g id="patch_9">
    <path d="
M494.804 174.898
L494.804 20.7894" style="fill:none;stroke:#262626;stroke-linecap:square;stroke-linejoin:miter;stroke-width:1.25;"/>
   </g>
   <g id="patch_10">
    <path d="
M494.804 174.898
L702.224 174.898" style="fill:none;stroke:#262626;stroke-linecap:square;stroke-linejoin:miter;stroke-width:1.25;"/>
   </g>
   <g id="text_24">
    <!-- Root Cold -->
    <defs>
     <path d="
M7.85938 0
L7.85938 71.5781
L39.5938 71.5781
Q49.1719 71.5781 54.1406 69.6406
Q59.125 67.7188 62.1094 62.8281
Q65.0938 57.9531 65.0938 52.0469
Q65.0938 44.4375 60.1562 39.2031
Q55.2188 33.9844 44.9219 32.5625
Q48.6875 30.7656 50.6406 29
Q54.7812 25.2031 58.5 19.4844
L70.9531 0
L59.0312 0
L49.5625 14.8906
Q45.4062 21.3438 42.7188 24.75
Q40.0469 28.1719 37.9219 29.5312
Q35.7969 30.9062 33.5938 31.4531
Q31.9844 31.7812 28.3281 31.7812
L17.3281 31.7812
L17.3281 0
z

M17.3281 39.9844
L37.7031 39.9844
Q44.1875 39.9844 47.8438 41.3281
Q51.5156 42.6719 53.4219 45.625
Q55.3281 48.5781 55.3281 52.0469
Q55.3281 57.125 51.6406 60.3906
Q47.9531 63.6719 39.9844 63.6719
L17.3281 63.6719
z
" id="ArialMT-52"/>
     <path d="
M58.7969 25.0938
L68.2656 22.7031
Q65.2812 11.0312 57.5469 4.90625
Q49.8125 -1.21875 38.625 -1.21875
Q27.0469 -1.21875 19.7969 3.48438
Q12.5469 8.20312 8.76562 17.1406
Q4.98438 26.0781 4.98438 36.3281
Q4.98438 47.5156 9.25 55.8281
Q13.5312 64.1562 21.4062 68.4688
Q29.2969 72.7969 38.7656 72.7969
Q49.5156 72.7969 56.8281 67.3281
Q64.1562 61.8594 67.0469 51.9531
L57.7188 49.75
Q55.2188 57.5625 50.4844 61.125
Q45.75 64.7031 38.5781 64.7031
Q30.3281 64.7031 24.7812 60.7344
Q19.2344 56.7812 16.9844 50.1094
Q14.75 43.4531 14.75 36.375
Q14.75 27.25 17.4062 20.4375
Q20.0625 13.625 25.6719 10.25
Q31.2969 6.89062 37.8438 6.89062
Q45.7969 6.89062 51.3125 11.4688
Q56.8438 16.0625 58.7969 25.0938" id="ArialMT-43"/>
     <path id="ArialMT-20"/>
     <path d="
M40.2344 0
L40.2344 6.54688
Q35.2969 -1.17188 25.7344 -1.17188
Q19.5312 -1.17188 14.3281 2.25
Q9.125 5.67188 6.26562 11.7969
Q3.42188 17.9219 3.42188 25.875
Q3.42188 33.6406 6 39.9688
Q8.59375 46.2969 13.7656 49.6562
Q18.9531 53.0312 25.3438 53.0312
Q30.0312 53.0312 33.6875 51.0469
Q37.3594 49.0781 39.6562 45.9062
L39.6562 71.5781
L48.3906 71.5781
L48.3906 0
z

M12.4531 25.875
Q12.4531 15.9219 16.6406 10.9844
Q20.8438 6.0625 26.5625 6.0625
Q32.3281 6.0625 36.3438 10.7656
Q40.375 15.4844 40.375 25.1406
Q40.375 35.7969 36.2656 40.7656
Q32.1719 45.75 26.1719 45.75
Q20.3125 45.75 16.375 40.9688
Q12.4531 36.1875 12.4531 25.875" id="ArialMT-64"/>
     <path d="
M6.39062 0
L6.39062 71.5781
L15.1875 71.5781
L15.1875 0
z
" id="ArialMT-6c"/>
    </defs>
    <g style="fill:#262626;" transform="translate(572.26796875 15.789375)scale(0.12 -0.12)">
     <use xlink:href="#ArialMT-52"/>
     <use x="72.216796875" xlink:href="#ArialMT-6f"/>
     <use x="127.83203125" xlink:href="#ArialMT-6f"/>
     <use x="183.447265625" xlink:href="#ArialMT-74"/>
     <use x="211.23046875" xlink:href="#ArialMT-20"/>
     <use x="239.013671875" xlink:href="#ArialMT-43"/>
     <use x="311.23046875" xlink:href="#ArialMT-6f"/>
     <use x="366.845703125" xlink:href="#ArialMT-6c"/>
     <use x="389.0625" xlink:href="#ArialMT-64"/>
    </g>
   </g>
  </g>
  <g id="axes_4">
   <g id="patch_11">
    <path d="
M54.0442 377.418
L261.464 377.418
L261.464 223.309
L54.0442 223.309
z
" style="fill:#ffffff;"/>
   </g>
   <g id="matplotlib.axis_7">
    <g id="xtick_13">
     <g id="line2d_100">
      <g>
       <use style="fill:#262626;stroke:#262626;" x="95.52821875" xlink:href="#me1deecec79" y="377.4178125"/>
      </g>
     </g>
     <g id="text_25">
      <!-- 5 -->
      <g style="fill:#262626;" transform="translate(93.1555625 397.575625)scale(0.1 -0.1)">
       <use xlink:href="#ArialMT-35"/>
      </g>
     </g>
    </g>
    <g id="xtick_14">
     <g id="line2d_101">
      <g>
       <use style="fill:#262626;stroke:#262626;" x="139.195587171" xlink:href="#me1deecec79" y="377.4178125"/>
      </g>
     </g>
     <g id="text_26">
      <!-- 10 -->
      <g style="fill:#262626;" transform="translate(134.418243421 397.575625)scale(0.1 -0.1)">
       <use xlink:href="#ArialMT-31"/>
       <use x="55.615234375" xlink:href="#ArialMT-30"/>
      </g>
     </g>
    </g>
    <g id="xtick_15">
     <g id="line2d_102">
      <g>
       <use style="fill:#262626;stroke:#262626;" x="182.862955592" xlink:href="#me1deecec79" y="377.4178125"/>
      </g>
     </g>
     <g id="text_27">
      <!-- 15 -->
      <g style="fill:#262626;" transform="translate(178.046549342 397.575625)scale(0.1 -0.1)">
       <use xlink:href="#ArialMT-31"/>
       <use x="55.615234375" xlink:href="#ArialMT-35"/>
      </g>
     </g>
    </g>
    <g id="xtick_16">
     <g id="line2d_103">
      <g>
       <use style="fill:#262626;stroke:#262626;" x="226.530324013" xlink:href="#me1deecec79" y="377.4178125"/>
      </g>
     </g>
     <g id="text_28">
      <!-- 20 -->
      <g style="fill:#262626;" transform="translate(221.355324013 397.575625)scale(0.1 -0.1)">
       <use xlink:href="#ArialMT-32"/>
       <use x="55.615234375" xlink:href="#ArialMT-30"/>
      </g>
     </g>
    </g>
    <g id="text_29">
     <!-- Time -->
     <defs>
      <path d="
M6.59375 0
L6.59375 51.8594
L14.4531 51.8594
L14.4531 44.5781
Q16.8906 48.3906 20.9375 50.7031
Q25 53.0312 30.1719 53.0312
Q35.9375 53.0312 39.625 50.6406
Q43.3125 48.25 44.8281 43.9531
Q50.9844 53.0312 60.8438 53.0312
Q68.5625 53.0312 72.7031 48.75
Q76.8594 44.4844 76.8594 35.5938
L76.8594 0
L68.1094 0
L68.1094 32.6719
Q68.1094 37.9375 67.25 40.25
Q66.4062 42.5781 64.1562 43.9844
Q61.9219 45.4062 58.8906 45.4062
Q53.4219 45.4062 49.7969 41.7656
Q46.1875 38.1406 46.1875 30.125
L46.1875 0
L37.4062 0
L37.4062 33.6875
Q37.4062 39.5469 35.25 42.4688
Q33.1094 45.4062 28.2188 45.4062
Q24.5156 45.4062 21.3594 43.4531
Q18.2188 41.5 16.7969 37.7344
Q15.375 33.9844 15.375 26.9062
L15.375 0
z
" id="ArialMT-6d"/>
      <path d="
M25.9219 0
L25.9219 63.1406
L2.34375 63.1406
L2.34375 71.5781
L59.0781 71.5781
L59.0781 63.1406
L35.4062 63.1406
L35.4062 0
z
" id="ArialMT-54"/>
     </defs>
     <g style="fill:#262626;" transform="translate(146.0959375 412.43671875)scale(0.11 -0.11)">
      <use xlink:href="#ArialMT-54"/>
      <use x="57.333984375" xlink:href="#ArialMT-69"/>
      <use x="79.55078125" xlink:href="#ArialMT-6d"/>
      <use x="162.8515625" xlink:href="#ArialMT-65"/>
     </g>
    </g>
   </g>
   <g id="matplotlib.axis_8">
    <g id="ytick_25">
     <g id="line2d_104">
      <g>
       <use style="fill:#262626;stroke:#262626;" x="54.04421875" xlink:href="#m4aded61697" y="359.876204136"/>
      </g>
     </g>
     <g id="text_30">
      <!-- −1.5 -->
      <g style="fill:#262626;" transform="translate(22.25984375 362.461360386)scale(0.1 -0.1)">
       <use xlink:href="#ArialMT-2212"/>
       <use x="58.3984375" xlink:href="#ArialMT-31"/>
       <use x="114.013671875" xlink:href="#ArialMT-2e"/>
       <use x="141.796875" xlink:href="#ArialMT-35"/>
      </g>
     </g>
    </g>
    <g id="ytick_26">
     <g id="line2d_105">
      <g>
       <use style="fill:#262626;stroke:#262626;" x="54.04421875" xlink:href="#m4aded61697" y="341.223538358"/>
      </g>
     </g>
     <g id="text_31">
      <!-- −1.0 -->
      <g style="fill:#262626;" transform="translate(22.33796875 343.808694608)scale(0.1 -0.1)">
       <use xlink:href="#ArialMT-2212"/>
       <use x="58.3984375" xlink:href="#ArialMT-31"/>
       <use x="114.013671875" xlink:href="#ArialMT-2e"/>
       <use x="141.796875" xlink:href="#ArialMT-30"/>
      </g>
     </g>
    </g>
    <g id="ytick_27">
     <g id="line2d_106">
      <g>
       <use style="fill:#262626;stroke:#262626;" x="54.04421875" xlink:href="#m4aded61697" y="322.570872581"/>
      </g>
     </g>
     <g id="text_32">
      <!-- −0.5 -->
      <g style="fill:#262626;" transform="translate(22.25984375 325.156028831)scale(0.1 -0.1)">
       <use xlink:href="#ArialMT-2212"/>
       <use x="58.3984375" xlink:href="#ArialMT-30"/>
       <use x="114.013671875" xlink:href="#ArialMT-2e"/>
       <use x="141.796875" xlink:href="#ArialMT-35"/>
      </g>
     </g>
    </g>
    <g id="ytick_28">
     <g id="line2d_107">
      <g>
       <use style="fill:#262626;stroke:#262626;" x="54.04421875" xlink:href="#m4aded61697" y="303.918206803"/>
      </g>
     </g>
     <g id="text_33">
      <!-- 0.0 -->
      <g style="fill:#262626;" transform="translate(28.03796875 306.503363053)scale(0.1 -0.1)">
       <use xlink:href="#ArialMT-30"/>
       <use x="55.615234375" xlink:href="#ArialMT-2e"/>
       <use x="83.3984375" xlink:href="#ArialMT-30"/>
      </g>
     </g>
    </g>
    <g id="ytick_29">
     <g id="line2d_108">
      <g>
       <use style="fill:#262626;stroke:#262626;" x="54.04421875" xlink:href="#m4aded61697" y="285.265541025"/>
      </g>
     </g>
     <g id="text_34">
      <!-- 0.5 -->
      <g style="fill:#262626;" transform="translate(27.95984375 287.850697275)scale(0.1 -0.1)">
       <use xlink:href="#ArialMT-30"/>
       <use x="55.615234375" xlink:href="#ArialMT-2e"/>
       <use x="83.3984375" xlink:href="#ArialMT-35"/>
      </g>
     </g>
    </g>
    <g id="ytick_30">
     <g id="line2d_109">
      <g>
       <use style="fill:#262626;stroke:#262626;" x="54.04421875" xlink:href="#m4aded61697" y="266.612875247"/>
      </g>
     </g>
     <g id="text_35">
      <!-- 1.0 -->
      <g style="fill:#262626;" transform="translate(28.71140625 269.198031497)scale(0.1 -0.1)">
       <use xlink:href="#ArialMT-31"/>
       <use x="55.615234375" xlink:href="#ArialMT-2e"/>
       <use x="83.3984375" xlink:href="#ArialMT-30"/>
      </g>
     </g>
    </g>
    <g id="ytick_31">
     <g id="line2d_110">
      <g>
       <use style="fill:#262626;stroke:#262626;" x="54.04421875" xlink:href="#m4aded61697" y="247.960209469"/>
      </g>
     </g>
     <g id="text_36">
      <!-- 1.5 -->
      <g style="fill:#262626;" transform="translate(28.63328125 250.545365719)scale(0.1 -0.1)">
       <use xlink:href="#ArialMT-31"/>
       <use x="55.615234375" xlink:href="#ArialMT-2e"/>
       <use x="83.3984375" xlink:href="#ArialMT-35"/>
      </g>
     </g>
    </g>
    <g id="ytick_32">
     <g id="line2d_111">
      <g>
       <use style="fill:#262626;stroke:#262626;" x="54.04421875" xlink:href="#m4aded61697" y="229.307543691"/>
      </g>
     </g>
     <g id="text_37">
      <!-- 2.0 -->
      <g style="fill:#262626;" transform="translate(27.91609375 231.892699941)scale(0.1 -0.1)">
       <use xlink:href="#ArialMT-32"/>
       <use x="55.615234375" xlink:href="#ArialMT-2e"/>
       <use x="83.3984375" xlink:href="#ArialMT-30"/>
      </g>
     </g>
    </g>
    <g id="text_38">
     <!-- Expression -->
     <g style="fill:#262626;" transform="translate(15.07359375 326.75671875)rotate(-90.0)scale(0.11 -0.11)">
      <use xlink:href="#ArialMT-45"/>
      <use x="66.69921875" xlink:href="#ArialMT-78"/>
      <use x="116.69921875" xlink:href="#ArialMT-70"/>
      <use x="172.314453125" xlink:href="#ArialMT-72"/>
      <use x="205.615234375" xlink:href="#ArialMT-65"/>
      <use x="261.23046875" xlink:href="#ArialMT-73"/>
      <use x="311.23046875" xlink:href="#ArialMT-73"/>
      <use x="361.23046875" xlink:href="#ArialMT-69"/>
      <use x="383.447265625" xlink:href="#ArialMT-6f"/>
      <use x="439.0625" xlink:href="#ArialMT-6e"/>
     </g>
    </g>
   </g>
   <g id="line2d_112">
    <path clip-path="url(#pbcd7330b36)" d="
M54.0442 266.673
L56.2276 250.845
L60.5943 283.927
L78.0613 314.62
L104.262 322.633
L156.663 346.581
L261.464 342.149" style="fill:none;stroke:#03012d;stroke-linecap:round;"/>
   </g>
   <g id="line2d_113">
    <path clip-path="url(#pbcd7330b36)" d="
M54.0442 265.701
L56.2276 253.187
L60.5943 282.631
L78.0613 314.815
L104.262 319.674
L156.663 346.883
L261.464 344.537" style="fill:none;stroke:#03012d;stroke-linecap:round;"/>
   </g>
   <g id="line2d_114">
    <path clip-path="url(#pbcd7330b36)" d="
M54.0442 249.618
L56.2276 271.215
L60.5943 282.899
L78.0613 308.167
L104.262 325.552
L156.663 348.909
L261.464 341.067" style="fill:none;stroke:#03012d;stroke-linecap:round;"/>
   </g>
   <g id="line2d_115">
    <path clip-path="url(#pbcd7330b36)" d="
M54.0442 229.704
L56.2276 286.255
L60.5943 296.665
L78.0613 326.73
L104.262 326.667
L156.663 332.279
L261.464 329.128" style="fill:none;stroke:#03012d;stroke-linecap:round;"/>
   </g>
   <g id="line2d_116">
    <path clip-path="url(#pbcd7330b36)" d="
M54.0442 292.175
L56.2276 243.962
L60.5943 268.838
L78.0613 320.227
L104.262 325.613
L156.663 350.248
L261.464 326.364" style="fill:none;stroke:#03012d;stroke-linecap:round;"/>
   </g>
   <g id="line2d_117">
    <path clip-path="url(#pbcd7330b36)" d="
M54.0442 273.044
L56.2276 260.006
L60.5943 291.068
L78.0613 288.903
L104.262 306.001
L156.663 357.083
L261.464 351.323" style="fill:none;stroke:#03012d;stroke-linecap:round;"/>
   </g>
   <g id="line2d_118">
    <path clip-path="url(#pbcd7330b36)" d="
M54.0442 253.006
L56.2276 251.881
L60.5943 302.717
L78.0613 331.303
L104.262 315.656
L156.663 341.261
L261.464 331.604" style="fill:none;stroke:#03012d;stroke-linecap:round;"/>
   </g>
   <g id="line2d_119">
    <path clip-path="url(#pbcd7330b36)" d="
M54.0442 280.733
L56.2276 254.159
L60.5943 270.523
L78.0613 314.668
L104.262 309.264
L156.663 347.443
L261.464 350.638" style="fill:none;stroke:#03012d;stroke-linecap:round;"/>
   </g>
   <g id="line2d_120">
    <path clip-path="url(#pbcd7330b36)" d="
M54.0442 249.526
L56.2276 275.301
L60.5943 277.249
L78.0613 317.203
L104.262 318.215
L156.663 337.536
L261.464 352.398" style="fill:none;stroke:#03012d;stroke-linecap:round;"/>
   </g>
   <g id="line2d_121">
    <path clip-path="url(#pbcd7330b36)" d="
M54.0442 253.403
L56.2276 260.717
L60.5943 285.068
L78.0613 321.974
L104.262 335.225
L156.663 347.207
L261.464 323.834" style="fill:none;stroke:#03012d;stroke-linecap:round;"/>
   </g>
   <g id="line2d_122">
    <path clip-path="url(#pbcd7330b36)" d="
M54.0442 261.288
L56.2276 247.45
L60.5943 294.168
L78.0613 316.513
L104.262 335.069
L156.663 335.825
L261.464 337.114" style="fill:none;stroke:#03012d;stroke-linecap:round;"/>
   </g>
   <g id="line2d_123">
    <path clip-path="url(#pbcd7330b36)" d="
M54.0442 266.338
L56.2276 251.21
L60.5943 278.542
L78.0613 324.112
L104.262 331.139
L156.663 333.687
L261.464 342.399" style="fill:none;stroke:#03012d;stroke-linecap:round;"/>
   </g>
   <g id="line2d_124">
    <path clip-path="url(#pbcd7330b36)" d="
M54.0442 241.302
L56.2276 264.697
L60.5943 303.081
L78.0613 324.8
L104.262 320.314
L156.663 341.467
L261.464 331.767" style="fill:none;stroke:#03012d;stroke-linecap:round;"/>
   </g>
   <g id="line2d_125">
    <path clip-path="url(#pbcd7330b36)" d="
M54.0442 256.354
L56.2276 258.587
L60.5943 284.61
L78.0613 330.583
L104.262 319.33
L156.663 327.745
L261.464 350.219" style="fill:none;stroke:#03012d;stroke-linecap:round;"/>
   </g>
   <g id="line2d_126">
    <path clip-path="url(#pbcd7330b36)" d="
M54.0442 267.255
L56.2276 286.945
L60.5943 277.414
L78.0613 299.635
L104.262 285.302
L156.663 342.363
L261.464 368.513" style="fill:none;stroke:#03012d;stroke-linecap:round;"/>
   </g>
   <g id="line2d_127">
    <path clip-path="url(#pbcd7330b36)" d="
M54.0442 257.694
L56.2276 254.886
L60.5943 289.281
L78.0613 315.433
L104.262 324.857
L156.663 346.213
L261.464 339.064" style="fill:none;stroke:#03012d;stroke-linecap:round;"/>
   </g>
   <g id="line2d_128">
    <path clip-path="url(#pbcd7330b36)" d="
M54.0442 260.182
L56.2276 281.704
L60.5943 293.529
L78.0613 282.58
L104.262 298.472
L156.663 359.59
L261.464 351.369" style="fill:none;stroke:#03012d;stroke-linecap:round;"/>
   </g>
   <g id="line2d_129">
    <path clip-path="url(#pbcd7330b36)" d="
M54.0442 261.023
L56.2276 261.921
L60.5943 279.49
L78.0613 310.384
L104.262 318.985
L156.663 344.111
L261.464 351.513" style="fill:none;stroke:#03012d;stroke-linecap:round;"/>
   </g>
   <g id="line2d_130">
    <path clip-path="url(#pbcd7330b36)" d="
M54.0442 268.911
L56.2276 280.73
L60.5943 268.851
L78.0613 294.637
L104.262 315.315
L156.663 371.71
L261.464 327.273" style="fill:none;stroke:#03012d;stroke-linecap:round;"/>
   </g>
   <g id="line2d_131">
    <path clip-path="url(#pbcd7330b36)" d="
M54.0442 250.117
L56.2276 281.869
L60.5943 290.267
L78.0613 285.274
L104.262 321.058
L156.663 348.843
L261.464 349.999" style="fill:none;stroke:#03012d;stroke-linecap:round;"/>
   </g>
   <g id="line2d_132">
    <path clip-path="url(#pbcd7330b36)" d="
M54.0442 258.613
L56.2276 258.657
L60.5943 278.276
L78.0613 323.324
L104.262 329.077
L156.663 342.526
L261.464 336.954" style="fill:none;stroke:#03012d;stroke-linecap:round;"/>
   </g>
   <g id="patch_12">
    <path d="
M54.0442 377.418
L54.0442 223.309" style="fill:none;stroke:#262626;stroke-linecap:square;stroke-linejoin:miter;stroke-width:1.25;"/>
   </g>
   <g id="patch_13">
    <path d="
M54.0442 377.418
L261.464 377.418" style="fill:none;stroke:#262626;stroke-linecap:square;stroke-linejoin:miter;stroke-width:1.25;"/>
   </g>
   <g id="text_39">
    <!-- Root Drought -->
    <defs>
     <path d="
M40.5781 0
L40.5781 7.625
Q34.5156 -1.17188 24.125 -1.17188
Q19.5312 -1.17188 15.5469 0.578125
Q11.5781 2.34375 9.64062 5
Q7.71875 7.67188 6.9375 11.5312
Q6.39062 14.1094 6.39062 19.7344
L6.39062 51.8594
L15.1875 51.8594
L15.1875 23.0938
Q15.1875 16.2188 15.7188 13.8125
Q16.5469 10.3594 19.2344 8.375
Q21.9219 6.39062 25.875 6.39062
Q29.8281 6.39062 33.2969 8.42188
Q36.7656 10.4531 38.2031 13.9375
Q39.6562 17.4375 39.6562 24.0781
L39.6562 51.8594
L48.4375 51.8594
L48.4375 0
z
" id="ArialMT-75"/>
     <path d="
M6.59375 0
L6.59375 71.5781
L15.375 71.5781
L15.375 45.9062
Q21.5312 53.0312 30.9062 53.0312
Q36.6719 53.0312 40.9219 50.75
Q45.1719 48.4844 47 44.4844
Q48.8281 40.4844 48.8281 32.8594
L48.8281 0
L40.0469 0
L40.0469 32.8594
Q40.0469 39.4531 37.1875 42.4531
Q34.3281 45.4531 29.1094 45.4531
Q25.2031 45.4531 21.75 43.4219
Q18.3125 41.4062 16.8438 37.9375
Q15.375 34.4688 15.375 28.375
L15.375 0
z
" id="ArialMT-68"/>
     <path d="
M7.71875 0
L7.71875 71.5781
L32.375 71.5781
Q40.7188 71.5781 45.125 70.5625
Q51.2656 69.1406 55.6094 65.4375
Q61.2812 60.6406 64.0781 53.1875
Q66.8906 45.75 66.8906 36.1875
Q66.8906 28.0312 64.9844 21.7344
Q63.0938 15.4375 60.1094 11.2969
Q57.125 7.17188 53.5781 4.79688
Q50.0469 2.4375 45.0469 1.21875
Q40.0469 0 33.5469 0
z

M17.1875 8.45312
L32.4688 8.45312
Q39.5469 8.45312 43.5781 9.76562
Q47.6094 11.0781 50 13.4844
Q53.375 16.8438 55.25 22.5312
Q57.125 28.2188 57.125 36.3281
Q57.125 47.5625 53.4375 53.5938
Q49.75 59.625 44.4844 61.6719
Q40.6719 63.1406 32.2344 63.1406
L17.1875 63.1406
z
" id="ArialMT-44"/>
     <path d="
M4.98438 -4.29688
L13.5312 -5.5625
Q14.0625 -9.51562 16.5 -11.3281
Q19.7812 -13.7656 25.4375 -13.7656
Q31.5469 -13.7656 34.8594 -11.3281
Q38.1875 -8.89062 39.3594 -4.5
Q40.0469 -1.8125 39.9844 6.78125
Q34.2344 0 25.6406 0
Q14.9375 0 9.07812 7.71875
Q3.21875 15.4375 3.21875 26.2188
Q3.21875 33.6406 5.90625 39.9062
Q8.59375 46.1875 13.6875 49.6094
Q18.7969 53.0312 25.6875 53.0312
Q34.8594 53.0312 40.8281 45.6094
L40.8281 51.8594
L48.9219 51.8594
L48.9219 7.03125
Q48.9219 -5.07812 46.4531 -10.125
Q44 -15.1875 38.6406 -18.1094
Q33.2969 -21.0469 25.4844 -21.0469
Q16.2188 -21.0469 10.5 -16.875
Q4.78125 -12.7031 4.98438 -4.29688
M12.25 26.8594
Q12.25 16.6562 16.2969 11.9688
Q20.3594 7.28125 26.4688 7.28125
Q32.5156 7.28125 36.6094 11.9375
Q40.7188 16.6094 40.7188 26.5625
Q40.7188 36.0781 36.5 40.9062
Q32.2812 45.75 26.3125 45.75
Q20.4531 45.75 16.3438 40.9844
Q12.25 36.2344 12.25 26.8594" id="ArialMT-67"/>
    </defs>
    <g style="fill:#262626;" transform="translate(122.11421875 218.309375)scale(0.12 -0.12)">
     <use xlink:href="#ArialMT-52"/>
     <use x="72.216796875" xlink:href="#ArialMT-6f"/>
     <use x="127.83203125" xlink:href="#ArialMT-6f"/>
     <use x="183.447265625" xlink:href="#ArialMT-74"/>
     <use x="211.23046875" xlink:href="#ArialMT-20"/>
     <use x="239.013671875" xlink:href="#ArialMT-44"/>
     <use x="311.23046875" xlink:href="#ArialMT-72"/>
     <use x="344.53125" xlink:href="#ArialMT-6f"/>
     <use x="400.146484375" xlink:href="#ArialMT-75"/>
     <use x="455.76171875" xlink:href="#ArialMT-67"/>
     <use x="511.376953125" xlink:href="#ArialMT-68"/>
     <use x="566.9921875" xlink:href="#ArialMT-74"/>
    </g>
   </g>
  </g>
  <g id="axes_5">
   <g id="patch_14">
    <path d="
M274.424 377.418
L481.844 377.418
L481.844 223.309
L274.424 223.309
z
" style="fill:#ffffff;"/>
   </g>
   <g id="matplotlib.axis_9">
    <g id="xtick_17">
     <g id="line2d_133">
      <g>
       <use style="fill:#262626;stroke:#262626;" x="314.142942154" xlink:href="#me1deecec79" y="377.4178125"/>
      </g>
     </g>
     <g id="text_40">
      <!-- 5 -->
      <g style="fill:#262626;" transform="translate(311.770285904 397.575625)scale(0.1 -0.1)">
       <use xlink:href="#ArialMT-35"/>
      </g>
     </g>
    </g>
    <g id="xtick_18">
     <g id="line2d_134">
      <g>
       <use style="fill:#262626;stroke:#262626;" x="358.274857048" xlink:href="#me1deecec79" y="377.4178125"/>
      </g>
     </g>
     <g id="text_41">
      <!-- 10 -->
      <g style="fill:#262626;" transform="translate(353.497513298 397.575625)scale(0.1 -0.1)">
       <use xlink:href="#ArialMT-31"/>
       <use x="55.615234375" xlink:href="#ArialMT-30"/>
      </g>
     </g>
    </g>
    <g id="xtick_19">
     <g id="line2d_135">
      <g>
       <use style="fill:#262626;stroke:#262626;" x="402.406771941" xlink:href="#me1deecec79" y="377.4178125"/>
      </g>
     </g>
     <g id="text_42">
      <!-- 15 -->
      <g style="fill:#262626;" transform="translate(397.590365691 397.575625)scale(0.1 -0.1)">
       <use xlink:href="#ArialMT-31"/>
       <use x="55.615234375" xlink:href="#ArialMT-35"/>
      </g>
     </g>
    </g>
    <g id="xtick_20">
     <g id="line2d_136">
      <g>
       <use style="fill:#262626;stroke:#262626;" x="446.538686835" xlink:href="#me1deecec79" y="377.4178125"/>
      </g>
     </g>
     <g id="text_43">
      <!-- 20 -->
      <g style="fill:#262626;" transform="translate(441.363686835 397.575625)scale(0.1 -0.1)">
       <use xlink:href="#ArialMT-32"/>
       <use x="55.615234375" xlink:href="#ArialMT-30"/>
      </g>
     </g>
    </g>
    <g id="text_44">
     <!-- Time -->
     <g style="fill:#262626;" transform="translate(366.4759375 412.43671875)scale(0.11 -0.11)">
      <use xlink:href="#ArialMT-54"/>
      <use x="57.333984375" xlink:href="#ArialMT-69"/>
      <use x="79.55078125" xlink:href="#ArialMT-6d"/>
      <use x="162.8515625" xlink:href="#ArialMT-65"/>
     </g>
    </g>
   </g>
   <g id="matplotlib.axis_10">
    <g id="ytick_33">
     <g id="line2d_137">
      <g>
       <use style="fill:#262626;stroke:#262626;" x="274.42421875" xlink:href="#m4aded61697" y="359.876204136"/>
      </g>
     </g>
    </g>
    <g id="ytick_34">
     <g id="line2d_138">
      <g>
       <use style="fill:#262626;stroke:#262626;" x="274.42421875" xlink:href="#m4aded61697" y="341.223538358"/>
      </g>
     </g>
    </g>
    <g id="ytick_35">
     <g id="line2d_139">
      <g>
       <use style="fill:#262626;stroke:#262626;" x="274.42421875" xlink:href="#m4aded61697" y="322.570872581"/>
      </g>
     </g>
    </g>
    <g id="ytick_36">
     <g id="line2d_140">
      <g>
       <use style="fill:#262626;stroke:#262626;" x="274.42421875" xlink:href="#m4aded61697" y="303.918206803"/>
      </g>
     </g>
    </g>
    <g id="ytick_37">
     <g id="line2d_141">
      <g>
       <use style="fill:#262626;stroke:#262626;" x="274.42421875" xlink:href="#m4aded61697" y="285.265541025"/>
      </g>
     </g>
    </g>
    <g id="ytick_38">
     <g id="line2d_142">
      <g>
       <use style="fill:#262626;stroke:#262626;" x="274.42421875" xlink:href="#m4aded61697" y="266.612875247"/>
      </g>
     </g>
    </g>
    <g id="ytick_39">
     <g id="line2d_143">
      <g>
       <use style="fill:#262626;stroke:#262626;" x="274.42421875" xlink:href="#m4aded61697" y="247.960209469"/>
      </g>
     </g>
    </g>
    <g id="ytick_40">
     <g id="line2d_144">
      <g>
       <use style="fill:#262626;stroke:#262626;" x="274.42421875" xlink:href="#m4aded61697" y="229.307543691"/>
      </g>
     </g>
    </g>
   </g>
   <g id="line2d_145">
    <path clip-path="url(#p9f233a080d)" d="
M274.424 313.11
L278.837 293.018
L296.49 245.297
L322.969 286.791
L375.928 346.228
L481.844 339.065" style="fill:none;stroke:#03012d;stroke-linecap:round;"/>
   </g>
   <g id="line2d_146">
    <path clip-path="url(#p9f233a080d)" d="
M274.424 360.849
L278.837 318.298
L296.49 268.101
L322.969 270.054
L375.928 326.336
L481.844 279.87" style="fill:none;stroke:#03012d;stroke-linecap:round;"/>
   </g>
   <g id="line2d_147">
    <path clip-path="url(#p9f233a080d)" d="
M274.424 308.843
L278.837 285.807
L296.49 254.731
L322.969 284.303
L375.928 359.76
L481.844 330.066" style="fill:none;stroke:#03012d;stroke-linecap:round;"/>
   </g>
   <g id="line2d_148">
    <path clip-path="url(#p9f233a080d)" d="
M274.424 297.852
L278.837 267.635
L296.49 256.15
L322.969 354.199
L375.928 324.752
L481.844 322.922" style="fill:none;stroke:#03012d;stroke-linecap:round;"/>
   </g>
   <g id="line2d_149">
    <path clip-path="url(#p9f233a080d)" d="
M274.424 325.158
L278.837 320.702
L296.49 259.362
L322.969 256.489
L375.928 314.546
L481.844 347.253" style="fill:none;stroke:#03012d;stroke-linecap:round;"/>
   </g>
   <g id="line2d_150">
    <path clip-path="url(#p9f233a080d)" d="
M274.424 294.479
L278.837 273.513
L296.49 251.543
L322.969 322.288
L375.928 349.127
L481.844 332.561" style="fill:none;stroke:#03012d;stroke-linecap:round;"/>
   </g>
   <g id="line2d_151">
    <path clip-path="url(#p9f233a080d)" d="
M274.424 318.342
L278.837 300.811
L296.49 261.576
L322.969 263.608
L375.928 319.856
L481.844 359.317" style="fill:none;stroke:#03012d;stroke-linecap:round;"/>
   </g>
   <g id="line2d_152">
    <path clip-path="url(#p9f233a080d)" d="
M274.424 298.386
L278.837 269.594
L296.49 261.413
L322.969 308.945
L375.928 321.052
L481.844 364.119" style="fill:none;stroke:#03012d;stroke-linecap:round;"/>
   </g>
   <g id="line2d_153">
    <path clip-path="url(#p9f233a080d)" d="
M274.424 362.871
L278.837 335.286
L296.49 278.468
L322.969 266.393
L375.928 284.357
L481.844 296.135" style="fill:none;stroke:#03012d;stroke-linecap:round;"/>
   </g>
   <g id="line2d_154">
    <path clip-path="url(#p9f233a080d)" d="
M274.424 326.031
L278.837 286.948
L296.49 252.646
L322.969 275.759
L375.928 341.407
L481.844 340.718" style="fill:none;stroke:#03012d;stroke-linecap:round;"/>
   </g>
   <g id="line2d_155">
    <path clip-path="url(#p9f233a080d)" d="
M274.424 362.595
L278.837 321.247
L296.49 274.538
L322.969 265.068
L375.928 279.876
L481.844 320.185" style="fill:none;stroke:#03012d;stroke-linecap:round;"/>
   </g>
   <g id="line2d_156">
    <path clip-path="url(#p9f233a080d)" d="
M274.424 272.389
L278.837 287.447
L296.49 266.807
L322.969 298.518
L375.928 358.931
L481.844 339.418" style="fill:none;stroke:#03012d;stroke-linecap:round;"/>
   </g>
   <g id="line2d_157">
    <path clip-path="url(#p9f233a080d)" d="
M274.424 354.59
L278.837 346.29
L296.49 293.159
L322.969 278.943
L375.928 264.929
L481.844 285.597" style="fill:none;stroke:#03012d;stroke-linecap:round;"/>
   </g>
   <g id="line2d_158">
    <path clip-path="url(#p9f233a080d)" d="
M274.424 309.504
L278.837 292.571
L296.49 256.888
L322.969 272.35
L375.928 342.109
L481.844 350.087" style="fill:none;stroke:#03012d;stroke-linecap:round;"/>
   </g>
   <g id="line2d_159">
    <path clip-path="url(#p9f233a080d)" d="
M274.424 362.906
L278.837 335.371
L296.49 293.384
L322.969 290.196
L375.928 270.528
L481.844 271.124" style="fill:none;stroke:#03012d;stroke-linecap:round;"/>
   </g>
   <g id="line2d_160">
    <path clip-path="url(#p9f233a080d)" d="
M274.424 353.813
L278.837 309.621
L296.49 255.837
L322.969 265.325
L375.928 310.731
L481.844 328.183" style="fill:none;stroke:#03012d;stroke-linecap:round;"/>
   </g>
   <g id="line2d_161">
    <path clip-path="url(#p9f233a080d)" d="
M274.424 354.681
L278.837 301.554
L296.49 268.411
L322.969 263.687
L375.928 293.892
L481.844 341.284" style="fill:none;stroke:#03012d;stroke-linecap:round;"/>
   </g>
   <g id="line2d_162">
    <path clip-path="url(#p9f233a080d)" d="
M274.424 328.265
L278.837 307.33
L296.49 229.017
L322.969 318.874
L375.928 321.053
L481.844 318.97" style="fill:none;stroke:#03012d;stroke-linecap:round;"/>
   </g>
   <g id="line2d_163">
    <path clip-path="url(#p9f233a080d)" d="
M274.424 304.273
L278.837 304.122
L296.49 236.725
L322.969 300.98
L375.928 341.394
L481.844 336.015" style="fill:none;stroke:#03012d;stroke-linecap:round;"/>
   </g>
   <g id="line2d_164">
    <path clip-path="url(#p9f233a080d)" d="
M274.424 364.188
L278.837 312.213
L296.49 250.171
L322.969 297.742
L375.928 311.701
L481.844 287.494" style="fill:none;stroke:#03012d;stroke-linecap:round;"/>
   </g>
   <g id="line2d_165">
    <path clip-path="url(#p9f233a080d)" d="
M274.424 357.167
L278.837 345.716
L296.49 280.399
L322.969 273.949
L375.928 277.609
L481.844 288.669" style="fill:none;stroke:#03012d;stroke-linecap:round;"/>
   </g>
   <g id="patch_15">
    <path d="
M274.424 377.418
L274.424 223.309" style="fill:none;stroke:#262626;stroke-linecap:square;stroke-linejoin:miter;stroke-width:1.25;"/>
   </g>
   <g id="patch_16">
    <path d="
M274.424 377.418
L481.844 377.418" style="fill:none;stroke:#262626;stroke-linecap:square;stroke-linejoin:miter;stroke-width:1.25;"/>
   </g>
   <g id="text_45">
    <!-- Shoot Cold -->
    <g style="fill:#262626;" transform="translate(348.88234375 218.309375)scale(0.12 -0.12)">
     <use xlink:href="#ArialMT-53"/>
     <use x="66.69921875" xlink:href="#ArialMT-68"/>
     <use x="122.314453125" xlink:href="#ArialMT-6f"/>
     <use x="177.9296875" xlink:href="#ArialMT-6f"/>
     <use x="233.544921875" xlink:href="#ArialMT-74"/>
     <use x="261.328125" xlink:href="#ArialMT-20"/>
     <use x="289.111328125" xlink:href="#ArialMT-43"/>
     <use x="361.328125" xlink:href="#ArialMT-6f"/>
     <use x="416.943359375" xlink:href="#ArialMT-6c"/>
     <use x="439.16015625" xlink:href="#ArialMT-64"/>
    </g>
   </g>
  </g>
  <g id="axes_6">
   <g id="patch_17">
    <path d="
M494.804 377.418
L702.224 377.418
L702.224 223.309
L494.804 223.309
z
" style="fill:#ffffff;"/>
   </g>
   <g id="matplotlib.axis_11">
    <g id="xtick_21">
     <g id="line2d_166">
      <g>
       <use style="fill:#262626;stroke:#262626;" x="536.28821875" xlink:href="#me1deecec79" y="377.4178125"/>
      </g>
     </g>
     <g id="text_46">
      <!-- 5 -->
      <g style="fill:#262626;" transform="translate(533.9155625 397.575625)scale(0.1 -0.1)">
       <use xlink:href="#ArialMT-35"/>
      </g>
     </g>
    </g>
    <g id="xtick_22">
     <g id="line2d_167">
      <g>
       <use style="fill:#262626;stroke:#262626;" x="579.955587171" xlink:href="#me1deecec79" y="377.4178125"/>
      </g>
     </g>
     <g id="text_47">
      <!-- 10 -->
      <g style="fill:#262626;" transform="translate(575.178243421 397.575625)scale(0.1 -0.1)">
       <use xlink:href="#ArialMT-31"/>
       <use x="55.615234375" xlink:href="#ArialMT-30"/>
      </g>
     </g>
    </g>
    <g id="xtick_23">
     <g id="line2d_168">
      <g>
       <use style="fill:#262626;stroke:#262626;" x="623.622955592" xlink:href="#me1deecec79" y="377.4178125"/>
      </g>
     </g>
     <g id="text_48">
      <!-- 15 -->
      <g style="fill:#262626;" transform="translate(618.806549342 397.575625)scale(0.1 -0.1)">
       <use xlink:href="#ArialMT-31"/>
       <use x="55.615234375" xlink:href="#ArialMT-35"/>
      </g>
     </g>
    </g>
    <g id="xtick_24">
     <g id="line2d_169">
      <g>
       <use style="fill:#262626;stroke:#262626;" x="667.290324013" xlink:href="#me1deecec79" y="377.4178125"/>
      </g>
     </g>
     <g id="text_49">
      <!-- 20 -->
      <g style="fill:#262626;" transform="translate(662.115324013 397.575625)scale(0.1 -0.1)">
       <use xlink:href="#ArialMT-32"/>
       <use x="55.615234375" xlink:href="#ArialMT-30"/>
      </g>
     </g>
    </g>
    <g id="text_50">
     <!-- Time -->
     <g style="fill:#262626;" transform="translate(586.8559375 412.43671875)scale(0.11 -0.11)">
      <use xlink:href="#ArialMT-54"/>
      <use x="57.333984375" xlink:href="#ArialMT-69"/>
      <use x="79.55078125" xlink:href="#ArialMT-6d"/>
      <use x="162.8515625" xlink:href="#ArialMT-65"/>
     </g>
    </g>
   </g>
   <g id="matplotlib.axis_12">
    <g id="ytick_41">
     <g id="line2d_170">
      <g>
       <use style="fill:#262626;stroke:#262626;" x="494.80421875" xlink:href="#m4aded61697" y="359.876204136"/>
      </g>
     </g>
    </g>
    <g id="ytick_42">
     <g id="line2d_171">
      <g>
       <use style="fill:#262626;stroke:#262626;" x="494.80421875" xlink:href="#m4aded61697" y="341.223538358"/>
      </g>
     </g>
    </g>
    <g id="ytick_43">
     <g id="line2d_172">
      <g>
       <use style="fill:#262626;stroke:#262626;" x="494.80421875" xlink:href="#m4aded61697" y="322.570872581"/>
      </g>
     </g>
    </g>
    <g id="ytick_44">
     <g id="line2d_173">
      <g>
       <use style="fill:#262626;stroke:#262626;" x="494.80421875" xlink:href="#m4aded61697" y="303.918206803"/>
      </g>
     </g>
    </g>
    <g id="ytick_45">
     <g id="line2d_174">
      <g>
       <use style="fill:#262626;stroke:#262626;" x="494.80421875" xlink:href="#m4aded61697" y="285.265541025"/>
      </g>
     </g>
    </g>
    <g id="ytick_46">
     <g id="line2d_175">
      <g>
       <use style="fill:#262626;stroke:#262626;" x="494.80421875" xlink:href="#m4aded61697" y="266.612875247"/>
      </g>
     </g>
    </g>
    <g id="ytick_47">
     <g id="line2d_176">
      <g>
       <use style="fill:#262626;stroke:#262626;" x="494.80421875" xlink:href="#m4aded61697" y="247.960209469"/>
      </g>
     </g>
    </g>
    <g id="ytick_48">
     <g id="line2d_177">
      <g>
       <use style="fill:#262626;stroke:#262626;" x="494.80421875" xlink:href="#m4aded61697" y="229.307543691"/>
      </g>
     </g>
    </g>
   </g>
   <g id="line2d_178">
    <path clip-path="url(#pc9fa587bab)" d="
M494.804 281.226
L496.988 274.332
L501.354 276.55
L518.821 273.005
L545.022 312.722
L597.423 355.389
L702.224 354.202" style="fill:none;stroke:#d9544d;stroke-linecap:round;"/>
   </g>
   <g id="line2d_179">
    <path clip-path="url(#pc9fa587bab)" d="
M494.804 300.265
L496.988 284.171
L501.354 276.597
L518.821 264.433
L545.022 290.811
L597.423 347.434
L702.224 363.716" style="fill:none;stroke:#d9544d;stroke-linecap:round;"/>
   </g>
   <g id="line2d_180">
    <path clip-path="url(#pc9fa587bab)" d="
M494.804 277.571
L496.988 276.305
L501.354 274.63
L518.821 277.406
L545.022 310.887
L597.423 354.62
L702.224 356.01" style="fill:none;stroke:#d9544d;stroke-linecap:round;"/>
   </g>
   <g id="line2d_181">
    <path clip-path="url(#pc9fa587bab)" d="
M494.804 286.963
L496.988 296.813
L501.354 264.801
L518.821 272.057
L545.022 295.153
L597.423 356.919
L702.224 354.721" style="fill:none;stroke:#d9544d;stroke-linecap:round;"/>
   </g>
   <g id="line2d_182">
    <path clip-path="url(#pc9fa587bab)" d="
M494.804 282.434
L496.988 249.221
L501.354 273.383
L518.821 314.56
L545.022 313.807
L597.423 342.571
L702.224 351.451" style="fill:none;stroke:#d9544d;stroke-linecap:round;"/>
   </g>
   <g id="line2d_183">
    <path clip-path="url(#pc9fa587bab)" d="
M494.804 272.245
L496.988 285.196
L501.354 293.964
L518.821 260.238
L545.022 309.419
L597.423 360.436
L702.224 345.929" style="fill:none;stroke:#d9544d;stroke-linecap:round;"/>
   </g>
   <g id="line2d_184">
    <path clip-path="url(#pc9fa587bab)" d="
M494.804 275.415
L496.988 276.373
L501.354 271.604
L518.821 294.096
L545.022 299.7
L597.423 368.853
L702.224 341.387" style="fill:none;stroke:#d9544d;stroke-linecap:round;"/>
   </g>
   <g id="line2d_185">
    <path clip-path="url(#pc9fa587bab)" d="
M494.804 278.555
L496.988 283.489
L501.354 269.881
L518.821 274.697
L545.022 311.651
L597.423 361.084
L702.224 348.07" style="fill:none;stroke:#d9544d;stroke-linecap:round;"/>
   </g>
   <g id="line2d_186">
    <path clip-path="url(#pc9fa587bab)" d="
M494.804 275.824
L496.988 292.733
L501.354 260.225
L518.821 282.197
L545.022 308.514
L597.423 350.507
L702.224 357.427" style="fill:none;stroke:#d9544d;stroke-linecap:round;"/>
   </g>
   <g id="line2d_187">
    <path clip-path="url(#pc9fa587bab)" d="
M494.804 272.942
L496.988 273.502
L501.354 270.664
L518.821 288.628
L545.022 313.916
L597.423 357.892
L702.224 349.883" style="fill:none;stroke:#d9544d;stroke-linecap:round;"/>
   </g>
   <g id="line2d_188">
    <path clip-path="url(#pc9fa587bab)" d="
M494.804 288.223
L496.988 273.239
L501.354 268.997
L518.821 281.814
L545.022 303.349
L597.423 360.871
L702.224 350.935" style="fill:none;stroke:#d9544d;stroke-linecap:round;"/>
   </g>
   <g id="line2d_189">
    <path clip-path="url(#pc9fa587bab)" d="
M494.804 283.379
L496.988 277.769
L501.354 259.727
L518.821 281.552
L545.022 323.203
L597.423 349.297
L702.224 352.5" style="fill:none;stroke:#d9544d;stroke-linecap:round;"/>
   </g>
   <g id="line2d_190">
    <path clip-path="url(#pc9fa587bab)" d="
M494.804 269.741
L496.988 300.999
L501.354 251.332
L518.821 299.997
L545.022 312.523
L597.423 365.211
L702.224 327.624" style="fill:none;stroke:#d9544d;stroke-linecap:round;"/>
   </g>
   <g id="line2d_191">
    <path clip-path="url(#pc9fa587bab)" d="
M494.804 262.72
L496.988 289.982
L501.354 288.577
L518.821 269.653
L545.022 308.935
L597.423 358.854
L702.224 348.707" style="fill:none;stroke:#d9544d;stroke-linecap:round;"/>
   </g>
   <g id="line2d_192">
    <path clip-path="url(#pc9fa587bab)" d="
M494.804 265.931
L496.988 280.776
L501.354 278.36
L518.821 279.935
L545.022 316.334
L597.423 344.05
L702.224 362.042" style="fill:none;stroke:#d9544d;stroke-linecap:round;"/>
   </g>
   <g id="line2d_193">
    <path clip-path="url(#pc9fa587bab)" d="
M494.804 273.302
L496.988 279.055
L501.354 285.031
L518.821 287.237
L545.022 286.885
L597.423 361.748
L702.224 354.169" style="fill:none;stroke:#d9544d;stroke-linecap:round;"/>
   </g>
   <g id="line2d_194">
    <path clip-path="url(#pc9fa587bab)" d="
M494.804 295.713
L496.988 283.665
L501.354 285.63
L518.821 260.814
L545.022 291.654
L597.423 342.402
L702.224 367.548" style="fill:none;stroke:#d9544d;stroke-linecap:round;"/>
   </g>
   <g id="line2d_195">
    <path clip-path="url(#pc9fa587bab)" d="
M494.804 286.564
L496.988 300.421
L501.354 260.996
L518.821 272.035
L545.022 298.952
L597.423 360.965
L702.224 347.494" style="fill:none;stroke:#d9544d;stroke-linecap:round;"/>
   </g>
   <g id="line2d_196">
    <path clip-path="url(#pc9fa587bab)" d="
M494.804 284.101
L496.988 282.265
L501.354 258.291
L518.821 285.55
L545.022 309.196
L597.423 357.379
L702.224 350.645" style="fill:none;stroke:#d9544d;stroke-linecap:round;"/>
   </g>
   <g id="line2d_197">
    <path clip-path="url(#pc9fa587bab)" d="
M494.804 276.717
L496.988 290.567
L501.354 271.969
L518.821 275.593
L545.022 299.057
L597.423 356.439
L702.224 357.086" style="fill:none;stroke:#d9544d;stroke-linecap:round;"/>
   </g>
   <g id="line2d_198">
    <path clip-path="url(#pc9fa587bab)" d="
M494.804 295.088
L496.988 258.696
L501.354 270.194
L518.821 280.883
L545.022 323.798
L597.423 353.223
L702.224 345.547" style="fill:none;stroke:#d9544d;stroke-linecap:round;"/>
   </g>
   <g id="patch_18">
    <path d="
M494.804 377.418
L494.804 223.309" style="fill:none;stroke:#262626;stroke-linecap:square;stroke-linejoin:miter;stroke-width:1.25;"/>
   </g>
   <g id="patch_19">
    <path d="
M494.804 377.418
L702.224 377.418" style="fill:none;stroke:#262626;stroke-linecap:square;stroke-linejoin:miter;stroke-width:1.25;"/>
   </g>
   <g id="text_51">
    <!-- Shoot Uv -->
    <defs>
     <path d="
M54.6875 71.5781
L64.1562 71.5781
L64.1562 30.2188
Q64.1562 19.4375 61.7188 13.0781
Q59.2812 6.73438 52.9062 2.75
Q46.5312 -1.21875 36.1875 -1.21875
Q26.125 -1.21875 19.7188 2.25
Q13.3281 5.71875 10.5938 12.2812
Q7.85938 18.8438 7.85938 30.2188
L7.85938 71.5781
L17.3281 71.5781
L17.3281 30.2812
Q17.3281 20.9531 19.0625 16.5312
Q20.7969 12.1094 25.0156 9.71875
Q29.25 7.32812 35.3594 7.32812
Q45.7969 7.32812 50.2344 12.0625
Q54.6875 16.7969 54.6875 30.2812
z
" id="ArialMT-55"/>
     <path d="
M21 0
L1.26562 51.8594
L10.5469 51.8594
L21.6875 20.7969
Q23.4844 15.7656 25 10.3594
Q26.1719 14.4531 28.2656 20.2188
L39.7969 51.8594
L48.8281 51.8594
L29.2031 0
z
" id="ArialMT-76"/>
    </defs>
    <g style="fill:#262626;" transform="translate(573.90578125 218.309375)scale(0.12 -0.12)">
     <use xlink:href="#ArialMT-53"/>
     <use x="66.69921875" xlink:href="#ArialMT-68"/>
     <use x="122.314453125" xlink:href="#ArialMT-6f"/>
     <use x="177.9296875" xlink:href="#ArialMT-6f"/>
     <use x="233.544921875" xlink:href="#ArialMT-74"/>
     <use x="261.328125" xlink:href="#ArialMT-20"/>
     <use x="289.111328125" xlink:href="#ArialMT-55"/>
     <use x="361.328125" xlink:href="#ArialMT-76"/>
    </g>
   </g>
  </g>
 </g>
 <defs>
  <clipPath id="pbcd7330b36">
   <rect height="154.1084375" width="207.42" x="54.04421875" y="223.309375"/>
  </clipPath>
  <clipPath id="pb2724296c0">
   <rect height="154.1084375" width="207.42" x="494.80421875" y="20.789375"/>
  </clipPath>
  <clipPath id="p5d6dd64791">
   <rect height="154.1084375" width="207.42" x="274.42421875" y="20.789375"/>
  </clipPath>
  <clipPath id="pc9fa587bab">
   <rect height="154.1084375" width="207.42" x="494.80421875" y="223.309375"/>
  </clipPath>
  <clipPath id="p2fc4386486">
   <rect height="154.1084375" width="207.42" x="54.04421875" y="20.789375"/>
  </clipPath>
  <clipPath id="p9f233a080d">
   <rect height="154.1084375" width="207.42" x="274.42421875" y="223.309375"/>
  </clipPath>
 </defs>
</svg>
