<?xml version="1.0" encoding="utf-8" standalone="no"?>
<!DOCTYPE svg PUBLIC "-//W3C//DTD SVG 1.1//EN"
  "http://www.w3.org/Graphics/SVG/1.1/DTD/svg11.dtd">
<!-- Created with matplotlib (http://matplotlib.org/) -->
<svg height="421pt" version="1.1" viewBox="0 0 709 421" width="709pt" xmlns="http://www.w3.org/2000/svg" xmlns:xlink="http://www.w3.org/1999/xlink">
 <defs>
  <style type="text/css">
*{stroke-linecap:butt;stroke-linejoin:round;}
  </style>
 </defs>
 <g id="figure_1">
  <g id="patch_1">
   <path d="
M0 421.823
L709.424 421.823
L709.424 0
L0 0
z
" style="fill:#ffffff;"/>
  </g>
  <g id="axes_1">
   <g id="patch_2">
    <path d="
M54.0442 174.898
L261.464 174.898
L261.464 20.7894
L54.0442 20.7894
z
" style="fill:#ffffff;"/>
   </g>
   <g id="matplotlib.axis_1">
    <g id="xtick_1">
     <g id="line2d_1">
      <defs>
       <path d="
M0 0
L0 6" id="me1deecec79" style="stroke:#262626;"/>
      </defs>
      <g>
       <use style="fill:#262626;stroke:#262626;" x="90.1172622283" xlink:href="#me1deecec79" y="174.8978125"/>
      </g>
     </g>
     <g id="text_1">
      <!-- 10 -->
      <defs>
       <path d="
M4.15625 35.2969
Q4.15625 48 6.76562 55.7344
Q9.375 63.4844 14.5156 67.6719
Q19.6719 71.875 27.4844 71.875
Q33.25 71.875 37.5938 69.5469
Q41.9375 67.2344 44.7656 62.8594
Q47.6094 58.5 49.2188 52.2188
Q50.8281 45.9531 50.8281 35.2969
Q50.8281 22.7031 48.2344 14.9688
Q45.6562 7.23438 40.5 3
Q35.3594 -1.21875 27.4844 -1.21875
Q17.1406 -1.21875 11.2344 6.20312
Q4.15625 15.1406 4.15625 35.2969
M13.1875 35.2969
Q13.1875 17.6719 17.3125 11.8281
Q21.4375 6 27.4844 6
Q33.5469 6 37.6719 11.8594
Q41.7969 17.7188 41.7969 35.2969
Q41.7969 52.9844 37.6719 58.7812
Q33.5469 64.5938 27.3906 64.5938
Q21.3438 64.5938 17.7188 59.4688
Q13.1875 52.9375 13.1875 35.2969" id="ArialMT-30"/>
       <path d="
M37.25 0
L28.4688 0
L28.4688 56
Q25.2969 52.9844 20.1406 49.9531
Q14.9844 46.9219 10.8906 45.4062
L10.8906 53.9062
Q18.2656 57.375 23.7812 62.2969
Q29.2969 67.2344 31.5938 71.875
L37.25 71.875
z
" id="ArialMT-31"/>
      </defs>
      <g style="fill:#262626;" transform="translate(85.3399184783 195.055625)scale(0.1 -0.1)">
       <use xlink:href="#ArialMT-31"/>
       <use x="55.615234375" xlink:href="#ArialMT-30"/>
      </g>
     </g>
    </g>
    <g id="xtick_2">
     <g id="line2d_2">
      <g>
       <use style="fill:#262626;stroke:#262626;" x="135.208566576" xlink:href="#me1deecec79" y="174.8978125"/>
      </g>
     </g>
     <g id="text_2">
      <!-- 20 -->
      <defs>
       <path d="
M50.3438 8.45312
L50.3438 0
L3.03125 0
Q2.9375 3.17188 4.04688 6.10938
Q5.85938 10.9375 9.82812 15.625
Q13.8125 20.3125 21.3438 26.4688
Q33.0156 36.0312 37.1094 41.625
Q41.2188 47.2188 41.2188 52.2031
Q41.2188 57.4219 37.4688 61
Q33.7344 64.5938 27.7344 64.5938
Q21.3906 64.5938 17.5781 60.7812
Q13.7656 56.9844 13.7188 50.25
L4.6875 51.1719
Q5.60938 61.2812 11.6562 66.5781
Q17.7188 71.875 27.9375 71.875
Q38.2344 71.875 44.2344 66.1562
Q50.25 60.4531 50.25 52
Q50.25 47.7031 48.4844 43.5469
Q46.7344 39.4062 42.6562 34.8125
Q38.5781 30.2188 29.1094 22.2188
Q21.1875 15.5781 18.9375 13.2031
Q16.7031 10.8438 15.2344 8.45312
z
" id="ArialMT-32"/>
      </defs>
      <g style="fill:#262626;" transform="translate(130.033566576 195.055625)scale(0.1 -0.1)">
       <use xlink:href="#ArialMT-32"/>
       <use x="55.615234375" xlink:href="#ArialMT-30"/>
      </g>
     </g>
    </g>
    <g id="xtick_3">
     <g id="line2d_3">
      <g>
       <use style="fill:#262626;stroke:#262626;" x="180.299870924" xlink:href="#me1deecec79" y="174.8978125"/>
      </g>
     </g>
     <g id="text_3">
      <!-- 30 -->
      <defs>
       <path d="
M4.20312 18.8906
L12.9844 20.0625
Q14.5 12.5938 18.1406 9.29688
Q21.7812 6 27 6
Q33.2031 6 37.4688 10.2969
Q41.75 14.5938 41.75 20.9531
Q41.75 27 37.7969 30.9219
Q33.8438 34.8594 27.7344 34.8594
Q25.25 34.8594 21.5312 33.8906
L22.5156 41.6094
Q23.3906 41.5 23.9219 41.5
Q29.5469 41.5 34.0312 44.4219
Q38.5312 47.3594 38.5312 53.4688
Q38.5312 58.2969 35.25 61.4688
Q31.9844 64.6562 26.8125 64.6562
Q21.6875 64.6562 18.2656 61.4219
Q14.8438 58.2031 13.875 51.7656
L5.07812 53.3281
Q6.6875 62.1562 12.3906 67.0156
Q18.1094 71.875 26.6094 71.875
Q32.4688 71.875 37.3906 69.3594
Q42.3281 66.8438 44.9375 62.5
Q47.5625 58.1562 47.5625 53.2656
Q47.5625 48.6406 45.0625 44.8281
Q42.5781 41.0156 37.7031 38.7656
Q44.0469 37.3125 47.5625 32.6875
Q51.0781 28.0781 51.0781 21.1406
Q51.0781 11.7656 44.2344 5.25
Q37.4062 -1.26562 26.9531 -1.26562
Q17.5312 -1.26562 11.2969 4.34375
Q5.07812 9.96875 4.20312 18.8906" id="ArialMT-33"/>
      </defs>
      <g style="fill:#262626;" transform="translate(175.188152174 195.055625)scale(0.1 -0.1)">
       <use xlink:href="#ArialMT-33"/>
       <use x="55.615234375" xlink:href="#ArialMT-30"/>
      </g>
     </g>
    </g>
    <g id="xtick_4">
     <g id="line2d_4">
      <g>
       <use style="fill:#262626;stroke:#262626;" x="225.391175272" xlink:href="#me1deecec79" y="174.8978125"/>
      </g>
     </g>
     <g id="text_4">
      <!-- 40 -->
      <defs>
       <path d="
M32.3281 0
L32.3281 17.1406
L1.26562 17.1406
L1.26562 25.2031
L33.9375 71.5781
L41.1094 71.5781
L41.1094 25.2031
L50.7812 25.2031
L50.7812 17.1406
L41.1094 17.1406
L41.1094 0
z

M32.3281 25.2031
L32.3281 57.4688
L9.90625 25.2031
z
" id="ArialMT-34"/>
      </defs>
      <g style="fill:#262626;" transform="translate(220.132581522 195.055625)scale(0.1 -0.1)">
       <use xlink:href="#ArialMT-34"/>
       <use x="55.615234375" xlink:href="#ArialMT-30"/>
      </g>
     </g>
    </g>
   </g>
   <g id="matplotlib.axis_2">
    <g id="ytick_1">
     <g id="line2d_5">
      <defs>
       <path d="
M0 0
L-6 0" id="m4aded61697" style="stroke:#262626;"/>
      </defs>
      <g>
       <use style="fill:#262626;stroke:#262626;" x="54.04421875" xlink:href="#m4aded61697" y="159.193347294"/>
      </g>
     </g>
     <g id="text_5">
      <!-- −1.5 -->
      <defs>
       <path d="
M52.8281 31.2031
L5.5625 31.2031
L5.5625 39.4062
L52.8281 39.4062
z
" id="ArialMT-2212"/>
       <path d="
M9.07812 0
L9.07812 10.0156
L19.0938 10.0156
L19.0938 0
z
" id="ArialMT-2e"/>
       <path d="
M4.15625 18.75
L13.375 19.5312
Q14.4062 12.7969 18.1406 9.39062
Q21.875 6 27.1562 6
Q33.5 6 37.8906 10.7812
Q42.2812 15.5781 42.2812 23.4844
Q42.2812 31 38.0625 35.3438
Q33.8438 39.7031 27 39.7031
Q22.75 39.7031 19.3281 37.7656
Q15.9219 35.8438 13.9688 32.7656
L5.71875 33.8438
L12.6406 70.6094
L48.25 70.6094
L48.25 62.2031
L19.6719 62.2031
L15.8281 42.9688
Q22.2656 47.4688 29.3438 47.4688
Q38.7188 47.4688 45.1562 40.9688
Q51.6094 34.4688 51.6094 24.2656
Q51.6094 14.5469 45.9531 7.46875
Q39.0625 -1.21875 27.1562 -1.21875
Q17.3906 -1.21875 11.2031 4.25
Q5.03125 9.71875 4.15625 18.75" id="ArialMT-35"/>
      </defs>
      <g style="fill:#262626;" transform="translate(22.25984375 161.778503544)scale(0.1 -0.1)">
       <use xlink:href="#ArialMT-2212"/>
       <use x="58.3984375" xlink:href="#ArialMT-31"/>
       <use x="114.013671875" xlink:href="#ArialMT-2e"/>
       <use x="141.796875" xlink:href="#ArialMT-35"/>
      </g>
     </g>
    </g>
    <g id="ytick_2">
     <g id="line2d_6">
      <g>
       <use style="fill:#262626;stroke:#262626;" x="54.04421875" xlink:href="#m4aded61697" y="140.278815013"/>
      </g>
     </g>
     <g id="text_6">
      <!-- −1.0 -->
      <g style="fill:#262626;" transform="translate(22.33796875 142.863971263)scale(0.1 -0.1)">
       <use xlink:href="#ArialMT-2212"/>
       <use x="58.3984375" xlink:href="#ArialMT-31"/>
       <use x="114.013671875" xlink:href="#ArialMT-2e"/>
       <use x="141.796875" xlink:href="#ArialMT-30"/>
      </g>
     </g>
    </g>
    <g id="ytick_3">
     <g id="line2d_7">
      <g>
       <use style="fill:#262626;stroke:#262626;" x="54.04421875" xlink:href="#m4aded61697" y="121.364282732"/>
      </g>
     </g>
     <g id="text_7">
      <!-- −0.5 -->
      <g style="fill:#262626;" transform="translate(22.25984375 123.949438982)scale(0.1 -0.1)">
       <use xlink:href="#ArialMT-2212"/>
       <use x="58.3984375" xlink:href="#ArialMT-30"/>
       <use x="114.013671875" xlink:href="#ArialMT-2e"/>
       <use x="141.796875" xlink:href="#ArialMT-35"/>
      </g>
     </g>
    </g>
    <g id="ytick_4">
     <g id="line2d_8">
      <g>
       <use style="fill:#262626;stroke:#262626;" x="54.04421875" xlink:href="#m4aded61697" y="102.449750452"/>
      </g>
     </g>
     <g id="text_8">
      <!-- 0.0 -->
      <g style="fill:#262626;" transform="translate(28.03796875 105.034906702)scale(0.1 -0.1)">
       <use xlink:href="#ArialMT-30"/>
       <use x="55.615234375" xlink:href="#ArialMT-2e"/>
       <use x="83.3984375" xlink:href="#ArialMT-30"/>
      </g>
     </g>
    </g>
    <g id="ytick_5">
     <g id="line2d_9">
      <g>
       <use style="fill:#262626;stroke:#262626;" x="54.04421875" xlink:href="#m4aded61697" y="83.5352181709"/>
      </g>
     </g>
     <g id="text_9">
      <!-- 0.5 -->
      <g style="fill:#262626;" transform="translate(27.95984375 86.1203744209)scale(0.1 -0.1)">
       <use xlink:href="#ArialMT-30"/>
       <use x="55.615234375" xlink:href="#ArialMT-2e"/>
       <use x="83.3984375" xlink:href="#ArialMT-35"/>
      </g>
     </g>
    </g>
    <g id="ytick_6">
     <g id="line2d_10">
      <g>
       <use style="fill:#262626;stroke:#262626;" x="54.04421875" xlink:href="#m4aded61697" y="64.6206858902"/>
      </g>
     </g>
     <g id="text_10">
      <!-- 1.0 -->
      <g style="fill:#262626;" transform="translate(28.71140625 67.2058421402)scale(0.1 -0.1)">
       <use xlink:href="#ArialMT-31"/>
       <use x="55.615234375" xlink:href="#ArialMT-2e"/>
       <use x="83.3984375" xlink:href="#ArialMT-30"/>
      </g>
     </g>
    </g>
    <g id="ytick_7">
     <g id="line2d_11">
      <g>
       <use style="fill:#262626;stroke:#262626;" x="54.04421875" xlink:href="#m4aded61697" y="45.7061536095"/>
      </g>
     </g>
     <g id="text_11">
      <!-- 1.5 -->
      <g style="fill:#262626;" transform="translate(28.63328125 48.2913098595)scale(0.1 -0.1)">
       <use xlink:href="#ArialMT-31"/>
       <use x="55.615234375" xlink:href="#ArialMT-2e"/>
       <use x="83.3984375" xlink:href="#ArialMT-35"/>
      </g>
     </g>
    </g>
    <g id="ytick_8">
     <g id="line2d_12">
      <g>
       <use style="fill:#262626;stroke:#262626;" x="54.04421875" xlink:href="#m4aded61697" y="26.7916213287"/>
      </g>
     </g>
     <g id="text_12">
      <!-- 2.0 -->
      <g style="fill:#262626;" transform="translate(27.91609375 29.3767775787)scale(0.1 -0.1)">
       <use xlink:href="#ArialMT-32"/>
       <use x="55.615234375" xlink:href="#ArialMT-2e"/>
       <use x="83.3984375" xlink:href="#ArialMT-30"/>
      </g>
     </g>
    </g>
    <g id="text_13">
     <!-- Expression -->
     <defs>
      <path d="
M7.90625 0
L7.90625 71.5781
L59.6719 71.5781
L59.6719 63.1406
L17.3906 63.1406
L17.3906 41.2188
L56.9844 41.2188
L56.9844 32.8125
L17.3906 32.8125
L17.3906 8.45312
L61.3281 8.45312
L61.3281 0
z
" id="ArialMT-45"/>
      <path d="
M6.59375 -19.875
L6.59375 51.8594
L14.5938 51.8594
L14.5938 45.125
Q17.4375 49.0781 21 51.0469
Q24.5625 53.0312 29.6406 53.0312
Q36.2812 53.0312 41.3594 49.6094
Q46.4375 46.1875 49.0156 39.9531
Q51.6094 33.7344 51.6094 26.3125
Q51.6094 18.3594 48.75 11.9844
Q45.9062 5.60938 40.4531 2.21875
Q35.0156 -1.17188 29 -1.17188
Q24.6094 -1.17188 21.1094 0.6875
Q17.625 2.54688 15.375 5.375
L15.375 -19.875
z

M14.5469 25.6406
Q14.5469 15.625 18.5938 10.8438
Q22.6562 6.0625 28.4219 6.0625
Q34.2812 6.0625 38.4531 11.0156
Q42.625 15.9688 42.625 26.375
Q42.625 36.2812 38.5469 41.2031
Q34.4688 46.1406 28.8125 46.1406
Q23.1875 46.1406 18.8594 40.8906
Q14.5469 35.6406 14.5469 25.6406" id="ArialMT-70"/>
      <path d="
M3.32812 25.9219
Q3.32812 40.3281 11.3281 47.2656
Q18.0156 53.0312 27.6406 53.0312
Q38.3281 53.0312 45.1094 46.0156
Q51.9062 39.0156 51.9062 26.6562
Q51.9062 16.6562 48.9062 10.9062
Q45.9062 5.17188 40.1562 2
Q34.4219 -1.17188 27.6406 -1.17188
Q16.75 -1.17188 10.0312 5.8125
Q3.32812 12.7969 3.32812 25.9219
M12.3594 25.9219
Q12.3594 15.9688 16.7031 11.0156
Q21.0469 6.0625 27.6406 6.0625
Q34.1875 6.0625 38.5312 11.0312
Q42.875 16.0156 42.875 26.2188
Q42.875 35.8438 38.5 40.7969
Q34.125 45.75 27.6406 45.75
Q21.0469 45.75 16.7031 40.8125
Q12.3594 35.8906 12.3594 25.9219" id="ArialMT-6f"/>
      <path d="
M0.734375 0
L19.6719 26.9531
L2.15625 51.8594
L13.1406 51.8594
L21.0938 39.7031
Q23.3438 36.2344 24.7031 33.8906
Q26.8594 37.1094 28.6562 39.5938
L37.4062 51.8594
L47.9062 51.8594
L29.9844 27.4375
L49.2656 0
L38.4844 0
L27.8281 16.1094
L25 20.4531
L11.375 0
z
" id="ArialMT-78"/>
      <path d="
M6.64062 61.4688
L6.64062 71.5781
L15.4375 71.5781
L15.4375 61.4688
z

M6.64062 0
L6.64062 51.8594
L15.4375 51.8594
L15.4375 0
z
" id="ArialMT-69"/>
      <path d="
M3.07812 15.4844
L11.7656 16.8438
Q12.5 11.625 15.8438 8.84375
Q19.1875 6.0625 25.2031 6.0625
Q31.25 6.0625 34.1719 8.51562
Q37.1094 10.9844 37.1094 14.3125
Q37.1094 17.2812 34.5156 19
Q32.7188 20.1719 25.5312 21.9688
Q15.875 24.4219 12.1406 26.2031
Q8.40625 27.9844 6.46875 31.125
Q4.54688 34.2812 4.54688 38.0938
Q4.54688 41.5469 6.125 44.5
Q7.71875 47.4688 10.4531 49.4219
Q12.5 50.9219 16.0312 51.9688
Q19.5781 53.0312 23.6406 53.0312
Q29.7344 53.0312 34.3438 51.2656
Q38.9688 49.5156 41.1562 46.5
Q43.3594 43.5 44.1875 38.4844
L35.5938 37.3125
Q35.0156 41.3125 32.2031 43.5469
Q29.3906 45.7969 24.2656 45.7969
Q18.2188 45.7969 15.625 43.7969
Q13.0312 41.7969 13.0312 39.1094
Q13.0312 37.4062 14.1094 36.0312
Q15.1875 34.625 17.4844 33.6875
Q18.7969 33.2031 25.25 31.4531
Q34.5781 28.9531 38.25 27.3594
Q41.9375 25.7812 44.0312 22.75
Q46.1406 19.7344 46.1406 15.2344
Q46.1406 10.8438 43.5781 6.95312
Q41.0156 3.07812 36.1719 0.953125
Q31.3438 -1.17188 25.25 -1.17188
Q15.1406 -1.17188 9.84375 3.03125
Q4.54688 7.23438 3.07812 15.4844" id="ArialMT-73"/>
      <path d="
M6.59375 0
L6.59375 51.8594
L14.5 51.8594
L14.5 44.4844
Q20.2188 53.0312 31 53.0312
Q35.6875 53.0312 39.625 51.3438
Q43.5625 49.6562 45.5156 46.9219
Q47.4688 44.1875 48.25 40.4375
Q48.7344 37.9844 48.7344 31.8906
L48.7344 0
L39.9375 0
L39.9375 31.5469
Q39.9375 36.9219 38.9062 39.5781
Q37.8906 42.2344 35.2812 43.8125
Q32.6719 45.4062 29.1562 45.4062
Q23.5312 45.4062 19.4531 41.8438
Q15.375 38.2812 15.375 28.3281
L15.375 0
z
" id="ArialMT-6e"/>
      <path d="
M6.5 0
L6.5 51.8594
L14.4062 51.8594
L14.4062 44
Q17.4375 49.5156 20 51.2656
Q22.5625 53.0312 25.6406 53.0312
Q30.0781 53.0312 34.6719 50.2031
L31.6406 42.0469
Q28.4219 43.9531 25.2031 43.9531
Q22.3125 43.9531 20.0156 42.2188
Q17.7188 40.4844 16.75 37.4062
Q15.2812 32.7188 15.2812 27.1562
L15.2812 0
z
" id="ArialMT-72"/>
      <path d="
M42.0938 16.7031
L51.1719 15.5781
Q49.0312 7.625 43.2188 3.21875
Q37.4062 -1.17188 28.375 -1.17188
Q17 -1.17188 10.3281 5.82812
Q3.65625 12.8438 3.65625 25.4844
Q3.65625 38.5781 10.3906 45.7969
Q17.1406 53.0312 27.875 53.0312
Q38.2812 53.0312 44.875 45.9531
Q51.4688 38.875 51.4688 26.0312
Q51.4688 25.25 51.4219 23.6875
L12.75 23.6875
Q13.2344 15.1406 17.5781 10.5938
Q21.9219 6.0625 28.4219 6.0625
Q33.25 6.0625 36.6719 8.59375
Q40.0938 11.1406 42.0938 16.7031
M13.2344 30.9062
L42.1875 30.9062
Q41.6094 37.4531 38.875 40.7188
Q34.6719 45.7969 27.9844 45.7969
Q21.9219 45.7969 17.7969 41.75
Q13.6719 37.7031 13.2344 30.9062" id="ArialMT-65"/>
     </defs>
     <g style="fill:#262626;" transform="translate(15.07359375 124.23671875)rotate(-90.0)scale(0.11 -0.11)">
      <use xlink:href="#ArialMT-45"/>
      <use x="66.69921875" xlink:href="#ArialMT-78"/>
      <use x="116.69921875" xlink:href="#ArialMT-70"/>
      <use x="172.314453125" xlink:href="#ArialMT-72"/>
      <use x="205.615234375" xlink:href="#ArialMT-65"/>
      <use x="261.23046875" xlink:href="#ArialMT-73"/>
      <use x="311.23046875" xlink:href="#ArialMT-73"/>
      <use x="361.23046875" xlink:href="#ArialMT-69"/>
      <use x="383.447265625" xlink:href="#ArialMT-6f"/>
      <use x="439.0625" xlink:href="#ArialMT-6e"/>
     </g>
    </g>
   </g>
   <g id="line2d_13">
    <path clip-path="url(#p2fc4386486)" d="
M54.0442 139.663
L63.0625 144.014
L72.0807 149.015
L81.099 148.026
L90.1173 148.898
L99.1355 149.012
L108.154 148.439
L117.172 141.952
L126.19 135.541
L135.209 131.792
L144.227 109.299
L153.245 75.9184
L162.263 49.625
L171.282 49.8184
L180.3 55.1024
L189.318 58.599
L198.336 66.376
L207.355 76.4949
L216.373 71.9769
L225.391 74.8184
L234.409 82.4902
L243.428 81.9183
L252.446 81.3098
L261.464 88.6959" style="fill:none;stroke:#d9544d;stroke-linecap:round;"/>
   </g>
   <g id="line2d_14">
    <path clip-path="url(#p2fc4386486)" d="
M54.0442 141.629
L63.0625 147.021
L72.0807 156.209
L81.099 158.068
L90.1173 156.587
L99.1355 151.047
L108.154 146.386
L117.172 135.965
L126.19 127.959
L135.209 120.381
L144.227 102.156
L153.245 92.0652
L162.263 72.1475
L171.282 60.3206
L180.3 60.6274
L189.318 65.257
L198.336 72.2238
L207.355 76.5562
L216.373 69.2161
L225.391 69.2167
L234.409 70.3982
L243.428 70.7138
L252.446 68.549
L261.464 68.095" style="fill:none;stroke:#d9544d;stroke-linecap:round;"/>
   </g>
   <g id="line2d_15">
    <path clip-path="url(#p2fc4386486)" d="
M54.0442 152.468
L63.0625 150.924
L72.0807 154.936
L81.099 152.158
L90.1173 149.987
L99.1355 148.843
L108.154 147.669
L117.172 136.176
L126.19 130.745
L135.209 122.729
L144.227 100.442
L153.245 85.7614
L162.263 70.6205
L171.282 65.9142
L180.3 70.0979
L189.318 72.5094
L198.336 72.984
L207.355 75.2609
L216.373 66.4369
L225.391 61.1586
L234.409 67.794
L243.428 70.875
L252.446 68.8472
L261.464 63.4575" style="fill:none;stroke:#d9544d;stroke-linecap:round;"/>
   </g>
   <g id="line2d_16">
    <path clip-path="url(#p2fc4386486)" d="
M54.0442 148.387
L63.0625 143.477
L72.0807 142.629
L81.099 139.739
L90.1173 146.622
L99.1355 151.707
L108.154 150.16
L117.172 137.185
L126.19 135.973
L135.209 130.142
L144.227 123.948
L153.245 108.792
L162.263 80.4776
L171.282 70.3568
L180.3 68.133
L189.318 58.2859
L198.336 59.5862
L207.355 67.3916
L216.373 63.5664
L225.391 62.7884
L234.409 63.3368
L243.428 60.8844
L252.446 68.6116
L261.464 76.6134" style="fill:none;stroke:#d9544d;stroke-linecap:round;"/>
   </g>
   <g id="line2d_17">
    <path clip-path="url(#p2fc4386486)" d="
M54.0442 141.136
L63.0625 144.107
L72.0807 149.96
L81.099 145.754
L90.1173 142.969
L99.1355 155.442
L108.154 153.454
L117.172 137.413
L126.19 130.871
L135.209 126.183
L144.227 122.027
L153.245 95.3034
L162.263 66.0597
L171.282 58.2541
L180.3 58.0962
L189.318 50.6741
L198.336 56.0643
L207.355 75.5399
L216.373 74.0771
L225.391 78.4908
L234.409 79.0936
L243.428 68.2418
L252.446 70.0657
L261.464 79.5199" style="fill:none;stroke:#d9544d;stroke-linecap:round;"/>
   </g>
   <g id="line2d_18">
    <path clip-path="url(#p2fc4386486)" d="
M54.0442 158.724
L63.0625 154.326
L72.0807 153.885
L81.099 151.088
L90.1173 148.241
L99.1355 142.242
L108.154 144.698
L117.172 144.141
L126.19 129.813
L135.209 113.776
L144.227 84.8351
L153.245 73.1359
L162.263 53.1298
L171.282 51.0385
L180.3 60.8344
L189.318 72.0152
L198.336 71.8654
L207.355 78.7524
L216.373 77.4216
L225.391 74.4949
L234.409 78.5995
L243.428 90.5906
L252.446 74.511
L261.464 76.6372" style="fill:none;stroke:#d9544d;stroke-linecap:round;"/>
   </g>
   <g id="line2d_19">
    <path clip-path="url(#p2fc4386486)" d="
M54.0442 144.058
L63.0625 138.443
L72.0807 141.868
L81.099 145.123
L90.1173 142.279
L99.1355 143.264
L108.154 149.238
L117.172 151.934
L126.19 144.815
L135.209 138.638
L144.227 116.142
L153.245 93.0886
L162.263 63.7251
L171.282 53.3396
L180.3 63.7672
L189.318 62.5758
L198.336 73.7787
L207.355 80.3441
L216.373 67.8712
L225.391 69.2256
L234.409 70.172
L243.428 75.8544
L252.446 68.1313
L261.464 61.1203" style="fill:none;stroke:#d9544d;stroke-linecap:round;"/>
   </g>
   <g id="line2d_20">
    <path clip-path="url(#p2fc4386486)" d="
M54.0442 147.844
L63.0625 142.454
L72.0807 141.802
L81.099 144.551
L90.1173 145.496
L99.1355 153.988
L108.154 158.207
L117.172 152.606
L126.19 139.145
L135.209 118.645
L144.227 89.7751
L153.245 75.292
L162.263 57.2312
L171.282 51.8576
L180.3 59.5254
L189.318 66.3878
L198.336 67.5546
L207.355 75.3549
L216.373 70.2513
L225.391 76.9338
L234.409 83.9709
L243.428 85.5659
L252.446 77.6134
L261.464 76.7425" style="fill:none;stroke:#d9544d;stroke-linecap:round;"/>
   </g>
   <g id="line2d_21">
    <path clip-path="url(#p2fc4386486)" d="
M54.0442 147.729
L63.0625 147.217
L72.0807 156.929
L81.099 159.911
L90.1173 156.034
L99.1355 151.664
L108.154 146.468
L117.172 140.392
L126.19 126.826
L135.209 107.948
L144.227 86.8007
L153.245 79.9646
L162.263 60.9216
L171.282 57.1117
L180.3 62.7877
L189.318 68.4052
L198.336 74.1835
L207.355 77.5119
L216.373 71.666
L225.391 76.4682
L234.409 78.3341
L243.428 81.0595
L252.446 71.0512
L261.464 71.4095" style="fill:none;stroke:#d9544d;stroke-linecap:round;"/>
   </g>
   <g id="line2d_22">
    <path clip-path="url(#p2fc4386486)" d="
M54.0442 126.333
L63.0625 118.96
L72.0807 119.902
L81.099 126.733
L90.1173 146.539
L99.1355 142.655
L108.154 151.146
L117.172 160.759
L126.19 169.19
L135.209 148.406
L144.227 105.014
L153.245 92.8089
L162.263 64.3453
L171.282 43.6297
L180.3 51.0069
L189.318 53.404
L198.336 67.1573
L207.355 87.9882
L216.373 87.942
L225.391 88.7534
L234.409 92.2037
L243.428 85.8577
L252.446 67.9327
L261.464 60.1275" style="fill:none;stroke:#d9544d;stroke-linecap:round;"/>
   </g>
   <g id="line2d_23">
    <path clip-path="url(#p2fc4386486)" d="
M54.0442 149.147
L63.0625 147.01
L72.0807 148.121
L81.099 148.275
L90.1173 147.806
L99.1355 146.37
L108.154 144.862
L117.172 145.662
L126.19 139.782
L135.209 124.693
L144.227 101.832
L153.245 84.5982
L162.263 58.1461
L171.282 49.8836
L180.3 53.4793
L189.318 57.7451
L198.336 68.9683
L207.355 83.5319
L216.373 74.0316
L225.391 73.2054
L234.409 80.0557
L243.428 80.8165
L252.446 76.6427
L261.464 74.1282" style="fill:none;stroke:#d9544d;stroke-linecap:round;"/>
   </g>
   <g id="line2d_24">
    <path clip-path="url(#p2fc4386486)" d="
M54.0442 134.756
L63.0625 135.127
L72.0807 137.43
L81.099 141.926
L90.1173 149.62
L99.1355 156.207
L108.154 155.826
L117.172 146.957
L126.19 143.326
L135.209 137.709
L144.227 114.4
L153.245 97.3894
L162.263 75.617
L171.282 67.2689
L180.3 66.5127
L189.318 60.4093
L198.336 62.0989
L207.355 72.2405
L216.373 64.9751
L225.391 64.3272
L234.409 70.6573
L243.428 70.2411
L252.446 67.299
L261.464 66.4734" style="fill:none;stroke:#d9544d;stroke-linecap:round;"/>
   </g>
   <g id="line2d_25">
    <path clip-path="url(#p2fc4386486)" d="
M54.0442 151.011
L63.0625 144.773
L72.0807 147.991
L81.099 148.589
L90.1173 153.415
L99.1355 150.376
L108.154 147.475
L117.172 148.575
L126.19 135.085
L135.209 117.02
L144.227 102.761
L153.245 86.689
L162.263 65.847
L171.282 60.0682
L180.3 61.1404
L189.318 61.5414
L198.336 69.8399
L207.355 76.7583
L216.373 67.3133
L225.391 70.8065
L234.409 75.4877
L243.428 72.8172
L252.446 68.8748
L261.464 74.5391" style="fill:none;stroke:#d9544d;stroke-linecap:round;"/>
   </g>
   <g id="line2d_26">
    <path clip-path="url(#p2fc4386486)" d="
M54.0442 132.989
L63.0625 136.755
L72.0807 144.978
L81.099 147.353
L90.1173 149.188
L99.1355 145.531
L108.154 150.126
L117.172 151.727
L126.19 144.751
L135.209 131.106
L144.227 108.667
L153.245 91.9356
L162.263 60.2002
L171.282 50.5912
L180.3 54.6235
L189.318 51.4205
L198.336 58.7551
L207.355 72.8538
L216.373 71.8584
L225.391 77.9993
L234.409 83.8519
L243.428 81.6853
L252.446 79.0164
L261.464 80.8322" style="fill:none;stroke:#d9544d;stroke-linecap:round;"/>
   </g>
   <g id="line2d_27">
    <path clip-path="url(#p2fc4386486)" d="
M54.0442 141.51
L63.0625 139.51
L72.0807 138.038
L81.099 141.229
L90.1173 142.272
L99.1355 147.423
L108.154 153.322
L117.172 163.405
L126.19 149.93
L135.209 123.225
L144.227 102.533
L153.245 92.4668
L162.263 58.5567
L171.282 56.6244
L180.3 67.72
L189.318 71.6383
L198.336 83.3588
L207.355 82.7317
L216.373 65.0621
L225.391 61.1442
L234.409 69.4517
L243.428 77.5391
L252.446 64.4417
L261.464 65.661" style="fill:none;stroke:#d9544d;stroke-linecap:round;"/>
   </g>
   <g id="patch_3">
    <path d="
M54.0442 174.898
L54.0442 20.7894" style="fill:none;stroke:#262626;stroke-linecap:square;stroke-linejoin:miter;stroke-width:1.25;"/>
   </g>
   <g id="patch_4">
    <path d="
M54.0442 174.898
L261.464 174.898" style="fill:none;stroke:#262626;stroke-linecap:square;stroke-linejoin:miter;stroke-width:1.25;"/>
   </g>
   <g id="text_14">
    <!-- Botrytis -->
    <defs>
     <path d="
M7.32812 0
L7.32812 71.5781
L34.1875 71.5781
Q42.3906 71.5781 47.3438 69.4062
Q52.2969 67.2344 55.0938 62.7188
Q57.9062 58.2031 57.9062 53.2656
Q57.9062 48.6875 55.4219 44.625
Q52.9375 40.5781 47.9062 38.0938
Q54.3906 36.1875 57.875 31.5938
Q61.375 27 61.375 20.75
Q61.375 15.7188 59.25 11.3906
Q57.125 7.07812 54 4.73438
Q50.875 2.39062 46.1562 1.1875
Q41.4531 0 34.625 0
z

M16.7969 41.5
L32.2812 41.5
Q38.5781 41.5 41.3125 42.3281
Q44.9219 43.4062 46.75 45.8906
Q48.5781 48.3906 48.5781 52.1562
Q48.5781 55.7188 46.875 58.4219
Q45.1719 61.1406 41.9844 62.1406
Q38.8125 63.1406 31.1094 63.1406
L16.7969 63.1406
z

M16.7969 8.45312
L34.625 8.45312
Q39.2031 8.45312 41.0625 8.79688
Q44.3438 9.375 46.5312 10.7344
Q48.7344 12.1094 50.1406 14.7188
Q51.5625 17.3281 51.5625 20.75
Q51.5625 24.75 49.5156 27.7031
Q47.4688 30.6719 43.8281 31.8594
Q40.1875 33.0625 33.3438 33.0625
L16.7969 33.0625
z
" id="ArialMT-42"/>
     <path d="
M6.20312 -19.9688
L5.21875 -11.7188
Q8.10938 -12.5 10.25 -12.5
Q13.1875 -12.5 14.9375 -11.5156
Q16.7031 -10.5469 17.8281 -8.79688
Q18.6562 -7.46875 20.5156 -2.25
Q20.75 -1.51562 21.2969 -0.09375
L1.60938 51.8594
L11.0781 51.8594
L21.875 21.8281
Q23.9688 16.1094 25.6406 9.8125
Q27.1562 15.875 29.25 21.625
L40.3281 51.8594
L49.125 51.8594
L29.3906 -0.875
Q26.2188 -9.42188 24.4688 -12.6406
Q22.125 -17 19.0938 -19.0156
Q16.0625 -21.0469 11.8594 -21.0469
Q9.32812 -21.0469 6.20312 -19.9688" id="ArialMT-79"/>
     <path d="
M25.7812 7.85938
L27.0469 0.09375
Q23.3438 -0.6875 20.4062 -0.6875
Q15.625 -0.6875 12.9844 0.828125
Q10.3594 2.34375 9.28125 4.8125
Q8.20312 7.28125 8.20312 15.1875
L8.20312 45.0156
L1.76562 45.0156
L1.76562 51.8594
L8.20312 51.8594
L8.20312 64.7031
L16.9375 69.9688
L16.9375 51.8594
L25.7812 51.8594
L25.7812 45.0156
L16.9375 45.0156
L16.9375 14.7031
Q16.9375 10.9375 17.4062 9.85938
Q17.875 8.79688 18.9219 8.15625
Q19.9688 7.51562 21.9219 7.51562
Q23.3906 7.51562 25.7812 7.85938" id="ArialMT-74"/>
    </defs>
    <g style="fill:#262626;" transform="translate(138.42203125 15.789375)scale(0.12 -0.12)">
     <use xlink:href="#ArialMT-42"/>
     <use x="66.69921875" xlink:href="#ArialMT-6f"/>
     <use x="122.314453125" xlink:href="#ArialMT-74"/>
     <use x="150.09765625" xlink:href="#ArialMT-72"/>
     <use x="183.3984375" xlink:href="#ArialMT-79"/>
     <use x="233.3984375" xlink:href="#ArialMT-74"/>
     <use x="261.181640625" xlink:href="#ArialMT-69"/>
     <use x="283.3984375" xlink:href="#ArialMT-73"/>
    </g>
   </g>
  </g>
  <g id="axes_2">
   <g id="patch_5">
    <path d="
M274.424 174.898
L481.844 174.898
L481.844 20.7894
L274.424 20.7894
z
" style="fill:#ffffff;"/>
   </g>
   <g id="matplotlib.axis_3">
    <g id="xtick_5">
     <g id="line2d_28">
      <g>
       <use style="fill:#262626;stroke:#262626;" x="284.79521875" xlink:href="#me1deecec79" y="174.8978125"/>
      </g>
     </g>
     <g id="text_15">
      <!-- 20 -->
      <g style="fill:#262626;" transform="translate(279.62021875 195.055625)scale(0.1 -0.1)">
       <use xlink:href="#ArialMT-32"/>
       <use x="55.615234375" xlink:href="#ArialMT-30"/>
      </g>
     </g>
    </g>
    <g id="xtick_6">
     <g id="line2d_29">
      <g>
       <use style="fill:#262626;stroke:#262626;" x="336.65021875" xlink:href="#me1deecec79" y="174.8978125"/>
      </g>
     </g>
     <g id="text_16">
      <!-- 25 -->
      <g style="fill:#262626;" transform="translate(331.43615625 195.055625)scale(0.1 -0.1)">
       <use xlink:href="#ArialMT-32"/>
       <use x="55.615234375" xlink:href="#ArialMT-35"/>
      </g>
     </g>
    </g>
    <g id="xtick_7">
     <g id="line2d_30">
      <g>
       <use style="fill:#262626;stroke:#262626;" x="388.50521875" xlink:href="#me1deecec79" y="174.8978125"/>
      </g>
     </g>
     <g id="text_17">
      <!-- 30 -->
      <g style="fill:#262626;" transform="translate(383.3935 195.055625)scale(0.1 -0.1)">
       <use xlink:href="#ArialMT-33"/>
       <use x="55.615234375" xlink:href="#ArialMT-30"/>
      </g>
     </g>
    </g>
    <g id="xtick_8">
     <g id="line2d_31">
      <g>
       <use style="fill:#262626;stroke:#262626;" x="440.36021875" xlink:href="#me1deecec79" y="174.8978125"/>
      </g>
     </g>
     <g id="text_18">
      <!-- 35 -->
      <g style="fill:#262626;" transform="translate(435.2094375 195.055625)scale(0.1 -0.1)">
       <use xlink:href="#ArialMT-33"/>
       <use x="55.615234375" xlink:href="#ArialMT-35"/>
      </g>
     </g>
    </g>
   </g>
   <g id="matplotlib.axis_4">
    <g id="ytick_9">
     <g id="line2d_32">
      <g>
       <use style="fill:#262626;stroke:#262626;" x="274.42421875" xlink:href="#m4aded61697" y="159.193347294"/>
      </g>
     </g>
    </g>
    <g id="ytick_10">
     <g id="line2d_33">
      <g>
       <use style="fill:#262626;stroke:#262626;" x="274.42421875" xlink:href="#m4aded61697" y="140.278815013"/>
      </g>
     </g>
    </g>
    <g id="ytick_11">
     <g id="line2d_34">
      <g>
       <use style="fill:#262626;stroke:#262626;" x="274.42421875" xlink:href="#m4aded61697" y="121.364282732"/>
      </g>
     </g>
    </g>
    <g id="ytick_12">
     <g id="line2d_35">
      <g>
       <use style="fill:#262626;stroke:#262626;" x="274.42421875" xlink:href="#m4aded61697" y="102.449750452"/>
      </g>
     </g>
    </g>
    <g id="ytick_13">
     <g id="line2d_36">
      <g>
       <use style="fill:#262626;stroke:#262626;" x="274.42421875" xlink:href="#m4aded61697" y="83.5352181709"/>
      </g>
     </g>
    </g>
    <g id="ytick_14">
     <g id="line2d_37">
      <g>
       <use style="fill:#262626;stroke:#262626;" x="274.42421875" xlink:href="#m4aded61697" y="64.6206858902"/>
      </g>
     </g>
    </g>
    <g id="ytick_15">
     <g id="line2d_38">
      <g>
       <use style="fill:#262626;stroke:#262626;" x="274.42421875" xlink:href="#m4aded61697" y="45.7061536095"/>
      </g>
     </g>
    </g>
    <g id="ytick_16">
     <g id="line2d_39">
      <g>
       <use style="fill:#262626;stroke:#262626;" x="274.42421875" xlink:href="#m4aded61697" y="26.7916213287"/>
      </g>
     </g>
    </g>
   </g>
   <g id="line2d_40">
    <path clip-path="url(#p5d6dd64791)" d="
M274.424 142.883
L295.166 142.814
L315.908 134.508
L336.65 125.129
L357.392 125.495
L378.134 116.545
L398.876 99.2167
L419.618 86.2996
L440.36 71.048
L461.102 48.151
L481.844 34.8577" style="fill:none;stroke:#d9544d;stroke-linecap:round;"/>
   </g>
   <g id="line2d_41">
    <path clip-path="url(#p5d6dd64791)" d="
M274.424 147.195
L295.166 147.003
L315.908 140.821
L336.65 117.561
L357.392 121.736
L378.134 116.098
L398.876 92.6177
L419.618 81.5084
L440.36 71.609
L461.102 51.2335
L481.844 39.5629" style="fill:none;stroke:#d9544d;stroke-linecap:round;"/>
   </g>
   <g id="line2d_42">
    <path clip-path="url(#p5d6dd64791)" d="
M274.424 136.715
L295.166 148.711
L315.908 143.894
L336.65 126.734
L357.392 127.945
L378.134 111.88
L398.876 87.0637
L419.618 78.3536
L440.36 70.0841
L461.102 55.1351
L481.844 40.4312" style="fill:none;stroke:#d9544d;stroke-linecap:round;"/>
   </g>
   <g id="line2d_43">
    <path clip-path="url(#p5d6dd64791)" d="
M274.424 140.467
L295.166 138.376
L315.908 132.505
L336.65 125.681
L357.392 125.434
L378.134 122.721
L398.876 105.03
L419.618 87.4569
L440.36 68.9345
L461.102 46.5011
L481.844 33.8406" style="fill:none;stroke:#d9544d;stroke-linecap:round;"/>
   </g>
   <g id="line2d_44">
    <path clip-path="url(#p5d6dd64791)" d="
M274.424 124.679
L295.166 140.387
L315.908 137.224
L336.65 123.991
L357.392 130.25
L378.134 123.493
L398.876 101.715
L419.618 96.812
L440.36 74.0902
L461.102 45.0315
L481.844 29.2746" style="fill:none;stroke:#d9544d;stroke-linecap:round;"/>
   </g>
   <g id="line2d_45">
    <path clip-path="url(#p5d6dd64791)" d="
M274.424 136.218
L295.166 138.075
L315.908 135.421
L336.65 130.274
L357.392 134.421
L378.134 124.054
L398.876 95.0993
L419.618 75.7781
L440.36 65.1776
L461.102 52.1961
L481.844 40.2343" style="fill:none;stroke:#d9544d;stroke-linecap:round;"/>
   </g>
   <g id="line2d_46">
    <path clip-path="url(#p5d6dd64791)" d="
M274.424 141.666
L295.166 143.789
L315.908 142.868
L336.65 133.864
L357.392 124.611
L378.134 111.706
L398.876 89.7374
L419.618 74.5436
L440.36 62.5202
L461.102 51.2754
L481.844 50.3663" style="fill:none;stroke:#d9544d;stroke-linecap:round;"/>
   </g>
   <g id="line2d_47">
    <path clip-path="url(#p5d6dd64791)" d="
M274.424 120.908
L295.166 136.976
L315.908 133.104
L336.65 113.911
L357.392 139.836
L378.134 135.971
L398.876 105.365
L419.618 89.1211
L440.36 72.415
L461.102 50.013
L481.844 29.3252" style="fill:none;stroke:#d9544d;stroke-linecap:round;"/>
   </g>
   <g id="line2d_48">
    <path clip-path="url(#p5d6dd64791)" d="
M274.424 107.77
L295.166 129.406
L315.908 133.027
L336.65 124.373
L357.392 137.84
L378.134 137.094
L398.876 113.21
L419.618 95.9924
L440.36 73.4436
L461.102 47.9851
L481.844 26.8065" style="fill:none;stroke:#d9544d;stroke-linecap:round;"/>
   </g>
   <g id="line2d_49">
    <path clip-path="url(#p5d6dd64791)" d="
M274.424 147.763
L295.166 145.615
L315.908 134.257
L336.65 118.693
L357.392 128.659
L378.134 122.907
L398.876 92.6084
L419.618 75.1964
L440.36 59.5666
L461.102 52.7629
L481.844 48.919" style="fill:none;stroke:#d9544d;stroke-linecap:round;"/>
   </g>
   <g id="line2d_50">
    <path clip-path="url(#p5d6dd64791)" d="
M274.424 127.722
L295.166 133.654
L315.908 140.531
L336.65 133.819
L357.392 132.954
L378.134 122.977
L398.876 98.155
L419.618 85.1779
L440.36 68.3241
L461.102 48.0589
L481.844 35.5749" style="fill:none;stroke:#d9544d;stroke-linecap:round;"/>
   </g>
   <g id="line2d_51">
    <path clip-path="url(#p5d6dd64791)" d="
M274.424 141.892
L295.166 147.075
L315.908 142.832
L336.65 126.456
L357.392 124.551
L378.134 112.927
L398.876 91.325
L419.618 77.1032
L440.36 65.3679
L461.102 53.2188
L481.844 44.1997" style="fill:none;stroke:#d9544d;stroke-linecap:round;"/>
   </g>
   <g id="line2d_52">
    <path clip-path="url(#p5d6dd64791)" d="
M274.424 148.435
L295.166 148.25
L315.908 140.757
L336.65 123.004
L357.392 118.049
L378.134 112.416
L398.876 94.7179
L419.618 79.8984
L440.36 64.816
L461.102 51.1899
L481.844 45.4128" style="fill:none;stroke:#d9544d;stroke-linecap:round;"/>
   </g>
   <g id="line2d_53">
    <path clip-path="url(#p5d6dd64791)" d="
M274.424 149.552
L295.166 152.438
L315.908 136.627
L336.65 122.276
L357.392 127.263
L378.134 111.18
L398.876 84.1048
L419.618 67.6788
L440.36 62.6107
L461.102 58.0973
L481.844 55.1205" style="fill:none;stroke:#d9544d;stroke-linecap:round;"/>
   </g>
   <g id="line2d_54">
    <path clip-path="url(#p5d6dd64791)" d="
M274.424 127.528
L295.166 137.878
L315.908 154.15
L336.65 128.163
L357.392 122.983
L378.134 116.689
L398.876 100.555
L419.618 83.2507
L440.36 65.9728
L461.102 53.2131
L481.844 36.5649" style="fill:none;stroke:#d9544d;stroke-linecap:round;"/>
   </g>
   <g id="patch_6">
    <path d="
M274.424 174.898
L274.424 20.7894" style="fill:none;stroke:#262626;stroke-linecap:square;stroke-linejoin:miter;stroke-width:1.25;"/>
   </g>
   <g id="patch_7">
    <path d="
M274.424 174.898
L481.844 174.898" style="fill:none;stroke:#262626;stroke-linecap:square;stroke-linejoin:miter;stroke-width:1.25;"/>
   </g>
   <g id="text_19">
    <!-- Senescence -->
    <defs>
     <path d="
M4.5 23
L13.4219 23.7812
Q14.0625 18.4062 16.375 14.9688
Q18.7031 11.5312 23.5781 9.40625
Q28.4688 7.28125 34.5781 7.28125
Q39.9844 7.28125 44.1406 8.89062
Q48.2969 10.5 50.3125 13.2969
Q52.3438 16.1094 52.3438 19.4375
Q52.3438 22.7969 50.3906 25.3125
Q48.4375 27.8281 43.9531 29.5469
Q41.0625 30.6719 31.2031 33.0312
Q21.3438 35.4062 17.3906 37.5
Q12.25 40.1875 9.73438 44.1562
Q7.23438 48.1406 7.23438 53.0781
Q7.23438 58.5 10.2969 63.2031
Q13.375 67.9219 19.2812 70.3594
Q25.2031 72.7969 32.4219 72.7969
Q40.375 72.7969 46.4531 70.2344
Q52.5469 67.6719 55.8125 62.6875
Q59.0781 57.7188 59.3281 51.4219
L50.25 50.7344
Q49.5156 57.5156 45.2812 60.9844
Q41.0625 64.4531 32.8125 64.4531
Q24.2188 64.4531 20.2812 61.2969
Q16.3594 58.1562 16.3594 53.7188
Q16.3594 49.8594 19.1406 47.3594
Q21.875 44.875 33.4219 42.2656
Q44.9688 39.6562 49.2656 37.7031
Q55.5156 34.8125 58.4844 30.3906
Q61.4688 25.9844 61.4688 20.2188
Q61.4688 14.5 58.2031 9.4375
Q54.9375 4.39062 48.7969 1.57812
Q42.6719 -1.21875 35.0156 -1.21875
Q25.2969 -1.21875 18.7188 1.60938
Q12.1562 4.4375 8.42188 10.125
Q4.6875 15.8281 4.5 23" id="ArialMT-53"/>
     <path d="
M40.4375 19
L49.0781 17.875
Q47.6562 8.9375 41.8125 3.875
Q35.9844 -1.17188 27.4844 -1.17188
Q16.8438 -1.17188 10.375 5.78125
Q3.90625 12.75 3.90625 25.7344
Q3.90625 34.125 6.6875 40.4219
Q9.46875 46.7344 15.1562 49.875
Q20.8438 53.0312 27.5469 53.0312
Q35.9844 53.0312 41.3594 48.75
Q46.7344 44.4844 48.25 36.625
L39.7031 35.2969
Q38.4844 40.5312 35.375 43.1562
Q32.2812 45.7969 27.875 45.7969
Q21.2344 45.7969 17.0781 41.0312
Q12.9375 36.2812 12.9375 25.9844
Q12.9375 15.5312 16.9375 10.7969
Q20.9531 6.0625 27.3906 6.0625
Q32.5625 6.0625 36.0312 9.23438
Q39.5 12.4062 40.4375 19" id="ArialMT-63"/>
    </defs>
    <g style="fill:#262626;" transform="translate(345.63109375 15.789375)scale(0.12 -0.12)">
     <use xlink:href="#ArialMT-53"/>
     <use x="66.69921875" xlink:href="#ArialMT-65"/>
     <use x="122.314453125" xlink:href="#ArialMT-6e"/>
     <use x="177.9296875" xlink:href="#ArialMT-65"/>
     <use x="233.544921875" xlink:href="#ArialMT-73"/>
     <use x="283.544921875" xlink:href="#ArialMT-63"/>
     <use x="333.544921875" xlink:href="#ArialMT-65"/>
     <use x="389.16015625" xlink:href="#ArialMT-6e"/>
     <use x="444.775390625" xlink:href="#ArialMT-63"/>
     <use x="494.775390625" xlink:href="#ArialMT-65"/>
    </g>
   </g>
  </g>
  <g id="axes_3">
   <g id="patch_8">
    <path d="
M494.804 174.898
L702.224 174.898
L702.224 20.7894
L494.804 20.7894
z
" style="fill:#ffffff;"/>
   </g>
   <g id="matplotlib.axis_5">
    <g id="xtick_9">
     <g id="line2d_55">
      <g>
       <use style="fill:#262626;stroke:#262626;" x="534.522942154" xlink:href="#me1deecec79" y="174.8978125"/>
      </g>
     </g>
     <g id="text_20">
      <!-- 5 -->
      <g style="fill:#262626;" transform="translate(532.150285904 195.055625)scale(0.1 -0.1)">
       <use xlink:href="#ArialMT-35"/>
      </g>
     </g>
    </g>
    <g id="xtick_10">
     <g id="line2d_56">
      <g>
       <use style="fill:#262626;stroke:#262626;" x="578.654857048" xlink:href="#me1deecec79" y="174.8978125"/>
      </g>
     </g>
     <g id="text_21">
      <!-- 10 -->
      <g style="fill:#262626;" transform="translate(573.877513298 195.055625)scale(0.1 -0.1)">
       <use xlink:href="#ArialMT-31"/>
       <use x="55.615234375" xlink:href="#ArialMT-30"/>
      </g>
     </g>
    </g>
    <g id="xtick_11">
     <g id="line2d_57">
      <g>
       <use style="fill:#262626;stroke:#262626;" x="622.786771941" xlink:href="#me1deecec79" y="174.8978125"/>
      </g>
     </g>
     <g id="text_22">
      <!-- 15 -->
      <g style="fill:#262626;" transform="translate(617.970365691 195.055625)scale(0.1 -0.1)">
       <use xlink:href="#ArialMT-31"/>
       <use x="55.615234375" xlink:href="#ArialMT-35"/>
      </g>
     </g>
    </g>
    <g id="xtick_12">
     <g id="line2d_58">
      <g>
       <use style="fill:#262626;stroke:#262626;" x="666.918686835" xlink:href="#me1deecec79" y="174.8978125"/>
      </g>
     </g>
     <g id="text_23">
      <!-- 20 -->
      <g style="fill:#262626;" transform="translate(661.743686835 195.055625)scale(0.1 -0.1)">
       <use xlink:href="#ArialMT-32"/>
       <use x="55.615234375" xlink:href="#ArialMT-30"/>
      </g>
     </g>
    </g>
   </g>
   <g id="matplotlib.axis_6">
    <g id="ytick_17">
     <g id="line2d_59">
      <g>
       <use style="fill:#262626;stroke:#262626;" x="494.80421875" xlink:href="#m4aded61697" y="159.193347294"/>
      </g>
     </g>
    </g>
    <g id="ytick_18">
     <g id="line2d_60">
      <g>
       <use style="fill:#262626;stroke:#262626;" x="494.80421875" xlink:href="#m4aded61697" y="140.278815013"/>
      </g>
     </g>
    </g>
    <g id="ytick_19">
     <g id="line2d_61">
      <g>
       <use style="fill:#262626;stroke:#262626;" x="494.80421875" xlink:href="#m4aded61697" y="121.364282732"/>
      </g>
     </g>
    </g>
    <g id="ytick_20">
     <g id="line2d_62">
      <g>
       <use style="fill:#262626;stroke:#262626;" x="494.80421875" xlink:href="#m4aded61697" y="102.449750452"/>
      </g>
     </g>
    </g>
    <g id="ytick_21">
     <g id="line2d_63">
      <g>
       <use style="fill:#262626;stroke:#262626;" x="494.80421875" xlink:href="#m4aded61697" y="83.5352181709"/>
      </g>
     </g>
    </g>
    <g id="ytick_22">
     <g id="line2d_64">
      <g>
       <use style="fill:#262626;stroke:#262626;" x="494.80421875" xlink:href="#m4aded61697" y="64.6206858902"/>
      </g>
     </g>
    </g>
    <g id="ytick_23">
     <g id="line2d_65">
      <g>
       <use style="fill:#262626;stroke:#262626;" x="494.80421875" xlink:href="#m4aded61697" y="45.7061536095"/>
      </g>
     </g>
    </g>
    <g id="ytick_24">
     <g id="line2d_66">
      <g>
       <use style="fill:#262626;stroke:#262626;" x="494.80421875" xlink:href="#m4aded61697" y="26.7916213287"/>
      </g>
     </g>
    </g>
   </g>
   <g id="line2d_67">
    <path clip-path="url(#pb2724296c0)" d="
M494.804 137.169
L499.217 120.565
L516.87 104.597
L543.349 132.023
L596.308 84.334
L702.224 36.0101" style="fill:none;stroke:#03012d;stroke-linecap:round;"/>
   </g>
   <g id="line2d_68">
    <path clip-path="url(#pb2724296c0)" d="
M494.804 149.993
L499.217 136.816
L516.87 118.593
L543.349 82.6195
L596.308 62.842
L702.224 63.8345" style="fill:none;stroke:#03012d;stroke-linecap:round;"/>
   </g>
   <g id="line2d_69">
    <path clip-path="url(#pb2724296c0)" d="
M494.804 163.344
L499.217 128.862
L516.87 105.679
L543.349 71.4298
L596.308 74.3959
L702.224 70.9882" style="fill:none;stroke:#03012d;stroke-linecap:round;"/>
   </g>
   <g id="line2d_70">
    <path clip-path="url(#pb2724296c0)" d="
M494.804 143.498
L499.217 138.202
L516.87 112.24
L543.349 103.727
L596.308 69.3369
L702.224 47.6949" style="fill:none;stroke:#03012d;stroke-linecap:round;"/>
   </g>
   <g id="line2d_71">
    <path clip-path="url(#pb2724296c0)" d="
M494.804 137.504
L499.217 133.257
L516.87 129.364
L543.349 99.1991
L596.308 68.5253
L702.224 46.8487" style="fill:none;stroke:#03012d;stroke-linecap:round;"/>
   </g>
   <g id="line2d_72">
    <path clip-path="url(#pb2724296c0)" d="
M494.804 162.43
L499.217 137.175
L516.87 87.7822
L543.349 75.7502
L596.308 75.0455
L702.224 76.5146" style="fill:none;stroke:#03012d;stroke-linecap:round;"/>
   </g>
   <g id="line2d_73">
    <path clip-path="url(#pb2724296c0)" d="
M494.804 158.436
L499.217 128.03
L516.87 104.435
L543.349 80.3594
L596.308 93.9196
L702.224 49.5186" style="fill:none;stroke:#03012d;stroke-linecap:round;"/>
   </g>
   <g id="line2d_74">
    <path clip-path="url(#pb2724296c0)" d="
M494.804 162.704
L499.217 136.375
L516.87 89.511
L543.349 73.4578
L596.308 75.6634
L702.224 76.988" style="fill:none;stroke:#03012d;stroke-linecap:round;"/>
   </g>
   <g id="line2d_75">
    <path clip-path="url(#pb2724296c0)" d="
M494.804 161.241
L499.217 138.932
L516.87 86.472
L543.349 74.8173
L596.308 79.3001
L702.224 73.9359" style="fill:none;stroke:#03012d;stroke-linecap:round;"/>
   </g>
   <g id="line2d_76">
    <path clip-path="url(#pb2724296c0)" d="
M494.804 163.026
L499.217 135.125
L516.87 91.51
L543.349 72.8392
L596.308 72.0482
L702.224 80.1497" style="fill:none;stroke:#03012d;stroke-linecap:round;"/>
   </g>
   <g id="line2d_77">
    <path clip-path="url(#pb2724296c0)" d="
M494.804 164.451
L499.217 132.588
L516.87 92.2209
L543.349 68.7428
L596.308 78.0781
L702.224 78.6176" style="fill:none;stroke:#03012d;stroke-linecap:round;"/>
   </g>
   <g id="line2d_78">
    <path clip-path="url(#pb2724296c0)" d="
M494.804 164.089
L499.217 134.377
L516.87 85.8786
L543.349 70.8813
L596.308 83.831
L702.224 75.642" style="fill:none;stroke:#03012d;stroke-linecap:round;"/>
   </g>
   <g id="line2d_79">
    <path clip-path="url(#pb2724296c0)" d="
M494.804 152.111
L499.217 140.232
L516.87 112.227
L543.349 67.0929
L596.308 70.4937
L702.224 72.5412" style="fill:none;stroke:#03012d;stroke-linecap:round;"/>
   </g>
   <g id="line2d_80">
    <path clip-path="url(#pb2724296c0)" d="
M494.804 159.085
L499.217 132.019
L516.87 104.206
L543.349 86.5348
L596.308 76.9545
L702.224 55.8995" style="fill:none;stroke:#03012d;stroke-linecap:round;"/>
   </g>
   <g id="line2d_81">
    <path clip-path="url(#pb2724296c0)" d="
M494.804 162.033
L499.217 136.404
L516.87 73.0471
L543.349 82.1783
L596.308 90.8797
L702.224 70.1565" style="fill:none;stroke:#03012d;stroke-linecap:round;"/>
   </g>
   <g id="patch_9">
    <path d="
M494.804 174.898
L494.804 20.7894" style="fill:none;stroke:#262626;stroke-linecap:square;stroke-linejoin:miter;stroke-width:1.25;"/>
   </g>
   <g id="patch_10">
    <path d="
M494.804 174.898
L702.224 174.898" style="fill:none;stroke:#262626;stroke-linecap:square;stroke-linejoin:miter;stroke-width:1.25;"/>
   </g>
   <g id="text_24">
    <!-- Root Cold -->
    <defs>
     <path d="
M7.85938 0
L7.85938 71.5781
L39.5938 71.5781
Q49.1719 71.5781 54.1406 69.6406
Q59.125 67.7188 62.1094 62.8281
Q65.0938 57.9531 65.0938 52.0469
Q65.0938 44.4375 60.1562 39.2031
Q55.2188 33.9844 44.9219 32.5625
Q48.6875 30.7656 50.6406 29
Q54.7812 25.2031 58.5 19.4844
L70.9531 0
L59.0312 0
L49.5625 14.8906
Q45.4062 21.3438 42.7188 24.75
Q40.0469 28.1719 37.9219 29.5312
Q35.7969 30.9062 33.5938 31.4531
Q31.9844 31.7812 28.3281 31.7812
L17.3281 31.7812
L17.3281 0
z

M17.3281 39.9844
L37.7031 39.9844
Q44.1875 39.9844 47.8438 41.3281
Q51.5156 42.6719 53.4219 45.625
Q55.3281 48.5781 55.3281 52.0469
Q55.3281 57.125 51.6406 60.3906
Q47.9531 63.6719 39.9844 63.6719
L17.3281 63.6719
z
" id="ArialMT-52"/>
     <path d="
M58.7969 25.0938
L68.2656 22.7031
Q65.2812 11.0312 57.5469 4.90625
Q49.8125 -1.21875 38.625 -1.21875
Q27.0469 -1.21875 19.7969 3.48438
Q12.5469 8.20312 8.76562 17.1406
Q4.98438 26.0781 4.98438 36.3281
Q4.98438 47.5156 9.25 55.8281
Q13.5312 64.1562 21.4062 68.4688
Q29.2969 72.7969 38.7656 72.7969
Q49.5156 72.7969 56.8281 67.3281
Q64.1562 61.8594 67.0469 51.9531
L57.7188 49.75
Q55.2188 57.5625 50.4844 61.125
Q45.75 64.7031 38.5781 64.7031
Q30.3281 64.7031 24.7812 60.7344
Q19.2344 56.7812 16.9844 50.1094
Q14.75 43.4531 14.75 36.375
Q14.75 27.25 17.4062 20.4375
Q20.0625 13.625 25.6719 10.25
Q31.2969 6.89062 37.8438 6.89062
Q45.7969 6.89062 51.3125 11.4688
Q56.8438 16.0625 58.7969 25.0938" id="ArialMT-43"/>
     <path id="ArialMT-20"/>
     <path d="
M40.2344 0
L40.2344 6.54688
Q35.2969 -1.17188 25.7344 -1.17188
Q19.5312 -1.17188 14.3281 2.25
Q9.125 5.67188 6.26562 11.7969
Q3.42188 17.9219 3.42188 25.875
Q3.42188 33.6406 6 39.9688
Q8.59375 46.2969 13.7656 49.6562
Q18.9531 53.0312 25.3438 53.0312
Q30.0312 53.0312 33.6875 51.0469
Q37.3594 49.0781 39.6562 45.9062
L39.6562 71.5781
L48.3906 71.5781
L48.3906 0
z

M12.4531 25.875
Q12.4531 15.9219 16.6406 10.9844
Q20.8438 6.0625 26.5625 6.0625
Q32.3281 6.0625 36.3438 10.7656
Q40.375 15.4844 40.375 25.1406
Q40.375 35.7969 36.2656 40.7656
Q32.1719 45.75 26.1719 45.75
Q20.3125 45.75 16.375 40.9688
Q12.4531 36.1875 12.4531 25.875" id="ArialMT-64"/>
     <path d="
M6.39062 0
L6.39062 71.5781
L15.1875 71.5781
L15.1875 0
z
" id="ArialMT-6c"/>
    </defs>
    <g style="fill:#262626;" transform="translate(572.26796875 15.789375)scale(0.12 -0.12)">
     <use xlink:href="#ArialMT-52"/>
     <use x="72.216796875" xlink:href="#ArialMT-6f"/>
     <use x="127.83203125" xlink:href="#ArialMT-6f"/>
     <use x="183.447265625" xlink:href="#ArialMT-74"/>
     <use x="211.23046875" xlink:href="#ArialMT-20"/>
     <use x="239.013671875" xlink:href="#ArialMT-43"/>
     <use x="311.23046875" xlink:href="#ArialMT-6f"/>
     <use x="366.845703125" xlink:href="#ArialMT-6c"/>
     <use x="389.0625" xlink:href="#ArialMT-64"/>
    </g>
   </g>
  </g>
  <g id="axes_4">
   <g id="patch_11">
    <path d="
M54.0442 377.418
L261.464 377.418
L261.464 223.309
L54.0442 223.309
z
" style="fill:#ffffff;"/>
   </g>
   <g id="matplotlib.axis_7">
    <g id="xtick_13">
     <g id="line2d_82">
      <g>
       <use style="fill:#262626;stroke:#262626;" x="95.52821875" xlink:href="#me1deecec79" y="377.4178125"/>
      </g>
     </g>
     <g id="text_25">
      <!-- 5 -->
      <g style="fill:#262626;" transform="translate(93.1555625 397.575625)scale(0.1 -0.1)">
       <use xlink:href="#ArialMT-35"/>
      </g>
     </g>
    </g>
    <g id="xtick_14">
     <g id="line2d_83">
      <g>
       <use style="fill:#262626;stroke:#262626;" x="139.195587171" xlink:href="#me1deecec79" y="377.4178125"/>
      </g>
     </g>
     <g id="text_26">
      <!-- 10 -->
      <g style="fill:#262626;" transform="translate(134.418243421 397.575625)scale(0.1 -0.1)">
       <use xlink:href="#ArialMT-31"/>
       <use x="55.615234375" xlink:href="#ArialMT-30"/>
      </g>
     </g>
    </g>
    <g id="xtick_15">
     <g id="line2d_84">
      <g>
       <use style="fill:#262626;stroke:#262626;" x="182.862955592" xlink:href="#me1deecec79" y="377.4178125"/>
      </g>
     </g>
     <g id="text_27">
      <!-- 15 -->
      <g style="fill:#262626;" transform="translate(178.046549342 397.575625)scale(0.1 -0.1)">
       <use xlink:href="#ArialMT-31"/>
       <use x="55.615234375" xlink:href="#ArialMT-35"/>
      </g>
     </g>
    </g>
    <g id="xtick_16">
     <g id="line2d_85">
      <g>
       <use style="fill:#262626;stroke:#262626;" x="226.530324013" xlink:href="#me1deecec79" y="377.4178125"/>
      </g>
     </g>
     <g id="text_28">
      <!-- 20 -->
      <g style="fill:#262626;" transform="translate(221.355324013 397.575625)scale(0.1 -0.1)">
       <use xlink:href="#ArialMT-32"/>
       <use x="55.615234375" xlink:href="#ArialMT-30"/>
      </g>
     </g>
    </g>
    <g id="text_29">
     <!-- Time -->
     <defs>
      <path d="
M6.59375 0
L6.59375 51.8594
L14.4531 51.8594
L14.4531 44.5781
Q16.8906 48.3906 20.9375 50.7031
Q25 53.0312 30.1719 53.0312
Q35.9375 53.0312 39.625 50.6406
Q43.3125 48.25 44.8281 43.9531
Q50.9844 53.0312 60.8438 53.0312
Q68.5625 53.0312 72.7031 48.75
Q76.8594 44.4844 76.8594 35.5938
L76.8594 0
L68.1094 0
L68.1094 32.6719
Q68.1094 37.9375 67.25 40.25
Q66.4062 42.5781 64.1562 43.9844
Q61.9219 45.4062 58.8906 45.4062
Q53.4219 45.4062 49.7969 41.7656
Q46.1875 38.1406 46.1875 30.125
L46.1875 0
L37.4062 0
L37.4062 33.6875
Q37.4062 39.5469 35.25 42.4688
Q33.1094 45.4062 28.2188 45.4062
Q24.5156 45.4062 21.3594 43.4531
Q18.2188 41.5 16.7969 37.7344
Q15.375 33.9844 15.375 26.9062
L15.375 0
z
" id="ArialMT-6d"/>
      <path d="
M25.9219 0
L25.9219 63.1406
L2.34375 63.1406
L2.34375 71.5781
L59.0781 71.5781
L59.0781 63.1406
L35.4062 63.1406
L35.4062 0
z
" id="ArialMT-54"/>
     </defs>
     <g style="fill:#262626;" transform="translate(146.0959375 412.43671875)scale(0.11 -0.11)">
      <use xlink:href="#ArialMT-54"/>
      <use x="57.333984375" xlink:href="#ArialMT-69"/>
      <use x="79.55078125" xlink:href="#ArialMT-6d"/>
      <use x="162.8515625" xlink:href="#ArialMT-65"/>
     </g>
    </g>
   </g>
   <g id="matplotlib.axis_8">
    <g id="ytick_25">
     <g id="line2d_86">
      <g>
       <use style="fill:#262626;stroke:#262626;" x="54.04421875" xlink:href="#m4aded61697" y="361.713347294"/>
      </g>
     </g>
     <g id="text_30">
      <!-- −1.5 -->
      <g style="fill:#262626;" transform="translate(22.25984375 364.298503544)scale(0.1 -0.1)">
       <use xlink:href="#ArialMT-2212"/>
       <use x="58.3984375" xlink:href="#ArialMT-31"/>
       <use x="114.013671875" xlink:href="#ArialMT-2e"/>
       <use x="141.796875" xlink:href="#ArialMT-35"/>
      </g>
     </g>
    </g>
    <g id="ytick_26">
     <g id="line2d_87">
      <g>
       <use style="fill:#262626;stroke:#262626;" x="54.04421875" xlink:href="#m4aded61697" y="342.798815013"/>
      </g>
     </g>
     <g id="text_31">
      <!-- −1.0 -->
      <g style="fill:#262626;" transform="translate(22.33796875 345.383971263)scale(0.1 -0.1)">
       <use xlink:href="#ArialMT-2212"/>
       <use x="58.3984375" xlink:href="#ArialMT-31"/>
       <use x="114.013671875" xlink:href="#ArialMT-2e"/>
       <use x="141.796875" xlink:href="#ArialMT-30"/>
      </g>
     </g>
    </g>
    <g id="ytick_27">
     <g id="line2d_88">
      <g>
       <use style="fill:#262626;stroke:#262626;" x="54.04421875" xlink:href="#m4aded61697" y="323.884282732"/>
      </g>
     </g>
     <g id="text_32">
      <!-- −0.5 -->
      <g style="fill:#262626;" transform="translate(22.25984375 326.469438982)scale(0.1 -0.1)">
       <use xlink:href="#ArialMT-2212"/>
       <use x="58.3984375" xlink:href="#ArialMT-30"/>
       <use x="114.013671875" xlink:href="#ArialMT-2e"/>
       <use x="141.796875" xlink:href="#ArialMT-35"/>
      </g>
     </g>
    </g>
    <g id="ytick_28">
     <g id="line2d_89">
      <g>
       <use style="fill:#262626;stroke:#262626;" x="54.04421875" xlink:href="#m4aded61697" y="304.969750452"/>
      </g>
     </g>
     <g id="text_33">
      <!-- 0.0 -->
      <g style="fill:#262626;" transform="translate(28.03796875 307.554906702)scale(0.1 -0.1)">
       <use xlink:href="#ArialMT-30"/>
       <use x="55.615234375" xlink:href="#ArialMT-2e"/>
       <use x="83.3984375" xlink:href="#ArialMT-30"/>
      </g>
     </g>
    </g>
    <g id="ytick_29">
     <g id="line2d_90">
      <g>
       <use style="fill:#262626;stroke:#262626;" x="54.04421875" xlink:href="#m4aded61697" y="286.055218171"/>
      </g>
     </g>
     <g id="text_34">
      <!-- 0.5 -->
      <g style="fill:#262626;" transform="translate(27.95984375 288.640374421)scale(0.1 -0.1)">
       <use xlink:href="#ArialMT-30"/>
       <use x="55.615234375" xlink:href="#ArialMT-2e"/>
       <use x="83.3984375" xlink:href="#ArialMT-35"/>
      </g>
     </g>
    </g>
    <g id="ytick_30">
     <g id="line2d_91">
      <g>
       <use style="fill:#262626;stroke:#262626;" x="54.04421875" xlink:href="#m4aded61697" y="267.14068589"/>
      </g>
     </g>
     <g id="text_35">
      <!-- 1.0 -->
      <g style="fill:#262626;" transform="translate(28.71140625 269.72584214)scale(0.1 -0.1)">
       <use xlink:href="#ArialMT-31"/>
       <use x="55.615234375" xlink:href="#ArialMT-2e"/>
       <use x="83.3984375" xlink:href="#ArialMT-30"/>
      </g>
     </g>
    </g>
    <g id="ytick_31">
     <g id="line2d_92">
      <g>
       <use style="fill:#262626;stroke:#262626;" x="54.04421875" xlink:href="#m4aded61697" y="248.226153609"/>
      </g>
     </g>
     <g id="text_36">
      <!-- 1.5 -->
      <g style="fill:#262626;" transform="translate(28.63328125 250.811309859)scale(0.1 -0.1)">
       <use xlink:href="#ArialMT-31"/>
       <use x="55.615234375" xlink:href="#ArialMT-2e"/>
       <use x="83.3984375" xlink:href="#ArialMT-35"/>
      </g>
     </g>
    </g>
    <g id="ytick_32">
     <g id="line2d_93">
      <g>
       <use style="fill:#262626;stroke:#262626;" x="54.04421875" xlink:href="#m4aded61697" y="229.311621329"/>
      </g>
     </g>
     <g id="text_37">
      <!-- 2.0 -->
      <g style="fill:#262626;" transform="translate(27.91609375 231.896777579)scale(0.1 -0.1)">
       <use xlink:href="#ArialMT-32"/>
       <use x="55.615234375" xlink:href="#ArialMT-2e"/>
       <use x="83.3984375" xlink:href="#ArialMT-30"/>
      </g>
     </g>
    </g>
    <g id="text_38">
     <!-- Expression -->
     <g style="fill:#262626;" transform="translate(15.07359375 326.75671875)rotate(-90.0)scale(0.11 -0.11)">
      <use xlink:href="#ArialMT-45"/>
      <use x="66.69921875" xlink:href="#ArialMT-78"/>
      <use x="116.69921875" xlink:href="#ArialMT-70"/>
      <use x="172.314453125" xlink:href="#ArialMT-72"/>
      <use x="205.615234375" xlink:href="#ArialMT-65"/>
      <use x="261.23046875" xlink:href="#ArialMT-73"/>
      <use x="311.23046875" xlink:href="#ArialMT-73"/>
      <use x="361.23046875" xlink:href="#ArialMT-69"/>
      <use x="383.447265625" xlink:href="#ArialMT-6f"/>
      <use x="439.0625" xlink:href="#ArialMT-6e"/>
     </g>
    </g>
   </g>
   <g id="line2d_94">
    <path clip-path="url(#pbcd7330b36)" d="
M54.0442 283.513
L56.2276 274.205
L60.5943 252.844
L78.0613 315.556
L104.262 305.658
L156.663 348.467
L261.464 354.546" style="fill:none;stroke:#d9544d;stroke-linecap:round;"/>
   </g>
   <g id="line2d_95">
    <path clip-path="url(#pbcd7330b36)" d="
M54.0442 266.216
L56.2276 253.527
L60.5943 283.384
L78.0613 316.02
L104.262 320.946
L156.663 348.537
L261.464 346.159" style="fill:none;stroke:#d9544d;stroke-linecap:round;"/>
   </g>
   <g id="line2d_96">
    <path clip-path="url(#pbcd7330b36)" d="
M54.0442 249.908
L56.2276 271.807
L60.5943 283.655
L78.0613 309.278
L104.262 326.907
L156.663 350.592
L261.464 342.641" style="fill:none;stroke:#d9544d;stroke-linecap:round;"/>
   </g>
   <g id="line2d_97">
    <path clip-path="url(#pbcd7330b36)" d="
M54.0442 302.517
L56.2276 265.099
L60.5943 249.801
L78.0613 311.38
L104.262 307.807
L156.663 350.533
L261.464 347.651" style="fill:none;stroke:#d9544d;stroke-linecap:round;"/>
   </g>
   <g id="line2d_98">
    <path clip-path="url(#pbcd7330b36)" d="
M54.0442 298.46
L56.2276 265.716
L60.5943 248.183
L78.0613 307.297
L104.262 321.825
L156.663 344.034
L261.464 349.273" style="fill:none;stroke:#d9544d;stroke-linecap:round;"/>
   </g>
   <g id="line2d_99">
    <path clip-path="url(#pbcd7330b36)" d="
M54.0442 249.814
L56.2276 275.95
L60.5943 277.926
L78.0613 318.441
L104.262 319.468
L156.663 339.06
L261.464 354.13" style="fill:none;stroke:#d9544d;stroke-linecap:round;"/>
   </g>
   <g id="line2d_100">
    <path clip-path="url(#pbcd7330b36)" d="
M54.0442 260.973
L56.2276 260.007
L60.5943 280.091
L78.0613 321.464
L104.262 318.343
L156.663 351.047
L261.464 342.863" style="fill:none;stroke:#d9544d;stroke-linecap:round;"/>
   </g>
   <g id="line2d_101">
    <path clip-path="url(#pbcd7330b36)" d="
M54.0442 266.862
L56.2276 251.522
L60.5943 279.237
L78.0613 325.447
L104.262 332.573
L156.663 335.157
L261.464 343.991" style="fill:none;stroke:#d9544d;stroke-linecap:round;"/>
   </g>
   <g id="line2d_102">
    <path clip-path="url(#pbcd7330b36)" d="
M54.0442 256.737
L56.2276 259.002
L60.5943 285.391
L78.0613 332.008
L104.262 320.598
L156.663 329.131
L261.464 351.921" style="fill:none;stroke:#d9544d;stroke-linecap:round;"/>
   </g>
   <g id="line2d_103">
    <path clip-path="url(#pbcd7330b36)" d="
M54.0442 258.097
L56.2276 255.249
L60.5943 290.127
L78.0613 316.646
L104.262 326.203
L156.663 347.858
L261.464 340.609" style="fill:none;stroke:#d9544d;stroke-linecap:round;"/>
   </g>
   <g id="line2d_104">
    <path clip-path="url(#pbcd7330b36)" d="
M54.0442 261.473
L56.2276 262.383
L60.5943 280.198
L78.0613 311.526
L104.262 320.248
L156.663 345.727
L261.464 353.233" style="fill:none;stroke:#d9544d;stroke-linecap:round;"/>
   </g>
   <g id="line2d_105">
    <path clip-path="url(#pbcd7330b36)" d="
M54.0442 250.414
L56.2276 282.611
L60.5943 291.127
L78.0613 286.064
L104.262 322.35
L156.663 350.526
L261.464 351.697" style="fill:none;stroke:#d9544d;stroke-linecap:round;"/>
   </g>
   <g id="line2d_106">
    <path clip-path="url(#pbcd7330b36)" d="
M54.0442 259.028
L56.2276 259.073
L60.5943 278.968
L78.0613 324.648
L104.262 330.482
L156.663 344.119
L261.464 338.469" style="fill:none;stroke:#d9544d;stroke-linecap:round;"/>
   </g>
   <g id="line2d_107">
    <path clip-path="url(#pbcd7330b36)" d="
M54.0442 251.093
L56.2276 270.427
L60.5943 278.427
L78.0613 315.072
L104.262 338.146
L156.663 343.435
L261.464 338.19" style="fill:none;stroke:#d9544d;stroke-linecap:round;"/>
   </g>
   <g id="line2d_108">
    <path clip-path="url(#pbcd7330b36)" d="
M54.0442 255.997
L56.2276 272.009
L60.5943 281.886
L78.0613 305.97
L104.262 315.099
L156.663 357.28
L261.464 346.547" style="fill:none;stroke:#d9544d;stroke-linecap:round;"/>
   </g>
   <g id="patch_12">
    <path d="
M54.0442 377.418
L54.0442 223.309" style="fill:none;stroke:#262626;stroke-linecap:square;stroke-linejoin:miter;stroke-width:1.25;"/>
   </g>
   <g id="patch_13">
    <path d="
M54.0442 377.418
L261.464 377.418" style="fill:none;stroke:#262626;stroke-linecap:square;stroke-linejoin:miter;stroke-width:1.25;"/>
   </g>
   <g id="text_39">
    <!-- Root Drought -->
    <defs>
     <path d="
M40.5781 0
L40.5781 7.625
Q34.5156 -1.17188 24.125 -1.17188
Q19.5312 -1.17188 15.5469 0.578125
Q11.5781 2.34375 9.64062 5
Q7.71875 7.67188 6.9375 11.5312
Q6.39062 14.1094 6.39062 19.7344
L6.39062 51.8594
L15.1875 51.8594
L15.1875 23.0938
Q15.1875 16.2188 15.7188 13.8125
Q16.5469 10.3594 19.2344 8.375
Q21.9219 6.39062 25.875 6.39062
Q29.8281 6.39062 33.2969 8.42188
Q36.7656 10.4531 38.2031 13.9375
Q39.6562 17.4375 39.6562 24.0781
L39.6562 51.8594
L48.4375 51.8594
L48.4375 0
z
" id="ArialMT-75"/>
     <path d="
M6.59375 0
L6.59375 71.5781
L15.375 71.5781
L15.375 45.9062
Q21.5312 53.0312 30.9062 53.0312
Q36.6719 53.0312 40.9219 50.75
Q45.1719 48.4844 47 44.4844
Q48.8281 40.4844 48.8281 32.8594
L48.8281 0
L40.0469 0
L40.0469 32.8594
Q40.0469 39.4531 37.1875 42.4531
Q34.3281 45.4531 29.1094 45.4531
Q25.2031 45.4531 21.75 43.4219
Q18.3125 41.4062 16.8438 37.9375
Q15.375 34.4688 15.375 28.375
L15.375 0
z
" id="ArialMT-68"/>
     <path d="
M7.71875 0
L7.71875 71.5781
L32.375 71.5781
Q40.7188 71.5781 45.125 70.5625
Q51.2656 69.1406 55.6094 65.4375
Q61.2812 60.6406 64.0781 53.1875
Q66.8906 45.75 66.8906 36.1875
Q66.8906 28.0312 64.9844 21.7344
Q63.0938 15.4375 60.1094 11.2969
Q57.125 7.17188 53.5781 4.79688
Q50.0469 2.4375 45.0469 1.21875
Q40.0469 0 33.5469 0
z

M17.1875 8.45312
L32.4688 8.45312
Q39.5469 8.45312 43.5781 9.76562
Q47.6094 11.0781 50 13.4844
Q53.375 16.8438 55.25 22.5312
Q57.125 28.2188 57.125 36.3281
Q57.125 47.5625 53.4375 53.5938
Q49.75 59.625 44.4844 61.6719
Q40.6719 63.1406 32.2344 63.1406
L17.1875 63.1406
z
" id="ArialMT-44"/>
     <path d="
M4.98438 -4.29688
L13.5312 -5.5625
Q14.0625 -9.51562 16.5 -11.3281
Q19.7812 -13.7656 25.4375 -13.7656
Q31.5469 -13.7656 34.8594 -11.3281
Q38.1875 -8.89062 39.3594 -4.5
Q40.0469 -1.8125 39.9844 6.78125
Q34.2344 0 25.6406 0
Q14.9375 0 9.07812 7.71875
Q3.21875 15.4375 3.21875 26.2188
Q3.21875 33.6406 5.90625 39.9062
Q8.59375 46.1875 13.6875 49.6094
Q18.7969 53.0312 25.6875 53.0312
Q34.8594 53.0312 40.8281 45.6094
L40.8281 51.8594
L48.9219 51.8594
L48.9219 7.03125
Q48.9219 -5.07812 46.4531 -10.125
Q44 -15.1875 38.6406 -18.1094
Q33.2969 -21.0469 25.4844 -21.0469
Q16.2188 -21.0469 10.5 -16.875
Q4.78125 -12.7031 4.98438 -4.29688
M12.25 26.8594
Q12.25 16.6562 16.2969 11.9688
Q20.3594 7.28125 26.4688 7.28125
Q32.5156 7.28125 36.6094 11.9375
Q40.7188 16.6094 40.7188 26.5625
Q40.7188 36.0781 36.5 40.9062
Q32.2812 45.75 26.3125 45.75
Q20.4531 45.75 16.3438 40.9844
Q12.25 36.2344 12.25 26.8594" id="ArialMT-67"/>
    </defs>
    <g style="fill:#262626;" transform="translate(122.11421875 218.309375)scale(0.12 -0.12)">
     <use xlink:href="#ArialMT-52"/>
     <use x="72.216796875" xlink:href="#ArialMT-6f"/>
     <use x="127.83203125" xlink:href="#ArialMT-6f"/>
     <use x="183.447265625" xlink:href="#ArialMT-74"/>
     <use x="211.23046875" xlink:href="#ArialMT-20"/>
     <use x="239.013671875" xlink:href="#ArialMT-44"/>
     <use x="311.23046875" xlink:href="#ArialMT-72"/>
     <use x="344.53125" xlink:href="#ArialMT-6f"/>
     <use x="400.146484375" xlink:href="#ArialMT-75"/>
     <use x="455.76171875" xlink:href="#ArialMT-67"/>
     <use x="511.376953125" xlink:href="#ArialMT-68"/>
     <use x="566.9921875" xlink:href="#ArialMT-74"/>
    </g>
   </g>
  </g>
  <g id="axes_5">
   <g id="patch_14">
    <path d="
M274.424 377.418
L481.844 377.418
L481.844 223.309
L274.424 223.309
z
" style="fill:#ffffff;"/>
   </g>
   <g id="matplotlib.axis_9">
    <g id="xtick_17">
     <g id="line2d_109">
      <g>
       <use style="fill:#262626;stroke:#262626;" x="314.142942154" xlink:href="#me1deecec79" y="377.4178125"/>
      </g>
     </g>
     <g id="text_40">
      <!-- 5 -->
      <g style="fill:#262626;" transform="translate(311.770285904 397.575625)scale(0.1 -0.1)">
       <use xlink:href="#ArialMT-35"/>
      </g>
     </g>
    </g>
    <g id="xtick_18">
     <g id="line2d_110">
      <g>
       <use style="fill:#262626;stroke:#262626;" x="358.274857048" xlink:href="#me1deecec79" y="377.4178125"/>
      </g>
     </g>
     <g id="text_41">
      <!-- 10 -->
      <g style="fill:#262626;" transform="translate(353.497513298 397.575625)scale(0.1 -0.1)">
       <use xlink:href="#ArialMT-31"/>
       <use x="55.615234375" xlink:href="#ArialMT-30"/>
      </g>
     </g>
    </g>
    <g id="xtick_19">
     <g id="line2d_111">
      <g>
       <use style="fill:#262626;stroke:#262626;" x="402.406771941" xlink:href="#me1deecec79" y="377.4178125"/>
      </g>
     </g>
     <g id="text_42">
      <!-- 15 -->
      <g style="fill:#262626;" transform="translate(397.590365691 397.575625)scale(0.1 -0.1)">
       <use xlink:href="#ArialMT-31"/>
       <use x="55.615234375" xlink:href="#ArialMT-35"/>
      </g>
     </g>
    </g>
    <g id="xtick_20">
     <g id="line2d_112">
      <g>
       <use style="fill:#262626;stroke:#262626;" x="446.538686835" xlink:href="#me1deecec79" y="377.4178125"/>
      </g>
     </g>
     <g id="text_43">
      <!-- 20 -->
      <g style="fill:#262626;" transform="translate(441.363686835 397.575625)scale(0.1 -0.1)">
       <use xlink:href="#ArialMT-32"/>
       <use x="55.615234375" xlink:href="#ArialMT-30"/>
      </g>
     </g>
    </g>
    <g id="text_44">
     <!-- Time -->
     <g style="fill:#262626;" transform="translate(366.4759375 412.43671875)scale(0.11 -0.11)">
      <use xlink:href="#ArialMT-54"/>
      <use x="57.333984375" xlink:href="#ArialMT-69"/>
      <use x="79.55078125" xlink:href="#ArialMT-6d"/>
      <use x="162.8515625" xlink:href="#ArialMT-65"/>
     </g>
    </g>
   </g>
   <g id="matplotlib.axis_10">
    <g id="ytick_33">
     <g id="line2d_113">
      <g>
       <use style="fill:#262626;stroke:#262626;" x="274.42421875" xlink:href="#m4aded61697" y="361.713347294"/>
      </g>
     </g>
    </g>
    <g id="ytick_34">
     <g id="line2d_114">
      <g>
       <use style="fill:#262626;stroke:#262626;" x="274.42421875" xlink:href="#m4aded61697" y="342.798815013"/>
      </g>
     </g>
    </g>
    <g id="ytick_35">
     <g id="line2d_115">
      <g>
       <use style="fill:#262626;stroke:#262626;" x="274.42421875" xlink:href="#m4aded61697" y="323.884282732"/>
      </g>
     </g>
    </g>
    <g id="ytick_36">
     <g id="line2d_116">
      <g>
       <use style="fill:#262626;stroke:#262626;" x="274.42421875" xlink:href="#m4aded61697" y="304.969750452"/>
      </g>
     </g>
    </g>
    <g id="ytick_37">
     <g id="line2d_117">
      <g>
       <use style="fill:#262626;stroke:#262626;" x="274.42421875" xlink:href="#m4aded61697" y="286.055218171"/>
      </g>
     </g>
    </g>
    <g id="ytick_38">
     <g id="line2d_118">
      <g>
       <use style="fill:#262626;stroke:#262626;" x="274.42421875" xlink:href="#m4aded61697" y="267.14068589"/>
      </g>
     </g>
    </g>
    <g id="ytick_39">
     <g id="line2d_119">
      <g>
       <use style="fill:#262626;stroke:#262626;" x="274.42421875" xlink:href="#m4aded61697" y="248.226153609"/>
      </g>
     </g>
    </g>
    <g id="ytick_40">
     <g id="line2d_120">
      <g>
       <use style="fill:#262626;stroke:#262626;" x="274.42421875" xlink:href="#m4aded61697" y="229.311621329"/>
      </g>
     </g>
    </g>
   </g>
   <g id="line2d_121">
    <path clip-path="url(#p9f233a080d)" d="
M274.424 285.8
L278.837 316.769
L296.49 278.968
L322.969 320.603
L375.928 366.616
L481.844 261.063" style="fill:none;stroke:#03012d;stroke-linecap:round;"/>
   </g>
   <g id="line2d_122">
    <path clip-path="url(#p9f233a080d)" d="
M274.424 362.7
L278.837 319.552
L296.49 268.65
L322.969 270.63
L375.928 327.703
L481.844 280.584" style="fill:none;stroke:#03012d;stroke-linecap:round;"/>
   </g>
   <g id="line2d_123">
    <path clip-path="url(#p9f233a080d)" d="
M274.424 309.964
L278.837 286.604
L296.49 255.092
L322.969 285.08
L375.928 361.595
L481.844 331.484" style="fill:none;stroke:#03012d;stroke-linecap:round;"/>
   </g>
   <g id="line2d_124">
    <path clip-path="url(#p9f233a080d)" d="
M274.424 331.999
L278.837 323.817
L296.49 309.981
L322.969 325.475
L375.928 308.486
L481.844 230.06" style="fill:none;stroke:#03012d;stroke-linecap:round;"/>
   </g>
   <g id="line2d_125">
    <path clip-path="url(#p9f233a080d)" d="
M274.424 357.652
L278.837 345.481
L296.49 277.332
L322.969 268.784
L375.928 301.102
L481.844 279.467" style="fill:none;stroke:#03012d;stroke-linecap:round;"/>
   </g>
   <g id="line2d_126">
    <path clip-path="url(#p9f233a080d)" d="
M274.424 364.75
L278.837 336.778
L296.49 279.162
L322.969 266.918
L375.928 285.134
L481.844 297.077" style="fill:none;stroke:#03012d;stroke-linecap:round;"/>
   </g>
   <g id="line2d_127">
    <path clip-path="url(#p9f233a080d)" d="
M274.424 316.872
L278.837 281.844
L296.49 246.021
L322.969 301.11
L375.928 353.132
L481.844 330.84" style="fill:none;stroke:#03012d;stroke-linecap:round;"/>
   </g>
   <g id="line2d_128">
    <path clip-path="url(#p9f233a080d)" d="
M274.424 272.998
L278.837 288.267
L296.49 267.337
L322.969 299.494
L375.928 360.755
L481.844 340.968" style="fill:none;stroke:#03012d;stroke-linecap:round;"/>
   </g>
   <g id="line2d_129">
    <path clip-path="url(#p9f233a080d)" d="
M274.424 310.634
L278.837 293.464
L296.49 257.279
L322.969 272.959
L375.928 343.697
L481.844 351.787" style="fill:none;stroke:#03012d;stroke-linecap:round;"/>
   </g>
   <g id="line2d_130">
    <path clip-path="url(#p9f233a080d)" d="
M274.424 355.565
L278.837 310.753
L296.49 256.213
L322.969 265.835
L375.928 311.878
L481.844 329.575" style="fill:none;stroke:#03012d;stroke-linecap:round;"/>
   </g>
   <g id="line2d_131">
    <path clip-path="url(#p9f233a080d)" d="
M274.424 329.659
L278.837 308.429
L296.49 229.017
L322.969 320.136
L375.928 322.345
L481.844 320.233" style="fill:none;stroke:#03012d;stroke-linecap:round;"/>
   </g>
   <g id="line2d_132">
    <path clip-path="url(#p9f233a080d)" d="
M274.424 366.086
L278.837 313.381
L296.49 250.468
L322.969 298.707
L375.928 312.862
L481.844 288.315" style="fill:none;stroke:#03012d;stroke-linecap:round;"/>
   </g>
   <g id="line2d_133">
    <path clip-path="url(#p9f233a080d)" d="
M274.424 358.966
L278.837 347.354
L296.49 281.121
L322.969 274.58
L375.928 278.292
L481.844 289.506" style="fill:none;stroke:#03012d;stroke-linecap:round;"/>
   </g>
   <g id="line2d_134">
    <path clip-path="url(#p9f233a080d)" d="
M274.424 362.802
L278.837 316.437
L296.49 276.91
L322.969 252.291
L375.928 315.755
L481.844 305.625" style="fill:none;stroke:#03012d;stroke-linecap:round;"/>
   </g>
   <g id="line2d_135">
    <path clip-path="url(#p9f233a080d)" d="
M274.424 347.44
L278.837 326.426
L296.49 246.885
L322.969 278.849
L375.928 332.848
L481.844 297.372" style="fill:none;stroke:#03012d;stroke-linecap:round;"/>
   </g>
   <g id="patch_15">
    <path d="
M274.424 377.418
L274.424 223.309" style="fill:none;stroke:#262626;stroke-linecap:square;stroke-linejoin:miter;stroke-width:1.25;"/>
   </g>
   <g id="patch_16">
    <path d="
M274.424 377.418
L481.844 377.418" style="fill:none;stroke:#262626;stroke-linecap:square;stroke-linejoin:miter;stroke-width:1.25;"/>
   </g>
   <g id="text_45">
    <!-- Shoot Cold -->
    <g style="fill:#262626;" transform="translate(348.88234375 218.309375)scale(0.12 -0.12)">
     <use xlink:href="#ArialMT-53"/>
     <use x="66.69921875" xlink:href="#ArialMT-68"/>
     <use x="122.314453125" xlink:href="#ArialMT-6f"/>
     <use x="177.9296875" xlink:href="#ArialMT-6f"/>
     <use x="233.544921875" xlink:href="#ArialMT-74"/>
     <use x="261.328125" xlink:href="#ArialMT-20"/>
     <use x="289.111328125" xlink:href="#ArialMT-43"/>
     <use x="361.328125" xlink:href="#ArialMT-6f"/>
     <use x="416.943359375" xlink:href="#ArialMT-6c"/>
     <use x="439.16015625" xlink:href="#ArialMT-64"/>
    </g>
   </g>
  </g>
  <g id="axes_6">
   <g id="patch_17">
    <path d="
M494.804 377.418
L702.224 377.418
L702.224 223.309
L494.804 223.309
z
" style="fill:#ffffff;"/>
   </g>
   <g id="matplotlib.axis_11">
    <g id="xtick_21">
     <g id="line2d_136">
      <g>
       <use style="fill:#262626;stroke:#262626;" x="536.28821875" xlink:href="#me1deecec79" y="377.4178125"/>
      </g>
     </g>
     <g id="text_46">
      <!-- 5 -->
      <g style="fill:#262626;" transform="translate(533.9155625 397.575625)scale(0.1 -0.1)">
       <use xlink:href="#ArialMT-35"/>
      </g>
     </g>
    </g>
    <g id="xtick_22">
     <g id="line2d_137">
      <g>
       <use style="fill:#262626;stroke:#262626;" x="579.955587171" xlink:href="#me1deecec79" y="377.4178125"/>
      </g>
     </g>
     <g id="text_47">
      <!-- 10 -->
      <g style="fill:#262626;" transform="translate(575.178243421 397.575625)scale(0.1 -0.1)">
       <use xlink:href="#ArialMT-31"/>
       <use x="55.615234375" xlink:href="#ArialMT-30"/>
      </g>
     </g>
    </g>
    <g id="xtick_23">
     <g id="line2d_138">
      <g>
       <use style="fill:#262626;stroke:#262626;" x="623.622955592" xlink:href="#me1deecec79" y="377.4178125"/>
      </g>
     </g>
     <g id="text_48">
      <!-- 15 -->
      <g style="fill:#262626;" transform="translate(618.806549342 397.575625)scale(0.1 -0.1)">
       <use xlink:href="#ArialMT-31"/>
       <use x="55.615234375" xlink:href="#ArialMT-35"/>
      </g>
     </g>
    </g>
    <g id="xtick_24">
     <g id="line2d_139">
      <g>
       <use style="fill:#262626;stroke:#262626;" x="667.290324013" xlink:href="#me1deecec79" y="377.4178125"/>
      </g>
     </g>
     <g id="text_49">
      <!-- 20 -->
      <g style="fill:#262626;" transform="translate(662.115324013 397.575625)scale(0.1 -0.1)">
       <use xlink:href="#ArialMT-32"/>
       <use x="55.615234375" xlink:href="#ArialMT-30"/>
      </g>
     </g>
    </g>
    <g id="text_50">
     <!-- Time -->
     <g style="fill:#262626;" transform="translate(586.8559375 412.43671875)scale(0.11 -0.11)">
      <use xlink:href="#ArialMT-54"/>
      <use x="57.333984375" xlink:href="#ArialMT-69"/>
      <use x="79.55078125" xlink:href="#ArialMT-6d"/>
      <use x="162.8515625" xlink:href="#ArialMT-65"/>
     </g>
    </g>
   </g>
   <g id="matplotlib.axis_12">
    <g id="ytick_41">
     <g id="line2d_140">
      <g>
       <use style="fill:#262626;stroke:#262626;" x="494.80421875" xlink:href="#m4aded61697" y="361.713347294"/>
      </g>
     </g>
    </g>
    <g id="ytick_42">
     <g id="line2d_141">
      <g>
       <use style="fill:#262626;stroke:#262626;" x="494.80421875" xlink:href="#m4aded61697" y="342.798815013"/>
      </g>
     </g>
    </g>
    <g id="ytick_43">
     <g id="line2d_142">
      <g>
       <use style="fill:#262626;stroke:#262626;" x="494.80421875" xlink:href="#m4aded61697" y="323.884282732"/>
      </g>
     </g>
    </g>
    <g id="ytick_44">
     <g id="line2d_143">
      <g>
       <use style="fill:#262626;stroke:#262626;" x="494.80421875" xlink:href="#m4aded61697" y="304.969750452"/>
      </g>
     </g>
    </g>
    <g id="ytick_45">
     <g id="line2d_144">
      <g>
       <use style="fill:#262626;stroke:#262626;" x="494.80421875" xlink:href="#m4aded61697" y="286.055218171"/>
      </g>
     </g>
    </g>
    <g id="ytick_46">
     <g id="line2d_145">
      <g>
       <use style="fill:#262626;stroke:#262626;" x="494.80421875" xlink:href="#m4aded61697" y="267.14068589"/>
      </g>
     </g>
    </g>
    <g id="ytick_47">
     <g id="line2d_146">
      <g>
       <use style="fill:#262626;stroke:#262626;" x="494.80421875" xlink:href="#m4aded61697" y="248.226153609"/>
      </g>
     </g>
    </g>
    <g id="ytick_48">
     <g id="line2d_147">
      <g>
       <use style="fill:#262626;stroke:#262626;" x="494.80421875" xlink:href="#m4aded61697" y="229.311621329"/>
      </g>
     </g>
    </g>
   </g>
   <g id="line2d_148">
    <path clip-path="url(#pc9fa587bab)" d="
M494.804 291.499
L496.988 291.9
L501.354 274.383
L518.821 264.793
L545.022 296.396
L597.423 356.219
L702.224 359.598" style="fill:none;stroke:#d9544d;stroke-linecap:round;"/>
   </g>
   <g id="line2d_149">
    <path clip-path="url(#pc9fa587bab)" d="
M494.804 301.266
L496.988 284.945
L501.354 277.265
L518.821 264.93
L545.022 291.679
L597.423 349.097
L702.224 365.608" style="fill:none;stroke:#d9544d;stroke-linecap:round;"/>
   </g>
   <g id="line2d_150">
    <path clip-path="url(#pc9fa587bab)" d="
M494.804 278.253
L496.988 276.969
L501.354 275.27
L518.821 278.085
L545.022 312.036
L597.423 356.383
L702.224 357.792" style="fill:none;stroke:#d9544d;stroke-linecap:round;"/>
   </g>
   <g id="line2d_151">
    <path clip-path="url(#pc9fa587bab)" d="
M494.804 313.883
L496.988 284.643
L501.354 293.189
L518.821 252.882
L545.022 285.64
L597.423 366.281
L702.224 338.271" style="fill:none;stroke:#d9544d;stroke-linecap:round;"/>
   </g>
   <g id="line2d_152">
    <path clip-path="url(#pc9fa587bab)" d="
M494.804 298.26
L496.988 264.447
L501.354 287.294
L518.821 269.138
L545.022 303.099
L597.423 360.437
L702.224 352.114" style="fill:none;stroke:#d9544d;stroke-linecap:round;"/>
   </g>
   <g id="line2d_153">
    <path clip-path="url(#pc9fa587bab)" d="
M494.804 276.481
L496.988 293.628
L501.354 260.663
L518.821 282.943
L545.022 309.63
L597.423 352.213
L702.224 359.23" style="fill:none;stroke:#d9544d;stroke-linecap:round;"/>
   </g>
   <g id="line2d_154">
    <path clip-path="url(#pc9fa587bab)" d="
M494.804 300.521
L496.988 272.151
L501.354 280.851
L518.821 257.094
L545.022 320.887
L597.423 349.979
L702.224 353.306" style="fill:none;stroke:#d9544d;stroke-linecap:round;"/>
   </g>
   <g id="line2d_155">
    <path clip-path="url(#pc9fa587bab)" d="
M494.804 284.142
L496.988 278.453
L501.354 260.158
L518.821 282.289
L545.022 324.526
L597.423 350.986
L702.224 354.234" style="fill:none;stroke:#d9544d;stroke-linecap:round;"/>
   </g>
   <g id="line2d_156">
    <path clip-path="url(#pc9fa587bab)" d="
M494.804 263.193
L496.988 290.838
L501.354 289.413
L518.821 270.223
L545.022 310.057
L597.423 360.677
L702.224 350.387" style="fill:none;stroke:#d9544d;stroke-linecap:round;"/>
   </g>
   <g id="line2d_157">
    <path clip-path="url(#pc9fa587bab)" d="
M494.804 273.924
L496.988 279.757
L501.354 285.818
L518.821 288.054
L545.022 287.698
L597.423 363.612
L702.224 355.926" style="fill:none;stroke:#d9544d;stroke-linecap:round;"/>
   </g>
   <g id="line2d_158">
    <path clip-path="url(#pc9fa587bab)" d="
M494.804 287.372
L496.988 301.424
L501.354 261.445
L518.821 272.639
L545.022 299.934
L597.423 362.817
L702.224 349.158" style="fill:none;stroke:#d9544d;stroke-linecap:round;"/>
   </g>
   <g id="line2d_159">
    <path clip-path="url(#pc9fa587bab)" d="
M494.804 277.387
L496.988 291.431
L501.354 272.572
L518.821 276.247
L545.022 300.04
L597.423 358.228
L702.224 358.884" style="fill:none;stroke:#d9544d;stroke-linecap:round;"/>
   </g>
   <g id="line2d_160">
    <path clip-path="url(#pc9fa587bab)" d="
M494.804 296.015
L496.988 259.112
L501.354 270.772
L518.821 281.611
L545.022 325.129
L597.423 354.966
L702.224 347.183" style="fill:none;stroke:#d9544d;stroke-linecap:round;"/>
   </g>
   <g id="line2d_161">
    <path clip-path="url(#pc9fa587bab)" d="
M494.804 296.233
L496.988 267.027
L501.354 262.646
L518.821 284.315
L545.022 318.223
L597.423 349.324
L702.224 357.021" style="fill:none;stroke:#d9544d;stroke-linecap:round;"/>
   </g>
   <g id="line2d_162">
    <path clip-path="url(#pc9fa587bab)" d="
M494.804 262.768
L496.988 274.276
L501.354 267.192
L518.821 306.753
L545.022 323.384
L597.423 349.597
L702.224 350.818" style="fill:none;stroke:#d9544d;stroke-linecap:round;"/>
   </g>
   <g id="patch_18">
    <path d="
M494.804 377.418
L494.804 223.309" style="fill:none;stroke:#262626;stroke-linecap:square;stroke-linejoin:miter;stroke-width:1.25;"/>
   </g>
   <g id="patch_19">
    <path d="
M494.804 377.418
L702.224 377.418" style="fill:none;stroke:#262626;stroke-linecap:square;stroke-linejoin:miter;stroke-width:1.25;"/>
   </g>
   <g id="text_51">
    <!-- Shoot Uv -->
    <defs>
     <path d="
M54.6875 71.5781
L64.1562 71.5781
L64.1562 30.2188
Q64.1562 19.4375 61.7188 13.0781
Q59.2812 6.73438 52.9062 2.75
Q46.5312 -1.21875 36.1875 -1.21875
Q26.125 -1.21875 19.7188 2.25
Q13.3281 5.71875 10.5938 12.2812
Q7.85938 18.8438 7.85938 30.2188
L7.85938 71.5781
L17.3281 71.5781
L17.3281 30.2812
Q17.3281 20.9531 19.0625 16.5312
Q20.7969 12.1094 25.0156 9.71875
Q29.25 7.32812 35.3594 7.32812
Q45.7969 7.32812 50.2344 12.0625
Q54.6875 16.7969 54.6875 30.2812
z
" id="ArialMT-55"/>
     <path d="
M21 0
L1.26562 51.8594
L10.5469 51.8594
L21.6875 20.7969
Q23.4844 15.7656 25 10.3594
Q26.1719 14.4531 28.2656 20.2188
L39.7969 51.8594
L48.8281 51.8594
L29.2031 0
z
" id="ArialMT-76"/>
    </defs>
    <g style="fill:#262626;" transform="translate(573.90578125 218.309375)scale(0.12 -0.12)">
     <use xlink:href="#ArialMT-53"/>
     <use x="66.69921875" xlink:href="#ArialMT-68"/>
     <use x="122.314453125" xlink:href="#ArialMT-6f"/>
     <use x="177.9296875" xlink:href="#ArialMT-6f"/>
     <use x="233.544921875" xlink:href="#ArialMT-74"/>
     <use x="261.328125" xlink:href="#ArialMT-20"/>
     <use x="289.111328125" xlink:href="#ArialMT-55"/>
     <use x="361.328125" xlink:href="#ArialMT-76"/>
    </g>
   </g>
  </g>
 </g>
 <defs>
  <clipPath id="pbcd7330b36">
   <rect height="154.1084375" width="207.42" x="54.04421875" y="223.309375"/>
  </clipPath>
  <clipPath id="pb2724296c0">
   <rect height="154.1084375" width="207.42" x="494.80421875" y="20.789375"/>
  </clipPath>
  <clipPath id="p5d6dd64791">
   <rect height="154.1084375" width="207.42" x="274.42421875" y="20.789375"/>
  </clipPath>
  <clipPath id="pc9fa587bab">
   <rect height="154.1084375" width="207.42" x="494.80421875" y="223.309375"/>
  </clipPath>
  <clipPath id="p2fc4386486">
   <rect height="154.1084375" width="207.42" x="54.04421875" y="20.789375"/>
  </clipPath>
  <clipPath id="p9f233a080d">
   <rect height="154.1084375" width="207.42" x="274.42421875" y="223.309375"/>
  </clipPath>
 </defs>
</svg>
