<?xml version="1.0" encoding="utf-8" standalone="no"?>
<!DOCTYPE svg PUBLIC "-//W3C//DTD SVG 1.1//EN"
  "http://www.w3.org/Graphics/SVG/1.1/DTD/svg11.dtd">
<!-- Created with matplotlib (http://matplotlib.org/) -->
<svg height="421pt" version="1.1" viewBox="0 0 709 421" width="709pt" xmlns="http://www.w3.org/2000/svg" xmlns:xlink="http://www.w3.org/1999/xlink">
 <defs>
  <style type="text/css">
*{stroke-linecap:butt;stroke-linejoin:round;}
  </style>
 </defs>
 <g id="figure_1">
  <g id="patch_1">
   <path d="
M0 421.823
L709.495 421.823
L709.495 0
L0 0
z
" style="fill:#ffffff;"/>
  </g>
  <g id="axes_1">
   <g id="patch_2">
    <path d="
M45.5786 174.898
L255.844 174.898
L255.844 20.7894
L45.5786 20.7894
z
" style="fill:#ffffff;"/>
   </g>
   <g id="matplotlib.axis_1">
    <g id="xtick_1">
     <g id="line2d_1">
      <defs>
       <path d="
M0 0
L0 6" id="me1deecec79" style="stroke:#262626;"/>
      </defs>
      <g>
       <use style="fill:#262626;stroke:#262626;" x="82.1464741848" xlink:href="#me1deecec79" y="174.8978125"/>
      </g>
     </g>
     <g id="text_1">
      <!-- 10 -->
      <defs>
       <path d="
M4.15625 35.2969
Q4.15625 48 6.76562 55.7344
Q9.375 63.4844 14.5156 67.6719
Q19.6719 71.875 27.4844 71.875
Q33.25 71.875 37.5938 69.5469
Q41.9375 67.2344 44.7656 62.8594
Q47.6094 58.5 49.2188 52.2188
Q50.8281 45.9531 50.8281 35.2969
Q50.8281 22.7031 48.2344 14.9688
Q45.6562 7.23438 40.5 3
Q35.3594 -1.21875 27.4844 -1.21875
Q17.1406 -1.21875 11.2344 6.20312
Q4.15625 15.1406 4.15625 35.2969
M13.1875 35.2969
Q13.1875 17.6719 17.3125 11.8281
Q21.4375 6 27.4844 6
Q33.5469 6 37.6719 11.8594
Q41.7969 17.7188 41.7969 35.2969
Q41.7969 52.9844 37.6719 58.7812
Q33.5469 64.5938 27.3906 64.5938
Q21.3438 64.5938 17.7188 59.4688
Q13.1875 52.9375 13.1875 35.2969" id="ArialMT-30"/>
       <path d="
M37.25 0
L28.4688 0
L28.4688 56
Q25.2969 52.9844 20.1406 49.9531
Q14.9844 46.9219 10.8906 45.4062
L10.8906 53.9062
Q18.2656 57.375 23.7812 62.2969
Q29.2969 67.2344 31.5938 71.875
L37.25 71.875
z
" id="ArialMT-31"/>
      </defs>
      <g style="fill:#262626;" transform="translate(77.3691304348 195.055625)scale(0.1 -0.1)">
       <use xlink:href="#ArialMT-31"/>
       <use x="55.615234375" xlink:href="#ArialMT-30"/>
      </g>
     </g>
    </g>
    <g id="xtick_2">
     <g id="line2d_2">
      <g>
       <use style="fill:#262626;stroke:#262626;" x="127.856324728" xlink:href="#me1deecec79" y="174.8978125"/>
      </g>
     </g>
     <g id="text_2">
      <!-- 20 -->
      <defs>
       <path d="
M50.3438 8.45312
L50.3438 0
L3.03125 0
Q2.9375 3.17188 4.04688 6.10938
Q5.85938 10.9375 9.82812 15.625
Q13.8125 20.3125 21.3438 26.4688
Q33.0156 36.0312 37.1094 41.625
Q41.2188 47.2188 41.2188 52.2031
Q41.2188 57.4219 37.4688 61
Q33.7344 64.5938 27.7344 64.5938
Q21.3906 64.5938 17.5781 60.7812
Q13.7656 56.9844 13.7188 50.25
L4.6875 51.1719
Q5.60938 61.2812 11.6562 66.5781
Q17.7188 71.875 27.9375 71.875
Q38.2344 71.875 44.2344 66.1562
Q50.25 60.4531 50.25 52
Q50.25 47.7031 48.4844 43.5469
Q46.7344 39.4062 42.6562 34.8125
Q38.5781 30.2188 29.1094 22.2188
Q21.1875 15.5781 18.9375 13.2031
Q16.7031 10.8438 15.2344 8.45312
z
" id="ArialMT-32"/>
      </defs>
      <g style="fill:#262626;" transform="translate(122.681324728 195.055625)scale(0.1 -0.1)">
       <use xlink:href="#ArialMT-32"/>
       <use x="55.615234375" xlink:href="#ArialMT-30"/>
      </g>
     </g>
    </g>
    <g id="xtick_3">
     <g id="line2d_3">
      <g>
       <use style="fill:#262626;stroke:#262626;" x="173.566175272" xlink:href="#me1deecec79" y="174.8978125"/>
      </g>
     </g>
     <g id="text_3">
      <!-- 30 -->
      <defs>
       <path d="
M4.20312 18.8906
L12.9844 20.0625
Q14.5 12.5938 18.1406 9.29688
Q21.7812 6 27 6
Q33.2031 6 37.4688 10.2969
Q41.75 14.5938 41.75 20.9531
Q41.75 27 37.7969 30.9219
Q33.8438 34.8594 27.7344 34.8594
Q25.25 34.8594 21.5312 33.8906
L22.5156 41.6094
Q23.3906 41.5 23.9219 41.5
Q29.5469 41.5 34.0312 44.4219
Q38.5312 47.3594 38.5312 53.4688
Q38.5312 58.2969 35.25 61.4688
Q31.9844 64.6562 26.8125 64.6562
Q21.6875 64.6562 18.2656 61.4219
Q14.8438 58.2031 13.875 51.7656
L5.07812 53.3281
Q6.6875 62.1562 12.3906 67.0156
Q18.1094 71.875 26.6094 71.875
Q32.4688 71.875 37.3906 69.3594
Q42.3281 66.8438 44.9375 62.5
Q47.5625 58.1562 47.5625 53.2656
Q47.5625 48.6406 45.0625 44.8281
Q42.5781 41.0156 37.7031 38.7656
Q44.0469 37.3125 47.5625 32.6875
Q51.0781 28.0781 51.0781 21.1406
Q51.0781 11.7656 44.2344 5.25
Q37.4062 -1.26562 26.9531 -1.26562
Q17.5312 -1.26562 11.2969 4.34375
Q5.07812 9.96875 4.20312 18.8906" id="ArialMT-33"/>
      </defs>
      <g style="fill:#262626;" transform="translate(168.454456522 195.055625)scale(0.1 -0.1)">
       <use xlink:href="#ArialMT-33"/>
       <use x="55.615234375" xlink:href="#ArialMT-30"/>
      </g>
     </g>
    </g>
    <g id="xtick_4">
     <g id="line2d_4">
      <g>
       <use style="fill:#262626;stroke:#262626;" x="219.276025815" xlink:href="#me1deecec79" y="174.8978125"/>
      </g>
     </g>
     <g id="text_4">
      <!-- 40 -->
      <defs>
       <path d="
M32.3281 0
L32.3281 17.1406
L1.26562 17.1406
L1.26562 25.2031
L33.9375 71.5781
L41.1094 71.5781
L41.1094 25.2031
L50.7812 25.2031
L50.7812 17.1406
L41.1094 17.1406
L41.1094 0
z

M32.3281 25.2031
L32.3281 57.4688
L9.90625 25.2031
z
" id="ArialMT-34"/>
      </defs>
      <g style="fill:#262626;" transform="translate(214.017432065 195.055625)scale(0.1 -0.1)">
       <use xlink:href="#ArialMT-34"/>
       <use x="55.615234375" xlink:href="#ArialMT-30"/>
      </g>
     </g>
    </g>
   </g>
   <g id="matplotlib.axis_2">
    <g id="ytick_1">
     <g id="line2d_5">
      <defs>
       <path d="
M0 0
L-6 0" id="m4aded61697" style="stroke:#262626;"/>
      </defs>
      <g>
       <use style="fill:#262626;stroke:#262626;" x="45.57859375" xlink:href="#m4aded61697" y="165.058465189"/>
      </g>
     </g>
     <g id="text_5">
      <!-- −2 -->
      <defs>
       <path d="
M52.8281 31.2031
L5.5625 31.2031
L5.5625 39.4062
L52.8281 39.4062
z
" id="ArialMT-2212"/>
      </defs>
      <g style="fill:#262626;" transform="translate(22.25984375 167.643621439)scale(0.1 -0.1)">
       <use xlink:href="#ArialMT-2212"/>
       <use x="58.3984375" xlink:href="#ArialMT-32"/>
      </g>
     </g>
    </g>
    <g id="ytick_2">
     <g id="line2d_6">
      <g>
       <use style="fill:#262626;stroke:#262626;" x="45.57859375" xlink:href="#m4aded61697" y="131.366736624"/>
      </g>
     </g>
     <g id="text_6">
      <!-- −1 -->
      <g style="fill:#262626;" transform="translate(23.56921875 133.951892874)scale(0.1 -0.1)">
       <use xlink:href="#ArialMT-2212"/>
       <use x="58.3984375" xlink:href="#ArialMT-31"/>
      </g>
     </g>
    </g>
    <g id="ytick_3">
     <g id="line2d_7">
      <g>
       <use style="fill:#262626;stroke:#262626;" x="45.57859375" xlink:href="#m4aded61697" y="97.6750080584"/>
      </g>
     </g>
     <g id="text_7">
      <!-- 0 -->
      <g style="fill:#262626;" transform="translate(27.91140625 100.260164308)scale(0.1 -0.1)">
       <use xlink:href="#ArialMT-30"/>
      </g>
     </g>
    </g>
    <g id="ytick_4">
     <g id="line2d_8">
      <g>
       <use style="fill:#262626;stroke:#262626;" x="45.57859375" xlink:href="#m4aded61697" y="63.983279493"/>
      </g>
     </g>
     <g id="text_8">
      <!-- 1 -->
      <g style="fill:#262626;" transform="translate(29.94265625 66.568435743)scale(0.1 -0.1)">
       <use xlink:href="#ArialMT-31"/>
      </g>
     </g>
    </g>
    <g id="ytick_5">
     <g id="line2d_9">
      <g>
       <use style="fill:#262626;stroke:#262626;" x="45.57859375" xlink:href="#m4aded61697" y="30.2915509275"/>
      </g>
     </g>
     <g id="text_9">
      <!-- 2 -->
      <g style="fill:#262626;" transform="translate(27.83796875 32.8767071775)scale(0.1 -0.1)">
       <use xlink:href="#ArialMT-32"/>
      </g>
     </g>
    </g>
    <g id="text_10">
     <!-- Expression -->
     <defs>
      <path d="
M7.90625 0
L7.90625 71.5781
L59.6719 71.5781
L59.6719 63.1406
L17.3906 63.1406
L17.3906 41.2188
L56.9844 41.2188
L56.9844 32.8125
L17.3906 32.8125
L17.3906 8.45312
L61.3281 8.45312
L61.3281 0
z
" id="ArialMT-45"/>
      <path d="
M6.59375 -19.875
L6.59375 51.8594
L14.5938 51.8594
L14.5938 45.125
Q17.4375 49.0781 21 51.0469
Q24.5625 53.0312 29.6406 53.0312
Q36.2812 53.0312 41.3594 49.6094
Q46.4375 46.1875 49.0156 39.9531
Q51.6094 33.7344 51.6094 26.3125
Q51.6094 18.3594 48.75 11.9844
Q45.9062 5.60938 40.4531 2.21875
Q35.0156 -1.17188 29 -1.17188
Q24.6094 -1.17188 21.1094 0.6875
Q17.625 2.54688 15.375 5.375
L15.375 -19.875
z

M14.5469 25.6406
Q14.5469 15.625 18.5938 10.8438
Q22.6562 6.0625 28.4219 6.0625
Q34.2812 6.0625 38.4531 11.0156
Q42.625 15.9688 42.625 26.375
Q42.625 36.2812 38.5469 41.2031
Q34.4688 46.1406 28.8125 46.1406
Q23.1875 46.1406 18.8594 40.8906
Q14.5469 35.6406 14.5469 25.6406" id="ArialMT-70"/>
      <path d="
M3.32812 25.9219
Q3.32812 40.3281 11.3281 47.2656
Q18.0156 53.0312 27.6406 53.0312
Q38.3281 53.0312 45.1094 46.0156
Q51.9062 39.0156 51.9062 26.6562
Q51.9062 16.6562 48.9062 10.9062
Q45.9062 5.17188 40.1562 2
Q34.4219 -1.17188 27.6406 -1.17188
Q16.75 -1.17188 10.0312 5.8125
Q3.32812 12.7969 3.32812 25.9219
M12.3594 25.9219
Q12.3594 15.9688 16.7031 11.0156
Q21.0469 6.0625 27.6406 6.0625
Q34.1875 6.0625 38.5312 11.0312
Q42.875 16.0156 42.875 26.2188
Q42.875 35.8438 38.5 40.7969
Q34.125 45.75 27.6406 45.75
Q21.0469 45.75 16.7031 40.8125
Q12.3594 35.8906 12.3594 25.9219" id="ArialMT-6f"/>
      <path d="
M0.734375 0
L19.6719 26.9531
L2.15625 51.8594
L13.1406 51.8594
L21.0938 39.7031
Q23.3438 36.2344 24.7031 33.8906
Q26.8594 37.1094 28.6562 39.5938
L37.4062 51.8594
L47.9062 51.8594
L29.9844 27.4375
L49.2656 0
L38.4844 0
L27.8281 16.1094
L25 20.4531
L11.375 0
z
" id="ArialMT-78"/>
      <path d="
M6.64062 61.4688
L6.64062 71.5781
L15.4375 71.5781
L15.4375 61.4688
z

M6.64062 0
L6.64062 51.8594
L15.4375 51.8594
L15.4375 0
z
" id="ArialMT-69"/>
      <path d="
M3.07812 15.4844
L11.7656 16.8438
Q12.5 11.625 15.8438 8.84375
Q19.1875 6.0625 25.2031 6.0625
Q31.25 6.0625 34.1719 8.51562
Q37.1094 10.9844 37.1094 14.3125
Q37.1094 17.2812 34.5156 19
Q32.7188 20.1719 25.5312 21.9688
Q15.875 24.4219 12.1406 26.2031
Q8.40625 27.9844 6.46875 31.125
Q4.54688 34.2812 4.54688 38.0938
Q4.54688 41.5469 6.125 44.5
Q7.71875 47.4688 10.4531 49.4219
Q12.5 50.9219 16.0312 51.9688
Q19.5781 53.0312 23.6406 53.0312
Q29.7344 53.0312 34.3438 51.2656
Q38.9688 49.5156 41.1562 46.5
Q43.3594 43.5 44.1875 38.4844
L35.5938 37.3125
Q35.0156 41.3125 32.2031 43.5469
Q29.3906 45.7969 24.2656 45.7969
Q18.2188 45.7969 15.625 43.7969
Q13.0312 41.7969 13.0312 39.1094
Q13.0312 37.4062 14.1094 36.0312
Q15.1875 34.625 17.4844 33.6875
Q18.7969 33.2031 25.25 31.4531
Q34.5781 28.9531 38.25 27.3594
Q41.9375 25.7812 44.0312 22.75
Q46.1406 19.7344 46.1406 15.2344
Q46.1406 10.8438 43.5781 6.95312
Q41.0156 3.07812 36.1719 0.953125
Q31.3438 -1.17188 25.25 -1.17188
Q15.1406 -1.17188 9.84375 3.03125
Q4.54688 7.23438 3.07812 15.4844" id="ArialMT-73"/>
      <path d="
M6.59375 0
L6.59375 51.8594
L14.5 51.8594
L14.5 44.4844
Q20.2188 53.0312 31 53.0312
Q35.6875 53.0312 39.625 51.3438
Q43.5625 49.6562 45.5156 46.9219
Q47.4688 44.1875 48.25 40.4375
Q48.7344 37.9844 48.7344 31.8906
L48.7344 0
L39.9375 0
L39.9375 31.5469
Q39.9375 36.9219 38.9062 39.5781
Q37.8906 42.2344 35.2812 43.8125
Q32.6719 45.4062 29.1562 45.4062
Q23.5312 45.4062 19.4531 41.8438
Q15.375 38.2812 15.375 28.3281
L15.375 0
z
" id="ArialMT-6e"/>
      <path d="
M6.5 0
L6.5 51.8594
L14.4062 51.8594
L14.4062 44
Q17.4375 49.5156 20 51.2656
Q22.5625 53.0312 25.6406 53.0312
Q30.0781 53.0312 34.6719 50.2031
L31.6406 42.0469
Q28.4219 43.9531 25.2031 43.9531
Q22.3125 43.9531 20.0156 42.2188
Q17.7188 40.4844 16.75 37.4062
Q15.2812 32.7188 15.2812 27.1562
L15.2812 0
z
" id="ArialMT-72"/>
      <path d="
M42.0938 16.7031
L51.1719 15.5781
Q49.0312 7.625 43.2188 3.21875
Q37.4062 -1.17188 28.375 -1.17188
Q17 -1.17188 10.3281 5.82812
Q3.65625 12.8438 3.65625 25.4844
Q3.65625 38.5781 10.3906 45.7969
Q17.1406 53.0312 27.875 53.0312
Q38.2812 53.0312 44.875 45.9531
Q51.4688 38.875 51.4688 26.0312
Q51.4688 25.25 51.4219 23.6875
L12.75 23.6875
Q13.2344 15.1406 17.5781 10.5938
Q21.9219 6.0625 28.4219 6.0625
Q33.25 6.0625 36.6719 8.59375
Q40.0938 11.1406 42.0938 16.7031
M13.2344 30.9062
L42.1875 30.9062
Q41.6094 37.4531 38.875 40.7188
Q34.6719 45.7969 27.9844 45.7969
Q21.9219 45.7969 17.7969 41.75
Q13.6719 37.7031 13.2344 30.9062" id="ArialMT-65"/>
     </defs>
     <g style="fill:#262626;" transform="translate(15.07359375 124.23671875)rotate(-90.0)scale(0.11 -0.11)">
      <use xlink:href="#ArialMT-45"/>
      <use x="66.69921875" xlink:href="#ArialMT-78"/>
      <use x="116.69921875" xlink:href="#ArialMT-70"/>
      <use x="172.314453125" xlink:href="#ArialMT-72"/>
      <use x="205.615234375" xlink:href="#ArialMT-65"/>
      <use x="261.23046875" xlink:href="#ArialMT-73"/>
      <use x="311.23046875" xlink:href="#ArialMT-73"/>
      <use x="361.23046875" xlink:href="#ArialMT-69"/>
      <use x="383.447265625" xlink:href="#ArialMT-6f"/>
      <use x="439.0625" xlink:href="#ArialMT-6e"/>
     </g>
    </g>
   </g>
   <g id="line2d_10">
    <path clip-path="url(#pa691a7dfe0)" d="
M45.5786 74.7056
L54.7206 74.2084
L63.8625 64.5149
L73.0045 55.7828
L82.1465 54.632
L91.2884 54.453
L100.43 56.808
L109.572 60.5509
L118.714 62.5593
L127.856 66.3175
L136.998 76.3487
L146.14 92.7986
L155.282 124.132
L164.424 143.829
L173.566 145.939
L182.708 135.337
L191.85 124.823
L200.992 120.087
L210.134 124.152
L219.276 129.206
L228.418 130.948
L237.56 124.322
L246.702 125.962
L255.844 121.784" style="fill:none;stroke:#d9544d;stroke-linecap:round;"/>
   </g>
   <g id="line2d_11">
    <path clip-path="url(#pa691a7dfe0)" d="
M45.5786 77.0855
L54.7206 72.2031
L63.8625 64.1886
L73.0045 57.9888
L82.1465 61.1265
L91.2884 62.0609
L100.43 59.5193
L109.572 55.4035
L118.714 55.3483
L127.856 56.033
L136.998 72.7113
L146.14 99.4321
L155.282 127.557
L164.424 136.413
L173.566 137.463
L182.708 139.27
L191.85 134.212
L200.992 127.154
L210.134 125.421
L219.276 124.68
L228.418 124.762
L237.56 125.68
L246.702 124.776
L255.844 123.712" style="fill:none;stroke:#d9544d;stroke-linecap:round;"/>
   </g>
   <g id="line2d_12">
    <path clip-path="url(#pa691a7dfe0)" d="
M45.5786 94.3329
L54.7206 85.7288
L63.8625 63.3374
L73.0045 56.1966
L82.1465 58.9636
L91.2884 50.4869
L100.43 57.9463
L109.572 69.4214
L118.714 70.4911
L127.856 66.8464
L136.998 72.1169
L146.14 99.7981
L155.282 137.953
L164.424 162.274
L173.566 161.303
L182.708 139.849
L191.85 125.188
L200.992 101.423
L210.134 88.8618
L219.276 102.257
L228.418 118.017
L237.56 111.003
L246.702 123.401
L255.844 127.002" style="fill:none;stroke:#d9544d;stroke-linecap:round;"/>
   </g>
   <g id="line2d_13">
    <path clip-path="url(#pa691a7dfe0)" d="
M45.5786 94.4508
L54.7206 93.4161
L63.8625 69.2007
L73.0045 55.5348
L82.1465 52.0167
L91.2884 55.418
L100.43 62.3207
L109.572 65.7447
L118.714 62.4731
L127.856 55.4414
L136.998 65.2285
L146.14 95.1142
L155.282 136.289
L164.424 158.642
L173.566 154.983
L182.708 139.008
L191.85 121.603
L200.992 106.02
L210.134 109.139
L219.276 118.28
L228.418 119.745
L237.56 109.383
L246.702 118.641
L255.844 126.107" style="fill:none;stroke:#d9544d;stroke-linecap:round;"/>
   </g>
   <g id="line2d_14">
    <path clip-path="url(#pa691a7dfe0)" d="
M45.5786 76.8765
L54.7206 80.2953
L63.8625 77.8245
L73.0045 77.3348
L82.1465 72.4905
L91.2884 66.3154
L100.43 53.5858
L109.572 48.6438
L118.714 45.0391
L127.856 47.3303
L136.998 65.0699
L146.14 92.803
L155.282 121.42
L164.424 136.536
L173.566 146.51
L182.708 139.363
L191.85 133.336
L200.992 128.789
L210.134 125.356
L219.276 118.447
L228.418 118.28
L237.56 120.337
L246.702 123.044
L255.844 129.173" style="fill:none;stroke:#d9544d;stroke-linecap:round;"/>
   </g>
   <g id="line2d_15">
    <path clip-path="url(#pa691a7dfe0)" d="
M45.5786 72.9339
L54.7206 75.8085
L63.8625 69.0818
L73.0045 64.7823
L82.1465 60.8109
L91.2884 59.9313
L100.43 60.4542
L109.572 58.6457
L118.714 56.93
L127.856 55.9205
L136.998 69.8399
L146.14 95.0187
L155.282 120.645
L164.424 136.594
L173.566 145.35
L182.708 150.634
L191.85 138.566
L200.992 121.005
L210.134 127.236
L219.276 129.13
L228.418 125.165
L237.56 107.717
L246.702 114.055
L255.844 127.946" style="fill:none;stroke:#d9544d;stroke-linecap:round;"/>
   </g>
   <g id="line2d_16">
    <path clip-path="url(#pa691a7dfe0)" d="
M45.5786 72.6064
L54.7206 72.3715
L63.8625 67.3378
L73.0045 62.8957
L82.1465 58.6345
L91.2884 53.9247
L100.43 56.0213
L109.572 56.9705
L118.714 59.0191
L127.856 67.1178
L136.998 75.8984
L146.14 88.7697
L155.282 112.689
L164.424 134.869
L173.566 141.93
L182.708 141.574
L191.85 135.965
L200.992 127.957
L210.134 125.262
L219.276 131.956
L228.418 131.76
L237.56 120.409
L246.702 122.471
L255.844 125.79" style="fill:none;stroke:#d9544d;stroke-linecap:round;"/>
   </g>
   <g id="line2d_17">
    <path clip-path="url(#pa691a7dfe0)" d="
M45.5786 84.1794
L54.7206 80.8021
L63.8625 71.2947
L73.0045 59.5886
L82.1465 68.4699
L91.2884 69.1152
L100.43 65.5384
L109.572 60.1693
L118.714 63.2034
L127.856 58.6781
L136.998 57.4226
L146.14 77.9814
L155.282 125.059
L164.424 154.626
L173.566 159.693
L182.708 152.505
L191.85 139.991
L200.992 125.808
L210.134 113.086
L219.276 108.672
L228.418 113.095
L237.56 112.702
L246.702 116.281
L255.844 106.239" style="fill:none;stroke:#d9544d;stroke-linecap:round;"/>
   </g>
   <g id="line2d_18">
    <path clip-path="url(#pa691a7dfe0)" d="
M45.5786 85.0528
L54.7206 82.7639
L63.8625 74.4479
L73.0045 71.0702
L82.1465 63.5657
L91.2884 51.2889
L100.43 48.8627
L109.572 52.5683
L118.714 52.7445
L127.856 64.3689
L136.998 72.8799
L146.14 84.6608
L155.282 119.143
L164.424 145.587
L173.566 142.432
L182.708 144.001
L191.85 143.532
L200.992 127.63
L210.134 125.223
L219.276 119.885
L228.418 119.461
L237.56 116.997
L246.702 117.377
L255.844 118.656" style="fill:none;stroke:#d9544d;stroke-linecap:round;"/>
   </g>
   <g id="line2d_19">
    <path clip-path="url(#pa691a7dfe0)" d="
M45.5786 78.8395
L54.7206 75.3042
L63.8625 64.3149
L73.0045 60.5595
L82.1465 51.6119
L91.2884 49.0525
L100.43 54.0239
L109.572 62.0004
L118.714 59.2564
L127.856 64.4844
L136.998 81.8489
L146.14 97.7635
L155.282 115.904
L164.424 134.626
L173.566 141.945
L182.708 140.6
L191.85 135.904
L200.992 126.331
L210.134 126.181
L219.276 126.069
L228.418 125.017
L237.56 126.276
L246.702 124.847
L255.844 121.439" style="fill:none;stroke:#d9544d;stroke-linecap:round;"/>
   </g>
   <g id="line2d_20">
    <path clip-path="url(#pa691a7dfe0)" d="
M45.5786 68.0653
L54.7206 67.052
L63.8625 66.2394
L73.0045 67.4095
L82.1465 64.5327
L91.2884 62.688
L100.43 58.5071
L109.572 57.8614
L118.714 58.6662
L127.856 63.6908
L136.998 67.5468
L146.14 79.2631
L155.282 117.155
L164.424 135.062
L173.566 135.857
L182.708 136.225
L191.85 132.54
L200.992 129.559
L210.134 133.07
L219.276 130.378
L228.418 130.099
L237.56 130.147
L246.702 127.856
L255.844 124.73" style="fill:none;stroke:#d9544d;stroke-linecap:round;"/>
   </g>
   <g id="line2d_21">
    <path clip-path="url(#pa691a7dfe0)" d="
M45.5786 86.8006
L54.7206 81.2721
L63.8625 80.6469
L73.0045 82.8435
L82.1465 75.0537
L91.2884 70.4904
L100.43 62.8248
L109.572 57.6957
L118.714 49.2511
L127.856 45.4509
L136.998 53.8499
L146.14 79.7786
L155.282 109.031
L164.424 132.479
L173.566 142.744
L182.708 147.038
L191.85 150.745
L200.992 140.934
L210.134 133.522
L219.276 130.84
L228.418 122.957
L237.56 114.321
L246.702 101.025
L255.844 92.6065" style="fill:none;stroke:#d9544d;stroke-linecap:round;"/>
   </g>
   <g id="line2d_22">
    <path clip-path="url(#pa691a7dfe0)" d="
M45.5786 66.8288
L54.7206 64.2545
L63.8625 69.439
L73.0045 67.4044
L82.1465 67.4417
L91.2884 74.4757
L100.43 66.2717
L109.572 53.5715
L118.714 48.4732
L127.856 57.847
L136.998 74.959
L146.14 89.4756
L155.282 119.776
L164.424 143.543
L173.566 147.393
L182.708 145.029
L191.85 140.923
L200.992 128.027
L210.134 128.247
L219.276 128.92
L228.418 122.569
L237.56 112.966
L246.702 111.123
L255.844 115.241" style="fill:none;stroke:#d9544d;stroke-linecap:round;"/>
   </g>
   <g id="line2d_23">
    <path clip-path="url(#pa691a7dfe0)" d="
M45.5786 83.4558
L54.7206 80.1046
L63.8625 76.2566
L73.0045 62.2555
L82.1465 55.5395
L91.2884 56.3244
L100.43 55.1668
L109.572 55.3113
L118.714 51.3446
L127.856 56.3297
L136.998 80.8007
L146.14 104.388
L155.282 135.78
L164.424 147.996
L173.566 145.367
L182.708 143.284
L191.85 131.826
L200.992 120.467
L210.134 124.952
L219.276 126.167
L228.418 119.156
L237.56 105.158
L246.702 110.252
L255.844 116.518" style="fill:none;stroke:#d9544d;stroke-linecap:round;"/>
   </g>
   <g id="line2d_24">
    <path clip-path="url(#pa691a7dfe0)" d="
M45.5786 76.1093
L54.7206 82.4844
L63.8625 84.2888
L73.0045 79.6244
L82.1465 69.4634
L91.2884 51.8283
L100.43 45.1647
L109.572 41.8725
L118.714 46.1957
L127.856 63.7717
L136.998 79.0898
L146.14 94.5275
L155.282 128.955
L164.424 144.785
L173.566 142.829
L182.708 140.642
L191.85 137.109
L200.992 121.555
L210.134 120.85
L219.276 121.356
L228.418 116.351
L237.56 113.78
L246.702 120.054
L255.844 121.513" style="fill:none;stroke:#d9544d;stroke-linecap:round;"/>
   </g>
   <g id="line2d_25">
    <path clip-path="url(#pa691a7dfe0)" d="
M45.5786 76.878
L54.7206 69.9676
L63.8625 63.8314
L73.0045 60.4358
L82.1465 62.4157
L91.2884 59.7023
L100.43 58.1746
L109.572 53.926
L118.714 53.7859
L127.856 58.2078
L136.998 76.3991
L146.14 99.7294
L155.282 121.423
L164.424 131.55
L173.566 139.589
L182.708 137.942
L191.85 133.438
L200.992 125.829
L210.134 124.235
L219.276 129.41
L228.418 126.921
L237.56 126.095
L246.702 127.463
L255.844 126.853" style="fill:none;stroke:#d9544d;stroke-linecap:round;"/>
   </g>
   <g id="line2d_26">
    <path clip-path="url(#pa691a7dfe0)" d="
M45.5786 67.0443
L54.7206 71.5592
L63.8625 69.8903
L73.0045 69.2877
L82.1465 68.3105
L91.2884 66.009
L100.43 61.3824
L109.572 58.2323
L118.714 58.5985
L127.856 58.9676
L136.998 62.1414
L146.14 78.7033
L155.282 113.319
L164.424 141.378
L173.566 146.73
L182.708 145.978
L191.85 137.852
L200.992 126.692
L210.134 125.826
L219.276 127.775
L228.418 127.659
L237.56 115.906
L246.702 119.887
L255.844 125.071" style="fill:none;stroke:#d9544d;stroke-linecap:round;"/>
   </g>
   <g id="line2d_27">
    <path clip-path="url(#pa691a7dfe0)" d="
M45.5786 81.4509
L54.7206 76.4245
L63.8625 66.646
L73.0045 67.2687
L82.1465 64.4186
L91.2884 58.337
L100.43 58.6819
L109.572 60.1197
L118.714 55.6163
L127.856 56.2371
L136.998 65.0524
L146.14 82.6951
L155.282 103.576
L164.424 124.849
L173.566 138.978
L182.708 140.797
L191.85 141.903
L200.992 134.362
L210.134 129.735
L219.276 130.861
L228.418 130.141
L237.56 128.624
L246.702 125.859
L255.844 121.568" style="fill:none;stroke:#d9544d;stroke-linecap:round;"/>
   </g>
   <g id="line2d_28">
    <path clip-path="url(#pa691a7dfe0)" d="
M45.5786 82.8164
L54.7206 76.5608
L63.8625 72.6643
L73.0045 71.4543
L82.1465 65.8794
L91.2884 59.902
L100.43 57.0944
L109.572 52.9041
L118.714 52.697
L127.856 57.6459
L136.998 63.6911
L146.14 84.8653
L155.282 115.511
L164.424 139.634
L173.566 147.037
L182.708 141.72
L191.85 145.202
L200.992 130.359
L210.134 122.013
L219.276 120.942
L228.418 121.223
L237.56 117.455
L246.702 121.003
L255.844 123.928" style="fill:none;stroke:#d9544d;stroke-linecap:round;"/>
   </g>
   <g id="patch_3">
    <path d="
M45.5786 174.898
L45.5786 20.7894" style="fill:none;stroke:#262626;stroke-linecap:square;stroke-linejoin:miter;stroke-width:1.25;"/>
   </g>
   <g id="patch_4">
    <path d="
M45.5786 174.898
L255.844 174.898" style="fill:none;stroke:#262626;stroke-linecap:square;stroke-linejoin:miter;stroke-width:1.25;"/>
   </g>
   <g id="text_11">
    <!-- Botrytis -->
    <defs>
     <path d="
M7.32812 0
L7.32812 71.5781
L34.1875 71.5781
Q42.3906 71.5781 47.3438 69.4062
Q52.2969 67.2344 55.0938 62.7188
Q57.9062 58.2031 57.9062 53.2656
Q57.9062 48.6875 55.4219 44.625
Q52.9375 40.5781 47.9062 38.0938
Q54.3906 36.1875 57.875 31.5938
Q61.375 27 61.375 20.75
Q61.375 15.7188 59.25 11.3906
Q57.125 7.07812 54 4.73438
Q50.875 2.39062 46.1562 1.1875
Q41.4531 0 34.625 0
z

M16.7969 41.5
L32.2812 41.5
Q38.5781 41.5 41.3125 42.3281
Q44.9219 43.4062 46.75 45.8906
Q48.5781 48.3906 48.5781 52.1562
Q48.5781 55.7188 46.875 58.4219
Q45.1719 61.1406 41.9844 62.1406
Q38.8125 63.1406 31.1094 63.1406
L16.7969 63.1406
z

M16.7969 8.45312
L34.625 8.45312
Q39.2031 8.45312 41.0625 8.79688
Q44.3438 9.375 46.5312 10.7344
Q48.7344 12.1094 50.1406 14.7188
Q51.5625 17.3281 51.5625 20.75
Q51.5625 24.75 49.5156 27.7031
Q47.4688 30.6719 43.8281 31.8594
Q40.1875 33.0625 33.3438 33.0625
L16.7969 33.0625
z
" id="ArialMT-42"/>
     <path d="
M6.20312 -19.9688
L5.21875 -11.7188
Q8.10938 -12.5 10.25 -12.5
Q13.1875 -12.5 14.9375 -11.5156
Q16.7031 -10.5469 17.8281 -8.79688
Q18.6562 -7.46875 20.5156 -2.25
Q20.75 -1.51562 21.2969 -0.09375
L1.60938 51.8594
L11.0781 51.8594
L21.875 21.8281
Q23.9688 16.1094 25.6406 9.8125
Q27.1562 15.875 29.25 21.625
L40.3281 51.8594
L49.125 51.8594
L29.3906 -0.875
Q26.2188 -9.42188 24.4688 -12.6406
Q22.125 -17 19.0938 -19.0156
Q16.0625 -21.0469 11.8594 -21.0469
Q9.32812 -21.0469 6.20312 -19.9688" id="ArialMT-79"/>
     <path d="
M25.7812 7.85938
L27.0469 0.09375
Q23.3438 -0.6875 20.4062 -0.6875
Q15.625 -0.6875 12.9844 0.828125
Q10.3594 2.34375 9.28125 4.8125
Q8.20312 7.28125 8.20312 15.1875
L8.20312 45.0156
L1.76562 45.0156
L1.76562 51.8594
L8.20312 51.8594
L8.20312 64.7031
L16.9375 69.9688
L16.9375 51.8594
L25.7812 51.8594
L25.7812 45.0156
L16.9375 45.0156
L16.9375 14.7031
Q16.9375 10.9375 17.4062 9.85938
Q17.875 8.79688 18.9219 8.15625
Q19.9688 7.51562 21.9219 7.51562
Q23.3906 7.51562 25.7812 7.85938" id="ArialMT-74"/>
    </defs>
    <g style="fill:#262626;" transform="translate(131.3790625 15.789375)scale(0.12 -0.12)">
     <use xlink:href="#ArialMT-42"/>
     <use x="66.69921875" xlink:href="#ArialMT-6f"/>
     <use x="122.314453125" xlink:href="#ArialMT-74"/>
     <use x="150.09765625" xlink:href="#ArialMT-72"/>
     <use x="183.3984375" xlink:href="#ArialMT-79"/>
     <use x="233.3984375" xlink:href="#ArialMT-74"/>
     <use x="261.181640625" xlink:href="#ArialMT-69"/>
     <use x="283.3984375" xlink:href="#ArialMT-73"/>
    </g>
   </g>
  </g>
  <g id="axes_2">
   <g id="patch_5">
    <path d="
M268.804 174.898
L479.069 174.898
L479.069 20.7894
L268.804 20.7894
z
" style="fill:#ffffff;"/>
   </g>
   <g id="matplotlib.axis_3">
    <g id="xtick_5">
     <g id="line2d_29">
      <g>
       <use style="fill:#262626;stroke:#262626;" x="279.317171875" xlink:href="#me1deecec79" y="174.8978125"/>
      </g>
     </g>
     <g id="text_12">
      <!-- 20 -->
      <g style="fill:#262626;" transform="translate(274.142171875 195.055625)scale(0.1 -0.1)">
       <use xlink:href="#ArialMT-32"/>
       <use x="55.615234375" xlink:href="#ArialMT-30"/>
      </g>
     </g>
    </g>
    <g id="xtick_6">
     <g id="line2d_30">
      <g>
       <use style="fill:#262626;stroke:#262626;" x="331.8835" xlink:href="#me1deecec79" y="174.8978125"/>
      </g>
     </g>
     <g id="text_13">
      <!-- 25 -->
      <defs>
       <path d="
M4.15625 18.75
L13.375 19.5312
Q14.4062 12.7969 18.1406 9.39062
Q21.875 6 27.1562 6
Q33.5 6 37.8906 10.7812
Q42.2812 15.5781 42.2812 23.4844
Q42.2812 31 38.0625 35.3438
Q33.8438 39.7031 27 39.7031
Q22.75 39.7031 19.3281 37.7656
Q15.9219 35.8438 13.9688 32.7656
L5.71875 33.8438
L12.6406 70.6094
L48.25 70.6094
L48.25 62.2031
L19.6719 62.2031
L15.8281 42.9688
Q22.2656 47.4688 29.3438 47.4688
Q38.7188 47.4688 45.1562 40.9688
Q51.6094 34.4688 51.6094 24.2656
Q51.6094 14.5469 45.9531 7.46875
Q39.0625 -1.21875 27.1562 -1.21875
Q17.3906 -1.21875 11.2031 4.25
Q5.03125 9.71875 4.15625 18.75" id="ArialMT-35"/>
      </defs>
      <g style="fill:#262626;" transform="translate(326.6694375 195.055625)scale(0.1 -0.1)">
       <use xlink:href="#ArialMT-32"/>
       <use x="55.615234375" xlink:href="#ArialMT-35"/>
      </g>
     </g>
    </g>
    <g id="xtick_7">
     <g id="line2d_31">
      <g>
       <use style="fill:#262626;stroke:#262626;" x="384.449828125" xlink:href="#me1deecec79" y="174.8978125"/>
      </g>
     </g>
     <g id="text_14">
      <!-- 30 -->
      <g style="fill:#262626;" transform="translate(379.338109375 195.055625)scale(0.1 -0.1)">
       <use xlink:href="#ArialMT-33"/>
       <use x="55.615234375" xlink:href="#ArialMT-30"/>
      </g>
     </g>
    </g>
    <g id="xtick_8">
     <g id="line2d_32">
      <g>
       <use style="fill:#262626;stroke:#262626;" x="437.01615625" xlink:href="#me1deecec79" y="174.8978125"/>
      </g>
     </g>
     <g id="text_15">
      <!-- 35 -->
      <g style="fill:#262626;" transform="translate(431.865375 195.055625)scale(0.1 -0.1)">
       <use xlink:href="#ArialMT-33"/>
       <use x="55.615234375" xlink:href="#ArialMT-35"/>
      </g>
     </g>
    </g>
   </g>
   <g id="matplotlib.axis_4">
    <g id="ytick_6">
     <g id="line2d_33">
      <g>
       <use style="fill:#262626;stroke:#262626;" x="268.80390625" xlink:href="#m4aded61697" y="165.058465189"/>
      </g>
     </g>
    </g>
    <g id="ytick_7">
     <g id="line2d_34">
      <g>
       <use style="fill:#262626;stroke:#262626;" x="268.80390625" xlink:href="#m4aded61697" y="131.366736624"/>
      </g>
     </g>
    </g>
    <g id="ytick_8">
     <g id="line2d_35">
      <g>
       <use style="fill:#262626;stroke:#262626;" x="268.80390625" xlink:href="#m4aded61697" y="97.6750080584"/>
      </g>
     </g>
    </g>
    <g id="ytick_9">
     <g id="line2d_36">
      <g>
       <use style="fill:#262626;stroke:#262626;" x="268.80390625" xlink:href="#m4aded61697" y="63.983279493"/>
      </g>
     </g>
    </g>
    <g id="ytick_10">
     <g id="line2d_37">
      <g>
       <use style="fill:#262626;stroke:#262626;" x="268.80390625" xlink:href="#m4aded61697" y="30.2915509275"/>
      </g>
     </g>
    </g>
   </g>
   <g id="line2d_38">
    <path clip-path="url(#pa61dcb5892)" d="
M268.804 76.0812
L289.83 70.3231
L310.857 65.579
L331.884 65.8687
L352.91 70.4195
L373.937 79.9323
L394.963 97.5381
L415.99 116.488
L437.016 132.2
L458.043 147.151
L479.069 152.844" style="fill:none;stroke:#03012d;stroke-linecap:round;"/>
   </g>
   <g id="line2d_39">
    <path clip-path="url(#pa61dcb5892)" d="
M268.804 108.953
L289.83 103.011
L310.857 89.6247
L331.884 78.0675
L352.91 62.6059
L373.937 58.363
L394.963 64.4315
L415.99 83.9369
L437.016 118.641
L458.043 149.645
L479.069 157.146" style="fill:none;stroke:#03012d;stroke-linecap:round;"/>
   </g>
   <g id="line2d_40">
    <path clip-path="url(#pa61dcb5892)" d="
M268.804 140.716
L289.83 113.904
L310.857 104.24
L331.884 76.4874
L352.91 64.5217
L373.937 56.5039
L394.963 57.6488
L415.99 72.6364
L437.016 107.436
L458.043 137.516
L479.069 142.815" style="fill:none;stroke:#03012d;stroke-linecap:round;"/>
   </g>
   <g id="line2d_41">
    <path clip-path="url(#pa61dcb5892)" d="
M268.804 72.3022
L289.83 68.7807
L310.857 72.4305
L331.884 72.2662
L352.91 68.9447
L373.937 73.2825
L394.963 95.2794
L415.99 118.214
L437.016 132.863
L458.043 146.768
L479.069 153.293" style="fill:none;stroke:#03012d;stroke-linecap:round;"/>
   </g>
   <g id="line2d_42">
    <path clip-path="url(#pa61dcb5892)" d="
M268.804 67.6018
L289.83 62.4042
L310.857 65.0955
L331.884 74.9995
L352.91 75.9233
L373.937 82.9326
L394.963 97.7374
L415.99 116.298
L437.016 132.155
L458.043 149.063
L479.069 150.214" style="fill:none;stroke:#03012d;stroke-linecap:round;"/>
   </g>
   <g id="line2d_43">
    <path clip-path="url(#pa61dcb5892)" d="
M268.804 140.658
L289.83 106.201
L310.857 78.5698
L331.884 67.1886
L352.91 50.4855
L373.937 54.6896
L394.963 95.3901
L415.99 89.9197
L437.016 107.879
L458.043 139.239
L479.069 144.204" style="fill:none;stroke:#03012d;stroke-linecap:round;"/>
   </g>
   <g id="line2d_44">
    <path clip-path="url(#pa61dcb5892)" d="
M268.804 65.2516
L289.83 63.9931
L310.857 68.1694
L331.884 75.8972
L352.91 77.3897
L373.937 80.6349
L394.963 94.86
L415.99 114.629
L437.016 132.046
L458.043 149.666
L479.069 151.888" style="fill:none;stroke:#03012d;stroke-linecap:round;"/>
   </g>
   <g id="line2d_45">
    <path clip-path="url(#pa61dcb5892)" d="
M268.804 169.19
L289.83 144.452
L310.857 111.412
L331.884 68.8962
L352.91 64.8696
L373.937 71.6998
L394.963 71.7819
L415.99 76.1343
L437.016 97.525
L458.043 107.649
L479.069 90.8155" style="fill:none;stroke:#03012d;stroke-linecap:round;"/>
   </g>
   <g id="line2d_46">
    <path clip-path="url(#pa61dcb5892)" d="
M268.804 97.4209
L289.83 88.1321
L310.857 80.0396
L331.884 79.3827
L352.91 69.0968
L373.937 64.9011
L394.963 77.472
L415.99 81.1282
L437.016 118.075
L458.043 157.317
L479.069 161.46" style="fill:none;stroke:#03012d;stroke-linecap:round;"/>
   </g>
   <g id="line2d_47">
    <path clip-path="url(#pa61dcb5892)" d="
M268.804 54.6238
L289.83 55.326
L310.857 70.2837
L331.884 77.8474
L352.91 79.2527
L373.937 89.981
L394.963 107.39
L415.99 120.133
L437.016 130.525
L458.043 137.691
L479.069 151.372" style="fill:none;stroke:#03012d;stroke-linecap:round;"/>
   </g>
   <g id="line2d_48">
    <path clip-path="url(#pa61dcb5892)" d="
M268.804 68.3909
L289.83 64.5755
L310.857 63.3002
L331.884 70.2005
L352.91 75.6434
L373.937 85.1629
L394.963 101.228
L415.99 116.487
L437.016 130.422
L458.043 147.548
L479.069 151.467" style="fill:none;stroke:#03012d;stroke-linecap:round;"/>
   </g>
   <g id="line2d_49">
    <path clip-path="url(#pa61dcb5892)" d="
M268.804 167.123
L289.83 132.925
L310.857 102.36
L331.884 81.6157
L352.91 64.8573
L373.937 61.4891
L394.963 63.7135
L415.99 71.9109
L437.016 94.0785
L458.043 113.381
L479.069 120.971" style="fill:none;stroke:#03012d;stroke-linecap:round;"/>
   </g>
   <g id="line2d_50">
    <path clip-path="url(#pa61dcb5892)" d="
M268.804 77.541
L289.83 69.2109
L310.857 60.9189
L331.884 69.912
L352.91 73.9341
L373.937 80.6723
L394.963 93.409
L415.99 114.391
L437.016 133.498
L458.043 148.749
L479.069 152.188" style="fill:none;stroke:#03012d;stroke-linecap:round;"/>
   </g>
   <g id="line2d_51">
    <path clip-path="url(#pa61dcb5892)" d="
M268.804 79.2218
L289.83 65.3903
L310.857 79.9231
L331.884 64.5326
L352.91 59.8393
L373.937 75.3541
L394.963 106.886
L415.99 118.758
L437.016 127.644
L458.043 143.747
L479.069 153.128" style="fill:none;stroke:#03012d;stroke-linecap:round;"/>
   </g>
   <g id="line2d_52">
    <path clip-path="url(#pa61dcb5892)" d="
M268.804 70.5325
L289.83 66.3321
L310.857 72.3826
L331.884 77.7114
L352.91 75.192
L373.937 79.7827
L394.963 87.5569
L415.99 103.292
L437.016 134.294
L458.043 156.964
L479.069 150.384" style="fill:none;stroke:#03012d;stroke-linecap:round;"/>
   </g>
   <g id="line2d_53">
    <path clip-path="url(#pa61dcb5892)" d="
M268.804 74.2654
L289.83 73.4329
L310.857 77.415
L331.884 77.1995
L352.91 72.5986
L373.937 68.9007
L394.963 78.6115
L415.99 112.206
L437.016 135.924
L458.043 153.191
L479.069 150.68" style="fill:none;stroke:#03012d;stroke-linecap:round;"/>
   </g>
   <g id="line2d_54">
    <path clip-path="url(#pa61dcb5892)" d="
M268.804 85.8095
L289.83 79.0224
L310.857 67.0181
L331.884 70.0785
L352.91 70.2696
L373.937 74.6845
L394.963 86.6984
L415.99 103.562
L437.016 125.146
L458.043 147.344
L479.069 164.793" style="fill:none;stroke:#03012d;stroke-linecap:round;"/>
   </g>
   <g id="line2d_55">
    <path clip-path="url(#pa61dcb5892)" d="
M268.804 58.2686
L289.83 57.5494
L310.857 69.2056
L331.884 78.3351
L352.91 79.6873
L373.937 86.6206
L394.963 99.737
L415.99 117.667
L437.016 132.817
L458.043 147.495
L479.069 147.043" style="fill:none;stroke:#03012d;stroke-linecap:round;"/>
   </g>
   <g id="line2d_56">
    <path clip-path="url(#pa61dcb5892)" d="
M268.804 100.641
L289.83 86.5471
L310.857 72.2829
L331.884 70.3514
L352.91 64.429
L373.937 65.1612
L394.963 78.976
L415.99 98.8898
L437.016 129.591
L458.043 153.638
L479.069 153.918" style="fill:none;stroke:#03012d;stroke-linecap:round;"/>
   </g>
   <g id="patch_6">
    <path d="
M268.804 174.898
L268.804 20.7894" style="fill:none;stroke:#262626;stroke-linecap:square;stroke-linejoin:miter;stroke-width:1.25;"/>
   </g>
   <g id="patch_7">
    <path d="
M268.804 174.898
L479.069 174.898" style="fill:none;stroke:#262626;stroke-linecap:square;stroke-linejoin:miter;stroke-width:1.25;"/>
   </g>
   <g id="text_16">
    <!-- Senescence -->
    <defs>
     <path d="
M4.5 23
L13.4219 23.7812
Q14.0625 18.4062 16.375 14.9688
Q18.7031 11.5312 23.5781 9.40625
Q28.4688 7.28125 34.5781 7.28125
Q39.9844 7.28125 44.1406 8.89062
Q48.2969 10.5 50.3125 13.2969
Q52.3438 16.1094 52.3438 19.4375
Q52.3438 22.7969 50.3906 25.3125
Q48.4375 27.8281 43.9531 29.5469
Q41.0625 30.6719 31.2031 33.0312
Q21.3438 35.4062 17.3906 37.5
Q12.25 40.1875 9.73438 44.1562
Q7.23438 48.1406 7.23438 53.0781
Q7.23438 58.5 10.2969 63.2031
Q13.375 67.9219 19.2812 70.3594
Q25.2031 72.7969 32.4219 72.7969
Q40.375 72.7969 46.4531 70.2344
Q52.5469 67.6719 55.8125 62.6875
Q59.0781 57.7188 59.3281 51.4219
L50.25 50.7344
Q49.5156 57.5156 45.2812 60.9844
Q41.0625 64.4531 32.8125 64.4531
Q24.2188 64.4531 20.2812 61.2969
Q16.3594 58.1562 16.3594 53.7188
Q16.3594 49.8594 19.1406 47.3594
Q21.875 44.875 33.4219 42.2656
Q44.9688 39.6562 49.2656 37.7031
Q55.5156 34.8125 58.4844 30.3906
Q61.4688 25.9844 61.4688 20.2188
Q61.4688 14.5 58.2031 9.4375
Q54.9375 4.39062 48.7969 1.57812
Q42.6719 -1.21875 35.0156 -1.21875
Q25.2969 -1.21875 18.7188 1.60938
Q12.1562 4.4375 8.42188 10.125
Q4.6875 15.8281 4.5 23" id="ArialMT-53"/>
     <path d="
M40.4375 19
L49.0781 17.875
Q47.6562 8.9375 41.8125 3.875
Q35.9844 -1.17188 27.4844 -1.17188
Q16.8438 -1.17188 10.375 5.78125
Q3.90625 12.75 3.90625 25.7344
Q3.90625 34.125 6.6875 40.4219
Q9.46875 46.7344 15.1562 49.875
Q20.8438 53.0312 27.5469 53.0312
Q35.9844 53.0312 41.3594 48.75
Q46.7344 44.4844 48.25 36.625
L39.7031 35.2969
Q38.4844 40.5312 35.375 43.1562
Q32.2812 45.7969 27.875 45.7969
Q21.2344 45.7969 17.0781 41.0312
Q12.9375 36.2812 12.9375 25.9844
Q12.9375 15.5312 16.9375 10.7969
Q20.9531 6.0625 27.3906 6.0625
Q32.5625 6.0625 36.0312 9.23438
Q39.5 12.4062 40.4375 19" id="ArialMT-63"/>
    </defs>
    <g style="fill:#262626;" transform="translate(341.4334375 15.789375)scale(0.12 -0.12)">
     <use xlink:href="#ArialMT-53"/>
     <use x="66.69921875" xlink:href="#ArialMT-65"/>
     <use x="122.314453125" xlink:href="#ArialMT-6e"/>
     <use x="177.9296875" xlink:href="#ArialMT-65"/>
     <use x="233.544921875" xlink:href="#ArialMT-73"/>
     <use x="283.544921875" xlink:href="#ArialMT-63"/>
     <use x="333.544921875" xlink:href="#ArialMT-65"/>
     <use x="389.16015625" xlink:href="#ArialMT-6e"/>
     <use x="444.775390625" xlink:href="#ArialMT-63"/>
     <use x="494.775390625" xlink:href="#ArialMT-65"/>
    </g>
   </g>
  </g>
  <g id="axes_3">
   <g id="patch_8">
    <path d="
M492.029 174.898
L702.295 174.898
L702.295 20.7894
L492.029 20.7894
z
" style="fill:#ffffff;"/>
   </g>
   <g id="matplotlib.axis_5">
    <g id="xtick_9">
     <g id="line2d_57">
      <g>
       <use style="fill:#262626;stroke:#262626;" x="532.292789229" xlink:href="#me1deecec79" y="174.8978125"/>
      </g>
     </g>
     <g id="text_17">
      <!-- 5 -->
      <g style="fill:#262626;" transform="translate(529.920132979 195.055625)scale(0.1 -0.1)">
       <use xlink:href="#ArialMT-35"/>
      </g>
     </g>
    </g>
    <g id="xtick_10">
     <g id="line2d_58">
      <g>
       <use style="fill:#262626;stroke:#262626;" x="577.030089761" xlink:href="#me1deecec79" y="174.8978125"/>
      </g>
     </g>
     <g id="text_18">
      <!-- 10 -->
      <g style="fill:#262626;" transform="translate(572.252746011 195.055625)scale(0.1 -0.1)">
       <use xlink:href="#ArialMT-31"/>
       <use x="55.615234375" xlink:href="#ArialMT-30"/>
      </g>
     </g>
    </g>
    <g id="xtick_11">
     <g id="line2d_59">
      <g>
       <use style="fill:#262626;stroke:#262626;" x="621.767390293" xlink:href="#me1deecec79" y="174.8978125"/>
      </g>
     </g>
     <g id="text_19">
      <!-- 15 -->
      <g style="fill:#262626;" transform="translate(616.950984043 195.055625)scale(0.1 -0.1)">
       <use xlink:href="#ArialMT-31"/>
       <use x="55.615234375" xlink:href="#ArialMT-35"/>
      </g>
     </g>
    </g>
    <g id="xtick_12">
     <g id="line2d_60">
      <g>
       <use style="fill:#262626;stroke:#262626;" x="666.504690824" xlink:href="#me1deecec79" y="174.8978125"/>
      </g>
     </g>
     <g id="text_20">
      <!-- 20 -->
      <g style="fill:#262626;" transform="translate(661.329690824 195.055625)scale(0.1 -0.1)">
       <use xlink:href="#ArialMT-32"/>
       <use x="55.615234375" xlink:href="#ArialMT-30"/>
      </g>
     </g>
    </g>
   </g>
   <g id="matplotlib.axis_6">
    <g id="ytick_11">
     <g id="line2d_61">
      <g>
       <use style="fill:#262626;stroke:#262626;" x="492.02921875" xlink:href="#m4aded61697" y="165.058465189"/>
      </g>
     </g>
    </g>
    <g id="ytick_12">
     <g id="line2d_62">
      <g>
       <use style="fill:#262626;stroke:#262626;" x="492.02921875" xlink:href="#m4aded61697" y="131.366736624"/>
      </g>
     </g>
    </g>
    <g id="ytick_13">
     <g id="line2d_63">
      <g>
       <use style="fill:#262626;stroke:#262626;" x="492.02921875" xlink:href="#m4aded61697" y="97.6750080584"/>
      </g>
     </g>
    </g>
    <g id="ytick_14">
     <g id="line2d_64">
      <g>
       <use style="fill:#262626;stroke:#262626;" x="492.02921875" xlink:href="#m4aded61697" y="63.983279493"/>
      </g>
     </g>
    </g>
    <g id="ytick_15">
     <g id="line2d_65">
      <g>
       <use style="fill:#262626;stroke:#262626;" x="492.02921875" xlink:href="#m4aded61697" y="30.2915509275"/>
      </g>
     </g>
    </g>
   </g>
   <g id="line2d_66">
    <path clip-path="url(#p3aeff855be)" d="
M492.029 57.8974
L496.503 94.9511
L514.398 91.098
L541.24 123.648
L594.925 148.605
L702.295 69.85" style="fill:none;stroke:#03012d;stroke-linecap:round;"/>
   </g>
   <g id="line2d_67">
    <path clip-path="url(#p3aeff855be)" d="
M492.029 73.8875
L496.503 76.0429
L514.398 73.8375
L541.24 82.9739
L594.925 126.75
L702.295 152.558" style="fill:none;stroke:#03012d;stroke-linecap:round;"/>
   </g>
   <g id="line2d_68">
    <path clip-path="url(#p3aeff855be)" d="
M492.029 71.7874
L496.503 79.9787
L514.398 84.7589
L541.24 87.4164
L594.925 97.9491
L702.295 164.16" style="fill:none;stroke:#03012d;stroke-linecap:round;"/>
   </g>
   <g id="line2d_69">
    <path clip-path="url(#p3aeff855be)" d="
M492.029 67.8248
L496.503 71.8064
L514.398 150.966
L541.24 126.483
L594.925 77.4994
L702.295 91.4698" style="fill:none;stroke:#03012d;stroke-linecap:round;"/>
   </g>
   <g id="line2d_70">
    <path clip-path="url(#p3aeff855be)" d="
M492.029 117.86
L496.503 84.3733
L514.398 51.5776
L541.24 80.2182
L594.925 148.986
L702.295 103.035" style="fill:none;stroke:#03012d;stroke-linecap:round;"/>
   </g>
   <g id="line2d_71">
    <path clip-path="url(#p3aeff855be)" d="
M492.029 71.5932
L496.503 77.9425
L514.398 63.5669
L541.24 94.7398
L594.925 138.282
L702.295 139.926" style="fill:none;stroke:#03012d;stroke-linecap:round;"/>
   </g>
   <g id="line2d_72">
    <path clip-path="url(#p3aeff855be)" d="
M492.029 107.594
L496.503 70.2721
L514.398 72.4424
L541.24 69.0153
L594.925 153.624
L702.295 113.102" style="fill:none;stroke:#03012d;stroke-linecap:round;"/>
   </g>
   <g id="line2d_73">
    <path clip-path="url(#p3aeff855be)" d="
M492.029 71.464
L496.503 69.2531
L514.398 84.7294
L541.24 123.687
L594.925 153.62
L702.295 83.2959" style="fill:none;stroke:#03012d;stroke-linecap:round;"/>
   </g>
   <g id="line2d_74">
    <path clip-path="url(#p3aeff855be)" d="
M492.029 58.2519
L496.503 105.042
L514.398 91.2638
L541.24 87.9583
L594.925 84.5459
L702.295 158.988" style="fill:none;stroke:#03012d;stroke-linecap:round;"/>
   </g>
   <g id="line2d_75">
    <path clip-path="url(#p3aeff855be)" d="
M492.029 100.204
L496.503 67.7201
L514.398 69.3014
L541.24 72.3849
L594.925 133.772
L702.295 142.667" style="fill:none;stroke:#03012d;stroke-linecap:round;"/>
   </g>
   <g id="line2d_76">
    <path clip-path="url(#p3aeff855be)" d="
M492.029 77.1481
L496.503 69.9003
L514.398 68.4753
L541.24 98.6797
L594.925 117.17
L702.295 154.677" style="fill:none;stroke:#03012d;stroke-linecap:round;"/>
   </g>
   <g id="line2d_77">
    <path clip-path="url(#p3aeff855be)" d="
M492.029 63.5586
L496.503 114.543
L514.398 144.192
L541.24 94.99
L594.925 55.2041
L702.295 113.563" style="fill:none;stroke:#03012d;stroke-linecap:round;"/>
   </g>
   <g id="line2d_78">
    <path clip-path="url(#p3aeff855be)" d="
M492.029 58.9351
L496.503 72.6795
L514.398 88.208
L541.24 92.3284
L594.925 123.779
L702.295 150.12" style="fill:none;stroke:#03012d;stroke-linecap:round;"/>
   </g>
   <g id="line2d_79">
    <path clip-path="url(#p3aeff855be)" d="
M492.029 72.0192
L496.503 68.2594
L514.398 70.9062
L541.24 101.275
L594.925 123.344
L702.295 150.246" style="fill:none;stroke:#03012d;stroke-linecap:round;"/>
   </g>
   <g id="line2d_80">
    <path clip-path="url(#p3aeff855be)" d="
M492.029 70.4007
L496.503 83.7821
L514.398 56.0063
L541.24 114.203
L594.925 147.122
L702.295 114.536" style="fill:none;stroke:#03012d;stroke-linecap:round;"/>
   </g>
   <g id="line2d_81">
    <path clip-path="url(#p3aeff855be)" d="
M492.029 82.299
L496.503 125.323
L514.398 105.522
L541.24 37.6467
L594.925 107.298
L702.295 127.962" style="fill:none;stroke:#03012d;stroke-linecap:round;"/>
   </g>
   <g id="line2d_82">
    <path clip-path="url(#p3aeff855be)" d="
M492.029 73.4702
L496.503 74.5383
L514.398 66.832
L541.24 91.5737
L594.925 137.181
L702.295 142.455" style="fill:none;stroke:#03012d;stroke-linecap:round;"/>
   </g>
   <g id="line2d_83">
    <path clip-path="url(#p3aeff855be)" d="
M492.029 111.934
L496.503 78.2251
L514.398 80.1588
L541.24 49.7748
L594.925 132.757
L702.295 133.2" style="fill:none;stroke:#03012d;stroke-linecap:round;"/>
   </g>
   <g id="line2d_84">
    <path clip-path="url(#p3aeff855be)" d="
M492.029 105.69
L496.503 66.3299
L514.398 138.476
L541.24 130.224
L594.925 90.745
L702.295 54.5851" style="fill:none;stroke:#03012d;stroke-linecap:round;"/>
   </g>
   <g id="patch_9">
    <path d="
M492.029 174.898
L492.029 20.7894" style="fill:none;stroke:#262626;stroke-linecap:square;stroke-linejoin:miter;stroke-width:1.25;"/>
   </g>
   <g id="patch_10">
    <path d="
M492.029 174.898
L702.295 174.898" style="fill:none;stroke:#262626;stroke-linecap:square;stroke-linejoin:miter;stroke-width:1.25;"/>
   </g>
   <g id="text_21">
    <!-- Root Cold -->
    <defs>
     <path d="
M7.85938 0
L7.85938 71.5781
L39.5938 71.5781
Q49.1719 71.5781 54.1406 69.6406
Q59.125 67.7188 62.1094 62.8281
Q65.0938 57.9531 65.0938 52.0469
Q65.0938 44.4375 60.1562 39.2031
Q55.2188 33.9844 44.9219 32.5625
Q48.6875 30.7656 50.6406 29
Q54.7812 25.2031 58.5 19.4844
L70.9531 0
L59.0312 0
L49.5625 14.8906
Q45.4062 21.3438 42.7188 24.75
Q40.0469 28.1719 37.9219 29.5312
Q35.7969 30.9062 33.5938 31.4531
Q31.9844 31.7812 28.3281 31.7812
L17.3281 31.7812
L17.3281 0
z

M17.3281 39.9844
L37.7031 39.9844
Q44.1875 39.9844 47.8438 41.3281
Q51.5156 42.6719 53.4219 45.625
Q55.3281 48.5781 55.3281 52.0469
Q55.3281 57.125 51.6406 60.3906
Q47.9531 63.6719 39.9844 63.6719
L17.3281 63.6719
z
" id="ArialMT-52"/>
     <path d="
M58.7969 25.0938
L68.2656 22.7031
Q65.2812 11.0312 57.5469 4.90625
Q49.8125 -1.21875 38.625 -1.21875
Q27.0469 -1.21875 19.7969 3.48438
Q12.5469 8.20312 8.76562 17.1406
Q4.98438 26.0781 4.98438 36.3281
Q4.98438 47.5156 9.25 55.8281
Q13.5312 64.1562 21.4062 68.4688
Q29.2969 72.7969 38.7656 72.7969
Q49.5156 72.7969 56.8281 67.3281
Q64.1562 61.8594 67.0469 51.9531
L57.7188 49.75
Q55.2188 57.5625 50.4844 61.125
Q45.75 64.7031 38.5781 64.7031
Q30.3281 64.7031 24.7812 60.7344
Q19.2344 56.7812 16.9844 50.1094
Q14.75 43.4531 14.75 36.375
Q14.75 27.25 17.4062 20.4375
Q20.0625 13.625 25.6719 10.25
Q31.2969 6.89062 37.8438 6.89062
Q45.7969 6.89062 51.3125 11.4688
Q56.8438 16.0625 58.7969 25.0938" id="ArialMT-43"/>
     <path id="ArialMT-20"/>
     <path d="
M40.2344 0
L40.2344 6.54688
Q35.2969 -1.17188 25.7344 -1.17188
Q19.5312 -1.17188 14.3281 2.25
Q9.125 5.67188 6.26562 11.7969
Q3.42188 17.9219 3.42188 25.875
Q3.42188 33.6406 6 39.9688
Q8.59375 46.2969 13.7656 49.6562
Q18.9531 53.0312 25.3438 53.0312
Q30.0312 53.0312 33.6875 51.0469
Q37.3594 49.0781 39.6562 45.9062
L39.6562 71.5781
L48.3906 71.5781
L48.3906 0
z

M12.4531 25.875
Q12.4531 15.9219 16.6406 10.9844
Q20.8438 6.0625 26.5625 6.0625
Q32.3281 6.0625 36.3438 10.7656
Q40.375 15.4844 40.375 25.1406
Q40.375 35.7969 36.2656 40.7656
Q32.1719 45.75 26.1719 45.75
Q20.3125 45.75 16.375 40.9688
Q12.4531 36.1875 12.4531 25.875" id="ArialMT-64"/>
     <path d="
M6.39062 0
L6.39062 71.5781
L15.1875 71.5781
L15.1875 0
z
" id="ArialMT-6c"/>
    </defs>
    <g style="fill:#262626;" transform="translate(570.915625 15.789375)scale(0.12 -0.12)">
     <use xlink:href="#ArialMT-52"/>
     <use x="72.216796875" xlink:href="#ArialMT-6f"/>
     <use x="127.83203125" xlink:href="#ArialMT-6f"/>
     <use x="183.447265625" xlink:href="#ArialMT-74"/>
     <use x="211.23046875" xlink:href="#ArialMT-20"/>
     <use x="239.013671875" xlink:href="#ArialMT-43"/>
     <use x="311.23046875" xlink:href="#ArialMT-6f"/>
     <use x="366.845703125" xlink:href="#ArialMT-6c"/>
     <use x="389.0625" xlink:href="#ArialMT-64"/>
    </g>
   </g>
  </g>
  <g id="axes_4">
   <g id="patch_11">
    <path d="
M45.5786 377.418
L255.844 377.418
L255.844 223.309
L45.5786 223.309
z
" style="fill:#ffffff;"/>
   </g>
   <g id="matplotlib.axis_7">
    <g id="xtick_13">
     <g id="line2d_85">
      <g>
       <use style="fill:#262626;stroke:#262626;" x="87.63165625" xlink:href="#me1deecec79" y="377.4178125"/>
      </g>
     </g>
     <g id="text_22">
      <!-- 5 -->
      <g style="fill:#262626;" transform="translate(85.259 397.575625)scale(0.1 -0.1)">
       <use xlink:href="#ArialMT-35"/>
      </g>
     </g>
    </g>
    <g id="xtick_14">
     <g id="line2d_86">
      <g>
       <use style="fill:#262626;stroke:#262626;" x="131.898037829" xlink:href="#me1deecec79" y="377.4178125"/>
      </g>
     </g>
     <g id="text_23">
      <!-- 10 -->
      <g style="fill:#262626;" transform="translate(127.120694079 397.575625)scale(0.1 -0.1)">
       <use xlink:href="#ArialMT-31"/>
       <use x="55.615234375" xlink:href="#ArialMT-30"/>
      </g>
     </g>
    </g>
    <g id="xtick_15">
     <g id="line2d_87">
      <g>
       <use style="fill:#262626;stroke:#262626;" x="176.164419408" xlink:href="#me1deecec79" y="377.4178125"/>
      </g>
     </g>
     <g id="text_24">
      <!-- 15 -->
      <g style="fill:#262626;" transform="translate(171.348013158 397.575625)scale(0.1 -0.1)">
       <use xlink:href="#ArialMT-31"/>
       <use x="55.615234375" xlink:href="#ArialMT-35"/>
      </g>
     </g>
    </g>
    <g id="xtick_16">
     <g id="line2d_88">
      <g>
       <use style="fill:#262626;stroke:#262626;" x="220.430800987" xlink:href="#me1deecec79" y="377.4178125"/>
      </g>
     </g>
     <g id="text_25">
      <!-- 20 -->
      <g style="fill:#262626;" transform="translate(215.255800987 397.575625)scale(0.1 -0.1)">
       <use xlink:href="#ArialMT-32"/>
       <use x="55.615234375" xlink:href="#ArialMT-30"/>
      </g>
     </g>
    </g>
    <g id="text_26">
     <!-- Time -->
     <defs>
      <path d="
M6.59375 0
L6.59375 51.8594
L14.4531 51.8594
L14.4531 44.5781
Q16.8906 48.3906 20.9375 50.7031
Q25 53.0312 30.1719 53.0312
Q35.9375 53.0312 39.625 50.6406
Q43.3125 48.25 44.8281 43.9531
Q50.9844 53.0312 60.8438 53.0312
Q68.5625 53.0312 72.7031 48.75
Q76.8594 44.4844 76.8594 35.5938
L76.8594 0
L68.1094 0
L68.1094 32.6719
Q68.1094 37.9375 67.25 40.25
Q66.4062 42.5781 64.1562 43.9844
Q61.9219 45.4062 58.8906 45.4062
Q53.4219 45.4062 49.7969 41.7656
Q46.1875 38.1406 46.1875 30.125
L46.1875 0
L37.4062 0
L37.4062 33.6875
Q37.4062 39.5469 35.25 42.4688
Q33.1094 45.4062 28.2188 45.4062
Q24.5156 45.4062 21.3594 43.4531
Q18.2188 41.5 16.7969 37.7344
Q15.375 33.9844 15.375 26.9062
L15.375 0
z
" id="ArialMT-6d"/>
      <path d="
M25.9219 0
L25.9219 63.1406
L2.34375 63.1406
L2.34375 71.5781
L59.0781 71.5781
L59.0781 63.1406
L35.4062 63.1406
L35.4062 0
z
" id="ArialMT-54"/>
     </defs>
     <g style="fill:#262626;" transform="translate(139.05296875 412.43671875)scale(0.11 -0.11)">
      <use xlink:href="#ArialMT-54"/>
      <use x="57.333984375" xlink:href="#ArialMT-69"/>
      <use x="79.55078125" xlink:href="#ArialMT-6d"/>
      <use x="162.8515625" xlink:href="#ArialMT-65"/>
     </g>
    </g>
   </g>
   <g id="matplotlib.axis_8">
    <g id="ytick_16">
     <g id="line2d_89">
      <g>
       <use style="fill:#262626;stroke:#262626;" x="45.57859375" xlink:href="#m4aded61697" y="367.578465189"/>
      </g>
     </g>
     <g id="text_27">
      <!-- −2 -->
      <g style="fill:#262626;" transform="translate(22.25984375 370.163621439)scale(0.1 -0.1)">
       <use xlink:href="#ArialMT-2212"/>
       <use x="58.3984375" xlink:href="#ArialMT-32"/>
      </g>
     </g>
    </g>
    <g id="ytick_17">
     <g id="line2d_90">
      <g>
       <use style="fill:#262626;stroke:#262626;" x="45.57859375" xlink:href="#m4aded61697" y="333.886736624"/>
      </g>
     </g>
     <g id="text_28">
      <!-- −1 -->
      <g style="fill:#262626;" transform="translate(23.56921875 336.471892874)scale(0.1 -0.1)">
       <use xlink:href="#ArialMT-2212"/>
       <use x="58.3984375" xlink:href="#ArialMT-31"/>
      </g>
     </g>
    </g>
    <g id="ytick_18">
     <g id="line2d_91">
      <g>
       <use style="fill:#262626;stroke:#262626;" x="45.57859375" xlink:href="#m4aded61697" y="300.195008058"/>
      </g>
     </g>
     <g id="text_29">
      <!-- 0 -->
      <g style="fill:#262626;" transform="translate(27.91140625 302.780164308)scale(0.1 -0.1)">
       <use xlink:href="#ArialMT-30"/>
      </g>
     </g>
    </g>
    <g id="ytick_19">
     <g id="line2d_92">
      <g>
       <use style="fill:#262626;stroke:#262626;" x="45.57859375" xlink:href="#m4aded61697" y="266.503279493"/>
      </g>
     </g>
     <g id="text_30">
      <!-- 1 -->
      <g style="fill:#262626;" transform="translate(29.94265625 269.088435743)scale(0.1 -0.1)">
       <use xlink:href="#ArialMT-31"/>
      </g>
     </g>
    </g>
    <g id="ytick_20">
     <g id="line2d_93">
      <g>
       <use style="fill:#262626;stroke:#262626;" x="45.57859375" xlink:href="#m4aded61697" y="232.811550928"/>
      </g>
     </g>
     <g id="text_31">
      <!-- 2 -->
      <g style="fill:#262626;" transform="translate(27.83796875 235.396707178)scale(0.1 -0.1)">
       <use xlink:href="#ArialMT-32"/>
      </g>
     </g>
    </g>
    <g id="text_32">
     <!-- Expression -->
     <g style="fill:#262626;" transform="translate(15.07359375 326.75671875)rotate(-90.0)scale(0.11 -0.11)">
      <use xlink:href="#ArialMT-45"/>
      <use x="66.69921875" xlink:href="#ArialMT-78"/>
      <use x="116.69921875" xlink:href="#ArialMT-70"/>
      <use x="172.314453125" xlink:href="#ArialMT-72"/>
      <use x="205.615234375" xlink:href="#ArialMT-65"/>
      <use x="261.23046875" xlink:href="#ArialMT-73"/>
      <use x="311.23046875" xlink:href="#ArialMT-73"/>
      <use x="361.23046875" xlink:href="#ArialMT-69"/>
      <use x="383.447265625" xlink:href="#ArialMT-6f"/>
      <use x="439.0625" xlink:href="#ArialMT-6e"/>
     </g>
    </g>
   </g>
   <g id="line2d_94">
    <path clip-path="url(#p4d13165c25)" d="
M45.5786 259.992
L47.7919 300.62
L52.2186 326.099
L69.9251 336.52
L96.4849 315.715
L149.605 247.728
L255.844 314.692" style="fill:none;stroke:#03012d;stroke-linecap:round;"/>
   </g>
   <g id="line2d_95">
    <path clip-path="url(#p4d13165c25)" d="
M45.5786 259.996
L47.7919 341.474
L52.2186 345.955
L69.9251 292.582
L96.4849 272.221
L149.605 310.269
L255.844 278.868" style="fill:none;stroke:#03012d;stroke-linecap:round;"/>
   </g>
   <g id="line2d_96">
    <path clip-path="url(#p4d13165c25)" d="
M45.5786 279.74
L47.7919 330.356
L52.2186 335.444
L69.9251 274.749
L96.4849 271.738
L149.605 341.702
L255.844 267.636" style="fill:none;stroke:#03012d;stroke-linecap:round;"/>
   </g>
   <g id="line2d_97">
    <path clip-path="url(#p4d13165c25)" d="
M45.5786 256.8
L47.7919 284.837
L52.2186 321.587
L69.9251 315.744
L96.4849 342.285
L149.605 321.798
L255.844 258.313" style="fill:none;stroke:#03012d;stroke-linecap:round;"/>
   </g>
   <g id="line2d_98">
    <path clip-path="url(#p4d13165c25)" d="
M45.5786 260.598
L47.7919 299.666
L52.2186 296.612
L69.9251 298.331
L96.4849 315.938
L149.605 362.721
L255.844 267.499" style="fill:none;stroke:#03012d;stroke-linecap:round;"/>
   </g>
   <g id="line2d_99">
    <path clip-path="url(#p4d13165c25)" d="
M45.5786 260.212
L47.7919 314.772
L52.2186 337.552
L69.9251 293.719
L96.4849 286.696
L149.605 345.12
L255.844 263.294" style="fill:none;stroke:#03012d;stroke-linecap:round;"/>
   </g>
   <g id="line2d_100">
    <path clip-path="url(#p4d13165c25)" d="
M45.5786 238.94
L47.7919 318.942
L52.2186 278.194
L69.9251 292.086
L96.4849 310.415
L149.605 338.681
L255.844 324.108" style="fill:none;stroke:#03012d;stroke-linecap:round;"/>
   </g>
   <g id="line2d_101">
    <path clip-path="url(#p4d13165c25)" d="
M45.5786 311.593
L47.7919 267.827
L52.2186 363.441
L69.9251 308.721
L96.4849 303.233
L149.605 266.141
L255.844 280.408" style="fill:none;stroke:#03012d;stroke-linecap:round;"/>
   </g>
   <g id="line2d_102">
    <path clip-path="url(#p4d13165c25)" d="
M45.5786 245.175
L47.7919 272.505
L52.2186 299.722
L69.9251 298.043
L96.4849 324.333
L149.605 347.478
L255.844 314.108" style="fill:none;stroke:#03012d;stroke-linecap:round;"/>
   </g>
   <g id="line2d_103">
    <path clip-path="url(#p4d13165c25)" d="
M45.5786 235.36
L47.7919 302.709
L52.2186 301.584
L69.9251 328.051
L96.4849 322.603
L149.605 330.669
L255.844 280.389" style="fill:none;stroke:#03012d;stroke-linecap:round;"/>
   </g>
   <g id="line2d_104">
    <path clip-path="url(#p4d13165c25)" d="
M45.5786 271.629
L47.7919 313.47
L52.2186 338.515
L69.9251 240.526
L96.4849 313.215
L149.605 325.069
L255.844 298.942" style="fill:none;stroke:#03012d;stroke-linecap:round;"/>
   </g>
   <g id="line2d_105">
    <path clip-path="url(#p4d13165c25)" d="
M45.5786 299.554
L47.7919 247.134
L52.2186 325.579
L69.9251 315.869
L96.4849 320.626
L149.605 259.851
L255.844 332.751" style="fill:none;stroke:#03012d;stroke-linecap:round;"/>
   </g>
   <g id="line2d_106">
    <path clip-path="url(#p4d13165c25)" d="
M45.5786 278.847
L47.7919 268.552
L52.2186 319.272
L69.9251 312.77
L96.4849 361.544
L149.605 291.757
L255.844 268.624" style="fill:none;stroke:#03012d;stroke-linecap:round;"/>
   </g>
   <g id="line2d_107">
    <path clip-path="url(#p4d13165c25)" d="
M45.5786 309.205
L47.7919 331.308
L52.2186 314.465
L69.9251 293.289
L96.4849 229.017
L149.605 303.003
L255.844 321.078" style="fill:none;stroke:#03012d;stroke-linecap:round;"/>
   </g>
   <g id="line2d_108">
    <path clip-path="url(#p4d13165c25)" d="
M45.5786 333.834
L47.7919 264.715
L52.2186 289.716
L69.9251 318.641
L96.4849 312.767
L149.605 248.2
L255.844 333.493" style="fill:none;stroke:#03012d;stroke-linecap:round;"/>
   </g>
   <g id="line2d_109">
    <path clip-path="url(#p4d13165c25)" d="
M45.5786 294.983
L47.7919 266.41
L52.2186 272.601
L69.9251 284.831
L96.4849 326.729
L149.605 362.582
L255.844 293.229" style="fill:none;stroke:#03012d;stroke-linecap:round;"/>
   </g>
   <g id="line2d_110">
    <path clip-path="url(#p4d13165c25)" d="
M45.5786 234.585
L47.7919 306.098
L52.2186 321.459
L69.9251 303.794
L96.4849 307.621
L149.605 341.968
L255.844 285.839" style="fill:none;stroke:#03012d;stroke-linecap:round;"/>
   </g>
   <g id="line2d_111">
    <path clip-path="url(#p4d13165c25)" d="
M45.5786 247.555
L47.7919 315.35
L52.2186 292.007
L69.9251 295.362
L96.4849 314.068
L149.605 356.303
L255.844 280.72" style="fill:none;stroke:#03012d;stroke-linecap:round;"/>
   </g>
   <g id="line2d_112">
    <path clip-path="url(#p4d13165c25)" d="
M45.5786 322.247
L47.7919 327.139
L52.2186 297.23
L69.9251 297.741
L96.4849 295.704
L149.605 231.664
L255.844 329.64" style="fill:none;stroke:#03012d;stroke-linecap:round;"/>
   </g>
   <g id="patch_12">
    <path d="
M45.5786 377.418
L45.5786 223.309" style="fill:none;stroke:#262626;stroke-linecap:square;stroke-linejoin:miter;stroke-width:1.25;"/>
   </g>
   <g id="patch_13">
    <path d="
M45.5786 377.418
L255.844 377.418" style="fill:none;stroke:#262626;stroke-linecap:square;stroke-linejoin:miter;stroke-width:1.25;"/>
   </g>
   <g id="text_33">
    <!-- Root Drought -->
    <defs>
     <path d="
M40.5781 0
L40.5781 7.625
Q34.5156 -1.17188 24.125 -1.17188
Q19.5312 -1.17188 15.5469 0.578125
Q11.5781 2.34375 9.64062 5
Q7.71875 7.67188 6.9375 11.5312
Q6.39062 14.1094 6.39062 19.7344
L6.39062 51.8594
L15.1875 51.8594
L15.1875 23.0938
Q15.1875 16.2188 15.7188 13.8125
Q16.5469 10.3594 19.2344 8.375
Q21.9219 6.39062 25.875 6.39062
Q29.8281 6.39062 33.2969 8.42188
Q36.7656 10.4531 38.2031 13.9375
Q39.6562 17.4375 39.6562 24.0781
L39.6562 51.8594
L48.4375 51.8594
L48.4375 0
z
" id="ArialMT-75"/>
     <path d="
M6.59375 0
L6.59375 71.5781
L15.375 71.5781
L15.375 45.9062
Q21.5312 53.0312 30.9062 53.0312
Q36.6719 53.0312 40.9219 50.75
Q45.1719 48.4844 47 44.4844
Q48.8281 40.4844 48.8281 32.8594
L48.8281 0
L40.0469 0
L40.0469 32.8594
Q40.0469 39.4531 37.1875 42.4531
Q34.3281 45.4531 29.1094 45.4531
Q25.2031 45.4531 21.75 43.4219
Q18.3125 41.4062 16.8438 37.9375
Q15.375 34.4688 15.375 28.375
L15.375 0
z
" id="ArialMT-68"/>
     <path d="
M7.71875 0
L7.71875 71.5781
L32.375 71.5781
Q40.7188 71.5781 45.125 70.5625
Q51.2656 69.1406 55.6094 65.4375
Q61.2812 60.6406 64.0781 53.1875
Q66.8906 45.75 66.8906 36.1875
Q66.8906 28.0312 64.9844 21.7344
Q63.0938 15.4375 60.1094 11.2969
Q57.125 7.17188 53.5781 4.79688
Q50.0469 2.4375 45.0469 1.21875
Q40.0469 0 33.5469 0
z

M17.1875 8.45312
L32.4688 8.45312
Q39.5469 8.45312 43.5781 9.76562
Q47.6094 11.0781 50 13.4844
Q53.375 16.8438 55.25 22.5312
Q57.125 28.2188 57.125 36.3281
Q57.125 47.5625 53.4375 53.5938
Q49.75 59.625 44.4844 61.6719
Q40.6719 63.1406 32.2344 63.1406
L17.1875 63.1406
z
" id="ArialMT-44"/>
     <path d="
M4.98438 -4.29688
L13.5312 -5.5625
Q14.0625 -9.51562 16.5 -11.3281
Q19.7812 -13.7656 25.4375 -13.7656
Q31.5469 -13.7656 34.8594 -11.3281
Q38.1875 -8.89062 39.3594 -4.5
Q40.0469 -1.8125 39.9844 6.78125
Q34.2344 0 25.6406 0
Q14.9375 0 9.07812 7.71875
Q3.21875 15.4375 3.21875 26.2188
Q3.21875 33.6406 5.90625 39.9062
Q8.59375 46.1875 13.6875 49.6094
Q18.7969 53.0312 25.6875 53.0312
Q34.8594 53.0312 40.8281 45.6094
L40.8281 51.8594
L48.9219 51.8594
L48.9219 7.03125
Q48.9219 -5.07812 46.4531 -10.125
Q44 -15.1875 38.6406 -18.1094
Q33.2969 -21.0469 25.4844 -21.0469
Q16.2188 -21.0469 10.5 -16.875
Q4.78125 -12.7031 4.98438 -4.29688
M12.25 26.8594
Q12.25 16.6562 16.2969 11.9688
Q20.3594 7.28125 26.4688 7.28125
Q32.5156 7.28125 36.6094 11.9375
Q40.7188 16.6094 40.7188 26.5625
Q40.7188 36.0781 36.5 40.9062
Q32.2812 45.75 26.3125 45.75
Q20.4531 45.75 16.3438 40.9844
Q12.25 36.2344 12.25 26.8594" id="ArialMT-67"/>
    </defs>
    <g style="fill:#262626;" transform="translate(115.07125 218.309375)scale(0.12 -0.12)">
     <use xlink:href="#ArialMT-52"/>
     <use x="72.216796875" xlink:href="#ArialMT-6f"/>
     <use x="127.83203125" xlink:href="#ArialMT-6f"/>
     <use x="183.447265625" xlink:href="#ArialMT-74"/>
     <use x="211.23046875" xlink:href="#ArialMT-20"/>
     <use x="239.013671875" xlink:href="#ArialMT-44"/>
     <use x="311.23046875" xlink:href="#ArialMT-72"/>
     <use x="344.53125" xlink:href="#ArialMT-6f"/>
     <use x="400.146484375" xlink:href="#ArialMT-75"/>
     <use x="455.76171875" xlink:href="#ArialMT-67"/>
     <use x="511.376953125" xlink:href="#ArialMT-68"/>
     <use x="566.9921875" xlink:href="#ArialMT-74"/>
    </g>
   </g>
  </g>
  <g id="axes_5">
   <g id="patch_14">
    <path d="
M268.804 377.418
L479.069 377.418
L479.069 223.309
L268.804 223.309
z
" style="fill:#ffffff;"/>
   </g>
   <g id="matplotlib.axis_9">
    <g id="xtick_17">
     <g id="line2d_113">
      <g>
       <use style="fill:#262626;stroke:#262626;" x="309.067476729" xlink:href="#me1deecec79" y="377.4178125"/>
      </g>
     </g>
     <g id="text_34">
      <!-- 5 -->
      <g style="fill:#262626;" transform="translate(306.694820479 397.575625)scale(0.1 -0.1)">
       <use xlink:href="#ArialMT-35"/>
      </g>
     </g>
    </g>
    <g id="xtick_18">
     <g id="line2d_114">
      <g>
       <use style="fill:#262626;stroke:#262626;" x="353.804777261" xlink:href="#me1deecec79" y="377.4178125"/>
      </g>
     </g>
     <g id="text_35">
      <!-- 10 -->
      <g style="fill:#262626;" transform="translate(349.027433511 397.575625)scale(0.1 -0.1)">
       <use xlink:href="#ArialMT-31"/>
       <use x="55.615234375" xlink:href="#ArialMT-30"/>
      </g>
     </g>
    </g>
    <g id="xtick_19">
     <g id="line2d_115">
      <g>
       <use style="fill:#262626;stroke:#262626;" x="398.542077793" xlink:href="#me1deecec79" y="377.4178125"/>
      </g>
     </g>
     <g id="text_36">
      <!-- 15 -->
      <g style="fill:#262626;" transform="translate(393.725671543 397.575625)scale(0.1 -0.1)">
       <use xlink:href="#ArialMT-31"/>
       <use x="55.615234375" xlink:href="#ArialMT-35"/>
      </g>
     </g>
    </g>
    <g id="xtick_20">
     <g id="line2d_116">
      <g>
       <use style="fill:#262626;stroke:#262626;" x="443.279378324" xlink:href="#me1deecec79" y="377.4178125"/>
      </g>
     </g>
     <g id="text_37">
      <!-- 20 -->
      <g style="fill:#262626;" transform="translate(438.104378324 397.575625)scale(0.1 -0.1)">
       <use xlink:href="#ArialMT-32"/>
       <use x="55.615234375" xlink:href="#ArialMT-30"/>
      </g>
     </g>
    </g>
    <g id="text_38">
     <!-- Time -->
     <g style="fill:#262626;" transform="translate(362.27828125 412.43671875)scale(0.11 -0.11)">
      <use xlink:href="#ArialMT-54"/>
      <use x="57.333984375" xlink:href="#ArialMT-69"/>
      <use x="79.55078125" xlink:href="#ArialMT-6d"/>
      <use x="162.8515625" xlink:href="#ArialMT-65"/>
     </g>
    </g>
   </g>
   <g id="matplotlib.axis_10">
    <g id="ytick_21">
     <g id="line2d_117">
      <g>
       <use style="fill:#262626;stroke:#262626;" x="268.80390625" xlink:href="#m4aded61697" y="367.578465189"/>
      </g>
     </g>
    </g>
    <g id="ytick_22">
     <g id="line2d_118">
      <g>
       <use style="fill:#262626;stroke:#262626;" x="268.80390625" xlink:href="#m4aded61697" y="333.886736624"/>
      </g>
     </g>
    </g>
    <g id="ytick_23">
     <g id="line2d_119">
      <g>
       <use style="fill:#262626;stroke:#262626;" x="268.80390625" xlink:href="#m4aded61697" y="300.195008058"/>
      </g>
     </g>
    </g>
    <g id="ytick_24">
     <g id="line2d_120">
      <g>
       <use style="fill:#262626;stroke:#262626;" x="268.80390625" xlink:href="#m4aded61697" y="266.503279493"/>
      </g>
     </g>
    </g>
    <g id="ytick_25">
     <g id="line2d_121">
      <g>
       <use style="fill:#262626;stroke:#262626;" x="268.80390625" xlink:href="#m4aded61697" y="232.811550928"/>
      </g>
     </g>
    </g>
   </g>
   <g id="line2d_122">
    <path clip-path="url(#p659f111a6e)" d="
M268.804 284.447
L273.278 249.855
L291.173 292.178
L318.015 301.457
L371.7 327.274
L479.069 345.96" style="fill:none;stroke:#03012d;stroke-linecap:round;"/>
   </g>
   <g id="line2d_123">
    <path clip-path="url(#p659f111a6e)" d="
M268.804 325.518
L273.278 253.009
L291.173 271.506
L318.015 323.828
L371.7 336.719
L479.069 290.59" style="fill:none;stroke:#03012d;stroke-linecap:round;"/>
   </g>
   <g id="line2d_124">
    <path clip-path="url(#p659f111a6e)" d="
M268.804 252.083
L273.278 267.199
L291.173 309.308
L318.015 309.898
L371.7 322.542
L479.069 340.14" style="fill:none;stroke:#03012d;stroke-linecap:round;"/>
   </g>
   <g id="line2d_125">
    <path clip-path="url(#p659f111a6e)" d="
M268.804 244.992
L273.278 283.586
L291.173 293.88
L318.015 314.024
L371.7 327.137
L479.069 337.551" style="fill:none;stroke:#03012d;stroke-linecap:round;"/>
   </g>
   <g id="line2d_126">
    <path clip-path="url(#p659f111a6e)" d="
M268.804 269.46
L273.278 285.488
L291.173 287.962
L318.015 285.148
L371.7 309.221
L479.069 363.891" style="fill:none;stroke:#03012d;stroke-linecap:round;"/>
   </g>
   <g id="line2d_127">
    <path clip-path="url(#p659f111a6e)" d="
M268.804 273.267
L273.278 269.726
L291.173 291.75
L318.015 291.087
L371.7 314.655
L479.069 360.683" style="fill:none;stroke:#03012d;stroke-linecap:round;"/>
   </g>
   <g id="line2d_128">
    <path clip-path="url(#p659f111a6e)" d="
M268.804 242.595
L273.278 295.623
L291.173 304.476
L318.015 291.854
L371.7 328.029
L479.069 338.592" style="fill:none;stroke:#03012d;stroke-linecap:round;"/>
   </g>
   <g id="line2d_129">
    <path clip-path="url(#p659f111a6e)" d="
M268.804 258.392
L273.278 278.701
L291.173 318.026
L318.015 355.765
L371.7 297.283
L479.069 293.002" style="fill:none;stroke:#03012d;stroke-linecap:round;"/>
   </g>
   <g id="line2d_130">
    <path clip-path="url(#p659f111a6e)" d="
M268.804 273.094
L273.278 275.472
L291.173 279.727
L318.015 290.343
L371.7 326.432
L479.069 356.102" style="fill:none;stroke:#03012d;stroke-linecap:round;"/>
   </g>
   <g id="line2d_131">
    <path clip-path="url(#p659f111a6e)" d="
M268.804 274.315
L273.278 276.305
L291.173 287.364
L318.015 291.107
L371.7 307.593
L479.069 364.485" style="fill:none;stroke:#03012d;stroke-linecap:round;"/>
   </g>
   <g id="line2d_132">
    <path clip-path="url(#p659f111a6e)" d="
M268.804 267.355
L273.278 280.738
L291.173 292.68
L318.015 285.361
L371.7 313.475
L479.069 361.561" style="fill:none;stroke:#03012d;stroke-linecap:round;"/>
   </g>
   <g id="line2d_133">
    <path clip-path="url(#p659f111a6e)" d="
M268.804 283.232
L273.278 274.556
L291.173 277.075
L318.015 286.663
L371.7 318.938
L479.069 360.706" style="fill:none;stroke:#03012d;stroke-linecap:round;"/>
   </g>
   <g id="line2d_134">
    <path clip-path="url(#p659f111a6e)" d="
M268.804 275.914
L273.278 280.33
L291.173 285.267
L318.015 281.75
L371.7 315.249
L479.069 362.659" style="fill:none;stroke:#03012d;stroke-linecap:round;"/>
   </g>
   <g id="line2d_135">
    <path clip-path="url(#p659f111a6e)" d="
M268.804 271.36
L273.278 268.002
L291.173 282.918
L318.015 297.482
L371.7 330.216
L479.069 351.192" style="fill:none;stroke:#03012d;stroke-linecap:round;"/>
   </g>
   <g id="line2d_136">
    <path clip-path="url(#p659f111a6e)" d="
M268.804 286.869
L273.278 267.894
L291.173 288.775
L318.015 280.019
L371.7 317.18
L479.069 360.434" style="fill:none;stroke:#03012d;stroke-linecap:round;"/>
   </g>
   <g id="line2d_137">
    <path clip-path="url(#p659f111a6e)" d="
M268.804 255.334
L273.278 289.844
L291.173 281.94
L318.015 296.346
L371.7 349.319
L479.069 328.388" style="fill:none;stroke:#03012d;stroke-linecap:round;"/>
   </g>
   <g id="line2d_138">
    <path clip-path="url(#p659f111a6e)" d="
M268.804 249.787
L273.278 292.17
L291.173 298.777
L318.015 291.991
L371.7 315.713
L479.069 352.732" style="fill:none;stroke:#03012d;stroke-linecap:round;"/>
   </g>
   <g id="line2d_139">
    <path clip-path="url(#p659f111a6e)" d="
M268.804 272.031
L273.278 272.519
L291.173 294.452
L318.015 292.708
L371.7 306.075
L479.069 363.385" style="fill:none;stroke:#03012d;stroke-linecap:round;"/>
   </g>
   <g id="line2d_140">
    <path clip-path="url(#p659f111a6e)" d="
M268.804 276.196
L273.278 277.473
L291.173 283.237
L318.015 289.726
L371.7 310.462
L479.069 364.076" style="fill:none;stroke:#03012d;stroke-linecap:round;"/>
   </g>
   <g id="patch_15">
    <path d="
M268.804 377.418
L268.804 223.309" style="fill:none;stroke:#262626;stroke-linecap:square;stroke-linejoin:miter;stroke-width:1.25;"/>
   </g>
   <g id="patch_16">
    <path d="
M268.804 377.418
L479.069 377.418" style="fill:none;stroke:#262626;stroke-linecap:square;stroke-linejoin:miter;stroke-width:1.25;"/>
   </g>
   <g id="text_39">
    <!-- Shoot Cold -->
    <g style="fill:#262626;" transform="translate(344.6846875 218.309375)scale(0.12 -0.12)">
     <use xlink:href="#ArialMT-53"/>
     <use x="66.69921875" xlink:href="#ArialMT-68"/>
     <use x="122.314453125" xlink:href="#ArialMT-6f"/>
     <use x="177.9296875" xlink:href="#ArialMT-6f"/>
     <use x="233.544921875" xlink:href="#ArialMT-74"/>
     <use x="261.328125" xlink:href="#ArialMT-20"/>
     <use x="289.111328125" xlink:href="#ArialMT-43"/>
     <use x="361.328125" xlink:href="#ArialMT-6f"/>
     <use x="416.943359375" xlink:href="#ArialMT-6c"/>
     <use x="439.16015625" xlink:href="#ArialMT-64"/>
    </g>
   </g>
  </g>
  <g id="axes_6">
   <g id="patch_17">
    <path d="
M492.029 377.418
L702.295 377.418
L702.295 223.309
L492.029 223.309
z
" style="fill:#ffffff;"/>
   </g>
   <g id="matplotlib.axis_11">
    <g id="xtick_21">
     <g id="line2d_141">
      <g>
       <use style="fill:#262626;stroke:#262626;" x="534.08228125" xlink:href="#me1deecec79" y="377.4178125"/>
      </g>
     </g>
     <g id="text_40">
      <!-- 5 -->
      <g style="fill:#262626;" transform="translate(531.709625 397.575625)scale(0.1 -0.1)">
       <use xlink:href="#ArialMT-35"/>
      </g>
     </g>
    </g>
    <g id="xtick_22">
     <g id="line2d_142">
      <g>
       <use style="fill:#262626;stroke:#262626;" x="578.348662829" xlink:href="#me1deecec79" y="377.4178125"/>
      </g>
     </g>
     <g id="text_41">
      <!-- 10 -->
      <g style="fill:#262626;" transform="translate(573.571319079 397.575625)scale(0.1 -0.1)">
       <use xlink:href="#ArialMT-31"/>
       <use x="55.615234375" xlink:href="#ArialMT-30"/>
      </g>
     </g>
    </g>
    <g id="xtick_23">
     <g id="line2d_143">
      <g>
       <use style="fill:#262626;stroke:#262626;" x="622.615044408" xlink:href="#me1deecec79" y="377.4178125"/>
      </g>
     </g>
     <g id="text_42">
      <!-- 15 -->
      <g style="fill:#262626;" transform="translate(617.798638158 397.575625)scale(0.1 -0.1)">
       <use xlink:href="#ArialMT-31"/>
       <use x="55.615234375" xlink:href="#ArialMT-35"/>
      </g>
     </g>
    </g>
    <g id="xtick_24">
     <g id="line2d_144">
      <g>
       <use style="fill:#262626;stroke:#262626;" x="666.881425987" xlink:href="#me1deecec79" y="377.4178125"/>
      </g>
     </g>
     <g id="text_43">
      <!-- 20 -->
      <g style="fill:#262626;" transform="translate(661.706425987 397.575625)scale(0.1 -0.1)">
       <use xlink:href="#ArialMT-32"/>
       <use x="55.615234375" xlink:href="#ArialMT-30"/>
      </g>
     </g>
    </g>
    <g id="text_44">
     <!-- Time -->
     <g style="fill:#262626;" transform="translate(585.50359375 412.43671875)scale(0.11 -0.11)">
      <use xlink:href="#ArialMT-54"/>
      <use x="57.333984375" xlink:href="#ArialMT-69"/>
      <use x="79.55078125" xlink:href="#ArialMT-6d"/>
      <use x="162.8515625" xlink:href="#ArialMT-65"/>
     </g>
    </g>
   </g>
   <g id="matplotlib.axis_12">
    <g id="ytick_26">
     <g id="line2d_145">
      <g>
       <use style="fill:#262626;stroke:#262626;" x="492.02921875" xlink:href="#m4aded61697" y="367.578465189"/>
      </g>
     </g>
    </g>
    <g id="ytick_27">
     <g id="line2d_146">
      <g>
       <use style="fill:#262626;stroke:#262626;" x="492.02921875" xlink:href="#m4aded61697" y="333.886736624"/>
      </g>
     </g>
    </g>
    <g id="ytick_28">
     <g id="line2d_147">
      <g>
       <use style="fill:#262626;stroke:#262626;" x="492.02921875" xlink:href="#m4aded61697" y="300.195008058"/>
      </g>
     </g>
    </g>
    <g id="ytick_29">
     <g id="line2d_148">
      <g>
       <use style="fill:#262626;stroke:#262626;" x="492.02921875" xlink:href="#m4aded61697" y="266.503279493"/>
      </g>
     </g>
    </g>
    <g id="ytick_30">
     <g id="line2d_149">
      <g>
       <use style="fill:#262626;stroke:#262626;" x="492.02921875" xlink:href="#m4aded61697" y="232.811550928"/>
      </g>
     </g>
    </g>
   </g>
   <g id="line2d_150">
    <path clip-path="url(#p99eb28ba72)" d="
M492.029 265.148
L494.243 282.558
L498.669 281.887
L516.376 294.668
L542.936 341.585
L596.055 353.645
L702.295 281.874" style="fill:none;stroke:#d9544d;stroke-linecap:round;"/>
   </g>
   <g id="line2d_151">
    <path clip-path="url(#p99eb28ba72)" d="
M492.029 250.217
L494.243 287.082
L498.669 315.543
L516.376 321.418
L542.936 332.899
L596.055 331.501
L702.295 262.705" style="fill:none;stroke:#d9544d;stroke-linecap:round;"/>
   </g>
   <g id="line2d_152">
    <path clip-path="url(#p99eb28ba72)" d="
M492.029 278.924
L494.243 276.567
L498.669 270.012
L516.376 307.934
L542.936 346.622
L596.055 345.689
L702.295 275.619" style="fill:none;stroke:#d9544d;stroke-linecap:round;"/>
   </g>
   <g id="line2d_153">
    <path clip-path="url(#p99eb28ba72)" d="
M492.029 280.386
L494.243 269.728
L498.669 276.459
L516.376 301.204
L542.936 351.493
L596.055 343.131
L702.295 278.964" style="fill:none;stroke:#d9544d;stroke-linecap:round;"/>
   </g>
   <g id="line2d_154">
    <path clip-path="url(#p99eb28ba72)" d="
M492.029 271.833
L494.243 270.48
L498.669 305.429
L516.376 301.082
L542.936 334.764
L596.055 352.185
L702.295 265.594" style="fill:none;stroke:#d9544d;stroke-linecap:round;"/>
   </g>
   <g id="line2d_155">
    <path clip-path="url(#p99eb28ba72)" d="
M492.029 267.198
L494.243 287.32
L498.669 297.024
L516.376 308.023
L542.936 344.057
L596.055 341.047
L702.295 256.697" style="fill:none;stroke:#d9544d;stroke-linecap:round;"/>
   </g>
   <g id="line2d_156">
    <path clip-path="url(#p99eb28ba72)" d="
M492.029 275.159
L494.243 272.067
L498.669 285.742
L516.376 294.006
L542.936 357.016
L596.055 338.459
L702.295 278.916" style="fill:none;stroke:#d9544d;stroke-linecap:round;"/>
   </g>
   <g id="line2d_157">
    <path clip-path="url(#p99eb28ba72)" d="
M492.029 262.475
L494.243 283.477
L498.669 292.366
L516.376 312.322
L542.936 344.238
L596.055 341.596
L702.295 264.892" style="fill:none;stroke:#d9544d;stroke-linecap:round;"/>
   </g>
   <g id="line2d_158">
    <path clip-path="url(#p99eb28ba72)" d="
M492.029 251.42
L494.243 292.54
L498.669 289.809
L516.376 302.303
L542.936 356.217
L596.055 327.825
L702.295 281.25" style="fill:none;stroke:#d9544d;stroke-linecap:round;"/>
   </g>
   <g id="line2d_159">
    <path clip-path="url(#p99eb28ba72)" d="
M492.029 261.079
L494.243 296.005
L498.669 290.369
L516.376 307.144
L542.936 353.188
L596.055 330.605
L702.295 262.975" style="fill:none;stroke:#d9544d;stroke-linecap:round;"/>
   </g>
   <g id="line2d_160">
    <path clip-path="url(#p99eb28ba72)" d="
M492.029 263.672
L494.243 285.639
L498.669 286.951
L516.376 318.158
L542.936 335.987
L596.055 346.891
L702.295 264.066" style="fill:none;stroke:#d9544d;stroke-linecap:round;"/>
   </g>
   <g id="line2d_161">
    <path clip-path="url(#p99eb28ba72)" d="
M492.029 281.309
L494.243 274.814
L498.669 295.8
L516.376 323.285
L542.936 324.153
L596.055 349.387
L702.295 252.617" style="fill:none;stroke:#d9544d;stroke-linecap:round;"/>
   </g>
   <g id="line2d_162">
    <path clip-path="url(#p99eb28ba72)" d="
M492.029 268.734
L494.243 283.536
L498.669 277.94
L516.376 311.303
L542.936 353.979
L596.055 334.694
L702.295 271.179" style="fill:none;stroke:#d9544d;stroke-linecap:round;"/>
   </g>
   <g id="line2d_163">
    <path clip-path="url(#p99eb28ba72)" d="
M492.029 287.018
L494.243 267.215
L498.669 290.839
L516.376 298.575
L542.936 341.335
L596.055 350.847
L702.295 265.536" style="fill:none;stroke:#d9544d;stroke-linecap:round;"/>
   </g>
   <g id="line2d_164">
    <path clip-path="url(#p99eb28ba72)" d="
M492.029 270.646
L494.243 276.073
L498.669 284.627
L516.376 325.739
L542.936 336.329
L596.055 343.515
L702.295 264.437" style="fill:none;stroke:#d9544d;stroke-linecap:round;"/>
   </g>
   <g id="line2d_165">
    <path clip-path="url(#p99eb28ba72)" d="
M492.029 264.976
L494.243 272.654
L498.669 308.952
L516.376 330.282
L542.936 336.058
L596.055 329.383
L702.295 259.061" style="fill:none;stroke:#d9544d;stroke-linecap:round;"/>
   </g>
   <g id="line2d_166">
    <path clip-path="url(#p99eb28ba72)" d="
M492.029 270.322
L494.243 275.575
L498.669 280.693
L516.376 306.907
L542.936 339.606
L596.055 352.505
L702.295 275.755" style="fill:none;stroke:#d9544d;stroke-linecap:round;"/>
   </g>
   <g id="line2d_167">
    <path clip-path="url(#p99eb28ba72)" d="
M492.029 280.697
L494.243 277.974
L498.669 295.194
L516.376 303.646
L542.936 357.672
L596.055 328.414
L702.295 257.768" style="fill:none;stroke:#d9544d;stroke-linecap:round;"/>
   </g>
   <g id="line2d_168">
    <path clip-path="url(#p99eb28ba72)" d="
M492.029 283.143
L494.243 284.977
L498.669 287.116
L516.376 323.852
L542.936 342.736
L596.055 331.786
L702.295 247.754" style="fill:none;stroke:#d9544d;stroke-linecap:round;"/>
   </g>
   <g id="patch_18">
    <path d="
M492.029 377.418
L492.029 223.309" style="fill:none;stroke:#262626;stroke-linecap:square;stroke-linejoin:miter;stroke-width:1.25;"/>
   </g>
   <g id="patch_19">
    <path d="
M492.029 377.418
L702.295 377.418" style="fill:none;stroke:#262626;stroke-linecap:square;stroke-linejoin:miter;stroke-width:1.25;"/>
   </g>
   <g id="text_45">
    <!-- Shoot Uv -->
    <defs>
     <path d="
M54.6875 71.5781
L64.1562 71.5781
L64.1562 30.2188
Q64.1562 19.4375 61.7188 13.0781
Q59.2812 6.73438 52.9062 2.75
Q46.5312 -1.21875 36.1875 -1.21875
Q26.125 -1.21875 19.7188 2.25
Q13.3281 5.71875 10.5938 12.2812
Q7.85938 18.8438 7.85938 30.2188
L7.85938 71.5781
L17.3281 71.5781
L17.3281 30.2812
Q17.3281 20.9531 19.0625 16.5312
Q20.7969 12.1094 25.0156 9.71875
Q29.25 7.32812 35.3594 7.32812
Q45.7969 7.32812 50.2344 12.0625
Q54.6875 16.7969 54.6875 30.2812
z
" id="ArialMT-55"/>
     <path d="
M21 0
L1.26562 51.8594
L10.5469 51.8594
L21.6875 20.7969
Q23.4844 15.7656 25 10.3594
Q26.1719 14.4531 28.2656 20.2188
L39.7969 51.8594
L48.8281 51.8594
L29.2031 0
z
" id="ArialMT-76"/>
    </defs>
    <g style="fill:#262626;" transform="translate(572.5534375 218.309375)scale(0.12 -0.12)">
     <use xlink:href="#ArialMT-53"/>
     <use x="66.69921875" xlink:href="#ArialMT-68"/>
     <use x="122.314453125" xlink:href="#ArialMT-6f"/>
     <use x="177.9296875" xlink:href="#ArialMT-6f"/>
     <use x="233.544921875" xlink:href="#ArialMT-74"/>
     <use x="261.328125" xlink:href="#ArialMT-20"/>
     <use x="289.111328125" xlink:href="#ArialMT-55"/>
     <use x="361.328125" xlink:href="#ArialMT-76"/>
    </g>
   </g>
  </g>
 </g>
 <defs>
  <clipPath id="pa61dcb5892">
   <rect height="154.1084375" width="210.2653125" x="268.80390625" y="20.789375"/>
  </clipPath>
  <clipPath id="pa691a7dfe0">
   <rect height="154.1084375" width="210.2653125" x="45.57859375" y="20.789375"/>
  </clipPath>
  <clipPath id="p99eb28ba72">
   <rect height="154.1084375" width="210.2653125" x="492.02921875" y="223.309375"/>
  </clipPath>
  <clipPath id="p4d13165c25">
   <rect height="154.1084375" width="210.2653125" x="45.57859375" y="223.309375"/>
  </clipPath>
  <clipPath id="p659f111a6e">
   <rect height="154.1084375" width="210.2653125" x="268.80390625" y="223.309375"/>
  </clipPath>
  <clipPath id="p3aeff855be">
   <rect height="154.1084375" width="210.2653125" x="492.02921875" y="20.789375"/>
  </clipPath>
 </defs>
</svg>
