<?xml version="1.0" encoding="utf-8" standalone="no"?>
<!DOCTYPE svg PUBLIC "-//W3C//DTD SVG 1.1//EN"
  "http://www.w3.org/Graphics/SVG/1.1/DTD/svg11.dtd">
<!-- Created with matplotlib (http://matplotlib.org/) -->
<svg height="421pt" version="1.1" viewBox="0 0 709 421" width="709pt" xmlns="http://www.w3.org/2000/svg" xmlns:xlink="http://www.w3.org/1999/xlink">
 <defs>
  <style type="text/css">
*{stroke-linecap:butt;stroke-linejoin:round;}
  </style>
 </defs>
 <g id="figure_1">
  <g id="patch_1">
   <path d="
M0 421.823
L709.495 421.823
L709.495 0
L0 0
z
" style="fill:#ffffff;"/>
  </g>
  <g id="axes_1">
   <g id="patch_2">
    <path d="
M45.5786 174.898
L255.844 174.898
L255.844 20.7894
L45.5786 20.7894
z
" style="fill:#ffffff;"/>
   </g>
   <g id="matplotlib.axis_1">
    <g id="xtick_1">
     <g id="line2d_1">
      <defs>
       <path d="
M0 0
L0 6" id="me1deecec79" style="stroke:#262626;"/>
      </defs>
      <g>
       <use style="fill:#262626;stroke:#262626;" x="82.1464741848" xlink:href="#me1deecec79" y="174.8978125"/>
      </g>
     </g>
     <g id="text_1">
      <!-- 10 -->
      <defs>
       <path d="
M4.15625 35.2969
Q4.15625 48 6.76562 55.7344
Q9.375 63.4844 14.5156 67.6719
Q19.6719 71.875 27.4844 71.875
Q33.25 71.875 37.5938 69.5469
Q41.9375 67.2344 44.7656 62.8594
Q47.6094 58.5 49.2188 52.2188
Q50.8281 45.9531 50.8281 35.2969
Q50.8281 22.7031 48.2344 14.9688
Q45.6562 7.23438 40.5 3
Q35.3594 -1.21875 27.4844 -1.21875
Q17.1406 -1.21875 11.2344 6.20312
Q4.15625 15.1406 4.15625 35.2969
M13.1875 35.2969
Q13.1875 17.6719 17.3125 11.8281
Q21.4375 6 27.4844 6
Q33.5469 6 37.6719 11.8594
Q41.7969 17.7188 41.7969 35.2969
Q41.7969 52.9844 37.6719 58.7812
Q33.5469 64.5938 27.3906 64.5938
Q21.3438 64.5938 17.7188 59.4688
Q13.1875 52.9375 13.1875 35.2969" id="ArialMT-30"/>
       <path d="
M37.25 0
L28.4688 0
L28.4688 56
Q25.2969 52.9844 20.1406 49.9531
Q14.9844 46.9219 10.8906 45.4062
L10.8906 53.9062
Q18.2656 57.375 23.7812 62.2969
Q29.2969 67.2344 31.5938 71.875
L37.25 71.875
z
" id="ArialMT-31"/>
      </defs>
      <g style="fill:#262626;" transform="translate(77.3691304348 195.055625)scale(0.1 -0.1)">
       <use xlink:href="#ArialMT-31"/>
       <use x="55.615234375" xlink:href="#ArialMT-30"/>
      </g>
     </g>
    </g>
    <g id="xtick_2">
     <g id="line2d_2">
      <g>
       <use style="fill:#262626;stroke:#262626;" x="127.856324728" xlink:href="#me1deecec79" y="174.8978125"/>
      </g>
     </g>
     <g id="text_2">
      <!-- 20 -->
      <defs>
       <path d="
M50.3438 8.45312
L50.3438 0
L3.03125 0
Q2.9375 3.17188 4.04688 6.10938
Q5.85938 10.9375 9.82812 15.625
Q13.8125 20.3125 21.3438 26.4688
Q33.0156 36.0312 37.1094 41.625
Q41.2188 47.2188 41.2188 52.2031
Q41.2188 57.4219 37.4688 61
Q33.7344 64.5938 27.7344 64.5938
Q21.3906 64.5938 17.5781 60.7812
Q13.7656 56.9844 13.7188 50.25
L4.6875 51.1719
Q5.60938 61.2812 11.6562 66.5781
Q17.7188 71.875 27.9375 71.875
Q38.2344 71.875 44.2344 66.1562
Q50.25 60.4531 50.25 52
Q50.25 47.7031 48.4844 43.5469
Q46.7344 39.4062 42.6562 34.8125
Q38.5781 30.2188 29.1094 22.2188
Q21.1875 15.5781 18.9375 13.2031
Q16.7031 10.8438 15.2344 8.45312
z
" id="ArialMT-32"/>
      </defs>
      <g style="fill:#262626;" transform="translate(122.681324728 195.055625)scale(0.1 -0.1)">
       <use xlink:href="#ArialMT-32"/>
       <use x="55.615234375" xlink:href="#ArialMT-30"/>
      </g>
     </g>
    </g>
    <g id="xtick_3">
     <g id="line2d_3">
      <g>
       <use style="fill:#262626;stroke:#262626;" x="173.566175272" xlink:href="#me1deecec79" y="174.8978125"/>
      </g>
     </g>
     <g id="text_3">
      <!-- 30 -->
      <defs>
       <path d="
M4.20312 18.8906
L12.9844 20.0625
Q14.5 12.5938 18.1406 9.29688
Q21.7812 6 27 6
Q33.2031 6 37.4688 10.2969
Q41.75 14.5938 41.75 20.9531
Q41.75 27 37.7969 30.9219
Q33.8438 34.8594 27.7344 34.8594
Q25.25 34.8594 21.5312 33.8906
L22.5156 41.6094
Q23.3906 41.5 23.9219 41.5
Q29.5469 41.5 34.0312 44.4219
Q38.5312 47.3594 38.5312 53.4688
Q38.5312 58.2969 35.25 61.4688
Q31.9844 64.6562 26.8125 64.6562
Q21.6875 64.6562 18.2656 61.4219
Q14.8438 58.2031 13.875 51.7656
L5.07812 53.3281
Q6.6875 62.1562 12.3906 67.0156
Q18.1094 71.875 26.6094 71.875
Q32.4688 71.875 37.3906 69.3594
Q42.3281 66.8438 44.9375 62.5
Q47.5625 58.1562 47.5625 53.2656
Q47.5625 48.6406 45.0625 44.8281
Q42.5781 41.0156 37.7031 38.7656
Q44.0469 37.3125 47.5625 32.6875
Q51.0781 28.0781 51.0781 21.1406
Q51.0781 11.7656 44.2344 5.25
Q37.4062 -1.26562 26.9531 -1.26562
Q17.5312 -1.26562 11.2969 4.34375
Q5.07812 9.96875 4.20312 18.8906" id="ArialMT-33"/>
      </defs>
      <g style="fill:#262626;" transform="translate(168.454456522 195.055625)scale(0.1 -0.1)">
       <use xlink:href="#ArialMT-33"/>
       <use x="55.615234375" xlink:href="#ArialMT-30"/>
      </g>
     </g>
    </g>
    <g id="xtick_4">
     <g id="line2d_4">
      <g>
       <use style="fill:#262626;stroke:#262626;" x="219.276025815" xlink:href="#me1deecec79" y="174.8978125"/>
      </g>
     </g>
     <g id="text_4">
      <!-- 40 -->
      <defs>
       <path d="
M32.3281 0
L32.3281 17.1406
L1.26562 17.1406
L1.26562 25.2031
L33.9375 71.5781
L41.1094 71.5781
L41.1094 25.2031
L50.7812 25.2031
L50.7812 17.1406
L41.1094 17.1406
L41.1094 0
z

M32.3281 25.2031
L32.3281 57.4688
L9.90625 25.2031
z
" id="ArialMT-34"/>
      </defs>
      <g style="fill:#262626;" transform="translate(214.017432065 195.055625)scale(0.1 -0.1)">
       <use xlink:href="#ArialMT-34"/>
       <use x="55.615234375" xlink:href="#ArialMT-30"/>
      </g>
     </g>
    </g>
   </g>
   <g id="matplotlib.axis_2">
    <g id="ytick_1">
     <g id="line2d_5">
      <defs>
       <path d="
M0 0
L-6 0" id="m4aded61697" style="stroke:#262626;"/>
      </defs>
      <g>
       <use style="fill:#262626;stroke:#262626;" x="45.57859375" xlink:href="#m4aded61697" y="170.183191895"/>
      </g>
     </g>
     <g id="text_5">
      <!-- −2 -->
      <defs>
       <path d="
M52.8281 31.2031
L5.5625 31.2031
L5.5625 39.4062
L52.8281 39.4062
z
" id="ArialMT-2212"/>
      </defs>
      <g style="fill:#262626;" transform="translate(22.25984375 172.768348145)scale(0.1 -0.1)">
       <use xlink:href="#ArialMT-2212"/>
       <use x="58.3984375" xlink:href="#ArialMT-32"/>
      </g>
     </g>
    </g>
    <g id="ytick_2">
     <g id="line2d_6">
      <g>
       <use style="fill:#262626;stroke:#262626;" x="45.57859375" xlink:href="#m4aded61697" y="135.39271924"/>
      </g>
     </g>
     <g id="text_6">
      <!-- −1 -->
      <g style="fill:#262626;" transform="translate(23.56921875 137.97787549)scale(0.1 -0.1)">
       <use xlink:href="#ArialMT-2212"/>
       <use x="58.3984375" xlink:href="#ArialMT-31"/>
      </g>
     </g>
    </g>
    <g id="ytick_3">
     <g id="line2d_7">
      <g>
       <use style="fill:#262626;stroke:#262626;" x="45.57859375" xlink:href="#m4aded61697" y="100.602246585"/>
      </g>
     </g>
     <g id="text_7">
      <!-- 0 -->
      <g style="fill:#262626;" transform="translate(27.91140625 103.187402835)scale(0.1 -0.1)">
       <use xlink:href="#ArialMT-30"/>
      </g>
     </g>
    </g>
    <g id="ytick_4">
     <g id="line2d_8">
      <g>
       <use style="fill:#262626;stroke:#262626;" x="45.57859375" xlink:href="#m4aded61697" y="65.81177393"/>
      </g>
     </g>
     <g id="text_8">
      <!-- 1 -->
      <g style="fill:#262626;" transform="translate(29.94265625 68.39693018)scale(0.1 -0.1)">
       <use xlink:href="#ArialMT-31"/>
      </g>
     </g>
    </g>
    <g id="ytick_5">
     <g id="line2d_9">
      <g>
       <use style="fill:#262626;stroke:#262626;" x="45.57859375" xlink:href="#m4aded61697" y="31.021301275"/>
      </g>
     </g>
     <g id="text_9">
      <!-- 2 -->
      <g style="fill:#262626;" transform="translate(27.83796875 33.606457525)scale(0.1 -0.1)">
       <use xlink:href="#ArialMT-32"/>
      </g>
     </g>
    </g>
    <g id="text_10">
     <!-- Expression -->
     <defs>
      <path d="
M7.90625 0
L7.90625 71.5781
L59.6719 71.5781
L59.6719 63.1406
L17.3906 63.1406
L17.3906 41.2188
L56.9844 41.2188
L56.9844 32.8125
L17.3906 32.8125
L17.3906 8.45312
L61.3281 8.45312
L61.3281 0
z
" id="ArialMT-45"/>
      <path d="
M6.59375 -19.875
L6.59375 51.8594
L14.5938 51.8594
L14.5938 45.125
Q17.4375 49.0781 21 51.0469
Q24.5625 53.0312 29.6406 53.0312
Q36.2812 53.0312 41.3594 49.6094
Q46.4375 46.1875 49.0156 39.9531
Q51.6094 33.7344 51.6094 26.3125
Q51.6094 18.3594 48.75 11.9844
Q45.9062 5.60938 40.4531 2.21875
Q35.0156 -1.17188 29 -1.17188
Q24.6094 -1.17188 21.1094 0.6875
Q17.625 2.54688 15.375 5.375
L15.375 -19.875
z

M14.5469 25.6406
Q14.5469 15.625 18.5938 10.8438
Q22.6562 6.0625 28.4219 6.0625
Q34.2812 6.0625 38.4531 11.0156
Q42.625 15.9688 42.625 26.375
Q42.625 36.2812 38.5469 41.2031
Q34.4688 46.1406 28.8125 46.1406
Q23.1875 46.1406 18.8594 40.8906
Q14.5469 35.6406 14.5469 25.6406" id="ArialMT-70"/>
      <path d="
M3.32812 25.9219
Q3.32812 40.3281 11.3281 47.2656
Q18.0156 53.0312 27.6406 53.0312
Q38.3281 53.0312 45.1094 46.0156
Q51.9062 39.0156 51.9062 26.6562
Q51.9062 16.6562 48.9062 10.9062
Q45.9062 5.17188 40.1562 2
Q34.4219 -1.17188 27.6406 -1.17188
Q16.75 -1.17188 10.0312 5.8125
Q3.32812 12.7969 3.32812 25.9219
M12.3594 25.9219
Q12.3594 15.9688 16.7031 11.0156
Q21.0469 6.0625 27.6406 6.0625
Q34.1875 6.0625 38.5312 11.0312
Q42.875 16.0156 42.875 26.2188
Q42.875 35.8438 38.5 40.7969
Q34.125 45.75 27.6406 45.75
Q21.0469 45.75 16.7031 40.8125
Q12.3594 35.8906 12.3594 25.9219" id="ArialMT-6f"/>
      <path d="
M0.734375 0
L19.6719 26.9531
L2.15625 51.8594
L13.1406 51.8594
L21.0938 39.7031
Q23.3438 36.2344 24.7031 33.8906
Q26.8594 37.1094 28.6562 39.5938
L37.4062 51.8594
L47.9062 51.8594
L29.9844 27.4375
L49.2656 0
L38.4844 0
L27.8281 16.1094
L25 20.4531
L11.375 0
z
" id="ArialMT-78"/>
      <path d="
M6.64062 61.4688
L6.64062 71.5781
L15.4375 71.5781
L15.4375 61.4688
z

M6.64062 0
L6.64062 51.8594
L15.4375 51.8594
L15.4375 0
z
" id="ArialMT-69"/>
      <path d="
M3.07812 15.4844
L11.7656 16.8438
Q12.5 11.625 15.8438 8.84375
Q19.1875 6.0625 25.2031 6.0625
Q31.25 6.0625 34.1719 8.51562
Q37.1094 10.9844 37.1094 14.3125
Q37.1094 17.2812 34.5156 19
Q32.7188 20.1719 25.5312 21.9688
Q15.875 24.4219 12.1406 26.2031
Q8.40625 27.9844 6.46875 31.125
Q4.54688 34.2812 4.54688 38.0938
Q4.54688 41.5469 6.125 44.5
Q7.71875 47.4688 10.4531 49.4219
Q12.5 50.9219 16.0312 51.9688
Q19.5781 53.0312 23.6406 53.0312
Q29.7344 53.0312 34.3438 51.2656
Q38.9688 49.5156 41.1562 46.5
Q43.3594 43.5 44.1875 38.4844
L35.5938 37.3125
Q35.0156 41.3125 32.2031 43.5469
Q29.3906 45.7969 24.2656 45.7969
Q18.2188 45.7969 15.625 43.7969
Q13.0312 41.7969 13.0312 39.1094
Q13.0312 37.4062 14.1094 36.0312
Q15.1875 34.625 17.4844 33.6875
Q18.7969 33.2031 25.25 31.4531
Q34.5781 28.9531 38.25 27.3594
Q41.9375 25.7812 44.0312 22.75
Q46.1406 19.7344 46.1406 15.2344
Q46.1406 10.8438 43.5781 6.95312
Q41.0156 3.07812 36.1719 0.953125
Q31.3438 -1.17188 25.25 -1.17188
Q15.1406 -1.17188 9.84375 3.03125
Q4.54688 7.23438 3.07812 15.4844" id="ArialMT-73"/>
      <path d="
M6.59375 0
L6.59375 51.8594
L14.5 51.8594
L14.5 44.4844
Q20.2188 53.0312 31 53.0312
Q35.6875 53.0312 39.625 51.3438
Q43.5625 49.6562 45.5156 46.9219
Q47.4688 44.1875 48.25 40.4375
Q48.7344 37.9844 48.7344 31.8906
L48.7344 0
L39.9375 0
L39.9375 31.5469
Q39.9375 36.9219 38.9062 39.5781
Q37.8906 42.2344 35.2812 43.8125
Q32.6719 45.4062 29.1562 45.4062
Q23.5312 45.4062 19.4531 41.8438
Q15.375 38.2812 15.375 28.3281
L15.375 0
z
" id="ArialMT-6e"/>
      <path d="
M6.5 0
L6.5 51.8594
L14.4062 51.8594
L14.4062 44
Q17.4375 49.5156 20 51.2656
Q22.5625 53.0312 25.6406 53.0312
Q30.0781 53.0312 34.6719 50.2031
L31.6406 42.0469
Q28.4219 43.9531 25.2031 43.9531
Q22.3125 43.9531 20.0156 42.2188
Q17.7188 40.4844 16.75 37.4062
Q15.2812 32.7188 15.2812 27.1562
L15.2812 0
z
" id="ArialMT-72"/>
      <path d="
M42.0938 16.7031
L51.1719 15.5781
Q49.0312 7.625 43.2188 3.21875
Q37.4062 -1.17188 28.375 -1.17188
Q17 -1.17188 10.3281 5.82812
Q3.65625 12.8438 3.65625 25.4844
Q3.65625 38.5781 10.3906 45.7969
Q17.1406 53.0312 27.875 53.0312
Q38.2812 53.0312 44.875 45.9531
Q51.4688 38.875 51.4688 26.0312
Q51.4688 25.25 51.4219 23.6875
L12.75 23.6875
Q13.2344 15.1406 17.5781 10.5938
Q21.9219 6.0625 28.4219 6.0625
Q33.25 6.0625 36.6719 8.59375
Q40.0938 11.1406 42.0938 16.7031
M13.2344 30.9062
L42.1875 30.9062
Q41.6094 37.4531 38.875 40.7188
Q34.6719 45.7969 27.9844 45.7969
Q21.9219 45.7969 17.7969 41.75
Q13.6719 37.7031 13.2344 30.9062" id="ArialMT-65"/>
     </defs>
     <g style="fill:#262626;" transform="translate(15.07359375 124.23671875)rotate(-90.0)scale(0.11 -0.11)">
      <use xlink:href="#ArialMT-45"/>
      <use x="66.69921875" xlink:href="#ArialMT-78"/>
      <use x="116.69921875" xlink:href="#ArialMT-70"/>
      <use x="172.314453125" xlink:href="#ArialMT-72"/>
      <use x="205.615234375" xlink:href="#ArialMT-65"/>
      <use x="261.23046875" xlink:href="#ArialMT-73"/>
      <use x="311.23046875" xlink:href="#ArialMT-73"/>
      <use x="361.23046875" xlink:href="#ArialMT-69"/>
      <use x="383.447265625" xlink:href="#ArialMT-6f"/>
      <use x="439.0625" xlink:href="#ArialMT-6e"/>
     </g>
    </g>
   </g>
   <g id="line2d_10">
    <path clip-path="url(#pa691a7dfe0)" d="
M45.5786 140.901
L54.7206 144.094
L63.8625 151.509
L73.0045 149.7
L82.1465 150.891
L91.2884 147.847
L100.43 137.112
L109.572 129.159
L118.714 120.462
L127.856 104.44
L136.998 82.729
L146.14 67.4851
L155.282 48.7018
L164.424 50.7481
L173.566 59.092
L182.708 69.715
L191.85 80.7222
L200.992 89.5546
L210.134 81.2178
L219.276 78.1539
L228.418 84.5835
L237.56 84.9417
L246.702 78.0318
L255.844 82.6622" style="fill:none;stroke:#d9544d;stroke-linecap:round;"/>
   </g>
   <g id="line2d_11">
    <path clip-path="url(#pa691a7dfe0)" d="
M45.5786 124.807
L54.7206 140.35
L63.8625 158.71
L73.0045 162.816
L82.1465 150.994
L91.2884 136.174
L100.43 131.725
L109.572 121.53
L118.714 121.12
L127.856 130.335
L136.998 108.677
L146.14 76.3782
L155.282 56.6595
L164.424 58.2221
L173.566 71.3449
L182.708 85.6622
L191.85 78.4175
L200.992 70.5769
L210.134 69.0006
L219.276 71.2713
L228.418 73.0611
L237.56 74.8203
L246.702 68.5313
L255.844 73.271" style="fill:none;stroke:#d9544d;stroke-linecap:round;"/>
   </g>
   <g id="line2d_12">
    <path clip-path="url(#pa691a7dfe0)" d="
M45.5786 126.221
L54.7206 130.778
L63.8625 143.283
L73.0045 150.674
L82.1465 140.099
L91.2884 139.938
L100.43 141.274
L109.572 145.773
L118.714 137.341
L127.856 123.028
L136.998 96.57
L146.14 71.9694
L155.282 40.5956
L164.424 43.9708
L173.566 59.1646
L182.708 69.6339
L191.85 76.3765
L200.992 78.0531
L210.134 75.9548
L219.276 83.1258
L228.418 85.956
L237.56 85.6656
L246.702 83.086
L255.844 85.9221" style="fill:none;stroke:#d9544d;stroke-linecap:round;"/>
   </g>
   <g id="line2d_13">
    <path clip-path="url(#pa691a7dfe0)" d="
M45.5786 95.7007
L54.7206 120.381
L63.8625 142.543
L73.0045 153.124
L82.1465 156.296
L91.2884 159.433
L100.43 149.873
L109.572 134.669
L118.714 120.147
L127.856 112.187
L136.998 95.1213
L146.14 77.281
L155.282 45.2891
L164.424 42.0695
L173.566 56.5399
L182.708 69.1582
L191.85 73.2387
L200.992 76.9038
L210.134 81.3107
L219.276 89.0632
L228.418 95.8433
L237.56 92.7592
L246.702 84.6453
L255.844 90.8786" style="fill:none;stroke:#d9544d;stroke-linecap:round;"/>
   </g>
   <g id="line2d_14">
    <path clip-path="url(#pa691a7dfe0)" d="
M45.5786 141.214
L54.7206 140.99
L63.8625 144.944
L73.0045 149.917
L82.1465 147.413
L91.2884 140.961
L100.43 139.452
L109.572 137.636
L118.714 124.459
L127.856 116.4
L136.998 102.643
L146.14 84.7395
L155.282 54.9825
L164.424 50.5802
L173.566 57.6861
L182.708 61.8622
L191.85 69.9816
L200.992 76.2814
L210.134 74.1912
L219.276 77.4578
L228.418 80.0918
L237.56 83.8284
L246.702 80.075
L255.844 76.6667" style="fill:none;stroke:#d9544d;stroke-linecap:round;"/>
   </g>
   <g id="line2d_15">
    <path clip-path="url(#pa691a7dfe0)" d="
M45.5786 124.627
L54.7206 130.872
L63.8625 138.856
L73.0045 139.24
L82.1465 145.139
L91.2884 155.188
L100.43 151.543
L109.572 143.204
L118.714 131.779
L127.856 114.058
L136.998 80.8738
L146.14 63.2788
L155.282 52.7359
L164.424 48.9604
L173.566 55.2866
L182.708 60.64
L191.85 66.2775
L200.992 86.0546
L210.134 86.1545
L219.276 81.5083
L228.418 90.2025
L237.56 92.9056
L246.702 87.7601
L255.844 87.3098" style="fill:none;stroke:#d9544d;stroke-linecap:round;"/>
   </g>
   <g id="line2d_16">
    <path clip-path="url(#pa691a7dfe0)" d="
M45.5786 137.832
L54.7206 139.021
L63.8625 144.114
L73.0045 150.102
L82.1465 147.174
L91.2884 143.116
L100.43 140.937
L109.572 135.003
L118.714 129.353
L127.856 120.277
L136.998 97.1164
L146.14 79.4837
L155.282 58.9178
L164.424 51.0895
L173.566 56.5066
L182.708 66.1634
L191.85 66.7787
L200.992 72.158
L210.134 68.8768
L219.276 71.0709
L228.418 80.3211
L237.56 87.1786
L246.702 85.1123
L255.844 86.7512" style="fill:none;stroke:#d9544d;stroke-linecap:round;"/>
   </g>
   <g id="line2d_17">
    <path clip-path="url(#pa691a7dfe0)" d="
M45.5786 137.26
L54.7206 140.766
L63.8625 150.079
L73.0045 150.887
L82.1465 149.319
L91.2884 145.424
L100.43 141.636
L109.572 130.876
L118.714 125.024
L127.856 115.695
L136.998 93.8964
L146.14 74.3764
L155.282 55.2669
L164.424 55.1332
L173.566 59.2271
L182.708 63.7862
L191.85 68.3022
L200.992 76.3536
L210.134 77.3932
L219.276 81.0545
L228.418 79.8034
L237.56 78.4137
L246.702 78.7386
L255.844 85.744" style="fill:none;stroke:#d9544d;stroke-linecap:round;"/>
   </g>
   <g id="line2d_18">
    <path clip-path="url(#pa691a7dfe0)" d="
M45.5786 148.004
L54.7206 152.604
L63.8625 151.955
L73.0045 144.623
L82.1465 140.795
L91.2884 134.87
L100.43 137.889
L109.572 130.767
L118.714 114.354
L127.856 102.801
L136.998 84.7114
L146.14 64.865
L155.282 35.4153
L164.424 42.4953
L173.566 66.8516
L182.708 84.1466
L191.85 79.7572
L200.992 73.1238
L210.134 77.2199
L219.276 91.8226
L228.418 90.8714
L237.56 86.0955
L246.702 82.6761
L255.844 95.7415" style="fill:none;stroke:#d9544d;stroke-linecap:round;"/>
   </g>
   <g id="line2d_19">
    <path clip-path="url(#pa691a7dfe0)" d="
M45.5786 123.384
L54.7206 132.473
L63.8625 151.121
L73.0045 155.742
L82.1465 154.878
L91.2884 146.904
L100.43 137.957
L109.572 128.251
L118.714 120.979
L127.856 121.823
L136.998 103.165
L146.14 74.936
L155.282 57.2221
L164.424 58.1886
L173.566 63.7268
L182.708 75.4018
L191.85 65.577
L200.992 63.6935
L210.134 67.4518
L219.276 67.0529
L228.418 75.0057
L237.56 75.6554
L246.702 88.6431
L255.844 105.222" style="fill:none;stroke:#d9544d;stroke-linecap:round;"/>
   </g>
   <g id="line2d_20">
    <path clip-path="url(#pa691a7dfe0)" d="
M45.5786 135.575
L54.7206 147.036
L63.8625 145.938
L73.0045 144.05
L82.1465 145.886
L91.2884 143.087
L100.43 137.748
L109.572 128.858
L118.714 123.068
L127.856 120.056
L136.998 94.3688
L146.14 74.1516
L155.282 54.1228
L164.424 42.3557
L173.566 44.9407
L182.708 62.5804
L191.85 71.4361
L200.992 83.022
L210.134 74.449
L219.276 77.7667
L228.418 92.4558
L237.56 94.1314
L246.702 86.8408
L255.844 90.531" style="fill:none;stroke:#d9544d;stroke-linecap:round;"/>
   </g>
   <g id="line2d_21">
    <path clip-path="url(#pa691a7dfe0)" d="
M45.5786 136.419
L54.7206 143.618
L63.8625 142.172
L73.0045 136.758
L82.1465 138.817
L91.2884 146.372
L100.43 144.75
L109.572 142.444
L118.714 135.922
L127.856 123.55
L136.998 108.825
L146.14 87.1306
L155.282 63.195
L164.424 61.3117
L173.566 65.8859
L182.708 70.762
L191.85 77.1697
L200.992 81.8965
L210.134 70.0769
L219.276 65.6758
L228.418 68.1709
L237.56 68.4921
L246.702 63.5862
L255.844 71.454" style="fill:none;stroke:#d9544d;stroke-linecap:round;"/>
   </g>
   <g id="line2d_22">
    <path clip-path="url(#pa691a7dfe0)" d="
M45.5786 143.553
L54.7206 141.85
L63.8625 147.276
L73.0045 149.909
L82.1465 149.958
L91.2884 146.712
L100.43 139.927
L109.572 131.589
L118.714 118.693
L127.856 101.633
L136.998 80.2057
L146.14 69.1129
L155.282 52.7214
L164.424 49.2353
L173.566 54.3777
L182.708 61.5891
L191.85 73.1952
L200.992 86.1416
L210.134 81.2704
L219.276 81.3176
L228.418 87.8323
L237.56 89.1158
L246.702 88.118
L255.844 89.1226" style="fill:none;stroke:#d9544d;stroke-linecap:round;"/>
   </g>
   <g id="line2d_23">
    <path clip-path="url(#pa691a7dfe0)" d="
M45.5786 146.094
L54.7206 141.329
L63.8625 139.012
L73.0045 139.976
L82.1465 138.82
L91.2884 137.071
L100.43 140.328
L109.572 145.864
L118.714 138.892
L127.856 123.281
L136.998 105.363
L146.14 90.9904
L155.282 70.7813
L164.424 62.5916
L173.566 61.4354
L182.708 56.8373
L191.85 60.9565
L200.992 73.4456
L210.134 68.859
L219.276 68.6188
L228.418 71.9944
L237.56 76.621
L246.702 76.8356
L255.844 78.4569" style="fill:none;stroke:#d9544d;stroke-linecap:round;"/>
   </g>
   <g id="line2d_24">
    <path clip-path="url(#pa691a7dfe0)" d="
M45.5786 136.589
L54.7206 141.101
L63.8625 152.049
L73.0045 149.443
L82.1465 145.24
L91.2884 145.542
L100.43 143.82
L109.572 135.751
L118.714 128.388
L127.856 115.799
L136.998 99.2031
L146.14 84.7356
L155.282 70.2791
L164.424 65.6743
L173.566 67.6925
L182.708 70.0993
L191.85 69.7739
L200.992 74.2977
L210.134 70.2482
L219.276 66.0754
L228.418 69.3854
L237.56 72.1309
L246.702 69.7565
L255.844 71.3798" style="fill:none;stroke:#d9544d;stroke-linecap:round;"/>
   </g>
   <g id="line2d_25">
    <path clip-path="url(#pa691a7dfe0)" d="
M45.5786 133.834
L54.7206 136.714
L63.8625 148.268
L73.0045 156.454
L82.1465 152.291
L91.2884 145.332
L100.43 136.223
L109.572 120.877
L118.714 111.898
L127.856 107.368
L136.998 88.0598
L146.14 71.6612
L155.282 38.1638
L164.424 38.8146
L173.566 60.3611
L182.708 76.0373
L191.85 74.4032
L200.992 71.1043
L210.134 74.8323
L219.276 85.8391
L228.418 96.243
L237.56 102.153
L246.702 90.1852
L255.844 97.3375" style="fill:none;stroke:#d9544d;stroke-linecap:round;"/>
   </g>
   <g id="line2d_26">
    <path clip-path="url(#pa691a7dfe0)" d="
M45.5786 143.503
L54.7206 147.328
L63.8625 151.606
L73.0045 148.918
L82.1465 146.307
L91.2884 145.161
L100.43 139.64
L109.572 125.319
L118.714 119.496
L127.856 123.493
L136.998 102.648
L146.14 82.9902
L155.282 71.1807
L164.424 65.7305
L173.566 69.9104
L182.708 72.8768
L191.85 73.0786
L200.992 76.0142
L210.134 69.3997
L219.276 65.7898
L228.418 68.041
L237.56 71.9364
L246.702 67.279
L255.844 66.807" style="fill:none;stroke:#d9544d;stroke-linecap:round;"/>
   </g>
   <g id="line2d_27">
    <path clip-path="url(#pa691a7dfe0)" d="
M45.5786 150.436
L54.7206 149.079
L63.8625 143.981
L73.0045 133.959
L82.1465 137.362
L91.2884 141.576
L100.43 138.709
L109.572 131.097
L118.714 128.318
L127.856 122.613
L136.998 118.993
L146.14 100.988
L155.282 77.3848
L164.424 67.2287
L173.566 62.2674
L182.708 61.5295
L191.85 66.2442
L200.992 70.4919
L210.134 60.9044
L219.276 63.4026
L228.418 69.3557
L237.56 69.8674
L246.702 72.0308
L255.844 76.6346" style="fill:none;stroke:#d9544d;stroke-linecap:round;"/>
   </g>
   <g id="line2d_28">
    <path clip-path="url(#pa691a7dfe0)" d="
M45.5786 128.423
L54.7206 134.012
L63.8625 150.182
L73.0045 157.563
L82.1465 154.482
L91.2884 145.738
L100.43 138.397
L109.572 127.778
L118.714 119.274
L127.856 112
L136.998 91.1503
L146.14 72.5846
L155.282 52.028
L164.424 46.3342
L173.566 54.2729
L182.708 63.6769
L191.85 66.6401
L200.992 77.4044
L210.134 78.2677
L219.276 83.7086
L228.418 88.5059
L237.56 89.5048
L246.702 86.1782
L255.844 96.3487" style="fill:none;stroke:#d9544d;stroke-linecap:round;"/>
   </g>
   <g id="line2d_29">
    <path clip-path="url(#pa691a7dfe0)" d="
M45.5786 125.676
L54.7206 136.735
L63.8625 146.107
L73.0045 149.691
L82.1465 155.367
L91.2884 151.461
L100.43 144.039
L109.572 132.888
L118.714 128.388
L127.856 120.838
L136.998 98.58
L146.14 84.3885
L155.282 71.4385
L164.424 66.5403
L173.566 69.7567
L182.708 77.132
L191.85 78.3134
L200.992 75.2802
L210.134 65.997
L219.276 63.0583
L228.418 67.9625
L237.56 69.061
L246.702 68.4066
L255.844 67.349" style="fill:none;stroke:#d9544d;stroke-linecap:round;"/>
   </g>
   <g id="line2d_30">
    <path clip-path="url(#pa691a7dfe0)" d="
M45.5786 144.069
L54.7206 144.075
L63.8625 144.908
L73.0045 146.893
L82.1465 145.483
L91.2884 143.263
L100.43 139.398
L109.572 130.878
L118.714 126.559
L127.856 121.946
L136.998 107.136
L146.14 91.8254
L155.282 74.8184
L164.424 70.4704
L173.566 73.9974
L182.708 74.8942
L191.85 78.0828
L200.992 76.5873
L210.134 66.1462
L219.276 63.9295
L228.418 64.6147
L237.56 63.4869
L246.702 59.622
L255.844 61.3706" style="fill:none;stroke:#d9544d;stroke-linecap:round;"/>
   </g>
   <g id="line2d_31">
    <path clip-path="url(#pa691a7dfe0)" d="
M45.5786 143.985
L54.7206 147.382
L63.8625 151.998
L73.0045 151.34
L82.1465 150.273
L91.2884 145.602
L100.43 140.151
L109.572 130.577
L118.714 117.602
L127.856 108.72
L136.998 92.8284
L146.14 81.188
L155.282 65.4739
L164.424 61.6605
L173.566 64.1016
L182.708 71.0917
L191.85 75.1915
L200.992 78.9494
L210.134 69.274
L219.276 67.2015
L228.418 73.9871
L237.56 77.1534
L246.702 72.8331
L255.844 75.8891" style="fill:none;stroke:#d9544d;stroke-linecap:round;"/>
   </g>
   <g id="line2d_32">
    <path clip-path="url(#pa691a7dfe0)" d="
M45.5786 142.788
L54.7206 135.78
L63.8625 149.249
L73.0045 160.402
L82.1465 150.84
L91.2884 142.108
L100.43 138.286
L109.572 126.809
L118.714 115.324
L127.856 104.038
L136.998 91.4263
L146.14 86.0664
L155.282 54.8911
L164.424 49.743
L173.566 59.1892
L182.708 60.4358
L191.85 59.1486
L200.992 68.5639
L210.134 82.9827
L219.276 87.5169
L228.418 88.2443
L237.56 88.8475
L246.702 81.0651
L255.844 90.7085" style="fill:none;stroke:#d9544d;stroke-linecap:round;"/>
   </g>
   <g id="line2d_33">
    <path clip-path="url(#pa691a7dfe0)" d="
M45.5786 89.8309
L54.7206 124.986
L63.8625 144.927
L73.0045 153.164
L82.1465 153.801
L91.2884 153.557
L100.43 141.721
L109.572 123.23
L118.714 117.827
L127.856 113.109
L136.998 88.3958
L146.14 52.2831
L155.282 26.4971
L164.424 43.5188
L173.566 62.687
L182.708 79.0254
L191.85 76.8389
L200.992 85.04
L210.134 102.081
L219.276 102.88
L228.418 97.791
L237.56 96.4017
L246.702 92.0815
L255.844 92.7808" style="fill:none;stroke:#d9544d;stroke-linecap:round;"/>
   </g>
   <g id="patch_3">
    <path d="
M45.5786 174.898
L45.5786 20.7894" style="fill:none;stroke:#262626;stroke-linecap:square;stroke-linejoin:miter;stroke-width:1.25;"/>
   </g>
   <g id="patch_4">
    <path d="
M45.5786 174.898
L255.844 174.898" style="fill:none;stroke:#262626;stroke-linecap:square;stroke-linejoin:miter;stroke-width:1.25;"/>
   </g>
   <g id="text_11">
    <!-- Botrytis -->
    <defs>
     <path d="
M7.32812 0
L7.32812 71.5781
L34.1875 71.5781
Q42.3906 71.5781 47.3438 69.4062
Q52.2969 67.2344 55.0938 62.7188
Q57.9062 58.2031 57.9062 53.2656
Q57.9062 48.6875 55.4219 44.625
Q52.9375 40.5781 47.9062 38.0938
Q54.3906 36.1875 57.875 31.5938
Q61.375 27 61.375 20.75
Q61.375 15.7188 59.25 11.3906
Q57.125 7.07812 54 4.73438
Q50.875 2.39062 46.1562 1.1875
Q41.4531 0 34.625 0
z

M16.7969 41.5
L32.2812 41.5
Q38.5781 41.5 41.3125 42.3281
Q44.9219 43.4062 46.75 45.8906
Q48.5781 48.3906 48.5781 52.1562
Q48.5781 55.7188 46.875 58.4219
Q45.1719 61.1406 41.9844 62.1406
Q38.8125 63.1406 31.1094 63.1406
L16.7969 63.1406
z

M16.7969 8.45312
L34.625 8.45312
Q39.2031 8.45312 41.0625 8.79688
Q44.3438 9.375 46.5312 10.7344
Q48.7344 12.1094 50.1406 14.7188
Q51.5625 17.3281 51.5625 20.75
Q51.5625 24.75 49.5156 27.7031
Q47.4688 30.6719 43.8281 31.8594
Q40.1875 33.0625 33.3438 33.0625
L16.7969 33.0625
z
" id="ArialMT-42"/>
     <path d="
M6.20312 -19.9688
L5.21875 -11.7188
Q8.10938 -12.5 10.25 -12.5
Q13.1875 -12.5 14.9375 -11.5156
Q16.7031 -10.5469 17.8281 -8.79688
Q18.6562 -7.46875 20.5156 -2.25
Q20.75 -1.51562 21.2969 -0.09375
L1.60938 51.8594
L11.0781 51.8594
L21.875 21.8281
Q23.9688 16.1094 25.6406 9.8125
Q27.1562 15.875 29.25 21.625
L40.3281 51.8594
L49.125 51.8594
L29.3906 -0.875
Q26.2188 -9.42188 24.4688 -12.6406
Q22.125 -17 19.0938 -19.0156
Q16.0625 -21.0469 11.8594 -21.0469
Q9.32812 -21.0469 6.20312 -19.9688" id="ArialMT-79"/>
     <path d="
M25.7812 7.85938
L27.0469 0.09375
Q23.3438 -0.6875 20.4062 -0.6875
Q15.625 -0.6875 12.9844 0.828125
Q10.3594 2.34375 9.28125 4.8125
Q8.20312 7.28125 8.20312 15.1875
L8.20312 45.0156
L1.76562 45.0156
L1.76562 51.8594
L8.20312 51.8594
L8.20312 64.7031
L16.9375 69.9688
L16.9375 51.8594
L25.7812 51.8594
L25.7812 45.0156
L16.9375 45.0156
L16.9375 14.7031
Q16.9375 10.9375 17.4062 9.85938
Q17.875 8.79688 18.9219 8.15625
Q19.9688 7.51562 21.9219 7.51562
Q23.3906 7.51562 25.7812 7.85938" id="ArialMT-74"/>
    </defs>
    <g style="fill:#262626;" transform="translate(131.3790625 15.789375)scale(0.12 -0.12)">
     <use xlink:href="#ArialMT-42"/>
     <use x="66.69921875" xlink:href="#ArialMT-6f"/>
     <use x="122.314453125" xlink:href="#ArialMT-74"/>
     <use x="150.09765625" xlink:href="#ArialMT-72"/>
     <use x="183.3984375" xlink:href="#ArialMT-79"/>
     <use x="233.3984375" xlink:href="#ArialMT-74"/>
     <use x="261.181640625" xlink:href="#ArialMT-69"/>
     <use x="283.3984375" xlink:href="#ArialMT-73"/>
    </g>
   </g>
  </g>
  <g id="axes_2">
   <g id="patch_5">
    <path d="
M268.804 174.898
L479.069 174.898
L479.069 20.7894
L268.804 20.7894
z
" style="fill:#ffffff;"/>
   </g>
   <g id="matplotlib.axis_3">
    <g id="xtick_5">
     <g id="line2d_34">
      <g>
       <use style="fill:#262626;stroke:#262626;" x="279.317171875" xlink:href="#me1deecec79" y="174.8978125"/>
      </g>
     </g>
     <g id="text_12">
      <!-- 20 -->
      <g style="fill:#262626;" transform="translate(274.142171875 195.055625)scale(0.1 -0.1)">
       <use xlink:href="#ArialMT-32"/>
       <use x="55.615234375" xlink:href="#ArialMT-30"/>
      </g>
     </g>
    </g>
    <g id="xtick_6">
     <g id="line2d_35">
      <g>
       <use style="fill:#262626;stroke:#262626;" x="331.8835" xlink:href="#me1deecec79" y="174.8978125"/>
      </g>
     </g>
     <g id="text_13">
      <!-- 25 -->
      <defs>
       <path d="
M4.15625 18.75
L13.375 19.5312
Q14.4062 12.7969 18.1406 9.39062
Q21.875 6 27.1562 6
Q33.5 6 37.8906 10.7812
Q42.2812 15.5781 42.2812 23.4844
Q42.2812 31 38.0625 35.3438
Q33.8438 39.7031 27 39.7031
Q22.75 39.7031 19.3281 37.7656
Q15.9219 35.8438 13.9688 32.7656
L5.71875 33.8438
L12.6406 70.6094
L48.25 70.6094
L48.25 62.2031
L19.6719 62.2031
L15.8281 42.9688
Q22.2656 47.4688 29.3438 47.4688
Q38.7188 47.4688 45.1562 40.9688
Q51.6094 34.4688 51.6094 24.2656
Q51.6094 14.5469 45.9531 7.46875
Q39.0625 -1.21875 27.1562 -1.21875
Q17.3906 -1.21875 11.2031 4.25
Q5.03125 9.71875 4.15625 18.75" id="ArialMT-35"/>
      </defs>
      <g style="fill:#262626;" transform="translate(326.6694375 195.055625)scale(0.1 -0.1)">
       <use xlink:href="#ArialMT-32"/>
       <use x="55.615234375" xlink:href="#ArialMT-35"/>
      </g>
     </g>
    </g>
    <g id="xtick_7">
     <g id="line2d_36">
      <g>
       <use style="fill:#262626;stroke:#262626;" x="384.449828125" xlink:href="#me1deecec79" y="174.8978125"/>
      </g>
     </g>
     <g id="text_14">
      <!-- 30 -->
      <g style="fill:#262626;" transform="translate(379.338109375 195.055625)scale(0.1 -0.1)">
       <use xlink:href="#ArialMT-33"/>
       <use x="55.615234375" xlink:href="#ArialMT-30"/>
      </g>
     </g>
    </g>
    <g id="xtick_8">
     <g id="line2d_37">
      <g>
       <use style="fill:#262626;stroke:#262626;" x="437.01615625" xlink:href="#me1deecec79" y="174.8978125"/>
      </g>
     </g>
     <g id="text_15">
      <!-- 35 -->
      <g style="fill:#262626;" transform="translate(431.865375 195.055625)scale(0.1 -0.1)">
       <use xlink:href="#ArialMT-33"/>
       <use x="55.615234375" xlink:href="#ArialMT-35"/>
      </g>
     </g>
    </g>
   </g>
   <g id="matplotlib.axis_4">
    <g id="ytick_6">
     <g id="line2d_38">
      <g>
       <use style="fill:#262626;stroke:#262626;" x="268.80390625" xlink:href="#m4aded61697" y="170.183191895"/>
      </g>
     </g>
    </g>
    <g id="ytick_7">
     <g id="line2d_39">
      <g>
       <use style="fill:#262626;stroke:#262626;" x="268.80390625" xlink:href="#m4aded61697" y="135.39271924"/>
      </g>
     </g>
    </g>
    <g id="ytick_8">
     <g id="line2d_40">
      <g>
       <use style="fill:#262626;stroke:#262626;" x="268.80390625" xlink:href="#m4aded61697" y="100.602246585"/>
      </g>
     </g>
    </g>
    <g id="ytick_9">
     <g id="line2d_41">
      <g>
       <use style="fill:#262626;stroke:#262626;" x="268.80390625" xlink:href="#m4aded61697" y="65.81177393"/>
      </g>
     </g>
    </g>
    <g id="ytick_10">
     <g id="line2d_42">
      <g>
       <use style="fill:#262626;stroke:#262626;" x="268.80390625" xlink:href="#m4aded61697" y="31.021301275"/>
      </g>
     </g>
    </g>
   </g>
   <g id="line2d_43">
    <path clip-path="url(#pa61dcb5892)" d="
M268.804 137.439
L289.83 136.294
L310.857 135.541
L331.884 128.242
L352.91 122.038
L373.937 110
L394.963 91.7922
L415.99 79.3222
L437.016 67.8421
L458.043 52.4595
L479.069 45.656" style="fill:none;stroke:#d9544d;stroke-linecap:round;"/>
   </g>
   <g id="line2d_44">
    <path clip-path="url(#pa61dcb5892)" d="
M268.804 125.981
L289.83 128.459
L310.857 118.839
L331.884 107.013
L352.91 116.932
L373.937 128.734
L394.963 123.573
L415.99 106.088
L437.016 76.4034
L458.043 44.17
L479.069 30.4312" style="fill:none;stroke:#d9544d;stroke-linecap:round;"/>
   </g>
   <g id="line2d_45">
    <path clip-path="url(#pa61dcb5892)" d="
M268.804 137.187
L289.83 136.716
L310.857 135.364
L331.884 123.834
L352.91 122.023
L373.937 113.977
L394.963 95.5346
L415.99 78.9455
L437.016 57.0918
L458.043 44.2923
L479.069 61.6587" style="fill:none;stroke:#d9544d;stroke-linecap:round;"/>
   </g>
   <g id="line2d_46">
    <path clip-path="url(#pa61dcb5892)" d="
M268.804 133.021
L289.83 141.708
L310.857 132.895
L331.884 109.486
L352.91 118.74
L373.937 115.964
L394.963 106.084
L415.99 89.8591
L437.016 72.9905
L458.043 50.6336
L479.069 35.2441" style="fill:none;stroke:#d9544d;stroke-linecap:round;"/>
   </g>
   <g id="line2d_47">
    <path clip-path="url(#pa61dcb5892)" d="
M268.804 135.65
L289.83 140.084
L310.857 137.278
L331.884 129.213
L352.91 123.155
L373.937 107.994
L394.963 88.0311
L415.99 73.772
L437.016 62.6878
L458.043 53.6429
L479.069 55.116" style="fill:none;stroke:#d9544d;stroke-linecap:round;"/>
   </g>
   <g id="line2d_48">
    <path clip-path="url(#pa61dcb5892)" d="
M268.804 133.388
L289.83 134.77
L310.857 127.301
L331.884 114.603
L352.91 122.875
L373.937 124.838
L394.963 106.001
L415.99 89.1625
L437.016 67.2789
L458.043 45.3826
L479.069 41.0247" style="fill:none;stroke:#d9544d;stroke-linecap:round;"/>
   </g>
   <g id="line2d_49">
    <path clip-path="url(#pa61dcb5892)" d="
M268.804 142.736
L289.83 142.214
L310.857 132.493
L331.884 119.149
L352.91 119.511
L373.937 113.071
L394.963 92.2113
L415.99 76.785
L437.016 65.9298
L458.043 53.9461
L479.069 48.5794" style="fill:none;stroke:#d9544d;stroke-linecap:round;"/>
   </g>
   <g id="line2d_50">
    <path clip-path="url(#pa61dcb5892)" d="
M268.804 136.395
L289.83 135.604
L310.857 128.721
L331.884 123.712
L352.91 124.353
L373.937 116.858
L394.963 97.6538
L415.99 84.4487
L437.016 68.0091
L458.043 49.0313
L479.069 41.8399" style="fill:none;stroke:#d9544d;stroke-linecap:round;"/>
   </g>
   <g id="line2d_51">
    <path clip-path="url(#pa61dcb5892)" d="
M268.804 132.245
L289.83 133.19
L310.857 127.308
L331.884 115.498
L352.91 127.53
L373.937 127.824
L394.963 104.029
L415.99 84.7975
L437.016 56.5995
L458.043 42.6759
L479.069 54.9282" style="fill:none;stroke:#d9544d;stroke-linecap:round;"/>
   </g>
   <g id="line2d_52">
    <path clip-path="url(#pa61dcb5892)" d="
M268.804 145.142
L289.83 138.005
L310.857 126.608
L331.884 119.282
L352.91 122.965
L373.937 119.051
L394.963 94.0395
L415.99 73.7585
L437.016 64.0266
L458.043 53.4759
L479.069 50.2725" style="fill:none;stroke:#d9544d;stroke-linecap:round;"/>
   </g>
   <g id="line2d_53">
    <path clip-path="url(#pa61dcb5892)" d="
M268.804 131.485
L289.83 131.182
L310.857 130.934
L331.884 123.972
L352.91 125.734
L373.937 119.482
L394.963 101.148
L415.99 87.1529
L437.016 68.7795
L458.043 46.3394
L479.069 40.4159" style="fill:none;stroke:#d9544d;stroke-linecap:round;"/>
   </g>
   <g id="line2d_54">
    <path clip-path="url(#pa61dcb5892)" d="
M268.804 114.412
L289.83 125.895
L310.857 124.328
L331.884 107.948
L352.91 121.195
L373.937 130.471
L394.963 123.267
L415.99 108.122
L437.016 77.7659
L458.043 42.0252
L479.069 31.1959" style="fill:none;stroke:#d9544d;stroke-linecap:round;"/>
   </g>
   <g id="line2d_55">
    <path clip-path="url(#pa61dcb5892)" d="
M268.804 125.767
L289.83 125.198
L310.857 124.695
L331.884 124.61
L352.91 126.151
L373.937 122.874
L394.963 109.167
L415.99 96.9554
L437.016 74.2755
L458.043 43.876
L479.069 33.0568" style="fill:none;stroke:#d9544d;stroke-linecap:round;"/>
   </g>
   <g id="line2d_56">
    <path clip-path="url(#pa61dcb5892)" d="
M268.804 128.255
L289.83 138.353
L310.857 135.699
L331.884 118.415
L352.91 113.883
L373.937 114.108
L394.963 108.211
L415.99 94.7979
L437.016 73.2331
L458.043 44.0927
L479.069 37.5774" style="fill:none;stroke:#d9544d;stroke-linecap:round;"/>
   </g>
   <g id="line2d_57">
    <path clip-path="url(#pa61dcb5892)" d="
M268.804 136.705
L289.83 133.012
L310.857 121.367
L331.884 111.28
L352.91 118.077
L373.937 119.378
L394.963 112.173
L415.99 99.6965
L437.016 78.2245
L458.043 47.3632
L479.069 29.3489" style="fill:none;stroke:#d9544d;stroke-linecap:round;"/>
   </g>
   <g id="line2d_58">
    <path clip-path="url(#pa61dcb5892)" d="
M268.804 137.739
L289.83 136.068
L310.857 131.864
L331.884 128.134
L352.91 124.165
L373.937 114.133
L394.963 91.7886
L415.99 78.7293
L437.016 62.8615
L458.043 48.7722
L479.069 52.3697" style="fill:none;stroke:#d9544d;stroke-linecap:round;"/>
   </g>
   <g id="line2d_59">
    <path clip-path="url(#pa61dcb5892)" d="
M268.804 120.05
L289.83 126.504
L310.857 128.984
L331.884 124.945
L352.91 128.866
L373.937 126.558
L394.963 107.881
L415.99 91.2259
L437.016 68.6439
L458.043 45.4666
L479.069 37.5004" style="fill:none;stroke:#d9544d;stroke-linecap:round;"/>
   </g>
   <g id="line2d_60">
    <path clip-path="url(#pa61dcb5892)" d="
M268.804 117.244
L289.83 116.416
L310.857 129.118
L331.884 119.642
L352.91 133.079
L373.937 133.74
L394.963 108.335
L415.99 92.4267
L437.016 75.5542
L458.043 52.3268
L479.069 28.7434" style="fill:none;stroke:#d9544d;stroke-linecap:round;"/>
   </g>
   <g id="line2d_61">
    <path clip-path="url(#pa61dcb5892)" d="
M268.804 128.425
L289.83 136.245
L310.857 132.618
L331.884 115.739
L352.91 117.945
L373.937 119.844
L394.963 109.252
L415.99 95.6959
L437.016 67.4053
L458.043 42.3351
L479.069 41.1202" style="fill:none;stroke:#d9544d;stroke-linecap:round;"/>
   </g>
   <g id="line2d_62">
    <path clip-path="url(#pa61dcb5892)" d="
M268.804 137.742
L289.83 131.137
L310.857 119.365
L331.884 108.355
L352.91 123.936
L373.937 130.819
L394.963 107.944
L415.99 91.6587
L437.016 72.6993
L458.043 44.6408
L479.069 38.3271" style="fill:none;stroke:#d9544d;stroke-linecap:round;"/>
   </g>
   <g id="line2d_63">
    <path clip-path="url(#pa61dcb5892)" d="
M268.804 133.199
L289.83 131.582
L310.857 128.562
L331.884 126.532
L352.91 125.302
L373.937 119.108
L394.963 101.159
L415.99 87.2185
L437.016 63.1369
L458.043 45.5681
L479.069 45.2579" style="fill:none;stroke:#d9544d;stroke-linecap:round;"/>
   </g>
   <g id="line2d_64">
    <path clip-path="url(#pa61dcb5892)" d="
M268.804 131.648
L289.83 131.469
L310.857 128.248
L331.884 123.831
L352.91 125.044
L373.937 121.315
L394.963 103.463
L415.99 86.1151
L437.016 69.0667
L458.043 48.5673
L479.069 37.8586" style="fill:none;stroke:#d9544d;stroke-linecap:round;"/>
   </g>
   <g id="line2d_65">
    <path clip-path="url(#pa61dcb5892)" d="
M268.804 122.049
L289.83 126.674
L310.857 132.581
L331.884 115.521
L352.91 118.604
L373.937 125.784
L394.963 115.285
L415.99 98.8014
L437.016 75.4384
L458.043 43.2565
L479.069 32.6309" style="fill:none;stroke:#d9544d;stroke-linecap:round;"/>
   </g>
   <g id="line2d_66">
    <path clip-path="url(#pa61dcb5892)" d="
M268.804 142.726
L289.83 138.424
L310.857 127.288
L331.884 109.523
L352.91 114.993
L373.937 120.613
L394.963 109.421
L415.99 85.8456
L437.016 66.2172
L458.043 48.27
L479.069 43.3037" style="fill:none;stroke:#d9544d;stroke-linecap:round;"/>
   </g>
   <g id="patch_6">
    <path d="
M268.804 174.898
L268.804 20.7894" style="fill:none;stroke:#262626;stroke-linecap:square;stroke-linejoin:miter;stroke-width:1.25;"/>
   </g>
   <g id="patch_7">
    <path d="
M268.804 174.898
L479.069 174.898" style="fill:none;stroke:#262626;stroke-linecap:square;stroke-linejoin:miter;stroke-width:1.25;"/>
   </g>
   <g id="text_16">
    <!-- Senescence -->
    <defs>
     <path d="
M4.5 23
L13.4219 23.7812
Q14.0625 18.4062 16.375 14.9688
Q18.7031 11.5312 23.5781 9.40625
Q28.4688 7.28125 34.5781 7.28125
Q39.9844 7.28125 44.1406 8.89062
Q48.2969 10.5 50.3125 13.2969
Q52.3438 16.1094 52.3438 19.4375
Q52.3438 22.7969 50.3906 25.3125
Q48.4375 27.8281 43.9531 29.5469
Q41.0625 30.6719 31.2031 33.0312
Q21.3438 35.4062 17.3906 37.5
Q12.25 40.1875 9.73438 44.1562
Q7.23438 48.1406 7.23438 53.0781
Q7.23438 58.5 10.2969 63.2031
Q13.375 67.9219 19.2812 70.3594
Q25.2031 72.7969 32.4219 72.7969
Q40.375 72.7969 46.4531 70.2344
Q52.5469 67.6719 55.8125 62.6875
Q59.0781 57.7188 59.3281 51.4219
L50.25 50.7344
Q49.5156 57.5156 45.2812 60.9844
Q41.0625 64.4531 32.8125 64.4531
Q24.2188 64.4531 20.2812 61.2969
Q16.3594 58.1562 16.3594 53.7188
Q16.3594 49.8594 19.1406 47.3594
Q21.875 44.875 33.4219 42.2656
Q44.9688 39.6562 49.2656 37.7031
Q55.5156 34.8125 58.4844 30.3906
Q61.4688 25.9844 61.4688 20.2188
Q61.4688 14.5 58.2031 9.4375
Q54.9375 4.39062 48.7969 1.57812
Q42.6719 -1.21875 35.0156 -1.21875
Q25.2969 -1.21875 18.7188 1.60938
Q12.1562 4.4375 8.42188 10.125
Q4.6875 15.8281 4.5 23" id="ArialMT-53"/>
     <path d="
M40.4375 19
L49.0781 17.875
Q47.6562 8.9375 41.8125 3.875
Q35.9844 -1.17188 27.4844 -1.17188
Q16.8438 -1.17188 10.375 5.78125
Q3.90625 12.75 3.90625 25.7344
Q3.90625 34.125 6.6875 40.4219
Q9.46875 46.7344 15.1562 49.875
Q20.8438 53.0312 27.5469 53.0312
Q35.9844 53.0312 41.3594 48.75
Q46.7344 44.4844 48.25 36.625
L39.7031 35.2969
Q38.4844 40.5312 35.375 43.1562
Q32.2812 45.7969 27.875 45.7969
Q21.2344 45.7969 17.0781 41.0312
Q12.9375 36.2812 12.9375 25.9844
Q12.9375 15.5312 16.9375 10.7969
Q20.9531 6.0625 27.3906 6.0625
Q32.5625 6.0625 36.0312 9.23438
Q39.5 12.4062 40.4375 19" id="ArialMT-63"/>
    </defs>
    <g style="fill:#262626;" transform="translate(341.4334375 15.789375)scale(0.12 -0.12)">
     <use xlink:href="#ArialMT-53"/>
     <use x="66.69921875" xlink:href="#ArialMT-65"/>
     <use x="122.314453125" xlink:href="#ArialMT-6e"/>
     <use x="177.9296875" xlink:href="#ArialMT-65"/>
     <use x="233.544921875" xlink:href="#ArialMT-73"/>
     <use x="283.544921875" xlink:href="#ArialMT-63"/>
     <use x="333.544921875" xlink:href="#ArialMT-65"/>
     <use x="389.16015625" xlink:href="#ArialMT-6e"/>
     <use x="444.775390625" xlink:href="#ArialMT-63"/>
     <use x="494.775390625" xlink:href="#ArialMT-65"/>
    </g>
   </g>
  </g>
  <g id="axes_3">
   <g id="patch_8">
    <path d="
M492.029 174.898
L702.295 174.898
L702.295 20.7894
L492.029 20.7894
z
" style="fill:#ffffff;"/>
   </g>
   <g id="matplotlib.axis_5">
    <g id="xtick_9">
     <g id="line2d_67">
      <g>
       <use style="fill:#262626;stroke:#262626;" x="532.292789229" xlink:href="#me1deecec79" y="174.8978125"/>
      </g>
     </g>
     <g id="text_17">
      <!-- 5 -->
      <g style="fill:#262626;" transform="translate(529.920132979 195.055625)scale(0.1 -0.1)">
       <use xlink:href="#ArialMT-35"/>
      </g>
     </g>
    </g>
    <g id="xtick_10">
     <g id="line2d_68">
      <g>
       <use style="fill:#262626;stroke:#262626;" x="577.030089761" xlink:href="#me1deecec79" y="174.8978125"/>
      </g>
     </g>
     <g id="text_18">
      <!-- 10 -->
      <g style="fill:#262626;" transform="translate(572.252746011 195.055625)scale(0.1 -0.1)">
       <use xlink:href="#ArialMT-31"/>
       <use x="55.615234375" xlink:href="#ArialMT-30"/>
      </g>
     </g>
    </g>
    <g id="xtick_11">
     <g id="line2d_69">
      <g>
       <use style="fill:#262626;stroke:#262626;" x="621.767390293" xlink:href="#me1deecec79" y="174.8978125"/>
      </g>
     </g>
     <g id="text_19">
      <!-- 15 -->
      <g style="fill:#262626;" transform="translate(616.950984043 195.055625)scale(0.1 -0.1)">
       <use xlink:href="#ArialMT-31"/>
       <use x="55.615234375" xlink:href="#ArialMT-35"/>
      </g>
     </g>
    </g>
    <g id="xtick_12">
     <g id="line2d_70">
      <g>
       <use style="fill:#262626;stroke:#262626;" x="666.504690824" xlink:href="#me1deecec79" y="174.8978125"/>
      </g>
     </g>
     <g id="text_20">
      <!-- 20 -->
      <g style="fill:#262626;" transform="translate(661.329690824 195.055625)scale(0.1 -0.1)">
       <use xlink:href="#ArialMT-32"/>
       <use x="55.615234375" xlink:href="#ArialMT-30"/>
      </g>
     </g>
    </g>
   </g>
   <g id="matplotlib.axis_6">
    <g id="ytick_11">
     <g id="line2d_71">
      <g>
       <use style="fill:#262626;stroke:#262626;" x="492.02921875" xlink:href="#m4aded61697" y="170.183191895"/>
      </g>
     </g>
    </g>
    <g id="ytick_12">
     <g id="line2d_72">
      <g>
       <use style="fill:#262626;stroke:#262626;" x="492.02921875" xlink:href="#m4aded61697" y="135.39271924"/>
      </g>
     </g>
    </g>
    <g id="ytick_13">
     <g id="line2d_73">
      <g>
       <use style="fill:#262626;stroke:#262626;" x="492.02921875" xlink:href="#m4aded61697" y="100.602246585"/>
      </g>
     </g>
    </g>
    <g id="ytick_14">
     <g id="line2d_74">
      <g>
       <use style="fill:#262626;stroke:#262626;" x="492.02921875" xlink:href="#m4aded61697" y="65.81177393"/>
      </g>
     </g>
    </g>
    <g id="ytick_15">
     <g id="line2d_75">
      <g>
       <use style="fill:#262626;stroke:#262626;" x="492.02921875" xlink:href="#m4aded61697" y="31.021301275"/>
      </g>
     </g>
    </g>
   </g>
   <g id="line2d_76">
    <path clip-path="url(#p3aeff855be)" d="
M492.029 146.82
L496.503 135.161
L514.398 88.934
L541.24 85.7884
L594.925 94.5727
L702.295 52.3371" style="fill:none;stroke:#03012d;stroke-linecap:round;"/>
   </g>
   <g id="line2d_77">
    <path clip-path="url(#p3aeff855be)" d="
M492.029 146.099
L496.503 135.293
L514.398 101.141
L541.24 93.2703
L594.925 59.9691
L702.295 67.8403" style="fill:none;stroke:#03012d;stroke-linecap:round;"/>
   </g>
   <g id="line2d_78">
    <path clip-path="url(#p3aeff855be)" d="
M492.029 148.506
L496.503 134.544
L514.398 100.181
L541.24 89.622
L594.925 64.1399
L702.295 66.6199" style="fill:none;stroke:#03012d;stroke-linecap:round;"/>
   </g>
   <g id="line2d_79">
    <path clip-path="url(#p3aeff855be)" d="
M492.029 150.662
L496.503 135.832
L514.398 89.7783
L541.24 64.27
L594.925 73.1549
L702.295 89.9159" style="fill:none;stroke:#03012d;stroke-linecap:round;"/>
   </g>
   <g id="line2d_80">
    <path clip-path="url(#p3aeff855be)" d="
M492.029 139.804
L496.503 129.129
L514.398 118.525
L541.24 90.7274
L594.925 77.059
L702.295 48.369" style="fill:none;stroke:#03012d;stroke-linecap:round;"/>
   </g>
   <g id="line2d_81">
    <path clip-path="url(#p3aeff855be)" d="
M492.029 128.08
L496.503 131.051
L514.398 113.82
L541.24 115.622
L594.925 68.8644
L702.295 46.1766" style="fill:none;stroke:#03012d;stroke-linecap:round;"/>
   </g>
   <g id="line2d_82">
    <path clip-path="url(#p3aeff855be)" d="
M492.029 142.817
L496.503 132.745
L514.398 106.661
L541.24 94.5025
L594.925 77.6095
L702.295 49.2789" style="fill:none;stroke:#03012d;stroke-linecap:round;"/>
   </g>
   <g id="line2d_83">
    <path clip-path="url(#p3aeff855be)" d="
M492.029 121.279
L496.503 106.505
L514.398 62.9427
L541.24 56.6742
L594.925 109.019
L702.295 147.193" style="fill:none;stroke:#03012d;stroke-linecap:round;"/>
   </g>
   <g id="line2d_84">
    <path clip-path="url(#p3aeff855be)" d="
M492.029 155.622
L496.503 125.515
L514.398 86.3811
L541.24 82.2314
L594.925 57.648
L702.295 96.2156" style="fill:none;stroke:#03012d;stroke-linecap:round;"/>
   </g>
   <g id="line2d_85">
    <path clip-path="url(#p3aeff855be)" d="
M492.029 126.902
L496.503 117.846
L514.398 117.3
L541.24 117.271
L594.925 89.9725
L702.295 34.3212" style="fill:none;stroke:#03012d;stroke-linecap:round;"/>
   </g>
   <g id="line2d_86">
    <path clip-path="url(#p3aeff855be)" d="
M492.029 133.782
L496.503 138.555
L514.398 99.1287
L541.24 102.165
L594.925 87.01
L702.295 42.9724" style="fill:none;stroke:#03012d;stroke-linecap:round;"/>
   </g>
   <g id="line2d_87">
    <path clip-path="url(#p3aeff855be)" d="
M492.029 124.996
L496.503 131.745
L514.398 113.324
L541.24 113.826
L594.925 80.2403
L702.295 39.4824" style="fill:none;stroke:#03012d;stroke-linecap:round;"/>
   </g>
   <g id="line2d_88">
    <path clip-path="url(#p3aeff855be)" d="
M492.029 150.115
L496.503 97.3973
L514.398 69.7016
L541.24 56.054
L594.925 104.541
L702.295 125.804" style="fill:none;stroke:#03012d;stroke-linecap:round;"/>
   </g>
   <g id="line2d_89">
    <path clip-path="url(#p3aeff855be)" d="
M492.029 91.026
L496.503 126.907
L514.398 104.567
L541.24 130.635
L594.925 114.379
L702.295 36.0987" style="fill:none;stroke:#03012d;stroke-linecap:round;"/>
   </g>
   <g id="line2d_90">
    <path clip-path="url(#p3aeff855be)" d="
M492.029 147.419
L496.503 138.522
L514.398 99.6687
L541.24 65.3561
L594.925 76.0491
L702.295 76.5988" style="fill:none;stroke:#03012d;stroke-linecap:round;"/>
   </g>
   <g id="line2d_91">
    <path clip-path="url(#p3aeff855be)" d="
M492.029 147.785
L496.503 133.395
L514.398 108.22
L541.24 80.4193
L594.925 64.364
L702.295 69.4303" style="fill:none;stroke:#03012d;stroke-linecap:round;"/>
   </g>
   <g id="line2d_92">
    <path clip-path="url(#p3aeff855be)" d="
M492.029 103.261
L496.503 97.6304
L514.398 60.8538
L541.24 161.075
L594.925 107.582
L702.295 73.2104" style="fill:none;stroke:#03012d;stroke-linecap:round;"/>
   </g>
   <g id="line2d_93">
    <path clip-path="url(#p3aeff855be)" d="
M492.029 99.8123
L496.503 101.053
L514.398 98.7257
L541.24 155.791
L594.925 102.388
L702.295 45.8437" style="fill:none;stroke:#03012d;stroke-linecap:round;"/>
   </g>
   <g id="line2d_94">
    <path clip-path="url(#p3aeff855be)" d="
M492.029 143.801
L496.503 122.391
L514.398 108.205
L541.24 105.214
L594.925 80.0545
L702.295 43.9478" style="fill:none;stroke:#03012d;stroke-linecap:round;"/>
   </g>
   <g id="line2d_95">
    <path clip-path="url(#p3aeff855be)" d="
M492.029 155.374
L496.503 120.303
L514.398 92.6965
L541.24 104.352
L594.925 57.8629
L702.295 73.0239" style="fill:none;stroke:#03012d;stroke-linecap:round;"/>
   </g>
   <g id="line2d_96">
    <path clip-path="url(#p3aeff855be)" d="
M492.029 154.22
L496.503 131.54
L514.398 88.5763
L541.24 62.9192
L594.925 78.2738
L702.295 88.0844" style="fill:none;stroke:#03012d;stroke-linecap:round;"/>
   </g>
   <g id="line2d_97">
    <path clip-path="url(#p3aeff855be)" d="
M492.029 137.843
L496.503 135.161
L514.398 118.929
L541.24 87.0065
L594.925 65.6183
L702.295 59.0558" style="fill:none;stroke:#03012d;stroke-linecap:round;"/>
   </g>
   <g id="line2d_98">
    <path clip-path="url(#p3aeff855be)" d="
M492.029 147.102
L496.503 142.391
L514.398 68.8299
L541.24 87.8598
L594.925 76.1241
L702.295 81.3067" style="fill:none;stroke:#03012d;stroke-linecap:round;"/>
   </g>
   <g id="line2d_99">
    <path clip-path="url(#p3aeff855be)" d="
M492.029 114.427
L496.503 147.242
L514.398 81.7766
L541.24 127.379
L594.925 78.0943
L702.295 54.6945" style="fill:none;stroke:#03012d;stroke-linecap:round;"/>
   </g>
   <g id="patch_9">
    <path d="
M492.029 174.898
L492.029 20.7894" style="fill:none;stroke:#262626;stroke-linecap:square;stroke-linejoin:miter;stroke-width:1.25;"/>
   </g>
   <g id="patch_10">
    <path d="
M492.029 174.898
L702.295 174.898" style="fill:none;stroke:#262626;stroke-linecap:square;stroke-linejoin:miter;stroke-width:1.25;"/>
   </g>
   <g id="text_21">
    <!-- Root Cold -->
    <defs>
     <path d="
M7.85938 0
L7.85938 71.5781
L39.5938 71.5781
Q49.1719 71.5781 54.1406 69.6406
Q59.125 67.7188 62.1094 62.8281
Q65.0938 57.9531 65.0938 52.0469
Q65.0938 44.4375 60.1562 39.2031
Q55.2188 33.9844 44.9219 32.5625
Q48.6875 30.7656 50.6406 29
Q54.7812 25.2031 58.5 19.4844
L70.9531 0
L59.0312 0
L49.5625 14.8906
Q45.4062 21.3438 42.7188 24.75
Q40.0469 28.1719 37.9219 29.5312
Q35.7969 30.9062 33.5938 31.4531
Q31.9844 31.7812 28.3281 31.7812
L17.3281 31.7812
L17.3281 0
z

M17.3281 39.9844
L37.7031 39.9844
Q44.1875 39.9844 47.8438 41.3281
Q51.5156 42.6719 53.4219 45.625
Q55.3281 48.5781 55.3281 52.0469
Q55.3281 57.125 51.6406 60.3906
Q47.9531 63.6719 39.9844 63.6719
L17.3281 63.6719
z
" id="ArialMT-52"/>
     <path d="
M58.7969 25.0938
L68.2656 22.7031
Q65.2812 11.0312 57.5469 4.90625
Q49.8125 -1.21875 38.625 -1.21875
Q27.0469 -1.21875 19.7969 3.48438
Q12.5469 8.20312 8.76562 17.1406
Q4.98438 26.0781 4.98438 36.3281
Q4.98438 47.5156 9.25 55.8281
Q13.5312 64.1562 21.4062 68.4688
Q29.2969 72.7969 38.7656 72.7969
Q49.5156 72.7969 56.8281 67.3281
Q64.1562 61.8594 67.0469 51.9531
L57.7188 49.75
Q55.2188 57.5625 50.4844 61.125
Q45.75 64.7031 38.5781 64.7031
Q30.3281 64.7031 24.7812 60.7344
Q19.2344 56.7812 16.9844 50.1094
Q14.75 43.4531 14.75 36.375
Q14.75 27.25 17.4062 20.4375
Q20.0625 13.625 25.6719 10.25
Q31.2969 6.89062 37.8438 6.89062
Q45.7969 6.89062 51.3125 11.4688
Q56.8438 16.0625 58.7969 25.0938" id="ArialMT-43"/>
     <path id="ArialMT-20"/>
     <path d="
M40.2344 0
L40.2344 6.54688
Q35.2969 -1.17188 25.7344 -1.17188
Q19.5312 -1.17188 14.3281 2.25
Q9.125 5.67188 6.26562 11.7969
Q3.42188 17.9219 3.42188 25.875
Q3.42188 33.6406 6 39.9688
Q8.59375 46.2969 13.7656 49.6562
Q18.9531 53.0312 25.3438 53.0312
Q30.0312 53.0312 33.6875 51.0469
Q37.3594 49.0781 39.6562 45.9062
L39.6562 71.5781
L48.3906 71.5781
L48.3906 0
z

M12.4531 25.875
Q12.4531 15.9219 16.6406 10.9844
Q20.8438 6.0625 26.5625 6.0625
Q32.3281 6.0625 36.3438 10.7656
Q40.375 15.4844 40.375 25.1406
Q40.375 35.7969 36.2656 40.7656
Q32.1719 45.75 26.1719 45.75
Q20.3125 45.75 16.375 40.9688
Q12.4531 36.1875 12.4531 25.875" id="ArialMT-64"/>
     <path d="
M6.39062 0
L6.39062 71.5781
L15.1875 71.5781
L15.1875 0
z
" id="ArialMT-6c"/>
    </defs>
    <g style="fill:#262626;" transform="translate(570.915625 15.789375)scale(0.12 -0.12)">
     <use xlink:href="#ArialMT-52"/>
     <use x="72.216796875" xlink:href="#ArialMT-6f"/>
     <use x="127.83203125" xlink:href="#ArialMT-6f"/>
     <use x="183.447265625" xlink:href="#ArialMT-74"/>
     <use x="211.23046875" xlink:href="#ArialMT-20"/>
     <use x="239.013671875" xlink:href="#ArialMT-43"/>
     <use x="311.23046875" xlink:href="#ArialMT-6f"/>
     <use x="366.845703125" xlink:href="#ArialMT-6c"/>
     <use x="389.0625" xlink:href="#ArialMT-64"/>
    </g>
   </g>
  </g>
  <g id="axes_4">
   <g id="patch_11">
    <path d="
M45.5786 377.418
L255.844 377.418
L255.844 223.309
L45.5786 223.309
z
" style="fill:#ffffff;"/>
   </g>
   <g id="matplotlib.axis_7">
    <g id="xtick_13">
     <g id="line2d_100">
      <g>
       <use style="fill:#262626;stroke:#262626;" x="87.63165625" xlink:href="#me1deecec79" y="377.4178125"/>
      </g>
     </g>
     <g id="text_22">
      <!-- 5 -->
      <g style="fill:#262626;" transform="translate(85.259 397.575625)scale(0.1 -0.1)">
       <use xlink:href="#ArialMT-35"/>
      </g>
     </g>
    </g>
    <g id="xtick_14">
     <g id="line2d_101">
      <g>
       <use style="fill:#262626;stroke:#262626;" x="131.898037829" xlink:href="#me1deecec79" y="377.4178125"/>
      </g>
     </g>
     <g id="text_23">
      <!-- 10 -->
      <g style="fill:#262626;" transform="translate(127.120694079 397.575625)scale(0.1 -0.1)">
       <use xlink:href="#ArialMT-31"/>
       <use x="55.615234375" xlink:href="#ArialMT-30"/>
      </g>
     </g>
    </g>
    <g id="xtick_15">
     <g id="line2d_102">
      <g>
       <use style="fill:#262626;stroke:#262626;" x="176.164419408" xlink:href="#me1deecec79" y="377.4178125"/>
      </g>
     </g>
     <g id="text_24">
      <!-- 15 -->
      <g style="fill:#262626;" transform="translate(171.348013158 397.575625)scale(0.1 -0.1)">
       <use xlink:href="#ArialMT-31"/>
       <use x="55.615234375" xlink:href="#ArialMT-35"/>
      </g>
     </g>
    </g>
    <g id="xtick_16">
     <g id="line2d_103">
      <g>
       <use style="fill:#262626;stroke:#262626;" x="220.430800987" xlink:href="#me1deecec79" y="377.4178125"/>
      </g>
     </g>
     <g id="text_25">
      <!-- 20 -->
      <g style="fill:#262626;" transform="translate(215.255800987 397.575625)scale(0.1 -0.1)">
       <use xlink:href="#ArialMT-32"/>
       <use x="55.615234375" xlink:href="#ArialMT-30"/>
      </g>
     </g>
    </g>
    <g id="text_26">
     <!-- Time -->
     <defs>
      <path d="
M6.59375 0
L6.59375 51.8594
L14.4531 51.8594
L14.4531 44.5781
Q16.8906 48.3906 20.9375 50.7031
Q25 53.0312 30.1719 53.0312
Q35.9375 53.0312 39.625 50.6406
Q43.3125 48.25 44.8281 43.9531
Q50.9844 53.0312 60.8438 53.0312
Q68.5625 53.0312 72.7031 48.75
Q76.8594 44.4844 76.8594 35.5938
L76.8594 0
L68.1094 0
L68.1094 32.6719
Q68.1094 37.9375 67.25 40.25
Q66.4062 42.5781 64.1562 43.9844
Q61.9219 45.4062 58.8906 45.4062
Q53.4219 45.4062 49.7969 41.7656
Q46.1875 38.1406 46.1875 30.125
L46.1875 0
L37.4062 0
L37.4062 33.6875
Q37.4062 39.5469 35.25 42.4688
Q33.1094 45.4062 28.2188 45.4062
Q24.5156 45.4062 21.3594 43.4531
Q18.2188 41.5 16.7969 37.7344
Q15.375 33.9844 15.375 26.9062
L15.375 0
z
" id="ArialMT-6d"/>
      <path d="
M25.9219 0
L25.9219 63.1406
L2.34375 63.1406
L2.34375 71.5781
L59.0781 71.5781
L59.0781 63.1406
L35.4062 63.1406
L35.4062 0
z
" id="ArialMT-54"/>
     </defs>
     <g style="fill:#262626;" transform="translate(139.05296875 412.43671875)scale(0.11 -0.11)">
      <use xlink:href="#ArialMT-54"/>
      <use x="57.333984375" xlink:href="#ArialMT-69"/>
      <use x="79.55078125" xlink:href="#ArialMT-6d"/>
      <use x="162.8515625" xlink:href="#ArialMT-65"/>
     </g>
    </g>
   </g>
   <g id="matplotlib.axis_8">
    <g id="ytick_16">
     <g id="line2d_104">
      <g>
       <use style="fill:#262626;stroke:#262626;" x="45.57859375" xlink:href="#m4aded61697" y="372.703191895"/>
      </g>
     </g>
     <g id="text_27">
      <!-- −2 -->
      <g style="fill:#262626;" transform="translate(22.25984375 375.288348145)scale(0.1 -0.1)">
       <use xlink:href="#ArialMT-2212"/>
       <use x="58.3984375" xlink:href="#ArialMT-32"/>
      </g>
     </g>
    </g>
    <g id="ytick_17">
     <g id="line2d_105">
      <g>
       <use style="fill:#262626;stroke:#262626;" x="45.57859375" xlink:href="#m4aded61697" y="337.91271924"/>
      </g>
     </g>
     <g id="text_28">
      <!-- −1 -->
      <g style="fill:#262626;" transform="translate(23.56921875 340.49787549)scale(0.1 -0.1)">
       <use xlink:href="#ArialMT-2212"/>
       <use x="58.3984375" xlink:href="#ArialMT-31"/>
      </g>
     </g>
    </g>
    <g id="ytick_18">
     <g id="line2d_106">
      <g>
       <use style="fill:#262626;stroke:#262626;" x="45.57859375" xlink:href="#m4aded61697" y="303.122246585"/>
      </g>
     </g>
     <g id="text_29">
      <!-- 0 -->
      <g style="fill:#262626;" transform="translate(27.91140625 305.707402835)scale(0.1 -0.1)">
       <use xlink:href="#ArialMT-30"/>
      </g>
     </g>
    </g>
    <g id="ytick_19">
     <g id="line2d_107">
      <g>
       <use style="fill:#262626;stroke:#262626;" x="45.57859375" xlink:href="#m4aded61697" y="268.33177393"/>
      </g>
     </g>
     <g id="text_30">
      <!-- 1 -->
      <g style="fill:#262626;" transform="translate(29.94265625 270.91693018)scale(0.1 -0.1)">
       <use xlink:href="#ArialMT-31"/>
      </g>
     </g>
    </g>
    <g id="ytick_20">
     <g id="line2d_108">
      <g>
       <use style="fill:#262626;stroke:#262626;" x="45.57859375" xlink:href="#m4aded61697" y="233.541301275"/>
      </g>
     </g>
     <g id="text_31">
      <!-- 2 -->
      <g style="fill:#262626;" transform="translate(27.83796875 236.126457525)scale(0.1 -0.1)">
       <use xlink:href="#ArialMT-32"/>
      </g>
     </g>
    </g>
    <g id="text_32">
     <!-- Expression -->
     <g style="fill:#262626;" transform="translate(15.07359375 326.75671875)rotate(-90.0)scale(0.11 -0.11)">
      <use xlink:href="#ArialMT-45"/>
      <use x="66.69921875" xlink:href="#ArialMT-78"/>
      <use x="116.69921875" xlink:href="#ArialMT-70"/>
      <use x="172.314453125" xlink:href="#ArialMT-72"/>
      <use x="205.615234375" xlink:href="#ArialMT-65"/>
      <use x="261.23046875" xlink:href="#ArialMT-73"/>
      <use x="311.23046875" xlink:href="#ArialMT-73"/>
      <use x="361.23046875" xlink:href="#ArialMT-69"/>
      <use x="383.447265625" xlink:href="#ArialMT-6f"/>
      <use x="439.0625" xlink:href="#ArialMT-6e"/>
     </g>
    </g>
   </g>
   <g id="line2d_109">
    <path clip-path="url(#p4d13165c25)" d="
M45.5786 276.339
L47.7919 296.948
L52.2186 286.531
L69.9251 288.662
L96.4849 275.263
L149.605 371.71
L255.844 326.403" style="fill:none;stroke:#03012d;stroke-linecap:round;"/>
   </g>
   <g id="line2d_110">
    <path clip-path="url(#p4d13165c25)" d="
M45.5786 291.431
L47.7919 258.673
L52.2186 262.097
L69.9251 311.753
L96.4849 312.122
L149.605 351.502
L255.844 334.278" style="fill:none;stroke:#03012d;stroke-linecap:round;"/>
   </g>
   <g id="line2d_111">
    <path clip-path="url(#p4d13165c25)" d="
M45.5786 324.68
L47.7919 271.729
L52.2186 294.725
L69.9251 254.697
L96.4849 303.96
L149.605 311.237
L255.844 360.827" style="fill:none;stroke:#03012d;stroke-linecap:round;"/>
   </g>
   <g id="line2d_112">
    <path clip-path="url(#p4d13165c25)" d="
M45.5786 286.012
L47.7919 248.483
L52.2186 273.134
L69.9251 318.551
L96.4849 316.659
L149.605 336.719
L255.844 342.298" style="fill:none;stroke:#03012d;stroke-linecap:round;"/>
   </g>
   <g id="line2d_113">
    <path clip-path="url(#p4d13165c25)" d="
M45.5786 335.522
L47.7919 307.114
L52.2186 254.379
L69.9251 288.938
L96.4849 265.356
L149.605 343.208
L255.844 327.338" style="fill:none;stroke:#03012d;stroke-linecap:round;"/>
   </g>
   <g id="line2d_114">
    <path clip-path="url(#p4d13165c25)" d="
M45.5786 312.536
L47.7919 258.423
L52.2186 266.324
L69.9251 292.11
L96.4849 308.507
L149.605 323.928
L255.844 360.029" style="fill:none;stroke:#03012d;stroke-linecap:round;"/>
   </g>
   <g id="line2d_115">
    <path clip-path="url(#p4d13165c25)" d="
M45.5786 262.18
L47.7919 309.883
L52.2186 271.624
L69.9251 313.747
L96.4849 286.193
L149.605 367.023
L255.844 311.205" style="fill:none;stroke:#03012d;stroke-linecap:round;"/>
   </g>
   <g id="line2d_116">
    <path clip-path="url(#p4d13165c25)" d="
M45.5786 301.993
L47.7919 261.894
L52.2186 254.919
L69.9251 321.523
L96.4849 300.391
L149.605 333.964
L255.844 347.172" style="fill:none;stroke:#03012d;stroke-linecap:round;"/>
   </g>
   <g id="line2d_117">
    <path clip-path="url(#p4d13165c25)" d="
M45.5786 336.128
L47.7919 253.638
L52.2186 293.483
L69.9251 297.237
L96.4849 287.556
L149.605 293.569
L255.844 360.245" style="fill:none;stroke:#03012d;stroke-linecap:round;"/>
   </g>
   <g id="line2d_118">
    <path clip-path="url(#p4d13165c25)" d="
M45.5786 334.258
L47.7919 347.075
L52.2186 312.692
L69.9251 277.666
L96.4849 244.711
L149.605 292.498
L255.844 312.955" style="fill:none;stroke:#03012d;stroke-linecap:round;"/>
   </g>
   <g id="line2d_119">
    <path clip-path="url(#p4d13165c25)" d="
M45.5786 326.991
L47.7919 261.143
L52.2186 273.821
L69.9251 293.544
L96.4849 308.386
L149.605 365.141
L255.844 292.829" style="fill:none;stroke:#03012d;stroke-linecap:round;"/>
   </g>
   <g id="line2d_120">
    <path clip-path="url(#p4d13165c25)" d="
M45.5786 327.648
L47.7919 237.522
L52.2186 272.914
L69.9251 310.936
L96.4849 328.479
L149.605 319.48
L255.844 324.876" style="fill:none;stroke:#03012d;stroke-linecap:round;"/>
   </g>
   <g id="line2d_121">
    <path clip-path="url(#p4d13165c25)" d="
M45.5786 303.682
L47.7919 340.747
L52.2186 320.788
L69.9251 269.479
L96.4849 248.244
L149.605 340.158
L255.844 298.756" style="fill:none;stroke:#03012d;stroke-linecap:round;"/>
   </g>
   <g id="line2d_122">
    <path clip-path="url(#p4d13165c25)" d="
M45.5786 358.279
L47.7919 320.23
L52.2186 325.729
L69.9251 299.166
L96.4849 260.424
L149.605 293.418
L255.844 264.609" style="fill:none;stroke:#03012d;stroke-linecap:round;"/>
   </g>
   <g id="line2d_123">
    <path clip-path="url(#p4d13165c25)" d="
M45.5786 240.458
L47.7919 276.902
L52.2186 292.567
L69.9251 321.876
L96.4849 328.599
L149.605 328.296
L255.844 333.158" style="fill:none;stroke:#03012d;stroke-linecap:round;"/>
   </g>
   <g id="line2d_124">
    <path clip-path="url(#p4d13165c25)" d="
M45.5786 292.878
L47.7919 310.267
L52.2186 271.494
L69.9251 281.591
L96.4849 266.575
L149.605 349.227
L255.844 349.823" style="fill:none;stroke:#03012d;stroke-linecap:round;"/>
   </g>
   <g id="line2d_125">
    <path clip-path="url(#p4d13165c25)" d="
M45.5786 248.913
L47.7919 291.165
L52.2186 277.547
L69.9251 355.973
L96.4849 321.642
L149.605 322.87
L255.844 303.746" style="fill:none;stroke:#03012d;stroke-linecap:round;"/>
   </g>
   <g id="line2d_126">
    <path clip-path="url(#p4d13165c25)" d="
M45.5786 272.771
L47.7919 294.792
L52.2186 286.64
L69.9251 333.448
L96.4849 353.147
L149.605 324.149
L255.844 256.908" style="fill:none;stroke:#03012d;stroke-linecap:round;"/>
   </g>
   <g id="line2d_127">
    <path clip-path="url(#p4d13165c25)" d="
M45.5786 310.988
L47.7919 257.714
L52.2186 250.956
L69.9251 319.084
L96.4849 312.52
L149.605 333.944
L255.844 336.65" style="fill:none;stroke:#03012d;stroke-linecap:round;"/>
   </g>
   <g id="line2d_128">
    <path clip-path="url(#p4d13165c25)" d="
M45.5786 291.398
L47.7919 261.882
L52.2186 262.514
L69.9251 339.672
L96.4849 314.81
L149.605 300.542
L255.844 351.037" style="fill:none;stroke:#03012d;stroke-linecap:round;"/>
   </g>
   <g id="line2d_129">
    <path clip-path="url(#p4d13165c25)" d="
M45.5786 238.565
L47.7919 273.035
L52.2186 323.659
L69.9251 308.862
L96.4849 317.005
L149.605 335.732
L255.844 324.998" style="fill:none;stroke:#03012d;stroke-linecap:round;"/>
   </g>
   <g id="line2d_130">
    <path clip-path="url(#p4d13165c25)" d="
M45.5786 271.1
L47.7919 255.452
L52.2186 276.47
L69.9251 317.656
L96.4849 322.017
L149.605 343.286
L255.844 335.874" style="fill:none;stroke:#03012d;stroke-linecap:round;"/>
   </g>
   <g id="line2d_131">
    <path clip-path="url(#p4d13165c25)" d="
M45.5786 329.202
L47.7919 261.923
L52.2186 266.947
L69.9251 290.861
L96.4849 291.951
L149.605 324.536
L255.844 356.436" style="fill:none;stroke:#03012d;stroke-linecap:round;"/>
   </g>
   <g id="line2d_132">
    <path clip-path="url(#p4d13165c25)" d="
M45.5786 352.186
L47.7919 284.13
L52.2186 262.077
L69.9251 272.084
L96.4849 304.067
L149.605 301.272
L255.844 346.04" style="fill:none;stroke:#03012d;stroke-linecap:round;"/>
   </g>
   <g id="patch_12">
    <path d="
M45.5786 377.418
L45.5786 223.309" style="fill:none;stroke:#262626;stroke-linecap:square;stroke-linejoin:miter;stroke-width:1.25;"/>
   </g>
   <g id="patch_13">
    <path d="
M45.5786 377.418
L255.844 377.418" style="fill:none;stroke:#262626;stroke-linecap:square;stroke-linejoin:miter;stroke-width:1.25;"/>
   </g>
   <g id="text_33">
    <!-- Root Drought -->
    <defs>
     <path d="
M40.5781 0
L40.5781 7.625
Q34.5156 -1.17188 24.125 -1.17188
Q19.5312 -1.17188 15.5469 0.578125
Q11.5781 2.34375 9.64062 5
Q7.71875 7.67188 6.9375 11.5312
Q6.39062 14.1094 6.39062 19.7344
L6.39062 51.8594
L15.1875 51.8594
L15.1875 23.0938
Q15.1875 16.2188 15.7188 13.8125
Q16.5469 10.3594 19.2344 8.375
Q21.9219 6.39062 25.875 6.39062
Q29.8281 6.39062 33.2969 8.42188
Q36.7656 10.4531 38.2031 13.9375
Q39.6562 17.4375 39.6562 24.0781
L39.6562 51.8594
L48.4375 51.8594
L48.4375 0
z
" id="ArialMT-75"/>
     <path d="
M6.59375 0
L6.59375 71.5781
L15.375 71.5781
L15.375 45.9062
Q21.5312 53.0312 30.9062 53.0312
Q36.6719 53.0312 40.9219 50.75
Q45.1719 48.4844 47 44.4844
Q48.8281 40.4844 48.8281 32.8594
L48.8281 0
L40.0469 0
L40.0469 32.8594
Q40.0469 39.4531 37.1875 42.4531
Q34.3281 45.4531 29.1094 45.4531
Q25.2031 45.4531 21.75 43.4219
Q18.3125 41.4062 16.8438 37.9375
Q15.375 34.4688 15.375 28.375
L15.375 0
z
" id="ArialMT-68"/>
     <path d="
M7.71875 0
L7.71875 71.5781
L32.375 71.5781
Q40.7188 71.5781 45.125 70.5625
Q51.2656 69.1406 55.6094 65.4375
Q61.2812 60.6406 64.0781 53.1875
Q66.8906 45.75 66.8906 36.1875
Q66.8906 28.0312 64.9844 21.7344
Q63.0938 15.4375 60.1094 11.2969
Q57.125 7.17188 53.5781 4.79688
Q50.0469 2.4375 45.0469 1.21875
Q40.0469 0 33.5469 0
z

M17.1875 8.45312
L32.4688 8.45312
Q39.5469 8.45312 43.5781 9.76562
Q47.6094 11.0781 50 13.4844
Q53.375 16.8438 55.25 22.5312
Q57.125 28.2188 57.125 36.3281
Q57.125 47.5625 53.4375 53.5938
Q49.75 59.625 44.4844 61.6719
Q40.6719 63.1406 32.2344 63.1406
L17.1875 63.1406
z
" id="ArialMT-44"/>
     <path d="
M4.98438 -4.29688
L13.5312 -5.5625
Q14.0625 -9.51562 16.5 -11.3281
Q19.7812 -13.7656 25.4375 -13.7656
Q31.5469 -13.7656 34.8594 -11.3281
Q38.1875 -8.89062 39.3594 -4.5
Q40.0469 -1.8125 39.9844 6.78125
Q34.2344 0 25.6406 0
Q14.9375 0 9.07812 7.71875
Q3.21875 15.4375 3.21875 26.2188
Q3.21875 33.6406 5.90625 39.9062
Q8.59375 46.1875 13.6875 49.6094
Q18.7969 53.0312 25.6875 53.0312
Q34.8594 53.0312 40.8281 45.6094
L40.8281 51.8594
L48.9219 51.8594
L48.9219 7.03125
Q48.9219 -5.07812 46.4531 -10.125
Q44 -15.1875 38.6406 -18.1094
Q33.2969 -21.0469 25.4844 -21.0469
Q16.2188 -21.0469 10.5 -16.875
Q4.78125 -12.7031 4.98438 -4.29688
M12.25 26.8594
Q12.25 16.6562 16.2969 11.9688
Q20.3594 7.28125 26.4688 7.28125
Q32.5156 7.28125 36.6094 11.9375
Q40.7188 16.6094 40.7188 26.5625
Q40.7188 36.0781 36.5 40.9062
Q32.2812 45.75 26.3125 45.75
Q20.4531 45.75 16.3438 40.9844
Q12.25 36.2344 12.25 26.8594" id="ArialMT-67"/>
    </defs>
    <g style="fill:#262626;" transform="translate(115.07125 218.309375)scale(0.12 -0.12)">
     <use xlink:href="#ArialMT-52"/>
     <use x="72.216796875" xlink:href="#ArialMT-6f"/>
     <use x="127.83203125" xlink:href="#ArialMT-6f"/>
     <use x="183.447265625" xlink:href="#ArialMT-74"/>
     <use x="211.23046875" xlink:href="#ArialMT-20"/>
     <use x="239.013671875" xlink:href="#ArialMT-44"/>
     <use x="311.23046875" xlink:href="#ArialMT-72"/>
     <use x="344.53125" xlink:href="#ArialMT-6f"/>
     <use x="400.146484375" xlink:href="#ArialMT-75"/>
     <use x="455.76171875" xlink:href="#ArialMT-67"/>
     <use x="511.376953125" xlink:href="#ArialMT-68"/>
     <use x="566.9921875" xlink:href="#ArialMT-74"/>
    </g>
   </g>
  </g>
  <g id="axes_5">
   <g id="patch_14">
    <path d="
M268.804 377.418
L479.069 377.418
L479.069 223.309
L268.804 223.309
z
" style="fill:#ffffff;"/>
   </g>
   <g id="matplotlib.axis_9">
    <g id="xtick_17">
     <g id="line2d_133">
      <g>
       <use style="fill:#262626;stroke:#262626;" x="309.067476729" xlink:href="#me1deecec79" y="377.4178125"/>
      </g>
     </g>
     <g id="text_34">
      <!-- 5 -->
      <g style="fill:#262626;" transform="translate(306.694820479 397.575625)scale(0.1 -0.1)">
       <use xlink:href="#ArialMT-35"/>
      </g>
     </g>
    </g>
    <g id="xtick_18">
     <g id="line2d_134">
      <g>
       <use style="fill:#262626;stroke:#262626;" x="353.804777261" xlink:href="#me1deecec79" y="377.4178125"/>
      </g>
     </g>
     <g id="text_35">
      <!-- 10 -->
      <g style="fill:#262626;" transform="translate(349.027433511 397.575625)scale(0.1 -0.1)">
       <use xlink:href="#ArialMT-31"/>
       <use x="55.615234375" xlink:href="#ArialMT-30"/>
      </g>
     </g>
    </g>
    <g id="xtick_19">
     <g id="line2d_135">
      <g>
       <use style="fill:#262626;stroke:#262626;" x="398.542077793" xlink:href="#me1deecec79" y="377.4178125"/>
      </g>
     </g>
     <g id="text_36">
      <!-- 15 -->
      <g style="fill:#262626;" transform="translate(393.725671543 397.575625)scale(0.1 -0.1)">
       <use xlink:href="#ArialMT-31"/>
       <use x="55.615234375" xlink:href="#ArialMT-35"/>
      </g>
     </g>
    </g>
    <g id="xtick_20">
     <g id="line2d_136">
      <g>
       <use style="fill:#262626;stroke:#262626;" x="443.279378324" xlink:href="#me1deecec79" y="377.4178125"/>
      </g>
     </g>
     <g id="text_37">
      <!-- 20 -->
      <g style="fill:#262626;" transform="translate(438.104378324 397.575625)scale(0.1 -0.1)">
       <use xlink:href="#ArialMT-32"/>
       <use x="55.615234375" xlink:href="#ArialMT-30"/>
      </g>
     </g>
    </g>
    <g id="text_38">
     <!-- Time -->
     <g style="fill:#262626;" transform="translate(362.27828125 412.43671875)scale(0.11 -0.11)">
      <use xlink:href="#ArialMT-54"/>
      <use x="57.333984375" xlink:href="#ArialMT-69"/>
      <use x="79.55078125" xlink:href="#ArialMT-6d"/>
      <use x="162.8515625" xlink:href="#ArialMT-65"/>
     </g>
    </g>
   </g>
   <g id="matplotlib.axis_10">
    <g id="ytick_21">
     <g id="line2d_137">
      <g>
       <use style="fill:#262626;stroke:#262626;" x="268.80390625" xlink:href="#m4aded61697" y="372.703191895"/>
      </g>
     </g>
    </g>
    <g id="ytick_22">
     <g id="line2d_138">
      <g>
       <use style="fill:#262626;stroke:#262626;" x="268.80390625" xlink:href="#m4aded61697" y="337.91271924"/>
      </g>
     </g>
    </g>
    <g id="ytick_23">
     <g id="line2d_139">
      <g>
       <use style="fill:#262626;stroke:#262626;" x="268.80390625" xlink:href="#m4aded61697" y="303.122246585"/>
      </g>
     </g>
    </g>
    <g id="ytick_24">
     <g id="line2d_140">
      <g>
       <use style="fill:#262626;stroke:#262626;" x="268.80390625" xlink:href="#m4aded61697" y="268.33177393"/>
      </g>
     </g>
    </g>
    <g id="ytick_25">
     <g id="line2d_141">
      <g>
       <use style="fill:#262626;stroke:#262626;" x="268.80390625" xlink:href="#m4aded61697" y="233.541301275"/>
      </g>
     </g>
    </g>
   </g>
   <g id="line2d_142">
    <path clip-path="url(#p659f111a6e)" d="
M268.804 313.498
L273.278 283.738
L291.173 312.61
L318.015 340.878
L371.7 324.761
L479.069 243.249" style="fill:none;stroke:#03012d;stroke-linecap:round;"/>
   </g>
   <g id="line2d_143">
    <path clip-path="url(#p659f111a6e)" d="
M268.804 344.627
L273.278 337.776
L291.173 299.734
L318.015 256.178
L371.7 307.232
L479.069 273.186" style="fill:none;stroke:#03012d;stroke-linecap:round;"/>
   </g>
   <g id="line2d_144">
    <path clip-path="url(#p659f111a6e)" d="
M268.804 336.487
L273.278 347.609
L291.173 306.643
L318.015 283.773
L371.7 254.091
L479.069 290.131" style="fill:none;stroke:#03012d;stroke-linecap:round;"/>
   </g>
   <g id="line2d_145">
    <path clip-path="url(#p659f111a6e)" d="
M268.804 351.772
L273.278 343.008
L291.173 290.979
L318.015 276.946
L371.7 277.397
L479.069 278.631" style="fill:none;stroke:#03012d;stroke-linecap:round;"/>
   </g>
   <g id="line2d_146">
    <path clip-path="url(#p659f111a6e)" d="
M268.804 307.405
L273.278 327.615
L291.173 235.236
L318.015 328.805
L371.7 315.975
L479.069 303.697" style="fill:none;stroke:#03012d;stroke-linecap:round;"/>
   </g>
   <g id="line2d_147">
    <path clip-path="url(#p659f111a6e)" d="
M268.804 339.919
L273.278 329.02
L291.173 326.923
L318.015 299.642
L371.7 262.823
L479.069 260.407" style="fill:none;stroke:#03012d;stroke-linecap:round;"/>
   </g>
   <g id="line2d_148">
    <path clip-path="url(#p659f111a6e)" d="
M268.804 338.433
L273.278 348.408
L291.173 267.419
L318.015 267.292
L371.7 307.385
L479.069 289.798" style="fill:none;stroke:#03012d;stroke-linecap:round;"/>
   </g>
   <g id="line2d_149">
    <path clip-path="url(#p659f111a6e)" d="
M268.804 316.811
L273.278 285.508
L291.173 258.637
L318.015 293.525
L371.7 302.12
L479.069 362.133" style="fill:none;stroke:#03012d;stroke-linecap:round;"/>
   </g>
   <g id="line2d_150">
    <path clip-path="url(#p659f111a6e)" d="
M268.804 302.822
L273.278 328.567
L291.173 336.761
L318.015 259.12
L371.7 329.103
L479.069 262.361" style="fill:none;stroke:#03012d;stroke-linecap:round;"/>
   </g>
   <g id="line2d_151">
    <path clip-path="url(#p659f111a6e)" d="
M268.804 280.981
L273.278 313.808
L291.173 309.89
L318.015 315.538
L371.7 350.336
L479.069 248.182" style="fill:none;stroke:#03012d;stroke-linecap:round;"/>
   </g>
   <g id="line2d_152">
    <path clip-path="url(#p659f111a6e)" d="
M268.804 304.098
L273.278 269.693
L291.173 291.394
L318.015 310.298
L371.7 366.679
L479.069 276.572" style="fill:none;stroke:#03012d;stroke-linecap:round;"/>
   </g>
   <g id="line2d_153">
    <path clip-path="url(#p659f111a6e)" d="
M268.804 342.329
L273.278 336.745
L291.173 296.329
L318.015 254.429
L371.7 274.243
L479.069 314.657" style="fill:none;stroke:#03012d;stroke-linecap:round;"/>
   </g>
   <g id="line2d_154">
    <path clip-path="url(#p659f111a6e)" d="
M268.804 351.199
L273.278 305.029
L291.173 309.14
L318.015 303.628
L371.7 307.303
L479.069 242.435" style="fill:none;stroke:#03012d;stroke-linecap:round;"/>
   </g>
   <g id="line2d_155">
    <path clip-path="url(#p659f111a6e)" d="
M268.804 368.373
L273.278 313.067
L291.173 298.51
L318.015 277.059
L371.7 279.497
L479.069 282.227" style="fill:none;stroke:#03012d;stroke-linecap:round;"/>
   </g>
   <g id="line2d_156">
    <path clip-path="url(#p659f111a6e)" d="
M268.804 357.22
L273.278 305.558
L291.173 262.88
L318.015 321.699
L371.7 302.227
L479.069 269.151" style="fill:none;stroke:#03012d;stroke-linecap:round;"/>
   </g>
   <g id="line2d_157">
    <path clip-path="url(#p659f111a6e)" d="
M268.804 258.581
L273.278 305.93
L291.173 350.564
L318.015 331.258
L371.7 271.284
L479.069 301.117" style="fill:none;stroke:#03012d;stroke-linecap:round;"/>
   </g>
   <g id="line2d_158">
    <path clip-path="url(#p659f111a6e)" d="
M268.804 327.692
L273.278 284.778
L291.173 290.498
L318.015 295.263
L371.7 359.185
L479.069 261.319" style="fill:none;stroke:#03012d;stroke-linecap:round;"/>
   </g>
   <g id="line2d_159">
    <path clip-path="url(#p659f111a6e)" d="
M268.804 322.167
L273.278 308.422
L291.173 321.428
L318.015 337.954
L371.7 287.95
L479.069 240.812" style="fill:none;stroke:#03012d;stroke-linecap:round;"/>
   </g>
   <g id="line2d_160">
    <path clip-path="url(#p659f111a6e)" d="
M268.804 341.95
L273.278 306.116
L291.173 268.73
L318.015 306.511
L371.7 338.225
L479.069 257.201" style="fill:none;stroke:#03012d;stroke-linecap:round;"/>
   </g>
   <g id="line2d_161">
    <path clip-path="url(#p659f111a6e)" d="
M268.804 291.586
L273.278 276.249
L291.173 268.309
L318.015 289.997
L371.7 339.801
L479.069 352.792" style="fill:none;stroke:#03012d;stroke-linecap:round;"/>
   </g>
   <g id="line2d_162">
    <path clip-path="url(#p659f111a6e)" d="
M268.804 322.733
L273.278 327.197
L291.173 339.295
L318.015 308.555
L371.7 267.974
L479.069 252.979" style="fill:none;stroke:#03012d;stroke-linecap:round;"/>
   </g>
   <g id="line2d_163">
    <path clip-path="url(#p659f111a6e)" d="
M268.804 317.32
L273.278 316.2
L291.173 318.073
L318.015 316.633
L371.7 318.382
L479.069 232.127" style="fill:none;stroke:#03012d;stroke-linecap:round;"/>
   </g>
   <g id="line2d_164">
    <path clip-path="url(#p659f111a6e)" d="
M268.804 309.842
L273.278 272.053
L291.173 277.228
L318.015 271.838
L371.7 338.019
L479.069 349.754" style="fill:none;stroke:#03012d;stroke-linecap:round;"/>
   </g>
   <g id="line2d_165">
    <path clip-path="url(#p659f111a6e)" d="
M268.804 337.167
L273.278 341.168
L291.173 299.746
L318.015 256.753
L371.7 269.21
L479.069 314.689" style="fill:none;stroke:#03012d;stroke-linecap:round;"/>
   </g>
   <g id="patch_15">
    <path d="
M268.804 377.418
L268.804 223.309" style="fill:none;stroke:#262626;stroke-linecap:square;stroke-linejoin:miter;stroke-width:1.25;"/>
   </g>
   <g id="patch_16">
    <path d="
M268.804 377.418
L479.069 377.418" style="fill:none;stroke:#262626;stroke-linecap:square;stroke-linejoin:miter;stroke-width:1.25;"/>
   </g>
   <g id="text_39">
    <!-- Shoot Cold -->
    <g style="fill:#262626;" transform="translate(344.6846875 218.309375)scale(0.12 -0.12)">
     <use xlink:href="#ArialMT-53"/>
     <use x="66.69921875" xlink:href="#ArialMT-68"/>
     <use x="122.314453125" xlink:href="#ArialMT-6f"/>
     <use x="177.9296875" xlink:href="#ArialMT-6f"/>
     <use x="233.544921875" xlink:href="#ArialMT-74"/>
     <use x="261.328125" xlink:href="#ArialMT-20"/>
     <use x="289.111328125" xlink:href="#ArialMT-43"/>
     <use x="361.328125" xlink:href="#ArialMT-6f"/>
     <use x="416.943359375" xlink:href="#ArialMT-6c"/>
     <use x="439.16015625" xlink:href="#ArialMT-64"/>
    </g>
   </g>
  </g>
  <g id="axes_6">
   <g id="patch_17">
    <path d="
M492.029 377.418
L702.295 377.418
L702.295 223.309
L492.029 223.309
z
" style="fill:#ffffff;"/>
   </g>
   <g id="matplotlib.axis_11">
    <g id="xtick_21">
     <g id="line2d_166">
      <g>
       <use style="fill:#262626;stroke:#262626;" x="534.08228125" xlink:href="#me1deecec79" y="377.4178125"/>
      </g>
     </g>
     <g id="text_40">
      <!-- 5 -->
      <g style="fill:#262626;" transform="translate(531.709625 397.575625)scale(0.1 -0.1)">
       <use xlink:href="#ArialMT-35"/>
      </g>
     </g>
    </g>
    <g id="xtick_22">
     <g id="line2d_167">
      <g>
       <use style="fill:#262626;stroke:#262626;" x="578.348662829" xlink:href="#me1deecec79" y="377.4178125"/>
      </g>
     </g>
     <g id="text_41">
      <!-- 10 -->
      <g style="fill:#262626;" transform="translate(573.571319079 397.575625)scale(0.1 -0.1)">
       <use xlink:href="#ArialMT-31"/>
       <use x="55.615234375" xlink:href="#ArialMT-30"/>
      </g>
     </g>
    </g>
    <g id="xtick_23">
     <g id="line2d_168">
      <g>
       <use style="fill:#262626;stroke:#262626;" x="622.615044408" xlink:href="#me1deecec79" y="377.4178125"/>
      </g>
     </g>
     <g id="text_42">
      <!-- 15 -->
      <g style="fill:#262626;" transform="translate(617.798638158 397.575625)scale(0.1 -0.1)">
       <use xlink:href="#ArialMT-31"/>
       <use x="55.615234375" xlink:href="#ArialMT-35"/>
      </g>
     </g>
    </g>
    <g id="xtick_24">
     <g id="line2d_169">
      <g>
       <use style="fill:#262626;stroke:#262626;" x="666.881425987" xlink:href="#me1deecec79" y="377.4178125"/>
      </g>
     </g>
     <g id="text_43">
      <!-- 20 -->
      <g style="fill:#262626;" transform="translate(661.706425987 397.575625)scale(0.1 -0.1)">
       <use xlink:href="#ArialMT-32"/>
       <use x="55.615234375" xlink:href="#ArialMT-30"/>
      </g>
     </g>
    </g>
    <g id="text_44">
     <!-- Time -->
     <g style="fill:#262626;" transform="translate(585.50359375 412.43671875)scale(0.11 -0.11)">
      <use xlink:href="#ArialMT-54"/>
      <use x="57.333984375" xlink:href="#ArialMT-69"/>
      <use x="79.55078125" xlink:href="#ArialMT-6d"/>
      <use x="162.8515625" xlink:href="#ArialMT-65"/>
     </g>
    </g>
   </g>
   <g id="matplotlib.axis_12">
    <g id="ytick_26">
     <g id="line2d_170">
      <g>
       <use style="fill:#262626;stroke:#262626;" x="492.02921875" xlink:href="#m4aded61697" y="372.703191895"/>
      </g>
     </g>
    </g>
    <g id="ytick_27">
     <g id="line2d_171">
      <g>
       <use style="fill:#262626;stroke:#262626;" x="492.02921875" xlink:href="#m4aded61697" y="337.91271924"/>
      </g>
     </g>
    </g>
    <g id="ytick_28">
     <g id="line2d_172">
      <g>
       <use style="fill:#262626;stroke:#262626;" x="492.02921875" xlink:href="#m4aded61697" y="303.122246585"/>
      </g>
     </g>
    </g>
    <g id="ytick_29">
     <g id="line2d_173">
      <g>
       <use style="fill:#262626;stroke:#262626;" x="492.02921875" xlink:href="#m4aded61697" y="268.33177393"/>
      </g>
     </g>
    </g>
    <g id="ytick_30">
     <g id="line2d_174">
      <g>
       <use style="fill:#262626;stroke:#262626;" x="492.02921875" xlink:href="#m4aded61697" y="233.541301275"/>
      </g>
     </g>
    </g>
   </g>
   <g id="line2d_175">
    <path clip-path="url(#p99eb28ba72)" d="
M492.029 307.389
L494.243 316.331
L498.669 315.626
L516.376 246.486
L542.936 264.859
L596.055 343.774
L702.295 327.391" style="fill:none;stroke:#d9544d;stroke-linecap:round;"/>
   </g>
   <g id="line2d_176">
    <path clip-path="url(#p99eb28ba72)" d="
M492.029 320.651
L494.243 294.892
L498.669 282.35
L516.376 241.461
L542.936 304.754
L596.055 345.751
L702.295 331.998" style="fill:none;stroke:#d9544d;stroke-linecap:round;"/>
   </g>
   <g id="line2d_177">
    <path clip-path="url(#p99eb28ba72)" d="
M492.029 337.246
L494.243 305.848
L498.669 309.443
L516.376 257.207
L542.936 253.081
L596.055 324.773
L702.295 334.258" style="fill:none;stroke:#d9544d;stroke-linecap:round;"/>
   </g>
   <g id="line2d_178">
    <path clip-path="url(#p99eb28ba72)" d="
M492.029 291.843
L494.243 296.17
L498.669 279.985
L516.376 259.09
L542.936 293.597
L596.055 347.723
L702.295 353.447" style="fill:none;stroke:#d9544d;stroke-linecap:round;"/>
   </g>
   <g id="line2d_179">
    <path clip-path="url(#p99eb28ba72)" d="
M492.029 307.585
L494.243 305.269
L498.669 312.611
L516.376 245.257
L542.936 270.741
L596.055 339.264
L702.295 341.13" style="fill:none;stroke:#d9544d;stroke-linecap:round;"/>
   </g>
   <g id="line2d_180">
    <path clip-path="url(#p99eb28ba72)" d="
M492.029 327.279
L494.243 321.315
L498.669 301.21
L516.376 248.854
L542.936 263.127
L596.055 316.79
L702.295 343.28" style="fill:none;stroke:#d9544d;stroke-linecap:round;"/>
   </g>
   <g id="line2d_181">
    <path clip-path="url(#p99eb28ba72)" d="
M492.029 319.052
L494.243 309.705
L498.669 303.533
L516.376 251.795
L542.936 260.556
L596.055 338.321
L702.295 338.894" style="fill:none;stroke:#d9544d;stroke-linecap:round;"/>
   </g>
   <g id="line2d_182">
    <path clip-path="url(#p99eb28ba72)" d="
M492.029 316.993
L494.243 320.263
L498.669 289.648
L516.376 246.812
L542.936 272.42
L596.055 343.681
L702.295 332.038" style="fill:none;stroke:#d9544d;stroke-linecap:round;"/>
   </g>
   <g id="line2d_183">
    <path clip-path="url(#p99eb28ba72)" d="
M492.029 320.46
L494.243 317.499
L498.669 311.985
L516.376 240.478
L542.936 269.007
L596.055 333.46
L702.295 328.966" style="fill:none;stroke:#d9544d;stroke-linecap:round;"/>
   </g>
   <g id="line2d_184">
    <path clip-path="url(#p99eb28ba72)" d="
M492.029 334.71
L494.243 315.791
L498.669 320.052
L516.376 250.292
L542.936 255.694
L596.055 325.264
L702.295 320.052" style="fill:none;stroke:#d9544d;stroke-linecap:round;"/>
   </g>
   <g id="line2d_185">
    <path clip-path="url(#p99eb28ba72)" d="
M492.029 324.816
L494.243 309.283
L498.669 280.769
L516.376 250.359
L542.936 276.647
L596.055 345.018
L702.295 334.963" style="fill:none;stroke:#d9544d;stroke-linecap:round;"/>
   </g>
   <g id="line2d_186">
    <path clip-path="url(#p99eb28ba72)" d="
M492.029 313.491
L494.243 317.715
L498.669 274.009
L516.376 248.569
L542.936 286.47
L596.055 341.658
L702.295 339.944" style="fill:none;stroke:#d9544d;stroke-linecap:round;"/>
   </g>
   <g id="line2d_187">
    <path clip-path="url(#p99eb28ba72)" d="
M492.029 321.336
L494.243 309.316
L498.669 302.159
L516.376 234.652
L542.936 288.588
L596.055 343.344
L702.295 322.46" style="fill:none;stroke:#d9544d;stroke-linecap:round;"/>
   </g>
   <g id="line2d_188">
    <path clip-path="url(#p99eb28ba72)" d="
M492.029 330.345
L494.243 321.422
L498.669 295.045
L516.376 242.158
L542.936 275.884
L596.055 314.821
L702.295 342.181" style="fill:none;stroke:#d9544d;stroke-linecap:round;"/>
   </g>
   <g id="line2d_189">
    <path clip-path="url(#p99eb28ba72)" d="
M492.029 336.545
L494.243 299.645
L498.669 275.402
L516.376 247.124
L542.936 292.132
L596.055 333.156
L702.295 337.85" style="fill:none;stroke:#d9544d;stroke-linecap:round;"/>
   </g>
   <g id="line2d_190">
    <path clip-path="url(#p99eb28ba72)" d="
M492.029 325.806
L494.243 320.527
L498.669 306.203
L516.376 246.711
L542.936 261.714
L596.055 325.702
L702.295 335.194" style="fill:none;stroke:#d9544d;stroke-linecap:round;"/>
   </g>
   <g id="line2d_191">
    <path clip-path="url(#p99eb28ba72)" d="
M492.029 310.334
L494.243 309.167
L498.669 279.217
L516.376 247.348
L542.936 288.892
L596.055 347.719
L702.295 339.18" style="fill:none;stroke:#d9544d;stroke-linecap:round;"/>
   </g>
   <g id="line2d_192">
    <path clip-path="url(#p99eb28ba72)" d="
M492.029 335.198
L494.243 304.389
L498.669 260.323
L516.376 256.247
L542.936 297.198
L596.055 344.966
L702.295 323.535" style="fill:none;stroke:#d9544d;stroke-linecap:round;"/>
   </g>
   <g id="line2d_193">
    <path clip-path="url(#p99eb28ba72)" d="
M492.029 317.902
L494.243 292.014
L498.669 284.038
L516.376 253.601
L542.936 282.38
L596.055 347.269
L702.295 344.652" style="fill:none;stroke:#d9544d;stroke-linecap:round;"/>
   </g>
   <g id="line2d_194">
    <path clip-path="url(#p99eb28ba72)" d="
M492.029 328.404
L494.243 311.51
L498.669 283.248
L516.376 248.021
L542.936 278.495
L596.055 323.019
L702.295 349.158" style="fill:none;stroke:#d9544d;stroke-linecap:round;"/>
   </g>
   <g id="line2d_195">
    <path clip-path="url(#p99eb28ba72)" d="
M492.029 329.472
L494.243 309.623
L498.669 301.525
L516.376 241.359
L542.936 273.31
L596.055 333.673
L702.295 332.893" style="fill:none;stroke:#d9544d;stroke-linecap:round;"/>
   </g>
   <g id="line2d_196">
    <path clip-path="url(#p99eb28ba72)" d="
M492.029 318.095
L494.243 317.377
L498.669 287.481
L516.376 248.645
L542.936 271.601
L596.055 341.224
L702.295 337.432" style="fill:none;stroke:#d9544d;stroke-linecap:round;"/>
   </g>
   <g id="line2d_197">
    <path clip-path="url(#p99eb28ba72)" d="
M492.029 327.233
L494.243 301.455
L498.669 298.77
L516.376 247.892
L542.936 270.102
L596.055 332.849
L702.295 343.555" style="fill:none;stroke:#d9544d;stroke-linecap:round;"/>
   </g>
   <g id="line2d_198">
    <path clip-path="url(#p99eb28ba72)" d="
M492.029 311.05
L494.243 304.571
L498.669 301.731
L516.376 244.799
L542.936 275.79
L596.055 345.86
L702.295 338.055" style="fill:none;stroke:#d9544d;stroke-linecap:round;"/>
   </g>
   <g id="patch_18">
    <path d="
M492.029 377.418
L492.029 223.309" style="fill:none;stroke:#262626;stroke-linecap:square;stroke-linejoin:miter;stroke-width:1.25;"/>
   </g>
   <g id="patch_19">
    <path d="
M492.029 377.418
L702.295 377.418" style="fill:none;stroke:#262626;stroke-linecap:square;stroke-linejoin:miter;stroke-width:1.25;"/>
   </g>
   <g id="text_45">
    <!-- Shoot Uv -->
    <defs>
     <path d="
M54.6875 71.5781
L64.1562 71.5781
L64.1562 30.2188
Q64.1562 19.4375 61.7188 13.0781
Q59.2812 6.73438 52.9062 2.75
Q46.5312 -1.21875 36.1875 -1.21875
Q26.125 -1.21875 19.7188 2.25
Q13.3281 5.71875 10.5938 12.2812
Q7.85938 18.8438 7.85938 30.2188
L7.85938 71.5781
L17.3281 71.5781
L17.3281 30.2812
Q17.3281 20.9531 19.0625 16.5312
Q20.7969 12.1094 25.0156 9.71875
Q29.25 7.32812 35.3594 7.32812
Q45.7969 7.32812 50.2344 12.0625
Q54.6875 16.7969 54.6875 30.2812
z
" id="ArialMT-55"/>
     <path d="
M21 0
L1.26562 51.8594
L10.5469 51.8594
L21.6875 20.7969
Q23.4844 15.7656 25 10.3594
Q26.1719 14.4531 28.2656 20.2188
L39.7969 51.8594
L48.8281 51.8594
L29.2031 0
z
" id="ArialMT-76"/>
    </defs>
    <g style="fill:#262626;" transform="translate(572.5534375 218.309375)scale(0.12 -0.12)">
     <use xlink:href="#ArialMT-53"/>
     <use x="66.69921875" xlink:href="#ArialMT-68"/>
     <use x="122.314453125" xlink:href="#ArialMT-6f"/>
     <use x="177.9296875" xlink:href="#ArialMT-6f"/>
     <use x="233.544921875" xlink:href="#ArialMT-74"/>
     <use x="261.328125" xlink:href="#ArialMT-20"/>
     <use x="289.111328125" xlink:href="#ArialMT-55"/>
     <use x="361.328125" xlink:href="#ArialMT-76"/>
    </g>
   </g>
  </g>
 </g>
 <defs>
  <clipPath id="pa61dcb5892">
   <rect height="154.1084375" width="210.2653125" x="268.80390625" y="20.789375"/>
  </clipPath>
  <clipPath id="pa691a7dfe0">
   <rect height="154.1084375" width="210.2653125" x="45.57859375" y="20.789375"/>
  </clipPath>
  <clipPath id="p99eb28ba72">
   <rect height="154.1084375" width="210.2653125" x="492.02921875" y="223.309375"/>
  </clipPath>
  <clipPath id="p4d13165c25">
   <rect height="154.1084375" width="210.2653125" x="45.57859375" y="223.309375"/>
  </clipPath>
  <clipPath id="p659f111a6e">
   <rect height="154.1084375" width="210.2653125" x="268.80390625" y="223.309375"/>
  </clipPath>
  <clipPath id="p3aeff855be">
   <rect height="154.1084375" width="210.2653125" x="492.02921875" y="20.789375"/>
  </clipPath>
 </defs>
</svg>
