<?xml version="1.0" encoding="utf-8" standalone="no"?>
<!DOCTYPE svg PUBLIC "-//W3C//DTD SVG 1.1//EN"
  "http://www.w3.org/Graphics/SVG/1.1/DTD/svg11.dtd">
<!-- Created with matplotlib (http://matplotlib.org/) -->
<svg height="421pt" version="1.1" viewBox="0 0 709 421" width="709pt" xmlns="http://www.w3.org/2000/svg" xmlns:xlink="http://www.w3.org/1999/xlink">
 <defs>
  <style type="text/css">
*{stroke-linecap:butt;stroke-linejoin:round;}
  </style>
 </defs>
 <g id="figure_1">
  <g id="patch_1">
   <path d="
M0 421.823
L709.495 421.823
L709.495 0
L0 0
z
" style="fill:#ffffff;"/>
  </g>
  <g id="axes_1">
   <g id="patch_2">
    <path d="
M45.5786 174.898
L255.844 174.898
L255.844 20.7894
L45.5786 20.7894
z
" style="fill:#ffffff;"/>
   </g>
   <g id="matplotlib.axis_1">
    <g id="xtick_1">
     <g id="line2d_1">
      <defs>
       <path d="
M0 0
L0 6" id="me1deecec79" style="stroke:#262626;"/>
      </defs>
      <g>
       <use style="fill:#262626;stroke:#262626;" x="82.1464741848" xlink:href="#me1deecec79" y="174.8978125"/>
      </g>
     </g>
     <g id="text_1">
      <!-- 10 -->
      <defs>
       <path d="
M4.15625 35.2969
Q4.15625 48 6.76562 55.7344
Q9.375 63.4844 14.5156 67.6719
Q19.6719 71.875 27.4844 71.875
Q33.25 71.875 37.5938 69.5469
Q41.9375 67.2344 44.7656 62.8594
Q47.6094 58.5 49.2188 52.2188
Q50.8281 45.9531 50.8281 35.2969
Q50.8281 22.7031 48.2344 14.9688
Q45.6562 7.23438 40.5 3
Q35.3594 -1.21875 27.4844 -1.21875
Q17.1406 -1.21875 11.2344 6.20312
Q4.15625 15.1406 4.15625 35.2969
M13.1875 35.2969
Q13.1875 17.6719 17.3125 11.8281
Q21.4375 6 27.4844 6
Q33.5469 6 37.6719 11.8594
Q41.7969 17.7188 41.7969 35.2969
Q41.7969 52.9844 37.6719 58.7812
Q33.5469 64.5938 27.3906 64.5938
Q21.3438 64.5938 17.7188 59.4688
Q13.1875 52.9375 13.1875 35.2969" id="ArialMT-30"/>
       <path d="
M37.25 0
L28.4688 0
L28.4688 56
Q25.2969 52.9844 20.1406 49.9531
Q14.9844 46.9219 10.8906 45.4062
L10.8906 53.9062
Q18.2656 57.375 23.7812 62.2969
Q29.2969 67.2344 31.5938 71.875
L37.25 71.875
z
" id="ArialMT-31"/>
      </defs>
      <g style="fill:#262626;" transform="translate(77.3691304348 195.055625)scale(0.1 -0.1)">
       <use xlink:href="#ArialMT-31"/>
       <use x="55.615234375" xlink:href="#ArialMT-30"/>
      </g>
     </g>
    </g>
    <g id="xtick_2">
     <g id="line2d_2">
      <g>
       <use style="fill:#262626;stroke:#262626;" x="127.856324728" xlink:href="#me1deecec79" y="174.8978125"/>
      </g>
     </g>
     <g id="text_2">
      <!-- 20 -->
      <defs>
       <path d="
M50.3438 8.45312
L50.3438 0
L3.03125 0
Q2.9375 3.17188 4.04688 6.10938
Q5.85938 10.9375 9.82812 15.625
Q13.8125 20.3125 21.3438 26.4688
Q33.0156 36.0312 37.1094 41.625
Q41.2188 47.2188 41.2188 52.2031
Q41.2188 57.4219 37.4688 61
Q33.7344 64.5938 27.7344 64.5938
Q21.3906 64.5938 17.5781 60.7812
Q13.7656 56.9844 13.7188 50.25
L4.6875 51.1719
Q5.60938 61.2812 11.6562 66.5781
Q17.7188 71.875 27.9375 71.875
Q38.2344 71.875 44.2344 66.1562
Q50.25 60.4531 50.25 52
Q50.25 47.7031 48.4844 43.5469
Q46.7344 39.4062 42.6562 34.8125
Q38.5781 30.2188 29.1094 22.2188
Q21.1875 15.5781 18.9375 13.2031
Q16.7031 10.8438 15.2344 8.45312
z
" id="ArialMT-32"/>
      </defs>
      <g style="fill:#262626;" transform="translate(122.681324728 195.055625)scale(0.1 -0.1)">
       <use xlink:href="#ArialMT-32"/>
       <use x="55.615234375" xlink:href="#ArialMT-30"/>
      </g>
     </g>
    </g>
    <g id="xtick_3">
     <g id="line2d_3">
      <g>
       <use style="fill:#262626;stroke:#262626;" x="173.566175272" xlink:href="#me1deecec79" y="174.8978125"/>
      </g>
     </g>
     <g id="text_3">
      <!-- 30 -->
      <defs>
       <path d="
M4.20312 18.8906
L12.9844 20.0625
Q14.5 12.5938 18.1406 9.29688
Q21.7812 6 27 6
Q33.2031 6 37.4688 10.2969
Q41.75 14.5938 41.75 20.9531
Q41.75 27 37.7969 30.9219
Q33.8438 34.8594 27.7344 34.8594
Q25.25 34.8594 21.5312 33.8906
L22.5156 41.6094
Q23.3906 41.5 23.9219 41.5
Q29.5469 41.5 34.0312 44.4219
Q38.5312 47.3594 38.5312 53.4688
Q38.5312 58.2969 35.25 61.4688
Q31.9844 64.6562 26.8125 64.6562
Q21.6875 64.6562 18.2656 61.4219
Q14.8438 58.2031 13.875 51.7656
L5.07812 53.3281
Q6.6875 62.1562 12.3906 67.0156
Q18.1094 71.875 26.6094 71.875
Q32.4688 71.875 37.3906 69.3594
Q42.3281 66.8438 44.9375 62.5
Q47.5625 58.1562 47.5625 53.2656
Q47.5625 48.6406 45.0625 44.8281
Q42.5781 41.0156 37.7031 38.7656
Q44.0469 37.3125 47.5625 32.6875
Q51.0781 28.0781 51.0781 21.1406
Q51.0781 11.7656 44.2344 5.25
Q37.4062 -1.26562 26.9531 -1.26562
Q17.5312 -1.26562 11.2969 4.34375
Q5.07812 9.96875 4.20312 18.8906" id="ArialMT-33"/>
      </defs>
      <g style="fill:#262626;" transform="translate(168.454456522 195.055625)scale(0.1 -0.1)">
       <use xlink:href="#ArialMT-33"/>
       <use x="55.615234375" xlink:href="#ArialMT-30"/>
      </g>
     </g>
    </g>
    <g id="xtick_4">
     <g id="line2d_4">
      <g>
       <use style="fill:#262626;stroke:#262626;" x="219.276025815" xlink:href="#me1deecec79" y="174.8978125"/>
      </g>
     </g>
     <g id="text_4">
      <!-- 40 -->
      <defs>
       <path d="
M32.3281 0
L32.3281 17.1406
L1.26562 17.1406
L1.26562 25.2031
L33.9375 71.5781
L41.1094 71.5781
L41.1094 25.2031
L50.7812 25.2031
L50.7812 17.1406
L41.1094 17.1406
L41.1094 0
z

M32.3281 25.2031
L32.3281 57.4688
L9.90625 25.2031
z
" id="ArialMT-34"/>
      </defs>
      <g style="fill:#262626;" transform="translate(214.017432065 195.055625)scale(0.1 -0.1)">
       <use xlink:href="#ArialMT-34"/>
       <use x="55.615234375" xlink:href="#ArialMT-30"/>
      </g>
     </g>
    </g>
   </g>
   <g id="matplotlib.axis_2">
    <g id="ytick_1">
     <g id="line2d_5">
      <defs>
       <path d="
M0 0
L-6 0" id="m4aded61697" style="stroke:#262626;"/>
      </defs>
      <g>
       <use style="fill:#262626;stroke:#262626;" x="45.57859375" xlink:href="#m4aded61697" y="163.439692914"/>
      </g>
     </g>
     <g id="text_5">
      <!-- −2 -->
      <defs>
       <path d="
M52.8281 31.2031
L5.5625 31.2031
L5.5625 39.4062
L52.8281 39.4062
z
" id="ArialMT-2212"/>
      </defs>
      <g style="fill:#262626;" transform="translate(22.25984375 166.024849164)scale(0.1 -0.1)">
       <use xlink:href="#ArialMT-2212"/>
       <use x="58.3984375" xlink:href="#ArialMT-32"/>
      </g>
     </g>
    </g>
    <g id="ytick_2">
     <g id="line2d_6">
      <g>
       <use style="fill:#262626;stroke:#262626;" x="45.57859375" xlink:href="#m4aded61697" y="138.460682491"/>
      </g>
     </g>
     <g id="text_6">
      <!-- −1 -->
      <g style="fill:#262626;" transform="translate(23.56921875 141.045838741)scale(0.1 -0.1)">
       <use xlink:href="#ArialMT-2212"/>
       <use x="58.3984375" xlink:href="#ArialMT-31"/>
      </g>
     </g>
    </g>
    <g id="ytick_3">
     <g id="line2d_7">
      <g>
       <use style="fill:#262626;stroke:#262626;" x="45.57859375" xlink:href="#m4aded61697" y="113.481672069"/>
      </g>
     </g>
     <g id="text_7">
      <!-- 0 -->
      <g style="fill:#262626;" transform="translate(27.91140625 116.066828319)scale(0.1 -0.1)">
       <use xlink:href="#ArialMT-30"/>
      </g>
     </g>
    </g>
    <g id="ytick_4">
     <g id="line2d_8">
      <g>
       <use style="fill:#262626;stroke:#262626;" x="45.57859375" xlink:href="#m4aded61697" y="88.5026616463"/>
      </g>
     </g>
     <g id="text_8">
      <!-- 1 -->
      <g style="fill:#262626;" transform="translate(29.94265625 91.0878178963)scale(0.1 -0.1)">
       <use xlink:href="#ArialMT-31"/>
      </g>
     </g>
    </g>
    <g id="ytick_5">
     <g id="line2d_9">
      <g>
       <use style="fill:#262626;stroke:#262626;" x="45.57859375" xlink:href="#m4aded61697" y="63.5236512239"/>
      </g>
     </g>
     <g id="text_9">
      <!-- 2 -->
      <g style="fill:#262626;" transform="translate(27.83796875 66.1088074739)scale(0.1 -0.1)">
       <use xlink:href="#ArialMT-32"/>
      </g>
     </g>
    </g>
    <g id="ytick_6">
     <g id="line2d_10">
      <g>
       <use style="fill:#262626;stroke:#262626;" x="45.57859375" xlink:href="#m4aded61697" y="38.5446408015"/>
      </g>
     </g>
     <g id="text_10">
      <!-- 3 -->
      <g style="fill:#262626;" transform="translate(27.89109375 41.1297970515)scale(0.1 -0.1)">
       <use xlink:href="#ArialMT-33"/>
      </g>
     </g>
    </g>
    <g id="text_11">
     <!-- Expression -->
     <defs>
      <path d="
M7.90625 0
L7.90625 71.5781
L59.6719 71.5781
L59.6719 63.1406
L17.3906 63.1406
L17.3906 41.2188
L56.9844 41.2188
L56.9844 32.8125
L17.3906 32.8125
L17.3906 8.45312
L61.3281 8.45312
L61.3281 0
z
" id="ArialMT-45"/>
      <path d="
M6.59375 -19.875
L6.59375 51.8594
L14.5938 51.8594
L14.5938 45.125
Q17.4375 49.0781 21 51.0469
Q24.5625 53.0312 29.6406 53.0312
Q36.2812 53.0312 41.3594 49.6094
Q46.4375 46.1875 49.0156 39.9531
Q51.6094 33.7344 51.6094 26.3125
Q51.6094 18.3594 48.75 11.9844
Q45.9062 5.60938 40.4531 2.21875
Q35.0156 -1.17188 29 -1.17188
Q24.6094 -1.17188 21.1094 0.6875
Q17.625 2.54688 15.375 5.375
L15.375 -19.875
z

M14.5469 25.6406
Q14.5469 15.625 18.5938 10.8438
Q22.6562 6.0625 28.4219 6.0625
Q34.2812 6.0625 38.4531 11.0156
Q42.625 15.9688 42.625 26.375
Q42.625 36.2812 38.5469 41.2031
Q34.4688 46.1406 28.8125 46.1406
Q23.1875 46.1406 18.8594 40.8906
Q14.5469 35.6406 14.5469 25.6406" id="ArialMT-70"/>
      <path d="
M3.32812 25.9219
Q3.32812 40.3281 11.3281 47.2656
Q18.0156 53.0312 27.6406 53.0312
Q38.3281 53.0312 45.1094 46.0156
Q51.9062 39.0156 51.9062 26.6562
Q51.9062 16.6562 48.9062 10.9062
Q45.9062 5.17188 40.1562 2
Q34.4219 -1.17188 27.6406 -1.17188
Q16.75 -1.17188 10.0312 5.8125
Q3.32812 12.7969 3.32812 25.9219
M12.3594 25.9219
Q12.3594 15.9688 16.7031 11.0156
Q21.0469 6.0625 27.6406 6.0625
Q34.1875 6.0625 38.5312 11.0312
Q42.875 16.0156 42.875 26.2188
Q42.875 35.8438 38.5 40.7969
Q34.125 45.75 27.6406 45.75
Q21.0469 45.75 16.7031 40.8125
Q12.3594 35.8906 12.3594 25.9219" id="ArialMT-6f"/>
      <path d="
M0.734375 0
L19.6719 26.9531
L2.15625 51.8594
L13.1406 51.8594
L21.0938 39.7031
Q23.3438 36.2344 24.7031 33.8906
Q26.8594 37.1094 28.6562 39.5938
L37.4062 51.8594
L47.9062 51.8594
L29.9844 27.4375
L49.2656 0
L38.4844 0
L27.8281 16.1094
L25 20.4531
L11.375 0
z
" id="ArialMT-78"/>
      <path d="
M6.64062 61.4688
L6.64062 71.5781
L15.4375 71.5781
L15.4375 61.4688
z

M6.64062 0
L6.64062 51.8594
L15.4375 51.8594
L15.4375 0
z
" id="ArialMT-69"/>
      <path d="
M3.07812 15.4844
L11.7656 16.8438
Q12.5 11.625 15.8438 8.84375
Q19.1875 6.0625 25.2031 6.0625
Q31.25 6.0625 34.1719 8.51562
Q37.1094 10.9844 37.1094 14.3125
Q37.1094 17.2812 34.5156 19
Q32.7188 20.1719 25.5312 21.9688
Q15.875 24.4219 12.1406 26.2031
Q8.40625 27.9844 6.46875 31.125
Q4.54688 34.2812 4.54688 38.0938
Q4.54688 41.5469 6.125 44.5
Q7.71875 47.4688 10.4531 49.4219
Q12.5 50.9219 16.0312 51.9688
Q19.5781 53.0312 23.6406 53.0312
Q29.7344 53.0312 34.3438 51.2656
Q38.9688 49.5156 41.1562 46.5
Q43.3594 43.5 44.1875 38.4844
L35.5938 37.3125
Q35.0156 41.3125 32.2031 43.5469
Q29.3906 45.7969 24.2656 45.7969
Q18.2188 45.7969 15.625 43.7969
Q13.0312 41.7969 13.0312 39.1094
Q13.0312 37.4062 14.1094 36.0312
Q15.1875 34.625 17.4844 33.6875
Q18.7969 33.2031 25.25 31.4531
Q34.5781 28.9531 38.25 27.3594
Q41.9375 25.7812 44.0312 22.75
Q46.1406 19.7344 46.1406 15.2344
Q46.1406 10.8438 43.5781 6.95312
Q41.0156 3.07812 36.1719 0.953125
Q31.3438 -1.17188 25.25 -1.17188
Q15.1406 -1.17188 9.84375 3.03125
Q4.54688 7.23438 3.07812 15.4844" id="ArialMT-73"/>
      <path d="
M6.59375 0
L6.59375 51.8594
L14.5 51.8594
L14.5 44.4844
Q20.2188 53.0312 31 53.0312
Q35.6875 53.0312 39.625 51.3438
Q43.5625 49.6562 45.5156 46.9219
Q47.4688 44.1875 48.25 40.4375
Q48.7344 37.9844 48.7344 31.8906
L48.7344 0
L39.9375 0
L39.9375 31.5469
Q39.9375 36.9219 38.9062 39.5781
Q37.8906 42.2344 35.2812 43.8125
Q32.6719 45.4062 29.1562 45.4062
Q23.5312 45.4062 19.4531 41.8438
Q15.375 38.2812 15.375 28.3281
L15.375 0
z
" id="ArialMT-6e"/>
      <path d="
M6.5 0
L6.5 51.8594
L14.4062 51.8594
L14.4062 44
Q17.4375 49.5156 20 51.2656
Q22.5625 53.0312 25.6406 53.0312
Q30.0781 53.0312 34.6719 50.2031
L31.6406 42.0469
Q28.4219 43.9531 25.2031 43.9531
Q22.3125 43.9531 20.0156 42.2188
Q17.7188 40.4844 16.75 37.4062
Q15.2812 32.7188 15.2812 27.1562
L15.2812 0
z
" id="ArialMT-72"/>
      <path d="
M42.0938 16.7031
L51.1719 15.5781
Q49.0312 7.625 43.2188 3.21875
Q37.4062 -1.17188 28.375 -1.17188
Q17 -1.17188 10.3281 5.82812
Q3.65625 12.8438 3.65625 25.4844
Q3.65625 38.5781 10.3906 45.7969
Q17.1406 53.0312 27.875 53.0312
Q38.2812 53.0312 44.875 45.9531
Q51.4688 38.875 51.4688 26.0312
Q51.4688 25.25 51.4219 23.6875
L12.75 23.6875
Q13.2344 15.1406 17.5781 10.5938
Q21.9219 6.0625 28.4219 6.0625
Q33.25 6.0625 36.6719 8.59375
Q40.0938 11.1406 42.0938 16.7031
M13.2344 30.9062
L42.1875 30.9062
Q41.6094 37.4531 38.875 40.7188
Q34.6719 45.7969 27.9844 45.7969
Q21.9219 45.7969 17.7969 41.75
Q13.6719 37.7031 13.2344 30.9062" id="ArialMT-65"/>
     </defs>
     <g style="fill:#262626;" transform="translate(15.07359375 124.23671875)rotate(-90.0)scale(0.11 -0.11)">
      <use xlink:href="#ArialMT-45"/>
      <use x="66.69921875" xlink:href="#ArialMT-78"/>
      <use x="116.69921875" xlink:href="#ArialMT-70"/>
      <use x="172.314453125" xlink:href="#ArialMT-72"/>
      <use x="205.615234375" xlink:href="#ArialMT-65"/>
      <use x="261.23046875" xlink:href="#ArialMT-73"/>
      <use x="311.23046875" xlink:href="#ArialMT-73"/>
      <use x="361.23046875" xlink:href="#ArialMT-69"/>
      <use x="383.447265625" xlink:href="#ArialMT-6f"/>
      <use x="439.0625" xlink:href="#ArialMT-6e"/>
     </g>
    </g>
   </g>
   <g id="line2d_11">
    <path clip-path="url(#pa691a7dfe0)" d="
M45.5786 130.86
L54.7206 142.02
L63.8625 155.202
L73.0045 158.15
L82.1465 149.662
L91.2884 139.022
L100.43 135.828
L109.572 128.507
L118.714 128.213
L127.856 134.829
L136.998 119.279
L146.14 96.0892
L155.282 81.9315
L164.424 83.0534
L173.566 92.4753
L182.708 102.755
L191.85 97.5534
L200.992 91.9239
L210.134 90.7922
L219.276 92.4225
L228.418 93.7076
L237.56 94.9707
L246.702 90.4552
L255.844 93.8582" style="fill:none;stroke:#03012d;stroke-linecap:round;"/>
   </g>
   <g id="line2d_12">
    <path clip-path="url(#pa691a7dfe0)" d="
M45.5786 148.133
L54.7206 127.35
L63.8625 116.6
L73.0045 129.85
L82.1465 136.759
L91.2884 128.014
L100.43 139.612
L109.572 153.037
L118.714 142.585
L127.856 132.228
L136.998 110.816
L146.14 92.3756
L155.282 64.693
L164.424 56.8185
L173.566 74.1871
L182.708 101.946
L191.85 101.42
L200.992 101.48
L210.134 101.749
L219.276 101.524
L228.418 114.141
L237.56 125.96
L246.702 114.554
L255.844 107.729" style="fill:none;stroke:#03012d;stroke-linecap:round;"/>
   </g>
   <g id="line2d_13">
    <path clip-path="url(#pa691a7dfe0)" d="
M45.5786 123.773
L54.7206 137.394
L63.8625 155.51
L73.0045 161.131
L82.1465 157.939
L91.2884 144.566
L100.43 135.424
L109.572 131.353
L118.714 126.422
L127.856 124.917
L136.998 106.183
L146.14 89.6981
L155.282 80.2848
L164.424 83.8873
L173.566 90.9109
L182.708 99.8052
L191.85 95.8784
L200.992 97.2799
L210.134 100.911
L219.276 101.241
L228.418 96.8405
L237.56 93.8184
L246.702 91.5802
L255.844 96.8125" style="fill:none;stroke:#03012d;stroke-linecap:round;"/>
   </g>
   <g id="line2d_14">
    <path clip-path="url(#pa691a7dfe0)" d="
M45.5786 129.535
L54.7206 138.653
L63.8625 155.633
L73.0045 159.581
L82.1465 150.25
L91.2884 140.924
L100.43 134.484
L109.572 133.882
L118.714 123.399
L127.856 117.944
L136.998 103.124
L146.14 86.0849
L155.282 71.1394
L164.424 73.1808
L173.566 85.9645
L182.708 99.8936
L191.85 94.9868
L200.992 101.789
L210.134 110.333
L219.276 109.292
L228.418 108.597
L237.56 102.376
L246.702 93.6502
L255.844 98.8645" style="fill:none;stroke:#03012d;stroke-linecap:round;"/>
   </g>
   <g id="line2d_15">
    <path clip-path="url(#pa691a7dfe0)" d="
M45.5786 90.8318
L54.7206 112.122
L63.8625 132.67
L73.0045 143.291
L82.1465 142.833
L91.2884 121.999
L100.43 113.736
L109.572 80.0861
L118.714 76.5767
L127.856 86.2209
L136.998 81.8433
L146.14 77.6947
L155.282 82.1054
L164.424 88.2413
L173.566 94.5978
L182.708 118.044
L191.85 120.326
L200.992 138.219
L210.134 141.552
L219.276 130.464
L228.418 138.525
L237.56 143.412
L246.702 129.785
L255.844 138.384" style="fill:none;stroke:#03012d;stroke-linecap:round;"/>
   </g>
   <g id="line2d_16">
    <path clip-path="url(#pa691a7dfe0)" d="
M45.5786 122.971
L54.7206 131.392
L63.8625 142.945
L73.0045 142.781
L82.1465 147.88
L91.2884 147.728
L100.43 141.843
L109.572 136.728
L118.714 133.17
L127.856 127.254
L136.998 102.086
L146.14 71.996
L155.282 56.2221
L164.424 70.5591
L173.566 92.6975
L182.708 104.487
L191.85 104.609
L200.992 107.965
L210.134 107.113
L219.276 106.845
L228.418 109.956
L237.56 105.029
L246.702 101.738
L255.844 107.567" style="fill:none;stroke:#03012d;stroke-linecap:round;"/>
   </g>
   <g id="line2d_17">
    <path clip-path="url(#pa691a7dfe0)" d="
M45.5786 135.945
L54.7206 141.319
L63.8625 147.119
L73.0045 146.945
L82.1465 148.9
L91.2884 147.98
L100.43 144.775
L109.572 136.807
L118.714 134.923
L127.856 129.003
L136.998 114.409
L146.14 99.5847
L155.282 88.3598
L164.424 87.6113
L173.566 90.8313
L182.708 91.2217
L191.85 93.082
L200.992 96.6901
L210.134 90.6198
L219.276 89.4536
L228.418 92.2266
L237.56 93.4284
L246.702 90.6752
L255.844 91.6524" style="fill:none;stroke:#03012d;stroke-linecap:round;"/>
   </g>
   <g id="line2d_18">
    <path clip-path="url(#pa691a7dfe0)" d="
M45.5786 130.154
L54.7206 137.054
L63.8625 145.355
L73.0045 149.312
L82.1465 151.49
L91.2884 151.02
L100.43 142.671
L109.572 137.879
L118.714 130.714
L127.856 117.629
L136.998 103.311
L146.14 93.7073
L155.282 69.2638
L164.424 71.5784
L173.566 87.2514
L182.708 96.5584
L191.85 106.952
L200.992 108.32
L210.134 99.2551
L219.276 99.1598
L228.418 99.7745
L237.56 105.015
L246.702 93.0608
L255.844 97.0764" style="fill:none;stroke:#03012d;stroke-linecap:round;"/>
   </g>
   <g id="line2d_19">
    <path clip-path="url(#pa691a7dfe0)" d="
M45.5786 143.814
L54.7206 140.572
L63.8625 140.013
L73.0045 138.104
L82.1465 142.649
L91.2884 146.007
L100.43 144.985
L109.572 136.418
L118.714 135.618
L127.856 131.767
L136.998 127.678
L146.14 117.669
L155.282 98.9732
L164.424 92.2903
L173.566 90.8219
L182.708 84.3197
L191.85 85.1783
L200.992 90.3323
L210.134 87.8065
L219.276 87.2928
L228.418 87.6549
L237.56 86.0355
L246.702 91.1379
L255.844 96.4216" style="fill:none;stroke:#03012d;stroke-linecap:round;"/>
   </g>
   <g id="line2d_20">
    <path clip-path="url(#pa691a7dfe0)" d="
M45.5786 26.4971
L54.7206 63.9681
L63.8625 85.609
L73.0045 98.6513
L82.1465 102.611
L91.2884 103.22
L100.43 111.143
L109.572 119.281
L118.714 115.193
L127.856 117.22
L136.998 126.274
L146.14 126.007
L155.282 116.789
L164.424 119.403
L173.566 126.844
L182.708 137.649
L191.85 137.014
L200.992 131.412
L210.134 130.482
L219.276 129.041
L228.418 124.759
L237.56 124.805
L246.702 122.903
L255.844 126.785" style="fill:none;stroke:#03012d;stroke-linecap:round;"/>
   </g>
   <g id="line2d_21">
    <path clip-path="url(#pa691a7dfe0)" d="
M45.5786 135.646
L54.7206 140.607
L63.8625 145.164
L73.0045 147.897
L82.1465 141.931
L91.2884 136.714
L100.43 143.136
L109.572 147.665
L118.714 137.805
L127.856 129.096
L136.998 116.724
L146.14 103.898
L155.282 88.4111
L164.424 94.3331
L173.566 103.439
L182.708 107.661
L191.85 98.9266
L200.992 85.3356
L210.134 83.1979
L219.276 84.1535
L228.418 87.2537
L237.56 95.5994
L246.702 84.2139
L255.844 84.7534" style="fill:none;stroke:#03012d;stroke-linecap:round;"/>
   </g>
   <g id="line2d_22">
    <path clip-path="url(#pa691a7dfe0)" d="
M45.5786 141.742
L54.7206 142.846
L63.8625 146.288
L73.0045 146.102
L82.1465 143.715
L91.2884 139.36
L100.43 141.263
L109.572 144.696
L118.714 138.198
L127.856 130.732
L136.998 114.952
L146.14 101.864
L155.282 88.9834
L164.424 85.1164
L173.566 87.564
L182.708 90.6386
L191.85 91.3214
L200.992 92.3559
L210.134 89.3304
L219.276 90.874
L228.418 92.5415
L237.56 95.1399
L246.702 92.0209
L255.844 95.9153" style="fill:none;stroke:#03012d;stroke-linecap:round;"/>
   </g>
   <g id="line2d_23">
    <path clip-path="url(#pa691a7dfe0)" d="
M45.5786 121.836
L54.7206 133.147
L63.8625 92.8778
L73.0045 92.7588
L82.1465 108.569
L91.2884 128.234
L100.43 139.925
L109.572 143.63
L118.714 116.243
L127.856 97.8839
L136.998 86.4311
L146.14 81.2255
L155.282 48.9377
L164.424 85.2892
L173.566 128.91
L182.708 139.939
L191.85 130.471
L200.992 111.815
L210.134 114.524
L219.276 96.3452
L228.418 100.18
L237.56 132.654
L246.702 141.379
L255.844 150.355" style="fill:none;stroke:#03012d;stroke-linecap:round;"/>
   </g>
   <g id="line2d_24">
    <path clip-path="url(#pa691a7dfe0)" d="
M45.5786 142.403
L54.7206 142.845
L63.8625 142.875
L73.0045 144.346
L82.1465 141.494
L91.2884 139.255
L100.43 148.402
L109.572 149.703
L118.714 135.093
L127.856 120.435
L136.998 100.659
L146.14 88.759
L155.282 74.964
L164.424 77.6449
L173.566 87.625
L182.708 94.0438
L191.85 95.5275
L200.992 100.538
L210.134 103.97
L219.276 102.824
L228.418 99.5973
L237.56 101.49
L246.702 93.7228
L255.844 95.3441" style="fill:none;stroke:#03012d;stroke-linecap:round;"/>
   </g>
   <g id="line2d_25">
    <path clip-path="url(#pa691a7dfe0)" d="
M45.5786 76.548
L54.7206 94.7875
L63.8625 114.401
L73.0045 120.899
L82.1465 128.399
L91.2884 145.692
L100.43 143.249
L109.572 130.661
L118.714 143.699
L127.856 140.672
L136.998 129.196
L146.14 113.822
L155.282 101.248
L164.424 86.767
L173.566 75.2776
L182.708 88.7289
L191.85 76.3728
L200.992 81.5772
L210.134 90.547
L219.276 114.965
L228.418 111.191
L237.56 121.347
L246.702 153.844
L255.844 139.668" style="fill:none;stroke:#03012d;stroke-linecap:round;"/>
   </g>
   <g id="line2d_26">
    <path clip-path="url(#pa691a7dfe0)" d="
M45.5786 86.3163
L54.7206 114.079
L63.8625 131.002
L73.0045 143.502
L82.1465 152.102
L91.2884 153.478
L100.43 143.629
L109.572 126.352
L118.714 111.005
L127.856 105.613
L136.998 128.89
L146.14 137.562
L155.282 136.678
L164.424 122.168
L173.566 116.095
L182.708 119.953
L191.85 94.2732
L200.992 88.9756
L210.134 77.1054
L219.276 71.9484
L228.418 80.2795
L237.56 77.9816
L246.702 96.8125
L255.844 107.759" style="fill:none;stroke:#03012d;stroke-linecap:round;"/>
   </g>
   <g id="line2d_27">
    <path clip-path="url(#pa691a7dfe0)" d="
M45.5786 126.94
L54.7206 124.135
L63.8625 133.982
L73.0045 141.932
L82.1465 138.754
L91.2884 141.513
L100.43 146.841
L109.572 155
L118.714 152.304
L127.856 135.429
L136.998 123.116
L146.14 114.778
L155.282 95.0951
L164.424 92.9488
L173.566 99.1625
L182.708 87.087
L191.85 86.9249
L200.992 94.1289
L210.134 86.0838
L219.276 83.7269
L228.418 84.4563
L237.56 91.1313
L246.702 95.9487
L255.844 92.1404" style="fill:none;stroke:#03012d;stroke-linecap:round;"/>
   </g>
   <g id="line2d_28">
    <path clip-path="url(#pa691a7dfe0)" d="
M45.5786 128.603
L54.7206 135.106
L63.8625 141.132
L73.0045 142.106
L82.1465 144.634
L91.2884 146.857
L100.43 148.87
L109.572 146.409
L118.714 142.383
L127.856 135.043
L136.998 115.187
L146.14 98.3456
L155.282 86.359
L164.424 84.3438
L173.566 85.3392
L182.708 83.3456
L191.85 86.9433
L200.992 97.539
L210.134 96.1069
L219.276 95.3603
L228.418 97.0054
L237.56 95.1357
L246.702 94.3021
L255.844 97.1052" style="fill:none;stroke:#03012d;stroke-linecap:round;"/>
   </g>
   <g id="line2d_29">
    <path clip-path="url(#pa691a7dfe0)" d="
M45.5786 151.066
L54.7206 148.428
L63.8625 154.97
L73.0045 157.714
L82.1465 152.232
L91.2884 135.711
L100.43 127.159
L109.572 118.677
L118.714 115.488
L127.856 118.321
L136.998 113.44
L146.14 100.106
L155.282 86.2968
L164.424 92.2383
L173.566 103.22
L182.708 97.3333
L191.85 94.0151
L200.992 108.821
L210.134 107.339
L219.276 99.1344
L228.418 93.2902
L237.56 93.7106
L246.702 80.8636
L255.844 73.9854" style="fill:none;stroke:#03012d;stroke-linecap:round;"/>
   </g>
   <g id="line2d_30">
    <path clip-path="url(#pa691a7dfe0)" d="
M45.5786 126.875
L54.7206 131.264
L63.8625 125.033
L73.0045 128.236
L82.1465 127.683
L91.2884 133.099
L100.43 146.79
L109.572 151.094
L118.714 148.182
L127.856 149.467
L136.998 137.749
L146.14 120.273
L155.282 112.55
L164.424 104.247
L173.566 102.196
L182.708 90.2956
L191.85 84.8334
L200.992 85.9538
L210.134 78.1073
L219.276 73.1755
L228.418 82.0298
L237.56 91.984
L246.702 94.4013
L255.844 98.0414" style="fill:none;stroke:#03012d;stroke-linecap:round;"/>
   </g>
   <g id="line2d_31">
    <path clip-path="url(#pa691a7dfe0)" d="
M45.5786 140.363
L54.7206 135.418
L63.8625 139.837
L73.0045 138.365
L82.1465 145.739
L91.2884 143.355
L100.43 136.043
L109.572 131.004
L118.714 139.116
L127.856 141.231
L136.998 127.016
L146.14 121.214
L155.282 111.367
L164.424 97.1913
L173.566 88.6318
L182.708 85.7194
L191.85 89.8489
L200.992 93.4745
L210.134 79.0148
L219.276 76.6039
L228.418 83.7892
L237.56 85.2865
L246.702 93.2779
L255.844 100.655" style="fill:none;stroke:#03012d;stroke-linecap:round;"/>
   </g>
   <g id="patch_3">
    <path d="
M45.5786 174.898
L45.5786 20.7894" style="fill:none;stroke:#262626;stroke-linecap:square;stroke-linejoin:miter;stroke-width:1.25;"/>
   </g>
   <g id="patch_4">
    <path d="
M45.5786 174.898
L255.844 174.898" style="fill:none;stroke:#262626;stroke-linecap:square;stroke-linejoin:miter;stroke-width:1.25;"/>
   </g>
   <g id="text_12">
    <!-- Botrytis -->
    <defs>
     <path d="
M7.32812 0
L7.32812 71.5781
L34.1875 71.5781
Q42.3906 71.5781 47.3438 69.4062
Q52.2969 67.2344 55.0938 62.7188
Q57.9062 58.2031 57.9062 53.2656
Q57.9062 48.6875 55.4219 44.625
Q52.9375 40.5781 47.9062 38.0938
Q54.3906 36.1875 57.875 31.5938
Q61.375 27 61.375 20.75
Q61.375 15.7188 59.25 11.3906
Q57.125 7.07812 54 4.73438
Q50.875 2.39062 46.1562 1.1875
Q41.4531 0 34.625 0
z

M16.7969 41.5
L32.2812 41.5
Q38.5781 41.5 41.3125 42.3281
Q44.9219 43.4062 46.75 45.8906
Q48.5781 48.3906 48.5781 52.1562
Q48.5781 55.7188 46.875 58.4219
Q45.1719 61.1406 41.9844 62.1406
Q38.8125 63.1406 31.1094 63.1406
L16.7969 63.1406
z

M16.7969 8.45312
L34.625 8.45312
Q39.2031 8.45312 41.0625 8.79688
Q44.3438 9.375 46.5312 10.7344
Q48.7344 12.1094 50.1406 14.7188
Q51.5625 17.3281 51.5625 20.75
Q51.5625 24.75 49.5156 27.7031
Q47.4688 30.6719 43.8281 31.8594
Q40.1875 33.0625 33.3438 33.0625
L16.7969 33.0625
z
" id="ArialMT-42"/>
     <path d="
M6.20312 -19.9688
L5.21875 -11.7188
Q8.10938 -12.5 10.25 -12.5
Q13.1875 -12.5 14.9375 -11.5156
Q16.7031 -10.5469 17.8281 -8.79688
Q18.6562 -7.46875 20.5156 -2.25
Q20.75 -1.51562 21.2969 -0.09375
L1.60938 51.8594
L11.0781 51.8594
L21.875 21.8281
Q23.9688 16.1094 25.6406 9.8125
Q27.1562 15.875 29.25 21.625
L40.3281 51.8594
L49.125 51.8594
L29.3906 -0.875
Q26.2188 -9.42188 24.4688 -12.6406
Q22.125 -17 19.0938 -19.0156
Q16.0625 -21.0469 11.8594 -21.0469
Q9.32812 -21.0469 6.20312 -19.9688" id="ArialMT-79"/>
     <path d="
M25.7812 7.85938
L27.0469 0.09375
Q23.3438 -0.6875 20.4062 -0.6875
Q15.625 -0.6875 12.9844 0.828125
Q10.3594 2.34375 9.28125 4.8125
Q8.20312 7.28125 8.20312 15.1875
L8.20312 45.0156
L1.76562 45.0156
L1.76562 51.8594
L8.20312 51.8594
L8.20312 64.7031
L16.9375 69.9688
L16.9375 51.8594
L25.7812 51.8594
L25.7812 45.0156
L16.9375 45.0156
L16.9375 14.7031
Q16.9375 10.9375 17.4062 9.85938
Q17.875 8.79688 18.9219 8.15625
Q19.9688 7.51562 21.9219 7.51562
Q23.3906 7.51562 25.7812 7.85938" id="ArialMT-74"/>
    </defs>
    <g style="fill:#262626;" transform="translate(131.3790625 15.789375)scale(0.12 -0.12)">
     <use xlink:href="#ArialMT-42"/>
     <use x="66.69921875" xlink:href="#ArialMT-6f"/>
     <use x="122.314453125" xlink:href="#ArialMT-74"/>
     <use x="150.09765625" xlink:href="#ArialMT-72"/>
     <use x="183.3984375" xlink:href="#ArialMT-79"/>
     <use x="233.3984375" xlink:href="#ArialMT-74"/>
     <use x="261.181640625" xlink:href="#ArialMT-69"/>
     <use x="283.3984375" xlink:href="#ArialMT-73"/>
    </g>
   </g>
  </g>
  <g id="axes_2">
   <g id="patch_5">
    <path d="
M268.804 174.898
L479.069 174.898
L479.069 20.7894
L268.804 20.7894
z
" style="fill:#ffffff;"/>
   </g>
   <g id="matplotlib.axis_3">
    <g id="xtick_5">
     <g id="line2d_32">
      <g>
       <use style="fill:#262626;stroke:#262626;" x="279.317171875" xlink:href="#me1deecec79" y="174.8978125"/>
      </g>
     </g>
     <g id="text_13">
      <!-- 20 -->
      <g style="fill:#262626;" transform="translate(274.142171875 195.055625)scale(0.1 -0.1)">
       <use xlink:href="#ArialMT-32"/>
       <use x="55.615234375" xlink:href="#ArialMT-30"/>
      </g>
     </g>
    </g>
    <g id="xtick_6">
     <g id="line2d_33">
      <g>
       <use style="fill:#262626;stroke:#262626;" x="331.8835" xlink:href="#me1deecec79" y="174.8978125"/>
      </g>
     </g>
     <g id="text_14">
      <!-- 25 -->
      <defs>
       <path d="
M4.15625 18.75
L13.375 19.5312
Q14.4062 12.7969 18.1406 9.39062
Q21.875 6 27.1562 6
Q33.5 6 37.8906 10.7812
Q42.2812 15.5781 42.2812 23.4844
Q42.2812 31 38.0625 35.3438
Q33.8438 39.7031 27 39.7031
Q22.75 39.7031 19.3281 37.7656
Q15.9219 35.8438 13.9688 32.7656
L5.71875 33.8438
L12.6406 70.6094
L48.25 70.6094
L48.25 62.2031
L19.6719 62.2031
L15.8281 42.9688
Q22.2656 47.4688 29.3438 47.4688
Q38.7188 47.4688 45.1562 40.9688
Q51.6094 34.4688 51.6094 24.2656
Q51.6094 14.5469 45.9531 7.46875
Q39.0625 -1.21875 27.1562 -1.21875
Q17.3906 -1.21875 11.2031 4.25
Q5.03125 9.71875 4.15625 18.75" id="ArialMT-35"/>
      </defs>
      <g style="fill:#262626;" transform="translate(326.6694375 195.055625)scale(0.1 -0.1)">
       <use xlink:href="#ArialMT-32"/>
       <use x="55.615234375" xlink:href="#ArialMT-35"/>
      </g>
     </g>
    </g>
    <g id="xtick_7">
     <g id="line2d_34">
      <g>
       <use style="fill:#262626;stroke:#262626;" x="384.449828125" xlink:href="#me1deecec79" y="174.8978125"/>
      </g>
     </g>
     <g id="text_15">
      <!-- 30 -->
      <g style="fill:#262626;" transform="translate(379.338109375 195.055625)scale(0.1 -0.1)">
       <use xlink:href="#ArialMT-33"/>
       <use x="55.615234375" xlink:href="#ArialMT-30"/>
      </g>
     </g>
    </g>
    <g id="xtick_8">
     <g id="line2d_35">
      <g>
       <use style="fill:#262626;stroke:#262626;" x="437.01615625" xlink:href="#me1deecec79" y="174.8978125"/>
      </g>
     </g>
     <g id="text_16">
      <!-- 35 -->
      <g style="fill:#262626;" transform="translate(431.865375 195.055625)scale(0.1 -0.1)">
       <use xlink:href="#ArialMT-33"/>
       <use x="55.615234375" xlink:href="#ArialMT-35"/>
      </g>
     </g>
    </g>
   </g>
   <g id="matplotlib.axis_4">
    <g id="ytick_7">
     <g id="line2d_36">
      <g>
       <use style="fill:#262626;stroke:#262626;" x="268.80390625" xlink:href="#m4aded61697" y="163.439692914"/>
      </g>
     </g>
    </g>
    <g id="ytick_8">
     <g id="line2d_37">
      <g>
       <use style="fill:#262626;stroke:#262626;" x="268.80390625" xlink:href="#m4aded61697" y="138.460682491"/>
      </g>
     </g>
    </g>
    <g id="ytick_9">
     <g id="line2d_38">
      <g>
       <use style="fill:#262626;stroke:#262626;" x="268.80390625" xlink:href="#m4aded61697" y="113.481672069"/>
      </g>
     </g>
    </g>
    <g id="ytick_10">
     <g id="line2d_39">
      <g>
       <use style="fill:#262626;stroke:#262626;" x="268.80390625" xlink:href="#m4aded61697" y="88.5026616463"/>
      </g>
     </g>
    </g>
    <g id="ytick_11">
     <g id="line2d_40">
      <g>
       <use style="fill:#262626;stroke:#262626;" x="268.80390625" xlink:href="#m4aded61697" y="63.5236512239"/>
      </g>
     </g>
    </g>
    <g id="ytick_12">
     <g id="line2d_41">
      <g>
       <use style="fill:#262626;stroke:#262626;" x="268.80390625" xlink:href="#m4aded61697" y="38.5446408015"/>
      </g>
     </g>
    </g>
   </g>
   <g id="line2d_42">
    <path clip-path="url(#pa61dcb5892)" d="
M268.804 131.703
L289.83 133.483
L310.857 126.576
L331.884 118.084
L352.91 125.206
L373.937 133.68
L394.963 129.975
L415.99 117.42
L437.016 96.1073
L458.043 72.9642
L479.069 63.1" style="fill:none;stroke:#03012d;stroke-linecap:round;"/>
   </g>
   <g id="line2d_43">
    <path clip-path="url(#pa61dcb5892)" d="
M268.804 157.366
L289.83 148.363
L310.857 134.272
L331.884 118.844
L352.91 116.698
L373.937 115.375
L394.963 101.789
L415.99 90.83
L437.016 83.8846
L458.043 86.3021
L479.069 94.5746" style="fill:none;stroke:#03012d;stroke-linecap:round;"/>
   </g>
   <g id="line2d_44">
    <path clip-path="url(#pa61dcb5892)" d="
M268.804 89.1398
L289.83 92.4725
L310.857 88.4904
L331.884 93.2826
L352.91 101.127
L373.937 99.4079
L394.963 114.049
L415.99 137.345
L437.016 158.455
L458.043 144.29
L479.069 130.24" style="fill:none;stroke:#03012d;stroke-linecap:round;"/>
   </g>
   <g id="line2d_45">
    <path clip-path="url(#pa61dcb5892)" d="
M268.804 112.438
L289.83 126.385
L310.857 103.828
L331.884 87.4569
L352.91 97.9065
L373.937 85.4239
L394.963 90.6182
L415.99 135.025
L437.016 169.19
L458.043 126.942
L479.069 113.086" style="fill:none;stroke:#03012d;stroke-linecap:round;"/>
   </g>
   <g id="line2d_46">
    <path clip-path="url(#pa61dcb5892)" d="
M268.804 138.921
L289.83 139.113
L310.857 140.788
L331.884 132.72
L352.91 131.239
L373.937 123.61
L394.963 101.846
L415.99 89.2687
L437.016 82.8908
L458.043 83.7115
L479.069 84.1902" style="fill:none;stroke:#03012d;stroke-linecap:round;"/>
   </g>
   <g id="line2d_47">
    <path clip-path="url(#pa61dcb5892)" d="
M268.804 116.125
L289.83 128.339
L310.857 102.383
L331.884 67.4997
L352.91 97.8632
L373.937 137.965
L394.963 144.557
L415.99 137.704
L437.016 126.245
L458.043 110.907
L479.069 78.7116" style="fill:none;stroke:#03012d;stroke-linecap:round;"/>
   </g>
   <g id="line2d_48">
    <path clip-path="url(#pa61dcb5892)" d="
M268.804 145.925
L289.83 143.293
L310.857 133.843
L331.884 124.17
L352.91 124.327
L373.937 120.714
L394.963 111.52
L415.99 103.245
L437.016 91.988
L458.043 76.9684
L479.069 72.3043" style="fill:none;stroke:#03012d;stroke-linecap:round;"/>
   </g>
   <g id="line2d_49">
    <path clip-path="url(#pa61dcb5892)" d="
M268.804 116.786
L289.83 122.252
L310.857 115.211
L331.884 105.399
L352.91 135.854
L373.937 127.72
L394.963 116.029
L415.99 121.751
L437.016 129.825
L458.043 114.955
L479.069 42.5172" style="fill:none;stroke:#03012d;stroke-linecap:round;"/>
   </g>
   <g id="line2d_50">
    <path clip-path="url(#pa61dcb5892)" d="
M268.804 138.585
L289.83 137.204
L310.857 133.327
L331.884 128.822
L352.91 128.659
L373.937 126.867
L394.963 115.186
L415.99 103.582
L437.016 91.3511
L458.043 76.5381
L479.069 68.1782" style="fill:none;stroke:#03012d;stroke-linecap:round;"/>
   </g>
   <g id="line2d_51">
    <path clip-path="url(#pa61dcb5892)" d="
M268.804 57.4281
L289.83 81.0888
L310.857 113.435
L331.884 122.12
L352.91 126.734
L373.937 128.573
L394.963 137.466
L415.99 136.713
L437.016 129.432
L458.043 115.807
L479.069 99.5011" style="fill:none;stroke:#03012d;stroke-linecap:round;"/>
   </g>
   <g id="line2d_52">
    <path clip-path="url(#pa61dcb5892)" d="
M268.804 136.092
L289.83 134.23
L310.857 129.257
L331.884 120.762
L352.91 129.128
L373.937 135.552
L394.963 127.231
L415.99 103.402
L437.016 85.4767
L458.043 75.2153
L479.069 71.9515" style="fill:none;stroke:#03012d;stroke-linecap:round;"/>
   </g>
   <g id="line2d_53">
    <path clip-path="url(#pa61dcb5892)" d="
M268.804 145.159
L289.83 147.331
L310.857 138.708
L331.884 127.061
L352.91 121.401
L373.937 117.56
L394.963 105.776
L415.99 96.1096
L437.016 88.8551
L458.043 81.4072
L479.069 78.9307" style="fill:none;stroke:#03012d;stroke-linecap:round;"/>
   </g>
   <g id="line2d_54">
    <path clip-path="url(#pa61dcb5892)" d="
M268.804 105.813
L289.83 109.771
L310.857 109.536
L331.884 89.8448
L352.91 107.273
L373.937 147.471
L394.963 162.001
L415.99 134.534
L437.016 110.537
L458.043 91.0383
L479.069 80.4794" style="fill:none;stroke:#03012d;stroke-linecap:round;"/>
   </g>
   <g id="line2d_55">
    <path clip-path="url(#pa61dcb5892)" d="
M268.804 141.871
L289.83 137.282
L310.857 129.067
L331.884 115.602
L352.91 131.226
L373.937 133.935
L394.963 111.855
L415.99 109.077
L437.016 85.9907
L458.043 63.3848
L479.069 89.0076" style="fill:none;stroke:#03012d;stroke-linecap:round;"/>
   </g>
   <g id="line2d_56">
    <path clip-path="url(#pa61dcb5892)" d="
M268.804 144.399
L289.83 150.866
L310.857 121.467
L331.884 84.6567
L352.91 114.825
L373.937 139.578
L394.963 91.3461
L415.99 92.6023
L437.016 109.834
L458.043 121.392
L479.069 77.3329" style="fill:none;stroke:#03012d;stroke-linecap:round;"/>
   </g>
   <g id="line2d_57">
    <path clip-path="url(#pa61dcb5892)" d="
M268.804 135.884
L289.83 145.505
L310.857 136.091
L331.884 119.945
L352.91 125.475
L373.937 126.076
L394.963 115.55
L415.99 104.214
L437.016 93.8206
L458.043 79.2414
L479.069 66.4965" style="fill:none;stroke:#03012d;stroke-linecap:round;"/>
   </g>
   <g id="line2d_58">
    <path clip-path="url(#pa61dcb5892)" d="
M268.804 100.859
L289.83 113.801
L310.857 143.271
L331.884 136.096
L352.91 115.326
L373.937 129.83
L394.963 149.414
L415.99 115.612
L437.016 82.3537
L458.043 77.8218
L479.069 83.9127" style="fill:none;stroke:#03012d;stroke-linecap:round;"/>
   </g>
   <g id="line2d_59">
    <path clip-path="url(#pa61dcb5892)" d="
M268.804 123.856
L289.83 127.261
L310.857 118.786
L331.884 116.986
L352.91 133.38
L373.937 139.781
L394.963 131.465
L415.99 120.363
L437.016 101.195
L458.043 74.1011
L479.069 61.123" style="fill:none;stroke:#03012d;stroke-linecap:round;"/>
   </g>
   <g id="line2d_60">
    <path clip-path="url(#pa61dcb5892)" d="
M268.804 155.189
L289.83 144.395
L310.857 130.443
L331.884 123.908
L352.91 119.011
L373.937 107.295
L394.963 81.7261
L415.99 78.1584
L437.016 86.531
L458.043 104.399
L479.069 117.242" style="fill:none;stroke:#03012d;stroke-linecap:round;"/>
   </g>
   <g id="line2d_61">
    <path clip-path="url(#pa61dcb5892)" d="
M268.804 115.858
L289.83 124.59
L310.857 137.682
L331.884 132.178
L352.91 134.994
L373.937 136.398
L394.963 125.007
L415.99 107.854
L437.016 89.6034
L458.043 75.3978
L479.069 68.7356" style="fill:none;stroke:#03012d;stroke-linecap:round;"/>
   </g>
   <g id="line2d_62">
    <path clip-path="url(#pa61dcb5892)" d="
M268.804 150.624
L289.83 140.969
L310.857 134.763
L331.884 127.269
L352.91 121.482
L373.937 117.722
L394.963 112.773
L415.99 99.9953
L437.016 78.5557
L458.043 80.6306
L479.069 83.5148" style="fill:none;stroke:#03012d;stroke-linecap:round;"/>
   </g>
   <g id="patch_6">
    <path d="
M268.804 174.898
L268.804 20.7894" style="fill:none;stroke:#262626;stroke-linecap:square;stroke-linejoin:miter;stroke-width:1.25;"/>
   </g>
   <g id="patch_7">
    <path d="
M268.804 174.898
L479.069 174.898" style="fill:none;stroke:#262626;stroke-linecap:square;stroke-linejoin:miter;stroke-width:1.25;"/>
   </g>
   <g id="text_17">
    <!-- Senescence -->
    <defs>
     <path d="
M4.5 23
L13.4219 23.7812
Q14.0625 18.4062 16.375 14.9688
Q18.7031 11.5312 23.5781 9.40625
Q28.4688 7.28125 34.5781 7.28125
Q39.9844 7.28125 44.1406 8.89062
Q48.2969 10.5 50.3125 13.2969
Q52.3438 16.1094 52.3438 19.4375
Q52.3438 22.7969 50.3906 25.3125
Q48.4375 27.8281 43.9531 29.5469
Q41.0625 30.6719 31.2031 33.0312
Q21.3438 35.4062 17.3906 37.5
Q12.25 40.1875 9.73438 44.1562
Q7.23438 48.1406 7.23438 53.0781
Q7.23438 58.5 10.2969 63.2031
Q13.375 67.9219 19.2812 70.3594
Q25.2031 72.7969 32.4219 72.7969
Q40.375 72.7969 46.4531 70.2344
Q52.5469 67.6719 55.8125 62.6875
Q59.0781 57.7188 59.3281 51.4219
L50.25 50.7344
Q49.5156 57.5156 45.2812 60.9844
Q41.0625 64.4531 32.8125 64.4531
Q24.2188 64.4531 20.2812 61.2969
Q16.3594 58.1562 16.3594 53.7188
Q16.3594 49.8594 19.1406 47.3594
Q21.875 44.875 33.4219 42.2656
Q44.9688 39.6562 49.2656 37.7031
Q55.5156 34.8125 58.4844 30.3906
Q61.4688 25.9844 61.4688 20.2188
Q61.4688 14.5 58.2031 9.4375
Q54.9375 4.39062 48.7969 1.57812
Q42.6719 -1.21875 35.0156 -1.21875
Q25.2969 -1.21875 18.7188 1.60938
Q12.1562 4.4375 8.42188 10.125
Q4.6875 15.8281 4.5 23" id="ArialMT-53"/>
     <path d="
M40.4375 19
L49.0781 17.875
Q47.6562 8.9375 41.8125 3.875
Q35.9844 -1.17188 27.4844 -1.17188
Q16.8438 -1.17188 10.375 5.78125
Q3.90625 12.75 3.90625 25.7344
Q3.90625 34.125 6.6875 40.4219
Q9.46875 46.7344 15.1562 49.875
Q20.8438 53.0312 27.5469 53.0312
Q35.9844 53.0312 41.3594 48.75
Q46.7344 44.4844 48.25 36.625
L39.7031 35.2969
Q38.4844 40.5312 35.375 43.1562
Q32.2812 45.7969 27.875 45.7969
Q21.2344 45.7969 17.0781 41.0312
Q12.9375 36.2812 12.9375 25.9844
Q12.9375 15.5312 16.9375 10.7969
Q20.9531 6.0625 27.3906 6.0625
Q32.5625 6.0625 36.0312 9.23438
Q39.5 12.4062 40.4375 19" id="ArialMT-63"/>
    </defs>
    <g style="fill:#262626;" transform="translate(341.4334375 15.789375)scale(0.12 -0.12)">
     <use xlink:href="#ArialMT-53"/>
     <use x="66.69921875" xlink:href="#ArialMT-65"/>
     <use x="122.314453125" xlink:href="#ArialMT-6e"/>
     <use x="177.9296875" xlink:href="#ArialMT-65"/>
     <use x="233.544921875" xlink:href="#ArialMT-73"/>
     <use x="283.544921875" xlink:href="#ArialMT-63"/>
     <use x="333.544921875" xlink:href="#ArialMT-65"/>
     <use x="389.16015625" xlink:href="#ArialMT-6e"/>
     <use x="444.775390625" xlink:href="#ArialMT-63"/>
     <use x="494.775390625" xlink:href="#ArialMT-65"/>
    </g>
   </g>
  </g>
  <g id="axes_3">
   <g id="patch_8">
    <path d="
M492.029 174.898
L702.295 174.898
L702.295 20.7894
L492.029 20.7894
z
" style="fill:#ffffff;"/>
   </g>
   <g id="matplotlib.axis_5">
    <g id="xtick_9">
     <g id="line2d_63">
      <g>
       <use style="fill:#262626;stroke:#262626;" x="532.292789229" xlink:href="#me1deecec79" y="174.8978125"/>
      </g>
     </g>
     <g id="text_18">
      <!-- 5 -->
      <g style="fill:#262626;" transform="translate(529.920132979 195.055625)scale(0.1 -0.1)">
       <use xlink:href="#ArialMT-35"/>
      </g>
     </g>
    </g>
    <g id="xtick_10">
     <g id="line2d_64">
      <g>
       <use style="fill:#262626;stroke:#262626;" x="577.030089761" xlink:href="#me1deecec79" y="174.8978125"/>
      </g>
     </g>
     <g id="text_19">
      <!-- 10 -->
      <g style="fill:#262626;" transform="translate(572.252746011 195.055625)scale(0.1 -0.1)">
       <use xlink:href="#ArialMT-31"/>
       <use x="55.615234375" xlink:href="#ArialMT-30"/>
      </g>
     </g>
    </g>
    <g id="xtick_11">
     <g id="line2d_65">
      <g>
       <use style="fill:#262626;stroke:#262626;" x="621.767390293" xlink:href="#me1deecec79" y="174.8978125"/>
      </g>
     </g>
     <g id="text_20">
      <!-- 15 -->
      <g style="fill:#262626;" transform="translate(616.950984043 195.055625)scale(0.1 -0.1)">
       <use xlink:href="#ArialMT-31"/>
       <use x="55.615234375" xlink:href="#ArialMT-35"/>
      </g>
     </g>
    </g>
    <g id="xtick_12">
     <g id="line2d_66">
      <g>
       <use style="fill:#262626;stroke:#262626;" x="666.504690824" xlink:href="#me1deecec79" y="174.8978125"/>
      </g>
     </g>
     <g id="text_21">
      <!-- 20 -->
      <g style="fill:#262626;" transform="translate(661.329690824 195.055625)scale(0.1 -0.1)">
       <use xlink:href="#ArialMT-32"/>
       <use x="55.615234375" xlink:href="#ArialMT-30"/>
      </g>
     </g>
    </g>
   </g>
   <g id="matplotlib.axis_6">
    <g id="ytick_13">
     <g id="line2d_67">
      <g>
       <use style="fill:#262626;stroke:#262626;" x="492.02921875" xlink:href="#m4aded61697" y="163.439692914"/>
      </g>
     </g>
    </g>
    <g id="ytick_14">
     <g id="line2d_68">
      <g>
       <use style="fill:#262626;stroke:#262626;" x="492.02921875" xlink:href="#m4aded61697" y="138.460682491"/>
      </g>
     </g>
    </g>
    <g id="ytick_15">
     <g id="line2d_69">
      <g>
       <use style="fill:#262626;stroke:#262626;" x="492.02921875" xlink:href="#m4aded61697" y="113.481672069"/>
      </g>
     </g>
    </g>
    <g id="ytick_16">
     <g id="line2d_70">
      <g>
       <use style="fill:#262626;stroke:#262626;" x="492.02921875" xlink:href="#m4aded61697" y="88.5026616463"/>
      </g>
     </g>
    </g>
    <g id="ytick_17">
     <g id="line2d_71">
      <g>
       <use style="fill:#262626;stroke:#262626;" x="492.02921875" xlink:href="#m4aded61697" y="63.5236512239"/>
      </g>
     </g>
    </g>
    <g id="ytick_18">
     <g id="line2d_72">
      <g>
       <use style="fill:#262626;stroke:#262626;" x="492.02921875" xlink:href="#m4aded61697" y="38.5446408015"/>
      </g>
     </g>
    </g>
   </g>
   <g id="line2d_73">
    <path clip-path="url(#p3aeff855be)" d="
M492.029 146.148
L496.503 138.389
L514.398 113.869
L541.24 108.217
L594.925 84.3077
L702.295 89.9591" style="fill:none;stroke:#d9544d;stroke-linecap:round;"/>
   </g>
   <g id="line2d_74">
    <path clip-path="url(#p3aeff855be)" d="
M492.029 144.908
L496.503 134.08
L514.398 119.553
L541.24 111.191
L594.925 92.9478
L702.295 78.2097" style="fill:none;stroke:#d9544d;stroke-linecap:round;"/>
   </g>
   <g id="line2d_75">
    <path clip-path="url(#p3aeff855be)" d="
M492.029 141.201
L496.503 137.083
L514.398 120.798
L541.24 112.549
L594.925 90.755
L702.295 78.5036" style="fill:none;stroke:#d9544d;stroke-linecap:round;"/>
   </g>
   <g id="line2d_76">
    <path clip-path="url(#p3aeff855be)" d="
M492.029 140.174
L496.503 137.967
L514.398 126.747
L541.24 104.164
L594.925 89.4904
L702.295 82.347" style="fill:none;stroke:#d9544d;stroke-linecap:round;"/>
   </g>
   <g id="line2d_77">
    <path clip-path="url(#p3aeff855be)" d="
M492.029 147.858
L496.503 140.426
L514.398 108.921
L541.24 102.701
L594.925 93.4887
L702.295 87.4951" style="fill:none;stroke:#d9544d;stroke-linecap:round;"/>
   </g>
   <g id="line2d_78">
    <path clip-path="url(#p3aeff855be)" d="
M492.029 139.456
L496.503 143.498
L514.398 117.209
L541.24 108.662
L594.925 86.1598
L702.295 85.9048" style="fill:none;stroke:#d9544d;stroke-linecap:round;"/>
   </g>
   <g id="line2d_79">
    <path clip-path="url(#p3aeff855be)" d="
M492.029 146.022
L496.503 134.425
L514.398 119.124
L541.24 109.006
L594.925 92.367
L702.295 79.9469" style="fill:none;stroke:#d9544d;stroke-linecap:round;"/>
   </g>
   <g id="line2d_80">
    <path clip-path="url(#p3aeff855be)" d="
M492.029 145.213
L496.503 137.602
L514.398 117.89
L541.24 105.068
L594.925 80.5987
L702.295 94.5188" style="fill:none;stroke:#d9544d;stroke-linecap:round;"/>
   </g>
   <g id="line2d_81">
    <path clip-path="url(#p3aeff855be)" d="
M492.029 140.586
L496.503 137.089
L514.398 119.946
L541.24 114.325
L594.925 91.6168
L702.295 77.3263" style="fill:none;stroke:#d9544d;stroke-linecap:round;"/>
   </g>
   <g id="line2d_82">
    <path clip-path="url(#p3aeff855be)" d="
M492.029 134.765
L496.503 142.87
L514.398 125.942
L541.24 106.292
L594.925 89.4635
L702.295 81.5563" style="fill:none;stroke:#d9544d;stroke-linecap:round;"/>
   </g>
   <g id="line2d_83">
    <path clip-path="url(#p3aeff855be)" d="
M492.029 142.929
L496.503 138.988
L514.398 119.367
L541.24 107.465
L594.925 89.8499
L702.295 82.2924" style="fill:none;stroke:#d9544d;stroke-linecap:round;"/>
   </g>
   <g id="line2d_84">
    <path clip-path="url(#p3aeff855be)" d="
M492.029 142.011
L496.503 139.363
L514.398 116.543
L541.24 112.055
L594.925 90.6575
L702.295 80.2606" style="fill:none;stroke:#d9544d;stroke-linecap:round;"/>
   </g>
   <g id="line2d_85">
    <path clip-path="url(#p3aeff855be)" d="
M492.029 140.609
L496.503 143.706
L514.398 115.702
L541.24 104.367
L594.925 95.648
L702.295 80.8579" style="fill:none;stroke:#d9544d;stroke-linecap:round;"/>
   </g>
   <g id="line2d_86">
    <path clip-path="url(#p3aeff855be)" d="
M492.029 148.209
L496.503 135.863
L514.398 115.184
L541.24 106.969
L594.925 87.4449
L702.295 87.2205" style="fill:none;stroke:#d9544d;stroke-linecap:round;"/>
   </g>
   <g id="line2d_87">
    <path clip-path="url(#p3aeff855be)" d="
M492.029 136.903
L496.503 137.227
L514.398 127.754
L541.24 111.899
L594.925 85.7702
L702.295 81.3373" style="fill:none;stroke:#d9544d;stroke-linecap:round;"/>
   </g>
   <g id="line2d_88">
    <path clip-path="url(#p3aeff855be)" d="
M492.029 139.61
L496.503 140.547
L514.398 117.888
L541.24 110.603
L594.925 95.5958
L702.295 76.6456" style="fill:none;stroke:#d9544d;stroke-linecap:round;"/>
   </g>
   <g id="line2d_89">
    <path clip-path="url(#p3aeff855be)" d="
M492.029 149.596
L496.503 135.031
L514.398 114.378
L541.24 105.639
L594.925 89.2659
L702.295 86.9794" style="fill:none;stroke:#d9544d;stroke-linecap:round;"/>
   </g>
   <g id="line2d_90">
    <path clip-path="url(#p3aeff855be)" d="
M492.029 143.835
L496.503 136.937
L514.398 124.089
L541.24 101.748
L594.925 89.4189
L702.295 84.8625" style="fill:none;stroke:#d9544d;stroke-linecap:round;"/>
   </g>
   <g id="line2d_91">
    <path clip-path="url(#p3aeff855be)" d="
M492.029 139.72
L496.503 138.761
L514.398 123.869
L541.24 109.281
L594.925 85.5985
L702.295 83.6614" style="fill:none;stroke:#d9544d;stroke-linecap:round;"/>
   </g>
   <g id="line2d_92">
    <path clip-path="url(#p3aeff855be)" d="
M492.029 145.244
L496.503 139.281
L514.398 115.218
L541.24 106.46
L594.925 90.9844
L702.295 83.702" style="fill:none;stroke:#d9544d;stroke-linecap:round;"/>
   </g>
   <g id="line2d_93">
    <path clip-path="url(#p3aeff855be)" d="
M492.029 146.988
L496.503 139.302
L514.398 114.216
L541.24 102.665
L594.925 88.4086
L702.295 89.3111" style="fill:none;stroke:#d9544d;stroke-linecap:round;"/>
   </g>
   <g id="patch_9">
    <path d="
M492.029 174.898
L492.029 20.7894" style="fill:none;stroke:#262626;stroke-linecap:square;stroke-linejoin:miter;stroke-width:1.25;"/>
   </g>
   <g id="patch_10">
    <path d="
M492.029 174.898
L702.295 174.898" style="fill:none;stroke:#262626;stroke-linecap:square;stroke-linejoin:miter;stroke-width:1.25;"/>
   </g>
   <g id="text_22">
    <!-- Root Cold -->
    <defs>
     <path d="
M7.85938 0
L7.85938 71.5781
L39.5938 71.5781
Q49.1719 71.5781 54.1406 69.6406
Q59.125 67.7188 62.1094 62.8281
Q65.0938 57.9531 65.0938 52.0469
Q65.0938 44.4375 60.1562 39.2031
Q55.2188 33.9844 44.9219 32.5625
Q48.6875 30.7656 50.6406 29
Q54.7812 25.2031 58.5 19.4844
L70.9531 0
L59.0312 0
L49.5625 14.8906
Q45.4062 21.3438 42.7188 24.75
Q40.0469 28.1719 37.9219 29.5312
Q35.7969 30.9062 33.5938 31.4531
Q31.9844 31.7812 28.3281 31.7812
L17.3281 31.7812
L17.3281 0
z

M17.3281 39.9844
L37.7031 39.9844
Q44.1875 39.9844 47.8438 41.3281
Q51.5156 42.6719 53.4219 45.625
Q55.3281 48.5781 55.3281 52.0469
Q55.3281 57.125 51.6406 60.3906
Q47.9531 63.6719 39.9844 63.6719
L17.3281 63.6719
z
" id="ArialMT-52"/>
     <path d="
M58.7969 25.0938
L68.2656 22.7031
Q65.2812 11.0312 57.5469 4.90625
Q49.8125 -1.21875 38.625 -1.21875
Q27.0469 -1.21875 19.7969 3.48438
Q12.5469 8.20312 8.76562 17.1406
Q4.98438 26.0781 4.98438 36.3281
Q4.98438 47.5156 9.25 55.8281
Q13.5312 64.1562 21.4062 68.4688
Q29.2969 72.7969 38.7656 72.7969
Q49.5156 72.7969 56.8281 67.3281
Q64.1562 61.8594 67.0469 51.9531
L57.7188 49.75
Q55.2188 57.5625 50.4844 61.125
Q45.75 64.7031 38.5781 64.7031
Q30.3281 64.7031 24.7812 60.7344
Q19.2344 56.7812 16.9844 50.1094
Q14.75 43.4531 14.75 36.375
Q14.75 27.25 17.4062 20.4375
Q20.0625 13.625 25.6719 10.25
Q31.2969 6.89062 37.8438 6.89062
Q45.7969 6.89062 51.3125 11.4688
Q56.8438 16.0625 58.7969 25.0938" id="ArialMT-43"/>
     <path id="ArialMT-20"/>
     <path d="
M40.2344 0
L40.2344 6.54688
Q35.2969 -1.17188 25.7344 -1.17188
Q19.5312 -1.17188 14.3281 2.25
Q9.125 5.67188 6.26562 11.7969
Q3.42188 17.9219 3.42188 25.875
Q3.42188 33.6406 6 39.9688
Q8.59375 46.2969 13.7656 49.6562
Q18.9531 53.0312 25.3438 53.0312
Q30.0312 53.0312 33.6875 51.0469
Q37.3594 49.0781 39.6562 45.9062
L39.6562 71.5781
L48.3906 71.5781
L48.3906 0
z

M12.4531 25.875
Q12.4531 15.9219 16.6406 10.9844
Q20.8438 6.0625 26.5625 6.0625
Q32.3281 6.0625 36.3438 10.7656
Q40.375 15.4844 40.375 25.1406
Q40.375 35.7969 36.2656 40.7656
Q32.1719 45.75 26.1719 45.75
Q20.3125 45.75 16.375 40.9688
Q12.4531 36.1875 12.4531 25.875" id="ArialMT-64"/>
     <path d="
M6.39062 0
L6.39062 71.5781
L15.1875 71.5781
L15.1875 0
z
" id="ArialMT-6c"/>
    </defs>
    <g style="fill:#262626;" transform="translate(570.915625 15.789375)scale(0.12 -0.12)">
     <use xlink:href="#ArialMT-52"/>
     <use x="72.216796875" xlink:href="#ArialMT-6f"/>
     <use x="127.83203125" xlink:href="#ArialMT-6f"/>
     <use x="183.447265625" xlink:href="#ArialMT-74"/>
     <use x="211.23046875" xlink:href="#ArialMT-20"/>
     <use x="239.013671875" xlink:href="#ArialMT-43"/>
     <use x="311.23046875" xlink:href="#ArialMT-6f"/>
     <use x="366.845703125" xlink:href="#ArialMT-6c"/>
     <use x="389.0625" xlink:href="#ArialMT-64"/>
    </g>
   </g>
  </g>
  <g id="axes_4">
   <g id="patch_11">
    <path d="
M45.5786 377.418
L255.844 377.418
L255.844 223.309
L45.5786 223.309
z
" style="fill:#ffffff;"/>
   </g>
   <g id="matplotlib.axis_7">
    <g id="xtick_13">
     <g id="line2d_94">
      <g>
       <use style="fill:#262626;stroke:#262626;" x="87.63165625" xlink:href="#me1deecec79" y="377.4178125"/>
      </g>
     </g>
     <g id="text_23">
      <!-- 5 -->
      <g style="fill:#262626;" transform="translate(85.259 397.575625)scale(0.1 -0.1)">
       <use xlink:href="#ArialMT-35"/>
      </g>
     </g>
    </g>
    <g id="xtick_14">
     <g id="line2d_95">
      <g>
       <use style="fill:#262626;stroke:#262626;" x="131.898037829" xlink:href="#me1deecec79" y="377.4178125"/>
      </g>
     </g>
     <g id="text_24">
      <!-- 10 -->
      <g style="fill:#262626;" transform="translate(127.120694079 397.575625)scale(0.1 -0.1)">
       <use xlink:href="#ArialMT-31"/>
       <use x="55.615234375" xlink:href="#ArialMT-30"/>
      </g>
     </g>
    </g>
    <g id="xtick_15">
     <g id="line2d_96">
      <g>
       <use style="fill:#262626;stroke:#262626;" x="176.164419408" xlink:href="#me1deecec79" y="377.4178125"/>
      </g>
     </g>
     <g id="text_25">
      <!-- 15 -->
      <g style="fill:#262626;" transform="translate(171.348013158 397.575625)scale(0.1 -0.1)">
       <use xlink:href="#ArialMT-31"/>
       <use x="55.615234375" xlink:href="#ArialMT-35"/>
      </g>
     </g>
    </g>
    <g id="xtick_16">
     <g id="line2d_97">
      <g>
       <use style="fill:#262626;stroke:#262626;" x="220.430800987" xlink:href="#me1deecec79" y="377.4178125"/>
      </g>
     </g>
     <g id="text_26">
      <!-- 20 -->
      <g style="fill:#262626;" transform="translate(215.255800987 397.575625)scale(0.1 -0.1)">
       <use xlink:href="#ArialMT-32"/>
       <use x="55.615234375" xlink:href="#ArialMT-30"/>
      </g>
     </g>
    </g>
    <g id="text_27">
     <!-- Time -->
     <defs>
      <path d="
M6.59375 0
L6.59375 51.8594
L14.4531 51.8594
L14.4531 44.5781
Q16.8906 48.3906 20.9375 50.7031
Q25 53.0312 30.1719 53.0312
Q35.9375 53.0312 39.625 50.6406
Q43.3125 48.25 44.8281 43.9531
Q50.9844 53.0312 60.8438 53.0312
Q68.5625 53.0312 72.7031 48.75
Q76.8594 44.4844 76.8594 35.5938
L76.8594 0
L68.1094 0
L68.1094 32.6719
Q68.1094 37.9375 67.25 40.25
Q66.4062 42.5781 64.1562 43.9844
Q61.9219 45.4062 58.8906 45.4062
Q53.4219 45.4062 49.7969 41.7656
Q46.1875 38.1406 46.1875 30.125
L46.1875 0
L37.4062 0
L37.4062 33.6875
Q37.4062 39.5469 35.25 42.4688
Q33.1094 45.4062 28.2188 45.4062
Q24.5156 45.4062 21.3594 43.4531
Q18.2188 41.5 16.7969 37.7344
Q15.375 33.9844 15.375 26.9062
L15.375 0
z
" id="ArialMT-6d"/>
      <path d="
M25.9219 0
L25.9219 63.1406
L2.34375 63.1406
L2.34375 71.5781
L59.0781 71.5781
L59.0781 63.1406
L35.4062 63.1406
L35.4062 0
z
" id="ArialMT-54"/>
     </defs>
     <g style="fill:#262626;" transform="translate(139.05296875 412.43671875)scale(0.11 -0.11)">
      <use xlink:href="#ArialMT-54"/>
      <use x="57.333984375" xlink:href="#ArialMT-69"/>
      <use x="79.55078125" xlink:href="#ArialMT-6d"/>
      <use x="162.8515625" xlink:href="#ArialMT-65"/>
     </g>
    </g>
   </g>
   <g id="matplotlib.axis_8">
    <g id="ytick_19">
     <g id="line2d_98">
      <g>
       <use style="fill:#262626;stroke:#262626;" x="45.57859375" xlink:href="#m4aded61697" y="365.959692914"/>
      </g>
     </g>
     <g id="text_28">
      <!-- −2 -->
      <g style="fill:#262626;" transform="translate(22.25984375 368.544849164)scale(0.1 -0.1)">
       <use xlink:href="#ArialMT-2212"/>
       <use x="58.3984375" xlink:href="#ArialMT-32"/>
      </g>
     </g>
    </g>
    <g id="ytick_20">
     <g id="line2d_99">
      <g>
       <use style="fill:#262626;stroke:#262626;" x="45.57859375" xlink:href="#m4aded61697" y="340.980682491"/>
      </g>
     </g>
     <g id="text_29">
      <!-- −1 -->
      <g style="fill:#262626;" transform="translate(23.56921875 343.565838741)scale(0.1 -0.1)">
       <use xlink:href="#ArialMT-2212"/>
       <use x="58.3984375" xlink:href="#ArialMT-31"/>
      </g>
     </g>
    </g>
    <g id="ytick_21">
     <g id="line2d_100">
      <g>
       <use style="fill:#262626;stroke:#262626;" x="45.57859375" xlink:href="#m4aded61697" y="316.001672069"/>
      </g>
     </g>
     <g id="text_30">
      <!-- 0 -->
      <g style="fill:#262626;" transform="translate(27.91140625 318.586828319)scale(0.1 -0.1)">
       <use xlink:href="#ArialMT-30"/>
      </g>
     </g>
    </g>
    <g id="ytick_22">
     <g id="line2d_101">
      <g>
       <use style="fill:#262626;stroke:#262626;" x="45.57859375" xlink:href="#m4aded61697" y="291.022661646"/>
      </g>
     </g>
     <g id="text_31">
      <!-- 1 -->
      <g style="fill:#262626;" transform="translate(29.94265625 293.607817896)scale(0.1 -0.1)">
       <use xlink:href="#ArialMT-31"/>
      </g>
     </g>
    </g>
    <g id="ytick_23">
     <g id="line2d_102">
      <g>
       <use style="fill:#262626;stroke:#262626;" x="45.57859375" xlink:href="#m4aded61697" y="266.043651224"/>
      </g>
     </g>
     <g id="text_32">
      <!-- 2 -->
      <g style="fill:#262626;" transform="translate(27.83796875 268.628807474)scale(0.1 -0.1)">
       <use xlink:href="#ArialMT-32"/>
      </g>
     </g>
    </g>
    <g id="ytick_24">
     <g id="line2d_103">
      <g>
       <use style="fill:#262626;stroke:#262626;" x="45.57859375" xlink:href="#m4aded61697" y="241.064640801"/>
      </g>
     </g>
     <g id="text_33">
      <!-- 3 -->
      <g style="fill:#262626;" transform="translate(27.89109375 243.649797051)scale(0.1 -0.1)">
       <use xlink:href="#ArialMT-33"/>
      </g>
     </g>
    </g>
    <g id="text_34">
     <!-- Expression -->
     <g style="fill:#262626;" transform="translate(15.07359375 326.75671875)rotate(-90.0)scale(0.11 -0.11)">
      <use xlink:href="#ArialMT-45"/>
      <use x="66.69921875" xlink:href="#ArialMT-78"/>
      <use x="116.69921875" xlink:href="#ArialMT-70"/>
      <use x="172.314453125" xlink:href="#ArialMT-72"/>
      <use x="205.615234375" xlink:href="#ArialMT-65"/>
      <use x="261.23046875" xlink:href="#ArialMT-73"/>
      <use x="311.23046875" xlink:href="#ArialMT-73"/>
      <use x="361.23046875" xlink:href="#ArialMT-69"/>
      <use x="383.447265625" xlink:href="#ArialMT-6f"/>
      <use x="439.0625" xlink:href="#ArialMT-6e"/>
     </g>
    </g>
   </g>
   <g id="line2d_104">
    <path clip-path="url(#p4d13165c25)" d="
M45.5786 307.608
L47.7919 284.088
L52.2186 286.546
L69.9251 322.198
L96.4849 322.463
L149.605 350.737
L255.844 338.371" style="fill:none;stroke:#d9544d;stroke-linecap:round;"/>
   </g>
   <g id="line2d_105">
    <path clip-path="url(#p4d13165c25)" d="
M45.5786 312.289
L47.7919 284.988
L52.2186 283.456
L69.9251 318.829
L96.4849 323.223
L149.605 342.229
L255.844 346.999" style="fill:none;stroke:#d9544d;stroke-linecap:round;"/>
   </g>
   <g id="line2d_106">
    <path clip-path="url(#p4d13165c25)" d="
M45.5786 326.658
L47.7919 299.464
L52.2186 282.625
L69.9251 311.754
L96.4849 297.911
L149.605 346.432
L255.844 347.168" style="fill:none;stroke:#d9544d;stroke-linecap:round;"/>
   </g>
   <g id="line2d_107">
    <path clip-path="url(#p4d13165c25)" d="
M45.5786 315.219
L47.7919 302.512
L52.2186 285.661
L69.9251 307.07
L96.4849 301.272
L149.605 352.699
L255.844 347.578" style="fill:none;stroke:#d9544d;stroke-linecap:round;"/>
   </g>
   <g id="line2d_108">
    <path clip-path="url(#p4d13165c25)" d="
M45.5786 307.938
L47.7919 290.513
L52.2186 278.692
L69.9251 319.071
L96.4849 332.168
L149.605 345.907
L255.844 337.724" style="fill:none;stroke:#d9544d;stroke-linecap:round;"/>
   </g>
   <g id="line2d_109">
    <path clip-path="url(#p4d13165c25)" d="
M45.5786 319.602
L47.7919 279.116
L52.2186 282.188
L69.9251 324.82
L96.4849 332.715
L149.605 338.495
L255.844 335.076" style="fill:none;stroke:#d9544d;stroke-linecap:round;"/>
   </g>
   <g id="line2d_110">
    <path clip-path="url(#p4d13165c25)" d="
M45.5786 315.104
L47.7919 284.733
L52.2186 282.964
L69.9251 323.668
L96.4849 316.788
L149.605 345.77
L255.844 342.985" style="fill:none;stroke:#d9544d;stroke-linecap:round;"/>
   </g>
   <g id="line2d_111">
    <path clip-path="url(#p4d13165c25)" d="
M45.5786 324.116
L47.7919 289.969
L52.2186 272.881
L69.9251 324.211
L96.4849 325.085
L149.605 341.994
L255.844 333.756" style="fill:none;stroke:#d9544d;stroke-linecap:round;"/>
   </g>
   <g id="line2d_112">
    <path clip-path="url(#p4d13165c25)" d="
M45.5786 314.382
L47.7919 289.674
L52.2186 279.573
L69.9251 320.235
L96.4849 317.875
L149.605 346.088
L255.844 344.185" style="fill:none;stroke:#d9544d;stroke-linecap:round;"/>
   </g>
   <g id="line2d_113">
    <path clip-path="url(#p4d13165c25)" d="
M45.5786 333.135
L47.7919 284.836
L52.2186 285.622
L69.9251 305.386
L96.4849 317.355
L149.605 342.152
L255.844 343.525" style="fill:none;stroke:#d9544d;stroke-linecap:round;"/>
   </g>
   <g id="line2d_114">
    <path clip-path="url(#p4d13165c25)" d="
M45.5786 308.082
L47.7919 276.255
L52.2186 291.961
L69.9251 325.073
L96.4849 327.468
L149.605 341.189
L255.844 341.985" style="fill:none;stroke:#d9544d;stroke-linecap:round;"/>
   </g>
   <g id="line2d_115">
    <path clip-path="url(#p4d13165c25)" d="
M45.5786 311.419
L47.7919 282.4
L52.2186 295.062
L69.9251 312.92
L96.4849 312.984
L149.605 346.436
L255.844 350.791" style="fill:none;stroke:#d9544d;stroke-linecap:round;"/>
   </g>
   <g id="line2d_116">
    <path clip-path="url(#p4d13165c25)" d="
M45.5786 317.511
L47.7919 271.787
L52.2186 292.139
L69.9251 324.765
L96.4849 331.742
L149.605 335.064
L255.844 339.004" style="fill:none;stroke:#d9544d;stroke-linecap:round;"/>
   </g>
   <g id="line2d_117">
    <path clip-path="url(#p4d13165c25)" d="
M45.5786 309.446
L47.7919 277.554
L52.2186 288.956
L69.9251 322.112
L96.4849 337.06
L149.605 337.197
L255.844 339.687" style="fill:none;stroke:#d9544d;stroke-linecap:round;"/>
   </g>
   <g id="line2d_118">
    <path clip-path="url(#p4d13165c25)" d="
M45.5786 304.36
L47.7919 300.543
L52.2186 279.797
L69.9251 320.593
L96.4849 311.39
L149.605 350.012
L255.844 345.317" style="fill:none;stroke:#d9544d;stroke-linecap:round;"/>
   </g>
   <g id="line2d_119">
    <path clip-path="url(#p4d13165c25)" d="
M45.5786 313.205
L47.7919 281.938
L52.2186 281.933
L69.9251 328.364
L96.4849 328.029
L149.605 343.42
L255.844 335.123" style="fill:none;stroke:#d9544d;stroke-linecap:round;"/>
   </g>
   <g id="line2d_120">
    <path clip-path="url(#p4d13165c25)" d="
M45.5786 305.305
L47.7919 273.435
L52.2186 295.364
L69.9251 331.464
L96.4849 332.808
L149.605 338.092
L255.844 335.545" style="fill:none;stroke:#d9544d;stroke-linecap:round;"/>
   </g>
   <g id="line2d_121">
    <path clip-path="url(#p4d13165c25)" d="
M45.5786 319.173
L47.7919 293.447
L52.2186 279.456
L69.9251 315.238
L96.4849 312.685
L149.605 339.793
L255.844 352.22" style="fill:none;stroke:#d9544d;stroke-linecap:round;"/>
   </g>
   <g id="line2d_122">
    <path clip-path="url(#p4d13165c25)" d="
M45.5786 301.7
L47.7919 281.109
L52.2186 290.229
L69.9251 322.263
L96.4849 333.492
L149.605 340.96
L255.844 342.258" style="fill:none;stroke:#d9544d;stroke-linecap:round;"/>
   </g>
   <g id="line2d_123">
    <path clip-path="url(#p4d13165c25)" d="
M45.5786 305.827
L47.7919 283.084
L52.2186 283.415
L69.9251 328.14
L96.4849 337.489
L149.605 336.165
L255.844 337.891" style="fill:none;stroke:#d9544d;stroke-linecap:round;"/>
   </g>
   <g id="line2d_124">
    <path clip-path="url(#p4d13165c25)" d="
M45.5786 326.276
L47.7919 281.548
L52.2186 288.156
L69.9251 308.235
L96.4849 321.307
L149.605 350.416
L255.844 336.073" style="fill:none;stroke:#d9544d;stroke-linecap:round;"/>
   </g>
   <g id="patch_12">
    <path d="
M45.5786 377.418
L45.5786 223.309" style="fill:none;stroke:#262626;stroke-linecap:square;stroke-linejoin:miter;stroke-width:1.25;"/>
   </g>
   <g id="patch_13">
    <path d="
M45.5786 377.418
L255.844 377.418" style="fill:none;stroke:#262626;stroke-linecap:square;stroke-linejoin:miter;stroke-width:1.25;"/>
   </g>
   <g id="text_35">
    <!-- Root Drought -->
    <defs>
     <path d="
M40.5781 0
L40.5781 7.625
Q34.5156 -1.17188 24.125 -1.17188
Q19.5312 -1.17188 15.5469 0.578125
Q11.5781 2.34375 9.64062 5
Q7.71875 7.67188 6.9375 11.5312
Q6.39062 14.1094 6.39062 19.7344
L6.39062 51.8594
L15.1875 51.8594
L15.1875 23.0938
Q15.1875 16.2188 15.7188 13.8125
Q16.5469 10.3594 19.2344 8.375
Q21.9219 6.39062 25.875 6.39062
Q29.8281 6.39062 33.2969 8.42188
Q36.7656 10.4531 38.2031 13.9375
Q39.6562 17.4375 39.6562 24.0781
L39.6562 51.8594
L48.4375 51.8594
L48.4375 0
z
" id="ArialMT-75"/>
     <path d="
M6.59375 0
L6.59375 71.5781
L15.375 71.5781
L15.375 45.9062
Q21.5312 53.0312 30.9062 53.0312
Q36.6719 53.0312 40.9219 50.75
Q45.1719 48.4844 47 44.4844
Q48.8281 40.4844 48.8281 32.8594
L48.8281 0
L40.0469 0
L40.0469 32.8594
Q40.0469 39.4531 37.1875 42.4531
Q34.3281 45.4531 29.1094 45.4531
Q25.2031 45.4531 21.75 43.4219
Q18.3125 41.4062 16.8438 37.9375
Q15.375 34.4688 15.375 28.375
L15.375 0
z
" id="ArialMT-68"/>
     <path d="
M7.71875 0
L7.71875 71.5781
L32.375 71.5781
Q40.7188 71.5781 45.125 70.5625
Q51.2656 69.1406 55.6094 65.4375
Q61.2812 60.6406 64.0781 53.1875
Q66.8906 45.75 66.8906 36.1875
Q66.8906 28.0312 64.9844 21.7344
Q63.0938 15.4375 60.1094 11.2969
Q57.125 7.17188 53.5781 4.79688
Q50.0469 2.4375 45.0469 1.21875
Q40.0469 0 33.5469 0
z

M17.1875 8.45312
L32.4688 8.45312
Q39.5469 8.45312 43.5781 9.76562
Q47.6094 11.0781 50 13.4844
Q53.375 16.8438 55.25 22.5312
Q57.125 28.2188 57.125 36.3281
Q57.125 47.5625 53.4375 53.5938
Q49.75 59.625 44.4844 61.6719
Q40.6719 63.1406 32.2344 63.1406
L17.1875 63.1406
z
" id="ArialMT-44"/>
     <path d="
M4.98438 -4.29688
L13.5312 -5.5625
Q14.0625 -9.51562 16.5 -11.3281
Q19.7812 -13.7656 25.4375 -13.7656
Q31.5469 -13.7656 34.8594 -11.3281
Q38.1875 -8.89062 39.3594 -4.5
Q40.0469 -1.8125 39.9844 6.78125
Q34.2344 0 25.6406 0
Q14.9375 0 9.07812 7.71875
Q3.21875 15.4375 3.21875 26.2188
Q3.21875 33.6406 5.90625 39.9062
Q8.59375 46.1875 13.6875 49.6094
Q18.7969 53.0312 25.6875 53.0312
Q34.8594 53.0312 40.8281 45.6094
L40.8281 51.8594
L48.9219 51.8594
L48.9219 7.03125
Q48.9219 -5.07812 46.4531 -10.125
Q44 -15.1875 38.6406 -18.1094
Q33.2969 -21.0469 25.4844 -21.0469
Q16.2188 -21.0469 10.5 -16.875
Q4.78125 -12.7031 4.98438 -4.29688
M12.25 26.8594
Q12.25 16.6562 16.2969 11.9688
Q20.3594 7.28125 26.4688 7.28125
Q32.5156 7.28125 36.6094 11.9375
Q40.7188 16.6094 40.7188 26.5625
Q40.7188 36.0781 36.5 40.9062
Q32.2812 45.75 26.3125 45.75
Q20.4531 45.75 16.3438 40.9844
Q12.25 36.2344 12.25 26.8594" id="ArialMT-67"/>
    </defs>
    <g style="fill:#262626;" transform="translate(115.07125 218.309375)scale(0.12 -0.12)">
     <use xlink:href="#ArialMT-52"/>
     <use x="72.216796875" xlink:href="#ArialMT-6f"/>
     <use x="127.83203125" xlink:href="#ArialMT-6f"/>
     <use x="183.447265625" xlink:href="#ArialMT-74"/>
     <use x="211.23046875" xlink:href="#ArialMT-20"/>
     <use x="239.013671875" xlink:href="#ArialMT-44"/>
     <use x="311.23046875" xlink:href="#ArialMT-72"/>
     <use x="344.53125" xlink:href="#ArialMT-6f"/>
     <use x="400.146484375" xlink:href="#ArialMT-75"/>
     <use x="455.76171875" xlink:href="#ArialMT-67"/>
     <use x="511.376953125" xlink:href="#ArialMT-68"/>
     <use x="566.9921875" xlink:href="#ArialMT-74"/>
    </g>
   </g>
  </g>
  <g id="axes_5">
   <g id="patch_14">
    <path d="
M268.804 377.418
L479.069 377.418
L479.069 223.309
L268.804 223.309
z
" style="fill:#ffffff;"/>
   </g>
   <g id="matplotlib.axis_9">
    <g id="xtick_17">
     <g id="line2d_125">
      <g>
       <use style="fill:#262626;stroke:#262626;" x="309.067476729" xlink:href="#me1deecec79" y="377.4178125"/>
      </g>
     </g>
     <g id="text_36">
      <!-- 5 -->
      <g style="fill:#262626;" transform="translate(306.694820479 397.575625)scale(0.1 -0.1)">
       <use xlink:href="#ArialMT-35"/>
      </g>
     </g>
    </g>
    <g id="xtick_18">
     <g id="line2d_126">
      <g>
       <use style="fill:#262626;stroke:#262626;" x="353.804777261" xlink:href="#me1deecec79" y="377.4178125"/>
      </g>
     </g>
     <g id="text_37">
      <!-- 10 -->
      <g style="fill:#262626;" transform="translate(349.027433511 397.575625)scale(0.1 -0.1)">
       <use xlink:href="#ArialMT-31"/>
       <use x="55.615234375" xlink:href="#ArialMT-30"/>
      </g>
     </g>
    </g>
    <g id="xtick_19">
     <g id="line2d_127">
      <g>
       <use style="fill:#262626;stroke:#262626;" x="398.542077793" xlink:href="#me1deecec79" y="377.4178125"/>
      </g>
     </g>
     <g id="text_38">
      <!-- 15 -->
      <g style="fill:#262626;" transform="translate(393.725671543 397.575625)scale(0.1 -0.1)">
       <use xlink:href="#ArialMT-31"/>
       <use x="55.615234375" xlink:href="#ArialMT-35"/>
      </g>
     </g>
    </g>
    <g id="xtick_20">
     <g id="line2d_128">
      <g>
       <use style="fill:#262626;stroke:#262626;" x="443.279378324" xlink:href="#me1deecec79" y="377.4178125"/>
      </g>
     </g>
     <g id="text_39">
      <!-- 20 -->
      <g style="fill:#262626;" transform="translate(438.104378324 397.575625)scale(0.1 -0.1)">
       <use xlink:href="#ArialMT-32"/>
       <use x="55.615234375" xlink:href="#ArialMT-30"/>
      </g>
     </g>
    </g>
    <g id="text_40">
     <!-- Time -->
     <g style="fill:#262626;" transform="translate(362.27828125 412.43671875)scale(0.11 -0.11)">
      <use xlink:href="#ArialMT-54"/>
      <use x="57.333984375" xlink:href="#ArialMT-69"/>
      <use x="79.55078125" xlink:href="#ArialMT-6d"/>
      <use x="162.8515625" xlink:href="#ArialMT-65"/>
     </g>
    </g>
   </g>
   <g id="matplotlib.axis_10">
    <g id="ytick_25">
     <g id="line2d_129">
      <g>
       <use style="fill:#262626;stroke:#262626;" x="268.80390625" xlink:href="#m4aded61697" y="365.959692914"/>
      </g>
     </g>
    </g>
    <g id="ytick_26">
     <g id="line2d_130">
      <g>
       <use style="fill:#262626;stroke:#262626;" x="268.80390625" xlink:href="#m4aded61697" y="340.980682491"/>
      </g>
     </g>
    </g>
    <g id="ytick_27">
     <g id="line2d_131">
      <g>
       <use style="fill:#262626;stroke:#262626;" x="268.80390625" xlink:href="#m4aded61697" y="316.001672069"/>
      </g>
     </g>
    </g>
    <g id="ytick_28">
     <g id="line2d_132">
      <g>
       <use style="fill:#262626;stroke:#262626;" x="268.80390625" xlink:href="#m4aded61697" y="291.022661646"/>
      </g>
     </g>
    </g>
    <g id="ytick_29">
     <g id="line2d_133">
      <g>
       <use style="fill:#262626;stroke:#262626;" x="268.80390625" xlink:href="#m4aded61697" y="266.043651224"/>
      </g>
     </g>
    </g>
    <g id="ytick_30">
     <g id="line2d_134">
      <g>
       <use style="fill:#262626;stroke:#262626;" x="268.80390625" xlink:href="#m4aded61697" y="241.064640801"/>
      </g>
     </g>
    </g>
   </g>
   <g id="line2d_135">
    <path clip-path="url(#p659f111a6e)" d="
M268.804 345.802
L273.278 340.882
L291.173 313.569
L318.015 282.296
L371.7 318.953
L479.069 294.508" style="fill:none;stroke:#03012d;stroke-linecap:round;"/>
   </g>
   <g id="line2d_136">
    <path clip-path="url(#p659f111a6e)" d="
M268.804 349.198
L273.278 332.776
L291.173 306.387
L318.015 292.828
L371.7 285.509
L479.069 329.312" style="fill:none;stroke:#03012d;stroke-linecap:round;"/>
   </g>
   <g id="line2d_137">
    <path clip-path="url(#p659f111a6e)" d="
M268.804 313.78
L273.278 313.307
L291.173 288.748
L318.015 291.999
L371.7 333.817
L479.069 354.359" style="fill:none;stroke:#03012d;stroke-linecap:round;"/>
   </g>
   <g id="line2d_138">
    <path clip-path="url(#p659f111a6e)" d="
M268.804 349.932
L273.278 340.076
L291.173 294.571
L318.015 288.46
L371.7 303.413
L479.069 319.557" style="fill:none;stroke:#03012d;stroke-linecap:round;"/>
   </g>
   <g id="line2d_139">
    <path clip-path="url(#p659f111a6e)" d="
M268.804 341.676
L273.278 330.658
L291.173 295.94
L318.015 284.785
L371.7 301.364
L479.069 341.586" style="fill:none;stroke:#03012d;stroke-linecap:round;"/>
   </g>
   <g id="line2d_140">
    <path clip-path="url(#p659f111a6e)" d="
M268.804 321.547
L273.278 314.015
L291.173 298.405
L318.015 283.459
L371.7 321.522
L479.069 357.062" style="fill:none;stroke:#03012d;stroke-linecap:round;"/>
   </g>
   <g id="line2d_141">
    <path clip-path="url(#p659f111a6e)" d="
M268.804 321.032
L273.278 324.829
L291.173 330.474
L318.015 346.815
L371.7 293.801
L479.069 279.059" style="fill:none;stroke:#03012d;stroke-linecap:round;"/>
   </g>
   <g id="line2d_142">
    <path clip-path="url(#p659f111a6e)" d="
M268.804 334.14
L273.278 337.667
L291.173 318.713
L318.015 318.515
L371.7 318.924
L479.069 268.052" style="fill:none;stroke:#03012d;stroke-linecap:round;"/>
   </g>
   <g id="line2d_143">
    <path clip-path="url(#p659f111a6e)" d="
M268.804 333.85
L273.278 328.447
L291.173 319.311
L318.015 329.542
L371.7 318.323
L479.069 266.538" style="fill:none;stroke:#03012d;stroke-linecap:round;"/>
   </g>
   <g id="line2d_144">
    <path clip-path="url(#p659f111a6e)" d="
M268.804 348.502
L273.278 347.305
L291.173 306.532
L318.015 297.508
L371.7 295.888
L479.069 300.275" style="fill:none;stroke:#03012d;stroke-linecap:round;"/>
   </g>
   <g id="line2d_145">
    <path clip-path="url(#p659f111a6e)" d="
M268.804 340.167
L273.278 349.337
L291.173 318.121
L318.015 307.596
L371.7 294.755
L479.069 286.034" style="fill:none;stroke:#03012d;stroke-linecap:round;"/>
   </g>
   <g id="line2d_146">
    <path clip-path="url(#p659f111a6e)" d="
M268.804 357.373
L273.278 333.611
L291.173 313.395
L318.015 297.225
L371.7 293.203
L479.069 301.203" style="fill:none;stroke:#03012d;stroke-linecap:round;"/>
   </g>
   <g id="line2d_147">
    <path clip-path="url(#p659f111a6e)" d="
M268.804 338.52
L273.278 353.434
L291.173 311.186
L318.015 308.408
L371.7 292.733
L479.069 291.729" style="fill:none;stroke:#03012d;stroke-linecap:round;"/>
   </g>
   <g id="line2d_148">
    <path clip-path="url(#p659f111a6e)" d="
M268.804 344.841
L273.278 338.999
L291.173 296.236
L318.015 279.95
L371.7 312.476
L479.069 323.507" style="fill:none;stroke:#03012d;stroke-linecap:round;"/>
   </g>
   <g id="line2d_149">
    <path clip-path="url(#p659f111a6e)" d="
M268.804 335.737
L273.278 341.444
L291.173 323.03
L318.015 316.838
L371.7 307.174
L479.069 271.787" style="fill:none;stroke:#03012d;stroke-linecap:round;"/>
   </g>
   <g id="line2d_150">
    <path clip-path="url(#p659f111a6e)" d="
M268.804 352.41
L273.278 333.785
L291.173 306.989
L318.015 299.923
L371.7 320.357
L479.069 282.547" style="fill:none;stroke:#03012d;stroke-linecap:round;"/>
   </g>
   <g id="line2d_151">
    <path clip-path="url(#p659f111a6e)" d="
M268.804 354.808
L273.278 337.14
L291.173 306.971
L318.015 292.822
L371.7 293.09
L479.069 311.179" style="fill:none;stroke:#03012d;stroke-linecap:round;"/>
   </g>
   <g id="line2d_152">
    <path clip-path="url(#p659f111a6e)" d="
M268.804 345.408
L273.278 349.045
L291.173 304.236
L318.015 293.882
L371.7 293.736
L479.069 309.703" style="fill:none;stroke:#03012d;stroke-linecap:round;"/>
   </g>
   <g id="line2d_153">
    <path clip-path="url(#p659f111a6e)" d="
M268.804 348.712
L273.278 334.935
L291.173 313.646
L318.015 295.914
L371.7 322.088
L479.069 280.714" style="fill:none;stroke:#03012d;stroke-linecap:round;"/>
   </g>
   <g id="line2d_154">
    <path clip-path="url(#p659f111a6e)" d="
M268.804 348.882
L273.278 340.576
L291.173 303.873
L318.015 286.773
L371.7 295.629
L479.069 320.277" style="fill:none;stroke:#03012d;stroke-linecap:round;"/>
   </g>
   <g id="line2d_155">
    <path clip-path="url(#p659f111a6e)" d="
M268.804 284.155
L273.278 287.432
L291.173 315.09
L318.015 340.387
L371.7 332.075
L479.069 336.87" style="fill:none;stroke:#03012d;stroke-linecap:round;"/>
   </g>
   <g id="patch_15">
    <path d="
M268.804 377.418
L268.804 223.309" style="fill:none;stroke:#262626;stroke-linecap:square;stroke-linejoin:miter;stroke-width:1.25;"/>
   </g>
   <g id="patch_16">
    <path d="
M268.804 377.418
L479.069 377.418" style="fill:none;stroke:#262626;stroke-linecap:square;stroke-linejoin:miter;stroke-width:1.25;"/>
   </g>
   <g id="text_41">
    <!-- Shoot Cold -->
    <g style="fill:#262626;" transform="translate(344.6846875 218.309375)scale(0.12 -0.12)">
     <use xlink:href="#ArialMT-53"/>
     <use x="66.69921875" xlink:href="#ArialMT-68"/>
     <use x="122.314453125" xlink:href="#ArialMT-6f"/>
     <use x="177.9296875" xlink:href="#ArialMT-6f"/>
     <use x="233.544921875" xlink:href="#ArialMT-74"/>
     <use x="261.328125" xlink:href="#ArialMT-20"/>
     <use x="289.111328125" xlink:href="#ArialMT-43"/>
     <use x="361.328125" xlink:href="#ArialMT-6f"/>
     <use x="416.943359375" xlink:href="#ArialMT-6c"/>
     <use x="439.16015625" xlink:href="#ArialMT-64"/>
    </g>
   </g>
  </g>
  <g id="axes_6">
   <g id="patch_17">
    <path d="
M492.029 377.418
L702.295 377.418
L702.295 223.309
L492.029 223.309
z
" style="fill:#ffffff;"/>
   </g>
   <g id="matplotlib.axis_11">
    <g id="xtick_21">
     <g id="line2d_156">
      <g>
       <use style="fill:#262626;stroke:#262626;" x="534.08228125" xlink:href="#me1deecec79" y="377.4178125"/>
      </g>
     </g>
     <g id="text_42">
      <!-- 5 -->
      <g style="fill:#262626;" transform="translate(531.709625 397.575625)scale(0.1 -0.1)">
       <use xlink:href="#ArialMT-35"/>
      </g>
     </g>
    </g>
    <g id="xtick_22">
     <g id="line2d_157">
      <g>
       <use style="fill:#262626;stroke:#262626;" x="578.348662829" xlink:href="#me1deecec79" y="377.4178125"/>
      </g>
     </g>
     <g id="text_43">
      <!-- 10 -->
      <g style="fill:#262626;" transform="translate(573.571319079 397.575625)scale(0.1 -0.1)">
       <use xlink:href="#ArialMT-31"/>
       <use x="55.615234375" xlink:href="#ArialMT-30"/>
      </g>
     </g>
    </g>
    <g id="xtick_23">
     <g id="line2d_158">
      <g>
       <use style="fill:#262626;stroke:#262626;" x="622.615044408" xlink:href="#me1deecec79" y="377.4178125"/>
      </g>
     </g>
     <g id="text_44">
      <!-- 15 -->
      <g style="fill:#262626;" transform="translate(617.798638158 397.575625)scale(0.1 -0.1)">
       <use xlink:href="#ArialMT-31"/>
       <use x="55.615234375" xlink:href="#ArialMT-35"/>
      </g>
     </g>
    </g>
    <g id="xtick_24">
     <g id="line2d_159">
      <g>
       <use style="fill:#262626;stroke:#262626;" x="666.881425987" xlink:href="#me1deecec79" y="377.4178125"/>
      </g>
     </g>
     <g id="text_45">
      <!-- 20 -->
      <g style="fill:#262626;" transform="translate(661.706425987 397.575625)scale(0.1 -0.1)">
       <use xlink:href="#ArialMT-32"/>
       <use x="55.615234375" xlink:href="#ArialMT-30"/>
      </g>
     </g>
    </g>
    <g id="text_46">
     <!-- Time -->
     <g style="fill:#262626;" transform="translate(585.50359375 412.43671875)scale(0.11 -0.11)">
      <use xlink:href="#ArialMT-54"/>
      <use x="57.333984375" xlink:href="#ArialMT-69"/>
      <use x="79.55078125" xlink:href="#ArialMT-6d"/>
      <use x="162.8515625" xlink:href="#ArialMT-65"/>
     </g>
    </g>
   </g>
   <g id="matplotlib.axis_12">
    <g id="ytick_31">
     <g id="line2d_160">
      <g>
       <use style="fill:#262626;stroke:#262626;" x="492.02921875" xlink:href="#m4aded61697" y="365.959692914"/>
      </g>
     </g>
    </g>
    <g id="ytick_32">
     <g id="line2d_161">
      <g>
       <use style="fill:#262626;stroke:#262626;" x="492.02921875" xlink:href="#m4aded61697" y="340.980682491"/>
      </g>
     </g>
    </g>
    <g id="ytick_33">
     <g id="line2d_162">
      <g>
       <use style="fill:#262626;stroke:#262626;" x="492.02921875" xlink:href="#m4aded61697" y="316.001672069"/>
      </g>
     </g>
    </g>
    <g id="ytick_34">
     <g id="line2d_163">
      <g>
       <use style="fill:#262626;stroke:#262626;" x="492.02921875" xlink:href="#m4aded61697" y="291.022661646"/>
      </g>
     </g>
    </g>
    <g id="ytick_35">
     <g id="line2d_164">
      <g>
       <use style="fill:#262626;stroke:#262626;" x="492.02921875" xlink:href="#m4aded61697" y="266.043651224"/>
      </g>
     </g>
    </g>
    <g id="ytick_36">
     <g id="line2d_165">
      <g>
       <use style="fill:#262626;stroke:#262626;" x="492.02921875" xlink:href="#m4aded61697" y="241.064640801"/>
      </g>
     </g>
    </g>
   </g>
   <g id="line2d_166">
    <path clip-path="url(#p99eb28ba72)" d="
M492.029 328.587
L494.243 310.092
L498.669 301.088
L516.376 271.73
L542.936 317.173
L596.055 346.608
L702.295 336.734" style="fill:none;stroke:#d9544d;stroke-linecap:round;"/>
   </g>
   <g id="line2d_167">
    <path clip-path="url(#p99eb28ba72)" d="
M492.029 342.462
L494.243 319.534
L498.669 305.357
L516.376 281.902
L542.936 287.652
L596.055 340.9
L702.295 334.205" style="fill:none;stroke:#d9544d;stroke-linecap:round;"/>
   </g>
   <g id="line2d_168">
    <path clip-path="url(#p99eb28ba72)" d="
M492.029 327.871
L494.243 306.881
L498.669 304.703
L516.376 286.192
L542.936 295.178
L596.055 332.974
L702.295 358.212" style="fill:none;stroke:#d9544d;stroke-linecap:round;"/>
   </g>
   <g id="line2d_169">
    <path clip-path="url(#p99eb28ba72)" d="
M492.029 315.29
L494.243 294.841
L498.669 293.636
L516.376 293.813
L542.936 316.459
L596.055 341.028
L702.295 356.945" style="fill:none;stroke:#d9544d;stroke-linecap:round;"/>
   </g>
   <g id="line2d_170">
    <path clip-path="url(#p99eb28ba72)" d="
M492.029 331.419
L494.243 323.286
L498.669 282.822
L516.376 292.285
L542.936 298.201
L596.055 349.778
L702.295 334.22" style="fill:none;stroke:#d9544d;stroke-linecap:round;"/>
   </g>
   <g id="line2d_171">
    <path clip-path="url(#p99eb28ba72)" d="
M492.029 318.935
L494.243 317.765
L498.669 300.845
L516.376 274.881
L542.936 308.475
L596.055 343.567
L702.295 347.543" style="fill:none;stroke:#d9544d;stroke-linecap:round;"/>
   </g>
   <g id="line2d_172">
    <path clip-path="url(#p99eb28ba72)" d="
M492.029 325.757
L494.243 307.46
L498.669 305.57
L516.376 279.142
L542.936 303.087
L596.055 355.53
L702.295 335.466" style="fill:none;stroke:#d9544d;stroke-linecap:round;"/>
   </g>
   <g id="line2d_173">
    <path clip-path="url(#p99eb28ba72)" d="
M492.029 336.996
L494.243 321.443
L498.669 304.959
L516.376 272.151
L542.936 300.922
L596.055 342.934
L702.295 332.606" style="fill:none;stroke:#d9544d;stroke-linecap:round;"/>
   </g>
   <g id="line2d_174">
    <path clip-path="url(#p99eb28ba72)" d="
M492.029 321.887
L494.243 302.579
L498.669 308.223
L516.376 281.608
L542.936 303.238
L596.055 356.486
L702.295 337.991" style="fill:none;stroke:#d9544d;stroke-linecap:round;"/>
   </g>
   <g id="line2d_175">
    <path clip-path="url(#p99eb28ba72)" d="
M492.029 322.184
L494.243 303.586
L498.669 282.814
L516.376 296.562
L542.936 311.17
L596.055 344.664
L702.295 351.032" style="fill:none;stroke:#d9544d;stroke-linecap:round;"/>
   </g>
   <g id="line2d_176">
    <path clip-path="url(#p99eb28ba72)" d="
M492.029 328.463
L494.243 309.36
L498.669 283.274
L516.376 286.928
L542.936 315.059
L596.055 342.622
L702.295 346.306" style="fill:none;stroke:#d9544d;stroke-linecap:round;"/>
   </g>
   <g id="line2d_177">
    <path clip-path="url(#p99eb28ba72)" d="
M492.029 330.546
L494.243 310.398
L498.669 314.686
L516.376 277.894
L542.936 292.133
L596.055 342.897
L702.295 343.457" style="fill:none;stroke:#d9544d;stroke-linecap:round;"/>
   </g>
   <g id="line2d_178">
    <path clip-path="url(#p99eb28ba72)" d="
M492.029 340.785
L494.243 320.317
L498.669 300.757
L516.376 277.855
L542.936 295.872
L596.055 334.249
L702.295 342.176" style="fill:none;stroke:#d9544d;stroke-linecap:round;"/>
   </g>
   <g id="line2d_179">
    <path clip-path="url(#p99eb28ba72)" d="
M492.029 328.839
L494.243 315.958
L498.669 293.561
L516.376 284.018
L542.936 299.241
L596.055 339.426
L702.295 350.969" style="fill:none;stroke:#d9544d;stroke-linecap:round;"/>
   </g>
   <g id="line2d_180">
    <path clip-path="url(#p99eb28ba72)" d="
M492.029 304.95
L494.243 305.071
L498.669 315.672
L516.376 281.343
L542.936 307.775
L596.055 355.939
L702.295 341.262" style="fill:none;stroke:#d9544d;stroke-linecap:round;"/>
   </g>
   <g id="line2d_181">
    <path clip-path="url(#p99eb28ba72)" d="
M492.029 312.022
L494.243 321.721
L498.669 306.037
L516.376 292.438
L542.936 290.496
L596.055 363.998
L702.295 325.3" style="fill:none;stroke:#d9544d;stroke-linecap:round;"/>
   </g>
   <g id="line2d_182">
    <path clip-path="url(#p99eb28ba72)" d="
M492.029 327.178
L494.243 304.833
L498.669 285.523
L516.376 288.969
L542.936 314.951
L596.055 352.989
L702.295 337.568" style="fill:none;stroke:#d9544d;stroke-linecap:round;"/>
   </g>
   <g id="line2d_183">
    <path clip-path="url(#p99eb28ba72)" d="
M492.029 332.601
L494.243 314.82
L498.669 293.486
L516.376 286.373
L542.936 296.229
L596.055 337.361
L702.295 351.141" style="fill:none;stroke:#d9544d;stroke-linecap:round;"/>
   </g>
   <g id="line2d_184">
    <path clip-path="url(#p99eb28ba72)" d="
M492.029 338.73
L494.243 313.075
L498.669 316.18
L516.376 279.201
L542.936 287.629
L596.055 334.236
L702.295 342.96" style="fill:none;stroke:#d9544d;stroke-linecap:round;"/>
   </g>
   <g id="line2d_185">
    <path clip-path="url(#p99eb28ba72)" d="
M492.029 331.906
L494.243 318.563
L498.669 325.502
L516.376 277.362
L542.936 284.331
L596.055 337.987
L702.295 336.361" style="fill:none;stroke:#d9544d;stroke-linecap:round;"/>
   </g>
   <g id="line2d_186">
    <path clip-path="url(#p99eb28ba72)" d="
M492.029 316.06
L494.243 299.351
L498.669 295.139
L516.376 284.108
L542.936 322.766
L596.055 349.503
L702.295 345.086" style="fill:none;stroke:#d9544d;stroke-linecap:round;"/>
   </g>
   <g id="patch_18">
    <path d="
M492.029 377.418
L492.029 223.309" style="fill:none;stroke:#262626;stroke-linecap:square;stroke-linejoin:miter;stroke-width:1.25;"/>
   </g>
   <g id="patch_19">
    <path d="
M492.029 377.418
L702.295 377.418" style="fill:none;stroke:#262626;stroke-linecap:square;stroke-linejoin:miter;stroke-width:1.25;"/>
   </g>
   <g id="text_47">
    <!-- Shoot Uv -->
    <defs>
     <path d="
M54.6875 71.5781
L64.1562 71.5781
L64.1562 30.2188
Q64.1562 19.4375 61.7188 13.0781
Q59.2812 6.73438 52.9062 2.75
Q46.5312 -1.21875 36.1875 -1.21875
Q26.125 -1.21875 19.7188 2.25
Q13.3281 5.71875 10.5938 12.2812
Q7.85938 18.8438 7.85938 30.2188
L7.85938 71.5781
L17.3281 71.5781
L17.3281 30.2812
Q17.3281 20.9531 19.0625 16.5312
Q20.7969 12.1094 25.0156 9.71875
Q29.25 7.32812 35.3594 7.32812
Q45.7969 7.32812 50.2344 12.0625
Q54.6875 16.7969 54.6875 30.2812
z
" id="ArialMT-55"/>
     <path d="
M21 0
L1.26562 51.8594
L10.5469 51.8594
L21.6875 20.7969
Q23.4844 15.7656 25 10.3594
Q26.1719 14.4531 28.2656 20.2188
L39.7969 51.8594
L48.8281 51.8594
L29.2031 0
z
" id="ArialMT-76"/>
    </defs>
    <g style="fill:#262626;" transform="translate(572.5534375 218.309375)scale(0.12 -0.12)">
     <use xlink:href="#ArialMT-53"/>
     <use x="66.69921875" xlink:href="#ArialMT-68"/>
     <use x="122.314453125" xlink:href="#ArialMT-6f"/>
     <use x="177.9296875" xlink:href="#ArialMT-6f"/>
     <use x="233.544921875" xlink:href="#ArialMT-74"/>
     <use x="261.328125" xlink:href="#ArialMT-20"/>
     <use x="289.111328125" xlink:href="#ArialMT-55"/>
     <use x="361.328125" xlink:href="#ArialMT-76"/>
    </g>
   </g>
  </g>
 </g>
 <defs>
  <clipPath id="pa61dcb5892">
   <rect height="154.1084375" width="210.2653125" x="268.80390625" y="20.789375"/>
  </clipPath>
  <clipPath id="pa691a7dfe0">
   <rect height="154.1084375" width="210.2653125" x="45.57859375" y="20.789375"/>
  </clipPath>
  <clipPath id="p99eb28ba72">
   <rect height="154.1084375" width="210.2653125" x="492.02921875" y="223.309375"/>
  </clipPath>
  <clipPath id="p4d13165c25">
   <rect height="154.1084375" width="210.2653125" x="45.57859375" y="223.309375"/>
  </clipPath>
  <clipPath id="p659f111a6e">
   <rect height="154.1084375" width="210.2653125" x="268.80390625" y="223.309375"/>
  </clipPath>
  <clipPath id="p3aeff855be">
   <rect height="154.1084375" width="210.2653125" x="492.02921875" y="20.789375"/>
  </clipPath>
 </defs>
</svg>
