<?xml version="1.0" encoding="utf-8" standalone="no"?>
<!DOCTYPE svg PUBLIC "-//W3C//DTD SVG 1.1//EN"
  "http://www.w3.org/Graphics/SVG/1.1/DTD/svg11.dtd">
<!-- Created with matplotlib (http://matplotlib.org/) -->
<svg height="421pt" version="1.1" viewBox="0 0 709 421" width="709pt" xmlns="http://www.w3.org/2000/svg" xmlns:xlink="http://www.w3.org/1999/xlink">
 <defs>
  <style type="text/css">
*{stroke-linecap:butt;stroke-linejoin:round;}
  </style>
 </defs>
 <g id="figure_1">
  <g id="patch_1">
   <path d="
M0 421.823
L709.568 421.823
L709.568 0
L0 0
z
" style="fill:#ffffff;"/>
  </g>
  <g id="axes_1">
   <g id="patch_2">
    <path d="
M45.652 174.898
L255.917 174.898
L255.917 20.7894
L45.652 20.7894
z
" style="fill:#ffffff;"/>
   </g>
   <g id="matplotlib.axis_1">
    <g id="xtick_1">
     <g id="line2d_1">
      <defs>
       <path d="
M0 0
L0 6" id="me1deecec79" style="stroke:#262626;"/>
      </defs>
      <g>
       <use style="fill:#262626;stroke:#262626;" x="82.2199116848" xlink:href="#me1deecec79" y="174.8978125"/>
      </g>
     </g>
     <g id="text_1">
      <!-- 10 -->
      <defs>
       <path d="
M4.15625 35.2969
Q4.15625 48 6.76562 55.7344
Q9.375 63.4844 14.5156 67.6719
Q19.6719 71.875 27.4844 71.875
Q33.25 71.875 37.5938 69.5469
Q41.9375 67.2344 44.7656 62.8594
Q47.6094 58.5 49.2188 52.2188
Q50.8281 45.9531 50.8281 35.2969
Q50.8281 22.7031 48.2344 14.9688
Q45.6562 7.23438 40.5 3
Q35.3594 -1.21875 27.4844 -1.21875
Q17.1406 -1.21875 11.2344 6.20312
Q4.15625 15.1406 4.15625 35.2969
M13.1875 35.2969
Q13.1875 17.6719 17.3125 11.8281
Q21.4375 6 27.4844 6
Q33.5469 6 37.6719 11.8594
Q41.7969 17.7188 41.7969 35.2969
Q41.7969 52.9844 37.6719 58.7812
Q33.5469 64.5938 27.3906 64.5938
Q21.3438 64.5938 17.7188 59.4688
Q13.1875 52.9375 13.1875 35.2969" id="ArialMT-30"/>
       <path d="
M37.25 0
L28.4688 0
L28.4688 56
Q25.2969 52.9844 20.1406 49.9531
Q14.9844 46.9219 10.8906 45.4062
L10.8906 53.9062
Q18.2656 57.375 23.7812 62.2969
Q29.2969 67.2344 31.5938 71.875
L37.25 71.875
z
" id="ArialMT-31"/>
      </defs>
      <g style="fill:#262626;" transform="translate(77.4425679348 195.055625)scale(0.1 -0.1)">
       <use xlink:href="#ArialMT-31"/>
       <use x="55.615234375" xlink:href="#ArialMT-30"/>
      </g>
     </g>
    </g>
    <g id="xtick_2">
     <g id="line2d_2">
      <g>
       <use style="fill:#262626;stroke:#262626;" x="127.929762228" xlink:href="#me1deecec79" y="174.8978125"/>
      </g>
     </g>
     <g id="text_2">
      <!-- 20 -->
      <defs>
       <path d="
M50.3438 8.45312
L50.3438 0
L3.03125 0
Q2.9375 3.17188 4.04688 6.10938
Q5.85938 10.9375 9.82812 15.625
Q13.8125 20.3125 21.3438 26.4688
Q33.0156 36.0312 37.1094 41.625
Q41.2188 47.2188 41.2188 52.2031
Q41.2188 57.4219 37.4688 61
Q33.7344 64.5938 27.7344 64.5938
Q21.3906 64.5938 17.5781 60.7812
Q13.7656 56.9844 13.7188 50.25
L4.6875 51.1719
Q5.60938 61.2812 11.6562 66.5781
Q17.7188 71.875 27.9375 71.875
Q38.2344 71.875 44.2344 66.1562
Q50.25 60.4531 50.25 52
Q50.25 47.7031 48.4844 43.5469
Q46.7344 39.4062 42.6562 34.8125
Q38.5781 30.2188 29.1094 22.2188
Q21.1875 15.5781 18.9375 13.2031
Q16.7031 10.8438 15.2344 8.45312
z
" id="ArialMT-32"/>
      </defs>
      <g style="fill:#262626;" transform="translate(122.754762228 195.055625)scale(0.1 -0.1)">
       <use xlink:href="#ArialMT-32"/>
       <use x="55.615234375" xlink:href="#ArialMT-30"/>
      </g>
     </g>
    </g>
    <g id="xtick_3">
     <g id="line2d_3">
      <g>
       <use style="fill:#262626;stroke:#262626;" x="173.639612772" xlink:href="#me1deecec79" y="174.8978125"/>
      </g>
     </g>
     <g id="text_3">
      <!-- 30 -->
      <defs>
       <path d="
M4.20312 18.8906
L12.9844 20.0625
Q14.5 12.5938 18.1406 9.29688
Q21.7812 6 27 6
Q33.2031 6 37.4688 10.2969
Q41.75 14.5938 41.75 20.9531
Q41.75 27 37.7969 30.9219
Q33.8438 34.8594 27.7344 34.8594
Q25.25 34.8594 21.5312 33.8906
L22.5156 41.6094
Q23.3906 41.5 23.9219 41.5
Q29.5469 41.5 34.0312 44.4219
Q38.5312 47.3594 38.5312 53.4688
Q38.5312 58.2969 35.25 61.4688
Q31.9844 64.6562 26.8125 64.6562
Q21.6875 64.6562 18.2656 61.4219
Q14.8438 58.2031 13.875 51.7656
L5.07812 53.3281
Q6.6875 62.1562 12.3906 67.0156
Q18.1094 71.875 26.6094 71.875
Q32.4688 71.875 37.3906 69.3594
Q42.3281 66.8438 44.9375 62.5
Q47.5625 58.1562 47.5625 53.2656
Q47.5625 48.6406 45.0625 44.8281
Q42.5781 41.0156 37.7031 38.7656
Q44.0469 37.3125 47.5625 32.6875
Q51.0781 28.0781 51.0781 21.1406
Q51.0781 11.7656 44.2344 5.25
Q37.4062 -1.26562 26.9531 -1.26562
Q17.5312 -1.26562 11.2969 4.34375
Q5.07812 9.96875 4.20312 18.8906" id="ArialMT-33"/>
      </defs>
      <g style="fill:#262626;" transform="translate(168.527894022 195.055625)scale(0.1 -0.1)">
       <use xlink:href="#ArialMT-33"/>
       <use x="55.615234375" xlink:href="#ArialMT-30"/>
      </g>
     </g>
    </g>
    <g id="xtick_4">
     <g id="line2d_4">
      <g>
       <use style="fill:#262626;stroke:#262626;" x="219.349463315" xlink:href="#me1deecec79" y="174.8978125"/>
      </g>
     </g>
     <g id="text_4">
      <!-- 40 -->
      <defs>
       <path d="
M32.3281 0
L32.3281 17.1406
L1.26562 17.1406
L1.26562 25.2031
L33.9375 71.5781
L41.1094 71.5781
L41.1094 25.2031
L50.7812 25.2031
L50.7812 17.1406
L41.1094 17.1406
L41.1094 0
z

M32.3281 25.2031
L32.3281 57.4688
L9.90625 25.2031
z
" id="ArialMT-34"/>
      </defs>
      <g style="fill:#262626;" transform="translate(214.090869565 195.055625)scale(0.1 -0.1)">
       <use xlink:href="#ArialMT-34"/>
       <use x="55.615234375" xlink:href="#ArialMT-30"/>
      </g>
     </g>
    </g>
   </g>
   <g id="matplotlib.axis_2">
    <g id="ytick_1">
     <g id="line2d_5">
      <defs>
       <path d="
M0 0
L-6 0" id="m4aded61697" style="stroke:#262626;"/>
      </defs>
      <g>
       <use style="fill:#262626;stroke:#262626;" x="45.65203125" xlink:href="#m4aded61697" y="171.612171245"/>
      </g>
     </g>
     <g id="text_5">
      <!-- −3 -->
      <defs>
       <path d="
M52.8281 31.2031
L5.5625 31.2031
L5.5625 39.4062
L52.8281 39.4062
z
" id="ArialMT-2212"/>
      </defs>
      <g style="fill:#262626;" transform="translate(22.25984375 174.197327495)scale(0.1 -0.1)">
       <use xlink:href="#ArialMT-2212"/>
       <use x="58.3984375" xlink:href="#ArialMT-33"/>
      </g>
     </g>
    </g>
    <g id="ytick_2">
     <g id="line2d_6">
      <g>
       <use style="fill:#262626;stroke:#262626;" x="45.65203125" xlink:href="#m4aded61697" y="146.42325154"/>
      </g>
     </g>
     <g id="text_6">
      <!-- −2 -->
      <g style="fill:#262626;" transform="translate(22.33328125 149.00840779)scale(0.1 -0.1)">
       <use xlink:href="#ArialMT-2212"/>
       <use x="58.3984375" xlink:href="#ArialMT-32"/>
      </g>
     </g>
    </g>
    <g id="ytick_3">
     <g id="line2d_7">
      <g>
       <use style="fill:#262626;stroke:#262626;" x="45.65203125" xlink:href="#m4aded61697" y="121.234331834"/>
      </g>
     </g>
     <g id="text_7">
      <!-- −1 -->
      <g style="fill:#262626;" transform="translate(23.64265625 123.819488084)scale(0.1 -0.1)">
       <use xlink:href="#ArialMT-2212"/>
       <use x="58.3984375" xlink:href="#ArialMT-31"/>
      </g>
     </g>
    </g>
    <g id="ytick_4">
     <g id="line2d_8">
      <g>
       <use style="fill:#262626;stroke:#262626;" x="45.65203125" xlink:href="#m4aded61697" y="96.0454121291"/>
      </g>
     </g>
     <g id="text_8">
      <!-- 0 -->
      <g style="fill:#262626;" transform="translate(27.98484375 98.6305683791)scale(0.1 -0.1)">
       <use xlink:href="#ArialMT-30"/>
      </g>
     </g>
    </g>
    <g id="ytick_5">
     <g id="line2d_9">
      <g>
       <use style="fill:#262626;stroke:#262626;" x="45.65203125" xlink:href="#m4aded61697" y="70.8564924238"/>
      </g>
     </g>
     <g id="text_9">
      <!-- 1 -->
      <g style="fill:#262626;" transform="translate(30.01609375 73.4416486738)scale(0.1 -0.1)">
       <use xlink:href="#ArialMT-31"/>
      </g>
     </g>
    </g>
    <g id="ytick_6">
     <g id="line2d_10">
      <g>
       <use style="fill:#262626;stroke:#262626;" x="45.65203125" xlink:href="#m4aded61697" y="45.6675727185"/>
      </g>
     </g>
     <g id="text_10">
      <!-- 2 -->
      <g style="fill:#262626;" transform="translate(27.91140625 48.2527289685)scale(0.1 -0.1)">
       <use xlink:href="#ArialMT-32"/>
      </g>
     </g>
    </g>
    <g id="ytick_7">
     <g id="text_11">
      <!-- 3 -->
      <g style="fill:#262626;" transform="translate(27.96453125 23.0638092631)scale(0.1 -0.1)">
       <use xlink:href="#ArialMT-33"/>
      </g>
     </g>
    </g>
    <g id="text_12">
     <!-- Expression -->
     <defs>
      <path d="
M7.90625 0
L7.90625 71.5781
L59.6719 71.5781
L59.6719 63.1406
L17.3906 63.1406
L17.3906 41.2188
L56.9844 41.2188
L56.9844 32.8125
L17.3906 32.8125
L17.3906 8.45312
L61.3281 8.45312
L61.3281 0
z
" id="ArialMT-45"/>
      <path d="
M6.59375 -19.875
L6.59375 51.8594
L14.5938 51.8594
L14.5938 45.125
Q17.4375 49.0781 21 51.0469
Q24.5625 53.0312 29.6406 53.0312
Q36.2812 53.0312 41.3594 49.6094
Q46.4375 46.1875 49.0156 39.9531
Q51.6094 33.7344 51.6094 26.3125
Q51.6094 18.3594 48.75 11.9844
Q45.9062 5.60938 40.4531 2.21875
Q35.0156 -1.17188 29 -1.17188
Q24.6094 -1.17188 21.1094 0.6875
Q17.625 2.54688 15.375 5.375
L15.375 -19.875
z

M14.5469 25.6406
Q14.5469 15.625 18.5938 10.8438
Q22.6562 6.0625 28.4219 6.0625
Q34.2812 6.0625 38.4531 11.0156
Q42.625 15.9688 42.625 26.375
Q42.625 36.2812 38.5469 41.2031
Q34.4688 46.1406 28.8125 46.1406
Q23.1875 46.1406 18.8594 40.8906
Q14.5469 35.6406 14.5469 25.6406" id="ArialMT-70"/>
      <path d="
M3.32812 25.9219
Q3.32812 40.3281 11.3281 47.2656
Q18.0156 53.0312 27.6406 53.0312
Q38.3281 53.0312 45.1094 46.0156
Q51.9062 39.0156 51.9062 26.6562
Q51.9062 16.6562 48.9062 10.9062
Q45.9062 5.17188 40.1562 2
Q34.4219 -1.17188 27.6406 -1.17188
Q16.75 -1.17188 10.0312 5.8125
Q3.32812 12.7969 3.32812 25.9219
M12.3594 25.9219
Q12.3594 15.9688 16.7031 11.0156
Q21.0469 6.0625 27.6406 6.0625
Q34.1875 6.0625 38.5312 11.0312
Q42.875 16.0156 42.875 26.2188
Q42.875 35.8438 38.5 40.7969
Q34.125 45.75 27.6406 45.75
Q21.0469 45.75 16.7031 40.8125
Q12.3594 35.8906 12.3594 25.9219" id="ArialMT-6f"/>
      <path d="
M0.734375 0
L19.6719 26.9531
L2.15625 51.8594
L13.1406 51.8594
L21.0938 39.7031
Q23.3438 36.2344 24.7031 33.8906
Q26.8594 37.1094 28.6562 39.5938
L37.4062 51.8594
L47.9062 51.8594
L29.9844 27.4375
L49.2656 0
L38.4844 0
L27.8281 16.1094
L25 20.4531
L11.375 0
z
" id="ArialMT-78"/>
      <path d="
M6.64062 61.4688
L6.64062 71.5781
L15.4375 71.5781
L15.4375 61.4688
z

M6.64062 0
L6.64062 51.8594
L15.4375 51.8594
L15.4375 0
z
" id="ArialMT-69"/>
      <path d="
M3.07812 15.4844
L11.7656 16.8438
Q12.5 11.625 15.8438 8.84375
Q19.1875 6.0625 25.2031 6.0625
Q31.25 6.0625 34.1719 8.51562
Q37.1094 10.9844 37.1094 14.3125
Q37.1094 17.2812 34.5156 19
Q32.7188 20.1719 25.5312 21.9688
Q15.875 24.4219 12.1406 26.2031
Q8.40625 27.9844 6.46875 31.125
Q4.54688 34.2812 4.54688 38.0938
Q4.54688 41.5469 6.125 44.5
Q7.71875 47.4688 10.4531 49.4219
Q12.5 50.9219 16.0312 51.9688
Q19.5781 53.0312 23.6406 53.0312
Q29.7344 53.0312 34.3438 51.2656
Q38.9688 49.5156 41.1562 46.5
Q43.3594 43.5 44.1875 38.4844
L35.5938 37.3125
Q35.0156 41.3125 32.2031 43.5469
Q29.3906 45.7969 24.2656 45.7969
Q18.2188 45.7969 15.625 43.7969
Q13.0312 41.7969 13.0312 39.1094
Q13.0312 37.4062 14.1094 36.0312
Q15.1875 34.625 17.4844 33.6875
Q18.7969 33.2031 25.25 31.4531
Q34.5781 28.9531 38.25 27.3594
Q41.9375 25.7812 44.0312 22.75
Q46.1406 19.7344 46.1406 15.2344
Q46.1406 10.8438 43.5781 6.95312
Q41.0156 3.07812 36.1719 0.953125
Q31.3438 -1.17188 25.25 -1.17188
Q15.1406 -1.17188 9.84375 3.03125
Q4.54688 7.23438 3.07812 15.4844" id="ArialMT-73"/>
      <path d="
M6.59375 0
L6.59375 51.8594
L14.5 51.8594
L14.5 44.4844
Q20.2188 53.0312 31 53.0312
Q35.6875 53.0312 39.625 51.3438
Q43.5625 49.6562 45.5156 46.9219
Q47.4688 44.1875 48.25 40.4375
Q48.7344 37.9844 48.7344 31.8906
L48.7344 0
L39.9375 0
L39.9375 31.5469
Q39.9375 36.9219 38.9062 39.5781
Q37.8906 42.2344 35.2812 43.8125
Q32.6719 45.4062 29.1562 45.4062
Q23.5312 45.4062 19.4531 41.8438
Q15.375 38.2812 15.375 28.3281
L15.375 0
z
" id="ArialMT-6e"/>
      <path d="
M6.5 0
L6.5 51.8594
L14.4062 51.8594
L14.4062 44
Q17.4375 49.5156 20 51.2656
Q22.5625 53.0312 25.6406 53.0312
Q30.0781 53.0312 34.6719 50.2031
L31.6406 42.0469
Q28.4219 43.9531 25.2031 43.9531
Q22.3125 43.9531 20.0156 42.2188
Q17.7188 40.4844 16.75 37.4062
Q15.2812 32.7188 15.2812 27.1562
L15.2812 0
z
" id="ArialMT-72"/>
      <path d="
M42.0938 16.7031
L51.1719 15.5781
Q49.0312 7.625 43.2188 3.21875
Q37.4062 -1.17188 28.375 -1.17188
Q17 -1.17188 10.3281 5.82812
Q3.65625 12.8438 3.65625 25.4844
Q3.65625 38.5781 10.3906 45.7969
Q17.1406 53.0312 27.875 53.0312
Q38.2812 53.0312 44.875 45.9531
Q51.4688 38.875 51.4688 26.0312
Q51.4688 25.25 51.4219 23.6875
L12.75 23.6875
Q13.2344 15.1406 17.5781 10.5938
Q21.9219 6.0625 28.4219 6.0625
Q33.25 6.0625 36.6719 8.59375
Q40.0938 11.1406 42.0938 16.7031
M13.2344 30.9062
L42.1875 30.9062
Q41.6094 37.4531 38.875 40.7188
Q34.6719 45.7969 27.9844 45.7969
Q21.9219 45.7969 17.7969 41.75
Q13.6719 37.7031 13.2344 30.9062" id="ArialMT-65"/>
     </defs>
     <g style="fill:#262626;" transform="translate(15.07359375 124.23671875)rotate(-90.0)scale(0.11 -0.11)">
      <use xlink:href="#ArialMT-45"/>
      <use x="66.69921875" xlink:href="#ArialMT-78"/>
      <use x="116.69921875" xlink:href="#ArialMT-70"/>
      <use x="172.314453125" xlink:href="#ArialMT-72"/>
      <use x="205.615234375" xlink:href="#ArialMT-65"/>
      <use x="261.23046875" xlink:href="#ArialMT-73"/>
      <use x="311.23046875" xlink:href="#ArialMT-73"/>
      <use x="361.23046875" xlink:href="#ArialMT-69"/>
      <use x="383.447265625" xlink:href="#ArialMT-6f"/>
      <use x="439.0625" xlink:href="#ArialMT-6e"/>
     </g>
    </g>
   </g>
   <g id="line2d_11">
    <path clip-path="url(#p535c278d1c)" d="
M45.652 122.866
L54.794 121.408
L63.936 120.883
L73.0779 115.722
L82.2199 119.141
L91.3619 119.812
L100.504 120.163
L109.646 120.337
L118.788 127.255
L127.93 126.512
L137.072 116.755
L146.214 103.531
L155.356 77.9754
L164.498 65.2132
L173.64 71.5285
L182.782 83.7618
L191.924 86.5752
L201.066 85.6732
L210.207 72.1853
L219.349 69.1323
L228.491 68.5992
L237.633 70.4549
L246.775 62.4545
L255.917 57.1517" style="fill:none;stroke:#03012d;stroke-linecap:round;"/>
   </g>
   <g id="line2d_12">
    <path clip-path="url(#p535c278d1c)" d="
M45.652 145.615
L54.794 128.118
L63.936 120.365
L73.0779 119.848
L82.2199 119.486
L91.3619 115.478
L100.504 117.795
L109.646 124.547
L118.788 119.897
L127.93 116.782
L137.072 105.225
L146.214 89.1224
L155.356 65.2831
L164.498 61.6555
L173.64 76.9093
L182.782 84.3015
L191.924 82.0495
L201.066 81.398
L210.207 72.2269
L219.349 68.2428
L228.491 71.335
L237.633 78.0817
L246.775 70.6002
L255.917 70.7271" style="fill:none;stroke:#03012d;stroke-linecap:round;"/>
   </g>
   <g id="line2d_13">
    <path clip-path="url(#p535c278d1c)" d="
M45.652 126.999
L54.794 125.288
L63.936 127.187
L73.0779 124.656
L82.2199 120.024
L91.3619 122.648
L100.504 120.898
L109.646 119.401
L118.788 119.208
L127.93 125.616
L137.072 110.041
L146.214 95.5585
L155.356 73.8271
L164.498 65.0264
L173.64 70.6001
L182.782 72.6232
L191.924 76.4136
L201.066 79.7148
L210.207 73.0444
L219.349 71.1593
L228.491 73.1919
L237.633 75.094
L246.775 68.982
L255.917 67.8904" style="fill:none;stroke:#03012d;stroke-linecap:round;"/>
   </g>
   <g id="line2d_14">
    <path clip-path="url(#p535c278d1c)" d="
M45.652 126.35
L54.794 120.011
L63.936 116.328
L73.0779 116.026
L82.2199 120.517
L91.3619 122.697
L100.504 122.965
L109.646 128.615
L118.788 127.316
L127.93 115.75
L137.072 105.875
L146.214 103.619
L155.356 87.2251
L164.498 80.5279
L173.64 78.1336
L182.782 68.9255
L191.924 60.4656
L201.066 58.4954
L210.207 63.5325
L219.349 64.501
L228.491 68.0352
L237.633 73.9158
L246.775 78.7941
L255.917 96.4696" style="fill:none;stroke:#03012d;stroke-linecap:round;"/>
   </g>
   <g id="line2d_15">
    <path clip-path="url(#p535c278d1c)" d="
M45.652 98.348
L54.794 113.523
L63.936 124.527
L73.0779 123.335
L82.2199 123.368
L91.3619 125.458
L100.504 125.957
L109.646 124.118
L118.788 122.303
L127.93 124.165
L137.072 117.803
L146.214 105.594
L155.356 78.5207
L164.498 63.496
L173.64 56.3534
L182.782 60.3567
L191.924 69.2706
L201.066 86.1739
L210.207 87.0127
L219.349 72.7044
L228.491 72.579
L237.633 77.5046
L246.775 70.9601
L255.917 81.6575" style="fill:none;stroke:#03012d;stroke-linecap:round;"/>
   </g>
   <g id="line2d_16">
    <path clip-path="url(#p535c278d1c)" d="
M45.652 90.4749
L54.794 108.195
L63.936 122.554
L73.0779 128.089
L82.2199 129.52
L91.3619 125.608
L100.504 118.829
L109.646 108.422
L118.788 97.6277
L127.93 84.6775
L137.072 68.1891
L146.214 62.9559
L155.356 44.2224
L164.498 46.3909
L173.64 60.8583
L182.782 77.8413
L191.924 83.6806
L201.066 92.4465
L210.207 101.556
L219.349 107.651
L228.491 110.564
L237.633 109.69
L246.775 109.067
L255.917 115.98" style="fill:none;stroke:#03012d;stroke-linecap:round;"/>
   </g>
   <g id="line2d_17">
    <path clip-path="url(#p535c278d1c)" d="
M45.652 108.665
L54.794 107.767
L63.936 125.406
L73.0779 133.452
L82.2199 129.755
L91.3619 123.759
L100.504 128.337
L109.646 127.172
L118.788 128.145
L127.93 121.607
L137.072 99.9715
L146.214 84.24
L155.356 75.7253
L164.498 79.7714
L173.64 77.6641
L182.782 62.926
L191.924 69.9026
L201.066 81.6621
L210.207 77.4895
L219.349 78.7269
L228.491 74.8988
L237.633 74.8857
L246.775 65.5299
L255.917 67.6309" style="fill:none;stroke:#03012d;stroke-linecap:round;"/>
   </g>
   <g id="line2d_18">
    <path clip-path="url(#p535c278d1c)" d="
M45.652 169.19
L54.794 153.63
L63.936 129.527
L73.0779 108.694
L82.2199 104.677
L91.3619 105.72
L100.504 101.043
L109.646 90.6441
L118.788 80.4599
L127.93 91.9371
L137.072 101.655
L146.214 100.593
L155.356 84.4046
L164.498 83.2796
L173.64 85.7056
L182.782 68.2115
L191.924 82.7724
L201.066 101.457
L210.207 87.7433
L219.349 80.5644
L228.491 77.3425
L237.633 85.5188
L246.775 70.1179
L255.917 60.2021" style="fill:none;stroke:#03012d;stroke-linecap:round;"/>
   </g>
   <g id="line2d_19">
    <path clip-path="url(#p535c278d1c)" d="
M45.652 104.867
L54.794 104.538
L63.936 114.207
L73.0779 112.411
L82.2199 122.23
L91.3619 128.312
L100.504 127.949
L109.646 125.729
L118.788 128.58
L127.93 136.125
L137.072 120.071
L146.214 83.3885
L155.356 53.2281
L164.498 59.665
L173.64 73.025
L182.782 78.4175
L191.924 84.6664
L201.066 90.5832
L210.207 86.568
L219.349 82.3758
L228.491 78.7103
L237.633 73.3696
L246.775 67.7546
L255.917 68.3183" style="fill:none;stroke:#03012d;stroke-linecap:round;"/>
   </g>
   <g id="line2d_20">
    <path clip-path="url(#p535c278d1c)" d="
M45.652 125.52
L54.794 125.005
L63.936 128.703
L73.0779 128.894
L82.2199 126.281
L91.3619 124.275
L100.504 125.202
L109.646 126.492
L118.788 119.49
L127.93 110.49
L137.072 98.5052
L146.214 88.5614
L155.356 75.8143
L164.498 69.5556
L173.64 70.165
L182.782 69.9363
L191.924 74.5096
L201.066 78.7838
L210.207 71.8236
L219.349 72.9412
L228.491 76.5338
L237.633 77.4913
L246.775 72.4074
L255.917 67.7081" style="fill:none;stroke:#03012d;stroke-linecap:round;"/>
   </g>
   <g id="line2d_21">
    <path clip-path="url(#p535c278d1c)" d="
M45.652 122.911
L54.794 118.253
L63.936 121.481
L73.0779 131.208
L82.2199 132.464
L91.3619 118.182
L100.504 115.434
L109.646 114.466
L118.788 117.327
L127.93 125.325
L137.072 105.634
L146.214 94.7158
L155.356 62.3094
L164.498 55.7588
L173.64 61.2917
L182.782 58.5586
L191.924 70.2354
L201.066 89.0278
L210.207 93.9266
L219.349 85.289
L228.491 77.2797
L237.633 80.3779
L246.775 79.313
L255.917 74.3215" style="fill:none;stroke:#03012d;stroke-linecap:round;"/>
   </g>
   <g id="line2d_22">
    <path clip-path="url(#p535c278d1c)" d="
M45.652 94.5578
L54.794 105.075
L63.936 116.079
L73.0779 116.042
L82.2199 116.095
L91.3619 117.2
L100.504 118.981
L109.646 120.041
L118.788 126.802
L127.93 131.712
L137.072 110.131
L146.214 76.8492
L155.356 49.3623
L164.498 48.6579
L173.64 55.6886
L182.782 68.6861
L191.924 64.5878
L201.066 74.3685
L210.207 78.6014
L219.349 92.5682
L228.491 105.218
L237.633 107.699
L246.775 102.596
L255.917 107.49" style="fill:none;stroke:#03012d;stroke-linecap:round;"/>
   </g>
   <g id="line2d_23">
    <path clip-path="url(#p535c278d1c)" d="
M45.652 78.8282
L54.794 90.5527
L63.936 96.9635
L73.0779 96.9324
L82.2199 85.1934
L91.3619 88.7191
L100.504 103.799
L109.646 91.6158
L118.788 77.9468
L127.93 70.8426
L137.072 61.9807
L146.214 69.3779
L155.356 47.2912
L164.498 64.6307
L173.64 78.2754
L182.782 100.758
L191.924 116.209
L201.066 118.169
L210.207 120.68
L219.349 124.338
L228.491 127.352
L237.633 122.216
L246.775 124.315
L255.917 148.103" style="fill:none;stroke:#03012d;stroke-linecap:round;"/>
   </g>
   <g id="line2d_24">
    <path clip-path="url(#p535c278d1c)" d="
M45.652 111.706
L54.794 110.865
L63.936 116.736
L73.0779 112.596
L82.2199 116.522
L91.3619 109.249
L100.504 109.725
L109.646 107.527
L118.788 108.55
L127.93 107.247
L137.072 98.0365
L146.214 84.8081
L155.356 33.0859
L164.498 26.4971
L173.64 56.0351
L182.782 70.9688
L191.924 86.8539
L201.066 96.2728
L210.207 94.8599
L219.349 100.867
L228.491 111.335
L237.633 113.169
L246.775 110.613
L255.917 110.965" style="fill:none;stroke:#03012d;stroke-linecap:round;"/>
   </g>
   <g id="line2d_25">
    <path clip-path="url(#p535c278d1c)" d="
M45.652 126.195
L54.794 125.854
L63.936 132.321
L73.0779 134.307
L82.2199 131.725
L91.3619 128.815
L100.504 125.356
L109.646 121.31
L118.788 112.277
L127.93 99.7063
L137.072 85.6253
L146.214 81.0734
L155.356 68.3934
L164.498 65.8565
L173.64 69.636
L182.782 73.3765
L191.924 77.224
L201.066 79.4403
L210.207 75.5477
L219.349 78.7453
L228.491 79.9877
L237.633 81.8025
L246.775 75.1383
L255.917 75.3769" style="fill:none;stroke:#03012d;stroke-linecap:round;"/>
   </g>
   <g id="line2d_26">
    <path clip-path="url(#p535c278d1c)" d="
M45.652 112.735
L54.794 114.673
L63.936 123.542
L73.0779 131.418
L82.2199 133.574
L91.3619 127.585
L100.504 126.219
L109.646 126.145
L118.788 121.212
L127.93 116.893
L137.072 99.5957
L146.214 90.3496
L155.356 72.9007
L164.498 70.3925
L173.64 73.5773
L182.782 78.2279
L191.924 84.7184
L201.066 79.5149
L210.207 62.3082
L219.349 65.8457
L228.491 74.5552
L237.633 81.5804
L246.775 68.4078
L255.917 69.1201" style="fill:none;stroke:#03012d;stroke-linecap:round;"/>
   </g>
   <g id="line2d_27">
    <path clip-path="url(#p535c278d1c)" d="
M45.652 126.019
L54.794 119.145
L63.936 102.814
L73.0779 93.0996
L82.2199 96.4279
L91.3619 106.62
L100.504 102.281
L109.646 98.2562
L118.788 93.859
L127.93 74.9206
L137.072 39.725
L146.214 36.3734
L155.356 56.9223
L164.498 69.7411
L173.64 88.3995
L182.782 100.813
L191.924 109
L201.066 129.273
L210.207 101.235
L219.349 96.8971
L228.491 103.843
L237.633 103.404
L246.775 126.395
L255.917 129.627" style="fill:none;stroke:#03012d;stroke-linecap:round;"/>
   </g>
   <g id="line2d_28">
    <path clip-path="url(#p535c278d1c)" d="
M45.652 105.214
L54.794 115.525
L63.936 123.023
L73.0779 124.607
L82.2199 127.145
L91.3619 131.308
L100.504 132.507
L109.646 130.236
L118.788 127.303
L127.93 115.713
L137.072 103.085
L146.214 88.6143
L155.356 69.0678
L164.498 64.8336
L173.64 66.5176
L182.782 71.6625
L191.924 75.83
L201.066 80.7599
L210.207 75.1039
L219.349 73.571
L228.491 75.4886
L237.633 74.589
L246.775 73.3831
L255.917 80.0023" style="fill:none;stroke:#03012d;stroke-linecap:round;"/>
   </g>
   <g id="line2d_29">
    <path clip-path="url(#p535c278d1c)" d="
M45.652 126.202
L54.794 124.937
L63.936 123.661
L73.0779 124.158
L82.2199 126.062
L91.3619 127.654
L100.504 132.278
L109.646 115.584
L118.788 112.941
L127.93 117.692
L137.072 101.24
L146.214 86.6643
L155.356 80.6853
L164.498 82.5076
L173.64 89.8704
L182.782 78.6436
L191.924 69.9166
L201.066 66.2136
L210.207 60.9535
L219.349 60.4116
L228.491 71.6016
L237.633 82.3368
L246.775 72.3669
L255.917 70.508" style="fill:none;stroke:#03012d;stroke-linecap:round;"/>
   </g>
   <g id="line2d_30">
    <path clip-path="url(#p535c278d1c)" d="
M45.652 120.296
L54.794 118.287
L63.936 121.665
L73.0779 126.515
L82.2199 126.682
L91.3619 119.839
L100.504 118.373
L109.646 113.145
L118.788 103.487
L127.93 105.678
L137.072 98.3062
L146.214 88.096
L155.356 57.8512
L164.498 49.6405
L173.64 55.445
L182.782 49.5805
L191.924 56.7948
L201.066 80.3795
L210.207 94.2442
L219.349 96.881
L228.491 95.6276
L237.633 96.7142
L246.775 103.165
L255.917 108.397" style="fill:none;stroke:#03012d;stroke-linecap:round;"/>
   </g>
   <g id="line2d_31">
    <path clip-path="url(#p535c278d1c)" d="
M45.652 111.949
L54.794 107.039
L63.936 107.666
L73.0779 112.214
L82.2199 125.403
L91.3619 122.816
L100.504 128.47
L109.646 134.872
L118.788 140.485
L127.93 126.646
L137.072 97.7527
L146.214 89.626
L155.356 70.6731
L164.498 56.8794
L173.64 61.7916
L182.782 63.3877
L191.924 72.5455
L201.066 86.416
L210.207 86.3853
L219.349 86.9255
L228.491 89.223
L237.633 84.9974
L246.775 73.0618
L255.917 67.8646" style="fill:none;stroke:#03012d;stroke-linecap:round;"/>
   </g>
   <g id="line2d_32">
    <path clip-path="url(#p535c278d1c)" d="
M45.652 129.161
L54.794 122.362
L63.936 122.892
L73.0779 125.322
L82.2199 125.187
L91.3619 123.404
L100.504 123.416
L109.646 119.295
L118.788 114.559
L127.93 114.929
L137.072 107.559
L146.214 86.649
L155.356 57.0358
L164.498 53.8406
L173.64 60.3039
L182.782 62.2721
L191.924 72.7158
L201.066 85.6257
L210.207 81.9754
L219.349 81.7805
L228.491 85.5229
L237.633 87.4542
L246.775 80.3487
L255.917 81.4799" style="fill:none;stroke:#03012d;stroke-linecap:round;"/>
   </g>
   <g id="line2d_33">
    <path clip-path="url(#p535c278d1c)" d="
M45.652 87.9018
L54.794 67.819
L63.936 67.68
L73.0779 85.8879
L82.2199 99.1442
L91.3619 98.3479
L100.504 85.3397
L109.646 96.1023
L118.788 109.401
L127.93 105.416
L137.072 108.298
L146.214 85.845
L155.356 52.0258
L164.498 46.7072
L173.64 59.0317
L182.782 76.4916
L191.924 107.338
L201.066 117.021
L210.207 122.78
L219.349 122.939
L228.491 121.459
L237.633 116.23
L246.775 121.397
L255.917 144.487" style="fill:none;stroke:#03012d;stroke-linecap:round;"/>
   </g>
   <g id="line2d_34">
    <path clip-path="url(#p535c278d1c)" d="
M45.652 122.054
L54.794 120.723
L63.936 119.742
L73.0779 121.867
L82.2199 122.561
L91.3619 125.992
L100.504 129.919
L109.646 136.633
L118.788 127.66
L127.93 109.879
L137.072 96.1012
L146.214 89.3982
L155.356 66.8187
L164.498 65.5321
L173.64 72.9202
L182.782 75.5292
L191.924 83.3335
L201.066 82.9159
L210.207 71.1504
L219.349 68.5416
L228.491 74.0733
L237.633 79.4583
L246.775 70.7373
L255.917 71.5492" style="fill:none;stroke:#03012d;stroke-linecap:round;"/>
   </g>
   <g id="patch_3">
    <path d="
M45.652 174.898
L45.652 20.7894" style="fill:none;stroke:#262626;stroke-linecap:square;stroke-linejoin:miter;stroke-width:1.25;"/>
   </g>
   <g id="patch_4">
    <path d="
M45.652 174.898
L255.917 174.898" style="fill:none;stroke:#262626;stroke-linecap:square;stroke-linejoin:miter;stroke-width:1.25;"/>
   </g>
   <g id="text_13">
    <!-- Botrytis -->
    <defs>
     <path d="
M7.32812 0
L7.32812 71.5781
L34.1875 71.5781
Q42.3906 71.5781 47.3438 69.4062
Q52.2969 67.2344 55.0938 62.7188
Q57.9062 58.2031 57.9062 53.2656
Q57.9062 48.6875 55.4219 44.625
Q52.9375 40.5781 47.9062 38.0938
Q54.3906 36.1875 57.875 31.5938
Q61.375 27 61.375 20.75
Q61.375 15.7188 59.25 11.3906
Q57.125 7.07812 54 4.73438
Q50.875 2.39062 46.1562 1.1875
Q41.4531 0 34.625 0
z

M16.7969 41.5
L32.2812 41.5
Q38.5781 41.5 41.3125 42.3281
Q44.9219 43.4062 46.75 45.8906
Q48.5781 48.3906 48.5781 52.1562
Q48.5781 55.7188 46.875 58.4219
Q45.1719 61.1406 41.9844 62.1406
Q38.8125 63.1406 31.1094 63.1406
L16.7969 63.1406
z

M16.7969 8.45312
L34.625 8.45312
Q39.2031 8.45312 41.0625 8.79688
Q44.3438 9.375 46.5312 10.7344
Q48.7344 12.1094 50.1406 14.7188
Q51.5625 17.3281 51.5625 20.75
Q51.5625 24.75 49.5156 27.7031
Q47.4688 30.6719 43.8281 31.8594
Q40.1875 33.0625 33.3438 33.0625
L16.7969 33.0625
z
" id="ArialMT-42"/>
     <path d="
M6.20312 -19.9688
L5.21875 -11.7188
Q8.10938 -12.5 10.25 -12.5
Q13.1875 -12.5 14.9375 -11.5156
Q16.7031 -10.5469 17.8281 -8.79688
Q18.6562 -7.46875 20.5156 -2.25
Q20.75 -1.51562 21.2969 -0.09375
L1.60938 51.8594
L11.0781 51.8594
L21.875 21.8281
Q23.9688 16.1094 25.6406 9.8125
Q27.1562 15.875 29.25 21.625
L40.3281 51.8594
L49.125 51.8594
L29.3906 -0.875
Q26.2188 -9.42188 24.4688 -12.6406
Q22.125 -17 19.0938 -19.0156
Q16.0625 -21.0469 11.8594 -21.0469
Q9.32812 -21.0469 6.20312 -19.9688" id="ArialMT-79"/>
     <path d="
M25.7812 7.85938
L27.0469 0.09375
Q23.3438 -0.6875 20.4062 -0.6875
Q15.625 -0.6875 12.9844 0.828125
Q10.3594 2.34375 9.28125 4.8125
Q8.20312 7.28125 8.20312 15.1875
L8.20312 45.0156
L1.76562 45.0156
L1.76562 51.8594
L8.20312 51.8594
L8.20312 64.7031
L16.9375 69.9688
L16.9375 51.8594
L25.7812 51.8594
L25.7812 45.0156
L16.9375 45.0156
L16.9375 14.7031
Q16.9375 10.9375 17.4062 9.85938
Q17.875 8.79688 18.9219 8.15625
Q19.9688 7.51562 21.9219 7.51562
Q23.3906 7.51562 25.7812 7.85938" id="ArialMT-74"/>
    </defs>
    <g style="fill:#262626;" transform="translate(131.4525 15.789375)scale(0.12 -0.12)">
     <use xlink:href="#ArialMT-42"/>
     <use x="66.69921875" xlink:href="#ArialMT-6f"/>
     <use x="122.314453125" xlink:href="#ArialMT-74"/>
     <use x="150.09765625" xlink:href="#ArialMT-72"/>
     <use x="183.3984375" xlink:href="#ArialMT-79"/>
     <use x="233.3984375" xlink:href="#ArialMT-74"/>
     <use x="261.181640625" xlink:href="#ArialMT-69"/>
     <use x="283.3984375" xlink:href="#ArialMT-73"/>
    </g>
   </g>
  </g>
  <g id="axes_2">
   <g id="patch_5">
    <path d="
M268.877 174.898
L479.143 174.898
L479.143 20.7894
L268.877 20.7894
z
" style="fill:#ffffff;"/>
   </g>
   <g id="matplotlib.axis_3">
    <g id="xtick_5">
     <g id="line2d_35">
      <g>
       <use style="fill:#262626;stroke:#262626;" x="279.390609375" xlink:href="#me1deecec79" y="174.8978125"/>
      </g>
     </g>
     <g id="text_14">
      <!-- 20 -->
      <g style="fill:#262626;" transform="translate(274.215609375 195.055625)scale(0.1 -0.1)">
       <use xlink:href="#ArialMT-32"/>
       <use x="55.615234375" xlink:href="#ArialMT-30"/>
      </g>
     </g>
    </g>
    <g id="xtick_6">
     <g id="line2d_36">
      <g>
       <use style="fill:#262626;stroke:#262626;" x="331.9569375" xlink:href="#me1deecec79" y="174.8978125"/>
      </g>
     </g>
     <g id="text_15">
      <!-- 25 -->
      <defs>
       <path d="
M4.15625 18.75
L13.375 19.5312
Q14.4062 12.7969 18.1406 9.39062
Q21.875 6 27.1562 6
Q33.5 6 37.8906 10.7812
Q42.2812 15.5781 42.2812 23.4844
Q42.2812 31 38.0625 35.3438
Q33.8438 39.7031 27 39.7031
Q22.75 39.7031 19.3281 37.7656
Q15.9219 35.8438 13.9688 32.7656
L5.71875 33.8438
L12.6406 70.6094
L48.25 70.6094
L48.25 62.2031
L19.6719 62.2031
L15.8281 42.9688
Q22.2656 47.4688 29.3438 47.4688
Q38.7188 47.4688 45.1562 40.9688
Q51.6094 34.4688 51.6094 24.2656
Q51.6094 14.5469 45.9531 7.46875
Q39.0625 -1.21875 27.1562 -1.21875
Q17.3906 -1.21875 11.2031 4.25
Q5.03125 9.71875 4.15625 18.75" id="ArialMT-35"/>
      </defs>
      <g style="fill:#262626;" transform="translate(326.742875 195.055625)scale(0.1 -0.1)">
       <use xlink:href="#ArialMT-32"/>
       <use x="55.615234375" xlink:href="#ArialMT-35"/>
      </g>
     </g>
    </g>
    <g id="xtick_7">
     <g id="line2d_37">
      <g>
       <use style="fill:#262626;stroke:#262626;" x="384.523265625" xlink:href="#me1deecec79" y="174.8978125"/>
      </g>
     </g>
     <g id="text_16">
      <!-- 30 -->
      <g style="fill:#262626;" transform="translate(379.411546875 195.055625)scale(0.1 -0.1)">
       <use xlink:href="#ArialMT-33"/>
       <use x="55.615234375" xlink:href="#ArialMT-30"/>
      </g>
     </g>
    </g>
    <g id="xtick_8">
     <g id="line2d_38">
      <g>
       <use style="fill:#262626;stroke:#262626;" x="437.08959375" xlink:href="#me1deecec79" y="174.8978125"/>
      </g>
     </g>
     <g id="text_17">
      <!-- 35 -->
      <g style="fill:#262626;" transform="translate(431.9388125 195.055625)scale(0.1 -0.1)">
       <use xlink:href="#ArialMT-33"/>
       <use x="55.615234375" xlink:href="#ArialMT-35"/>
      </g>
     </g>
    </g>
   </g>
   <g id="matplotlib.axis_4">
    <g id="ytick_8">
     <g id="line2d_39">
      <g>
       <use style="fill:#262626;stroke:#262626;" x="268.87734375" xlink:href="#m4aded61697" y="171.612171245"/>
      </g>
     </g>
    </g>
    <g id="ytick_9">
     <g id="line2d_40">
      <g>
       <use style="fill:#262626;stroke:#262626;" x="268.87734375" xlink:href="#m4aded61697" y="146.42325154"/>
      </g>
     </g>
    </g>
    <g id="ytick_10">
     <g id="line2d_41">
      <g>
       <use style="fill:#262626;stroke:#262626;" x="268.87734375" xlink:href="#m4aded61697" y="121.234331834"/>
      </g>
     </g>
    </g>
    <g id="ytick_11">
     <g id="line2d_42">
      <g>
       <use style="fill:#262626;stroke:#262626;" x="268.87734375" xlink:href="#m4aded61697" y="96.0454121291"/>
      </g>
     </g>
    </g>
    <g id="ytick_12">
     <g id="line2d_43">
      <g>
       <use style="fill:#262626;stroke:#262626;" x="268.87734375" xlink:href="#m4aded61697" y="70.8564924238"/>
      </g>
     </g>
    </g>
    <g id="ytick_13">
     <g id="line2d_44">
      <g>
       <use style="fill:#262626;stroke:#262626;" x="268.87734375" xlink:href="#m4aded61697" y="45.6675727185"/>
      </g>
     </g>
    </g>
    <g id="ytick_14"/>
   </g>
   <g id="line2d_45">
    <path clip-path="url(#pfa74778fd5)" d="
M268.877 124.167
L289.904 125.192
L310.93 110.342
L331.957 90.5724
L352.983 109.247
L374.01 117.255
L395.037 103.113
L416.063 90.5815
L437.09 74.222
L458.116 61.7003
L479.143 50.107" style="fill:none;stroke:#03012d;stroke-linecap:round;"/>
   </g>
   <g id="line2d_46">
    <path clip-path="url(#pfa74778fd5)" d="
M268.877 129.756
L289.904 130.971
L310.93 121.98
L331.957 109.92
L352.983 105.128
L374.01 98.1501
L395.037 83.1082
L416.063 71.5834
L437.09 70.0717
L458.116 70.5198
L479.143 65.3108" style="fill:none;stroke:#03012d;stroke-linecap:round;"/>
   </g>
   <g id="line2d_47">
    <path clip-path="url(#pfa74778fd5)" d="
M268.877 112.773
L289.904 121.028
L310.93 120.258
L331.957 114.515
L352.983 115.521
L374.01 109.116
L395.037 96.1854
L416.063 83.9335
L437.09 70.7261
L458.116 57.6037
L479.143 54.8406" style="fill:none;stroke:#03012d;stroke-linecap:round;"/>
   </g>
   <g id="line2d_48">
    <path clip-path="url(#pfa74778fd5)" d="
M268.877 124.744
L289.904 120.997
L310.93 116.564
L331.957 113.082
L352.983 111.573
L374.01 110.064
L395.037 95.409
L416.063 75.4789
L437.09 66.6745
L458.116 61.7552
L479.143 60.158" style="fill:none;stroke:#03012d;stroke-linecap:round;"/>
   </g>
   <g id="line2d_49">
    <path clip-path="url(#pfa74778fd5)" d="
M268.877 109.66
L289.904 116.706
L310.93 102.392
L331.957 93.2922
L352.983 112.416
L374.01 124.83
L395.037 114.675
L416.063 101.235
L437.09 76.3765
L458.116 56.178
L479.143 48.7389" style="fill:none;stroke:#03012d;stroke-linecap:round;"/>
   </g>
   <g id="line2d_50">
    <path clip-path="url(#pfa74778fd5)" d="
M268.877 113.56
L289.904 125.675
L310.93 102.247
L331.957 83.3361
L352.983 118.014
L374.01 126.791
L395.037 100.015
L416.063 86.4957
L437.09 86.2951
L458.116 69.0057
L479.143 45.0644" style="fill:none;stroke:#03012d;stroke-linecap:round;"/>
   </g>
   <g id="line2d_51">
    <path clip-path="url(#pfa74778fd5)" d="
M268.877 104.631
L289.904 111.104
L310.93 118.204
L331.957 113.646
L352.983 111.011
L374.01 113.239
L395.037 109.846
L416.063 95.3425
L437.09 78.5008
L458.116 56.5803
L479.143 44.3954" style="fill:none;stroke:#03012d;stroke-linecap:round;"/>
   </g>
   <g id="line2d_52">
    <path clip-path="url(#pfa74778fd5)" d="
M268.877 144.614
L289.904 135.521
L310.93 100.1
L331.957 81.941
L352.983 103.464
L374.01 103.302
L395.037 80.5998
L416.063 86.0611
L437.09 84.9219
L458.116 73.8146
L479.143 62.1594" style="fill:none;stroke:#03012d;stroke-linecap:round;"/>
   </g>
   <g id="line2d_53">
    <path clip-path="url(#pfa74778fd5)" d="
M268.877 108.471
L289.904 116.037
L310.93 122.003
L331.957 120.77
L352.983 118.633
L374.01 108.523
L395.037 94.7033
L416.063 78.8295
L437.09 71.7427
L458.116 65.9957
L479.143 50.7911" style="fill:none;stroke:#03012d;stroke-linecap:round;"/>
   </g>
   <g id="line2d_54">
    <path clip-path="url(#pfa74778fd5)" d="
M268.877 108.806
L289.904 121.532
L310.93 125.518
L331.957 121.776
L352.983 120.737
L374.01 103.411
L395.037 81.6718
L416.063 73.3223
L437.09 69.0804
L458.116 65.1617
L479.143 65.4844" style="fill:none;stroke:#03012d;stroke-linecap:round;"/>
   </g>
   <g id="line2d_55">
    <path clip-path="url(#pfa74778fd5)" d="
M268.877 130.33
L289.904 125.608
L310.93 117.491
L331.957 113.499
L352.983 112.633
L374.01 101.415
L395.037 80.5995
L416.063 70.1846
L437.09 68.1902
L458.116 69.0691
L479.143 67.4802" style="fill:none;stroke:#03012d;stroke-linecap:round;"/>
   </g>
   <g id="line2d_56">
    <path clip-path="url(#pfa74778fd5)" d="
M268.877 124.218
L289.904 124.94
L310.93 115.674
L331.957 105.437
L352.983 114.755
L374.01 111.932
L395.037 92.6688
L416.063 76.9336
L437.09 68.4581
L458.116 62.9593
L479.143 58.5236" style="fill:none;stroke:#03012d;stroke-linecap:round;"/>
   </g>
   <g id="line2d_57">
    <path clip-path="url(#pfa74778fd5)" d="
M268.877 105.436
L289.904 107.901
L310.93 105.819
L331.957 105.721
L352.983 130.277
L374.01 118.511
L395.037 98.9892
L416.063 97.2388
L437.09 83.7767
L458.116 58.7002
L479.143 44.1304" style="fill:none;stroke:#03012d;stroke-linecap:round;"/>
   </g>
   <g id="line2d_58">
    <path clip-path="url(#pfa74778fd5)" d="
M268.877 128.898
L289.904 133.111
L310.93 119.496
L331.957 105.696
L352.983 106.513
L374.01 102.025
L395.037 84.0456
L416.063 74.6451
L437.09 71.5874
L458.116 66.8639
L479.143 63.6178" style="fill:none;stroke:#03012d;stroke-linecap:round;"/>
   </g>
   <g id="line2d_59">
    <path clip-path="url(#pfa74778fd5)" d="
M268.877 99.5877
L289.904 113.995
L310.93 116.406
L331.957 110.643
L352.983 119.61
L374.01 119.114
L395.037 103.21
L416.063 91.7457
L437.09 76.7313
L458.116 59.7795
L479.143 45.6774" style="fill:none;stroke:#03012d;stroke-linecap:round;"/>
   </g>
   <g id="line2d_60">
    <path clip-path="url(#pfa74778fd5)" d="
M268.877 129.56
L289.904 131.581
L310.93 131.222
L331.957 110.941
L352.983 96.0415
L374.01 83.1548
L395.037 70.8491
L416.063 69.3813
L437.09 77.9212
L458.116 78.9935
L479.143 76.8542" style="fill:none;stroke:#03012d;stroke-linecap:round;"/>
   </g>
   <g id="line2d_61">
    <path clip-path="url(#pfa74778fd5)" d="
M268.877 132.816
L289.904 138.168
L310.93 112.435
L331.957 89.0847
L352.983 100.741
L374.01 109.343
L395.037 81.6863
L416.063 60.6038
L437.09 66.4282
L458.116 83.3808
L479.143 81.812" style="fill:none;stroke:#03012d;stroke-linecap:round;"/>
   </g>
   <g id="line2d_62">
    <path clip-path="url(#pfa74778fd5)" d="
M268.877 122.165
L289.904 121.722
L310.93 111.79
L331.957 95.821
L352.983 109.891
L374.01 111.971
L395.037 105.153
L416.063 94.122
L437.09 79.6582
L458.116 58.9275
L479.143 45.2797" style="fill:none;stroke:#03012d;stroke-linecap:round;"/>
   </g>
   <g id="line2d_63">
    <path clip-path="url(#pfa74778fd5)" d="
M268.877 116.605
L289.904 124.628
L310.93 116.849
L331.957 107.032
L352.983 117.49
L374.01 116.705
L395.037 90.4902
L416.063 69.9282
L437.09 71.7315
L458.116 70.0363
L479.143 55.0043" style="fill:none;stroke:#03012d;stroke-linecap:round;"/>
   </g>
   <g id="line2d_64">
    <path clip-path="url(#pfa74778fd5)" d="
M268.877 140.298
L289.904 141.985
L310.93 106.638
L331.957 77.7971
L352.983 85.3384
L374.01 76.2694
L395.037 67.9331
L416.063 76.0822
L437.09 86.2069
L458.116 95.6324
L479.143 102.32" style="fill:none;stroke:#03012d;stroke-linecap:round;"/>
   </g>
   <g id="line2d_65">
    <path clip-path="url(#pfa74778fd5)" d="
M268.877 126.218
L289.904 124.787
L310.93 117.224
L331.957 106.861
L352.983 113.497
L374.01 109.667
L395.037 89.4924
L416.063 77.8984
L437.09 67.4912
L458.116 62.9609
L479.143 60.4013" style="fill:none;stroke:#03012d;stroke-linecap:round;"/>
   </g>
   <g id="line2d_66">
    <path clip-path="url(#pfa74778fd5)" d="
M268.877 119.207
L289.904 124.706
L310.93 118.606
L331.957 110.608
L352.983 114.004
L374.01 107.679
L395.037 93.9047
L416.063 79.3158
L437.09 71.8535
L458.116 65.0212
L479.143 51.595" style="fill:none;stroke:#03012d;stroke-linecap:round;"/>
   </g>
   <g id="line2d_67">
    <path clip-path="url(#pfa74778fd5)" d="
M268.877 118.282
L289.904 121.77
L310.93 93.9924
L331.957 70.0255
L352.983 108.421
L374.01 117.88
L395.037 111.562
L416.063 109.88
L437.09 90.8897
L458.116 70.1969
L479.143 43.5999" style="fill:none;stroke:#03012d;stroke-linecap:round;"/>
   </g>
   <g id="line2d_68">
    <path clip-path="url(#pfa74778fd5)" d="
M268.877 112.744
L289.904 119.636
L310.93 130.471
L331.957 113.167
L352.983 109.717
L374.01 105.527
L395.037 94.7837
L416.063 83.2615
L437.09 71.7568
L458.116 63.2606
L479.143 52.1752" style="fill:none;stroke:#03012d;stroke-linecap:round;"/>
   </g>
   <g id="patch_6">
    <path d="
M268.877 174.898
L268.877 20.7894" style="fill:none;stroke:#262626;stroke-linecap:square;stroke-linejoin:miter;stroke-width:1.25;"/>
   </g>
   <g id="patch_7">
    <path d="
M268.877 174.898
L479.143 174.898" style="fill:none;stroke:#262626;stroke-linecap:square;stroke-linejoin:miter;stroke-width:1.25;"/>
   </g>
   <g id="text_18">
    <!-- Senescence -->
    <defs>
     <path d="
M4.5 23
L13.4219 23.7812
Q14.0625 18.4062 16.375 14.9688
Q18.7031 11.5312 23.5781 9.40625
Q28.4688 7.28125 34.5781 7.28125
Q39.9844 7.28125 44.1406 8.89062
Q48.2969 10.5 50.3125 13.2969
Q52.3438 16.1094 52.3438 19.4375
Q52.3438 22.7969 50.3906 25.3125
Q48.4375 27.8281 43.9531 29.5469
Q41.0625 30.6719 31.2031 33.0312
Q21.3438 35.4062 17.3906 37.5
Q12.25 40.1875 9.73438 44.1562
Q7.23438 48.1406 7.23438 53.0781
Q7.23438 58.5 10.2969 63.2031
Q13.375 67.9219 19.2812 70.3594
Q25.2031 72.7969 32.4219 72.7969
Q40.375 72.7969 46.4531 70.2344
Q52.5469 67.6719 55.8125 62.6875
Q59.0781 57.7188 59.3281 51.4219
L50.25 50.7344
Q49.5156 57.5156 45.2812 60.9844
Q41.0625 64.4531 32.8125 64.4531
Q24.2188 64.4531 20.2812 61.2969
Q16.3594 58.1562 16.3594 53.7188
Q16.3594 49.8594 19.1406 47.3594
Q21.875 44.875 33.4219 42.2656
Q44.9688 39.6562 49.2656 37.7031
Q55.5156 34.8125 58.4844 30.3906
Q61.4688 25.9844 61.4688 20.2188
Q61.4688 14.5 58.2031 9.4375
Q54.9375 4.39062 48.7969 1.57812
Q42.6719 -1.21875 35.0156 -1.21875
Q25.2969 -1.21875 18.7188 1.60938
Q12.1562 4.4375 8.42188 10.125
Q4.6875 15.8281 4.5 23" id="ArialMT-53"/>
     <path d="
M40.4375 19
L49.0781 17.875
Q47.6562 8.9375 41.8125 3.875
Q35.9844 -1.17188 27.4844 -1.17188
Q16.8438 -1.17188 10.375 5.78125
Q3.90625 12.75 3.90625 25.7344
Q3.90625 34.125 6.6875 40.4219
Q9.46875 46.7344 15.1562 49.875
Q20.8438 53.0312 27.5469 53.0312
Q35.9844 53.0312 41.3594 48.75
Q46.7344 44.4844 48.25 36.625
L39.7031 35.2969
Q38.4844 40.5312 35.375 43.1562
Q32.2812 45.7969 27.875 45.7969
Q21.2344 45.7969 17.0781 41.0312
Q12.9375 36.2812 12.9375 25.9844
Q12.9375 15.5312 16.9375 10.7969
Q20.9531 6.0625 27.3906 6.0625
Q32.5625 6.0625 36.0312 9.23438
Q39.5 12.4062 40.4375 19" id="ArialMT-63"/>
    </defs>
    <g style="fill:#262626;" transform="translate(341.506875 15.789375)scale(0.12 -0.12)">
     <use xlink:href="#ArialMT-53"/>
     <use x="66.69921875" xlink:href="#ArialMT-65"/>
     <use x="122.314453125" xlink:href="#ArialMT-6e"/>
     <use x="177.9296875" xlink:href="#ArialMT-65"/>
     <use x="233.544921875" xlink:href="#ArialMT-73"/>
     <use x="283.544921875" xlink:href="#ArialMT-63"/>
     <use x="333.544921875" xlink:href="#ArialMT-65"/>
     <use x="389.16015625" xlink:href="#ArialMT-6e"/>
     <use x="444.775390625" xlink:href="#ArialMT-63"/>
     <use x="494.775390625" xlink:href="#ArialMT-65"/>
    </g>
   </g>
  </g>
  <g id="axes_3">
   <g id="patch_8">
    <path d="
M492.103 174.898
L702.368 174.898
L702.368 20.7894
L492.103 20.7894
z
" style="fill:#ffffff;"/>
   </g>
   <g id="matplotlib.axis_5">
    <g id="xtick_9">
     <g id="line2d_69">
      <g>
       <use style="fill:#262626;stroke:#262626;" x="532.366226729" xlink:href="#me1deecec79" y="174.8978125"/>
      </g>
     </g>
     <g id="text_19">
      <!-- 5 -->
      <g style="fill:#262626;" transform="translate(529.993570479 195.055625)scale(0.1 -0.1)">
       <use xlink:href="#ArialMT-35"/>
      </g>
     </g>
    </g>
    <g id="xtick_10">
     <g id="line2d_70">
      <g>
       <use style="fill:#262626;stroke:#262626;" x="577.103527261" xlink:href="#me1deecec79" y="174.8978125"/>
      </g>
     </g>
     <g id="text_20">
      <!-- 10 -->
      <g style="fill:#262626;" transform="translate(572.326183511 195.055625)scale(0.1 -0.1)">
       <use xlink:href="#ArialMT-31"/>
       <use x="55.615234375" xlink:href="#ArialMT-30"/>
      </g>
     </g>
    </g>
    <g id="xtick_11">
     <g id="line2d_71">
      <g>
       <use style="fill:#262626;stroke:#262626;" x="621.840827793" xlink:href="#me1deecec79" y="174.8978125"/>
      </g>
     </g>
     <g id="text_21">
      <!-- 15 -->
      <g style="fill:#262626;" transform="translate(617.024421543 195.055625)scale(0.1 -0.1)">
       <use xlink:href="#ArialMT-31"/>
       <use x="55.615234375" xlink:href="#ArialMT-35"/>
      </g>
     </g>
    </g>
    <g id="xtick_12">
     <g id="line2d_72">
      <g>
       <use style="fill:#262626;stroke:#262626;" x="666.578128324" xlink:href="#me1deecec79" y="174.8978125"/>
      </g>
     </g>
     <g id="text_22">
      <!-- 20 -->
      <g style="fill:#262626;" transform="translate(661.403128324 195.055625)scale(0.1 -0.1)">
       <use xlink:href="#ArialMT-32"/>
       <use x="55.615234375" xlink:href="#ArialMT-30"/>
      </g>
     </g>
    </g>
   </g>
   <g id="matplotlib.axis_6">
    <g id="ytick_15">
     <g id="line2d_73">
      <g>
       <use style="fill:#262626;stroke:#262626;" x="492.10265625" xlink:href="#m4aded61697" y="171.612171245"/>
      </g>
     </g>
    </g>
    <g id="ytick_16">
     <g id="line2d_74">
      <g>
       <use style="fill:#262626;stroke:#262626;" x="492.10265625" xlink:href="#m4aded61697" y="146.42325154"/>
      </g>
     </g>
    </g>
    <g id="ytick_17">
     <g id="line2d_75">
      <g>
       <use style="fill:#262626;stroke:#262626;" x="492.10265625" xlink:href="#m4aded61697" y="121.234331834"/>
      </g>
     </g>
    </g>
    <g id="ytick_18">
     <g id="line2d_76">
      <g>
       <use style="fill:#262626;stroke:#262626;" x="492.10265625" xlink:href="#m4aded61697" y="96.0454121291"/>
      </g>
     </g>
    </g>
    <g id="ytick_19">
     <g id="line2d_77">
      <g>
       <use style="fill:#262626;stroke:#262626;" x="492.10265625" xlink:href="#m4aded61697" y="70.8564924238"/>
      </g>
     </g>
    </g>
    <g id="ytick_20">
     <g id="line2d_78">
      <g>
       <use style="fill:#262626;stroke:#262626;" x="492.10265625" xlink:href="#m4aded61697" y="45.6675727185"/>
      </g>
     </g>
    </g>
    <g id="ytick_21"/>
   </g>
   <g id="line2d_79">
    <path clip-path="url(#p248ba3fe9e)" d="
M492.103 125.917
L496.576 113.755
L514.471 70.3571
L541.314 63.7955
L594.998 90.907
L702.368 111.541" style="fill:none;stroke:#03012d;stroke-linecap:round;"/>
   </g>
   <g id="line2d_80">
    <path clip-path="url(#p248ba3fe9e)" d="
M492.103 128.005
L496.576 110.199
L514.471 72.6062
L541.314 60.259
L594.998 106.762
L702.368 98.4412" style="fill:none;stroke:#03012d;stroke-linecap:round;"/>
   </g>
   <g id="line2d_81">
    <path clip-path="url(#p248ba3fe9e)" d="
M492.103 136.551
L496.576 117.101
L514.471 82.8957
L541.314 72.5928
L594.998 78.3709
L702.368 88.7613" style="fill:none;stroke:#03012d;stroke-linecap:round;"/>
   </g>
   <g id="line2d_82">
    <path clip-path="url(#p248ba3fe9e)" d="
M492.103 128.697
L496.576 124.863
L514.471 92.2109
L541.314 82.4371
L594.998 81.3388
L702.368 66.7256" style="fill:none;stroke:#03012d;stroke-linecap:round;"/>
   </g>
   <g id="line2d_83">
    <path clip-path="url(#p248ba3fe9e)" d="
M492.103 135.198
L496.576 108.672
L514.471 97.7575
L541.314 59.8209
L594.998 90.2212
L702.368 84.6023" style="fill:none;stroke:#03012d;stroke-linecap:round;"/>
   </g>
   <g id="line2d_84">
    <path clip-path="url(#p248ba3fe9e)" d="
M492.103 134.268
L496.576 121.464
L514.471 84.5581
L541.314 77.3205
L594.998 82.7937
L702.368 75.8679" style="fill:none;stroke:#03012d;stroke-linecap:round;"/>
   </g>
   <g id="line2d_85">
    <path clip-path="url(#p248ba3fe9e)" d="
M492.103 129.038
L496.576 124.841
L514.471 91.3891
L541.314 72.5546
L594.998 71.6311
L702.368 86.8185" style="fill:none;stroke:#03012d;stroke-linecap:round;"/>
   </g>
   <g id="line2d_86">
    <path clip-path="url(#p248ba3fe9e)" d="
M492.103 130.8
L496.576 112.043
L514.471 68.4177
L541.314 65.7689
L594.998 100.859
L702.368 98.3839" style="fill:none;stroke:#03012d;stroke-linecap:round;"/>
   </g>
   <g id="line2d_87">
    <path clip-path="url(#p248ba3fe9e)" d="
M492.103 130.174
L496.576 123.447
L514.471 94.7377
L541.314 71.8816
L594.998 74.7685
L702.368 81.2638" style="fill:none;stroke:#03012d;stroke-linecap:round;"/>
   </g>
   <g id="line2d_88">
    <path clip-path="url(#p248ba3fe9e)" d="
M492.103 136.603
L496.576 118.26
L514.471 83.0355
L541.314 74.5076
L594.998 80.8109
L702.368 83.0549" style="fill:none;stroke:#03012d;stroke-linecap:round;"/>
   </g>
   <g id="line2d_89">
    <path clip-path="url(#p248ba3fe9e)" d="
M492.103 121.7
L496.576 97.5257
L514.471 57.1185
L541.314 74.8856
L594.998 114.269
L702.368 110.774" style="fill:none;stroke:#03012d;stroke-linecap:round;"/>
   </g>
   <g id="line2d_90">
    <path clip-path="url(#p248ba3fe9e)" d="
M492.103 131.337
L496.576 123.229
L514.471 88.7786
L541.314 82.4487
L594.998 81.7432
L702.368 68.7365" style="fill:none;stroke:#03012d;stroke-linecap:round;"/>
   </g>
   <g id="line2d_91">
    <path clip-path="url(#p248ba3fe9e)" d="
M492.103 135.304
L496.576 119.996
L514.471 83.2783
L541.314 84.7408
L594.998 77.1303
L702.368 75.8229" style="fill:none;stroke:#03012d;stroke-linecap:round;"/>
   </g>
   <g id="line2d_92">
    <path clip-path="url(#p248ba3fe9e)" d="
M492.103 131.222
L496.576 105.778
L514.471 59.5387
L541.314 75.5666
L594.998 104.847
L702.368 99.3206" style="fill:none;stroke:#03012d;stroke-linecap:round;"/>
   </g>
   <g id="line2d_93">
    <path clip-path="url(#p248ba3fe9e)" d="
M492.103 135.192
L496.576 120.337
L514.471 85.4064
L541.314 77.646
L594.998 80.631
L702.368 77.0591" style="fill:none;stroke:#03012d;stroke-linecap:round;"/>
   </g>
   <g id="line2d_94">
    <path clip-path="url(#p248ba3fe9e)" d="
M492.103 136.351
L496.576 107.408
L514.471 72.5275
L541.314 66.7138
L594.998 95.1108
L702.368 98.1615" style="fill:none;stroke:#03012d;stroke-linecap:round;"/>
   </g>
   <g id="line2d_95">
    <path clip-path="url(#p248ba3fe9e)" d="
M492.103 131.454
L496.576 123.145
L514.471 92.4478
L541.314 76.702
L594.998 78.9452
L702.368 73.5788" style="fill:none;stroke:#03012d;stroke-linecap:round;"/>
   </g>
   <g id="line2d_96">
    <path clip-path="url(#p248ba3fe9e)" d="
M492.103 133.916
L496.576 120.543
L514.471 86.3549
L541.314 80.854
L594.998 84.7432
L702.368 69.8608" style="fill:none;stroke:#03012d;stroke-linecap:round;"/>
   </g>
   <g id="line2d_97">
    <path clip-path="url(#p248ba3fe9e)" d="
M492.103 134.79
L496.576 120.607
L514.471 81.2761
L541.314 73.3202
L594.998 82.7317
L702.368 83.5476" style="fill:none;stroke:#03012d;stroke-linecap:round;"/>
   </g>
   <g id="line2d_98">
    <path clip-path="url(#p248ba3fe9e)" d="
M492.103 141.559
L496.576 107.765
L514.471 84.4908
L541.314 89.7913
L594.998 73.6976
L702.368 78.9698" style="fill:none;stroke:#03012d;stroke-linecap:round;"/>
   </g>
   <g id="line2d_99">
    <path clip-path="url(#p248ba3fe9e)" d="
M492.103 136.381
L496.576 117.803
L514.471 88.7611
L541.314 76.3289
L594.998 75.8022
L702.368 81.1966" style="fill:none;stroke:#03012d;stroke-linecap:round;"/>
   </g>
   <g id="line2d_100">
    <path clip-path="url(#p248ba3fe9e)" d="
M492.103 135.473
L496.576 119.577
L514.471 80.1786
L541.314 74.2082
L594.998 86.305
L702.368 80.5313" style="fill:none;stroke:#03012d;stroke-linecap:round;"/>
   </g>
   <g id="line2d_101">
    <path clip-path="url(#p248ba3fe9e)" d="
M492.103 126.96
L496.576 126.334
L514.471 95.9101
L541.314 81.5423
L594.998 71.2132
L702.368 74.3128" style="fill:none;stroke:#03012d;stroke-linecap:round;"/>
   </g>
   <g id="line2d_102">
    <path clip-path="url(#p248ba3fe9e)" d="
M492.103 135.719
L496.576 118.654
L514.471 76.4673
L541.314 82.5475
L594.998 88.3414
L702.368 74.5426" style="fill:none;stroke:#03012d;stroke-linecap:round;"/>
   </g>
   <g id="patch_9">
    <path d="
M492.103 174.898
L492.103 20.7894" style="fill:none;stroke:#262626;stroke-linecap:square;stroke-linejoin:miter;stroke-width:1.25;"/>
   </g>
   <g id="patch_10">
    <path d="
M492.103 174.898
L702.368 174.898" style="fill:none;stroke:#262626;stroke-linecap:square;stroke-linejoin:miter;stroke-width:1.25;"/>
   </g>
   <g id="text_23">
    <!-- Root Cold -->
    <defs>
     <path d="
M7.85938 0
L7.85938 71.5781
L39.5938 71.5781
Q49.1719 71.5781 54.1406 69.6406
Q59.125 67.7188 62.1094 62.8281
Q65.0938 57.9531 65.0938 52.0469
Q65.0938 44.4375 60.1562 39.2031
Q55.2188 33.9844 44.9219 32.5625
Q48.6875 30.7656 50.6406 29
Q54.7812 25.2031 58.5 19.4844
L70.9531 0
L59.0312 0
L49.5625 14.8906
Q45.4062 21.3438 42.7188 24.75
Q40.0469 28.1719 37.9219 29.5312
Q35.7969 30.9062 33.5938 31.4531
Q31.9844 31.7812 28.3281 31.7812
L17.3281 31.7812
L17.3281 0
z

M17.3281 39.9844
L37.7031 39.9844
Q44.1875 39.9844 47.8438 41.3281
Q51.5156 42.6719 53.4219 45.625
Q55.3281 48.5781 55.3281 52.0469
Q55.3281 57.125 51.6406 60.3906
Q47.9531 63.6719 39.9844 63.6719
L17.3281 63.6719
z
" id="ArialMT-52"/>
     <path d="
M58.7969 25.0938
L68.2656 22.7031
Q65.2812 11.0312 57.5469 4.90625
Q49.8125 -1.21875 38.625 -1.21875
Q27.0469 -1.21875 19.7969 3.48438
Q12.5469 8.20312 8.76562 17.1406
Q4.98438 26.0781 4.98438 36.3281
Q4.98438 47.5156 9.25 55.8281
Q13.5312 64.1562 21.4062 68.4688
Q29.2969 72.7969 38.7656 72.7969
Q49.5156 72.7969 56.8281 67.3281
Q64.1562 61.8594 67.0469 51.9531
L57.7188 49.75
Q55.2188 57.5625 50.4844 61.125
Q45.75 64.7031 38.5781 64.7031
Q30.3281 64.7031 24.7812 60.7344
Q19.2344 56.7812 16.9844 50.1094
Q14.75 43.4531 14.75 36.375
Q14.75 27.25 17.4062 20.4375
Q20.0625 13.625 25.6719 10.25
Q31.2969 6.89062 37.8438 6.89062
Q45.7969 6.89062 51.3125 11.4688
Q56.8438 16.0625 58.7969 25.0938" id="ArialMT-43"/>
     <path id="ArialMT-20"/>
     <path d="
M40.2344 0
L40.2344 6.54688
Q35.2969 -1.17188 25.7344 -1.17188
Q19.5312 -1.17188 14.3281 2.25
Q9.125 5.67188 6.26562 11.7969
Q3.42188 17.9219 3.42188 25.875
Q3.42188 33.6406 6 39.9688
Q8.59375 46.2969 13.7656 49.6562
Q18.9531 53.0312 25.3438 53.0312
Q30.0312 53.0312 33.6875 51.0469
Q37.3594 49.0781 39.6562 45.9062
L39.6562 71.5781
L48.3906 71.5781
L48.3906 0
z

M12.4531 25.875
Q12.4531 15.9219 16.6406 10.9844
Q20.8438 6.0625 26.5625 6.0625
Q32.3281 6.0625 36.3438 10.7656
Q40.375 15.4844 40.375 25.1406
Q40.375 35.7969 36.2656 40.7656
Q32.1719 45.75 26.1719 45.75
Q20.3125 45.75 16.375 40.9688
Q12.4531 36.1875 12.4531 25.875" id="ArialMT-64"/>
     <path d="
M6.39062 0
L6.39062 71.5781
L15.1875 71.5781
L15.1875 0
z
" id="ArialMT-6c"/>
    </defs>
    <g style="fill:#262626;" transform="translate(570.9890625 15.789375)scale(0.12 -0.12)">
     <use xlink:href="#ArialMT-52"/>
     <use x="72.216796875" xlink:href="#ArialMT-6f"/>
     <use x="127.83203125" xlink:href="#ArialMT-6f"/>
     <use x="183.447265625" xlink:href="#ArialMT-74"/>
     <use x="211.23046875" xlink:href="#ArialMT-20"/>
     <use x="239.013671875" xlink:href="#ArialMT-43"/>
     <use x="311.23046875" xlink:href="#ArialMT-6f"/>
     <use x="366.845703125" xlink:href="#ArialMT-6c"/>
     <use x="389.0625" xlink:href="#ArialMT-64"/>
    </g>
   </g>
  </g>
  <g id="axes_4">
   <g id="patch_11">
    <path d="
M45.652 377.418
L255.917 377.418
L255.917 223.309
L45.652 223.309
z
" style="fill:#ffffff;"/>
   </g>
   <g id="matplotlib.axis_7">
    <g id="xtick_13">
     <g id="line2d_103">
      <g>
       <use style="fill:#262626;stroke:#262626;" x="87.70509375" xlink:href="#me1deecec79" y="377.4178125"/>
      </g>
     </g>
     <g id="text_24">
      <!-- 5 -->
      <g style="fill:#262626;" transform="translate(85.3324375 397.575625)scale(0.1 -0.1)">
       <use xlink:href="#ArialMT-35"/>
      </g>
     </g>
    </g>
    <g id="xtick_14">
     <g id="line2d_104">
      <g>
       <use style="fill:#262626;stroke:#262626;" x="131.971475329" xlink:href="#me1deecec79" y="377.4178125"/>
      </g>
     </g>
     <g id="text_25">
      <!-- 10 -->
      <g style="fill:#262626;" transform="translate(127.194131579 397.575625)scale(0.1 -0.1)">
       <use xlink:href="#ArialMT-31"/>
       <use x="55.615234375" xlink:href="#ArialMT-30"/>
      </g>
     </g>
    </g>
    <g id="xtick_15">
     <g id="line2d_105">
      <g>
       <use style="fill:#262626;stroke:#262626;" x="176.237856908" xlink:href="#me1deecec79" y="377.4178125"/>
      </g>
     </g>
     <g id="text_26">
      <!-- 15 -->
      <g style="fill:#262626;" transform="translate(171.421450658 397.575625)scale(0.1 -0.1)">
       <use xlink:href="#ArialMT-31"/>
       <use x="55.615234375" xlink:href="#ArialMT-35"/>
      </g>
     </g>
    </g>
    <g id="xtick_16">
     <g id="line2d_106">
      <g>
       <use style="fill:#262626;stroke:#262626;" x="220.504238487" xlink:href="#me1deecec79" y="377.4178125"/>
      </g>
     </g>
     <g id="text_27">
      <!-- 20 -->
      <g style="fill:#262626;" transform="translate(215.329238487 397.575625)scale(0.1 -0.1)">
       <use xlink:href="#ArialMT-32"/>
       <use x="55.615234375" xlink:href="#ArialMT-30"/>
      </g>
     </g>
    </g>
    <g id="text_28">
     <!-- Time -->
     <defs>
      <path d="
M6.59375 0
L6.59375 51.8594
L14.4531 51.8594
L14.4531 44.5781
Q16.8906 48.3906 20.9375 50.7031
Q25 53.0312 30.1719 53.0312
Q35.9375 53.0312 39.625 50.6406
Q43.3125 48.25 44.8281 43.9531
Q50.9844 53.0312 60.8438 53.0312
Q68.5625 53.0312 72.7031 48.75
Q76.8594 44.4844 76.8594 35.5938
L76.8594 0
L68.1094 0
L68.1094 32.6719
Q68.1094 37.9375 67.25 40.25
Q66.4062 42.5781 64.1562 43.9844
Q61.9219 45.4062 58.8906 45.4062
Q53.4219 45.4062 49.7969 41.7656
Q46.1875 38.1406 46.1875 30.125
L46.1875 0
L37.4062 0
L37.4062 33.6875
Q37.4062 39.5469 35.25 42.4688
Q33.1094 45.4062 28.2188 45.4062
Q24.5156 45.4062 21.3594 43.4531
Q18.2188 41.5 16.7969 37.7344
Q15.375 33.9844 15.375 26.9062
L15.375 0
z
" id="ArialMT-6d"/>
      <path d="
M25.9219 0
L25.9219 63.1406
L2.34375 63.1406
L2.34375 71.5781
L59.0781 71.5781
L59.0781 63.1406
L35.4062 63.1406
L35.4062 0
z
" id="ArialMT-54"/>
     </defs>
     <g style="fill:#262626;" transform="translate(139.12640625 412.43671875)scale(0.11 -0.11)">
      <use xlink:href="#ArialMT-54"/>
      <use x="57.333984375" xlink:href="#ArialMT-69"/>
      <use x="79.55078125" xlink:href="#ArialMT-6d"/>
      <use x="162.8515625" xlink:href="#ArialMT-65"/>
     </g>
    </g>
   </g>
   <g id="matplotlib.axis_8">
    <g id="ytick_22">
     <g id="line2d_107">
      <g>
       <use style="fill:#262626;stroke:#262626;" x="45.65203125" xlink:href="#m4aded61697" y="374.132171245"/>
      </g>
     </g>
     <g id="text_29">
      <!-- −3 -->
      <g style="fill:#262626;" transform="translate(22.25984375 376.717327495)scale(0.1 -0.1)">
       <use xlink:href="#ArialMT-2212"/>
       <use x="58.3984375" xlink:href="#ArialMT-33"/>
      </g>
     </g>
    </g>
    <g id="ytick_23">
     <g id="line2d_108">
      <g>
       <use style="fill:#262626;stroke:#262626;" x="45.65203125" xlink:href="#m4aded61697" y="348.94325154"/>
      </g>
     </g>
     <g id="text_30">
      <!-- −2 -->
      <g style="fill:#262626;" transform="translate(22.33328125 351.52840779)scale(0.1 -0.1)">
       <use xlink:href="#ArialMT-2212"/>
       <use x="58.3984375" xlink:href="#ArialMT-32"/>
      </g>
     </g>
    </g>
    <g id="ytick_24">
     <g id="line2d_109">
      <g>
       <use style="fill:#262626;stroke:#262626;" x="45.65203125" xlink:href="#m4aded61697" y="323.754331834"/>
      </g>
     </g>
     <g id="text_31">
      <!-- −1 -->
      <g style="fill:#262626;" transform="translate(23.64265625 326.339488084)scale(0.1 -0.1)">
       <use xlink:href="#ArialMT-2212"/>
       <use x="58.3984375" xlink:href="#ArialMT-31"/>
      </g>
     </g>
    </g>
    <g id="ytick_25">
     <g id="line2d_110">
      <g>
       <use style="fill:#262626;stroke:#262626;" x="45.65203125" xlink:href="#m4aded61697" y="298.565412129"/>
      </g>
     </g>
     <g id="text_32">
      <!-- 0 -->
      <g style="fill:#262626;" transform="translate(27.98484375 301.150568379)scale(0.1 -0.1)">
       <use xlink:href="#ArialMT-30"/>
      </g>
     </g>
    </g>
    <g id="ytick_26">
     <g id="line2d_111">
      <g>
       <use style="fill:#262626;stroke:#262626;" x="45.65203125" xlink:href="#m4aded61697" y="273.376492424"/>
      </g>
     </g>
     <g id="text_33">
      <!-- 1 -->
      <g style="fill:#262626;" transform="translate(30.01609375 275.961648674)scale(0.1 -0.1)">
       <use xlink:href="#ArialMT-31"/>
      </g>
     </g>
    </g>
    <g id="ytick_27">
     <g id="line2d_112">
      <g>
       <use style="fill:#262626;stroke:#262626;" x="45.65203125" xlink:href="#m4aded61697" y="248.187572718"/>
      </g>
     </g>
     <g id="text_34">
      <!-- 2 -->
      <g style="fill:#262626;" transform="translate(27.91140625 250.772728968)scale(0.1 -0.1)">
       <use xlink:href="#ArialMT-32"/>
      </g>
     </g>
    </g>
    <g id="ytick_28">
     <g id="text_35">
      <!-- 3 -->
      <g style="fill:#262626;" transform="translate(27.96453125 225.583809263)scale(0.1 -0.1)">
       <use xlink:href="#ArialMT-33"/>
      </g>
     </g>
    </g>
    <g id="text_36">
     <!-- Expression -->
     <g style="fill:#262626;" transform="translate(15.07359375 326.75671875)rotate(-90.0)scale(0.11 -0.11)">
      <use xlink:href="#ArialMT-45"/>
      <use x="66.69921875" xlink:href="#ArialMT-78"/>
      <use x="116.69921875" xlink:href="#ArialMT-70"/>
      <use x="172.314453125" xlink:href="#ArialMT-72"/>
      <use x="205.615234375" xlink:href="#ArialMT-65"/>
      <use x="261.23046875" xlink:href="#ArialMT-73"/>
      <use x="311.23046875" xlink:href="#ArialMT-73"/>
      <use x="361.23046875" xlink:href="#ArialMT-69"/>
      <use x="383.447265625" xlink:href="#ArialMT-6f"/>
      <use x="439.0625" xlink:href="#ArialMT-6e"/>
     </g>
    </g>
   </g>
   <g id="line2d_113">
    <path clip-path="url(#pe504f82b41)" d="
M45.652 265.82
L47.8654 263.614
L52.292 291.643
L69.9985 309.908
L96.5584 318.822
L149.678 319.434
L255.917 320.716" style="fill:none;stroke:#d9544d;stroke-linecap:round;"/>
   </g>
   <g id="line2d_114">
    <path clip-path="url(#pe504f82b41)" d="
M45.652 273.398
L47.8654 261.21
L52.292 285.953
L69.9985 306.303
L96.5584 315.565
L149.678 324.101
L255.917 323.427" style="fill:none;stroke:#d9544d;stroke-linecap:round;"/>
   </g>
   <g id="line2d_115">
    <path clip-path="url(#pe504f82b41)" d="
M45.652 282.266
L47.8654 261.455
L52.292 281.124
L69.9985 303.319
L96.5584 305.156
L149.678 324.905
L255.917 331.732" style="fill:none;stroke:#d9544d;stroke-linecap:round;"/>
   </g>
   <g id="line2d_116">
    <path clip-path="url(#pe504f82b41)" d="
M45.652 264.479
L47.8654 263.37
L52.292 296.557
L69.9985 311.313
L96.5584 314.291
L149.678 326.129
L255.917 313.819" style="fill:none;stroke:#d9544d;stroke-linecap:round;"/>
   </g>
   <g id="line2d_117">
    <path clip-path="url(#pe504f82b41)" d="
M45.652 271.561
L47.8654 265.581
L52.292 280.364
L69.9985 314.944
L96.5584 310.818
L149.678 320.897
L255.917 325.792" style="fill:none;stroke:#d9544d;stroke-linecap:round;"/>
   </g>
   <g id="line2d_118">
    <path clip-path="url(#pe504f82b41)" d="
M45.652 277.699
L47.8654 264.862
L52.292 278.545
L69.9985 305.181
L96.5584 308.637
L149.678 324.953
L255.917 330.082" style="fill:none;stroke:#d9544d;stroke-linecap:round;"/>
   </g>
   <g id="line2d_119">
    <path clip-path="url(#pe504f82b41)" d="
M45.652 285.817
L47.8654 258.117
L52.292 276.292
L69.9985 312.219
L96.5584 314.352
L149.678 324.513
L255.917 318.648" style="fill:none;stroke:#d9544d;stroke-linecap:round;"/>
   </g>
   <g id="line2d_120">
    <path clip-path="url(#pe504f82b41)" d="
M45.652 266.711
L47.8654 269.498
L52.292 284.213
L69.9985 305.873
L96.5584 315.437
L149.678 331.107
L255.917 317.121" style="fill:none;stroke:#d9544d;stroke-linecap:round;"/>
   </g>
   <g id="line2d_121">
    <path clip-path="url(#pe504f82b41)" d="
M45.652 269.855
L47.8654 271.103
L52.292 277.704
L69.9985 304.863
L96.5584 314.616
L149.678 325.338
L255.917 326.478" style="fill:none;stroke:#d9544d;stroke-linecap:round;"/>
   </g>
   <g id="line2d_122">
    <path clip-path="url(#pe504f82b41)" d="
M45.652 268.204
L47.8654 265.485
L52.292 286.299
L69.9985 311.276
L96.5584 309.476
L149.678 325.872
L255.917 323.345" style="fill:none;stroke:#d9544d;stroke-linecap:round;"/>
   </g>
   <g id="line2d_123">
    <path clip-path="url(#pe504f82b41)" d="
M45.652 258.336
L47.8654 275.155
L52.292 286.775
L69.9985 313.45
L96.5584 312.543
L149.678 322.122
L255.917 321.578" style="fill:none;stroke:#d9544d;stroke-linecap:round;"/>
   </g>
   <g id="line2d_124">
    <path clip-path="url(#pe504f82b41)" d="
M45.652 266.148
L47.8654 264.499
L52.292 291.141
L69.9985 310.517
L96.5584 310.923
L149.678 320.65
L255.917 326.081" style="fill:none;stroke:#d9544d;stroke-linecap:round;"/>
   </g>
   <g id="line2d_125">
    <path clip-path="url(#pe504f82b41)" d="
M45.652 273.634
L47.8654 271.154
L52.292 272.871
L69.9985 305.495
L96.5584 317.646
L149.678 326.623
L255.917 322.534" style="fill:none;stroke:#d9544d;stroke-linecap:round;"/>
   </g>
   <g id="line2d_126">
    <path clip-path="url(#pe504f82b41)" d="
M45.652 264.853
L47.8654 276.51
L52.292 278.341
L69.9985 305.983
L96.5584 319.482
L149.678 330.959
L255.917 313.829" style="fill:none;stroke:#d9544d;stroke-linecap:round;"/>
   </g>
   <g id="line2d_127">
    <path clip-path="url(#pe504f82b41)" d="
M45.652 266.449
L47.8654 267.957
L52.292 285.529
L69.9985 316.569
L96.5584 308.972
L149.678 314.653
L255.917 329.828" style="fill:none;stroke:#d9544d;stroke-linecap:round;"/>
   </g>
   <g id="line2d_128">
    <path clip-path="url(#pe504f82b41)" d="
M45.652 267.503
L47.8654 266.388
L52.292 287.823
L69.9985 304.87
L96.5584 312.512
L149.678 328.03
L255.917 322.832" style="fill:none;stroke:#d9544d;stroke-linecap:round;"/>
   </g>
   <g id="line2d_129">
    <path clip-path="url(#pe504f82b41)" d="
M45.652 268.19
L47.8654 263.913
L52.292 288.962
L69.9985 311.514
L96.5584 308.96
L149.678 324.551
L255.917 323.867" style="fill:none;stroke:#d9544d;stroke-linecap:round;"/>
   </g>
   <g id="line2d_130">
    <path clip-path="url(#pe504f82b41)" d="
M45.652 286.248
L47.8654 262.032
L52.292 271.354
L69.9985 316.781
L96.5584 308.53
L149.678 321.366
L255.917 323.647" style="fill:none;stroke:#d9544d;stroke-linecap:round;"/>
   </g>
   <g id="line2d_131">
    <path clip-path="url(#pe504f82b41)" d="
M45.652 267.283
L47.8654 266.448
L52.292 286.072
L69.9985 307.028
L96.5584 315.174
L149.678 324.904
L255.917 323.05" style="fill:none;stroke:#d9544d;stroke-linecap:round;"/>
   </g>
   <g id="line2d_132">
    <path clip-path="url(#pe504f82b41)" d="
M45.652 276.43
L47.8654 264.778
L52.292 284.541
L69.9985 293.447
L96.5584 322.994
L149.678 317.816
L255.917 329.951" style="fill:none;stroke:#d9544d;stroke-linecap:round;"/>
   </g>
   <g id="line2d_133">
    <path clip-path="url(#pe504f82b41)" d="
M45.652 267.354
L47.8654 265.458
L52.292 288.682
L69.9985 306.34
L96.5584 312.704
L149.678 327.123
L255.917 322.296" style="fill:none;stroke:#d9544d;stroke-linecap:round;"/>
   </g>
   <g id="line2d_134">
    <path clip-path="url(#pe504f82b41)" d="
M45.652 265.237
L47.8654 269.218
L52.292 283.082
L69.9985 315.258
L96.5584 313.062
L149.678 320.779
L255.917 323.322" style="fill:none;stroke:#d9544d;stroke-linecap:round;"/>
   </g>
   <g id="line2d_135">
    <path clip-path="url(#pe504f82b41)" d="
M45.652 278.613
L47.8654 263.928
L52.292 275.926
L69.9985 308.456
L96.5584 315.097
L149.678 328.137
L255.917 319.801" style="fill:none;stroke:#d9544d;stroke-linecap:round;"/>
   </g>
   <g id="line2d_136">
    <path clip-path="url(#pe504f82b41)" d="
M45.652 265.956
L47.8654 276.618
L52.292 283.195
L69.9985 299.232
L96.5584 305.31
L149.678 333.397
L255.917 326.25" style="fill:none;stroke:#d9544d;stroke-linecap:round;"/>
   </g>
   <g id="patch_12">
    <path d="
M45.652 377.418
L45.652 223.309" style="fill:none;stroke:#262626;stroke-linecap:square;stroke-linejoin:miter;stroke-width:1.25;"/>
   </g>
   <g id="patch_13">
    <path d="
M45.652 377.418
L255.917 377.418" style="fill:none;stroke:#262626;stroke-linecap:square;stroke-linejoin:miter;stroke-width:1.25;"/>
   </g>
   <g id="text_37">
    <!-- Root Drought -->
    <defs>
     <path d="
M40.5781 0
L40.5781 7.625
Q34.5156 -1.17188 24.125 -1.17188
Q19.5312 -1.17188 15.5469 0.578125
Q11.5781 2.34375 9.64062 5
Q7.71875 7.67188 6.9375 11.5312
Q6.39062 14.1094 6.39062 19.7344
L6.39062 51.8594
L15.1875 51.8594
L15.1875 23.0938
Q15.1875 16.2188 15.7188 13.8125
Q16.5469 10.3594 19.2344 8.375
Q21.9219 6.39062 25.875 6.39062
Q29.8281 6.39062 33.2969 8.42188
Q36.7656 10.4531 38.2031 13.9375
Q39.6562 17.4375 39.6562 24.0781
L39.6562 51.8594
L48.4375 51.8594
L48.4375 0
z
" id="ArialMT-75"/>
     <path d="
M6.59375 0
L6.59375 71.5781
L15.375 71.5781
L15.375 45.9062
Q21.5312 53.0312 30.9062 53.0312
Q36.6719 53.0312 40.9219 50.75
Q45.1719 48.4844 47 44.4844
Q48.8281 40.4844 48.8281 32.8594
L48.8281 0
L40.0469 0
L40.0469 32.8594
Q40.0469 39.4531 37.1875 42.4531
Q34.3281 45.4531 29.1094 45.4531
Q25.2031 45.4531 21.75 43.4219
Q18.3125 41.4062 16.8438 37.9375
Q15.375 34.4688 15.375 28.375
L15.375 0
z
" id="ArialMT-68"/>
     <path d="
M7.71875 0
L7.71875 71.5781
L32.375 71.5781
Q40.7188 71.5781 45.125 70.5625
Q51.2656 69.1406 55.6094 65.4375
Q61.2812 60.6406 64.0781 53.1875
Q66.8906 45.75 66.8906 36.1875
Q66.8906 28.0312 64.9844 21.7344
Q63.0938 15.4375 60.1094 11.2969
Q57.125 7.17188 53.5781 4.79688
Q50.0469 2.4375 45.0469 1.21875
Q40.0469 0 33.5469 0
z

M17.1875 8.45312
L32.4688 8.45312
Q39.5469 8.45312 43.5781 9.76562
Q47.6094 11.0781 50 13.4844
Q53.375 16.8438 55.25 22.5312
Q57.125 28.2188 57.125 36.3281
Q57.125 47.5625 53.4375 53.5938
Q49.75 59.625 44.4844 61.6719
Q40.6719 63.1406 32.2344 63.1406
L17.1875 63.1406
z
" id="ArialMT-44"/>
     <path d="
M4.98438 -4.29688
L13.5312 -5.5625
Q14.0625 -9.51562 16.5 -11.3281
Q19.7812 -13.7656 25.4375 -13.7656
Q31.5469 -13.7656 34.8594 -11.3281
Q38.1875 -8.89062 39.3594 -4.5
Q40.0469 -1.8125 39.9844 6.78125
Q34.2344 0 25.6406 0
Q14.9375 0 9.07812 7.71875
Q3.21875 15.4375 3.21875 26.2188
Q3.21875 33.6406 5.90625 39.9062
Q8.59375 46.1875 13.6875 49.6094
Q18.7969 53.0312 25.6875 53.0312
Q34.8594 53.0312 40.8281 45.6094
L40.8281 51.8594
L48.9219 51.8594
L48.9219 7.03125
Q48.9219 -5.07812 46.4531 -10.125
Q44 -15.1875 38.6406 -18.1094
Q33.2969 -21.0469 25.4844 -21.0469
Q16.2188 -21.0469 10.5 -16.875
Q4.78125 -12.7031 4.98438 -4.29688
M12.25 26.8594
Q12.25 16.6562 16.2969 11.9688
Q20.3594 7.28125 26.4688 7.28125
Q32.5156 7.28125 36.6094 11.9375
Q40.7188 16.6094 40.7188 26.5625
Q40.7188 36.0781 36.5 40.9062
Q32.2812 45.75 26.3125 45.75
Q20.4531 45.75 16.3438 40.9844
Q12.25 36.2344 12.25 26.8594" id="ArialMT-67"/>
    </defs>
    <g style="fill:#262626;" transform="translate(115.1446875 218.309375)scale(0.12 -0.12)">
     <use xlink:href="#ArialMT-52"/>
     <use x="72.216796875" xlink:href="#ArialMT-6f"/>
     <use x="127.83203125" xlink:href="#ArialMT-6f"/>
     <use x="183.447265625" xlink:href="#ArialMT-74"/>
     <use x="211.23046875" xlink:href="#ArialMT-20"/>
     <use x="239.013671875" xlink:href="#ArialMT-44"/>
     <use x="311.23046875" xlink:href="#ArialMT-72"/>
     <use x="344.53125" xlink:href="#ArialMT-6f"/>
     <use x="400.146484375" xlink:href="#ArialMT-75"/>
     <use x="455.76171875" xlink:href="#ArialMT-67"/>
     <use x="511.376953125" xlink:href="#ArialMT-68"/>
     <use x="566.9921875" xlink:href="#ArialMT-74"/>
    </g>
   </g>
  </g>
  <g id="axes_5">
   <g id="patch_14">
    <path d="
M268.877 377.418
L479.143 377.418
L479.143 223.309
L268.877 223.309
z
" style="fill:#ffffff;"/>
   </g>
   <g id="matplotlib.axis_9">
    <g id="xtick_17">
     <g id="line2d_137">
      <g>
       <use style="fill:#262626;stroke:#262626;" x="309.140914229" xlink:href="#me1deecec79" y="377.4178125"/>
      </g>
     </g>
     <g id="text_38">
      <!-- 5 -->
      <g style="fill:#262626;" transform="translate(306.768257979 397.575625)scale(0.1 -0.1)">
       <use xlink:href="#ArialMT-35"/>
      </g>
     </g>
    </g>
    <g id="xtick_18">
     <g id="line2d_138">
      <g>
       <use style="fill:#262626;stroke:#262626;" x="353.878214761" xlink:href="#me1deecec79" y="377.4178125"/>
      </g>
     </g>
     <g id="text_39">
      <!-- 10 -->
      <g style="fill:#262626;" transform="translate(349.100871011 397.575625)scale(0.1 -0.1)">
       <use xlink:href="#ArialMT-31"/>
       <use x="55.615234375" xlink:href="#ArialMT-30"/>
      </g>
     </g>
    </g>
    <g id="xtick_19">
     <g id="line2d_139">
      <g>
       <use style="fill:#262626;stroke:#262626;" x="398.615515293" xlink:href="#me1deecec79" y="377.4178125"/>
      </g>
     </g>
     <g id="text_40">
      <!-- 15 -->
      <g style="fill:#262626;" transform="translate(393.799109043 397.575625)scale(0.1 -0.1)">
       <use xlink:href="#ArialMT-31"/>
       <use x="55.615234375" xlink:href="#ArialMT-35"/>
      </g>
     </g>
    </g>
    <g id="xtick_20">
     <g id="line2d_140">
      <g>
       <use style="fill:#262626;stroke:#262626;" x="443.352815824" xlink:href="#me1deecec79" y="377.4178125"/>
      </g>
     </g>
     <g id="text_41">
      <!-- 20 -->
      <g style="fill:#262626;" transform="translate(438.177815824 397.575625)scale(0.1 -0.1)">
       <use xlink:href="#ArialMT-32"/>
       <use x="55.615234375" xlink:href="#ArialMT-30"/>
      </g>
     </g>
    </g>
    <g id="text_42">
     <!-- Time -->
     <g style="fill:#262626;" transform="translate(362.35171875 412.43671875)scale(0.11 -0.11)">
      <use xlink:href="#ArialMT-54"/>
      <use x="57.333984375" xlink:href="#ArialMT-69"/>
      <use x="79.55078125" xlink:href="#ArialMT-6d"/>
      <use x="162.8515625" xlink:href="#ArialMT-65"/>
     </g>
    </g>
   </g>
   <g id="matplotlib.axis_10">
    <g id="ytick_29">
     <g id="line2d_141">
      <g>
       <use style="fill:#262626;stroke:#262626;" x="268.87734375" xlink:href="#m4aded61697" y="374.132171245"/>
      </g>
     </g>
    </g>
    <g id="ytick_30">
     <g id="line2d_142">
      <g>
       <use style="fill:#262626;stroke:#262626;" x="268.87734375" xlink:href="#m4aded61697" y="348.94325154"/>
      </g>
     </g>
    </g>
    <g id="ytick_31">
     <g id="line2d_143">
      <g>
       <use style="fill:#262626;stroke:#262626;" x="268.87734375" xlink:href="#m4aded61697" y="323.754331834"/>
      </g>
     </g>
    </g>
    <g id="ytick_32">
     <g id="line2d_144">
      <g>
       <use style="fill:#262626;stroke:#262626;" x="268.87734375" xlink:href="#m4aded61697" y="298.565412129"/>
      </g>
     </g>
    </g>
    <g id="ytick_33">
     <g id="line2d_145">
      <g>
       <use style="fill:#262626;stroke:#262626;" x="268.87734375" xlink:href="#m4aded61697" y="273.376492424"/>
      </g>
     </g>
    </g>
    <g id="ytick_34">
     <g id="line2d_146">
      <g>
       <use style="fill:#262626;stroke:#262626;" x="268.87734375" xlink:href="#m4aded61697" y="248.187572718"/>
      </g>
     </g>
    </g>
    <g id="ytick_35"/>
   </g>
   <g id="line2d_147">
    <path clip-path="url(#p0f8cce36b6)" d="
M268.877 315.319
L273.351 298.353
L291.246 265.658
L318.088 270.62
L371.773 315.922
L479.143 325.521" style="fill:none;stroke:#d9544d;stroke-linecap:round;"/>
   </g>
   <g id="line2d_148">
    <path clip-path="url(#p0f8cce36b6)" d="
M268.877 305.838
L273.351 283.666
L291.246 262.207
L318.088 292.315
L371.773 335.403
L479.143 311.964" style="fill:none;stroke:#d9544d;stroke-linecap:round;"/>
   </g>
   <g id="line2d_149">
    <path clip-path="url(#p0f8cce36b6)" d="
M268.877 303.903
L273.351 279.908
L291.246 269.983
L318.088 282.082
L371.773 328.913
L479.143 326.604" style="fill:none;stroke:#d9544d;stroke-linecap:round;"/>
   </g>
   <g id="line2d_150">
    <path clip-path="url(#p0f8cce36b6)" d="
M268.877 309.968
L273.351 302.098
L291.246 266.055
L318.088 269.622
L371.773 326.988
L479.143 316.661" style="fill:none;stroke:#d9544d;stroke-linecap:round;"/>
   </g>
   <g id="line2d_151">
    <path clip-path="url(#p0f8cce36b6)" d="
M268.877 315.157
L273.351 304.431
L291.246 264.262
L318.088 270.027
L371.773 324.054
L479.143 313.462" style="fill:none;stroke:#d9544d;stroke-linecap:round;"/>
   </g>
   <g id="line2d_152">
    <path clip-path="url(#p0f8cce36b6)" d="
M268.877 311.524
L273.351 297.845
L291.246 265.067
L318.088 271.704
L371.773 321.507
L479.143 323.744" style="fill:none;stroke:#d9544d;stroke-linecap:round;"/>
   </g>
   <g id="line2d_153">
    <path clip-path="url(#p0f8cce36b6)" d="
M268.877 322.988
L273.351 301.964
L291.246 265.005
L318.088 269.634
L371.773 315.895
L479.143 315.907" style="fill:none;stroke:#d9544d;stroke-linecap:round;"/>
   </g>
   <g id="line2d_154">
    <path clip-path="url(#p0f8cce36b6)" d="
M268.877 309.411
L273.351 296.676
L291.246 265.163
L318.088 272.977
L371.773 327.389
L479.143 319.776" style="fill:none;stroke:#d9544d;stroke-linecap:round;"/>
   </g>
   <g id="line2d_155">
    <path clip-path="url(#p0f8cce36b6)" d="
M268.877 317.559
L273.351 315.816
L291.246 257.43
L318.088 277.3
L371.773 315.363
L479.143 307.924" style="fill:none;stroke:#d9544d;stroke-linecap:round;"/>
   </g>
   <g id="line2d_156">
    <path clip-path="url(#p0f8cce36b6)" d="
M268.877 332.413
L273.351 298.992
L291.246 269.833
L318.088 271.196
L371.773 299.143
L479.143 319.816" style="fill:none;stroke:#d9544d;stroke-linecap:round;"/>
   </g>
   <g id="line2d_157">
    <path clip-path="url(#p0f8cce36b6)" d="
M268.877 296.728
L273.351 287.748
L291.246 266.33
L318.088 284.989
L371.773 320.073
L479.143 335.524" style="fill:none;stroke:#d9544d;stroke-linecap:round;"/>
   </g>
   <g id="line2d_158">
    <path clip-path="url(#p0f8cce36b6)" d="
M268.877 329.974
L273.351 315.459
L291.246 272.006
L318.088 268.056
L371.773 313.576
L479.143 292.322" style="fill:none;stroke:#d9544d;stroke-linecap:round;"/>
   </g>
   <g id="line2d_159">
    <path clip-path="url(#p0f8cce36b6)" d="
M268.877 324.988
L273.351 302.442
L291.246 263.745
L318.088 271.813
L371.773 318.787
L479.143 309.617" style="fill:none;stroke:#d9544d;stroke-linecap:round;"/>
   </g>
   <g id="line2d_160">
    <path clip-path="url(#p0f8cce36b6)" d="
M268.877 323.941
L273.351 300.348
L291.246 263.133
L318.088 272.518
L371.773 316.815
L479.143 314.638" style="fill:none;stroke:#d9544d;stroke-linecap:round;"/>
   </g>
   <g id="line2d_161">
    <path clip-path="url(#p0f8cce36b6)" d="
M268.877 302.337
L273.351 290.904
L291.246 266.81
L318.088 277.251
L371.773 324.352
L479.143 329.739" style="fill:none;stroke:#d9544d;stroke-linecap:round;"/>
   </g>
   <g id="line2d_162">
    <path clip-path="url(#p0f8cce36b6)" d="
M268.877 308.722
L273.351 294.63
L291.246 265.462
L318.088 276.723
L371.773 310.808
L479.143 335.047" style="fill:none;stroke:#d9544d;stroke-linecap:round;"/>
   </g>
   <g id="line2d_163">
    <path clip-path="url(#p0f8cce36b6)" d="
M268.877 331.533
L273.351 313.177
L291.246 265.192
L318.088 272.893
L371.773 300.21
L479.143 308.388" style="fill:none;stroke:#d9544d;stroke-linecap:round;"/>
   </g>
   <g id="line2d_164">
    <path clip-path="url(#p0f8cce36b6)" d="
M268.877 310.51
L273.351 298.517
L291.246 259.539
L318.088 279.923
L371.773 328.92
L479.143 313.984" style="fill:none;stroke:#d9544d;stroke-linecap:round;"/>
   </g>
   <g id="line2d_165">
    <path clip-path="url(#p0f8cce36b6)" d="
M268.877 310.649
L273.351 297.372
L291.246 257.444
L318.088 282.598
L371.773 324.094
L479.143 319.236" style="fill:none;stroke:#d9544d;stroke-linecap:round;"/>
   </g>
   <g id="line2d_166">
    <path clip-path="url(#p0f8cce36b6)" d="
M268.877 327.904
L273.351 307.519
L291.246 259.25
L318.088 279.521
L371.773 300.796
L479.143 316.402" style="fill:none;stroke:#d9544d;stroke-linecap:round;"/>
   </g>
   <g id="line2d_167">
    <path clip-path="url(#p0f8cce36b6)" d="
M268.877 332.255
L273.351 302.416
L291.246 266.1
L318.088 272.507
L371.773 303.165
L479.143 314.949" style="fill:none;stroke:#d9544d;stroke-linecap:round;"/>
   </g>
   <g id="line2d_168">
    <path clip-path="url(#p0f8cce36b6)" d="
M268.877 308.169
L273.351 291.553
L291.246 261.125
L318.088 282.133
L371.773 328.913
L479.143 319.499" style="fill:none;stroke:#d9544d;stroke-linecap:round;"/>
   </g>
   <g id="line2d_169">
    <path clip-path="url(#p0f8cce36b6)" d="
M268.877 319.351
L273.351 321.246
L291.246 273.061
L318.088 262.234
L371.773 301.161
L479.143 314.338" style="fill:none;stroke:#d9544d;stroke-linecap:round;"/>
   </g>
   <g id="line2d_170">
    <path clip-path="url(#p0f8cce36b6)" d="
M268.877 326.845
L273.351 312.852
L291.246 259.889
L318.088 281.172
L371.773 317.128
L479.143 293.506" style="fill:none;stroke:#d9544d;stroke-linecap:round;"/>
   </g>
   <g id="patch_15">
    <path d="
M268.877 377.418
L268.877 223.309" style="fill:none;stroke:#262626;stroke-linecap:square;stroke-linejoin:miter;stroke-width:1.25;"/>
   </g>
   <g id="patch_16">
    <path d="
M268.877 377.418
L479.143 377.418" style="fill:none;stroke:#262626;stroke-linecap:square;stroke-linejoin:miter;stroke-width:1.25;"/>
   </g>
   <g id="text_43">
    <!-- Shoot Cold -->
    <g style="fill:#262626;" transform="translate(344.758125 218.309375)scale(0.12 -0.12)">
     <use xlink:href="#ArialMT-53"/>
     <use x="66.69921875" xlink:href="#ArialMT-68"/>
     <use x="122.314453125" xlink:href="#ArialMT-6f"/>
     <use x="177.9296875" xlink:href="#ArialMT-6f"/>
     <use x="233.544921875" xlink:href="#ArialMT-74"/>
     <use x="261.328125" xlink:href="#ArialMT-20"/>
     <use x="289.111328125" xlink:href="#ArialMT-43"/>
     <use x="361.328125" xlink:href="#ArialMT-6f"/>
     <use x="416.943359375" xlink:href="#ArialMT-6c"/>
     <use x="439.16015625" xlink:href="#ArialMT-64"/>
    </g>
   </g>
  </g>
  <g id="axes_6">
   <g id="patch_17">
    <path d="
M492.103 377.418
L702.368 377.418
L702.368 223.309
L492.103 223.309
z
" style="fill:#ffffff;"/>
   </g>
   <g id="matplotlib.axis_11">
    <g id="xtick_21">
     <g id="line2d_171">
      <g>
       <use style="fill:#262626;stroke:#262626;" x="534.15571875" xlink:href="#me1deecec79" y="377.4178125"/>
      </g>
     </g>
     <g id="text_44">
      <!-- 5 -->
      <g style="fill:#262626;" transform="translate(531.7830625 397.575625)scale(0.1 -0.1)">
       <use xlink:href="#ArialMT-35"/>
      </g>
     </g>
    </g>
    <g id="xtick_22">
     <g id="line2d_172">
      <g>
       <use style="fill:#262626;stroke:#262626;" x="578.422100329" xlink:href="#me1deecec79" y="377.4178125"/>
      </g>
     </g>
     <g id="text_45">
      <!-- 10 -->
      <g style="fill:#262626;" transform="translate(573.644756579 397.575625)scale(0.1 -0.1)">
       <use xlink:href="#ArialMT-31"/>
       <use x="55.615234375" xlink:href="#ArialMT-30"/>
      </g>
     </g>
    </g>
    <g id="xtick_23">
     <g id="line2d_173">
      <g>
       <use style="fill:#262626;stroke:#262626;" x="622.688481908" xlink:href="#me1deecec79" y="377.4178125"/>
      </g>
     </g>
     <g id="text_46">
      <!-- 15 -->
      <g style="fill:#262626;" transform="translate(617.872075658 397.575625)scale(0.1 -0.1)">
       <use xlink:href="#ArialMT-31"/>
       <use x="55.615234375" xlink:href="#ArialMT-35"/>
      </g>
     </g>
    </g>
    <g id="xtick_24">
     <g id="line2d_174">
      <g>
       <use style="fill:#262626;stroke:#262626;" x="666.954863487" xlink:href="#me1deecec79" y="377.4178125"/>
      </g>
     </g>
     <g id="text_47">
      <!-- 20 -->
      <g style="fill:#262626;" transform="translate(661.779863487 397.575625)scale(0.1 -0.1)">
       <use xlink:href="#ArialMT-32"/>
       <use x="55.615234375" xlink:href="#ArialMT-30"/>
      </g>
     </g>
    </g>
    <g id="text_48">
     <!-- Time -->
     <g style="fill:#262626;" transform="translate(585.57703125 412.43671875)scale(0.11 -0.11)">
      <use xlink:href="#ArialMT-54"/>
      <use x="57.333984375" xlink:href="#ArialMT-69"/>
      <use x="79.55078125" xlink:href="#ArialMT-6d"/>
      <use x="162.8515625" xlink:href="#ArialMT-65"/>
     </g>
    </g>
   </g>
   <g id="matplotlib.axis_12">
    <g id="ytick_36">
     <g id="line2d_175">
      <g>
       <use style="fill:#262626;stroke:#262626;" x="492.10265625" xlink:href="#m4aded61697" y="374.132171245"/>
      </g>
     </g>
    </g>
    <g id="ytick_37">
     <g id="line2d_176">
      <g>
       <use style="fill:#262626;stroke:#262626;" x="492.10265625" xlink:href="#m4aded61697" y="348.94325154"/>
      </g>
     </g>
    </g>
    <g id="ytick_38">
     <g id="line2d_177">
      <g>
       <use style="fill:#262626;stroke:#262626;" x="492.10265625" xlink:href="#m4aded61697" y="323.754331834"/>
      </g>
     </g>
    </g>
    <g id="ytick_39">
     <g id="line2d_178">
      <g>
       <use style="fill:#262626;stroke:#262626;" x="492.10265625" xlink:href="#m4aded61697" y="298.565412129"/>
      </g>
     </g>
    </g>
    <g id="ytick_40">
     <g id="line2d_179">
      <g>
       <use style="fill:#262626;stroke:#262626;" x="492.10265625" xlink:href="#m4aded61697" y="273.376492424"/>
      </g>
     </g>
    </g>
    <g id="ytick_41">
     <g id="line2d_180">
      <g>
       <use style="fill:#262626;stroke:#262626;" x="492.10265625" xlink:href="#m4aded61697" y="248.187572718"/>
      </g>
     </g>
    </g>
    <g id="ytick_42"/>
   </g>
   <g id="line2d_181">
    <path clip-path="url(#pec1cc1f6bd)" d="
M492.103 263.45
L494.316 269.376
L498.743 300.03
L516.449 302.291
L543.009 305.829
L596.129 336.915
L702.368 312.068" style="fill:none;stroke:#03012d;stroke-linecap:round;"/>
   </g>
   <g id="line2d_182">
    <path clip-path="url(#pec1cc1f6bd)" d="
M492.103 269.657
L494.316 281.987
L498.743 296.202
L516.449 276.499
L543.009 304.256
L596.129 338.058
L702.368 323.299" style="fill:none;stroke:#03012d;stroke-linecap:round;"/>
   </g>
   <g id="line2d_183">
    <path clip-path="url(#pec1cc1f6bd)" d="
M492.103 267.67
L494.316 277.445
L498.743 297.449
L516.449 280.468
L543.009 306.3
L596.129 331.271
L702.368 329.356" style="fill:none;stroke:#03012d;stroke-linecap:round;"/>
   </g>
   <g id="line2d_184">
    <path clip-path="url(#pec1cc1f6bd)" d="
M492.103 266.126
L494.316 273.199
L498.743 285.021
L516.449 301.558
L543.009 311.801
L596.129 336.717
L702.368 315.535" style="fill:none;stroke:#03012d;stroke-linecap:round;"/>
   </g>
   <g id="line2d_185">
    <path clip-path="url(#pec1cc1f6bd)" d="
M492.103 287.919
L494.316 268.776
L498.743 285.209
L516.449 281.556
L543.009 301.291
L596.129 335.239
L702.368 329.967" style="fill:none;stroke:#03012d;stroke-linecap:round;"/>
   </g>
   <g id="line2d_186">
    <path clip-path="url(#pec1cc1f6bd)" d="
M492.103 281.245
L494.316 287.865
L498.743 284.642
L516.449 274.388
L543.009 292.837
L596.129 334.647
L702.368 334.332" style="fill:none;stroke:#03012d;stroke-linecap:round;"/>
   </g>
   <g id="line2d_187">
    <path clip-path="url(#pec1cc1f6bd)" d="
M492.103 285.423
L494.316 275.265
L498.743 264.544
L516.449 293.597
L543.009 321.069
L596.129 324.058
L702.368 326.002" style="fill:none;stroke:#03012d;stroke-linecap:round;"/>
   </g>
   <g id="line2d_188">
    <path clip-path="url(#pec1cc1f6bd)" d="
M492.103 275.518
L494.316 269.925
L498.743 276.291
L516.449 303.04
L543.009 321.033
L596.129 334.902
L702.368 309.248" style="fill:none;stroke:#03012d;stroke-linecap:round;"/>
   </g>
   <g id="line2d_189">
    <path clip-path="url(#pec1cc1f6bd)" d="
M492.103 279.234
L494.316 284.585
L498.743 298.426
L516.449 264.291
L543.009 302.755
L596.129 334.01
L702.368 326.656" style="fill:none;stroke:#03012d;stroke-linecap:round;"/>
   </g>
   <g id="line2d_190">
    <path clip-path="url(#pec1cc1f6bd)" d="
M492.103 270.844
L494.316 272.217
L498.743 290.866
L516.449 292.581
L543.009 299.304
L596.129 330.827
L702.368 333.319" style="fill:none;stroke:#03012d;stroke-linecap:round;"/>
   </g>
   <g id="line2d_191">
    <path clip-path="url(#pec1cc1f6bd)" d="
M492.103 284.407
L494.316 289.635
L498.743 272.852
L516.449 280.455
L543.009 294.616
L596.129 331.63
L702.368 336.363" style="fill:none;stroke:#03012d;stroke-linecap:round;"/>
   </g>
   <g id="line2d_192">
    <path clip-path="url(#pec1cc1f6bd)" d="
M492.103 282.551
L494.316 288.685
L498.743 271.448
L516.449 283.571
L543.009 296.602
L596.129 329.033
L702.368 338.068" style="fill:none;stroke:#03012d;stroke-linecap:round;"/>
   </g>
   <g id="line2d_193">
    <path clip-path="url(#pec1cc1f6bd)" d="
M492.103 304.351
L494.316 304.518
L498.743 275.306
L516.449 267.671
L543.009 279.722
L596.129 326.836
L702.368 331.553" style="fill:none;stroke:#03012d;stroke-linecap:round;"/>
   </g>
   <g id="line2d_194">
    <path clip-path="url(#pec1cc1f6bd)" d="
M492.103 271.496
L494.316 276.416
L498.743 279.142
L516.449 293.057
L543.009 308.229
L596.129 332.088
L702.368 329.53" style="fill:none;stroke:#03012d;stroke-linecap:round;"/>
   </g>
   <g id="line2d_195">
    <path clip-path="url(#pec1cc1f6bd)" d="
M492.103 270.748
L494.316 289.155
L498.743 288.207
L516.449 275.429
L543.009 301.953
L596.129 335.659
L702.368 328.807" style="fill:none;stroke:#03012d;stroke-linecap:round;"/>
   </g>
   <g id="line2d_196">
    <path clip-path="url(#pec1cc1f6bd)" d="
M492.103 278.336
L494.316 278.526
L498.743 276.501
L516.449 283.833
L543.009 309.846
L596.129 332.219
L702.368 330.696" style="fill:none;stroke:#03012d;stroke-linecap:round;"/>
   </g>
   <g id="line2d_197">
    <path clip-path="url(#pec1cc1f6bd)" d="
M492.103 299.279
L494.316 301.233
L498.743 314.866
L516.449 258.177
L543.009 271.423
L596.129 319.261
L702.368 325.718" style="fill:none;stroke:#03012d;stroke-linecap:round;"/>
   </g>
   <g id="line2d_198">
    <path clip-path="url(#pec1cc1f6bd)" d="
M492.103 277.718
L494.316 277.764
L498.743 269.986
L516.449 291.874
L543.009 316.769
L596.129 331.304
L702.368 324.543" style="fill:none;stroke:#03012d;stroke-linecap:round;"/>
   </g>
   <g id="line2d_199">
    <path clip-path="url(#pec1cc1f6bd)" d="
M492.103 264.759
L494.316 280.032
L498.743 280.896
L516.449 296.365
L543.009 309.783
L596.129 332.032
L702.368 326.09" style="fill:none;stroke:#03012d;stroke-linecap:round;"/>
   </g>
   <g id="line2d_200">
    <path clip-path="url(#pec1cc1f6bd)" d="
M492.103 267.844
L494.316 264.951
L498.743 297.024
L516.449 301.529
L543.009 316.617
L596.129 334.958
L702.368 307.035" style="fill:none;stroke:#03012d;stroke-linecap:round;"/>
   </g>
   <g id="line2d_201">
    <path clip-path="url(#pec1cc1f6bd)" d="
M492.103 277.893
L494.316 281.777
L498.743 285.813
L516.449 287.302
L543.009 287.065
L596.129 337.613
L702.368 332.495" style="fill:none;stroke:#03012d;stroke-linecap:round;"/>
   </g>
   <g id="line2d_202">
    <path clip-path="url(#pec1cc1f6bd)" d="
M492.103 264.864
L494.316 271.697
L498.743 284.921
L516.449 302.921
L543.009 321.756
L596.129 329.557
L702.368 314.242" style="fill:none;stroke:#03012d;stroke-linecap:round;"/>
   </g>
   <g id="line2d_203">
    <path clip-path="url(#pec1cc1f6bd)" d="
M492.103 284.945
L494.316 281.626
L498.743 263.122
L516.449 294.099
L543.009 306.184
L596.129 333.533
L702.368 326.449" style="fill:none;stroke:#03012d;stroke-linecap:round;"/>
   </g>
   <g id="line2d_204">
    <path clip-path="url(#pec1cc1f6bd)" d="
M492.103 270.465
L494.316 278.127
L498.743 273.411
L516.449 299.753
L543.009 310.827
L596.129 328.281
L702.368 329.094" style="fill:none;stroke:#03012d;stroke-linecap:round;"/>
   </g>
   <g id="patch_18">
    <path d="
M492.103 377.418
L492.103 223.309" style="fill:none;stroke:#262626;stroke-linecap:square;stroke-linejoin:miter;stroke-width:1.25;"/>
   </g>
   <g id="patch_19">
    <path d="
M492.103 377.418
L702.368 377.418" style="fill:none;stroke:#262626;stroke-linecap:square;stroke-linejoin:miter;stroke-width:1.25;"/>
   </g>
   <g id="text_49">
    <!-- Shoot Uv -->
    <defs>
     <path d="
M54.6875 71.5781
L64.1562 71.5781
L64.1562 30.2188
Q64.1562 19.4375 61.7188 13.0781
Q59.2812 6.73438 52.9062 2.75
Q46.5312 -1.21875 36.1875 -1.21875
Q26.125 -1.21875 19.7188 2.25
Q13.3281 5.71875 10.5938 12.2812
Q7.85938 18.8438 7.85938 30.2188
L7.85938 71.5781
L17.3281 71.5781
L17.3281 30.2812
Q17.3281 20.9531 19.0625 16.5312
Q20.7969 12.1094 25.0156 9.71875
Q29.25 7.32812 35.3594 7.32812
Q45.7969 7.32812 50.2344 12.0625
Q54.6875 16.7969 54.6875 30.2812
z
" id="ArialMT-55"/>
     <path d="
M21 0
L1.26562 51.8594
L10.5469 51.8594
L21.6875 20.7969
Q23.4844 15.7656 25 10.3594
Q26.1719 14.4531 28.2656 20.2188
L39.7969 51.8594
L48.8281 51.8594
L29.2031 0
z
" id="ArialMT-76"/>
    </defs>
    <g style="fill:#262626;" transform="translate(572.626875 218.309375)scale(0.12 -0.12)">
     <use xlink:href="#ArialMT-53"/>
     <use x="66.69921875" xlink:href="#ArialMT-68"/>
     <use x="122.314453125" xlink:href="#ArialMT-6f"/>
     <use x="177.9296875" xlink:href="#ArialMT-6f"/>
     <use x="233.544921875" xlink:href="#ArialMT-74"/>
     <use x="261.328125" xlink:href="#ArialMT-20"/>
     <use x="289.111328125" xlink:href="#ArialMT-55"/>
     <use x="361.328125" xlink:href="#ArialMT-76"/>
    </g>
   </g>
  </g>
 </g>
 <defs>
  <clipPath id="pfa74778fd5">
   <rect height="154.1084375" width="210.2653125" x="268.87734375" y="20.789375"/>
  </clipPath>
  <clipPath id="p535c278d1c">
   <rect height="154.1084375" width="210.2653125" x="45.65203125" y="20.789375"/>
  </clipPath>
  <clipPath id="pec1cc1f6bd">
   <rect height="154.1084375" width="210.2653125" x="492.10265625" y="223.309375"/>
  </clipPath>
  <clipPath id="pe504f82b41">
   <rect height="154.1084375" width="210.2653125" x="45.65203125" y="223.309375"/>
  </clipPath>
  <clipPath id="p0f8cce36b6">
   <rect height="154.1084375" width="210.2653125" x="268.87734375" y="223.309375"/>
  </clipPath>
  <clipPath id="p248ba3fe9e">
   <rect height="154.1084375" width="210.2653125" x="492.10265625" y="20.789375"/>
  </clipPath>
 </defs>
</svg>
