<?xml version="1.0" encoding="utf-8" standalone="no"?>
<!DOCTYPE svg PUBLIC "-//W3C//DTD SVG 1.1//EN"
  "http://www.w3.org/Graphics/SVG/1.1/DTD/svg11.dtd">
<!-- Created with matplotlib (http://matplotlib.org/) -->
<svg height="421pt" version="1.1" viewBox="0 0 709 421" width="709pt" xmlns="http://www.w3.org/2000/svg" xmlns:xlink="http://www.w3.org/1999/xlink">
 <defs>
  <style type="text/css">
*{stroke-linecap:butt;stroke-linejoin:round;}
  </style>
 </defs>
 <g id="figure_1">
  <g id="patch_1">
   <path d="
M0 421.823
L709.495 421.823
L709.495 0
L0 0
z
" style="fill:#ffffff;"/>
  </g>
  <g id="axes_1">
   <g id="patch_2">
    <path d="
M45.5786 174.898
L255.844 174.898
L255.844 20.7894
L45.5786 20.7894
z
" style="fill:#ffffff;"/>
   </g>
   <g id="matplotlib.axis_1">
    <g id="xtick_1">
     <g id="line2d_1">
      <defs>
       <path d="
M0 0
L0 6" id="me1deecec79" style="stroke:#262626;"/>
      </defs>
      <g>
       <use style="fill:#262626;stroke:#262626;" x="82.1464741848" xlink:href="#me1deecec79" y="174.8978125"/>
      </g>
     </g>
     <g id="text_1">
      <!-- 10 -->
      <defs>
       <path d="
M4.15625 35.2969
Q4.15625 48 6.76562 55.7344
Q9.375 63.4844 14.5156 67.6719
Q19.6719 71.875 27.4844 71.875
Q33.25 71.875 37.5938 69.5469
Q41.9375 67.2344 44.7656 62.8594
Q47.6094 58.5 49.2188 52.2188
Q50.8281 45.9531 50.8281 35.2969
Q50.8281 22.7031 48.2344 14.9688
Q45.6562 7.23438 40.5 3
Q35.3594 -1.21875 27.4844 -1.21875
Q17.1406 -1.21875 11.2344 6.20312
Q4.15625 15.1406 4.15625 35.2969
M13.1875 35.2969
Q13.1875 17.6719 17.3125 11.8281
Q21.4375 6 27.4844 6
Q33.5469 6 37.6719 11.8594
Q41.7969 17.7188 41.7969 35.2969
Q41.7969 52.9844 37.6719 58.7812
Q33.5469 64.5938 27.3906 64.5938
Q21.3438 64.5938 17.7188 59.4688
Q13.1875 52.9375 13.1875 35.2969" id="ArialMT-30"/>
       <path d="
M37.25 0
L28.4688 0
L28.4688 56
Q25.2969 52.9844 20.1406 49.9531
Q14.9844 46.9219 10.8906 45.4062
L10.8906 53.9062
Q18.2656 57.375 23.7812 62.2969
Q29.2969 67.2344 31.5938 71.875
L37.25 71.875
z
" id="ArialMT-31"/>
      </defs>
      <g style="fill:#262626;" transform="translate(77.3691304348 195.055625)scale(0.1 -0.1)">
       <use xlink:href="#ArialMT-31"/>
       <use x="55.615234375" xlink:href="#ArialMT-30"/>
      </g>
     </g>
    </g>
    <g id="xtick_2">
     <g id="line2d_2">
      <g>
       <use style="fill:#262626;stroke:#262626;" x="127.856324728" xlink:href="#me1deecec79" y="174.8978125"/>
      </g>
     </g>
     <g id="text_2">
      <!-- 20 -->
      <defs>
       <path d="
M50.3438 8.45312
L50.3438 0
L3.03125 0
Q2.9375 3.17188 4.04688 6.10938
Q5.85938 10.9375 9.82812 15.625
Q13.8125 20.3125 21.3438 26.4688
Q33.0156 36.0312 37.1094 41.625
Q41.2188 47.2188 41.2188 52.2031
Q41.2188 57.4219 37.4688 61
Q33.7344 64.5938 27.7344 64.5938
Q21.3906 64.5938 17.5781 60.7812
Q13.7656 56.9844 13.7188 50.25
L4.6875 51.1719
Q5.60938 61.2812 11.6562 66.5781
Q17.7188 71.875 27.9375 71.875
Q38.2344 71.875 44.2344 66.1562
Q50.25 60.4531 50.25 52
Q50.25 47.7031 48.4844 43.5469
Q46.7344 39.4062 42.6562 34.8125
Q38.5781 30.2188 29.1094 22.2188
Q21.1875 15.5781 18.9375 13.2031
Q16.7031 10.8438 15.2344 8.45312
z
" id="ArialMT-32"/>
      </defs>
      <g style="fill:#262626;" transform="translate(122.681324728 195.055625)scale(0.1 -0.1)">
       <use xlink:href="#ArialMT-32"/>
       <use x="55.615234375" xlink:href="#ArialMT-30"/>
      </g>
     </g>
    </g>
    <g id="xtick_3">
     <g id="line2d_3">
      <g>
       <use style="fill:#262626;stroke:#262626;" x="173.566175272" xlink:href="#me1deecec79" y="174.8978125"/>
      </g>
     </g>
     <g id="text_3">
      <!-- 30 -->
      <defs>
       <path d="
M4.20312 18.8906
L12.9844 20.0625
Q14.5 12.5938 18.1406 9.29688
Q21.7812 6 27 6
Q33.2031 6 37.4688 10.2969
Q41.75 14.5938 41.75 20.9531
Q41.75 27 37.7969 30.9219
Q33.8438 34.8594 27.7344 34.8594
Q25.25 34.8594 21.5312 33.8906
L22.5156 41.6094
Q23.3906 41.5 23.9219 41.5
Q29.5469 41.5 34.0312 44.4219
Q38.5312 47.3594 38.5312 53.4688
Q38.5312 58.2969 35.25 61.4688
Q31.9844 64.6562 26.8125 64.6562
Q21.6875 64.6562 18.2656 61.4219
Q14.8438 58.2031 13.875 51.7656
L5.07812 53.3281
Q6.6875 62.1562 12.3906 67.0156
Q18.1094 71.875 26.6094 71.875
Q32.4688 71.875 37.3906 69.3594
Q42.3281 66.8438 44.9375 62.5
Q47.5625 58.1562 47.5625 53.2656
Q47.5625 48.6406 45.0625 44.8281
Q42.5781 41.0156 37.7031 38.7656
Q44.0469 37.3125 47.5625 32.6875
Q51.0781 28.0781 51.0781 21.1406
Q51.0781 11.7656 44.2344 5.25
Q37.4062 -1.26562 26.9531 -1.26562
Q17.5312 -1.26562 11.2969 4.34375
Q5.07812 9.96875 4.20312 18.8906" id="ArialMT-33"/>
      </defs>
      <g style="fill:#262626;" transform="translate(168.454456522 195.055625)scale(0.1 -0.1)">
       <use xlink:href="#ArialMT-33"/>
       <use x="55.615234375" xlink:href="#ArialMT-30"/>
      </g>
     </g>
    </g>
    <g id="xtick_4">
     <g id="line2d_4">
      <g>
       <use style="fill:#262626;stroke:#262626;" x="219.276025815" xlink:href="#me1deecec79" y="174.8978125"/>
      </g>
     </g>
     <g id="text_4">
      <!-- 40 -->
      <defs>
       <path d="
M32.3281 0
L32.3281 17.1406
L1.26562 17.1406
L1.26562 25.2031
L33.9375 71.5781
L41.1094 71.5781
L41.1094 25.2031
L50.7812 25.2031
L50.7812 17.1406
L41.1094 17.1406
L41.1094 0
z

M32.3281 25.2031
L32.3281 57.4688
L9.90625 25.2031
z
" id="ArialMT-34"/>
      </defs>
      <g style="fill:#262626;" transform="translate(214.017432065 195.055625)scale(0.1 -0.1)">
       <use xlink:href="#ArialMT-34"/>
       <use x="55.615234375" xlink:href="#ArialMT-30"/>
      </g>
     </g>
    </g>
   </g>
   <g id="matplotlib.axis_2">
    <g id="ytick_1">
     <g id="line2d_5">
      <defs>
       <path d="
M0 0
L-6 0" id="m4aded61697" style="stroke:#262626;"/>
      </defs>
      <g>
       <use style="fill:#262626;stroke:#262626;" x="45.57859375" xlink:href="#m4aded61697" y="161.846596798"/>
      </g>
     </g>
     <g id="text_5">
      <!-- −2 -->
      <defs>
       <path d="
M52.8281 31.2031
L5.5625 31.2031
L5.5625 39.4062
L52.8281 39.4062
z
" id="ArialMT-2212"/>
      </defs>
      <g style="fill:#262626;" transform="translate(22.25984375 164.431753048)scale(0.1 -0.1)">
       <use xlink:href="#ArialMT-2212"/>
       <use x="58.3984375" xlink:href="#ArialMT-32"/>
      </g>
     </g>
    </g>
    <g id="ytick_2">
     <g id="line2d_6">
      <g>
       <use style="fill:#262626;stroke:#262626;" x="45.57859375" xlink:href="#m4aded61697" y="128.803144927"/>
      </g>
     </g>
     <g id="text_6">
      <!-- −1 -->
      <g style="fill:#262626;" transform="translate(23.56921875 131.388301177)scale(0.1 -0.1)">
       <use xlink:href="#ArialMT-2212"/>
       <use x="58.3984375" xlink:href="#ArialMT-31"/>
      </g>
     </g>
    </g>
    <g id="ytick_3">
     <g id="line2d_7">
      <g>
       <use style="fill:#262626;stroke:#262626;" x="45.57859375" xlink:href="#m4aded61697" y="95.7596930552"/>
      </g>
     </g>
     <g id="text_7">
      <!-- 0 -->
      <g style="fill:#262626;" transform="translate(27.91140625 98.3448493052)scale(0.1 -0.1)">
       <use xlink:href="#ArialMT-30"/>
      </g>
     </g>
    </g>
    <g id="ytick_4">
     <g id="line2d_8">
      <g>
       <use style="fill:#262626;stroke:#262626;" x="45.57859375" xlink:href="#m4aded61697" y="62.7162411836"/>
      </g>
     </g>
     <g id="text_8">
      <!-- 1 -->
      <g style="fill:#262626;" transform="translate(29.94265625 65.3013974336)scale(0.1 -0.1)">
       <use xlink:href="#ArialMT-31"/>
      </g>
     </g>
    </g>
    <g id="ytick_5">
     <g id="line2d_9">
      <g>
       <use style="fill:#262626;stroke:#262626;" x="45.57859375" xlink:href="#m4aded61697" y="29.6727893121"/>
      </g>
     </g>
     <g id="text_9">
      <!-- 2 -->
      <g style="fill:#262626;" transform="translate(27.83796875 32.2579455621)scale(0.1 -0.1)">
       <use xlink:href="#ArialMT-32"/>
      </g>
     </g>
    </g>
    <g id="text_10">
     <!-- Expression -->
     <defs>
      <path d="
M7.90625 0
L7.90625 71.5781
L59.6719 71.5781
L59.6719 63.1406
L17.3906 63.1406
L17.3906 41.2188
L56.9844 41.2188
L56.9844 32.8125
L17.3906 32.8125
L17.3906 8.45312
L61.3281 8.45312
L61.3281 0
z
" id="ArialMT-45"/>
      <path d="
M6.59375 -19.875
L6.59375 51.8594
L14.5938 51.8594
L14.5938 45.125
Q17.4375 49.0781 21 51.0469
Q24.5625 53.0312 29.6406 53.0312
Q36.2812 53.0312 41.3594 49.6094
Q46.4375 46.1875 49.0156 39.9531
Q51.6094 33.7344 51.6094 26.3125
Q51.6094 18.3594 48.75 11.9844
Q45.9062 5.60938 40.4531 2.21875
Q35.0156 -1.17188 29 -1.17188
Q24.6094 -1.17188 21.1094 0.6875
Q17.625 2.54688 15.375 5.375
L15.375 -19.875
z

M14.5469 25.6406
Q14.5469 15.625 18.5938 10.8438
Q22.6562 6.0625 28.4219 6.0625
Q34.2812 6.0625 38.4531 11.0156
Q42.625 15.9688 42.625 26.375
Q42.625 36.2812 38.5469 41.2031
Q34.4688 46.1406 28.8125 46.1406
Q23.1875 46.1406 18.8594 40.8906
Q14.5469 35.6406 14.5469 25.6406" id="ArialMT-70"/>
      <path d="
M3.32812 25.9219
Q3.32812 40.3281 11.3281 47.2656
Q18.0156 53.0312 27.6406 53.0312
Q38.3281 53.0312 45.1094 46.0156
Q51.9062 39.0156 51.9062 26.6562
Q51.9062 16.6562 48.9062 10.9062
Q45.9062 5.17188 40.1562 2
Q34.4219 -1.17188 27.6406 -1.17188
Q16.75 -1.17188 10.0312 5.8125
Q3.32812 12.7969 3.32812 25.9219
M12.3594 25.9219
Q12.3594 15.9688 16.7031 11.0156
Q21.0469 6.0625 27.6406 6.0625
Q34.1875 6.0625 38.5312 11.0312
Q42.875 16.0156 42.875 26.2188
Q42.875 35.8438 38.5 40.7969
Q34.125 45.75 27.6406 45.75
Q21.0469 45.75 16.7031 40.8125
Q12.3594 35.8906 12.3594 25.9219" id="ArialMT-6f"/>
      <path d="
M0.734375 0
L19.6719 26.9531
L2.15625 51.8594
L13.1406 51.8594
L21.0938 39.7031
Q23.3438 36.2344 24.7031 33.8906
Q26.8594 37.1094 28.6562 39.5938
L37.4062 51.8594
L47.9062 51.8594
L29.9844 27.4375
L49.2656 0
L38.4844 0
L27.8281 16.1094
L25 20.4531
L11.375 0
z
" id="ArialMT-78"/>
      <path d="
M6.64062 61.4688
L6.64062 71.5781
L15.4375 71.5781
L15.4375 61.4688
z

M6.64062 0
L6.64062 51.8594
L15.4375 51.8594
L15.4375 0
z
" id="ArialMT-69"/>
      <path d="
M3.07812 15.4844
L11.7656 16.8438
Q12.5 11.625 15.8438 8.84375
Q19.1875 6.0625 25.2031 6.0625
Q31.25 6.0625 34.1719 8.51562
Q37.1094 10.9844 37.1094 14.3125
Q37.1094 17.2812 34.5156 19
Q32.7188 20.1719 25.5312 21.9688
Q15.875 24.4219 12.1406 26.2031
Q8.40625 27.9844 6.46875 31.125
Q4.54688 34.2812 4.54688 38.0938
Q4.54688 41.5469 6.125 44.5
Q7.71875 47.4688 10.4531 49.4219
Q12.5 50.9219 16.0312 51.9688
Q19.5781 53.0312 23.6406 53.0312
Q29.7344 53.0312 34.3438 51.2656
Q38.9688 49.5156 41.1562 46.5
Q43.3594 43.5 44.1875 38.4844
L35.5938 37.3125
Q35.0156 41.3125 32.2031 43.5469
Q29.3906 45.7969 24.2656 45.7969
Q18.2188 45.7969 15.625 43.7969
Q13.0312 41.7969 13.0312 39.1094
Q13.0312 37.4062 14.1094 36.0312
Q15.1875 34.625 17.4844 33.6875
Q18.7969 33.2031 25.25 31.4531
Q34.5781 28.9531 38.25 27.3594
Q41.9375 25.7812 44.0312 22.75
Q46.1406 19.7344 46.1406 15.2344
Q46.1406 10.8438 43.5781 6.95312
Q41.0156 3.07812 36.1719 0.953125
Q31.3438 -1.17188 25.25 -1.17188
Q15.1406 -1.17188 9.84375 3.03125
Q4.54688 7.23438 3.07812 15.4844" id="ArialMT-73"/>
      <path d="
M6.59375 0
L6.59375 51.8594
L14.5 51.8594
L14.5 44.4844
Q20.2188 53.0312 31 53.0312
Q35.6875 53.0312 39.625 51.3438
Q43.5625 49.6562 45.5156 46.9219
Q47.4688 44.1875 48.25 40.4375
Q48.7344 37.9844 48.7344 31.8906
L48.7344 0
L39.9375 0
L39.9375 31.5469
Q39.9375 36.9219 38.9062 39.5781
Q37.8906 42.2344 35.2812 43.8125
Q32.6719 45.4062 29.1562 45.4062
Q23.5312 45.4062 19.4531 41.8438
Q15.375 38.2812 15.375 28.3281
L15.375 0
z
" id="ArialMT-6e"/>
      <path d="
M6.5 0
L6.5 51.8594
L14.4062 51.8594
L14.4062 44
Q17.4375 49.5156 20 51.2656
Q22.5625 53.0312 25.6406 53.0312
Q30.0781 53.0312 34.6719 50.2031
L31.6406 42.0469
Q28.4219 43.9531 25.2031 43.9531
Q22.3125 43.9531 20.0156 42.2188
Q17.7188 40.4844 16.75 37.4062
Q15.2812 32.7188 15.2812 27.1562
L15.2812 0
z
" id="ArialMT-72"/>
      <path d="
M42.0938 16.7031
L51.1719 15.5781
Q49.0312 7.625 43.2188 3.21875
Q37.4062 -1.17188 28.375 -1.17188
Q17 -1.17188 10.3281 5.82812
Q3.65625 12.8438 3.65625 25.4844
Q3.65625 38.5781 10.3906 45.7969
Q17.1406 53.0312 27.875 53.0312
Q38.2812 53.0312 44.875 45.9531
Q51.4688 38.875 51.4688 26.0312
Q51.4688 25.25 51.4219 23.6875
L12.75 23.6875
Q13.2344 15.1406 17.5781 10.5938
Q21.9219 6.0625 28.4219 6.0625
Q33.25 6.0625 36.6719 8.59375
Q40.0938 11.1406 42.0938 16.7031
M13.2344 30.9062
L42.1875 30.9062
Q41.6094 37.4531 38.875 40.7188
Q34.6719 45.7969 27.9844 45.7969
Q21.9219 45.7969 17.7969 41.75
Q13.6719 37.7031 13.2344 30.9062" id="ArialMT-65"/>
     </defs>
     <g style="fill:#262626;" transform="translate(15.07359375 124.23671875)rotate(-90.0)scale(0.11 -0.11)">
      <use xlink:href="#ArialMT-45"/>
      <use x="66.69921875" xlink:href="#ArialMT-78"/>
      <use x="116.69921875" xlink:href="#ArialMT-70"/>
      <use x="172.314453125" xlink:href="#ArialMT-72"/>
      <use x="205.615234375" xlink:href="#ArialMT-65"/>
      <use x="261.23046875" xlink:href="#ArialMT-73"/>
      <use x="311.23046875" xlink:href="#ArialMT-73"/>
      <use x="361.23046875" xlink:href="#ArialMT-69"/>
      <use x="383.447265625" xlink:href="#ArialMT-6f"/>
      <use x="439.0625" xlink:href="#ArialMT-6e"/>
     </g>
    </g>
   </g>
   <g id="line2d_10">
    <path clip-path="url(#pa691a7dfe0)" d="
M45.5786 123.471
L54.7206 132.116
L63.8625 141.054
L73.0045 146.023
L82.1465 144.654
L91.2884 136.166
L100.43 136.726
L109.572 129.276
L118.714 107.886
L127.856 114.813
L136.998 94.3873
L146.14 62.3346
L155.282 44.0641
L164.424 50.5777
L173.566 63.3244
L182.708 78.4036
L191.85 78.4147
L200.992 76.1439
L210.134 75.182
L219.276 67.6516
L228.418 68.1766
L237.56 82.2313
L246.702 74.3678
L255.844 70.7887" style="fill:none;stroke:#d9544d;stroke-linecap:round;"/>
   </g>
   <g id="line2d_11">
    <path clip-path="url(#pa691a7dfe0)" d="
M45.5786 135.049
L54.7206 134.292
L63.8625 131.416
L73.0045 130.523
L82.1465 129.671
L91.2884 127.451
L100.43 135.499
L109.572 144.819
L118.714 134.282
L127.856 122.467
L136.998 99.3951
L146.14 78.1582
L155.282 58.1331
L164.424 54.214
L173.566 61.6048
L182.708 61.8622
L191.85 64.9674
L200.992 72.9387
L210.134 66.2116
L219.276 64.3171
L228.418 71.8342
L237.56 77.8692
L246.702 71.0637
L255.844 70.1938" style="fill:none;stroke:#d9544d;stroke-linecap:round;"/>
   </g>
   <g id="line2d_12">
    <path clip-path="url(#pa691a7dfe0)" d="
M45.5786 132.716
L54.7206 137.434
L63.8625 129.007
L73.0045 117.102
L82.1465 130.835
L91.2884 132.756
L100.43 127.427
L109.572 119.337
L118.714 135.238
L127.856 127.274
L136.998 81.8561
L146.14 70.6838
L155.282 48.7671
L164.424 34.3465
L173.566 48.5821
L182.708 55.7648
L191.85 55.9149
L200.992 73.8185
L210.134 72.1666
L219.276 83.4394
L228.418 97.0575
L237.56 109.444
L246.702 93.372
L255.844 83.8936" style="fill:none;stroke:#d9544d;stroke-linecap:round;"/>
   </g>
   <g id="line2d_13">
    <path clip-path="url(#pa691a7dfe0)" d="
M45.5786 99.3271
L54.7206 105.321
L63.8625 118.701
L73.0045 129.774
L82.1465 128.154
L91.2884 136.249
L100.43 142.074
L109.572 144.62
L118.714 145.131
L127.856 135.013
L136.998 108.446
L146.14 83.1971
L155.282 62.5058
L164.424 57.6929
L173.566 65.6045
L182.708 76.2693
L191.85 86.3966
L200.992 91.1729
L210.134 90.1335
L219.276 76.5022
L228.418 59.427
L237.56 63.3555
L246.702 57.6593
L255.844 35.5074" style="fill:none;stroke:#d9544d;stroke-linecap:round;"/>
   </g>
   <g id="line2d_14">
    <path clip-path="url(#pa691a7dfe0)" d="
M45.5786 114.23
L54.7206 122.126
L63.8625 127.494
L73.0045 127.871
L82.1465 127.576
L91.2884 135.524
L100.43 150.641
L109.572 152.344
L118.714 139.907
L127.856 116.332
L136.998 90.6693
L146.14 87.8088
L155.282 57.1859
L164.424 50.4932
L173.566 71.6668
L182.708 76.0973
L191.85 69.5969
L200.992 67.3175
L210.134 67.3948
L219.276 64.9865
L228.418 70.9981
L237.56 84.1357
L246.702 70.5163
L255.844 55.3205" style="fill:none;stroke:#d9544d;stroke-linecap:round;"/>
   </g>
   <g id="line2d_15">
    <path clip-path="url(#pa691a7dfe0)" d="
M45.5786 135.22
L54.7206 137.781
L63.8625 137.536
L73.0045 133
L82.1465 137.712
L91.2884 133.707
L100.43 127.357
L109.572 128.374
L118.714 128.565
L127.856 115.977
L136.998 96.7633
L146.14 88.4782
L155.282 68.6523
L164.424 50.4977
L173.566 49.3269
L182.708 49.4356
L191.85 55.2045
L200.992 69.933
L210.134 72.2121
L219.276 75.2741
L228.418 80.3614
L237.56 79.7187
L246.702 75.415
L255.844 71.7309" style="fill:none;stroke:#d9544d;stroke-linecap:round;"/>
   </g>
   <g id="line2d_16">
    <path clip-path="url(#pa691a7dfe0)" d="
M45.5786 144.915
L54.7206 141.073
L63.8625 140.688
L73.0045 138.245
L82.1465 135.758
L91.2884 130.518
L100.43 132.663
L109.572 132.177
L118.714 119.661
L127.856 105.653
L136.998 80.3734
L146.14 70.1542
L155.282 52.679
L164.424 50.8523
L173.566 59.409
L182.708 69.1753
L191.85 69.0445
L200.992 75.0602
L210.134 73.8978
L219.276 71.3413
L228.418 74.9266
L237.56 85.4008
L246.702 71.3554
L255.844 73.2126" style="fill:none;stroke:#d9544d;stroke-linecap:round;"/>
   </g>
   <g id="line2d_17">
    <path clip-path="url(#pa691a7dfe0)" d="
M45.5786 125.079
L54.7206 131.643
L63.8625 137.67
L73.0045 141.286
L82.1465 133.394
L91.2884 126.492
L100.43 134.988
L109.572 140.979
L118.714 127.936
L127.856 116.416
L136.998 100.048
L146.14 83.0815
L155.282 62.5951
L164.424 70.4291
L173.566 82.4744
L182.708 88.0592
L191.85 76.5055
L200.992 58.5267
L210.134 55.6988
L219.276 56.963
L228.418 61.064
L237.56 72.1041
L246.702 57.0429
L255.844 57.7566" style="fill:none;stroke:#d9544d;stroke-linecap:round;"/>
   </g>
   <g id="line2d_18">
    <path clip-path="url(#pa691a7dfe0)" d="
M45.5786 138.532
L54.7206 132.155
L63.8625 132.759
L73.0045 136.295
L82.1465 138.531
L91.2884 138.547
L100.43 134.35
L109.572 129.173
L118.714 115.82
L127.856 106.996
L136.998 90.6453
L146.14 79.0781
L155.282 50.0983
L164.424 47.2118
L173.566 51.6133
L182.708 48.7432
L191.85 60.9078
L200.992 70.5035
L210.134 67.6105
L219.276 77.4457
L228.418 87.5665
L237.56 90.7704
L246.702 85.9314
L255.844 86.9479" style="fill:none;stroke:#d9544d;stroke-linecap:round;"/>
   </g>
   <g id="line2d_19">
    <path clip-path="url(#pa691a7dfe0)" d="
M45.5786 112.817
L54.7206 115.363
L63.8625 128.638
L73.0045 138.11
L82.1465 144.694
L91.2884 144.709
L100.43 139.451
L109.572 138.215
L118.714 138.554
L127.856 122.219
L136.998 91.7389
L146.14 82.9357
L155.282 69.7882
L164.424 61.1183
L173.566 69.9772
L182.708 72.3885
L191.85 69.5435
L200.992 71.0255
L210.134 68.1614
L219.276 67.5265
L228.418 68.8388
L237.56 63.8063
L246.702 60.4653
L255.844 58.1501" style="fill:none;stroke:#d9544d;stroke-linecap:round;"/>
   </g>
   <g id="line2d_20">
    <path clip-path="url(#pa691a7dfe0)" d="
M45.5786 119.108
L54.7206 119.713
L63.8625 128.384
L73.0045 130.591
L82.1465 124.039
L91.2884 121.769
L100.43 126.36
L109.572 135.403
L118.714 145.654
L127.856 143.994
L136.998 111.278
L146.14 66.9617
L155.282 35.5274
L164.424 47.9396
L173.566 70.3939
L182.708 66.4467
L191.85 63.2063
L200.992 70.6161
L210.134 67.8498
L219.276 65.4057
L228.418 90.5507
L237.56 99.3546
L246.702 78.0928
L255.844 69.5957" style="fill:none;stroke:#d9544d;stroke-linecap:round;"/>
   </g>
   <g id="line2d_21">
    <path clip-path="url(#pa691a7dfe0)" d="
M45.5786 68.9123
L54.7206 94.027
L63.8625 108.064
L73.0045 127.407
L82.1465 127.148
L91.2884 129.709
L100.43 126.859
L109.572 129.031
L118.714 136.45
L127.856 169.19
L136.998 138.24
L146.14 74.2658
L155.282 38.443
L164.424 53.1682
L173.566 64.6969
L182.708 77.4174
L191.85 69.931
L200.992 58.3927
L210.134 77.1578
L219.276 71.641
L228.418 84.6288
L237.56 90.4914
L246.702 83.4176
L255.844 99.543" style="fill:none;stroke:#d9544d;stroke-linecap:round;"/>
   </g>
   <g id="line2d_22">
    <path clip-path="url(#pa691a7dfe0)" d="
M45.5786 115.763
L54.7206 124.366
L63.8625 132.336
L73.0045 133.626
L82.1465 136.97
L91.2884 139.91
L100.43 142.573
L109.572 139.317
L118.714 133.992
L127.856 124.282
L136.998 98.0152
L146.14 75.7369
L155.282 59.8805
L164.424 57.2147
L173.566 58.5315
L182.708 55.8942
L191.85 60.6534
L200.992 74.67
L210.134 72.7755
L219.276 71.7879
L228.418 73.9641
L237.56 71.4907
L246.702 70.388
L255.844 74.0962" style="fill:none;stroke:#d9544d;stroke-linecap:round;"/>
   </g>
   <g id="line2d_23">
    <path clip-path="url(#pa691a7dfe0)" d="
M45.5786 162.331
L54.7206 145.696
L63.8625 129.348
L73.0045 136.115
L82.1465 140.902
L91.2884 135.906
L100.43 128.137
L109.572 123.071
L118.714 110.135
L127.856 92.3489
L136.998 78.7916
L146.14 87.696
L155.282 61.8121
L164.424 51.1521
L173.566 64.2849
L182.708 61.1288
L191.85 66.8277
L200.992 79.3969
L210.134 73.6797
L219.276 69.037
L228.418 68.3747
L237.56 75.2612
L246.702 76.9204
L255.844 79.8792" style="fill:none;stroke:#d9544d;stroke-linecap:round;"/>
   </g>
   <g id="line2d_24">
    <path clip-path="url(#pa691a7dfe0)" d="
M45.5786 115.718
L54.7206 121.954
L63.8625 126.627
L73.0045 130.524
L82.1465 131.039
L91.2884 133.755
L100.43 136.711
L109.572 141.753
L118.714 140.78
L127.856 133.047
L136.998 111.888
L146.14 82.8044
L155.282 56.1356
L164.424 51.4022
L173.566 62.3693
L182.708 66.5643
L191.85 59.4246
L200.992 61.9197
L210.134 62.2413
L219.276 66.5677
L228.418 77.6153
L237.56 82.6614
L246.702 72.2504
L255.844 72.4805" style="fill:none;stroke:#d9544d;stroke-linecap:round;"/>
   </g>
   <g id="line2d_25">
    <path clip-path="url(#pa691a7dfe0)" d="
M45.5786 109.669
L54.7206 108.494
L63.8625 112.864
L73.0045 124.559
L82.1465 131.493
L91.2884 130.164
L100.43 140.809
L109.572 150.077
L118.714 141.943
L127.856 122.19
L136.998 101.877
L146.14 75.8973
L155.282 40.8259
L164.424 32.5231
L173.566 47.4879
L182.708 50.4266
L191.85 68.489
L200.992 85.7417
L210.134 89.0482
L219.276 90.329
L228.418 89.5753
L237.56 95.1359
L246.702 83.2503
L255.844 75.3626" style="fill:none;stroke:#d9544d;stroke-linecap:round;"/>
   </g>
   <g id="line2d_26">
    <path clip-path="url(#pa691a7dfe0)" d="
M45.5786 90.6325
L54.7206 102.486
L63.8625 109.641
L73.0045 112.651
L82.1465 123.955
L91.2884 136.859
L100.43 135.468
L109.572 141.861
L118.714 151.178
L127.856 126.755
L136.998 94.7934
L146.14 74.299
L155.282 40.7863
L164.424 36.7137
L173.566 44.7385
L182.708 47.3199
L191.85 61.2601
L200.992 80.6625
L210.134 88.6464
L219.276 100.688
L228.418 113.807
L237.56 111.524
L246.702 94.6531
L255.844 76.8557" style="fill:none;stroke:#d9544d;stroke-linecap:round;"/>
   </g>
   <g id="line2d_27">
    <path clip-path="url(#pa691a7dfe0)" d="
M45.5786 124.354
L54.7206 130.064
L63.8625 136.308
L73.0045 140.815
L82.1465 141.174
L91.2884 138.233
L100.43 136.737
L109.572 132.951
L118.714 120.379
L127.856 106.359
L136.998 93.1303
L146.14 85.7338
L155.282 60.701
L164.424 51.6313
L173.566 49.6775
L182.708 47.0035
L191.85 57.9641
L200.992 69.7545
L210.134 67.0119
L219.276 73.5983
L228.418 81.9944
L237.56 85.1332
L246.702 83.6936
L255.844 83.8311" style="fill:none;stroke:#d9544d;stroke-linecap:round;"/>
   </g>
   <g id="line2d_28">
    <path clip-path="url(#pa691a7dfe0)" d="
M45.5786 78.3788
L54.7206 82.5181
L63.8625 87.3587
L73.0045 101.238
L82.1465 115.761
L91.2884 130.702
L100.43 137.994
L109.572 151.9
L118.714 163.789
L127.856 152.496
L136.998 115.225
L146.14 76.7612
L155.282 48.8664
L164.424 47.8413
L173.566 52.4437
L182.708 58.4932
L191.85 64.848
L200.992 76.9096
L210.134 81.6744
L219.276 89.7784
L228.418 101.011
L237.56 98.9633
L246.702 94.3623
L255.844 88.9208" style="fill:none;stroke:#d9544d;stroke-linecap:round;"/>
   </g>
   <g id="line2d_29">
    <path clip-path="url(#pa691a7dfe0)" d="
M45.5786 138.759
L54.7206 138.329
L63.8625 136.297
L73.0045 133.808
L82.1465 139.527
L91.2884 144.103
L100.43 136.537
L109.572 128.184
L118.714 116.337
L127.856 100.729
L136.998 96.8356
L146.14 91.7203
L155.282 69.9577
L164.424 61.3795
L173.566 61.0635
L182.708 52.5049
L191.85 58.2656
L200.992 72.6961
L210.134 73.7054
L219.276 74.2048
L228.418 71.8046
L237.56 61.4181
L246.702 65.5291
L255.844 74.5389" style="fill:none;stroke:#d9544d;stroke-linecap:round;"/>
   </g>
   <g id="line2d_30">
    <path clip-path="url(#pa691a7dfe0)" d="
M45.5786 102.295
L54.7206 114.863
L63.8625 129.093
L73.0045 133.761
L82.1465 139.487
L91.2884 139.588
L100.43 135.109
L109.572 130.064
L118.714 136.269
L127.856 133.735
L136.998 122.129
L146.14 99.2478
L155.282 79.5349
L164.424 67.9001
L173.566 64.6081
L182.708 65.3292
L191.85 71.3614
L200.992 74.4382
L210.134 64.7975
L219.276 63.9757
L228.418 61.9629
L237.56 56.416
L246.702 53.2861
L255.844 58.982" style="fill:none;stroke:#d9544d;stroke-linecap:round;"/>
   </g>
   <g id="line2d_31">
    <path clip-path="url(#pa691a7dfe0)" d="
M45.5786 95.0702
L54.7206 103.057
L63.8625 117.814
L73.0045 130.434
L82.1465 144.397
L91.2884 151.035
L100.43 147.81
L109.572 144.007
L118.714 140.73
L127.856 126.04
L136.998 99.9784
L146.14 86.6951
L155.282 67.7975
L164.424 57.3238
L173.566 64.7602
L182.708 72.107
L191.85 73.007
L200.992 73.7054
L210.134 65.4777
L219.276 65.9356
L228.418 71.2145
L237.56 75.0089
L246.702 66.0509
L255.844 58.7782" style="fill:none;stroke:#d9544d;stroke-linecap:round;"/>
   </g>
   <g id="line2d_32">
    <path clip-path="url(#pa691a7dfe0)" d="
M45.5786 116.02
L54.7206 112.275
L63.8625 117.711
L73.0045 122.606
L82.1465 125.202
L91.2884 137.695
L100.43 141.992
L109.572 148.686
L118.714 142.426
L127.856 128.646
L136.998 97.1397
L146.14 79.2269
L155.282 51.752
L164.424 46.1394
L173.566 56.4355
L182.708 47.561
L191.85 53.1626
L200.992 74.2107
L210.134 68.4494
L219.276 75.5379
L228.418 95.3222
L237.56 97.3135
L246.702 83.5312
L255.844 79.1916" style="fill:none;stroke:#d9544d;stroke-linecap:round;"/>
   </g>
   <g id="line2d_33">
    <path clip-path="url(#pa691a7dfe0)" d="
M45.5786 84.532
L54.7206 103.658
L63.8625 122.492
L73.0045 124.173
L82.1465 119.469
L91.2884 129.276
L100.43 142.777
L109.572 150.108
L118.714 142.194
L127.856 119.679
L136.998 92.1692
L146.14 59.8841
L155.282 33.6637
L164.424 31.5501
L173.566 57.1176
L182.708 62.1726
L191.85 64.267
L200.992 79.3048
L210.134 95.1432
L219.276 101.002
L228.418 96.0894
L237.56 109.069
L246.702 102.851
L255.844 75.5938" style="fill:none;stroke:#d9544d;stroke-linecap:round;"/>
   </g>
   <g id="line2d_34">
    <path clip-path="url(#pa691a7dfe0)" d="
M45.5786 138.178
L54.7206 132.729
L63.8625 135.54
L73.0045 136.062
L82.1465 140.278
L91.2884 137.623
L100.43 135.089
L109.572 136.05
L118.714 124.267
L127.856 108.487
L136.998 96.0317
L146.14 81.9928
L155.282 63.7874
L164.424 58.7397
L173.566 59.6762
L182.708 60.0265
L191.85 67.2752
L200.992 73.3184
L210.134 65.0682
L219.276 68.1195
L228.418 72.2085
L237.56 69.8759
L246.702 66.4322
L255.844 71.3799" style="fill:none;stroke:#d9544d;stroke-linecap:round;"/>
   </g>
   <g id="line2d_35">
    <path clip-path="url(#pa691a7dfe0)" d="
M45.5786 106.163
L54.7206 122.877
L63.8625 123.94
L73.0045 123.078
L82.1465 133.671
L91.2884 138.904
L100.43 144.976
L109.572 152.693
L118.714 140.125
L127.856 109.168
L136.998 94.4707
L146.14 80.0673
L155.282 51.679
L164.424 46.4786
L173.566 49.0007
L182.708 50.1061
L191.85 61.3701
L200.992 77.2214
L210.134 75.9676
L219.276 80.3052
L228.418 81.5264
L237.56 82.4059
L246.702 85.4284
L255.844 86.6093" style="fill:none;stroke:#d9544d;stroke-linecap:round;"/>
   </g>
   <g id="patch_3">
    <path d="
M45.5786 174.898
L45.5786 20.7894" style="fill:none;stroke:#262626;stroke-linecap:square;stroke-linejoin:miter;stroke-width:1.25;"/>
   </g>
   <g id="patch_4">
    <path d="
M45.5786 174.898
L255.844 174.898" style="fill:none;stroke:#262626;stroke-linecap:square;stroke-linejoin:miter;stroke-width:1.25;"/>
   </g>
   <g id="text_11">
    <!-- Botrytis -->
    <defs>
     <path d="
M7.32812 0
L7.32812 71.5781
L34.1875 71.5781
Q42.3906 71.5781 47.3438 69.4062
Q52.2969 67.2344 55.0938 62.7188
Q57.9062 58.2031 57.9062 53.2656
Q57.9062 48.6875 55.4219 44.625
Q52.9375 40.5781 47.9062 38.0938
Q54.3906 36.1875 57.875 31.5938
Q61.375 27 61.375 20.75
Q61.375 15.7188 59.25 11.3906
Q57.125 7.07812 54 4.73438
Q50.875 2.39062 46.1562 1.1875
Q41.4531 0 34.625 0
z

M16.7969 41.5
L32.2812 41.5
Q38.5781 41.5 41.3125 42.3281
Q44.9219 43.4062 46.75 45.8906
Q48.5781 48.3906 48.5781 52.1562
Q48.5781 55.7188 46.875 58.4219
Q45.1719 61.1406 41.9844 62.1406
Q38.8125 63.1406 31.1094 63.1406
L16.7969 63.1406
z

M16.7969 8.45312
L34.625 8.45312
Q39.2031 8.45312 41.0625 8.79688
Q44.3438 9.375 46.5312 10.7344
Q48.7344 12.1094 50.1406 14.7188
Q51.5625 17.3281 51.5625 20.75
Q51.5625 24.75 49.5156 27.7031
Q47.4688 30.6719 43.8281 31.8594
Q40.1875 33.0625 33.3438 33.0625
L16.7969 33.0625
z
" id="ArialMT-42"/>
     <path d="
M6.20312 -19.9688
L5.21875 -11.7188
Q8.10938 -12.5 10.25 -12.5
Q13.1875 -12.5 14.9375 -11.5156
Q16.7031 -10.5469 17.8281 -8.79688
Q18.6562 -7.46875 20.5156 -2.25
Q20.75 -1.51562 21.2969 -0.09375
L1.60938 51.8594
L11.0781 51.8594
L21.875 21.8281
Q23.9688 16.1094 25.6406 9.8125
Q27.1562 15.875 29.25 21.625
L40.3281 51.8594
L49.125 51.8594
L29.3906 -0.875
Q26.2188 -9.42188 24.4688 -12.6406
Q22.125 -17 19.0938 -19.0156
Q16.0625 -21.0469 11.8594 -21.0469
Q9.32812 -21.0469 6.20312 -19.9688" id="ArialMT-79"/>
     <path d="
M25.7812 7.85938
L27.0469 0.09375
Q23.3438 -0.6875 20.4062 -0.6875
Q15.625 -0.6875 12.9844 0.828125
Q10.3594 2.34375 9.28125 4.8125
Q8.20312 7.28125 8.20312 15.1875
L8.20312 45.0156
L1.76562 45.0156
L1.76562 51.8594
L8.20312 51.8594
L8.20312 64.7031
L16.9375 69.9688
L16.9375 51.8594
L25.7812 51.8594
L25.7812 45.0156
L16.9375 45.0156
L16.9375 14.7031
Q16.9375 10.9375 17.4062 9.85938
Q17.875 8.79688 18.9219 8.15625
Q19.9688 7.51562 21.9219 7.51562
Q23.3906 7.51562 25.7812 7.85938" id="ArialMT-74"/>
    </defs>
    <g style="fill:#262626;" transform="translate(131.3790625 15.789375)scale(0.12 -0.12)">
     <use xlink:href="#ArialMT-42"/>
     <use x="66.69921875" xlink:href="#ArialMT-6f"/>
     <use x="122.314453125" xlink:href="#ArialMT-74"/>
     <use x="150.09765625" xlink:href="#ArialMT-72"/>
     <use x="183.3984375" xlink:href="#ArialMT-79"/>
     <use x="233.3984375" xlink:href="#ArialMT-74"/>
     <use x="261.181640625" xlink:href="#ArialMT-69"/>
     <use x="283.3984375" xlink:href="#ArialMT-73"/>
    </g>
   </g>
  </g>
  <g id="axes_2">
   <g id="patch_5">
    <path d="
M268.804 174.898
L479.069 174.898
L479.069 20.7894
L268.804 20.7894
z
" style="fill:#ffffff;"/>
   </g>
   <g id="matplotlib.axis_3">
    <g id="xtick_5">
     <g id="line2d_36">
      <g>
       <use style="fill:#262626;stroke:#262626;" x="279.317171875" xlink:href="#me1deecec79" y="174.8978125"/>
      </g>
     </g>
     <g id="text_12">
      <!-- 20 -->
      <g style="fill:#262626;" transform="translate(274.142171875 195.055625)scale(0.1 -0.1)">
       <use xlink:href="#ArialMT-32"/>
       <use x="55.615234375" xlink:href="#ArialMT-30"/>
      </g>
     </g>
    </g>
    <g id="xtick_6">
     <g id="line2d_37">
      <g>
       <use style="fill:#262626;stroke:#262626;" x="331.8835" xlink:href="#me1deecec79" y="174.8978125"/>
      </g>
     </g>
     <g id="text_13">
      <!-- 25 -->
      <defs>
       <path d="
M4.15625 18.75
L13.375 19.5312
Q14.4062 12.7969 18.1406 9.39062
Q21.875 6 27.1562 6
Q33.5 6 37.8906 10.7812
Q42.2812 15.5781 42.2812 23.4844
Q42.2812 31 38.0625 35.3438
Q33.8438 39.7031 27 39.7031
Q22.75 39.7031 19.3281 37.7656
Q15.9219 35.8438 13.9688 32.7656
L5.71875 33.8438
L12.6406 70.6094
L48.25 70.6094
L48.25 62.2031
L19.6719 62.2031
L15.8281 42.9688
Q22.2656 47.4688 29.3438 47.4688
Q38.7188 47.4688 45.1562 40.9688
Q51.6094 34.4688 51.6094 24.2656
Q51.6094 14.5469 45.9531 7.46875
Q39.0625 -1.21875 27.1562 -1.21875
Q17.3906 -1.21875 11.2031 4.25
Q5.03125 9.71875 4.15625 18.75" id="ArialMT-35"/>
      </defs>
      <g style="fill:#262626;" transform="translate(326.6694375 195.055625)scale(0.1 -0.1)">
       <use xlink:href="#ArialMT-32"/>
       <use x="55.615234375" xlink:href="#ArialMT-35"/>
      </g>
     </g>
    </g>
    <g id="xtick_7">
     <g id="line2d_38">
      <g>
       <use style="fill:#262626;stroke:#262626;" x="384.449828125" xlink:href="#me1deecec79" y="174.8978125"/>
      </g>
     </g>
     <g id="text_14">
      <!-- 30 -->
      <g style="fill:#262626;" transform="translate(379.338109375 195.055625)scale(0.1 -0.1)">
       <use xlink:href="#ArialMT-33"/>
       <use x="55.615234375" xlink:href="#ArialMT-30"/>
      </g>
     </g>
    </g>
    <g id="xtick_8">
     <g id="line2d_39">
      <g>
       <use style="fill:#262626;stroke:#262626;" x="437.01615625" xlink:href="#me1deecec79" y="174.8978125"/>
      </g>
     </g>
     <g id="text_15">
      <!-- 35 -->
      <g style="fill:#262626;" transform="translate(431.865375 195.055625)scale(0.1 -0.1)">
       <use xlink:href="#ArialMT-33"/>
       <use x="55.615234375" xlink:href="#ArialMT-35"/>
      </g>
     </g>
    </g>
   </g>
   <g id="matplotlib.axis_4">
    <g id="ytick_6">
     <g id="line2d_40">
      <g>
       <use style="fill:#262626;stroke:#262626;" x="268.80390625" xlink:href="#m4aded61697" y="161.846596798"/>
      </g>
     </g>
    </g>
    <g id="ytick_7">
     <g id="line2d_41">
      <g>
       <use style="fill:#262626;stroke:#262626;" x="268.80390625" xlink:href="#m4aded61697" y="128.803144927"/>
      </g>
     </g>
    </g>
    <g id="ytick_8">
     <g id="line2d_42">
      <g>
       <use style="fill:#262626;stroke:#262626;" x="268.80390625" xlink:href="#m4aded61697" y="95.7596930552"/>
      </g>
     </g>
    </g>
    <g id="ytick_9">
     <g id="line2d_43">
      <g>
       <use style="fill:#262626;stroke:#262626;" x="268.80390625" xlink:href="#m4aded61697" y="62.7162411836"/>
      </g>
     </g>
    </g>
    <g id="ytick_10">
     <g id="line2d_44">
      <g>
       <use style="fill:#262626;stroke:#262626;" x="268.80390625" xlink:href="#m4aded61697" y="29.6727893121"/>
      </g>
     </g>
    </g>
   </g>
   <g id="line2d_45">
    <path clip-path="url(#pa61dcb5892)" d="
M268.804 119.734
L289.83 127.26
L310.857 125.065
L331.884 118.435
L352.91 121.377
L373.937 116.956
L394.963 96.7002
L415.99 77.0296
L437.016 63.679
L458.043 48.1853
L479.069 38.9356" style="fill:none;stroke:#03012d;stroke-linecap:round;"/>
   </g>
   <g id="line2d_46">
    <path clip-path="url(#pa61dcb5892)" d="
M268.804 120.444
L289.83 127.219
L310.857 117.111
L331.884 93.9611
L352.91 112.004
L373.937 127.149
L394.963 112.366
L415.99 96.3746
L437.016 70.2476
L458.043 44.058
L479.069 32.424" style="fill:none;stroke:#03012d;stroke-linecap:round;"/>
   </g>
   <g id="line2d_47">
    <path clip-path="url(#pa61dcb5892)" d="
M268.804 148.671
L289.83 133.33
L310.857 114.693
L331.884 100.928
L352.91 71.7898
L373.937 55.3557
L394.963 49.9197
L415.99 60.722
L437.016 88.2335
L458.043 114.447
L479.069 115.267" style="fill:none;stroke:#03012d;stroke-linecap:round;"/>
   </g>
   <g id="line2d_48">
    <path clip-path="url(#pa61dcb5892)" d="
M268.804 143.075
L289.83 143.928
L310.857 135.116
L331.884 114.808
L352.91 96.3879
L373.937 86.3624
L394.963 72.5109
L415.99 67.2091
L437.016 61.3342
L458.043 59.8283
L479.069 72.7952" style="fill:none;stroke:#03012d;stroke-linecap:round;"/>
   </g>
   <g id="line2d_49">
    <path clip-path="url(#pa61dcb5892)" d="
M268.804 129.095
L289.83 132.232
L310.857 118.661
L331.884 101.238
L352.91 119.748
L373.937 124.658
L394.963 98.2682
L415.99 74.0549
L437.016 62.124
L458.043 52.878
L479.069 40.4005" style="fill:none;stroke:#03012d;stroke-linecap:round;"/>
   </g>
   <g id="line2d_50">
    <path clip-path="url(#pa61dcb5892)" d="
M268.804 154.8
L289.83 144.44
L310.857 120.854
L331.884 103.638
L352.91 100.863
L373.937 93.7753
L394.963 78.151
L415.99 67.7819
L437.016 66.6512
L458.043 63.7348
L479.069 58.6686" style="fill:none;stroke:#03012d;stroke-linecap:round;"/>
   </g>
   <g id="line2d_51">
    <path clip-path="url(#pa61dcb5892)" d="
M268.804 125.256
L289.83 126.878
L310.857 124.56
L331.884 120.064
L352.91 123.687
L373.937 114.631
L394.963 89.3391
L415.99 72.4622
L437.016 63.2027
L458.043 51.8634
L479.069 41.4149" style="fill:none;stroke:#03012d;stroke-linecap:round;"/>
   </g>
   <g id="line2d_52">
    <path clip-path="url(#pa61dcb5892)" d="
M268.804 125.67
L289.83 123.207
L310.857 116.629
L331.884 105.39
L352.91 116.458
L373.937 124.955
L394.963 113.948
L415.99 82.4261
L437.016 58.7134
L458.043 45.1391
L479.069 40.8215" style="fill:none;stroke:#03012d;stroke-linecap:round;"/>
   </g>
   <g id="line2d_53">
    <path clip-path="url(#pa61dcb5892)" d="
M268.804 153.699
L289.83 147.753
L310.857 122.561
L331.884 98.293
L352.91 100.322
L373.937 93.7768
L394.963 69.5489
L415.99 61.1789
L437.016 67.3389
L458.043 73.5168
L479.069 65.3684" style="fill:none;stroke:#03012d;stroke-linecap:round;"/>
   </g>
   <g id="line2d_54">
    <path clip-path="url(#pa61dcb5892)" d="
M268.804 151.83
L289.83 139.698
L310.857 116.048
L331.884 97.9282
L352.91 98.5532
L373.937 100.987
L394.963 98.0627
L415.99 87.7249
L437.016 62.7424
L458.043 46.3656
L479.069 53.416" style="fill:none;stroke:#03012d;stroke-linecap:round;"/>
   </g>
   <g id="line2d_55">
    <path clip-path="url(#pa61dcb5892)" d="
M268.804 144.89
L289.83 135.397
L310.857 115.562
L331.884 98.334
L352.91 104.742
L373.937 113.478
L394.963 104.432
L415.99 79.6566
L437.016 61.6609
L458.043 49.1524
L479.069 46.0515" style="fill:none;stroke:#03012d;stroke-linecap:round;"/>
   </g>
   <g id="line2d_56">
    <path clip-path="url(#pa61dcb5892)" d="
M268.804 151.225
L289.83 140.811
L310.857 111.316
L331.884 87.5848
L352.91 102.72
L373.937 109.668
L394.963 103.633
L415.99 80.0564
L437.016 62.5823
L458.043 52.8443
L479.069 50.9164" style="fill:none;stroke:#03012d;stroke-linecap:round;"/>
   </g>
   <g id="line2d_57">
    <path clip-path="url(#pa61dcb5892)" d="
M268.804 109.484
L289.83 113.988
L310.857 102.777
L331.884 100.395
L352.91 122.082
L373.937 130.55
L394.963 119.549
L415.99 104.863
L437.016 79.5067
L458.043 43.6652
L479.069 26.4971" style="fill:none;stroke:#03012d;stroke-linecap:round;"/>
   </g>
   <g id="line2d_58">
    <path clip-path="url(#pa61dcb5892)" d="
M268.804 150.826
L289.83 148.853
L310.857 124.723
L331.884 97.7316
L352.91 92.624
L373.937 86.0904
L394.963 63.3945
L415.99 50.9947
L437.016 66.1017
L458.043 86.334
L479.069 85.6832" style="fill:none;stroke:#03012d;stroke-linecap:round;"/>
   </g>
   <g id="line2d_59">
    <path clip-path="url(#pa61dcb5892)" d="
M268.804 146.134
L289.83 141.913
L310.857 110.56
L331.884 89.8006
L352.91 107.872
L373.937 114.074
L394.963 99.4048
L415.99 78.6013
L437.016 66.1764
L458.043 53.5953
L479.069 45.226" style="fill:none;stroke:#03012d;stroke-linecap:round;"/>
   </g>
   <g id="line2d_60">
    <path clip-path="url(#pa61dcb5892)" d="
M268.804 139.219
L289.83 140.544
L310.857 129.143
L331.884 112.642
L352.91 108.627
L373.937 100.525
L394.963 80.5401
L415.99 70.6881
L437.016 64.0017
L458.043 57.7151
L479.069 49.7114" style="fill:none;stroke:#03012d;stroke-linecap:round;"/>
   </g>
   <g id="line2d_61">
    <path clip-path="url(#pa61dcb5892)" d="
M268.804 146.702
L289.83 144.129
L310.857 120.004
L331.884 91.2977
L352.91 99.6274
L373.937 108.052
L394.963 97.0041
L415.99 80.3175
L437.016 62.8773
L458.043 52.5958
L479.069 50.7501" style="fill:none;stroke:#03012d;stroke-linecap:round;"/>
   </g>
   <g id="line2d_62">
    <path clip-path="url(#pa61dcb5892)" d="
M268.804 134.476
L289.83 137.714
L310.857 132.631
L331.884 120.726
L352.91 111.741
L373.937 95.4289
L394.963 78.998
L415.99 68.0807
L437.016 63.3954
L458.043 58.0469
L479.069 52.119" style="fill:none;stroke:#03012d;stroke-linecap:round;"/>
   </g>
   <g id="line2d_63">
    <path clip-path="url(#pa61dcb5892)" d="
M268.804 142.498
L289.83 139.817
L310.857 122.096
L331.884 110.997
L352.91 109.161
L373.937 103.643
L394.963 87.6602
L415.99 70.4241
L437.016 63.1013
L458.043 54.9892
L479.069 48.9692" style="fill:none;stroke:#03012d;stroke-linecap:round;"/>
   </g>
   <g id="line2d_64">
    <path clip-path="url(#pa61dcb5892)" d="
M268.804 153.53
L289.83 142.591
L310.857 114.692
L331.884 91.8946
L352.91 100.332
L373.937 106.846
L394.963 94.0014
L415.99 78.2308
L437.016 63.9227
L458.043 52.6418
L479.069 54.6755" style="fill:none;stroke:#03012d;stroke-linecap:round;"/>
   </g>
   <g id="line2d_65">
    <path clip-path="url(#pa61dcb5892)" d="
M268.804 135.581
L289.83 136.807
L310.857 125.1
L331.884 111.557
L352.91 110.418
L373.937 106.844
L394.963 92.7972
L415.99 76.8413
L437.016 63.5561
L458.043 50.6069
L479.069 43.2486" style="fill:none;stroke:#03012d;stroke-linecap:round;"/>
   </g>
   <g id="line2d_66">
    <path clip-path="url(#pa61dcb5892)" d="
M268.804 161.336
L289.83 141.462
L310.857 114.531
L331.884 99.0739
L352.91 95.4775
L373.937 94.7192
L394.963 86.1086
L415.99 78.261
L437.016 68.8801
L458.043 56.303
L479.069 57.2042" style="fill:none;stroke:#03012d;stroke-linecap:round;"/>
   </g>
   <g id="line2d_67">
    <path clip-path="url(#pa61dcb5892)" d="
M268.804 140.721
L289.83 134.669
L310.857 123.747
L331.884 107.445
L352.91 113.699
L373.937 105.107
L394.963 83.3814
L415.99 85.0955
L437.016 68.3016
L458.043 45.2198
L479.069 45.9699" style="fill:none;stroke:#03012d;stroke-linecap:round;"/>
   </g>
   <g id="line2d_68">
    <path clip-path="url(#pa61dcb5892)" d="
M268.804 131.429
L289.83 132.883
L310.857 130.032
L331.884 122.488
L352.91 113.934
L373.937 105.959
L394.963 84.4017
L415.99 61.0878
L437.016 51.942
L458.043 53.325
L479.069 65.875" style="fill:none;stroke:#03012d;stroke-linecap:round;"/>
   </g>
   <g id="line2d_69">
    <path clip-path="url(#pa61dcb5892)" d="
M268.804 135.928
L289.83 135.766
L310.857 129.221
L331.884 113.714
L352.91 109.386
L373.937 104.465
L394.963 89.006
L415.99 76.0613
L437.016 62.8869
L458.043 50.9845
L479.069 45.9382" style="fill:none;stroke:#03012d;stroke-linecap:round;"/>
   </g>
   <g id="line2d_70">
    <path clip-path="url(#pa61dcb5892)" d="
M268.804 131.411
L289.83 136.017
L310.857 128.323
L331.884 112.175
L352.91 112.869
L373.937 109.749
L394.963 90.8672
L415.99 72.5562
L437.016 62.4668
L458.043 54.114
L479.069 42.8097" style="fill:none;stroke:#03012d;stroke-linecap:round;"/>
   </g>
   <g id="patch_6">
    <path d="
M268.804 174.898
L268.804 20.7894" style="fill:none;stroke:#262626;stroke-linecap:square;stroke-linejoin:miter;stroke-width:1.25;"/>
   </g>
   <g id="patch_7">
    <path d="
M268.804 174.898
L479.069 174.898" style="fill:none;stroke:#262626;stroke-linecap:square;stroke-linejoin:miter;stroke-width:1.25;"/>
   </g>
   <g id="text_16">
    <!-- Senescence -->
    <defs>
     <path d="
M4.5 23
L13.4219 23.7812
Q14.0625 18.4062 16.375 14.9688
Q18.7031 11.5312 23.5781 9.40625
Q28.4688 7.28125 34.5781 7.28125
Q39.9844 7.28125 44.1406 8.89062
Q48.2969 10.5 50.3125 13.2969
Q52.3438 16.1094 52.3438 19.4375
Q52.3438 22.7969 50.3906 25.3125
Q48.4375 27.8281 43.9531 29.5469
Q41.0625 30.6719 31.2031 33.0312
Q21.3438 35.4062 17.3906 37.5
Q12.25 40.1875 9.73438 44.1562
Q7.23438 48.1406 7.23438 53.0781
Q7.23438 58.5 10.2969 63.2031
Q13.375 67.9219 19.2812 70.3594
Q25.2031 72.7969 32.4219 72.7969
Q40.375 72.7969 46.4531 70.2344
Q52.5469 67.6719 55.8125 62.6875
Q59.0781 57.7188 59.3281 51.4219
L50.25 50.7344
Q49.5156 57.5156 45.2812 60.9844
Q41.0625 64.4531 32.8125 64.4531
Q24.2188 64.4531 20.2812 61.2969
Q16.3594 58.1562 16.3594 53.7188
Q16.3594 49.8594 19.1406 47.3594
Q21.875 44.875 33.4219 42.2656
Q44.9688 39.6562 49.2656 37.7031
Q55.5156 34.8125 58.4844 30.3906
Q61.4688 25.9844 61.4688 20.2188
Q61.4688 14.5 58.2031 9.4375
Q54.9375 4.39062 48.7969 1.57812
Q42.6719 -1.21875 35.0156 -1.21875
Q25.2969 -1.21875 18.7188 1.60938
Q12.1562 4.4375 8.42188 10.125
Q4.6875 15.8281 4.5 23" id="ArialMT-53"/>
     <path d="
M40.4375 19
L49.0781 17.875
Q47.6562 8.9375 41.8125 3.875
Q35.9844 -1.17188 27.4844 -1.17188
Q16.8438 -1.17188 10.375 5.78125
Q3.90625 12.75 3.90625 25.7344
Q3.90625 34.125 6.6875 40.4219
Q9.46875 46.7344 15.1562 49.875
Q20.8438 53.0312 27.5469 53.0312
Q35.9844 53.0312 41.3594 48.75
Q46.7344 44.4844 48.25 36.625
L39.7031 35.2969
Q38.4844 40.5312 35.375 43.1562
Q32.2812 45.7969 27.875 45.7969
Q21.2344 45.7969 17.0781 41.0312
Q12.9375 36.2812 12.9375 25.9844
Q12.9375 15.5312 16.9375 10.7969
Q20.9531 6.0625 27.3906 6.0625
Q32.5625 6.0625 36.0312 9.23438
Q39.5 12.4062 40.4375 19" id="ArialMT-63"/>
    </defs>
    <g style="fill:#262626;" transform="translate(341.4334375 15.789375)scale(0.12 -0.12)">
     <use xlink:href="#ArialMT-53"/>
     <use x="66.69921875" xlink:href="#ArialMT-65"/>
     <use x="122.314453125" xlink:href="#ArialMT-6e"/>
     <use x="177.9296875" xlink:href="#ArialMT-65"/>
     <use x="233.544921875" xlink:href="#ArialMT-73"/>
     <use x="283.544921875" xlink:href="#ArialMT-63"/>
     <use x="333.544921875" xlink:href="#ArialMT-65"/>
     <use x="389.16015625" xlink:href="#ArialMT-6e"/>
     <use x="444.775390625" xlink:href="#ArialMT-63"/>
     <use x="494.775390625" xlink:href="#ArialMT-65"/>
    </g>
   </g>
  </g>
  <g id="axes_3">
   <g id="patch_8">
    <path d="
M492.029 174.898
L702.295 174.898
L702.295 20.7894
L492.029 20.7894
z
" style="fill:#ffffff;"/>
   </g>
   <g id="matplotlib.axis_5">
    <g id="xtick_9">
     <g id="line2d_71">
      <g>
       <use style="fill:#262626;stroke:#262626;" x="532.292789229" xlink:href="#me1deecec79" y="174.8978125"/>
      </g>
     </g>
     <g id="text_17">
      <!-- 5 -->
      <g style="fill:#262626;" transform="translate(529.920132979 195.055625)scale(0.1 -0.1)">
       <use xlink:href="#ArialMT-35"/>
      </g>
     </g>
    </g>
    <g id="xtick_10">
     <g id="line2d_72">
      <g>
       <use style="fill:#262626;stroke:#262626;" x="577.030089761" xlink:href="#me1deecec79" y="174.8978125"/>
      </g>
     </g>
     <g id="text_18">
      <!-- 10 -->
      <g style="fill:#262626;" transform="translate(572.252746011 195.055625)scale(0.1 -0.1)">
       <use xlink:href="#ArialMT-31"/>
       <use x="55.615234375" xlink:href="#ArialMT-30"/>
      </g>
     </g>
    </g>
    <g id="xtick_11">
     <g id="line2d_73">
      <g>
       <use style="fill:#262626;stroke:#262626;" x="621.767390293" xlink:href="#me1deecec79" y="174.8978125"/>
      </g>
     </g>
     <g id="text_19">
      <!-- 15 -->
      <g style="fill:#262626;" transform="translate(616.950984043 195.055625)scale(0.1 -0.1)">
       <use xlink:href="#ArialMT-31"/>
       <use x="55.615234375" xlink:href="#ArialMT-35"/>
      </g>
     </g>
    </g>
    <g id="xtick_12">
     <g id="line2d_74">
      <g>
       <use style="fill:#262626;stroke:#262626;" x="666.504690824" xlink:href="#me1deecec79" y="174.8978125"/>
      </g>
     </g>
     <g id="text_20">
      <!-- 20 -->
      <g style="fill:#262626;" transform="translate(661.329690824 195.055625)scale(0.1 -0.1)">
       <use xlink:href="#ArialMT-32"/>
       <use x="55.615234375" xlink:href="#ArialMT-30"/>
      </g>
     </g>
    </g>
   </g>
   <g id="matplotlib.axis_6">
    <g id="ytick_11">
     <g id="line2d_75">
      <g>
       <use style="fill:#262626;stroke:#262626;" x="492.02921875" xlink:href="#m4aded61697" y="161.846596798"/>
      </g>
     </g>
    </g>
    <g id="ytick_12">
     <g id="line2d_76">
      <g>
       <use style="fill:#262626;stroke:#262626;" x="492.02921875" xlink:href="#m4aded61697" y="128.803144927"/>
      </g>
     </g>
    </g>
    <g id="ytick_13">
     <g id="line2d_77">
      <g>
       <use style="fill:#262626;stroke:#262626;" x="492.02921875" xlink:href="#m4aded61697" y="95.7596930552"/>
      </g>
     </g>
    </g>
    <g id="ytick_14">
     <g id="line2d_78">
      <g>
       <use style="fill:#262626;stroke:#262626;" x="492.02921875" xlink:href="#m4aded61697" y="62.7162411836"/>
      </g>
     </g>
    </g>
    <g id="ytick_15">
     <g id="line2d_79">
      <g>
       <use style="fill:#262626;stroke:#262626;" x="492.02921875" xlink:href="#m4aded61697" y="29.6727893121"/>
      </g>
     </g>
    </g>
   </g>
   <g id="line2d_80">
    <path clip-path="url(#p3aeff855be)" d="
M492.029 136.635
L496.503 136.724
L514.398 93.1892
L541.24 66.9668
L594.925 71.1846
L702.295 69.8583" style="fill:none;stroke:#d9544d;stroke-linecap:round;"/>
   </g>
   <g id="line2d_81">
    <path clip-path="url(#p3aeff855be)" d="
M492.029 143.148
L496.503 126.503
L514.398 91.1745
L541.24 83.5045
L594.925 75.5783
L702.295 54.6497" style="fill:none;stroke:#d9544d;stroke-linecap:round;"/>
   </g>
   <g id="line2d_82">
    <path clip-path="url(#p3aeff855be)" d="
M492.029 135.588
L496.503 132.954
L514.398 103.902
L541.24 67.7089
L594.925 68.8531
L702.295 65.5521" style="fill:none;stroke:#d9544d;stroke-linecap:round;"/>
   </g>
   <g id="line2d_83">
    <path clip-path="url(#p3aeff855be)" d="
M492.029 132.867
L496.503 127.198
L514.398 110.997
L541.24 81.6307
L594.925 71.8056
L702.295 50.0602" style="fill:none;stroke:#d9544d;stroke-linecap:round;"/>
   </g>
   <g id="line2d_84">
    <path clip-path="url(#p3aeff855be)" d="
M492.029 139.549
L496.503 129.611
L514.398 99.0174
L541.24 80.3991
L594.925 62.0425
L702.295 63.9394" style="fill:none;stroke:#d9544d;stroke-linecap:round;"/>
   </g>
   <g id="line2d_85">
    <path clip-path="url(#p3aeff855be)" d="
M492.029 148.212
L496.503 122.618
L514.398 76.404
L541.24 59.4383
L594.925 81.3391
L702.295 86.5469" style="fill:none;stroke:#d9544d;stroke-linecap:round;"/>
   </g>
   <g id="line2d_86">
    <path clip-path="url(#p3aeff855be)" d="
M492.029 148.152
L496.503 126.092
L514.398 82.9477
L541.24 72.4378
L594.925 71.8223
L702.295 73.1055" style="fill:none;stroke:#d9544d;stroke-linecap:round;"/>
   </g>
   <g id="line2d_87">
    <path clip-path="url(#p3aeff855be)" d="
M492.029 134.714
L496.503 129.5
L514.398 103.544
L541.24 87.8002
L594.925 64.4984
L702.295 54.501" style="fill:none;stroke:#d9544d;stroke-linecap:round;"/>
   </g>
   <g id="line2d_88">
    <path clip-path="url(#p3aeff855be)" d="
M492.029 135.671
L496.503 135.856
L514.398 94.5558
L541.24 69.314
L594.925 59.9051
L702.295 79.2564" style="fill:none;stroke:#d9544d;stroke-linecap:round;"/>
   </g>
   <g id="line2d_89">
    <path clip-path="url(#p3aeff855be)" d="
M492.029 125.833
L496.503 130.425
L514.398 109.247
L541.24 95.4513
L594.925 65.04
L702.295 48.5623" style="fill:none;stroke:#d9544d;stroke-linecap:round;"/>
   </g>
   <g id="line2d_90">
    <path clip-path="url(#p3aeff855be)" d="
M492.029 136.763
L496.503 135.118
L514.398 96.5984
L541.24 72.1767
L594.925 69.4262
L702.295 64.4758" style="fill:none;stroke:#d9544d;stroke-linecap:round;"/>
   </g>
   <g id="line2d_91">
    <path clip-path="url(#p3aeff855be)" d="
M492.029 140.298
L496.503 131.456
L514.398 84.8414
L541.24 59.5979
L594.925 68.5758
L702.295 89.7894" style="fill:none;stroke:#d9544d;stroke-linecap:round;"/>
   </g>
   <g id="line2d_92">
    <path clip-path="url(#p3aeff855be)" d="
M492.029 135.913
L496.503 126.787
L514.398 109.792
L541.24 80.2372
L594.925 63.9283
L702.295 57.9009" style="fill:none;stroke:#d9544d;stroke-linecap:round;"/>
   </g>
   <g id="line2d_93">
    <path clip-path="url(#p3aeff855be)" d="
M492.029 146.234
L496.503 124.804
L514.398 77.1219
L541.24 67.9474
L594.925 65.0761
L702.295 93.3742" style="fill:none;stroke:#d9544d;stroke-linecap:round;"/>
   </g>
   <g id="line2d_94">
    <path clip-path="url(#p3aeff855be)" d="
M492.029 141.316
L496.503 129.146
L514.398 97.5199
L541.24 75.1662
L594.925 69.9228
L702.295 61.4872" style="fill:none;stroke:#d9544d;stroke-linecap:round;"/>
   </g>
   <g id="line2d_95">
    <path clip-path="url(#p3aeff855be)" d="
M492.029 137.284
L496.503 130.919
L514.398 103.211
L541.24 73.4704
L594.925 60.7047
L702.295 68.9694" style="fill:none;stroke:#d9544d;stroke-linecap:round;"/>
   </g>
   <g id="line2d_96">
    <path clip-path="url(#p3aeff855be)" d="
M492.029 130.034
L496.503 129.066
L514.398 114.52
L541.24 81.7435
L594.925 57.2055
L702.295 61.9889" style="fill:none;stroke:#d9544d;stroke-linecap:round;"/>
   </g>
   <g id="line2d_97">
    <path clip-path="url(#p3aeff855be)" d="
M492.029 147.872
L496.503 124.91
L514.398 88.0678
L541.24 67.4756
L594.925 70.9616
L702.295 75.2709" style="fill:none;stroke:#d9544d;stroke-linecap:round;"/>
   </g>
   <g id="line2d_98">
    <path clip-path="url(#p3aeff855be)" d="
M492.029 138.073
L496.503 136.957
L514.398 86.8044
L541.24 65.8441
L594.925 73.0741
L702.295 73.8059" style="fill:none;stroke:#d9544d;stroke-linecap:round;"/>
   </g>
   <g id="line2d_99">
    <path clip-path="url(#p3aeff855be)" d="
M492.029 141.281
L496.503 132.244
L514.398 89.0731
L541.24 66.6251
L594.925 65.739
L702.295 79.5959" style="fill:none;stroke:#d9544d;stroke-linecap:round;"/>
   </g>
   <g id="line2d_100">
    <path clip-path="url(#p3aeff855be)" d="
M492.029 134.051
L496.503 131.163
L514.398 104.401
L541.24 84.5221
L594.925 62.5802
L702.295 57.8407" style="fill:none;stroke:#d9544d;stroke-linecap:round;"/>
   </g>
   <g id="line2d_101">
    <path clip-path="url(#p3aeff855be)" d="
M492.029 133.371
L496.503 128.611
L514.398 109.408
L541.24 84.119
L594.925 62.495
L702.295 56.5532" style="fill:none;stroke:#d9544d;stroke-linecap:round;"/>
   </g>
   <g id="line2d_102">
    <path clip-path="url(#p3aeff855be)" d="
M492.029 143.433
L496.503 128.021
L514.398 90.701
L541.24 83.0705
L594.925 68.2454
L702.295 61.0872" style="fill:none;stroke:#d9544d;stroke-linecap:round;"/>
   </g>
   <g id="line2d_103">
    <path clip-path="url(#p3aeff855be)" d="
M492.029 146.447
L496.503 126.339
L514.398 83.5092
L541.24 81.9796
L594.925 74.8334
L702.295 61.4499" style="fill:none;stroke:#d9544d;stroke-linecap:round;"/>
   </g>
   <g id="line2d_104">
    <path clip-path="url(#p3aeff855be)" d="
M492.029 139.139
L496.503 128.762
L514.398 104.3
L541.24 64.8757
L594.925 67.8463
L702.295 69.6348" style="fill:none;stroke:#d9544d;stroke-linecap:round;"/>
   </g>
   <g id="line2d_105">
    <path clip-path="url(#p3aeff855be)" d="
M492.029 142.129
L496.503 123.209
L514.398 107.073
L541.24 69.9124
L594.925 65.0456
L702.295 67.1886" style="fill:none;stroke:#d9544d;stroke-linecap:round;"/>
   </g>
   <g id="patch_9">
    <path d="
M492.029 174.898
L492.029 20.7894" style="fill:none;stroke:#262626;stroke-linecap:square;stroke-linejoin:miter;stroke-width:1.25;"/>
   </g>
   <g id="patch_10">
    <path d="
M492.029 174.898
L702.295 174.898" style="fill:none;stroke:#262626;stroke-linecap:square;stroke-linejoin:miter;stroke-width:1.25;"/>
   </g>
   <g id="text_21">
    <!-- Root Cold -->
    <defs>
     <path d="
M7.85938 0
L7.85938 71.5781
L39.5938 71.5781
Q49.1719 71.5781 54.1406 69.6406
Q59.125 67.7188 62.1094 62.8281
Q65.0938 57.9531 65.0938 52.0469
Q65.0938 44.4375 60.1562 39.2031
Q55.2188 33.9844 44.9219 32.5625
Q48.6875 30.7656 50.6406 29
Q54.7812 25.2031 58.5 19.4844
L70.9531 0
L59.0312 0
L49.5625 14.8906
Q45.4062 21.3438 42.7188 24.75
Q40.0469 28.1719 37.9219 29.5312
Q35.7969 30.9062 33.5938 31.4531
Q31.9844 31.7812 28.3281 31.7812
L17.3281 31.7812
L17.3281 0
z

M17.3281 39.9844
L37.7031 39.9844
Q44.1875 39.9844 47.8438 41.3281
Q51.5156 42.6719 53.4219 45.625
Q55.3281 48.5781 55.3281 52.0469
Q55.3281 57.125 51.6406 60.3906
Q47.9531 63.6719 39.9844 63.6719
L17.3281 63.6719
z
" id="ArialMT-52"/>
     <path d="
M58.7969 25.0938
L68.2656 22.7031
Q65.2812 11.0312 57.5469 4.90625
Q49.8125 -1.21875 38.625 -1.21875
Q27.0469 -1.21875 19.7969 3.48438
Q12.5469 8.20312 8.76562 17.1406
Q4.98438 26.0781 4.98438 36.3281
Q4.98438 47.5156 9.25 55.8281
Q13.5312 64.1562 21.4062 68.4688
Q29.2969 72.7969 38.7656 72.7969
Q49.5156 72.7969 56.8281 67.3281
Q64.1562 61.8594 67.0469 51.9531
L57.7188 49.75
Q55.2188 57.5625 50.4844 61.125
Q45.75 64.7031 38.5781 64.7031
Q30.3281 64.7031 24.7812 60.7344
Q19.2344 56.7812 16.9844 50.1094
Q14.75 43.4531 14.75 36.375
Q14.75 27.25 17.4062 20.4375
Q20.0625 13.625 25.6719 10.25
Q31.2969 6.89062 37.8438 6.89062
Q45.7969 6.89062 51.3125 11.4688
Q56.8438 16.0625 58.7969 25.0938" id="ArialMT-43"/>
     <path id="ArialMT-20"/>
     <path d="
M40.2344 0
L40.2344 6.54688
Q35.2969 -1.17188 25.7344 -1.17188
Q19.5312 -1.17188 14.3281 2.25
Q9.125 5.67188 6.26562 11.7969
Q3.42188 17.9219 3.42188 25.875
Q3.42188 33.6406 6 39.9688
Q8.59375 46.2969 13.7656 49.6562
Q18.9531 53.0312 25.3438 53.0312
Q30.0312 53.0312 33.6875 51.0469
Q37.3594 49.0781 39.6562 45.9062
L39.6562 71.5781
L48.3906 71.5781
L48.3906 0
z

M12.4531 25.875
Q12.4531 15.9219 16.6406 10.9844
Q20.8438 6.0625 26.5625 6.0625
Q32.3281 6.0625 36.3438 10.7656
Q40.375 15.4844 40.375 25.1406
Q40.375 35.7969 36.2656 40.7656
Q32.1719 45.75 26.1719 45.75
Q20.3125 45.75 16.375 40.9688
Q12.4531 36.1875 12.4531 25.875" id="ArialMT-64"/>
     <path d="
M6.39062 0
L6.39062 71.5781
L15.1875 71.5781
L15.1875 0
z
" id="ArialMT-6c"/>
    </defs>
    <g style="fill:#262626;" transform="translate(570.915625 15.789375)scale(0.12 -0.12)">
     <use xlink:href="#ArialMT-52"/>
     <use x="72.216796875" xlink:href="#ArialMT-6f"/>
     <use x="127.83203125" xlink:href="#ArialMT-6f"/>
     <use x="183.447265625" xlink:href="#ArialMT-74"/>
     <use x="211.23046875" xlink:href="#ArialMT-20"/>
     <use x="239.013671875" xlink:href="#ArialMT-43"/>
     <use x="311.23046875" xlink:href="#ArialMT-6f"/>
     <use x="366.845703125" xlink:href="#ArialMT-6c"/>
     <use x="389.0625" xlink:href="#ArialMT-64"/>
    </g>
   </g>
  </g>
  <g id="axes_4">
   <g id="patch_11">
    <path d="
M45.5786 377.418
L255.844 377.418
L255.844 223.309
L45.5786 223.309
z
" style="fill:#ffffff;"/>
   </g>
   <g id="matplotlib.axis_7">
    <g id="xtick_13">
     <g id="line2d_106">
      <g>
       <use style="fill:#262626;stroke:#262626;" x="87.63165625" xlink:href="#me1deecec79" y="377.4178125"/>
      </g>
     </g>
     <g id="text_22">
      <!-- 5 -->
      <g style="fill:#262626;" transform="translate(85.259 397.575625)scale(0.1 -0.1)">
       <use xlink:href="#ArialMT-35"/>
      </g>
     </g>
    </g>
    <g id="xtick_14">
     <g id="line2d_107">
      <g>
       <use style="fill:#262626;stroke:#262626;" x="131.898037829" xlink:href="#me1deecec79" y="377.4178125"/>
      </g>
     </g>
     <g id="text_23">
      <!-- 10 -->
      <g style="fill:#262626;" transform="translate(127.120694079 397.575625)scale(0.1 -0.1)">
       <use xlink:href="#ArialMT-31"/>
       <use x="55.615234375" xlink:href="#ArialMT-30"/>
      </g>
     </g>
    </g>
    <g id="xtick_15">
     <g id="line2d_108">
      <g>
       <use style="fill:#262626;stroke:#262626;" x="176.164419408" xlink:href="#me1deecec79" y="377.4178125"/>
      </g>
     </g>
     <g id="text_24">
      <!-- 15 -->
      <g style="fill:#262626;" transform="translate(171.348013158 397.575625)scale(0.1 -0.1)">
       <use xlink:href="#ArialMT-31"/>
       <use x="55.615234375" xlink:href="#ArialMT-35"/>
      </g>
     </g>
    </g>
    <g id="xtick_16">
     <g id="line2d_109">
      <g>
       <use style="fill:#262626;stroke:#262626;" x="220.430800987" xlink:href="#me1deecec79" y="377.4178125"/>
      </g>
     </g>
     <g id="text_25">
      <!-- 20 -->
      <g style="fill:#262626;" transform="translate(215.255800987 397.575625)scale(0.1 -0.1)">
       <use xlink:href="#ArialMT-32"/>
       <use x="55.615234375" xlink:href="#ArialMT-30"/>
      </g>
     </g>
    </g>
    <g id="text_26">
     <!-- Time -->
     <defs>
      <path d="
M6.59375 0
L6.59375 51.8594
L14.4531 51.8594
L14.4531 44.5781
Q16.8906 48.3906 20.9375 50.7031
Q25 53.0312 30.1719 53.0312
Q35.9375 53.0312 39.625 50.6406
Q43.3125 48.25 44.8281 43.9531
Q50.9844 53.0312 60.8438 53.0312
Q68.5625 53.0312 72.7031 48.75
Q76.8594 44.4844 76.8594 35.5938
L76.8594 0
L68.1094 0
L68.1094 32.6719
Q68.1094 37.9375 67.25 40.25
Q66.4062 42.5781 64.1562 43.9844
Q61.9219 45.4062 58.8906 45.4062
Q53.4219 45.4062 49.7969 41.7656
Q46.1875 38.1406 46.1875 30.125
L46.1875 0
L37.4062 0
L37.4062 33.6875
Q37.4062 39.5469 35.25 42.4688
Q33.1094 45.4062 28.2188 45.4062
Q24.5156 45.4062 21.3594 43.4531
Q18.2188 41.5 16.7969 37.7344
Q15.375 33.9844 15.375 26.9062
L15.375 0
z
" id="ArialMT-6d"/>
      <path d="
M25.9219 0
L25.9219 63.1406
L2.34375 63.1406
L2.34375 71.5781
L59.0781 71.5781
L59.0781 63.1406
L35.4062 63.1406
L35.4062 0
z
" id="ArialMT-54"/>
     </defs>
     <g style="fill:#262626;" transform="translate(139.05296875 412.43671875)scale(0.11 -0.11)">
      <use xlink:href="#ArialMT-54"/>
      <use x="57.333984375" xlink:href="#ArialMT-69"/>
      <use x="79.55078125" xlink:href="#ArialMT-6d"/>
      <use x="162.8515625" xlink:href="#ArialMT-65"/>
     </g>
    </g>
   </g>
   <g id="matplotlib.axis_8">
    <g id="ytick_16">
     <g id="line2d_110">
      <g>
       <use style="fill:#262626;stroke:#262626;" x="45.57859375" xlink:href="#m4aded61697" y="364.366596798"/>
      </g>
     </g>
     <g id="text_27">
      <!-- −2 -->
      <g style="fill:#262626;" transform="translate(22.25984375 366.951753048)scale(0.1 -0.1)">
       <use xlink:href="#ArialMT-2212"/>
       <use x="58.3984375" xlink:href="#ArialMT-32"/>
      </g>
     </g>
    </g>
    <g id="ytick_17">
     <g id="line2d_111">
      <g>
       <use style="fill:#262626;stroke:#262626;" x="45.57859375" xlink:href="#m4aded61697" y="331.323144927"/>
      </g>
     </g>
     <g id="text_28">
      <!-- −1 -->
      <g style="fill:#262626;" transform="translate(23.56921875 333.908301177)scale(0.1 -0.1)">
       <use xlink:href="#ArialMT-2212"/>
       <use x="58.3984375" xlink:href="#ArialMT-31"/>
      </g>
     </g>
    </g>
    <g id="ytick_18">
     <g id="line2d_112">
      <g>
       <use style="fill:#262626;stroke:#262626;" x="45.57859375" xlink:href="#m4aded61697" y="298.279693055"/>
      </g>
     </g>
     <g id="text_29">
      <!-- 0 -->
      <g style="fill:#262626;" transform="translate(27.91140625 300.864849305)scale(0.1 -0.1)">
       <use xlink:href="#ArialMT-30"/>
      </g>
     </g>
    </g>
    <g id="ytick_19">
     <g id="line2d_113">
      <g>
       <use style="fill:#262626;stroke:#262626;" x="45.57859375" xlink:href="#m4aded61697" y="265.236241184"/>
      </g>
     </g>
     <g id="text_30">
      <!-- 1 -->
      <g style="fill:#262626;" transform="translate(29.94265625 267.821397434)scale(0.1 -0.1)">
       <use xlink:href="#ArialMT-31"/>
      </g>
     </g>
    </g>
    <g id="ytick_20">
     <g id="line2d_114">
      <g>
       <use style="fill:#262626;stroke:#262626;" x="45.57859375" xlink:href="#m4aded61697" y="232.192789312"/>
      </g>
     </g>
     <g id="text_31">
      <!-- 2 -->
      <g style="fill:#262626;" transform="translate(27.83796875 234.777945562)scale(0.1 -0.1)">
       <use xlink:href="#ArialMT-32"/>
      </g>
     </g>
    </g>
    <g id="text_32">
     <!-- Expression -->
     <g style="fill:#262626;" transform="translate(15.07359375 326.75671875)rotate(-90.0)scale(0.11 -0.11)">
      <use xlink:href="#ArialMT-45"/>
      <use x="66.69921875" xlink:href="#ArialMT-78"/>
      <use x="116.69921875" xlink:href="#ArialMT-70"/>
      <use x="172.314453125" xlink:href="#ArialMT-72"/>
      <use x="205.615234375" xlink:href="#ArialMT-65"/>
      <use x="261.23046875" xlink:href="#ArialMT-73"/>
      <use x="311.23046875" xlink:href="#ArialMT-73"/>
      <use x="361.23046875" xlink:href="#ArialMT-69"/>
      <use x="383.447265625" xlink:href="#ArialMT-6f"/>
      <use x="439.0625" xlink:href="#ArialMT-6e"/>
     </g>
    </g>
   </g>
   <g id="line2d_115">
    <path clip-path="url(#p4d13165c25)" d="
M45.5786 289.68
L47.7919 238.83
L52.2186 275.042
L69.9251 319.809
L96.4849 308.747
L149.605 333.935
L255.844 321.916" style="fill:none;stroke:#03012d;stroke-linecap:round;"/>
   </g>
   <g id="line2d_116">
    <path clip-path="url(#p4d13165c25)" d="
M45.5786 282.457
L47.7919 242.852
L52.2186 272.338
L69.9251 311.162
L96.4849 325.138
L149.605 329.999
L255.844 324.013" style="fill:none;stroke:#03012d;stroke-linecap:round;"/>
   </g>
   <g id="line2d_117">
    <path clip-path="url(#p4d13165c25)" d="
M45.5786 236.533
L47.7919 315.982
L52.2186 292.747
L69.9251 285.467
L96.4849 296.41
L149.605 339.417
L255.844 321.401" style="fill:none;stroke:#03012d;stroke-linecap:round;"/>
   </g>
   <g id="line2d_118">
    <path clip-path="url(#p4d13165c25)" d="
M45.5786 294.12
L47.7919 354.38
L52.2186 318.426
L69.9251 302.618
L96.4849 268.632
L149.605 252.654
L255.844 297.127" style="fill:none;stroke:#03012d;stroke-linecap:round;"/>
   </g>
   <g id="line2d_119">
    <path clip-path="url(#p4d13165c25)" d="
M45.5786 260.007
L47.7919 255.103
L52.2186 276.915
L69.9251 324.828
L96.4849 328.437
L149.605 314.682
L255.844 327.985" style="fill:none;stroke:#03012d;stroke-linecap:round;"/>
   </g>
   <g id="line2d_120">
    <path clip-path="url(#p4d13165c25)" d="
M45.5786 253.752
L47.7919 276.46
L52.2186 280.256
L69.9251 286.816
L96.4849 311.121
L149.605 343.476
L255.844 336.076" style="fill:none;stroke:#03012d;stroke-linecap:round;"/>
   </g>
   <g id="line2d_121">
    <path clip-path="url(#p4d13165c25)" d="
M45.5786 250.101
L47.7919 272.931
L52.2186 274.657
L69.9251 310.047
L96.4849 310.943
L149.605 328.057
L255.844 341.221" style="fill:none;stroke:#03012d;stroke-linecap:round;"/>
   </g>
   <g id="line2d_122">
    <path clip-path="url(#p4d13165c25)" d="
M45.5786 287.803
L47.7919 245.701
L52.2186 266.477
L69.9251 310.279
L96.4849 313.447
L149.605 331.598
L255.844 332.651" style="fill:none;stroke:#03012d;stroke-linecap:round;"/>
   </g>
   <g id="line2d_123">
    <path clip-path="url(#p4d13165c25)" d="
M45.5786 260.626
L47.7919 261.971
L52.2186 268.809
L69.9251 312.791
L96.4849 319.748
L149.605 332.282
L255.844 331.731" style="fill:none;stroke:#03012d;stroke-linecap:round;"/>
   </g>
   <g id="line2d_124">
    <path clip-path="url(#p4d13165c25)" d="
M45.5786 304.944
L47.7919 355.004
L52.2186 309.486
L69.9251 286.903
L96.4849 243.53
L149.605 293.452
L255.844 294.638" style="fill:none;stroke:#03012d;stroke-linecap:round;"/>
   </g>
   <g id="line2d_125">
    <path clip-path="url(#p4d13165c25)" d="
M45.5786 274.516
L47.7919 248.343
L52.2186 271.938
L69.9251 318.222
L96.4849 311.764
L149.605 332.113
L255.844 331.063" style="fill:none;stroke:#03012d;stroke-linecap:round;"/>
   </g>
   <g id="line2d_126">
    <path clip-path="url(#p4d13165c25)" d="
M45.5786 272.713
L47.7919 248.913
L52.2186 278.58
L69.9251 306.487
L96.4849 321.974
L149.605 314.218
L255.844 345.073" style="fill:none;stroke:#03012d;stroke-linecap:round;"/>
   </g>
   <g id="line2d_127">
    <path clip-path="url(#p4d13165c25)" d="
M45.5786 302.475
L47.7919 268.444
L52.2186 249.935
L69.9251 297.269
L96.4849 293.892
L149.605 329.752
L255.844 346.191" style="fill:none;stroke:#03012d;stroke-linecap:round;"/>
   </g>
   <g id="line2d_128">
    <path clip-path="url(#p4d13165c25)" d="
M45.5786 233.174
L47.7919 288.748
L52.2186 289.412
L69.9251 324.191
L96.4849 305.871
L149.605 314.229
L255.844 332.333" style="fill:none;stroke:#03012d;stroke-linecap:round;"/>
   </g>
   <g id="line2d_129">
    <path clip-path="url(#p4d13165c25)" d="
M45.5786 254.965
L47.7919 256.351
L52.2186 291.005
L69.9251 299.503
L96.4849 322.338
L149.605 335.323
L255.844 328.473" style="fill:none;stroke:#03012d;stroke-linecap:round;"/>
   </g>
   <g id="line2d_130">
    <path clip-path="url(#p4d13165c25)" d="
M45.5786 317.852
L47.7919 269.972
L52.2186 247.905
L69.9251 318.884
L96.4849 277.707
L149.605 316.946
L255.844 338.691" style="fill:none;stroke:#03012d;stroke-linecap:round;"/>
   </g>
   <g id="line2d_131">
    <path clip-path="url(#p4d13165c25)" d="
M45.5786 304.632
L47.7919 264.135
L52.2186 244.641
L69.9251 297.76
L96.4849 320.665
L149.605 318.255
L255.844 337.871" style="fill:none;stroke:#03012d;stroke-linecap:round;"/>
   </g>
   <g id="line2d_132">
    <path clip-path="url(#p4d13165c25)" d="
M45.5786 265.805
L47.7919 283.246
L52.2186 274.804
L69.9251 294.486
L96.4849 281.791
L149.605 332.332
L255.844 355.495" style="fill:none;stroke:#03012d;stroke-linecap:round;"/>
   </g>
   <g id="line2d_133">
    <path clip-path="url(#p4d13165c25)" d="
M45.5786 308.189
L47.7919 268.178
L52.2186 287.104
L69.9251 271.251
L96.4849 276.836
L149.605 315.347
L255.844 361.052" style="fill:none;stroke:#03012d;stroke-linecap:round;"/>
   </g>
   <g id="line2d_134">
    <path clip-path="url(#p4d13165c25)" d="
M45.5786 267.661
L47.7919 250.744
L52.2186 273.241
L69.9251 324.783
L96.4849 317.674
L149.605 328.821
L255.844 325.034" style="fill:none;stroke:#03012d;stroke-linecap:round;"/>
   </g>
   <g id="line2d_135">
    <path clip-path="url(#p4d13165c25)" d="
M45.5786 299.827
L47.7919 245.706
L52.2186 258.206
L69.9251 312.997
L96.4849 320.399
L149.605 326.034
L255.844 324.789" style="fill:none;stroke:#03012d;stroke-linecap:round;"/>
   </g>
   <g id="line2d_136">
    <path clip-path="url(#p4d13165c25)" d="
M45.5786 322.753
L47.7919 326.425
L52.2186 269.121
L69.9251 275.172
L96.4849 247.998
L149.605 322.506
L255.844 323.985" style="fill:none;stroke:#03012d;stroke-linecap:round;"/>
   </g>
   <g id="line2d_137">
    <path clip-path="url(#p4d13165c25)" d="
M45.5786 287.036
L47.7919 268.9
L52.2186 247.193
L69.9251 310.573
L96.4849 305.162
L149.605 326.711
L255.844 342.382" style="fill:none;stroke:#03012d;stroke-linecap:round;"/>
   </g>
   <g id="line2d_138">
    <path clip-path="url(#p4d13165c25)" d="
M45.5786 258.148
L47.7919 262.463
L52.2186 281.503
L69.9251 308.663
L96.4849 300.217
L149.605 334.458
L255.844 342.506" style="fill:none;stroke:#03012d;stroke-linecap:round;"/>
   </g>
   <g id="line2d_139">
    <path clip-path="url(#p4d13165c25)" d="
M45.5786 258.15
L47.7919 258.189
L52.2186 275.567
L69.9251 315.469
L96.4849 320.565
L149.605 332.477
L255.844 327.541" style="fill:none;stroke:#03012d;stroke-linecap:round;"/>
   </g>
   <g id="line2d_140">
    <path clip-path="url(#p4d13165c25)" d="
M45.5786 263.973
L47.7919 252.425
L52.2186 279.429
L69.9251 321.222
L96.4849 307.716
L149.605 325.238
L255.844 337.955" style="fill:none;stroke:#03012d;stroke-linecap:round;"/>
   </g>
   <g id="patch_12">
    <path d="
M45.5786 377.418
L45.5786 223.309" style="fill:none;stroke:#262626;stroke-linecap:square;stroke-linejoin:miter;stroke-width:1.25;"/>
   </g>
   <g id="patch_13">
    <path d="
M45.5786 377.418
L255.844 377.418" style="fill:none;stroke:#262626;stroke-linecap:square;stroke-linejoin:miter;stroke-width:1.25;"/>
   </g>
   <g id="text_33">
    <!-- Root Drought -->
    <defs>
     <path d="
M40.5781 0
L40.5781 7.625
Q34.5156 -1.17188 24.125 -1.17188
Q19.5312 -1.17188 15.5469 0.578125
Q11.5781 2.34375 9.64062 5
Q7.71875 7.67188 6.9375 11.5312
Q6.39062 14.1094 6.39062 19.7344
L6.39062 51.8594
L15.1875 51.8594
L15.1875 23.0938
Q15.1875 16.2188 15.7188 13.8125
Q16.5469 10.3594 19.2344 8.375
Q21.9219 6.39062 25.875 6.39062
Q29.8281 6.39062 33.2969 8.42188
Q36.7656 10.4531 38.2031 13.9375
Q39.6562 17.4375 39.6562 24.0781
L39.6562 51.8594
L48.4375 51.8594
L48.4375 0
z
" id="ArialMT-75"/>
     <path d="
M6.59375 0
L6.59375 71.5781
L15.375 71.5781
L15.375 45.9062
Q21.5312 53.0312 30.9062 53.0312
Q36.6719 53.0312 40.9219 50.75
Q45.1719 48.4844 47 44.4844
Q48.8281 40.4844 48.8281 32.8594
L48.8281 0
L40.0469 0
L40.0469 32.8594
Q40.0469 39.4531 37.1875 42.4531
Q34.3281 45.4531 29.1094 45.4531
Q25.2031 45.4531 21.75 43.4219
Q18.3125 41.4062 16.8438 37.9375
Q15.375 34.4688 15.375 28.375
L15.375 0
z
" id="ArialMT-68"/>
     <path d="
M7.71875 0
L7.71875 71.5781
L32.375 71.5781
Q40.7188 71.5781 45.125 70.5625
Q51.2656 69.1406 55.6094 65.4375
Q61.2812 60.6406 64.0781 53.1875
Q66.8906 45.75 66.8906 36.1875
Q66.8906 28.0312 64.9844 21.7344
Q63.0938 15.4375 60.1094 11.2969
Q57.125 7.17188 53.5781 4.79688
Q50.0469 2.4375 45.0469 1.21875
Q40.0469 0 33.5469 0
z

M17.1875 8.45312
L32.4688 8.45312
Q39.5469 8.45312 43.5781 9.76562
Q47.6094 11.0781 50 13.4844
Q53.375 16.8438 55.25 22.5312
Q57.125 28.2188 57.125 36.3281
Q57.125 47.5625 53.4375 53.5938
Q49.75 59.625 44.4844 61.6719
Q40.6719 63.1406 32.2344 63.1406
L17.1875 63.1406
z
" id="ArialMT-44"/>
     <path d="
M4.98438 -4.29688
L13.5312 -5.5625
Q14.0625 -9.51562 16.5 -11.3281
Q19.7812 -13.7656 25.4375 -13.7656
Q31.5469 -13.7656 34.8594 -11.3281
Q38.1875 -8.89062 39.3594 -4.5
Q40.0469 -1.8125 39.9844 6.78125
Q34.2344 0 25.6406 0
Q14.9375 0 9.07812 7.71875
Q3.21875 15.4375 3.21875 26.2188
Q3.21875 33.6406 5.90625 39.9062
Q8.59375 46.1875 13.6875 49.6094
Q18.7969 53.0312 25.6875 53.0312
Q34.8594 53.0312 40.8281 45.6094
L40.8281 51.8594
L48.9219 51.8594
L48.9219 7.03125
Q48.9219 -5.07812 46.4531 -10.125
Q44 -15.1875 38.6406 -18.1094
Q33.2969 -21.0469 25.4844 -21.0469
Q16.2188 -21.0469 10.5 -16.875
Q4.78125 -12.7031 4.98438 -4.29688
M12.25 26.8594
Q12.25 16.6562 16.2969 11.9688
Q20.3594 7.28125 26.4688 7.28125
Q32.5156 7.28125 36.6094 11.9375
Q40.7188 16.6094 40.7188 26.5625
Q40.7188 36.0781 36.5 40.9062
Q32.2812 45.75 26.3125 45.75
Q20.4531 45.75 16.3438 40.9844
Q12.25 36.2344 12.25 26.8594" id="ArialMT-67"/>
    </defs>
    <g style="fill:#262626;" transform="translate(115.07125 218.309375)scale(0.12 -0.12)">
     <use xlink:href="#ArialMT-52"/>
     <use x="72.216796875" xlink:href="#ArialMT-6f"/>
     <use x="127.83203125" xlink:href="#ArialMT-6f"/>
     <use x="183.447265625" xlink:href="#ArialMT-74"/>
     <use x="211.23046875" xlink:href="#ArialMT-20"/>
     <use x="239.013671875" xlink:href="#ArialMT-44"/>
     <use x="311.23046875" xlink:href="#ArialMT-72"/>
     <use x="344.53125" xlink:href="#ArialMT-6f"/>
     <use x="400.146484375" xlink:href="#ArialMT-75"/>
     <use x="455.76171875" xlink:href="#ArialMT-67"/>
     <use x="511.376953125" xlink:href="#ArialMT-68"/>
     <use x="566.9921875" xlink:href="#ArialMT-74"/>
    </g>
   </g>
  </g>
  <g id="axes_5">
   <g id="patch_14">
    <path d="
M268.804 377.418
L479.069 377.418
L479.069 223.309
L268.804 223.309
z
" style="fill:#ffffff;"/>
   </g>
   <g id="matplotlib.axis_9">
    <g id="xtick_17">
     <g id="line2d_141">
      <g>
       <use style="fill:#262626;stroke:#262626;" x="309.067476729" xlink:href="#me1deecec79" y="377.4178125"/>
      </g>
     </g>
     <g id="text_34">
      <!-- 5 -->
      <g style="fill:#262626;" transform="translate(306.694820479 397.575625)scale(0.1 -0.1)">
       <use xlink:href="#ArialMT-35"/>
      </g>
     </g>
    </g>
    <g id="xtick_18">
     <g id="line2d_142">
      <g>
       <use style="fill:#262626;stroke:#262626;" x="353.804777261" xlink:href="#me1deecec79" y="377.4178125"/>
      </g>
     </g>
     <g id="text_35">
      <!-- 10 -->
      <g style="fill:#262626;" transform="translate(349.027433511 397.575625)scale(0.1 -0.1)">
       <use xlink:href="#ArialMT-31"/>
       <use x="55.615234375" xlink:href="#ArialMT-30"/>
      </g>
     </g>
    </g>
    <g id="xtick_19">
     <g id="line2d_143">
      <g>
       <use style="fill:#262626;stroke:#262626;" x="398.542077793" xlink:href="#me1deecec79" y="377.4178125"/>
      </g>
     </g>
     <g id="text_36">
      <!-- 15 -->
      <g style="fill:#262626;" transform="translate(393.725671543 397.575625)scale(0.1 -0.1)">
       <use xlink:href="#ArialMT-31"/>
       <use x="55.615234375" xlink:href="#ArialMT-35"/>
      </g>
     </g>
    </g>
    <g id="xtick_20">
     <g id="line2d_144">
      <g>
       <use style="fill:#262626;stroke:#262626;" x="443.279378324" xlink:href="#me1deecec79" y="377.4178125"/>
      </g>
     </g>
     <g id="text_37">
      <!-- 20 -->
      <g style="fill:#262626;" transform="translate(438.104378324 397.575625)scale(0.1 -0.1)">
       <use xlink:href="#ArialMT-32"/>
       <use x="55.615234375" xlink:href="#ArialMT-30"/>
      </g>
     </g>
    </g>
    <g id="text_38">
     <!-- Time -->
     <g style="fill:#262626;" transform="translate(362.27828125 412.43671875)scale(0.11 -0.11)">
      <use xlink:href="#ArialMT-54"/>
      <use x="57.333984375" xlink:href="#ArialMT-69"/>
      <use x="79.55078125" xlink:href="#ArialMT-6d"/>
      <use x="162.8515625" xlink:href="#ArialMT-65"/>
     </g>
    </g>
   </g>
   <g id="matplotlib.axis_10">
    <g id="ytick_21">
     <g id="line2d_145">
      <g>
       <use style="fill:#262626;stroke:#262626;" x="268.80390625" xlink:href="#m4aded61697" y="364.366596798"/>
      </g>
     </g>
    </g>
    <g id="ytick_22">
     <g id="line2d_146">
      <g>
       <use style="fill:#262626;stroke:#262626;" x="268.80390625" xlink:href="#m4aded61697" y="331.323144927"/>
      </g>
     </g>
    </g>
    <g id="ytick_23">
     <g id="line2d_147">
      <g>
       <use style="fill:#262626;stroke:#262626;" x="268.80390625" xlink:href="#m4aded61697" y="298.279693055"/>
      </g>
     </g>
    </g>
    <g id="ytick_24">
     <g id="line2d_148">
      <g>
       <use style="fill:#262626;stroke:#262626;" x="268.80390625" xlink:href="#m4aded61697" y="265.236241184"/>
      </g>
     </g>
    </g>
    <g id="ytick_25">
     <g id="line2d_149">
      <g>
       <use style="fill:#262626;stroke:#262626;" x="268.80390625" xlink:href="#m4aded61697" y="232.192789312"/>
      </g>
     </g>
    </g>
   </g>
   <g id="line2d_150">
    <path clip-path="url(#p659f111a6e)" d="
M268.804 348.742
L273.278 326.212
L291.173 278.868
L318.015 258.874
L371.7 290.882
L479.069 286.101" style="fill:none;stroke:#d9544d;stroke-linecap:round;"/>
   </g>
   <g id="line2d_151">
    <path clip-path="url(#p659f111a6e)" d="
M268.804 332.712
L273.278 318.819
L291.173 267.895
L318.015 259.948
L371.7 279.029
L479.069 331.275" style="fill:none;stroke:#d9544d;stroke-linecap:round;"/>
   </g>
   <g id="line2d_152">
    <path clip-path="url(#p659f111a6e)" d="
M268.804 345.176
L273.278 327.264
L291.173 276.948
L318.015 263.187
L371.7 272.056
L479.069 305.047" style="fill:none;stroke:#d9544d;stroke-linecap:round;"/>
   </g>
   <g id="line2d_153">
    <path clip-path="url(#p659f111a6e)" d="
M268.804 337.732
L273.278 338.02
L291.173 301.231
L318.015 277.262
L371.7 266.171
L479.069 269.261" style="fill:none;stroke:#d9544d;stroke-linecap:round;"/>
   </g>
   <g id="line2d_154">
    <path clip-path="url(#p659f111a6e)" d="
M268.804 342.287
L273.278 337.876
L291.173 288.66
L318.015 276.7
L371.7 275.512
L479.069 268.644" style="fill:none;stroke:#d9544d;stroke-linecap:round;"/>
   </g>
   <g id="line2d_155">
    <path clip-path="url(#p659f111a6e)" d="
M268.804 349.387
L273.278 326.073
L291.173 285.706
L318.015 271.035
L371.7 264.407
L479.069 293.071" style="fill:none;stroke:#d9544d;stroke-linecap:round;"/>
   </g>
   <g id="line2d_156">
    <path clip-path="url(#p659f111a6e)" d="
M268.804 350.497
L273.278 326.064
L291.173 275.737
L318.015 265.042
L371.7 280.953
L479.069 291.385" style="fill:none;stroke:#d9544d;stroke-linecap:round;"/>
   </g>
   <g id="line2d_157">
    <path clip-path="url(#p659f111a6e)" d="
M268.804 330.246
L273.278 342.377
L291.173 301.083
L318.015 287.16
L371.7 270.174
L479.069 258.638" style="fill:none;stroke:#d9544d;stroke-linecap:round;"/>
   </g>
   <g id="line2d_158">
    <path clip-path="url(#p659f111a6e)" d="
M268.804 349.175
L273.278 330.732
L291.173 283.802
L318.015 272.259
L371.7 279.214
L479.069 274.495" style="fill:none;stroke:#d9544d;stroke-linecap:round;"/>
   </g>
   <g id="line2d_159">
    <path clip-path="url(#p659f111a6e)" d="
M268.804 340.234
L273.278 331.79
L291.173 296.964
L318.015 269.174
L371.7 256.878
L479.069 294.639" style="fill:none;stroke:#d9544d;stroke-linecap:round;"/>
   </g>
   <g id="line2d_160">
    <path clip-path="url(#p659f111a6e)" d="
M268.804 339.247
L273.278 333.897
L291.173 269.04
L318.015 260.69
L371.7 283.48
L479.069 303.324" style="fill:none;stroke:#d9544d;stroke-linecap:round;"/>
   </g>
   <g id="line2d_161">
    <path clip-path="url(#p659f111a6e)" d="
M268.804 346.137
L273.278 326.112
L291.173 273.785
L318.015 261.672
L371.7 277.797
L479.069 304.174" style="fill:none;stroke:#d9544d;stroke-linecap:round;"/>
   </g>
   <g id="line2d_162">
    <path clip-path="url(#p659f111a6e)" d="
M268.804 337.18
L273.278 341.991
L291.173 282.716
L318.015 269.018
L371.7 268.826
L479.069 289.947" style="fill:none;stroke:#d9544d;stroke-linecap:round;"/>
   </g>
   <g id="line2d_163">
    <path clip-path="url(#p659f111a6e)" d="
M268.804 358.271
L273.278 313.623
L291.173 270.656
L318.015 279.961
L371.7 276.715
L479.069 290.452" style="fill:none;stroke:#d9544d;stroke-linecap:round;"/>
   </g>
   <g id="line2d_164">
    <path clip-path="url(#p659f111a6e)" d="
M268.804 350.432
L273.278 325.609
L291.173 276.76
L318.015 268.087
L371.7 273.618
L479.069 295.173" style="fill:none;stroke:#d9544d;stroke-linecap:round;"/>
   </g>
   <g id="line2d_165">
    <path clip-path="url(#p659f111a6e)" d="
M268.804 342.24
L273.278 332.886
L291.173 285.704
L318.015 264.789
L371.7 265.884
L479.069 298.175" style="fill:none;stroke:#d9544d;stroke-linecap:round;"/>
   </g>
   <g id="line2d_166">
    <path clip-path="url(#p659f111a6e)" d="
M268.804 340.871
L273.278 339.443
L291.173 285.438
L318.015 270.975
L371.7 269.78
L479.069 283.17" style="fill:none;stroke:#d9544d;stroke-linecap:round;"/>
   </g>
   <g id="line2d_167">
    <path clip-path="url(#p659f111a6e)" d="
M268.804 350.528
L273.278 326.139
L291.173 288.949
L318.015 286.125
L371.7 268.704
L479.069 269.232" style="fill:none;stroke:#d9544d;stroke-linecap:round;"/>
   </g>
   <g id="line2d_168">
    <path clip-path="url(#p659f111a6e)" d="
M268.804 343.461
L273.278 337.631
L291.173 279.554
L318.015 269.606
L371.7 277.823
L479.069 281.602" style="fill:none;stroke:#d9544d;stroke-linecap:round;"/>
   </g>
   <g id="line2d_169">
    <path clip-path="url(#p659f111a6e)" d="
M268.804 349.422
L273.278 330.567
L291.173 281.436
L318.015 274.228
L371.7 281.169
L479.069 272.856" style="fill:none;stroke:#d9544d;stroke-linecap:round;"/>
   </g>
   <g id="line2d_170">
    <path clip-path="url(#p659f111a6e)" d="
M268.804 337.495
L273.278 335.213
L291.173 303.495
L318.015 261.558
L371.7 266.334
L479.069 285.582" style="fill:none;stroke:#d9544d;stroke-linecap:round;"/>
   </g>
   <g id="line2d_171">
    <path clip-path="url(#p659f111a6e)" d="
M268.804 340.335
L273.278 338.983
L291.173 290.446
L318.015 278.873
L371.7 265.285
L479.069 275.757" style="fill:none;stroke:#d9544d;stroke-linecap:round;"/>
   </g>
   <g id="line2d_172">
    <path clip-path="url(#p659f111a6e)" d="
M268.804 349.207
L273.278 331.11
L291.173 281.393
L318.015 273.356
L371.7 276.365
L479.069 278.247" style="fill:none;stroke:#d9544d;stroke-linecap:round;"/>
   </g>
   <g id="line2d_173">
    <path clip-path="url(#p659f111a6e)" d="
M268.804 348.291
L273.278 329.571
L291.173 291.918
L318.015 277.841
L371.7 275.246
L479.069 266.811" style="fill:none;stroke:#d9544d;stroke-linecap:round;"/>
   </g>
   <g id="line2d_174">
    <path clip-path="url(#p659f111a6e)" d="
M268.804 345.445
L273.278 335.302
L291.173 277.448
L318.015 271.734
L371.7 274.977
L479.069 284.772" style="fill:none;stroke:#d9544d;stroke-linecap:round;"/>
   </g>
   <g id="line2d_175">
    <path clip-path="url(#p659f111a6e)" d="
M268.804 339.133
L273.278 338.331
L291.173 287.101
L318.015 263.654
L371.7 269.631
L479.069 291.827" style="fill:none;stroke:#d9544d;stroke-linecap:round;"/>
   </g>
   <g id="patch_15">
    <path d="
M268.804 377.418
L268.804 223.309" style="fill:none;stroke:#262626;stroke-linecap:square;stroke-linejoin:miter;stroke-width:1.25;"/>
   </g>
   <g id="patch_16">
    <path d="
M268.804 377.418
L479.069 377.418" style="fill:none;stroke:#262626;stroke-linecap:square;stroke-linejoin:miter;stroke-width:1.25;"/>
   </g>
   <g id="text_39">
    <!-- Shoot Cold -->
    <g style="fill:#262626;" transform="translate(344.6846875 218.309375)scale(0.12 -0.12)">
     <use xlink:href="#ArialMT-53"/>
     <use x="66.69921875" xlink:href="#ArialMT-68"/>
     <use x="122.314453125" xlink:href="#ArialMT-6f"/>
     <use x="177.9296875" xlink:href="#ArialMT-6f"/>
     <use x="233.544921875" xlink:href="#ArialMT-74"/>
     <use x="261.328125" xlink:href="#ArialMT-20"/>
     <use x="289.111328125" xlink:href="#ArialMT-43"/>
     <use x="361.328125" xlink:href="#ArialMT-6f"/>
     <use x="416.943359375" xlink:href="#ArialMT-6c"/>
     <use x="439.16015625" xlink:href="#ArialMT-64"/>
    </g>
   </g>
  </g>
  <g id="axes_6">
   <g id="patch_17">
    <path d="
M492.029 377.418
L702.295 377.418
L702.295 223.309
L492.029 223.309
z
" style="fill:#ffffff;"/>
   </g>
   <g id="matplotlib.axis_11">
    <g id="xtick_21">
     <g id="line2d_176">
      <g>
       <use style="fill:#262626;stroke:#262626;" x="534.08228125" xlink:href="#me1deecec79" y="377.4178125"/>
      </g>
     </g>
     <g id="text_40">
      <!-- 5 -->
      <g style="fill:#262626;" transform="translate(531.709625 397.575625)scale(0.1 -0.1)">
       <use xlink:href="#ArialMT-35"/>
      </g>
     </g>
    </g>
    <g id="xtick_22">
     <g id="line2d_177">
      <g>
       <use style="fill:#262626;stroke:#262626;" x="578.348662829" xlink:href="#me1deecec79" y="377.4178125"/>
      </g>
     </g>
     <g id="text_41">
      <!-- 10 -->
      <g style="fill:#262626;" transform="translate(573.571319079 397.575625)scale(0.1 -0.1)">
       <use xlink:href="#ArialMT-31"/>
       <use x="55.615234375" xlink:href="#ArialMT-30"/>
      </g>
     </g>
    </g>
    <g id="xtick_23">
     <g id="line2d_178">
      <g>
       <use style="fill:#262626;stroke:#262626;" x="622.615044408" xlink:href="#me1deecec79" y="377.4178125"/>
      </g>
     </g>
     <g id="text_42">
      <!-- 15 -->
      <g style="fill:#262626;" transform="translate(617.798638158 397.575625)scale(0.1 -0.1)">
       <use xlink:href="#ArialMT-31"/>
       <use x="55.615234375" xlink:href="#ArialMT-35"/>
      </g>
     </g>
    </g>
    <g id="xtick_24">
     <g id="line2d_179">
      <g>
       <use style="fill:#262626;stroke:#262626;" x="666.881425987" xlink:href="#me1deecec79" y="377.4178125"/>
      </g>
     </g>
     <g id="text_43">
      <!-- 20 -->
      <g style="fill:#262626;" transform="translate(661.706425987 397.575625)scale(0.1 -0.1)">
       <use xlink:href="#ArialMT-32"/>
       <use x="55.615234375" xlink:href="#ArialMT-30"/>
      </g>
     </g>
    </g>
    <g id="text_44">
     <!-- Time -->
     <g style="fill:#262626;" transform="translate(585.50359375 412.43671875)scale(0.11 -0.11)">
      <use xlink:href="#ArialMT-54"/>
      <use x="57.333984375" xlink:href="#ArialMT-69"/>
      <use x="79.55078125" xlink:href="#ArialMT-6d"/>
      <use x="162.8515625" xlink:href="#ArialMT-65"/>
     </g>
    </g>
   </g>
   <g id="matplotlib.axis_12">
    <g id="ytick_26">
     <g id="line2d_180">
      <g>
       <use style="fill:#262626;stroke:#262626;" x="492.02921875" xlink:href="#m4aded61697" y="364.366596798"/>
      </g>
     </g>
    </g>
    <g id="ytick_27">
     <g id="line2d_181">
      <g>
       <use style="fill:#262626;stroke:#262626;" x="492.02921875" xlink:href="#m4aded61697" y="331.323144927"/>
      </g>
     </g>
    </g>
    <g id="ytick_28">
     <g id="line2d_182">
      <g>
       <use style="fill:#262626;stroke:#262626;" x="492.02921875" xlink:href="#m4aded61697" y="298.279693055"/>
      </g>
     </g>
    </g>
    <g id="ytick_29">
     <g id="line2d_183">
      <g>
       <use style="fill:#262626;stroke:#262626;" x="492.02921875" xlink:href="#m4aded61697" y="265.236241184"/>
      </g>
     </g>
    </g>
    <g id="ytick_30">
     <g id="line2d_184">
      <g>
       <use style="fill:#262626;stroke:#262626;" x="492.02921875" xlink:href="#m4aded61697" y="232.192789312"/>
      </g>
     </g>
    </g>
   </g>
   <g id="line2d_185">
    <path clip-path="url(#p99eb28ba72)" d="
M492.029 258.493
L494.243 273.645
L498.669 274.738
L516.376 300.191
L542.936 307.049
L596.055 356.161
L702.295 317.681" style="fill:none;stroke:#03012d;stroke-linecap:round;"/>
   </g>
   <g id="line2d_186">
    <path clip-path="url(#p99eb28ba72)" d="
M492.029 293.032
L494.243 273.169
L498.669 270.107
L516.376 266.605
L542.936 299.946
L596.055 351.875
L702.295 333.222" style="fill:none;stroke:#03012d;stroke-linecap:round;"/>
   </g>
   <g id="line2d_187">
    <path clip-path="url(#p99eb28ba72)" d="
M492.029 304.464
L494.243 283.452
L498.669 284.152
L516.376 306.387
L542.936 244.84
L596.055 311.683
L702.295 352.982" style="fill:none;stroke:#03012d;stroke-linecap:round;"/>
   </g>
   <g id="line2d_188">
    <path clip-path="url(#p99eb28ba72)" d="
M492.029 309.699
L494.243 270.893
L498.669 237.481
L516.376 320.319
L542.936 329.445
L596.055 299.114
L702.295 321.007" style="fill:none;stroke:#03012d;stroke-linecap:round;"/>
   </g>
   <g id="line2d_189">
    <path clip-path="url(#p99eb28ba72)" d="
M492.029 278.254
L494.243 276.451
L498.669 265.146
L516.376 279.172
L542.936 307.767
L596.055 324.133
L702.295 357.036" style="fill:none;stroke:#03012d;stroke-linecap:round;"/>
   </g>
   <g id="line2d_190">
    <path clip-path="url(#p99eb28ba72)" d="
M492.029 279.114
L494.243 260.407
L498.669 287.409
L516.376 301.171
L542.936 281.96
L596.055 316.05
L702.295 361.848" style="fill:none;stroke:#03012d;stroke-linecap:round;"/>
   </g>
   <g id="line2d_191">
    <path clip-path="url(#p99eb28ba72)" d="
M492.029 273.395
L494.243 288.372
L498.669 259.578
L516.376 279.04
L542.936 302.35
L596.055 339.546
L702.295 345.676" style="fill:none;stroke:#03012d;stroke-linecap:round;"/>
   </g>
   <g id="line2d_192">
    <path clip-path="url(#p99eb28ba72)" d="
M492.029 314.764
L494.243 289.494
L498.669 254.986
L516.376 259.82
L542.936 297.033
L596.055 333.495
L702.295 338.368" style="fill:none;stroke:#03012d;stroke-linecap:round;"/>
   </g>
   <g id="line2d_193">
    <path clip-path="url(#p99eb28ba72)" d="
M492.029 255.681
L494.243 260.273
L498.669 294.949
L516.376 289.912
L542.936 322.161
L596.055 320.247
L702.295 344.735" style="fill:none;stroke:#03012d;stroke-linecap:round;"/>
   </g>
   <g id="line2d_194">
    <path clip-path="url(#p99eb28ba72)" d="
M492.029 327.614
L494.243 312.384
L498.669 298.978
L516.376 250.838
L542.936 253.929
L596.055 313.795
L702.295 330.418" style="fill:none;stroke:#03012d;stroke-linecap:round;"/>
   </g>
   <g id="line2d_195">
    <path clip-path="url(#p99eb28ba72)" d="
M492.029 325.198
L494.243 297.364
L498.669 305.937
L516.376 242.294
L542.936 265.414
L596.055 322.032
L702.295 329.719" style="fill:none;stroke:#03012d;stroke-linecap:round;"/>
   </g>
   <g id="line2d_196">
    <path clip-path="url(#p99eb28ba72)" d="
M492.029 299.775
L494.243 275.049
L498.669 253.337
L516.376 288.641
L542.936 292.743
L596.055 355.267
L702.295 323.146" style="fill:none;stroke:#03012d;stroke-linecap:round;"/>
   </g>
   <g id="line2d_197">
    <path clip-path="url(#p99eb28ba72)" d="
M492.029 320.238
L494.243 296.716
L498.669 268.495
L516.376 259.086
L542.936 272.124
L596.055 326.535
L702.295 344.764" style="fill:none;stroke:#03012d;stroke-linecap:round;"/>
   </g>
   <g id="line2d_198">
    <path clip-path="url(#p99eb28ba72)" d="
M492.029 262.316
L494.243 292.618
L498.669 283.704
L516.376 286.806
L542.936 279.765
L596.055 361.678
L702.295 321.071" style="fill:none;stroke:#03012d;stroke-linecap:round;"/>
   </g>
   <g id="line2d_199">
    <path clip-path="url(#p99eb28ba72)" d="
M492.029 270.538
L494.243 263.561
L498.669 272.621
L516.376 301.229
L542.936 295.166
L596.055 343.548
L702.295 341.295" style="fill:none;stroke:#03012d;stroke-linecap:round;"/>
   </g>
   <g id="line2d_200">
    <path clip-path="url(#p99eb28ba72)" d="
M492.029 329.667
L494.243 267.017
L498.669 262.958
L516.376 284.612
L542.936 277.466
L596.055 321.007
L702.295 345.232" style="fill:none;stroke:#03012d;stroke-linecap:round;"/>
   </g>
   <g id="line2d_201">
    <path clip-path="url(#p99eb28ba72)" d="
M492.029 327.295
L494.243 300.094
L498.669 283.063
L516.376 271.365
L542.936 262.052
L596.055 288.073
L702.295 356.016" style="fill:none;stroke:#03012d;stroke-linecap:round;"/>
   </g>
   <g id="line2d_202">
    <path clip-path="url(#p99eb28ba72)" d="
M492.029 264.633
L494.243 277.781
L498.669 275.641
L516.376 277.036
L542.936 309.277
L596.055 333.827
L702.295 349.763" style="fill:none;stroke:#03012d;stroke-linecap:round;"/>
   </g>
   <g id="line2d_203">
    <path clip-path="url(#p99eb28ba72)" d="
M492.029 353.028
L494.243 310.364
L498.669 263.242
L516.376 318.06
L542.936 258.234
L596.055 284.806
L702.295 300.224" style="fill:none;stroke:#03012d;stroke-linecap:round;"/>
   </g>
   <g id="line2d_204">
    <path clip-path="url(#p99eb28ba72)" d="
M492.029 288.566
L494.243 267.535
L498.669 258.512
L516.376 297.255
L542.936 324.143
L596.055 355.354
L702.295 296.592" style="fill:none;stroke:#03012d;stroke-linecap:round;"/>
   </g>
   <g id="line2d_205">
    <path clip-path="url(#p99eb28ba72)" d="
M492.029 295.302
L494.243 264.278
L498.669 251.765
L516.376 289.041
L542.936 316.847
L596.055 339.954
L702.295 330.771" style="fill:none;stroke:#03012d;stroke-linecap:round;"/>
   </g>
   <g id="line2d_206">
    <path clip-path="url(#p99eb28ba72)" d="
M492.029 339.663
L494.243 318.506
L498.669 319.841
L516.376 262.601
L542.936 246.929
L596.055 295.342
L702.295 305.076" style="fill:none;stroke:#03012d;stroke-linecap:round;"/>
   </g>
   <g id="line2d_207">
    <path clip-path="url(#p99eb28ba72)" d="
M492.029 317.222
L494.243 296.769
L498.669 271.207
L516.376 265.528
L542.936 275.642
L596.055 301.15
L702.295 360.44" style="fill:none;stroke:#03012d;stroke-linecap:round;"/>
   </g>
   <g id="line2d_208">
    <path clip-path="url(#p99eb28ba72)" d="
M492.029 302.73
L494.243 304.253
L498.669 271.799
L516.376 261.933
L542.936 267.176
L596.055 336.938
L702.295 343.13" style="fill:none;stroke:#03012d;stroke-linecap:round;"/>
   </g>
   <g id="line2d_209">
    <path clip-path="url(#p99eb28ba72)" d="
M492.029 290.458
L494.243 258.224
L498.669 268.408
L516.376 277.876
L542.936 315.889
L596.055 341.951
L702.295 335.153" style="fill:none;stroke:#03012d;stroke-linecap:round;"/>
   </g>
   <g id="line2d_210">
    <path clip-path="url(#p99eb28ba72)" d="
M492.029 283.974
L494.243 286.949
L498.669 296.53
L516.376 272.658
L542.936 261.202
L596.055 335.378
L702.295 351.267" style="fill:none;stroke:#03012d;stroke-linecap:round;"/>
   </g>
   <g id="patch_18">
    <path d="
M492.029 377.418
L492.029 223.309" style="fill:none;stroke:#262626;stroke-linecap:square;stroke-linejoin:miter;stroke-width:1.25;"/>
   </g>
   <g id="patch_19">
    <path d="
M492.029 377.418
L702.295 377.418" style="fill:none;stroke:#262626;stroke-linecap:square;stroke-linejoin:miter;stroke-width:1.25;"/>
   </g>
   <g id="text_45">
    <!-- Shoot Uv -->
    <defs>
     <path d="
M54.6875 71.5781
L64.1562 71.5781
L64.1562 30.2188
Q64.1562 19.4375 61.7188 13.0781
Q59.2812 6.73438 52.9062 2.75
Q46.5312 -1.21875 36.1875 -1.21875
Q26.125 -1.21875 19.7188 2.25
Q13.3281 5.71875 10.5938 12.2812
Q7.85938 18.8438 7.85938 30.2188
L7.85938 71.5781
L17.3281 71.5781
L17.3281 30.2812
Q17.3281 20.9531 19.0625 16.5312
Q20.7969 12.1094 25.0156 9.71875
Q29.25 7.32812 35.3594 7.32812
Q45.7969 7.32812 50.2344 12.0625
Q54.6875 16.7969 54.6875 30.2812
z
" id="ArialMT-55"/>
     <path d="
M21 0
L1.26562 51.8594
L10.5469 51.8594
L21.6875 20.7969
Q23.4844 15.7656 25 10.3594
Q26.1719 14.4531 28.2656 20.2188
L39.7969 51.8594
L48.8281 51.8594
L29.2031 0
z
" id="ArialMT-76"/>
    </defs>
    <g style="fill:#262626;" transform="translate(572.5534375 218.309375)scale(0.12 -0.12)">
     <use xlink:href="#ArialMT-53"/>
     <use x="66.69921875" xlink:href="#ArialMT-68"/>
     <use x="122.314453125" xlink:href="#ArialMT-6f"/>
     <use x="177.9296875" xlink:href="#ArialMT-6f"/>
     <use x="233.544921875" xlink:href="#ArialMT-74"/>
     <use x="261.328125" xlink:href="#ArialMT-20"/>
     <use x="289.111328125" xlink:href="#ArialMT-55"/>
     <use x="361.328125" xlink:href="#ArialMT-76"/>
    </g>
   </g>
  </g>
 </g>
 <defs>
  <clipPath id="pa61dcb5892">
   <rect height="154.1084375" width="210.2653125" x="268.80390625" y="20.789375"/>
  </clipPath>
  <clipPath id="pa691a7dfe0">
   <rect height="154.1084375" width="210.2653125" x="45.57859375" y="20.789375"/>
  </clipPath>
  <clipPath id="p99eb28ba72">
   <rect height="154.1084375" width="210.2653125" x="492.02921875" y="223.309375"/>
  </clipPath>
  <clipPath id="p4d13165c25">
   <rect height="154.1084375" width="210.2653125" x="45.57859375" y="223.309375"/>
  </clipPath>
  <clipPath id="p659f111a6e">
   <rect height="154.1084375" width="210.2653125" x="268.80390625" y="223.309375"/>
  </clipPath>
  <clipPath id="p3aeff855be">
   <rect height="154.1084375" width="210.2653125" x="492.02921875" y="20.789375"/>
  </clipPath>
 </defs>
</svg>
