<?xml version="1.0" encoding="utf-8" standalone="no"?>
<!DOCTYPE svg PUBLIC "-//W3C//DTD SVG 1.1//EN"
  "http://www.w3.org/Graphics/SVG/1.1/DTD/svg11.dtd">
<!-- Created with matplotlib (http://matplotlib.org/) -->
<svg height="421pt" version="1.1" viewBox="0 0 709 421" width="709pt" xmlns="http://www.w3.org/2000/svg" xmlns:xlink="http://www.w3.org/1999/xlink">
 <defs>
  <style type="text/css">
*{stroke-linecap:butt;stroke-linejoin:round;}
  </style>
 </defs>
 <g id="figure_1">
  <g id="patch_1">
   <path d="
M0 421.823
L709.495 421.823
L709.495 0
L0 0
z
" style="fill:#ffffff;"/>
  </g>
  <g id="axes_1">
   <g id="patch_2">
    <path d="
M45.5786 174.898
L255.844 174.898
L255.844 20.7894
L45.5786 20.7894
z
" style="fill:#ffffff;"/>
   </g>
   <g id="matplotlib.axis_1">
    <g id="xtick_1">
     <g id="line2d_1">
      <defs>
       <path d="
M0 0
L0 6" id="me1deecec79" style="stroke:#262626;"/>
      </defs>
      <g>
       <use style="fill:#262626;stroke:#262626;" x="82.1464741848" xlink:href="#me1deecec79" y="174.8978125"/>
      </g>
     </g>
     <g id="text_1">
      <!-- 10 -->
      <defs>
       <path d="
M4.15625 35.2969
Q4.15625 48 6.76562 55.7344
Q9.375 63.4844 14.5156 67.6719
Q19.6719 71.875 27.4844 71.875
Q33.25 71.875 37.5938 69.5469
Q41.9375 67.2344 44.7656 62.8594
Q47.6094 58.5 49.2188 52.2188
Q50.8281 45.9531 50.8281 35.2969
Q50.8281 22.7031 48.2344 14.9688
Q45.6562 7.23438 40.5 3
Q35.3594 -1.21875 27.4844 -1.21875
Q17.1406 -1.21875 11.2344 6.20312
Q4.15625 15.1406 4.15625 35.2969
M13.1875 35.2969
Q13.1875 17.6719 17.3125 11.8281
Q21.4375 6 27.4844 6
Q33.5469 6 37.6719 11.8594
Q41.7969 17.7188 41.7969 35.2969
Q41.7969 52.9844 37.6719 58.7812
Q33.5469 64.5938 27.3906 64.5938
Q21.3438 64.5938 17.7188 59.4688
Q13.1875 52.9375 13.1875 35.2969" id="ArialMT-30"/>
       <path d="
M37.25 0
L28.4688 0
L28.4688 56
Q25.2969 52.9844 20.1406 49.9531
Q14.9844 46.9219 10.8906 45.4062
L10.8906 53.9062
Q18.2656 57.375 23.7812 62.2969
Q29.2969 67.2344 31.5938 71.875
L37.25 71.875
z
" id="ArialMT-31"/>
      </defs>
      <g style="fill:#262626;" transform="translate(77.3691304348 195.055625)scale(0.1 -0.1)">
       <use xlink:href="#ArialMT-31"/>
       <use x="55.615234375" xlink:href="#ArialMT-30"/>
      </g>
     </g>
    </g>
    <g id="xtick_2">
     <g id="line2d_2">
      <g>
       <use style="fill:#262626;stroke:#262626;" x="127.856324728" xlink:href="#me1deecec79" y="174.8978125"/>
      </g>
     </g>
     <g id="text_2">
      <!-- 20 -->
      <defs>
       <path d="
M50.3438 8.45312
L50.3438 0
L3.03125 0
Q2.9375 3.17188 4.04688 6.10938
Q5.85938 10.9375 9.82812 15.625
Q13.8125 20.3125 21.3438 26.4688
Q33.0156 36.0312 37.1094 41.625
Q41.2188 47.2188 41.2188 52.2031
Q41.2188 57.4219 37.4688 61
Q33.7344 64.5938 27.7344 64.5938
Q21.3906 64.5938 17.5781 60.7812
Q13.7656 56.9844 13.7188 50.25
L4.6875 51.1719
Q5.60938 61.2812 11.6562 66.5781
Q17.7188 71.875 27.9375 71.875
Q38.2344 71.875 44.2344 66.1562
Q50.25 60.4531 50.25 52
Q50.25 47.7031 48.4844 43.5469
Q46.7344 39.4062 42.6562 34.8125
Q38.5781 30.2188 29.1094 22.2188
Q21.1875 15.5781 18.9375 13.2031
Q16.7031 10.8438 15.2344 8.45312
z
" id="ArialMT-32"/>
      </defs>
      <g style="fill:#262626;" transform="translate(122.681324728 195.055625)scale(0.1 -0.1)">
       <use xlink:href="#ArialMT-32"/>
       <use x="55.615234375" xlink:href="#ArialMT-30"/>
      </g>
     </g>
    </g>
    <g id="xtick_3">
     <g id="line2d_3">
      <g>
       <use style="fill:#262626;stroke:#262626;" x="173.566175272" xlink:href="#me1deecec79" y="174.8978125"/>
      </g>
     </g>
     <g id="text_3">
      <!-- 30 -->
      <defs>
       <path d="
M4.20312 18.8906
L12.9844 20.0625
Q14.5 12.5938 18.1406 9.29688
Q21.7812 6 27 6
Q33.2031 6 37.4688 10.2969
Q41.75 14.5938 41.75 20.9531
Q41.75 27 37.7969 30.9219
Q33.8438 34.8594 27.7344 34.8594
Q25.25 34.8594 21.5312 33.8906
L22.5156 41.6094
Q23.3906 41.5 23.9219 41.5
Q29.5469 41.5 34.0312 44.4219
Q38.5312 47.3594 38.5312 53.4688
Q38.5312 58.2969 35.25 61.4688
Q31.9844 64.6562 26.8125 64.6562
Q21.6875 64.6562 18.2656 61.4219
Q14.8438 58.2031 13.875 51.7656
L5.07812 53.3281
Q6.6875 62.1562 12.3906 67.0156
Q18.1094 71.875 26.6094 71.875
Q32.4688 71.875 37.3906 69.3594
Q42.3281 66.8438 44.9375 62.5
Q47.5625 58.1562 47.5625 53.2656
Q47.5625 48.6406 45.0625 44.8281
Q42.5781 41.0156 37.7031 38.7656
Q44.0469 37.3125 47.5625 32.6875
Q51.0781 28.0781 51.0781 21.1406
Q51.0781 11.7656 44.2344 5.25
Q37.4062 -1.26562 26.9531 -1.26562
Q17.5312 -1.26562 11.2969 4.34375
Q5.07812 9.96875 4.20312 18.8906" id="ArialMT-33"/>
      </defs>
      <g style="fill:#262626;" transform="translate(168.454456522 195.055625)scale(0.1 -0.1)">
       <use xlink:href="#ArialMT-33"/>
       <use x="55.615234375" xlink:href="#ArialMT-30"/>
      </g>
     </g>
    </g>
    <g id="xtick_4">
     <g id="line2d_4">
      <g>
       <use style="fill:#262626;stroke:#262626;" x="219.276025815" xlink:href="#me1deecec79" y="174.8978125"/>
      </g>
     </g>
     <g id="text_4">
      <!-- 40 -->
      <defs>
       <path d="
M32.3281 0
L32.3281 17.1406
L1.26562 17.1406
L1.26562 25.2031
L33.9375 71.5781
L41.1094 71.5781
L41.1094 25.2031
L50.7812 25.2031
L50.7812 17.1406
L41.1094 17.1406
L41.1094 0
z

M32.3281 25.2031
L32.3281 57.4688
L9.90625 25.2031
z
" id="ArialMT-34"/>
      </defs>
      <g style="fill:#262626;" transform="translate(214.017432065 195.055625)scale(0.1 -0.1)">
       <use xlink:href="#ArialMT-34"/>
       <use x="55.615234375" xlink:href="#ArialMT-30"/>
      </g>
     </g>
    </g>
   </g>
   <g id="matplotlib.axis_2">
    <g id="ytick_1">
     <g id="line2d_5">
      <defs>
       <path d="
M0 0
L-6 0" id="m4aded61697" style="stroke:#262626;"/>
      </defs>
      <g>
       <use style="fill:#262626;stroke:#262626;" x="45.57859375" xlink:href="#m4aded61697" y="162.712452164"/>
      </g>
     </g>
     <g id="text_5">
      <!-- −2 -->
      <defs>
       <path d="
M52.8281 31.2031
L5.5625 31.2031
L5.5625 39.4062
L52.8281 39.4062
z
" id="ArialMT-2212"/>
      </defs>
      <g style="fill:#262626;" transform="translate(22.25984375 165.297608414)scale(0.1 -0.1)">
       <use xlink:href="#ArialMT-2212"/>
       <use x="58.3984375" xlink:href="#ArialMT-32"/>
      </g>
     </g>
    </g>
    <g id="ytick_2">
     <g id="line2d_6">
      <g>
       <use style="fill:#262626;stroke:#262626;" x="45.57859375" xlink:href="#m4aded61697" y="134.574399712"/>
      </g>
     </g>
     <g id="text_6">
      <!-- −1 -->
      <g style="fill:#262626;" transform="translate(23.56921875 137.159555962)scale(0.1 -0.1)">
       <use xlink:href="#ArialMT-2212"/>
       <use x="58.3984375" xlink:href="#ArialMT-31"/>
      </g>
     </g>
    </g>
    <g id="ytick_3">
     <g id="line2d_7">
      <g>
       <use style="fill:#262626;stroke:#262626;" x="45.57859375" xlink:href="#m4aded61697" y="106.436347259"/>
      </g>
     </g>
     <g id="text_7">
      <!-- 0 -->
      <g style="fill:#262626;" transform="translate(27.91140625 109.021503509)scale(0.1 -0.1)">
       <use xlink:href="#ArialMT-30"/>
      </g>
     </g>
    </g>
    <g id="ytick_4">
     <g id="line2d_8">
      <g>
       <use style="fill:#262626;stroke:#262626;" x="45.57859375" xlink:href="#m4aded61697" y="78.2982948073"/>
      </g>
     </g>
     <g id="text_8">
      <!-- 1 -->
      <g style="fill:#262626;" transform="translate(29.94265625 80.8834510573)scale(0.1 -0.1)">
       <use xlink:href="#ArialMT-31"/>
      </g>
     </g>
    </g>
    <g id="ytick_5">
     <g id="line2d_9">
      <g>
       <use style="fill:#262626;stroke:#262626;" x="45.57859375" xlink:href="#m4aded61697" y="50.1602423551"/>
      </g>
     </g>
     <g id="text_9">
      <!-- 2 -->
      <g style="fill:#262626;" transform="translate(27.83796875 52.7453986051)scale(0.1 -0.1)">
       <use xlink:href="#ArialMT-32"/>
      </g>
     </g>
    </g>
    <g id="ytick_6">
     <g id="line2d_10">
      <g>
       <use style="fill:#262626;stroke:#262626;" x="45.57859375" xlink:href="#m4aded61697" y="22.022189903"/>
      </g>
     </g>
     <g id="text_10">
      <!-- 3 -->
      <g style="fill:#262626;" transform="translate(27.89109375 24.607346153)scale(0.1 -0.1)">
       <use xlink:href="#ArialMT-33"/>
      </g>
     </g>
    </g>
    <g id="text_11">
     <!-- Expression -->
     <defs>
      <path d="
M7.90625 0
L7.90625 71.5781
L59.6719 71.5781
L59.6719 63.1406
L17.3906 63.1406
L17.3906 41.2188
L56.9844 41.2188
L56.9844 32.8125
L17.3906 32.8125
L17.3906 8.45312
L61.3281 8.45312
L61.3281 0
z
" id="ArialMT-45"/>
      <path d="
M6.59375 -19.875
L6.59375 51.8594
L14.5938 51.8594
L14.5938 45.125
Q17.4375 49.0781 21 51.0469
Q24.5625 53.0312 29.6406 53.0312
Q36.2812 53.0312 41.3594 49.6094
Q46.4375 46.1875 49.0156 39.9531
Q51.6094 33.7344 51.6094 26.3125
Q51.6094 18.3594 48.75 11.9844
Q45.9062 5.60938 40.4531 2.21875
Q35.0156 -1.17188 29 -1.17188
Q24.6094 -1.17188 21.1094 0.6875
Q17.625 2.54688 15.375 5.375
L15.375 -19.875
z

M14.5469 25.6406
Q14.5469 15.625 18.5938 10.8438
Q22.6562 6.0625 28.4219 6.0625
Q34.2812 6.0625 38.4531 11.0156
Q42.625 15.9688 42.625 26.375
Q42.625 36.2812 38.5469 41.2031
Q34.4688 46.1406 28.8125 46.1406
Q23.1875 46.1406 18.8594 40.8906
Q14.5469 35.6406 14.5469 25.6406" id="ArialMT-70"/>
      <path d="
M3.32812 25.9219
Q3.32812 40.3281 11.3281 47.2656
Q18.0156 53.0312 27.6406 53.0312
Q38.3281 53.0312 45.1094 46.0156
Q51.9062 39.0156 51.9062 26.6562
Q51.9062 16.6562 48.9062 10.9062
Q45.9062 5.17188 40.1562 2
Q34.4219 -1.17188 27.6406 -1.17188
Q16.75 -1.17188 10.0312 5.8125
Q3.32812 12.7969 3.32812 25.9219
M12.3594 25.9219
Q12.3594 15.9688 16.7031 11.0156
Q21.0469 6.0625 27.6406 6.0625
Q34.1875 6.0625 38.5312 11.0312
Q42.875 16.0156 42.875 26.2188
Q42.875 35.8438 38.5 40.7969
Q34.125 45.75 27.6406 45.75
Q21.0469 45.75 16.7031 40.8125
Q12.3594 35.8906 12.3594 25.9219" id="ArialMT-6f"/>
      <path d="
M0.734375 0
L19.6719 26.9531
L2.15625 51.8594
L13.1406 51.8594
L21.0938 39.7031
Q23.3438 36.2344 24.7031 33.8906
Q26.8594 37.1094 28.6562 39.5938
L37.4062 51.8594
L47.9062 51.8594
L29.9844 27.4375
L49.2656 0
L38.4844 0
L27.8281 16.1094
L25 20.4531
L11.375 0
z
" id="ArialMT-78"/>
      <path d="
M6.64062 61.4688
L6.64062 71.5781
L15.4375 71.5781
L15.4375 61.4688
z

M6.64062 0
L6.64062 51.8594
L15.4375 51.8594
L15.4375 0
z
" id="ArialMT-69"/>
      <path d="
M3.07812 15.4844
L11.7656 16.8438
Q12.5 11.625 15.8438 8.84375
Q19.1875 6.0625 25.2031 6.0625
Q31.25 6.0625 34.1719 8.51562
Q37.1094 10.9844 37.1094 14.3125
Q37.1094 17.2812 34.5156 19
Q32.7188 20.1719 25.5312 21.9688
Q15.875 24.4219 12.1406 26.2031
Q8.40625 27.9844 6.46875 31.125
Q4.54688 34.2812 4.54688 38.0938
Q4.54688 41.5469 6.125 44.5
Q7.71875 47.4688 10.4531 49.4219
Q12.5 50.9219 16.0312 51.9688
Q19.5781 53.0312 23.6406 53.0312
Q29.7344 53.0312 34.3438 51.2656
Q38.9688 49.5156 41.1562 46.5
Q43.3594 43.5 44.1875 38.4844
L35.5938 37.3125
Q35.0156 41.3125 32.2031 43.5469
Q29.3906 45.7969 24.2656 45.7969
Q18.2188 45.7969 15.625 43.7969
Q13.0312 41.7969 13.0312 39.1094
Q13.0312 37.4062 14.1094 36.0312
Q15.1875 34.625 17.4844 33.6875
Q18.7969 33.2031 25.25 31.4531
Q34.5781 28.9531 38.25 27.3594
Q41.9375 25.7812 44.0312 22.75
Q46.1406 19.7344 46.1406 15.2344
Q46.1406 10.8438 43.5781 6.95312
Q41.0156 3.07812 36.1719 0.953125
Q31.3438 -1.17188 25.25 -1.17188
Q15.1406 -1.17188 9.84375 3.03125
Q4.54688 7.23438 3.07812 15.4844" id="ArialMT-73"/>
      <path d="
M6.59375 0
L6.59375 51.8594
L14.5 51.8594
L14.5 44.4844
Q20.2188 53.0312 31 53.0312
Q35.6875 53.0312 39.625 51.3438
Q43.5625 49.6562 45.5156 46.9219
Q47.4688 44.1875 48.25 40.4375
Q48.7344 37.9844 48.7344 31.8906
L48.7344 0
L39.9375 0
L39.9375 31.5469
Q39.9375 36.9219 38.9062 39.5781
Q37.8906 42.2344 35.2812 43.8125
Q32.6719 45.4062 29.1562 45.4062
Q23.5312 45.4062 19.4531 41.8438
Q15.375 38.2812 15.375 28.3281
L15.375 0
z
" id="ArialMT-6e"/>
      <path d="
M6.5 0
L6.5 51.8594
L14.4062 51.8594
L14.4062 44
Q17.4375 49.5156 20 51.2656
Q22.5625 53.0312 25.6406 53.0312
Q30.0781 53.0312 34.6719 50.2031
L31.6406 42.0469
Q28.4219 43.9531 25.2031 43.9531
Q22.3125 43.9531 20.0156 42.2188
Q17.7188 40.4844 16.75 37.4062
Q15.2812 32.7188 15.2812 27.1562
L15.2812 0
z
" id="ArialMT-72"/>
      <path d="
M42.0938 16.7031
L51.1719 15.5781
Q49.0312 7.625 43.2188 3.21875
Q37.4062 -1.17188 28.375 -1.17188
Q17 -1.17188 10.3281 5.82812
Q3.65625 12.8438 3.65625 25.4844
Q3.65625 38.5781 10.3906 45.7969
Q17.1406 53.0312 27.875 53.0312
Q38.2812 53.0312 44.875 45.9531
Q51.4688 38.875 51.4688 26.0312
Q51.4688 25.25 51.4219 23.6875
L12.75 23.6875
Q13.2344 15.1406 17.5781 10.5938
Q21.9219 6.0625 28.4219 6.0625
Q33.25 6.0625 36.6719 8.59375
Q40.0938 11.1406 42.0938 16.7031
M13.2344 30.9062
L42.1875 30.9062
Q41.6094 37.4531 38.875 40.7188
Q34.6719 45.7969 27.9844 45.7969
Q21.9219 45.7969 17.7969 41.75
Q13.6719 37.7031 13.2344 30.9062" id="ArialMT-65"/>
     </defs>
     <g style="fill:#262626;" transform="translate(15.07359375 124.23671875)rotate(-90.0)scale(0.11 -0.11)">
      <use xlink:href="#ArialMT-45"/>
      <use x="66.69921875" xlink:href="#ArialMT-78"/>
      <use x="116.69921875" xlink:href="#ArialMT-70"/>
      <use x="172.314453125" xlink:href="#ArialMT-72"/>
      <use x="205.615234375" xlink:href="#ArialMT-65"/>
      <use x="261.23046875" xlink:href="#ArialMT-73"/>
      <use x="311.23046875" xlink:href="#ArialMT-73"/>
      <use x="361.23046875" xlink:href="#ArialMT-69"/>
      <use x="383.447265625" xlink:href="#ArialMT-6f"/>
      <use x="439.0625" xlink:href="#ArialMT-6e"/>
     </g>
    </g>
   </g>
   <g id="line2d_11">
    <path clip-path="url(#pa691a7dfe0)" d="
M45.5786 126.013
L54.7206 138.583
L63.8625 153.433
L73.0045 156.754
L82.1465 147.192
L91.2884 135.207
L100.43 131.608
L109.572 123.362
L118.714 123.031
L127.856 130.484
L136.998 112.967
L146.14 86.8443
L155.282 70.8961
L164.424 72.1598
L173.566 82.7734
L182.708 94.3531
L191.85 88.4937
L200.992 82.1522
L210.134 80.8773
L219.276 82.7139
L228.418 84.1615
L237.56 85.5843
L246.702 80.4978
L255.844 84.3312" style="fill:none;stroke:#d9544d;stroke-linecap:round;"/>
   </g>
   <g id="line2d_12">
    <path clip-path="url(#pa691a7dfe0)" d="
M45.5786 135.579
L54.7206 139.589
L63.8625 146.423
L73.0045 147.806
L82.1465 146.705
L91.2884 142.584
L100.43 139.117
L109.572 131.366
L118.714 125.411
L127.856 119.774
L136.998 106.218
L146.14 98.7121
L155.282 83.8969
L164.424 75.0998
L173.566 75.328
L182.708 78.7716
L191.85 83.9537
L200.992 87.1762
L210.134 81.7165
L219.276 81.7169
L228.418 82.5957
L237.56 82.8305
L246.702 81.2203
L255.844 80.8826" style="fill:none;stroke:#d9544d;stroke-linecap:round;"/>
   </g>
   <g id="line2d_13">
    <path clip-path="url(#pa691a7dfe0)" d="
M45.5786 118.029
L54.7206 133.373
L63.8625 153.78
L73.0045 160.111
L82.1465 156.517
L91.2884 141.452
L100.43 131.153
L109.572 126.568
L118.714 121.014
L127.856 119.318
L136.998 98.2147
L146.14 79.645
L155.282 69.0412
L164.424 73.0993
L173.566 81.0111
L182.708 91.0303
L191.85 86.6069
L200.992 88.1856
L210.134 92.2758
L219.276 92.648
L228.418 87.6906
L237.56 84.2863
L246.702 81.765
L255.844 87.659" style="fill:none;stroke:#d9544d;stroke-linecap:round;"/>
   </g>
   <g id="line2d_14">
    <path clip-path="url(#pa691a7dfe0)" d="
M45.5786 124.52
L54.7206 134.791
L63.8625 153.918
L73.0045 158.365
L82.1465 147.855
L91.2884 137.35
L100.43 130.095
L109.572 129.417
L118.714 117.607
L127.856 111.463
L136.998 94.7687
L146.14 75.5747
L155.282 58.7391
L164.424 61.0387
L173.566 75.4392
L182.708 91.1298
L191.85 85.6024
L200.992 93.2652
L210.134 102.889
L219.276 101.717
L228.418 100.933
L237.56 93.9259
L246.702 84.0968
L255.844 89.9706" style="fill:none;stroke:#d9544d;stroke-linecap:round;"/>
   </g>
   <g id="line2d_15">
    <path clip-path="url(#pa691a7dfe0)" d="
M45.5786 117.125
L54.7206 126.611
L63.8625 139.626
L73.0045 139.441
L82.1465 145.185
L91.2884 145.014
L100.43 138.385
L109.572 132.622
L118.714 128.615
L127.856 121.951
L136.998 93.5997
L146.14 59.7041
L155.282 41.9352
L164.424 58.0854
L173.566 83.0236
L182.708 96.3039
L191.85 96.4414
L200.992 100.221
L210.134 99.2621
L219.276 98.9598
L228.418 102.465
L237.56 96.9151
L246.702 93.2072
L255.844 99.7732" style="fill:none;stroke:#d9544d;stroke-linecap:round;"/>
   </g>
   <g id="line2d_16">
    <path clip-path="url(#pa691a7dfe0)" d="
M45.5786 131.74
L54.7206 137.794
L63.8625 144.327
L73.0045 144.132
L82.1465 146.334
L91.2884 145.297
L100.43 141.688
L109.572 132.711
L118.714 130.589
L127.856 123.92
L136.998 107.481
L146.14 90.7818
L155.282 78.1374
L164.424 77.2942
L173.566 80.9214
L182.708 81.3612
L191.85 83.4568
L200.992 87.5212
L210.134 80.6832
L219.276 79.3695
L228.418 82.4932
L237.56 83.847
L246.702 80.7456
L255.844 81.8463" style="fill:none;stroke:#d9544d;stroke-linecap:round;"/>
   </g>
   <g id="line2d_17">
    <path clip-path="url(#pa691a7dfe0)" d="
M45.5786 125.218
L54.7206 132.99
L63.8625 142.34
L73.0045 146.798
L82.1465 149.251
L91.2884 148.722
L100.43 139.317
L109.572 133.919
L118.714 125.847
L127.856 111.108
L136.998 94.9799
L146.14 84.1612
L155.282 56.6264
L164.424 59.2336
L173.566 76.8888
L182.708 87.3729
L191.85 99.0811
L200.992 100.622
L210.134 90.4106
L219.276 90.3033
L228.418 90.9957
L237.56 96.8984
L246.702 83.4329
L255.844 87.9563" style="fill:none;stroke:#d9544d;stroke-linecap:round;"/>
   </g>
   <g id="line2d_18">
    <path clip-path="url(#pa691a7dfe0)" d="
M45.5786 131.403
L54.7206 136.993
L63.8625 142.125
L73.0045 145.204
L82.1465 138.484
L91.2884 132.606
L100.43 139.841
L109.572 144.943
L118.714 133.836
L127.856 124.026
L136.998 110.088
L146.14 95.6403
L155.282 78.1951
L164.424 84.8662
L173.566 95.1233
L182.708 99.879
L191.85 90.0405
L200.992 74.7307
L210.134 72.3226
L219.276 73.3991
L228.418 76.8914
L237.56 86.2925
L246.702 73.4672
L255.844 74.0749" style="fill:none;stroke:#d9544d;stroke-linecap:round;"/>
   </g>
   <g id="line2d_19">
    <path clip-path="url(#pa691a7dfe0)" d="
M45.5786 138.271
L54.7206 139.514
L63.8625 143.391
L73.0045 143.182
L82.1465 140.493
L91.2884 135.587
L100.43 137.732
L109.572 141.598
L118.714 134.279
L127.856 125.869
L136.998 108.092
L146.14 93.3494
L155.282 78.8398
L164.424 74.4837
L173.566 77.2409
L182.708 80.7043
L191.85 81.4735
L200.992 82.6389
L210.134 79.2307
L219.276 80.9695
L228.418 82.8479
L237.56 85.7749
L246.702 82.2615
L255.844 86.6484" style="fill:none;stroke:#d9544d;stroke-linecap:round;"/>
   </g>
   <g id="line2d_20">
    <path clip-path="url(#pa691a7dfe0)" d="
M45.5786 139.015
L54.7206 139.514
L63.8625 139.547
L73.0045 141.203
L82.1465 137.991
L91.2884 135.47
L100.43 145.773
L109.572 147.239
L118.714 130.781
L127.856 114.269
L136.998 91.9915
L146.14 78.587
L155.282 63.0474
L164.424 66.0673
L173.566 77.3096
L182.708 84.5402
L191.85 86.2116
L200.992 91.8557
L210.134 95.7213
L219.276 94.4308
L228.418 90.796
L237.56 92.9283
L246.702 84.1786
L255.844 86.0049" style="fill:none;stroke:#d9544d;stroke-linecap:round;"/>
   </g>
   <g id="line2d_21">
    <path clip-path="url(#pa691a7dfe0)" d="
M45.5786 123.47
L54.7206 130.796
L63.8625 137.583
L73.0045 138.681
L82.1465 141.529
L91.2884 144.032
L100.43 146.3
L109.572 143.527
L118.714 138.993
L127.856 130.724
L136.998 108.357
L146.14 89.386
L155.282 75.8835
L164.424 73.6134
L173.566 74.7348
L182.708 72.489
L191.85 76.5417
L200.992 88.4775
L210.134 86.8643
L219.276 86.0232
L228.418 87.8764
L237.56 85.7702
L246.702 84.8312
L255.844 87.9888" style="fill:none;stroke:#d9544d;stroke-linecap:round;"/>
   </g>
   <g id="patch_3">
    <path d="
M45.5786 174.898
L45.5786 20.7894" style="fill:none;stroke:#262626;stroke-linecap:square;stroke-linejoin:miter;stroke-width:1.25;"/>
   </g>
   <g id="patch_4">
    <path d="
M45.5786 174.898
L255.844 174.898" style="fill:none;stroke:#262626;stroke-linecap:square;stroke-linejoin:miter;stroke-width:1.25;"/>
   </g>
   <g id="text_12">
    <!-- Botrytis -->
    <defs>
     <path d="
M7.32812 0
L7.32812 71.5781
L34.1875 71.5781
Q42.3906 71.5781 47.3438 69.4062
Q52.2969 67.2344 55.0938 62.7188
Q57.9062 58.2031 57.9062 53.2656
Q57.9062 48.6875 55.4219 44.625
Q52.9375 40.5781 47.9062 38.0938
Q54.3906 36.1875 57.875 31.5938
Q61.375 27 61.375 20.75
Q61.375 15.7188 59.25 11.3906
Q57.125 7.07812 54 4.73438
Q50.875 2.39062 46.1562 1.1875
Q41.4531 0 34.625 0
z

M16.7969 41.5
L32.2812 41.5
Q38.5781 41.5 41.3125 42.3281
Q44.9219 43.4062 46.75 45.8906
Q48.5781 48.3906 48.5781 52.1562
Q48.5781 55.7188 46.875 58.4219
Q45.1719 61.1406 41.9844 62.1406
Q38.8125 63.1406 31.1094 63.1406
L16.7969 63.1406
z

M16.7969 8.45312
L34.625 8.45312
Q39.2031 8.45312 41.0625 8.79688
Q44.3438 9.375 46.5312 10.7344
Q48.7344 12.1094 50.1406 14.7188
Q51.5625 17.3281 51.5625 20.75
Q51.5625 24.75 49.5156 27.7031
Q47.4688 30.6719 43.8281 31.8594
Q40.1875 33.0625 33.3438 33.0625
L16.7969 33.0625
z
" id="ArialMT-42"/>
     <path d="
M6.20312 -19.9688
L5.21875 -11.7188
Q8.10938 -12.5 10.25 -12.5
Q13.1875 -12.5 14.9375 -11.5156
Q16.7031 -10.5469 17.8281 -8.79688
Q18.6562 -7.46875 20.5156 -2.25
Q20.75 -1.51562 21.2969 -0.09375
L1.60938 51.8594
L11.0781 51.8594
L21.875 21.8281
Q23.9688 16.1094 25.6406 9.8125
Q27.1562 15.875 29.25 21.625
L40.3281 51.8594
L49.125 51.8594
L29.3906 -0.875
Q26.2188 -9.42188 24.4688 -12.6406
Q22.125 -17 19.0938 -19.0156
Q16.0625 -21.0469 11.8594 -21.0469
Q9.32812 -21.0469 6.20312 -19.9688" id="ArialMT-79"/>
     <path d="
M25.7812 7.85938
L27.0469 0.09375
Q23.3438 -0.6875 20.4062 -0.6875
Q15.625 -0.6875 12.9844 0.828125
Q10.3594 2.34375 9.28125 4.8125
Q8.20312 7.28125 8.20312 15.1875
L8.20312 45.0156
L1.76562 45.0156
L1.76562 51.8594
L8.20312 51.8594
L8.20312 64.7031
L16.9375 69.9688
L16.9375 51.8594
L25.7812 51.8594
L25.7812 45.0156
L16.9375 45.0156
L16.9375 14.7031
Q16.9375 10.9375 17.4062 9.85938
Q17.875 8.79688 18.9219 8.15625
Q19.9688 7.51562 21.9219 7.51562
Q23.3906 7.51562 25.7812 7.85938" id="ArialMT-74"/>
    </defs>
    <g style="fill:#262626;" transform="translate(131.3790625 15.789375)scale(0.12 -0.12)">
     <use xlink:href="#ArialMT-42"/>
     <use x="66.69921875" xlink:href="#ArialMT-6f"/>
     <use x="122.314453125" xlink:href="#ArialMT-74"/>
     <use x="150.09765625" xlink:href="#ArialMT-72"/>
     <use x="183.3984375" xlink:href="#ArialMT-79"/>
     <use x="233.3984375" xlink:href="#ArialMT-74"/>
     <use x="261.181640625" xlink:href="#ArialMT-69"/>
     <use x="283.3984375" xlink:href="#ArialMT-73"/>
    </g>
   </g>
  </g>
  <g id="axes_2">
   <g id="patch_5">
    <path d="
M268.804 174.898
L479.069 174.898
L479.069 20.7894
L268.804 20.7894
z
" style="fill:#ffffff;"/>
   </g>
   <g id="matplotlib.axis_3">
    <g id="xtick_5">
     <g id="line2d_22">
      <g>
       <use style="fill:#262626;stroke:#262626;" x="279.317171875" xlink:href="#me1deecec79" y="174.8978125"/>
      </g>
     </g>
     <g id="text_13">
      <!-- 20 -->
      <g style="fill:#262626;" transform="translate(274.142171875 195.055625)scale(0.1 -0.1)">
       <use xlink:href="#ArialMT-32"/>
       <use x="55.615234375" xlink:href="#ArialMT-30"/>
      </g>
     </g>
    </g>
    <g id="xtick_6">
     <g id="line2d_23">
      <g>
       <use style="fill:#262626;stroke:#262626;" x="331.8835" xlink:href="#me1deecec79" y="174.8978125"/>
      </g>
     </g>
     <g id="text_14">
      <!-- 25 -->
      <defs>
       <path d="
M4.15625 18.75
L13.375 19.5312
Q14.4062 12.7969 18.1406 9.39062
Q21.875 6 27.1562 6
Q33.5 6 37.8906 10.7812
Q42.2812 15.5781 42.2812 23.4844
Q42.2812 31 38.0625 35.3438
Q33.8438 39.7031 27 39.7031
Q22.75 39.7031 19.3281 37.7656
Q15.9219 35.8438 13.9688 32.7656
L5.71875 33.8438
L12.6406 70.6094
L48.25 70.6094
L48.25 62.2031
L19.6719 62.2031
L15.8281 42.9688
Q22.2656 47.4688 29.3438 47.4688
Q38.7188 47.4688 45.1562 40.9688
Q51.6094 34.4688 51.6094 24.2656
Q51.6094 14.5469 45.9531 7.46875
Q39.0625 -1.21875 27.1562 -1.21875
Q17.3906 -1.21875 11.2031 4.25
Q5.03125 9.71875 4.15625 18.75" id="ArialMT-35"/>
      </defs>
      <g style="fill:#262626;" transform="translate(326.6694375 195.055625)scale(0.1 -0.1)">
       <use xlink:href="#ArialMT-32"/>
       <use x="55.615234375" xlink:href="#ArialMT-35"/>
      </g>
     </g>
    </g>
    <g id="xtick_7">
     <g id="line2d_24">
      <g>
       <use style="fill:#262626;stroke:#262626;" x="384.449828125" xlink:href="#me1deecec79" y="174.8978125"/>
      </g>
     </g>
     <g id="text_15">
      <!-- 30 -->
      <g style="fill:#262626;" transform="translate(379.338109375 195.055625)scale(0.1 -0.1)">
       <use xlink:href="#ArialMT-33"/>
       <use x="55.615234375" xlink:href="#ArialMT-30"/>
      </g>
     </g>
    </g>
    <g id="xtick_8">
     <g id="line2d_25">
      <g>
       <use style="fill:#262626;stroke:#262626;" x="437.01615625" xlink:href="#me1deecec79" y="174.8978125"/>
      </g>
     </g>
     <g id="text_16">
      <!-- 35 -->
      <g style="fill:#262626;" transform="translate(431.865375 195.055625)scale(0.1 -0.1)">
       <use xlink:href="#ArialMT-33"/>
       <use x="55.615234375" xlink:href="#ArialMT-35"/>
      </g>
     </g>
    </g>
   </g>
   <g id="matplotlib.axis_4">
    <g id="ytick_7">
     <g id="line2d_26">
      <g>
       <use style="fill:#262626;stroke:#262626;" x="268.80390625" xlink:href="#m4aded61697" y="162.712452164"/>
      </g>
     </g>
    </g>
    <g id="ytick_8">
     <g id="line2d_27">
      <g>
       <use style="fill:#262626;stroke:#262626;" x="268.80390625" xlink:href="#m4aded61697" y="134.574399712"/>
      </g>
     </g>
    </g>
    <g id="ytick_9">
     <g id="line2d_28">
      <g>
       <use style="fill:#262626;stroke:#262626;" x="268.80390625" xlink:href="#m4aded61697" y="106.436347259"/>
      </g>
     </g>
    </g>
    <g id="ytick_10">
     <g id="line2d_29">
      <g>
       <use style="fill:#262626;stroke:#262626;" x="268.80390625" xlink:href="#m4aded61697" y="78.2982948073"/>
      </g>
     </g>
    </g>
    <g id="ytick_11">
     <g id="line2d_30">
      <g>
       <use style="fill:#262626;stroke:#262626;" x="268.80390625" xlink:href="#m4aded61697" y="50.1602423551"/>
      </g>
     </g>
    </g>
    <g id="ytick_12">
     <g id="line2d_31">
      <g>
       <use style="fill:#262626;stroke:#262626;" x="268.80390625" xlink:href="#m4aded61697" y="22.022189903"/>
      </g>
     </g>
    </g>
   </g>
   <g id="line2d_32">
    <path clip-path="url(#pa61dcb5892)" d="
M268.804 126.962
L289.83 128.967
L310.857 121.186
L331.884 111.621
L352.91 119.644
L373.937 129.189
L394.963 125.015
L415.99 110.873
L437.016 86.8646
L458.043 60.7947
L479.069 49.683" style="fill:none;stroke:#03012d;stroke-linecap:round;"/>
   </g>
   <g id="line2d_33">
    <path clip-path="url(#pa61dcb5892)" d="
M268.804 139.719
L289.83 139.576
L310.857 134.978
L331.884 117.677
L352.91 120.782
L373.937 116.588
L394.963 99.123
L415.99 90.8597
L437.016 83.4963
L458.043 68.3406
L479.069 59.6598" style="fill:none;stroke:#03012d;stroke-linecap:round;"/>
   </g>
   <g id="line2d_34">
    <path clip-path="url(#pa61dcb5892)" d="
M268.804 79.016
L289.83 82.7702
L310.857 78.2845
L331.884 83.6827
L352.91 92.5191
L373.937 90.5827
L394.963 107.076
L415.99 133.317
L437.016 157.097
L458.043 141.14
L479.069 125.314" style="fill:none;stroke:#03012d;stroke-linecap:round;"/>
   </g>
   <g id="line2d_35">
    <path clip-path="url(#pa61dcb5892)" d="
M268.804 105.26
L289.83 120.972
L310.857 95.5612
L331.884 77.1203
L352.91 88.8914
L373.937 74.8301
L394.963 80.6814
L415.99 130.704
L437.016 169.19
L458.043 121.599
L479.069 105.991" style="fill:none;stroke:#03012d;stroke-linecap:round;"/>
   </g>
   <g id="line2d_36">
    <path clip-path="url(#pa61dcb5892)" d="
M268.804 109.414
L289.83 123.172
L310.857 93.9335
L331.884 54.6392
L352.91 88.8426
L373.937 134.016
L394.963 141.442
L415.99 133.722
L437.016 120.814
L458.043 103.536
L479.069 67.269" style="fill:none;stroke:#03012d;stroke-linecap:round;"/>
   </g>
   <g id="line2d_37">
    <path clip-path="url(#pa61dcb5892)" d="
M268.804 142.983
L289.83 140.018
L310.857 129.373
L331.884 118.477
L352.91 118.653
L373.937 114.583
L394.963 104.227
L415.99 94.9047
L437.016 82.2244
L458.043 65.3053
L479.069 60.0514" style="fill:none;stroke:#03012d;stroke-linecap:round;"/>
   </g>
   <g id="line2d_38">
    <path clip-path="url(#pa61dcb5892)" d="
M268.804 110.159
L289.83 116.316
L310.857 108.384
L331.884 97.3314
L352.91 131.638
L373.937 122.475
L394.963 109.306
L415.99 115.751
L437.016 124.846
L458.043 108.095
L479.069 26.4971" style="fill:none;stroke:#03012d;stroke-linecap:round;"/>
   </g>
   <g id="line2d_39">
    <path clip-path="url(#pa61dcb5892)" d="
M268.804 131.906
L289.83 129.809
L310.857 124.207
L331.884 114.637
L352.91 124.062
L373.937 131.298
L394.963 121.925
L415.99 95.0822
L437.016 74.8897
L458.043 63.3305
L479.069 59.6539" style="fill:none;stroke:#03012d;stroke-linecap:round;"/>
   </g>
   <g id="line2d_40">
    <path clip-path="url(#pa61dcb5892)" d="
M268.804 142.119
L289.83 144.567
L310.857 134.853
L331.884 121.734
L352.91 115.357
L373.937 111.031
L394.963 97.7556
L415.99 86.8672
L437.016 78.6953
L458.043 70.3055
L479.069 67.5158" style="fill:none;stroke:#03012d;stroke-linecap:round;"/>
   </g>
   <g id="line2d_41">
    <path clip-path="url(#pa61dcb5892)" d="
M268.804 138.416
L289.83 133.247
L310.857 123.992
L331.884 108.825
L352.91 126.425
L373.937 129.476
L394.963 104.604
L415.99 101.474
L437.016 75.4686
L458.043 50.0038
L479.069 78.8671" style="fill:none;stroke:#03012d;stroke-linecap:round;"/>
   </g>
   <g id="line2d_42">
    <path clip-path="url(#pa61dcb5892)" d="
M268.804 118.123
L289.83 121.958
L310.857 112.412
L331.884 110.383
L352.91 128.851
L373.937 136.062
L394.963 126.694
L415.99 114.188
L437.016 92.5961
L458.043 62.0754
L479.069 47.456" style="fill:none;stroke:#03012d;stroke-linecap:round;"/>
   </g>
   <g id="patch_6">
    <path d="
M268.804 174.898
L268.804 20.7894" style="fill:none;stroke:#262626;stroke-linecap:square;stroke-linejoin:miter;stroke-width:1.25;"/>
   </g>
   <g id="patch_7">
    <path d="
M268.804 174.898
L479.069 174.898" style="fill:none;stroke:#262626;stroke-linecap:square;stroke-linejoin:miter;stroke-width:1.25;"/>
   </g>
   <g id="text_17">
    <!-- Senescence -->
    <defs>
     <path d="
M4.5 23
L13.4219 23.7812
Q14.0625 18.4062 16.375 14.9688
Q18.7031 11.5312 23.5781 9.40625
Q28.4688 7.28125 34.5781 7.28125
Q39.9844 7.28125 44.1406 8.89062
Q48.2969 10.5 50.3125 13.2969
Q52.3438 16.1094 52.3438 19.4375
Q52.3438 22.7969 50.3906 25.3125
Q48.4375 27.8281 43.9531 29.5469
Q41.0625 30.6719 31.2031 33.0312
Q21.3438 35.4062 17.3906 37.5
Q12.25 40.1875 9.73438 44.1562
Q7.23438 48.1406 7.23438 53.0781
Q7.23438 58.5 10.2969 63.2031
Q13.375 67.9219 19.2812 70.3594
Q25.2031 72.7969 32.4219 72.7969
Q40.375 72.7969 46.4531 70.2344
Q52.5469 67.6719 55.8125 62.6875
Q59.0781 57.7188 59.3281 51.4219
L50.25 50.7344
Q49.5156 57.5156 45.2812 60.9844
Q41.0625 64.4531 32.8125 64.4531
Q24.2188 64.4531 20.2812 61.2969
Q16.3594 58.1562 16.3594 53.7188
Q16.3594 49.8594 19.1406 47.3594
Q21.875 44.875 33.4219 42.2656
Q44.9688 39.6562 49.2656 37.7031
Q55.5156 34.8125 58.4844 30.3906
Q61.4688 25.9844 61.4688 20.2188
Q61.4688 14.5 58.2031 9.4375
Q54.9375 4.39062 48.7969 1.57812
Q42.6719 -1.21875 35.0156 -1.21875
Q25.2969 -1.21875 18.7188 1.60938
Q12.1562 4.4375 8.42188 10.125
Q4.6875 15.8281 4.5 23" id="ArialMT-53"/>
     <path d="
M40.4375 19
L49.0781 17.875
Q47.6562 8.9375 41.8125 3.875
Q35.9844 -1.17188 27.4844 -1.17188
Q16.8438 -1.17188 10.375 5.78125
Q3.90625 12.75 3.90625 25.7344
Q3.90625 34.125 6.6875 40.4219
Q9.46875 46.7344 15.1562 49.875
Q20.8438 53.0312 27.5469 53.0312
Q35.9844 53.0312 41.3594 48.75
Q46.7344 44.4844 48.25 36.625
L39.7031 35.2969
Q38.4844 40.5312 35.375 43.1562
Q32.2812 45.7969 27.875 45.7969
Q21.2344 45.7969 17.0781 41.0312
Q12.9375 36.2812 12.9375 25.9844
Q12.9375 15.5312 16.9375 10.7969
Q20.9531 6.0625 27.3906 6.0625
Q32.5625 6.0625 36.0312 9.23438
Q39.5 12.4062 40.4375 19" id="ArialMT-63"/>
    </defs>
    <g style="fill:#262626;" transform="translate(341.4334375 15.789375)scale(0.12 -0.12)">
     <use xlink:href="#ArialMT-53"/>
     <use x="66.69921875" xlink:href="#ArialMT-65"/>
     <use x="122.314453125" xlink:href="#ArialMT-6e"/>
     <use x="177.9296875" xlink:href="#ArialMT-65"/>
     <use x="233.544921875" xlink:href="#ArialMT-73"/>
     <use x="283.544921875" xlink:href="#ArialMT-63"/>
     <use x="333.544921875" xlink:href="#ArialMT-65"/>
     <use x="389.16015625" xlink:href="#ArialMT-6e"/>
     <use x="444.775390625" xlink:href="#ArialMT-63"/>
     <use x="494.775390625" xlink:href="#ArialMT-65"/>
    </g>
   </g>
  </g>
  <g id="axes_3">
   <g id="patch_8">
    <path d="
M492.029 174.898
L702.295 174.898
L702.295 20.7894
L492.029 20.7894
z
" style="fill:#ffffff;"/>
   </g>
   <g id="matplotlib.axis_5">
    <g id="xtick_9">
     <g id="line2d_43">
      <g>
       <use style="fill:#262626;stroke:#262626;" x="532.292789229" xlink:href="#me1deecec79" y="174.8978125"/>
      </g>
     </g>
     <g id="text_18">
      <!-- 5 -->
      <g style="fill:#262626;" transform="translate(529.920132979 195.055625)scale(0.1 -0.1)">
       <use xlink:href="#ArialMT-35"/>
      </g>
     </g>
    </g>
    <g id="xtick_10">
     <g id="line2d_44">
      <g>
       <use style="fill:#262626;stroke:#262626;" x="577.030089761" xlink:href="#me1deecec79" y="174.8978125"/>
      </g>
     </g>
     <g id="text_19">
      <!-- 10 -->
      <g style="fill:#262626;" transform="translate(572.252746011 195.055625)scale(0.1 -0.1)">
       <use xlink:href="#ArialMT-31"/>
       <use x="55.615234375" xlink:href="#ArialMT-30"/>
      </g>
     </g>
    </g>
    <g id="xtick_11">
     <g id="line2d_45">
      <g>
       <use style="fill:#262626;stroke:#262626;" x="621.767390293" xlink:href="#me1deecec79" y="174.8978125"/>
      </g>
     </g>
     <g id="text_20">
      <!-- 15 -->
      <g style="fill:#262626;" transform="translate(616.950984043 195.055625)scale(0.1 -0.1)">
       <use xlink:href="#ArialMT-31"/>
       <use x="55.615234375" xlink:href="#ArialMT-35"/>
      </g>
     </g>
    </g>
    <g id="xtick_12">
     <g id="line2d_46">
      <g>
       <use style="fill:#262626;stroke:#262626;" x="666.504690824" xlink:href="#me1deecec79" y="174.8978125"/>
      </g>
     </g>
     <g id="text_21">
      <!-- 20 -->
      <g style="fill:#262626;" transform="translate(661.329690824 195.055625)scale(0.1 -0.1)">
       <use xlink:href="#ArialMT-32"/>
       <use x="55.615234375" xlink:href="#ArialMT-30"/>
      </g>
     </g>
    </g>
   </g>
   <g id="matplotlib.axis_6">
    <g id="ytick_13">
     <g id="line2d_47">
      <g>
       <use style="fill:#262626;stroke:#262626;" x="492.02921875" xlink:href="#m4aded61697" y="162.712452164"/>
      </g>
     </g>
    </g>
    <g id="ytick_14">
     <g id="line2d_48">
      <g>
       <use style="fill:#262626;stroke:#262626;" x="492.02921875" xlink:href="#m4aded61697" y="134.574399712"/>
      </g>
     </g>
    </g>
    <g id="ytick_15">
     <g id="line2d_49">
      <g>
       <use style="fill:#262626;stroke:#262626;" x="492.02921875" xlink:href="#m4aded61697" y="106.436347259"/>
      </g>
     </g>
    </g>
    <g id="ytick_16">
     <g id="line2d_50">
      <g>
       <use style="fill:#262626;stroke:#262626;" x="492.02921875" xlink:href="#m4aded61697" y="78.2982948073"/>
      </g>
     </g>
    </g>
    <g id="ytick_17">
     <g id="line2d_51">
      <g>
       <use style="fill:#262626;stroke:#262626;" x="492.02921875" xlink:href="#m4aded61697" y="50.1602423551"/>
      </g>
     </g>
    </g>
    <g id="ytick_18">
     <g id="line2d_52">
      <g>
       <use style="fill:#262626;stroke:#262626;" x="492.02921875" xlink:href="#m4aded61697" y="22.022189903"/>
      </g>
     </g>
    </g>
   </g>
   <g id="line2d_53">
    <path clip-path="url(#p3aeff855be)" d="
M492.029 143.234
L496.503 134.494
L514.398 106.872
L541.24 100.506
L594.925 73.5729
L702.295 79.9389" style="fill:none;stroke:#d9544d;stroke-linecap:round;"/>
   </g>
   <g id="line2d_54">
    <path clip-path="url(#p3aeff855be)" d="
M492.029 141.8
L496.503 131.999
L514.398 118.444
L541.24 91.6862
L594.925 76.9753
L702.295 77.7135" style="fill:none;stroke:#d9544d;stroke-linecap:round;"/>
   </g>
   <g id="line2d_55">
    <path clip-path="url(#p3aeff855be)" d="
M492.029 137.661
L496.503 133.023
L514.398 114.678
L541.24 105.386
L594.925 80.8354
L702.295 67.0347" style="fill:none;stroke:#d9544d;stroke-linecap:round;"/>
   </g>
   <g id="line2d_56">
    <path clip-path="url(#p3aeff855be)" d="
M492.029 136.505
L496.503 134.018
L514.398 121.38
L541.24 95.9406
L594.925 79.4109
L702.295 71.3642" style="fill:none;stroke:#d9544d;stroke-linecap:round;"/>
   </g>
   <g id="line2d_57">
    <path clip-path="url(#p3aeff855be)" d="
M492.029 135.696
L496.503 140.249
L514.398 110.635
L541.24 101.007
L594.925 75.6591
L702.295 75.3719" style="fill:none;stroke:#d9544d;stroke-linecap:round;"/>
   </g>
   <g id="line2d_58">
    <path clip-path="url(#p3aeff855be)" d="
M492.029 143.092
L496.503 130.029
L514.398 112.792
L541.24 101.394
L594.925 82.6514
L702.295 68.6605" style="fill:none;stroke:#d9544d;stroke-linecap:round;"/>
   </g>
   <g id="line2d_59">
    <path clip-path="url(#p3aeff855be)" d="
M492.029 142.181
L496.503 133.607
L514.398 111.402
L541.24 96.9584
L594.925 69.3948
L702.295 85.0753" style="fill:none;stroke:#d9544d;stroke-linecap:round;"/>
   </g>
   <g id="line2d_60">
    <path clip-path="url(#p3aeff855be)" d="
M492.029 139.608
L496.503 135.168
L514.398 113.065
L541.24 99.6585
L594.925 79.8159
L702.295 71.3027" style="fill:none;stroke:#d9544d;stroke-linecap:round;"/>
   </g>
   <g id="line2d_61">
    <path clip-path="url(#p3aeff855be)" d="
M492.029 138.574
L496.503 135.59
L514.398 109.885
L541.24 104.83
L594.925 80.7256
L702.295 69.0138" style="fill:none;stroke:#d9544d;stroke-linecap:round;"/>
   </g>
   <g id="line2d_62">
    <path clip-path="url(#p3aeff855be)" d="
M492.029 145.555
L496.503 131.648
L514.398 108.354
L541.24 99.0998
L594.925 77.1068
L702.295 76.854" style="fill:none;stroke:#d9544d;stroke-linecap:round;"/>
   </g>
   <g id="line2d_63">
    <path clip-path="url(#p3aeff855be)" d="
M492.029 140.629
L496.503 132.858
L514.398 118.385
L541.24 93.2182
L594.925 79.3304
L702.295 74.1978" style="fill:none;stroke:#d9544d;stroke-linecap:round;"/>
   </g>
   <g id="patch_9">
    <path d="
M492.029 174.898
L492.029 20.7894" style="fill:none;stroke:#262626;stroke-linecap:square;stroke-linejoin:miter;stroke-width:1.25;"/>
   </g>
   <g id="patch_10">
    <path d="
M492.029 174.898
L702.295 174.898" style="fill:none;stroke:#262626;stroke-linecap:square;stroke-linejoin:miter;stroke-width:1.25;"/>
   </g>
   <g id="text_22">
    <!-- Root Cold -->
    <defs>
     <path d="
M7.85938 0
L7.85938 71.5781
L39.5938 71.5781
Q49.1719 71.5781 54.1406 69.6406
Q59.125 67.7188 62.1094 62.8281
Q65.0938 57.9531 65.0938 52.0469
Q65.0938 44.4375 60.1562 39.2031
Q55.2188 33.9844 44.9219 32.5625
Q48.6875 30.7656 50.6406 29
Q54.7812 25.2031 58.5 19.4844
L70.9531 0
L59.0312 0
L49.5625 14.8906
Q45.4062 21.3438 42.7188 24.75
Q40.0469 28.1719 37.9219 29.5312
Q35.7969 30.9062 33.5938 31.4531
Q31.9844 31.7812 28.3281 31.7812
L17.3281 31.7812
L17.3281 0
z

M17.3281 39.9844
L37.7031 39.9844
Q44.1875 39.9844 47.8438 41.3281
Q51.5156 42.6719 53.4219 45.625
Q55.3281 48.5781 55.3281 52.0469
Q55.3281 57.125 51.6406 60.3906
Q47.9531 63.6719 39.9844 63.6719
L17.3281 63.6719
z
" id="ArialMT-52"/>
     <path d="
M58.7969 25.0938
L68.2656 22.7031
Q65.2812 11.0312 57.5469 4.90625
Q49.8125 -1.21875 38.625 -1.21875
Q27.0469 -1.21875 19.7969 3.48438
Q12.5469 8.20312 8.76562 17.1406
Q4.98438 26.0781 4.98438 36.3281
Q4.98438 47.5156 9.25 55.8281
Q13.5312 64.1562 21.4062 68.4688
Q29.2969 72.7969 38.7656 72.7969
Q49.5156 72.7969 56.8281 67.3281
Q64.1562 61.8594 67.0469 51.9531
L57.7188 49.75
Q55.2188 57.5625 50.4844 61.125
Q45.75 64.7031 38.5781 64.7031
Q30.3281 64.7031 24.7812 60.7344
Q19.2344 56.7812 16.9844 50.1094
Q14.75 43.4531 14.75 36.375
Q14.75 27.25 17.4062 20.4375
Q20.0625 13.625 25.6719 10.25
Q31.2969 6.89062 37.8438 6.89062
Q45.7969 6.89062 51.3125 11.4688
Q56.8438 16.0625 58.7969 25.0938" id="ArialMT-43"/>
     <path id="ArialMT-20"/>
     <path d="
M40.2344 0
L40.2344 6.54688
Q35.2969 -1.17188 25.7344 -1.17188
Q19.5312 -1.17188 14.3281 2.25
Q9.125 5.67188 6.26562 11.7969
Q3.42188 17.9219 3.42188 25.875
Q3.42188 33.6406 6 39.9688
Q8.59375 46.2969 13.7656 49.6562
Q18.9531 53.0312 25.3438 53.0312
Q30.0312 53.0312 33.6875 51.0469
Q37.3594 49.0781 39.6562 45.9062
L39.6562 71.5781
L48.3906 71.5781
L48.3906 0
z

M12.4531 25.875
Q12.4531 15.9219 16.6406 10.9844
Q20.8438 6.0625 26.5625 6.0625
Q32.3281 6.0625 36.3438 10.7656
Q40.375 15.4844 40.375 25.1406
Q40.375 35.7969 36.2656 40.7656
Q32.1719 45.75 26.1719 45.75
Q20.3125 45.75 16.375 40.9688
Q12.4531 36.1875 12.4531 25.875" id="ArialMT-64"/>
     <path d="
M6.39062 0
L6.39062 71.5781
L15.1875 71.5781
L15.1875 0
z
" id="ArialMT-6c"/>
    </defs>
    <g style="fill:#262626;" transform="translate(570.915625 15.789375)scale(0.12 -0.12)">
     <use xlink:href="#ArialMT-52"/>
     <use x="72.216796875" xlink:href="#ArialMT-6f"/>
     <use x="127.83203125" xlink:href="#ArialMT-6f"/>
     <use x="183.447265625" xlink:href="#ArialMT-74"/>
     <use x="211.23046875" xlink:href="#ArialMT-20"/>
     <use x="239.013671875" xlink:href="#ArialMT-43"/>
     <use x="311.23046875" xlink:href="#ArialMT-6f"/>
     <use x="366.845703125" xlink:href="#ArialMT-6c"/>
     <use x="389.0625" xlink:href="#ArialMT-64"/>
    </g>
   </g>
  </g>
  <g id="axes_4">
   <g id="patch_11">
    <path d="
M45.5786 377.418
L255.844 377.418
L255.844 223.309
L45.5786 223.309
z
" style="fill:#ffffff;"/>
   </g>
   <g id="matplotlib.axis_7">
    <g id="xtick_13">
     <g id="line2d_64">
      <g>
       <use style="fill:#262626;stroke:#262626;" x="87.63165625" xlink:href="#me1deecec79" y="377.4178125"/>
      </g>
     </g>
     <g id="text_23">
      <!-- 5 -->
      <g style="fill:#262626;" transform="translate(85.259 397.575625)scale(0.1 -0.1)">
       <use xlink:href="#ArialMT-35"/>
      </g>
     </g>
    </g>
    <g id="xtick_14">
     <g id="line2d_65">
      <g>
       <use style="fill:#262626;stroke:#262626;" x="131.898037829" xlink:href="#me1deecec79" y="377.4178125"/>
      </g>
     </g>
     <g id="text_24">
      <!-- 10 -->
      <g style="fill:#262626;" transform="translate(127.120694079 397.575625)scale(0.1 -0.1)">
       <use xlink:href="#ArialMT-31"/>
       <use x="55.615234375" xlink:href="#ArialMT-30"/>
      </g>
     </g>
    </g>
    <g id="xtick_15">
     <g id="line2d_66">
      <g>
       <use style="fill:#262626;stroke:#262626;" x="176.164419408" xlink:href="#me1deecec79" y="377.4178125"/>
      </g>
     </g>
     <g id="text_25">
      <!-- 15 -->
      <g style="fill:#262626;" transform="translate(171.348013158 397.575625)scale(0.1 -0.1)">
       <use xlink:href="#ArialMT-31"/>
       <use x="55.615234375" xlink:href="#ArialMT-35"/>
      </g>
     </g>
    </g>
    <g id="xtick_16">
     <g id="line2d_67">
      <g>
       <use style="fill:#262626;stroke:#262626;" x="220.430800987" xlink:href="#me1deecec79" y="377.4178125"/>
      </g>
     </g>
     <g id="text_26">
      <!-- 20 -->
      <g style="fill:#262626;" transform="translate(215.255800987 397.575625)scale(0.1 -0.1)">
       <use xlink:href="#ArialMT-32"/>
       <use x="55.615234375" xlink:href="#ArialMT-30"/>
      </g>
     </g>
    </g>
    <g id="text_27">
     <!-- Time -->
     <defs>
      <path d="
M6.59375 0
L6.59375 51.8594
L14.4531 51.8594
L14.4531 44.5781
Q16.8906 48.3906 20.9375 50.7031
Q25 53.0312 30.1719 53.0312
Q35.9375 53.0312 39.625 50.6406
Q43.3125 48.25 44.8281 43.9531
Q50.9844 53.0312 60.8438 53.0312
Q68.5625 53.0312 72.7031 48.75
Q76.8594 44.4844 76.8594 35.5938
L76.8594 0
L68.1094 0
L68.1094 32.6719
Q68.1094 37.9375 67.25 40.25
Q66.4062 42.5781 64.1562 43.9844
Q61.9219 45.4062 58.8906 45.4062
Q53.4219 45.4062 49.7969 41.7656
Q46.1875 38.1406 46.1875 30.125
L46.1875 0
L37.4062 0
L37.4062 33.6875
Q37.4062 39.5469 35.25 42.4688
Q33.1094 45.4062 28.2188 45.4062
Q24.5156 45.4062 21.3594 43.4531
Q18.2188 41.5 16.7969 37.7344
Q15.375 33.9844 15.375 26.9062
L15.375 0
z
" id="ArialMT-6d"/>
      <path d="
M25.9219 0
L25.9219 63.1406
L2.34375 63.1406
L2.34375 71.5781
L59.0781 71.5781
L59.0781 63.1406
L35.4062 63.1406
L35.4062 0
z
" id="ArialMT-54"/>
     </defs>
     <g style="fill:#262626;" transform="translate(139.05296875 412.43671875)scale(0.11 -0.11)">
      <use xlink:href="#ArialMT-54"/>
      <use x="57.333984375" xlink:href="#ArialMT-69"/>
      <use x="79.55078125" xlink:href="#ArialMT-6d"/>
      <use x="162.8515625" xlink:href="#ArialMT-65"/>
     </g>
    </g>
   </g>
   <g id="matplotlib.axis_8">
    <g id="ytick_19">
     <g id="line2d_68">
      <g>
       <use style="fill:#262626;stroke:#262626;" x="45.57859375" xlink:href="#m4aded61697" y="365.232452164"/>
      </g>
     </g>
     <g id="text_28">
      <!-- −2 -->
      <g style="fill:#262626;" transform="translate(22.25984375 367.817608414)scale(0.1 -0.1)">
       <use xlink:href="#ArialMT-2212"/>
       <use x="58.3984375" xlink:href="#ArialMT-32"/>
      </g>
     </g>
    </g>
    <g id="ytick_20">
     <g id="line2d_69">
      <g>
       <use style="fill:#262626;stroke:#262626;" x="45.57859375" xlink:href="#m4aded61697" y="337.094399712"/>
      </g>
     </g>
     <g id="text_29">
      <!-- −1 -->
      <g style="fill:#262626;" transform="translate(23.56921875 339.679555962)scale(0.1 -0.1)">
       <use xlink:href="#ArialMT-2212"/>
       <use x="58.3984375" xlink:href="#ArialMT-31"/>
      </g>
     </g>
    </g>
    <g id="ytick_21">
     <g id="line2d_70">
      <g>
       <use style="fill:#262626;stroke:#262626;" x="45.57859375" xlink:href="#m4aded61697" y="308.956347259"/>
      </g>
     </g>
     <g id="text_30">
      <!-- 0 -->
      <g style="fill:#262626;" transform="translate(27.91140625 311.541503509)scale(0.1 -0.1)">
       <use xlink:href="#ArialMT-30"/>
      </g>
     </g>
    </g>
    <g id="ytick_22">
     <g id="line2d_71">
      <g>
       <use style="fill:#262626;stroke:#262626;" x="45.57859375" xlink:href="#m4aded61697" y="280.818294807"/>
      </g>
     </g>
     <g id="text_31">
      <!-- 1 -->
      <g style="fill:#262626;" transform="translate(29.94265625 283.403451057)scale(0.1 -0.1)">
       <use xlink:href="#ArialMT-31"/>
      </g>
     </g>
    </g>
    <g id="ytick_23">
     <g id="line2d_72">
      <g>
       <use style="fill:#262626;stroke:#262626;" x="45.57859375" xlink:href="#m4aded61697" y="252.680242355"/>
      </g>
     </g>
     <g id="text_32">
      <!-- 2 -->
      <g style="fill:#262626;" transform="translate(27.83796875 255.265398605)scale(0.1 -0.1)">
       <use xlink:href="#ArialMT-32"/>
      </g>
     </g>
    </g>
    <g id="ytick_24">
     <g id="line2d_73">
      <g>
       <use style="fill:#262626;stroke:#262626;" x="45.57859375" xlink:href="#m4aded61697" y="224.542189903"/>
      </g>
     </g>
     <g id="text_33">
      <!-- 3 -->
      <g style="fill:#262626;" transform="translate(27.89109375 227.127346153)scale(0.1 -0.1)">
       <use xlink:href="#ArialMT-33"/>
      </g>
     </g>
    </g>
    <g id="text_34">
     <!-- Expression -->
     <g style="fill:#262626;" transform="translate(15.07359375 326.75671875)rotate(-90.0)scale(0.11 -0.11)">
      <use xlink:href="#ArialMT-45"/>
      <use x="66.69921875" xlink:href="#ArialMT-78"/>
      <use x="116.69921875" xlink:href="#ArialMT-70"/>
      <use x="172.314453125" xlink:href="#ArialMT-72"/>
      <use x="205.615234375" xlink:href="#ArialMT-65"/>
      <use x="261.23046875" xlink:href="#ArialMT-73"/>
      <use x="311.23046875" xlink:href="#ArialMT-73"/>
      <use x="361.23046875" xlink:href="#ArialMT-69"/>
      <use x="383.447265625" xlink:href="#ArialMT-6f"/>
      <use x="439.0625" xlink:href="#ArialMT-6e"/>
     </g>
    </g>
   </g>
   <g id="line2d_74">
    <path clip-path="url(#p4d13165c25)" d="
M45.5786 299.501
L47.7919 273.006
L52.2186 275.776
L69.9251 315.937
L96.4849 316.235
L149.605 348.085
L255.844 334.155" style="fill:none;stroke:#d9544d;stroke-linecap:round;"/>
   </g>
   <g id="line2d_75">
    <path clip-path="url(#p4d13165c25)" d="
M45.5786 280.13
L47.7919 270.692
L52.2186 292.901
L69.9251 317.175
L96.4849 320.84
L149.605 341.363
L255.844 339.594" style="fill:none;stroke:#d9544d;stroke-linecap:round;"/>
   </g>
   <g id="line2d_76">
    <path clip-path="url(#p4d13165c25)" d="
M45.5786 320.96
L47.7919 290.327
L52.2186 271.359
L69.9251 304.171
L96.4849 288.578
L149.605 343.235
L255.844 344.065" style="fill:none;stroke:#d9544d;stroke-linecap:round;"/>
   </g>
   <g id="line2d_77">
    <path clip-path="url(#p4d13165c25)" d="
M45.5786 308.075
L47.7919 293.761
L52.2186 274.778
L69.9251 298.896
L96.4849 292.364
L149.605 350.295
L255.844 344.527" style="fill:none;stroke:#d9544d;stroke-linecap:round;"/>
   </g>
   <g id="line2d_78">
    <path clip-path="url(#p4d13165c25)" d="
M45.5786 313.012
L47.7919 267.406
L52.2186 270.866
L69.9251 318.89
L96.4849 327.784
L149.605 334.294
L255.844 330.442" style="fill:none;stroke:#d9544d;stroke-linecap:round;"/>
   </g>
   <g id="line2d_79">
    <path clip-path="url(#p4d13165c25)" d="
M45.5786 307.945
L47.7919 273.733
L52.2186 271.74
L69.9251 317.592
L96.4849 309.842
L149.605 342.489
L255.844 339.353" style="fill:none;stroke:#d9544d;stroke-linecap:round;"/>
   </g>
   <g id="line2d_80">
    <path clip-path="url(#p4d13165c25)" d="
M45.5786 318.097
L47.7919 279.631
L52.2186 260.382
L69.9251 318.204
L96.4849 319.189
L149.605 338.236
L255.844 328.956" style="fill:none;stroke:#d9544d;stroke-linecap:round;"/>
   </g>
   <g id="line2d_81">
    <path clip-path="url(#p4d13165c25)" d="
M45.5786 300.035
L47.7919 264.183
L52.2186 281.875
L69.9251 319.175
L96.4849 321.872
L149.605 337.329
L255.844 338.225" style="fill:none;stroke:#d9544d;stroke-linecap:round;"/>
   </g>
   <g id="line2d_82">
    <path clip-path="url(#p4d13165c25)" d="
M45.5786 303.795
L47.7919 271.105
L52.2186 285.368
L69.9251 305.485
L96.4849 305.557
L149.605 343.239
L255.844 348.146" style="fill:none;stroke:#d9544d;stroke-linecap:round;"/>
   </g>
   <g id="line2d_83">
    <path clip-path="url(#p4d13165c25)" d="
M45.5786 301.571
L47.7919 265.646
L52.2186 278.49
L69.9251 315.839
L96.4849 332.678
L149.605 332.832
L255.844 335.637" style="fill:none;stroke:#d9544d;stroke-linecap:round;"/>
   </g>
   <g id="line2d_84">
    <path clip-path="url(#p4d13165c25)" d="
M45.5786 312.529
L47.7919 283.55
L52.2186 267.789
L69.9251 308.096
L96.4849 305.22
L149.605 335.757
L255.844 349.755" style="fill:none;stroke:#d9544d;stroke-linecap:round;"/>
   </g>
   <g id="patch_12">
    <path d="
M45.5786 377.418
L45.5786 223.309" style="fill:none;stroke:#262626;stroke-linecap:square;stroke-linejoin:miter;stroke-width:1.25;"/>
   </g>
   <g id="patch_13">
    <path d="
M45.5786 377.418
L255.844 377.418" style="fill:none;stroke:#262626;stroke-linecap:square;stroke-linejoin:miter;stroke-width:1.25;"/>
   </g>
   <g id="text_35">
    <!-- Root Drought -->
    <defs>
     <path d="
M40.5781 0
L40.5781 7.625
Q34.5156 -1.17188 24.125 -1.17188
Q19.5312 -1.17188 15.5469 0.578125
Q11.5781 2.34375 9.64062 5
Q7.71875 7.67188 6.9375 11.5312
Q6.39062 14.1094 6.39062 19.7344
L6.39062 51.8594
L15.1875 51.8594
L15.1875 23.0938
Q15.1875 16.2188 15.7188 13.8125
Q16.5469 10.3594 19.2344 8.375
Q21.9219 6.39062 25.875 6.39062
Q29.8281 6.39062 33.2969 8.42188
Q36.7656 10.4531 38.2031 13.9375
Q39.6562 17.4375 39.6562 24.0781
L39.6562 51.8594
L48.4375 51.8594
L48.4375 0
z
" id="ArialMT-75"/>
     <path d="
M6.59375 0
L6.59375 71.5781
L15.375 71.5781
L15.375 45.9062
Q21.5312 53.0312 30.9062 53.0312
Q36.6719 53.0312 40.9219 50.75
Q45.1719 48.4844 47 44.4844
Q48.8281 40.4844 48.8281 32.8594
L48.8281 0
L40.0469 0
L40.0469 32.8594
Q40.0469 39.4531 37.1875 42.4531
Q34.3281 45.4531 29.1094 45.4531
Q25.2031 45.4531 21.75 43.4219
Q18.3125 41.4062 16.8438 37.9375
Q15.375 34.4688 15.375 28.375
L15.375 0
z
" id="ArialMT-68"/>
     <path d="
M7.71875 0
L7.71875 71.5781
L32.375 71.5781
Q40.7188 71.5781 45.125 70.5625
Q51.2656 69.1406 55.6094 65.4375
Q61.2812 60.6406 64.0781 53.1875
Q66.8906 45.75 66.8906 36.1875
Q66.8906 28.0312 64.9844 21.7344
Q63.0938 15.4375 60.1094 11.2969
Q57.125 7.17188 53.5781 4.79688
Q50.0469 2.4375 45.0469 1.21875
Q40.0469 0 33.5469 0
z

M17.1875 8.45312
L32.4688 8.45312
Q39.5469 8.45312 43.5781 9.76562
Q47.6094 11.0781 50 13.4844
Q53.375 16.8438 55.25 22.5312
Q57.125 28.2188 57.125 36.3281
Q57.125 47.5625 53.4375 53.5938
Q49.75 59.625 44.4844 61.6719
Q40.6719 63.1406 32.2344 63.1406
L17.1875 63.1406
z
" id="ArialMT-44"/>
     <path d="
M4.98438 -4.29688
L13.5312 -5.5625
Q14.0625 -9.51562 16.5 -11.3281
Q19.7812 -13.7656 25.4375 -13.7656
Q31.5469 -13.7656 34.8594 -11.3281
Q38.1875 -8.89062 39.3594 -4.5
Q40.0469 -1.8125 39.9844 6.78125
Q34.2344 0 25.6406 0
Q14.9375 0 9.07812 7.71875
Q3.21875 15.4375 3.21875 26.2188
Q3.21875 33.6406 5.90625 39.9062
Q8.59375 46.1875 13.6875 49.6094
Q18.7969 53.0312 25.6875 53.0312
Q34.8594 53.0312 40.8281 45.6094
L40.8281 51.8594
L48.9219 51.8594
L48.9219 7.03125
Q48.9219 -5.07812 46.4531 -10.125
Q44 -15.1875 38.6406 -18.1094
Q33.2969 -21.0469 25.4844 -21.0469
Q16.2188 -21.0469 10.5 -16.875
Q4.78125 -12.7031 4.98438 -4.29688
M12.25 26.8594
Q12.25 16.6562 16.2969 11.9688
Q20.3594 7.28125 26.4688 7.28125
Q32.5156 7.28125 36.6094 11.9375
Q40.7188 16.6094 40.7188 26.5625
Q40.7188 36.0781 36.5 40.9062
Q32.2812 45.75 26.3125 45.75
Q20.4531 45.75 16.3438 40.9844
Q12.25 36.2344 12.25 26.8594" id="ArialMT-67"/>
    </defs>
    <g style="fill:#262626;" transform="translate(115.07125 218.309375)scale(0.12 -0.12)">
     <use xlink:href="#ArialMT-52"/>
     <use x="72.216796875" xlink:href="#ArialMT-6f"/>
     <use x="127.83203125" xlink:href="#ArialMT-6f"/>
     <use x="183.447265625" xlink:href="#ArialMT-74"/>
     <use x="211.23046875" xlink:href="#ArialMT-20"/>
     <use x="239.013671875" xlink:href="#ArialMT-44"/>
     <use x="311.23046875" xlink:href="#ArialMT-72"/>
     <use x="344.53125" xlink:href="#ArialMT-6f"/>
     <use x="400.146484375" xlink:href="#ArialMT-75"/>
     <use x="455.76171875" xlink:href="#ArialMT-67"/>
     <use x="511.376953125" xlink:href="#ArialMT-68"/>
     <use x="566.9921875" xlink:href="#ArialMT-74"/>
    </g>
   </g>
  </g>
  <g id="axes_5">
   <g id="patch_14">
    <path d="
M268.804 377.418
L479.069 377.418
L479.069 223.309
L268.804 223.309
z
" style="fill:#ffffff;"/>
   </g>
   <g id="matplotlib.axis_9">
    <g id="xtick_17">
     <g id="line2d_85">
      <g>
       <use style="fill:#262626;stroke:#262626;" x="309.067476729" xlink:href="#me1deecec79" y="377.4178125"/>
      </g>
     </g>
     <g id="text_36">
      <!-- 5 -->
      <g style="fill:#262626;" transform="translate(306.694820479 397.575625)scale(0.1 -0.1)">
       <use xlink:href="#ArialMT-35"/>
      </g>
     </g>
    </g>
    <g id="xtick_18">
     <g id="line2d_86">
      <g>
       <use style="fill:#262626;stroke:#262626;" x="353.804777261" xlink:href="#me1deecec79" y="377.4178125"/>
      </g>
     </g>
     <g id="text_37">
      <!-- 10 -->
      <g style="fill:#262626;" transform="translate(349.027433511 397.575625)scale(0.1 -0.1)">
       <use xlink:href="#ArialMT-31"/>
       <use x="55.615234375" xlink:href="#ArialMT-30"/>
      </g>
     </g>
    </g>
    <g id="xtick_19">
     <g id="line2d_87">
      <g>
       <use style="fill:#262626;stroke:#262626;" x="398.542077793" xlink:href="#me1deecec79" y="377.4178125"/>
      </g>
     </g>
     <g id="text_38">
      <!-- 15 -->
      <g style="fill:#262626;" transform="translate(393.725671543 397.575625)scale(0.1 -0.1)">
       <use xlink:href="#ArialMT-31"/>
       <use x="55.615234375" xlink:href="#ArialMT-35"/>
      </g>
     </g>
    </g>
    <g id="xtick_20">
     <g id="line2d_88">
      <g>
       <use style="fill:#262626;stroke:#262626;" x="443.279378324" xlink:href="#me1deecec79" y="377.4178125"/>
      </g>
     </g>
     <g id="text_39">
      <!-- 20 -->
      <g style="fill:#262626;" transform="translate(438.104378324 397.575625)scale(0.1 -0.1)">
       <use xlink:href="#ArialMT-32"/>
       <use x="55.615234375" xlink:href="#ArialMT-30"/>
      </g>
     </g>
    </g>
    <g id="text_40">
     <!-- Time -->
     <g style="fill:#262626;" transform="translate(362.27828125 412.43671875)scale(0.11 -0.11)">
      <use xlink:href="#ArialMT-54"/>
      <use x="57.333984375" xlink:href="#ArialMT-69"/>
      <use x="79.55078125" xlink:href="#ArialMT-6d"/>
      <use x="162.8515625" xlink:href="#ArialMT-65"/>
     </g>
    </g>
   </g>
   <g id="matplotlib.axis_10">
    <g id="ytick_25">
     <g id="line2d_89">
      <g>
       <use style="fill:#262626;stroke:#262626;" x="268.80390625" xlink:href="#m4aded61697" y="365.232452164"/>
      </g>
     </g>
    </g>
    <g id="ytick_26">
     <g id="line2d_90">
      <g>
       <use style="fill:#262626;stroke:#262626;" x="268.80390625" xlink:href="#m4aded61697" y="337.094399712"/>
      </g>
     </g>
    </g>
    <g id="ytick_27">
     <g id="line2d_91">
      <g>
       <use style="fill:#262626;stroke:#262626;" x="268.80390625" xlink:href="#m4aded61697" y="308.956347259"/>
      </g>
     </g>
    </g>
    <g id="ytick_28">
     <g id="line2d_92">
      <g>
       <use style="fill:#262626;stroke:#262626;" x="268.80390625" xlink:href="#m4aded61697" y="280.818294807"/>
      </g>
     </g>
    </g>
    <g id="ytick_29">
     <g id="line2d_93">
      <g>
       <use style="fill:#262626;stroke:#262626;" x="268.80390625" xlink:href="#m4aded61697" y="252.680242355"/>
      </g>
     </g>
    </g>
    <g id="ytick_30">
     <g id="line2d_94">
      <g>
       <use style="fill:#262626;stroke:#262626;" x="268.80390625" xlink:href="#m4aded61697" y="224.542189903"/>
      </g>
     </g>
    </g>
   </g>
   <g id="line2d_95">
    <path clip-path="url(#p659f111a6e)" d="
M268.804 342.525
L273.278 336.984
L291.173 306.216
L318.015 270.988
L371.7 312.281
L479.069 284.744" style="fill:none;stroke:#03012d;stroke-linecap:round;"/>
   </g>
   <g id="line2d_96">
    <path clip-path="url(#p659f111a6e)" d="
M268.804 351.897
L273.278 319.803
L291.173 281.941
L318.015 283.414
L371.7 325.866
L479.069 290.818" style="fill:none;stroke:#03012d;stroke-linecap:round;"/>
   </g>
   <g id="line2d_97">
    <path clip-path="url(#p659f111a6e)" d="
M268.804 306.453
L273.278 305.921
L291.173 278.256
L318.015 281.919
L371.7 329.025
L479.069 352.165" style="fill:none;stroke:#03012d;stroke-linecap:round;"/>
   </g>
   <g id="line2d_98">
    <path clip-path="url(#p659f111a6e)" d="
M268.804 347.178
L273.278 336.075
L291.173 284.816
L318.015 277.932
L371.7 294.775
L479.069 312.962" style="fill:none;stroke:#03012d;stroke-linecap:round;"/>
   </g>
   <g id="line2d_99">
    <path clip-path="url(#p659f111a6e)" d="
M268.804 315.203
L273.278 306.718
L291.173 289.135
L318.015 272.298
L371.7 315.175
L479.069 355.209" style="fill:none;stroke:#03012d;stroke-linecap:round;"/>
   </g>
   <g id="line2d_100">
    <path clip-path="url(#p659f111a6e)" d="
M268.804 314.622
L273.278 318.9
L291.173 325.259
L318.015 343.667
L371.7 283.948
L479.069 267.342" style="fill:none;stroke:#03012d;stroke-linecap:round;"/>
   </g>
   <g id="line2d_101">
    <path clip-path="url(#p659f111a6e)" d="
M268.804 329.389
L273.278 333.361
L291.173 312.01
L318.015 311.788
L371.7 312.248
L479.069 254.942" style="fill:none;stroke:#03012d;stroke-linecap:round;"/>
   </g>
   <g id="line2d_102">
    <path clip-path="url(#p659f111a6e)" d="
M268.804 336.177
L273.278 346.507
L291.173 311.344
L318.015 299.488
L371.7 285.023
L479.069 275.199" style="fill:none;stroke:#03012d;stroke-linecap:round;"/>
   </g>
   <g id="line2d_103">
    <path clip-path="url(#p659f111a6e)" d="
M268.804 355.559
L273.278 328.793
L291.173 306.02
L318.015 287.805
L371.7 283.275
L479.069 292.286" style="fill:none;stroke:#03012d;stroke-linecap:round;"/>
   </g>
   <g id="line2d_104">
    <path clip-path="url(#p659f111a6e)" d="
M268.804 341.443
L273.278 334.863
L291.173 286.691
L318.015 268.346
L371.7 304.984
L479.069 317.411" style="fill:none;stroke:#03012d;stroke-linecap:round;"/>
   </g>
   <g id="line2d_105">
    <path clip-path="url(#p659f111a6e)" d="
M268.804 342.082
L273.278 346.179
L291.173 295.703
L318.015 284.039
L371.7 283.875
L479.069 301.861" style="fill:none;stroke:#03012d;stroke-linecap:round;"/>
   </g>
   <g id="patch_15">
    <path d="
M268.804 377.418
L268.804 223.309" style="fill:none;stroke:#262626;stroke-linecap:square;stroke-linejoin:miter;stroke-width:1.25;"/>
   </g>
   <g id="patch_16">
    <path d="
M268.804 377.418
L479.069 377.418" style="fill:none;stroke:#262626;stroke-linecap:square;stroke-linejoin:miter;stroke-width:1.25;"/>
   </g>
   <g id="text_41">
    <!-- Shoot Cold -->
    <g style="fill:#262626;" transform="translate(344.6846875 218.309375)scale(0.12 -0.12)">
     <use xlink:href="#ArialMT-53"/>
     <use x="66.69921875" xlink:href="#ArialMT-68"/>
     <use x="122.314453125" xlink:href="#ArialMT-6f"/>
     <use x="177.9296875" xlink:href="#ArialMT-6f"/>
     <use x="233.544921875" xlink:href="#ArialMT-74"/>
     <use x="261.328125" xlink:href="#ArialMT-20"/>
     <use x="289.111328125" xlink:href="#ArialMT-43"/>
     <use x="361.328125" xlink:href="#ArialMT-6f"/>
     <use x="416.943359375" xlink:href="#ArialMT-6c"/>
     <use x="439.16015625" xlink:href="#ArialMT-64"/>
    </g>
   </g>
  </g>
  <g id="axes_6">
   <g id="patch_17">
    <path d="
M492.029 377.418
L702.295 377.418
L702.295 223.309
L492.029 223.309
z
" style="fill:#ffffff;"/>
   </g>
   <g id="matplotlib.axis_11">
    <g id="xtick_21">
     <g id="line2d_106">
      <g>
       <use style="fill:#262626;stroke:#262626;" x="534.08228125" xlink:href="#me1deecec79" y="377.4178125"/>
      </g>
     </g>
     <g id="text_42">
      <!-- 5 -->
      <g style="fill:#262626;" transform="translate(531.709625 397.575625)scale(0.1 -0.1)">
       <use xlink:href="#ArialMT-35"/>
      </g>
     </g>
    </g>
    <g id="xtick_22">
     <g id="line2d_107">
      <g>
       <use style="fill:#262626;stroke:#262626;" x="578.348662829" xlink:href="#me1deecec79" y="377.4178125"/>
      </g>
     </g>
     <g id="text_43">
      <!-- 10 -->
      <g style="fill:#262626;" transform="translate(573.571319079 397.575625)scale(0.1 -0.1)">
       <use xlink:href="#ArialMT-31"/>
       <use x="55.615234375" xlink:href="#ArialMT-30"/>
      </g>
     </g>
    </g>
    <g id="xtick_23">
     <g id="line2d_108">
      <g>
       <use style="fill:#262626;stroke:#262626;" x="622.615044408" xlink:href="#me1deecec79" y="377.4178125"/>
      </g>
     </g>
     <g id="text_44">
      <!-- 15 -->
      <g style="fill:#262626;" transform="translate(617.798638158 397.575625)scale(0.1 -0.1)">
       <use xlink:href="#ArialMT-31"/>
       <use x="55.615234375" xlink:href="#ArialMT-35"/>
      </g>
     </g>
    </g>
    <g id="xtick_24">
     <g id="line2d_109">
      <g>
       <use style="fill:#262626;stroke:#262626;" x="666.881425987" xlink:href="#me1deecec79" y="377.4178125"/>
      </g>
     </g>
     <g id="text_45">
      <!-- 20 -->
      <g style="fill:#262626;" transform="translate(661.706425987 397.575625)scale(0.1 -0.1)">
       <use xlink:href="#ArialMT-32"/>
       <use x="55.615234375" xlink:href="#ArialMT-30"/>
      </g>
     </g>
    </g>
    <g id="text_46">
     <!-- Time -->
     <g style="fill:#262626;" transform="translate(585.50359375 412.43671875)scale(0.11 -0.11)">
      <use xlink:href="#ArialMT-54"/>
      <use x="57.333984375" xlink:href="#ArialMT-69"/>
      <use x="79.55078125" xlink:href="#ArialMT-6d"/>
      <use x="162.8515625" xlink:href="#ArialMT-65"/>
     </g>
    </g>
   </g>
   <g id="matplotlib.axis_12">
    <g id="ytick_31">
     <g id="line2d_110">
      <g>
       <use style="fill:#262626;stroke:#262626;" x="492.02921875" xlink:href="#m4aded61697" y="365.232452164"/>
      </g>
     </g>
    </g>
    <g id="ytick_32">
     <g id="line2d_111">
      <g>
       <use style="fill:#262626;stroke:#262626;" x="492.02921875" xlink:href="#m4aded61697" y="337.094399712"/>
      </g>
     </g>
    </g>
    <g id="ytick_33">
     <g id="line2d_112">
      <g>
       <use style="fill:#262626;stroke:#262626;" x="492.02921875" xlink:href="#m4aded61697" y="308.956347259"/>
      </g>
     </g>
    </g>
    <g id="ytick_34">
     <g id="line2d_113">
      <g>
       <use style="fill:#262626;stroke:#262626;" x="492.02921875" xlink:href="#m4aded61697" y="280.818294807"/>
      </g>
     </g>
    </g>
    <g id="ytick_35">
     <g id="line2d_114">
      <g>
       <use style="fill:#262626;stroke:#262626;" x="492.02921875" xlink:href="#m4aded61697" y="252.680242355"/>
      </g>
     </g>
    </g>
    <g id="ytick_36">
     <g id="line2d_115">
      <g>
       <use style="fill:#262626;stroke:#262626;" x="492.02921875" xlink:href="#m4aded61697" y="224.542189903"/>
      </g>
     </g>
    </g>
   </g>
   <g id="line2d_116">
    <path clip-path="url(#p99eb28ba72)" d="
M492.029 323.133
L494.243 302.299
L498.669 292.156
L516.376 259.085
L542.936 310.276
L596.055 343.434
L702.295 332.311" style="fill:none;stroke:#d9544d;stroke-linecap:round;"/>
   </g>
   <g id="line2d_117">
    <path clip-path="url(#p99eb28ba72)" d="
M492.029 306.201
L494.243 294.061
L498.669 288.349
L516.376 279.174
L542.936 299.07
L596.055 341.779
L702.295 354.06" style="fill:none;stroke:#d9544d;stroke-linecap:round;"/>
   </g>
   <g id="line2d_118">
    <path clip-path="url(#p99eb28ba72)" d="
M492.029 322.327
L494.243 298.683
L498.669 296.229
L516.376 275.376
L542.936 285.5
L596.055 328.075
L702.295 356.505" style="fill:none;stroke:#d9544d;stroke-linecap:round;"/>
   </g>
   <g id="line2d_119">
    <path clip-path="url(#p99eb28ba72)" d="
M492.029 308.155
L494.243 285.119
L498.669 283.762
L516.376 283.962
L542.936 309.471
L596.055 337.147
L702.295 355.078" style="fill:none;stroke:#d9544d;stroke-linecap:round;"/>
   </g>
   <g id="line2d_120">
    <path clip-path="url(#p99eb28ba72)" d="
M492.029 312.26
L494.243 310.943
L498.669 291.883
L516.376 262.635
L542.936 300.478
L596.055 340.008
L702.295 344.486" style="fill:none;stroke:#d9544d;stroke-linecap:round;"/>
   </g>
   <g id="line2d_121">
    <path clip-path="url(#p99eb28ba72)" d="
M492.029 319.946
L494.243 299.334
L498.669 297.205
L516.376 267.435
L542.936 294.409
L596.055 353.484
L702.295 330.882" style="fill:none;stroke:#d9544d;stroke-linecap:round;"/>
   </g>
   <g id="line2d_122">
    <path clip-path="url(#p99eb28ba72)" d="
M492.029 332.606
L494.243 315.086
L498.669 296.517
L516.376 259.56
L542.936 291.969
L596.055 339.295
L702.295 327.661" style="fill:none;stroke:#d9544d;stroke-linecap:round;"/>
   </g>
   <g id="line2d_123">
    <path clip-path="url(#p99eb28ba72)" d="
M492.029 322.994
L494.243 301.475
L498.669 272.089
L516.376 276.206
L542.936 307.894
L596.055 338.944
L702.295 343.093" style="fill:none;stroke:#d9544d;stroke-linecap:round;"/>
   </g>
   <g id="line2d_124">
    <path clip-path="url(#p99eb28ba72)" d="
M492.029 325.34
L494.243 302.644
L498.669 307.474
L516.376 266.029
L542.936 282.069
L596.055 339.254
L702.295 339.884" style="fill:none;stroke:#d9544d;stroke-linecap:round;"/>
   </g>
   <g id="line2d_125">
    <path clip-path="url(#p99eb28ba72)" d="
M492.029 323.418
L494.243 308.907
L498.669 283.677
L516.376 272.927
L542.936 290.076
L596.055 335.343
L702.295 348.346" style="fill:none;stroke:#d9544d;stroke-linecap:round;"/>
   </g>
   <g id="line2d_126">
    <path clip-path="url(#p99eb28ba72)" d="
M492.029 327.655
L494.243 307.625
L498.669 283.593
L516.376 275.581
L542.936 286.683
L596.055 333.017
L702.295 348.54" style="fill:none;stroke:#d9544d;stroke-linecap:round;"/>
   </g>
   <g id="patch_18">
    <path d="
M492.029 377.418
L492.029 223.309" style="fill:none;stroke:#262626;stroke-linecap:square;stroke-linejoin:miter;stroke-width:1.25;"/>
   </g>
   <g id="patch_19">
    <path d="
M492.029 377.418
L702.295 377.418" style="fill:none;stroke:#262626;stroke-linecap:square;stroke-linejoin:miter;stroke-width:1.25;"/>
   </g>
   <g id="text_47">
    <!-- Shoot Uv -->
    <defs>
     <path d="
M54.6875 71.5781
L64.1562 71.5781
L64.1562 30.2188
Q64.1562 19.4375 61.7188 13.0781
Q59.2812 6.73438 52.9062 2.75
Q46.5312 -1.21875 36.1875 -1.21875
Q26.125 -1.21875 19.7188 2.25
Q13.3281 5.71875 10.5938 12.2812
Q7.85938 18.8438 7.85938 30.2188
L7.85938 71.5781
L17.3281 71.5781
L17.3281 30.2812
Q17.3281 20.9531 19.0625 16.5312
Q20.7969 12.1094 25.0156 9.71875
Q29.25 7.32812 35.3594 7.32812
Q45.7969 7.32812 50.2344 12.0625
Q54.6875 16.7969 54.6875 30.2812
z
" id="ArialMT-55"/>
     <path d="
M21 0
L1.26562 51.8594
L10.5469 51.8594
L21.6875 20.7969
Q23.4844 15.7656 25 10.3594
Q26.1719 14.4531 28.2656 20.2188
L39.7969 51.8594
L48.8281 51.8594
L29.2031 0
z
" id="ArialMT-76"/>
    </defs>
    <g style="fill:#262626;" transform="translate(572.5534375 218.309375)scale(0.12 -0.12)">
     <use xlink:href="#ArialMT-53"/>
     <use x="66.69921875" xlink:href="#ArialMT-68"/>
     <use x="122.314453125" xlink:href="#ArialMT-6f"/>
     <use x="177.9296875" xlink:href="#ArialMT-6f"/>
     <use x="233.544921875" xlink:href="#ArialMT-74"/>
     <use x="261.328125" xlink:href="#ArialMT-20"/>
     <use x="289.111328125" xlink:href="#ArialMT-55"/>
     <use x="361.328125" xlink:href="#ArialMT-76"/>
    </g>
   </g>
  </g>
 </g>
 <defs>
  <clipPath id="pa61dcb5892">
   <rect height="154.1084375" width="210.2653125" x="268.80390625" y="20.789375"/>
  </clipPath>
  <clipPath id="pa691a7dfe0">
   <rect height="154.1084375" width="210.2653125" x="45.57859375" y="20.789375"/>
  </clipPath>
  <clipPath id="p99eb28ba72">
   <rect height="154.1084375" width="210.2653125" x="492.02921875" y="223.309375"/>
  </clipPath>
  <clipPath id="p4d13165c25">
   <rect height="154.1084375" width="210.2653125" x="45.57859375" y="223.309375"/>
  </clipPath>
  <clipPath id="p659f111a6e">
   <rect height="154.1084375" width="210.2653125" x="268.80390625" y="223.309375"/>
  </clipPath>
  <clipPath id="p3aeff855be">
   <rect height="154.1084375" width="210.2653125" x="492.02921875" y="20.789375"/>
  </clipPath>
 </defs>
</svg>
