<?xml version="1.0" encoding="utf-8" standalone="no"?>
<!DOCTYPE svg PUBLIC "-//W3C//DTD SVG 1.1//EN"
  "http://www.w3.org/Graphics/SVG/1.1/DTD/svg11.dtd">
<!-- Created with matplotlib (http://matplotlib.org/) -->
<svg height="421pt" version="1.1" viewBox="0 0 709 421" width="709pt" xmlns="http://www.w3.org/2000/svg" xmlns:xlink="http://www.w3.org/1999/xlink">
 <defs>
  <style type="text/css">
*{stroke-linecap:butt;stroke-linejoin:round;}
  </style>
 </defs>
 <g id="figure_1">
  <g id="patch_1">
   <path d="
M0 421.823
L709.495 421.823
L709.495 0
L0 0
z
" style="fill:#ffffff;"/>
  </g>
  <g id="axes_1">
   <g id="patch_2">
    <path d="
M45.5786 174.898
L255.844 174.898
L255.844 20.7894
L45.5786 20.7894
z
" style="fill:#ffffff;"/>
   </g>
   <g id="matplotlib.axis_1">
    <g id="xtick_1">
     <g id="line2d_1">
      <defs>
       <path d="
M0 0
L0 6" id="me1deecec79" style="stroke:#262626;"/>
      </defs>
      <g>
       <use style="fill:#262626;stroke:#262626;" x="82.1464741848" xlink:href="#me1deecec79" y="174.8978125"/>
      </g>
     </g>
     <g id="text_1">
      <!-- 10 -->
      <defs>
       <path d="
M4.15625 35.2969
Q4.15625 48 6.76562 55.7344
Q9.375 63.4844 14.5156 67.6719
Q19.6719 71.875 27.4844 71.875
Q33.25 71.875 37.5938 69.5469
Q41.9375 67.2344 44.7656 62.8594
Q47.6094 58.5 49.2188 52.2188
Q50.8281 45.9531 50.8281 35.2969
Q50.8281 22.7031 48.2344 14.9688
Q45.6562 7.23438 40.5 3
Q35.3594 -1.21875 27.4844 -1.21875
Q17.1406 -1.21875 11.2344 6.20312
Q4.15625 15.1406 4.15625 35.2969
M13.1875 35.2969
Q13.1875 17.6719 17.3125 11.8281
Q21.4375 6 27.4844 6
Q33.5469 6 37.6719 11.8594
Q41.7969 17.7188 41.7969 35.2969
Q41.7969 52.9844 37.6719 58.7812
Q33.5469 64.5938 27.3906 64.5938
Q21.3438 64.5938 17.7188 59.4688
Q13.1875 52.9375 13.1875 35.2969" id="ArialMT-30"/>
       <path d="
M37.25 0
L28.4688 0
L28.4688 56
Q25.2969 52.9844 20.1406 49.9531
Q14.9844 46.9219 10.8906 45.4062
L10.8906 53.9062
Q18.2656 57.375 23.7812 62.2969
Q29.2969 67.2344 31.5938 71.875
L37.25 71.875
z
" id="ArialMT-31"/>
      </defs>
      <g style="fill:#262626;" transform="translate(77.3691304348 195.055625)scale(0.1 -0.1)">
       <use xlink:href="#ArialMT-31"/>
       <use x="55.615234375" xlink:href="#ArialMT-30"/>
      </g>
     </g>
    </g>
    <g id="xtick_2">
     <g id="line2d_2">
      <g>
       <use style="fill:#262626;stroke:#262626;" x="127.856324728" xlink:href="#me1deecec79" y="174.8978125"/>
      </g>
     </g>
     <g id="text_2">
      <!-- 20 -->
      <defs>
       <path d="
M50.3438 8.45312
L50.3438 0
L3.03125 0
Q2.9375 3.17188 4.04688 6.10938
Q5.85938 10.9375 9.82812 15.625
Q13.8125 20.3125 21.3438 26.4688
Q33.0156 36.0312 37.1094 41.625
Q41.2188 47.2188 41.2188 52.2031
Q41.2188 57.4219 37.4688 61
Q33.7344 64.5938 27.7344 64.5938
Q21.3906 64.5938 17.5781 60.7812
Q13.7656 56.9844 13.7188 50.25
L4.6875 51.1719
Q5.60938 61.2812 11.6562 66.5781
Q17.7188 71.875 27.9375 71.875
Q38.2344 71.875 44.2344 66.1562
Q50.25 60.4531 50.25 52
Q50.25 47.7031 48.4844 43.5469
Q46.7344 39.4062 42.6562 34.8125
Q38.5781 30.2188 29.1094 22.2188
Q21.1875 15.5781 18.9375 13.2031
Q16.7031 10.8438 15.2344 8.45312
z
" id="ArialMT-32"/>
      </defs>
      <g style="fill:#262626;" transform="translate(122.681324728 195.055625)scale(0.1 -0.1)">
       <use xlink:href="#ArialMT-32"/>
       <use x="55.615234375" xlink:href="#ArialMT-30"/>
      </g>
     </g>
    </g>
    <g id="xtick_3">
     <g id="line2d_3">
      <g>
       <use style="fill:#262626;stroke:#262626;" x="173.566175272" xlink:href="#me1deecec79" y="174.8978125"/>
      </g>
     </g>
     <g id="text_3">
      <!-- 30 -->
      <defs>
       <path d="
M4.20312 18.8906
L12.9844 20.0625
Q14.5 12.5938 18.1406 9.29688
Q21.7812 6 27 6
Q33.2031 6 37.4688 10.2969
Q41.75 14.5938 41.75 20.9531
Q41.75 27 37.7969 30.9219
Q33.8438 34.8594 27.7344 34.8594
Q25.25 34.8594 21.5312 33.8906
L22.5156 41.6094
Q23.3906 41.5 23.9219 41.5
Q29.5469 41.5 34.0312 44.4219
Q38.5312 47.3594 38.5312 53.4688
Q38.5312 58.2969 35.25 61.4688
Q31.9844 64.6562 26.8125 64.6562
Q21.6875 64.6562 18.2656 61.4219
Q14.8438 58.2031 13.875 51.7656
L5.07812 53.3281
Q6.6875 62.1562 12.3906 67.0156
Q18.1094 71.875 26.6094 71.875
Q32.4688 71.875 37.3906 69.3594
Q42.3281 66.8438 44.9375 62.5
Q47.5625 58.1562 47.5625 53.2656
Q47.5625 48.6406 45.0625 44.8281
Q42.5781 41.0156 37.7031 38.7656
Q44.0469 37.3125 47.5625 32.6875
Q51.0781 28.0781 51.0781 21.1406
Q51.0781 11.7656 44.2344 5.25
Q37.4062 -1.26562 26.9531 -1.26562
Q17.5312 -1.26562 11.2969 4.34375
Q5.07812 9.96875 4.20312 18.8906" id="ArialMT-33"/>
      </defs>
      <g style="fill:#262626;" transform="translate(168.454456522 195.055625)scale(0.1 -0.1)">
       <use xlink:href="#ArialMT-33"/>
       <use x="55.615234375" xlink:href="#ArialMT-30"/>
      </g>
     </g>
    </g>
    <g id="xtick_4">
     <g id="line2d_4">
      <g>
       <use style="fill:#262626;stroke:#262626;" x="219.276025815" xlink:href="#me1deecec79" y="174.8978125"/>
      </g>
     </g>
     <g id="text_4">
      <!-- 40 -->
      <defs>
       <path d="
M32.3281 0
L32.3281 17.1406
L1.26562 17.1406
L1.26562 25.2031
L33.9375 71.5781
L41.1094 71.5781
L41.1094 25.2031
L50.7812 25.2031
L50.7812 17.1406
L41.1094 17.1406
L41.1094 0
z

M32.3281 25.2031
L32.3281 57.4688
L9.90625 25.2031
z
" id="ArialMT-34"/>
      </defs>
      <g style="fill:#262626;" transform="translate(214.017432065 195.055625)scale(0.1 -0.1)">
       <use xlink:href="#ArialMT-34"/>
       <use x="55.615234375" xlink:href="#ArialMT-30"/>
      </g>
     </g>
    </g>
   </g>
   <g id="matplotlib.axis_2">
    <g id="ytick_1">
     <g id="line2d_5">
      <defs>
       <path d="
M0 0
L-6 0" id="m4aded61697" style="stroke:#262626;"/>
      </defs>
      <g>
       <use style="fill:#262626;stroke:#262626;" x="45.57859375" xlink:href="#m4aded61697" y="159.611557779"/>
      </g>
     </g>
     <g id="text_5">
      <!-- −2 -->
      <defs>
       <path d="
M52.8281 31.2031
L5.5625 31.2031
L5.5625 39.4062
L52.8281 39.4062
z
" id="ArialMT-2212"/>
      </defs>
      <g style="fill:#262626;" transform="translate(22.25984375 162.196714029)scale(0.1 -0.1)">
       <use xlink:href="#ArialMT-2212"/>
       <use x="58.3984375" xlink:href="#ArialMT-32"/>
      </g>
     </g>
    </g>
    <g id="ytick_2">
     <g id="line2d_6">
      <g>
       <use style="fill:#262626;stroke:#262626;" x="45.57859375" xlink:href="#m4aded61697" y="133.727108181"/>
      </g>
     </g>
     <g id="text_6">
      <!-- −1 -->
      <g style="fill:#262626;" transform="translate(23.56921875 136.312264431)scale(0.1 -0.1)">
       <use xlink:href="#ArialMT-2212"/>
       <use x="58.3984375" xlink:href="#ArialMT-31"/>
      </g>
     </g>
    </g>
    <g id="ytick_3">
     <g id="line2d_7">
      <g>
       <use style="fill:#262626;stroke:#262626;" x="45.57859375" xlink:href="#m4aded61697" y="107.842658583"/>
      </g>
     </g>
     <g id="text_7">
      <!-- 0 -->
      <g style="fill:#262626;" transform="translate(27.91140625 110.427814833)scale(0.1 -0.1)">
       <use xlink:href="#ArialMT-30"/>
      </g>
     </g>
    </g>
    <g id="ytick_4">
     <g id="line2d_8">
      <g>
       <use style="fill:#262626;stroke:#262626;" x="45.57859375" xlink:href="#m4aded61697" y="81.9582089845"/>
      </g>
     </g>
     <g id="text_8">
      <!-- 1 -->
      <g style="fill:#262626;" transform="translate(29.94265625 84.5433652345)scale(0.1 -0.1)">
       <use xlink:href="#ArialMT-31"/>
      </g>
     </g>
    </g>
    <g id="ytick_5">
     <g id="line2d_9">
      <g>
       <use style="fill:#262626;stroke:#262626;" x="45.57859375" xlink:href="#m4aded61697" y="56.0737593864"/>
      </g>
     </g>
     <g id="text_9">
      <!-- 2 -->
      <g style="fill:#262626;" transform="translate(27.83796875 58.6589156364)scale(0.1 -0.1)">
       <use xlink:href="#ArialMT-32"/>
      </g>
     </g>
    </g>
    <g id="ytick_6">
     <g id="line2d_10">
      <g>
       <use style="fill:#262626;stroke:#262626;" x="45.57859375" xlink:href="#m4aded61697" y="30.1893097883"/>
      </g>
     </g>
     <g id="text_10">
      <!-- 3 -->
      <g style="fill:#262626;" transform="translate(27.89109375 32.7744660383)scale(0.1 -0.1)">
       <use xlink:href="#ArialMT-33"/>
      </g>
     </g>
    </g>
    <g id="text_11">
     <!-- Expression -->
     <defs>
      <path d="
M7.90625 0
L7.90625 71.5781
L59.6719 71.5781
L59.6719 63.1406
L17.3906 63.1406
L17.3906 41.2188
L56.9844 41.2188
L56.9844 32.8125
L17.3906 32.8125
L17.3906 8.45312
L61.3281 8.45312
L61.3281 0
z
" id="ArialMT-45"/>
      <path d="
M6.59375 -19.875
L6.59375 51.8594
L14.5938 51.8594
L14.5938 45.125
Q17.4375 49.0781 21 51.0469
Q24.5625 53.0312 29.6406 53.0312
Q36.2812 53.0312 41.3594 49.6094
Q46.4375 46.1875 49.0156 39.9531
Q51.6094 33.7344 51.6094 26.3125
Q51.6094 18.3594 48.75 11.9844
Q45.9062 5.60938 40.4531 2.21875
Q35.0156 -1.17188 29 -1.17188
Q24.6094 -1.17188 21.1094 0.6875
Q17.625 2.54688 15.375 5.375
L15.375 -19.875
z

M14.5469 25.6406
Q14.5469 15.625 18.5938 10.8438
Q22.6562 6.0625 28.4219 6.0625
Q34.2812 6.0625 38.4531 11.0156
Q42.625 15.9688 42.625 26.375
Q42.625 36.2812 38.5469 41.2031
Q34.4688 46.1406 28.8125 46.1406
Q23.1875 46.1406 18.8594 40.8906
Q14.5469 35.6406 14.5469 25.6406" id="ArialMT-70"/>
      <path d="
M3.32812 25.9219
Q3.32812 40.3281 11.3281 47.2656
Q18.0156 53.0312 27.6406 53.0312
Q38.3281 53.0312 45.1094 46.0156
Q51.9062 39.0156 51.9062 26.6562
Q51.9062 16.6562 48.9062 10.9062
Q45.9062 5.17188 40.1562 2
Q34.4219 -1.17188 27.6406 -1.17188
Q16.75 -1.17188 10.0312 5.8125
Q3.32812 12.7969 3.32812 25.9219
M12.3594 25.9219
Q12.3594 15.9688 16.7031 11.0156
Q21.0469 6.0625 27.6406 6.0625
Q34.1875 6.0625 38.5312 11.0312
Q42.875 16.0156 42.875 26.2188
Q42.875 35.8438 38.5 40.7969
Q34.125 45.75 27.6406 45.75
Q21.0469 45.75 16.7031 40.8125
Q12.3594 35.8906 12.3594 25.9219" id="ArialMT-6f"/>
      <path d="
M0.734375 0
L19.6719 26.9531
L2.15625 51.8594
L13.1406 51.8594
L21.0938 39.7031
Q23.3438 36.2344 24.7031 33.8906
Q26.8594 37.1094 28.6562 39.5938
L37.4062 51.8594
L47.9062 51.8594
L29.9844 27.4375
L49.2656 0
L38.4844 0
L27.8281 16.1094
L25 20.4531
L11.375 0
z
" id="ArialMT-78"/>
      <path d="
M6.64062 61.4688
L6.64062 71.5781
L15.4375 71.5781
L15.4375 61.4688
z

M6.64062 0
L6.64062 51.8594
L15.4375 51.8594
L15.4375 0
z
" id="ArialMT-69"/>
      <path d="
M3.07812 15.4844
L11.7656 16.8438
Q12.5 11.625 15.8438 8.84375
Q19.1875 6.0625 25.2031 6.0625
Q31.25 6.0625 34.1719 8.51562
Q37.1094 10.9844 37.1094 14.3125
Q37.1094 17.2812 34.5156 19
Q32.7188 20.1719 25.5312 21.9688
Q15.875 24.4219 12.1406 26.2031
Q8.40625 27.9844 6.46875 31.125
Q4.54688 34.2812 4.54688 38.0938
Q4.54688 41.5469 6.125 44.5
Q7.71875 47.4688 10.4531 49.4219
Q12.5 50.9219 16.0312 51.9688
Q19.5781 53.0312 23.6406 53.0312
Q29.7344 53.0312 34.3438 51.2656
Q38.9688 49.5156 41.1562 46.5
Q43.3594 43.5 44.1875 38.4844
L35.5938 37.3125
Q35.0156 41.3125 32.2031 43.5469
Q29.3906 45.7969 24.2656 45.7969
Q18.2188 45.7969 15.625 43.7969
Q13.0312 41.7969 13.0312 39.1094
Q13.0312 37.4062 14.1094 36.0312
Q15.1875 34.625 17.4844 33.6875
Q18.7969 33.2031 25.25 31.4531
Q34.5781 28.9531 38.25 27.3594
Q41.9375 25.7812 44.0312 22.75
Q46.1406 19.7344 46.1406 15.2344
Q46.1406 10.8438 43.5781 6.95312
Q41.0156 3.07812 36.1719 0.953125
Q31.3438 -1.17188 25.25 -1.17188
Q15.1406 -1.17188 9.84375 3.03125
Q4.54688 7.23438 3.07812 15.4844" id="ArialMT-73"/>
      <path d="
M6.59375 0
L6.59375 51.8594
L14.5 51.8594
L14.5 44.4844
Q20.2188 53.0312 31 53.0312
Q35.6875 53.0312 39.625 51.3438
Q43.5625 49.6562 45.5156 46.9219
Q47.4688 44.1875 48.25 40.4375
Q48.7344 37.9844 48.7344 31.8906
L48.7344 0
L39.9375 0
L39.9375 31.5469
Q39.9375 36.9219 38.9062 39.5781
Q37.8906 42.2344 35.2812 43.8125
Q32.6719 45.4062 29.1562 45.4062
Q23.5312 45.4062 19.4531 41.8438
Q15.375 38.2812 15.375 28.3281
L15.375 0
z
" id="ArialMT-6e"/>
      <path d="
M6.5 0
L6.5 51.8594
L14.4062 51.8594
L14.4062 44
Q17.4375 49.5156 20 51.2656
Q22.5625 53.0312 25.6406 53.0312
Q30.0781 53.0312 34.6719 50.2031
L31.6406 42.0469
Q28.4219 43.9531 25.2031 43.9531
Q22.3125 43.9531 20.0156 42.2188
Q17.7188 40.4844 16.75 37.4062
Q15.2812 32.7188 15.2812 27.1562
L15.2812 0
z
" id="ArialMT-72"/>
      <path d="
M42.0938 16.7031
L51.1719 15.5781
Q49.0312 7.625 43.2188 3.21875
Q37.4062 -1.17188 28.375 -1.17188
Q17 -1.17188 10.3281 5.82812
Q3.65625 12.8438 3.65625 25.4844
Q3.65625 38.5781 10.3906 45.7969
Q17.1406 53.0312 27.875 53.0312
Q38.2812 53.0312 44.875 45.9531
Q51.4688 38.875 51.4688 26.0312
Q51.4688 25.25 51.4219 23.6875
L12.75 23.6875
Q13.2344 15.1406 17.5781 10.5938
Q21.9219 6.0625 28.4219 6.0625
Q33.25 6.0625 36.6719 8.59375
Q40.0938 11.1406 42.0938 16.7031
M13.2344 30.9062
L42.1875 30.9062
Q41.6094 37.4531 38.875 40.7188
Q34.6719 45.7969 27.9844 45.7969
Q21.9219 45.7969 17.7969 41.75
Q13.6719 37.7031 13.2344 30.9062" id="ArialMT-65"/>
     </defs>
     <g style="fill:#262626;" transform="translate(15.07359375 124.23671875)rotate(-90.0)scale(0.11 -0.11)">
      <use xlink:href="#ArialMT-45"/>
      <use x="66.69921875" xlink:href="#ArialMT-78"/>
      <use x="116.69921875" xlink:href="#ArialMT-70"/>
      <use x="172.314453125" xlink:href="#ArialMT-72"/>
      <use x="205.615234375" xlink:href="#ArialMT-65"/>
      <use x="261.23046875" xlink:href="#ArialMT-73"/>
      <use x="311.23046875" xlink:href="#ArialMT-73"/>
      <use x="361.23046875" xlink:href="#ArialMT-69"/>
      <use x="383.447265625" xlink:href="#ArialMT-6f"/>
      <use x="439.0625" xlink:href="#ArialMT-6e"/>
     </g>
    </g>
   </g>
   <g id="line2d_11">
    <path clip-path="url(#pa691a7dfe0)" d="
M45.5786 53.8243
L54.7206 78.7253
L63.8625 80.7951
L73.0045 86.616
L82.1465 96.7992
L91.2884 92.3852
L100.43 98.6254
L109.572 110.427
L118.714 117.566
L127.856 114.673
L136.998 95.1984
L146.14 89.6432
L155.282 84.6387
L164.424 85.6704
L173.566 91.207
L182.708 113.109
L191.85 124.789
L200.992 123.102
L210.134 122.455
L219.276 134.605
L228.418 144.6
L237.56 147.273
L246.702 152.399
L255.844 149.097" style="fill:none;stroke:#d9544d;stroke-linecap:round;"/>
   </g>
   <g id="line2d_12">
    <path clip-path="url(#pa691a7dfe0)" d="
M45.5786 26.4971
L54.7206 62.8452
L63.8625 71.8187
L73.0045 81.909
L82.1465 89.6419
L91.2884 92.3884
L100.43 101.153
L109.572 112.562
L118.714 107.592
L127.856 108.24
L136.998 111.267
L146.14 111.903
L155.282 122.816
L164.424 126.124
L173.566 123.824
L182.708 127.426
L191.85 124.127
L200.992 121.437
L210.134 126.231
L219.276 130.871
L228.418 132.188
L237.56 129.789
L246.702 129.705
L255.844 115.871" style="fill:none;stroke:#d9544d;stroke-linecap:round;"/>
   </g>
   <g id="line2d_13">
    <path clip-path="url(#pa691a7dfe0)" d="
M45.5786 46.4848
L54.7206 66.5088
L63.8625 78.8207
L73.0045 83.5518
L82.1465 93.1754
L91.2884 97.3351
L100.43 95.5092
L109.572 94.2739
L118.714 95.9368
L127.856 93.7276
L136.998 94.3207
L146.14 99.5768
L155.282 114.113
L164.424 119.265
L173.566 113.33
L182.708 114.747
L191.85 119.156
L200.992 124.564
L210.134 136.125
L219.276 144.162
L228.418 145.6
L237.56 141.432
L246.702 144.291
L255.844 132.216" style="fill:none;stroke:#d9544d;stroke-linecap:round;"/>
   </g>
   <g id="line2d_14">
    <path clip-path="url(#pa691a7dfe0)" d="
M45.5786 56.7173
L54.7206 71.7413
L63.8625 79.0917
L73.0045 80.7473
L82.1465 79.5646
L91.2884 76.9854
L100.43 81.4252
L109.572 89.2867
L118.714 97.0616
L127.856 108.241
L136.998 105.042
L146.14 100.481
L155.282 114.668
L164.424 127.712
L173.566 137.057
L182.708 141.688
L191.85 144.056
L200.992 134.295
L210.134 129.619
L219.276 127.832
L228.418 133.138
L237.56 133.959
L246.702 124.727
L255.844 113.088" style="fill:none;stroke:#d9544d;stroke-linecap:round;"/>
   </g>
   <g id="line2d_15">
    <path clip-path="url(#pa691a7dfe0)" d="
M45.5786 62.8902
L54.7206 69.3877
L63.8625 75.9267
L73.0045 79.2252
L82.1465 81.9925
L91.2884 85.9872
L100.43 89.4526
L109.572 91.1639
L118.714 100.235
L127.856 109.553
L136.998 96.7823
L146.14 92.1534
L155.282 106.572
L164.424 116.428
L173.566 119.315
L182.708 121.263
L191.85 124.992
L200.992 125.505
L210.134 139.921
L219.276 149.545
L228.418 152.415
L237.56 143.517
L246.702 134.965
L255.844 119.035" style="fill:none;stroke:#d9544d;stroke-linecap:round;"/>
   </g>
   <g id="line2d_16">
    <path clip-path="url(#pa691a7dfe0)" d="
M45.5786 50.2408
L54.7206 66.5699
L63.8625 69.7982
L73.0045 67.9978
L82.1465 86.7548
L91.2884 107.342
L100.43 108.475
L109.572 115.832
L118.714 131.707
L127.856 111.138
L136.998 90.9822
L146.14 93.6351
L155.282 109.204
L164.424 111.308
L173.566 106.83
L182.708 105.88
L191.85 110.927
L200.992 125.713
L210.134 131.756
L219.276 139.655
L228.418 146.148
L237.56 145.801
L246.702 136.854
L255.844 117.675" style="fill:none;stroke:#d9544d;stroke-linecap:round;"/>
   </g>
   <g id="line2d_17">
    <path clip-path="url(#pa691a7dfe0)" d="
M45.5786 65.3565
L54.7206 73.3942
L63.8625 73.2529
L73.0045 74.2347
L82.1465 74.8173
L91.2884 82.6963
L100.43 85.9493
L109.572 85.5655
L118.714 90.1576
L127.856 96.4102
L136.998 106.679
L146.14 109.464
L155.282 115.113
L164.424 122.446
L173.566 124.392
L182.708 132.399
L191.85 139.314
L200.992 134.608
L210.134 138.755
L219.276 137.68
L228.418 133.732
L237.56 134.448
L246.702 130.132
L255.844 127.226" style="fill:none;stroke:#d9544d;stroke-linecap:round;"/>
   </g>
   <g id="line2d_18">
    <path clip-path="url(#pa691a7dfe0)" d="
M45.5786 75.3342
L54.7206 79.0501
L63.8625 77.4341
L73.0045 78.8862
L82.1465 85.2827
L91.2884 85.3285
L100.43 89.392
L109.572 96.1608
L118.714 96.5771
L127.856 86.815
L136.998 82.0401
L146.14 85.2656
L155.282 98.7958
L164.424 112.301
L173.566 122.98
L182.708 129.105
L191.85 136.343
L200.992 135.435
L210.134 131.788
L219.276 140.211
L228.418 145.297
L237.56 144.308
L246.702 144.39
L255.844 129.703" style="fill:none;stroke:#d9544d;stroke-linecap:round;"/>
   </g>
   <g id="line2d_19">
    <path clip-path="url(#pa691a7dfe0)" d="
M45.5786 45.3398
L54.7206 60.8948
L63.8625 70.5951
L73.0045 79.3992
L82.1465 97.216
L91.2884 106.322
L100.43 109.565
L109.572 121.726
L118.714 134.161
L127.856 127.149
L136.998 105.347
L146.14 89.6706
L155.282 93.2597
L164.424 97.5451
L173.566 99.8488
L182.708 112.474
L191.85 111.237
L200.992 116.409
L210.134 127.221
L219.276 134.44
L228.418 146.24
L237.56 145.2
L246.702 135.426
L255.844 121.537" style="fill:none;stroke:#d9544d;stroke-linecap:round;"/>
   </g>
   <g id="line2d_20">
    <path clip-path="url(#pa691a7dfe0)" d="
M45.5786 55.9168
L54.7206 71.3228
L63.8625 78.0777
L73.0045 79.7298
L82.1465 85.3246
L91.2884 83.3761
L100.43 84.6521
L109.572 90.1794
L118.714 95.297
L127.856 96.6269
L136.998 97.3432
L146.14 104.14
L155.282 112.82
L164.424 121.597
L173.566 121.076
L182.708 133.398
L191.85 139.627
L200.992 134.556
L210.134 137.677
L219.276 142.657
L228.418 142.063
L237.56 135.631
L246.702 129.505
L255.844 115.631" style="fill:none;stroke:#d9544d;stroke-linecap:round;"/>
   </g>
   <g id="line2d_21">
    <path clip-path="url(#pa691a7dfe0)" d="
M45.5786 67.4151
L54.7206 70.7321
L63.8625 71.5964
L73.0045 69.7026
L82.1465 72.7779
L91.2884 83.2835
L100.43 88.9041
L109.572 94.0484
L118.714 101.96
L127.856 101.405
L136.998 101.837
L146.14 98.7893
L155.282 108.895
L164.424 122.37
L173.566 126.544
L182.708 129.363
L191.85 131.36
L200.992 131.299
L210.134 135.6
L219.276 140.403
L228.418 142.049
L237.56 138.637
L246.702 133.371
L255.844 125.882" style="fill:none;stroke:#d9544d;stroke-linecap:round;"/>
   </g>
   <g id="line2d_22">
    <path clip-path="url(#pa691a7dfe0)" d="
M45.5786 42.0147
L54.7206 62.8214
L63.8625 78.8111
L73.0045 85.6944
L82.1465 94.5765
L91.2884 94.8989
L100.43 106.278
L109.572 116.018
L118.714 123.339
L127.856 113.081
L136.998 93.6942
L146.14 82.1524
L155.282 89.5486
L164.424 103.388
L173.566 118.114
L182.708 129.939
L191.85 134.783
L200.992 135.904
L210.134 133.356
L219.276 138.703
L228.418 138.731
L237.56 136.097
L246.702 126.703
L255.844 109.577" style="fill:none;stroke:#d9544d;stroke-linecap:round;"/>
   </g>
   <g id="line2d_23">
    <path clip-path="url(#pa691a7dfe0)" d="
M45.5786 52.8731
L54.7206 60.8775
L63.8625 73.3763
L73.0045 81.8273
L82.1465 92.6366
L91.2884 90.8576
L100.43 93.3249
L109.572 103.738
L118.714 113.295
L127.856 103.095
L136.998 88.6855
L146.14 89.5081
L155.282 100.592
L164.424 113.245
L173.566 125.795
L182.708 133.174
L191.85 136.457
L200.992 134.998
L210.134 133.873
L219.276 138.832
L228.418 143.113
L237.56 135.416
L246.702 128.082
L255.844 120.554" style="fill:none;stroke:#d9544d;stroke-linecap:round;"/>
   </g>
   <g id="line2d_24">
    <path clip-path="url(#pa691a7dfe0)" d="
M45.5786 73.0834
L54.7206 79.7599
L63.8625 80.7449
L73.0045 84.4075
L82.1465 86.6079
L91.2884 96.5335
L100.43 95.8225
L109.572 89.1862
L118.714 83.3323
L127.856 88.829
L136.998 94.7415
L146.14 91.2942
L155.282 85.9858
L164.424 101.727
L173.566 110.057
L182.708 124.63
L191.85 129.312
L200.992 126.536
L210.134 140.515
L219.276 145.146
L228.418 146.429
L237.56 139.912
L246.702 143.337
L255.844 150.295" style="fill:none;stroke:#d9544d;stroke-linecap:round;"/>
   </g>
   <g id="line2d_25">
    <path clip-path="url(#pa691a7dfe0)" d="
M45.5786 73.7079
L54.7206 78.3573
L63.8625 74.8472
L73.0045 71.2587
L82.1465 76.2824
L91.2884 84.6366
L100.43 94.9996
L109.572 103.024
L118.714 98.296
L127.856 80.4794
L136.998 84.7824
L146.14 102.207
L155.282 114.766
L164.424 116.88
L173.566 120.734
L182.708 131.612
L191.85 138.461
L200.992 139.322
L210.134 144.413
L219.276 144.847
L228.418 140.967
L237.56 135.459
L246.702 129.431
L255.844 108.452" style="fill:none;stroke:#d9544d;stroke-linecap:round;"/>
   </g>
   <g id="line2d_26">
    <path clip-path="url(#pa691a7dfe0)" d="
M45.5786 63.3556
L54.7206 75.6579
L63.8625 76.0427
L73.0045 68.7036
L82.1465 77.1432
L91.2884 88.365
L100.43 96.0913
L109.572 109.391
L118.714 113.858
L127.856 90.0276
L136.998 95.2111
L146.14 105.985
L155.282 99.4743
L164.424 103.581
L173.566 111.917
L182.708 121.604
L191.85 119.717
L200.992 123.834
L210.134 132.808
L219.276 148.952
L228.418 152.793
L237.56 143.142
L246.702 142.224
L255.844 128.345" style="fill:none;stroke:#d9544d;stroke-linecap:round;"/>
   </g>
   <g id="line2d_27">
    <path clip-path="url(#pa691a7dfe0)" d="
M45.5786 66.1606
L54.7206 69.9038
L63.8625 72.3806
L73.0045 69.8673
L82.1465 72.8073
L91.2884 82.9775
L100.43 87.5891
L109.572 89.4212
L118.714 97.1842
L127.856 98.4677
L136.998 106.754
L146.14 116.353
L155.282 120.022
L164.424 118.6
L173.566 117.16
L182.708 123.293
L191.85 127.801
L200.992 128.543
L210.134 134.38
L219.276 141.073
L228.418 143.519
L237.56 136.962
L246.702 134.141
L255.844 132.863" style="fill:none;stroke:#d9544d;stroke-linecap:round;"/>
   </g>
   <g id="line2d_28">
    <path clip-path="url(#pa691a7dfe0)" d="
M45.5786 64.7124
L54.7206 66.9177
L63.8625 72.5061
L73.0045 76.8215
L82.1465 83.793
L91.2884 91.74
L100.43 98.7464
L109.572 101.89
L118.714 110.254
L127.856 112.422
L136.998 98.2545
L146.14 83.4964
L155.282 88.2345
L164.424 102.002
L173.566 114.244
L182.708 123.127
L191.85 128.807
L200.992 130.478
L210.134 132.879
L219.276 137.859
L228.418 142.244
L237.56 146.228
L246.702 145.861
L255.844 134.704" style="fill:none;stroke:#d9544d;stroke-linecap:round;"/>
   </g>
   <g id="line2d_29">
    <path clip-path="url(#pa691a7dfe0)" d="
M45.5786 60.1096
L54.7206 69.9121
L63.8625 75.8718
L73.0045 82.5112
L82.1465 83.6541
L91.2884 84.0482
L100.43 88.1679
L109.572 93.3204
L118.714 94.8877
L127.856 98.7845
L136.998 94.3462
L146.14 94.6255
L155.282 106.107
L164.424 116.544
L173.566 125.901
L182.708 132.638
L191.85 132.691
L200.992 138.05
L210.134 143.156
L219.276 143.323
L228.418 139.078
L237.56 137.708
L246.702 131.951
L255.844 120.836" style="fill:none;stroke:#d9544d;stroke-linecap:round;"/>
   </g>
   <g id="patch_3">
    <path d="
M45.5786 174.898
L45.5786 20.7894" style="fill:none;stroke:#262626;stroke-linecap:square;stroke-linejoin:miter;stroke-width:1.25;"/>
   </g>
   <g id="patch_4">
    <path d="
M45.5786 174.898
L255.844 174.898" style="fill:none;stroke:#262626;stroke-linecap:square;stroke-linejoin:miter;stroke-width:1.25;"/>
   </g>
   <g id="text_12">
    <!-- Botrytis -->
    <defs>
     <path d="
M7.32812 0
L7.32812 71.5781
L34.1875 71.5781
Q42.3906 71.5781 47.3438 69.4062
Q52.2969 67.2344 55.0938 62.7188
Q57.9062 58.2031 57.9062 53.2656
Q57.9062 48.6875 55.4219 44.625
Q52.9375 40.5781 47.9062 38.0938
Q54.3906 36.1875 57.875 31.5938
Q61.375 27 61.375 20.75
Q61.375 15.7188 59.25 11.3906
Q57.125 7.07812 54 4.73438
Q50.875 2.39062 46.1562 1.1875
Q41.4531 0 34.625 0
z

M16.7969 41.5
L32.2812 41.5
Q38.5781 41.5 41.3125 42.3281
Q44.9219 43.4062 46.75 45.8906
Q48.5781 48.3906 48.5781 52.1562
Q48.5781 55.7188 46.875 58.4219
Q45.1719 61.1406 41.9844 62.1406
Q38.8125 63.1406 31.1094 63.1406
L16.7969 63.1406
z

M16.7969 8.45312
L34.625 8.45312
Q39.2031 8.45312 41.0625 8.79688
Q44.3438 9.375 46.5312 10.7344
Q48.7344 12.1094 50.1406 14.7188
Q51.5625 17.3281 51.5625 20.75
Q51.5625 24.75 49.5156 27.7031
Q47.4688 30.6719 43.8281 31.8594
Q40.1875 33.0625 33.3438 33.0625
L16.7969 33.0625
z
" id="ArialMT-42"/>
     <path d="
M6.20312 -19.9688
L5.21875 -11.7188
Q8.10938 -12.5 10.25 -12.5
Q13.1875 -12.5 14.9375 -11.5156
Q16.7031 -10.5469 17.8281 -8.79688
Q18.6562 -7.46875 20.5156 -2.25
Q20.75 -1.51562 21.2969 -0.09375
L1.60938 51.8594
L11.0781 51.8594
L21.875 21.8281
Q23.9688 16.1094 25.6406 9.8125
Q27.1562 15.875 29.25 21.625
L40.3281 51.8594
L49.125 51.8594
L29.3906 -0.875
Q26.2188 -9.42188 24.4688 -12.6406
Q22.125 -17 19.0938 -19.0156
Q16.0625 -21.0469 11.8594 -21.0469
Q9.32812 -21.0469 6.20312 -19.9688" id="ArialMT-79"/>
     <path d="
M25.7812 7.85938
L27.0469 0.09375
Q23.3438 -0.6875 20.4062 -0.6875
Q15.625 -0.6875 12.9844 0.828125
Q10.3594 2.34375 9.28125 4.8125
Q8.20312 7.28125 8.20312 15.1875
L8.20312 45.0156
L1.76562 45.0156
L1.76562 51.8594
L8.20312 51.8594
L8.20312 64.7031
L16.9375 69.9688
L16.9375 51.8594
L25.7812 51.8594
L25.7812 45.0156
L16.9375 45.0156
L16.9375 14.7031
Q16.9375 10.9375 17.4062 9.85938
Q17.875 8.79688 18.9219 8.15625
Q19.9688 7.51562 21.9219 7.51562
Q23.3906 7.51562 25.7812 7.85938" id="ArialMT-74"/>
    </defs>
    <g style="fill:#262626;" transform="translate(131.3790625 15.789375)scale(0.12 -0.12)">
     <use xlink:href="#ArialMT-42"/>
     <use x="66.69921875" xlink:href="#ArialMT-6f"/>
     <use x="122.314453125" xlink:href="#ArialMT-74"/>
     <use x="150.09765625" xlink:href="#ArialMT-72"/>
     <use x="183.3984375" xlink:href="#ArialMT-79"/>
     <use x="233.3984375" xlink:href="#ArialMT-74"/>
     <use x="261.181640625" xlink:href="#ArialMT-69"/>
     <use x="283.3984375" xlink:href="#ArialMT-73"/>
    </g>
   </g>
  </g>
  <g id="axes_2">
   <g id="patch_5">
    <path d="
M268.804 174.898
L479.069 174.898
L479.069 20.7894
L268.804 20.7894
z
" style="fill:#ffffff;"/>
   </g>
   <g id="matplotlib.axis_3">
    <g id="xtick_5">
     <g id="line2d_30">
      <g>
       <use style="fill:#262626;stroke:#262626;" x="279.317171875" xlink:href="#me1deecec79" y="174.8978125"/>
      </g>
     </g>
     <g id="text_13">
      <!-- 20 -->
      <g style="fill:#262626;" transform="translate(274.142171875 195.055625)scale(0.1 -0.1)">
       <use xlink:href="#ArialMT-32"/>
       <use x="55.615234375" xlink:href="#ArialMT-30"/>
      </g>
     </g>
    </g>
    <g id="xtick_6">
     <g id="line2d_31">
      <g>
       <use style="fill:#262626;stroke:#262626;" x="331.8835" xlink:href="#me1deecec79" y="174.8978125"/>
      </g>
     </g>
     <g id="text_14">
      <!-- 25 -->
      <defs>
       <path d="
M4.15625 18.75
L13.375 19.5312
Q14.4062 12.7969 18.1406 9.39062
Q21.875 6 27.1562 6
Q33.5 6 37.8906 10.7812
Q42.2812 15.5781 42.2812 23.4844
Q42.2812 31 38.0625 35.3438
Q33.8438 39.7031 27 39.7031
Q22.75 39.7031 19.3281 37.7656
Q15.9219 35.8438 13.9688 32.7656
L5.71875 33.8438
L12.6406 70.6094
L48.25 70.6094
L48.25 62.2031
L19.6719 62.2031
L15.8281 42.9688
Q22.2656 47.4688 29.3438 47.4688
Q38.7188 47.4688 45.1562 40.9688
Q51.6094 34.4688 51.6094 24.2656
Q51.6094 14.5469 45.9531 7.46875
Q39.0625 -1.21875 27.1562 -1.21875
Q17.3906 -1.21875 11.2031 4.25
Q5.03125 9.71875 4.15625 18.75" id="ArialMT-35"/>
      </defs>
      <g style="fill:#262626;" transform="translate(326.6694375 195.055625)scale(0.1 -0.1)">
       <use xlink:href="#ArialMT-32"/>
       <use x="55.615234375" xlink:href="#ArialMT-35"/>
      </g>
     </g>
    </g>
    <g id="xtick_7">
     <g id="line2d_32">
      <g>
       <use style="fill:#262626;stroke:#262626;" x="384.449828125" xlink:href="#me1deecec79" y="174.8978125"/>
      </g>
     </g>
     <g id="text_15">
      <!-- 30 -->
      <g style="fill:#262626;" transform="translate(379.338109375 195.055625)scale(0.1 -0.1)">
       <use xlink:href="#ArialMT-33"/>
       <use x="55.615234375" xlink:href="#ArialMT-30"/>
      </g>
     </g>
    </g>
    <g id="xtick_8">
     <g id="line2d_33">
      <g>
       <use style="fill:#262626;stroke:#262626;" x="437.01615625" xlink:href="#me1deecec79" y="174.8978125"/>
      </g>
     </g>
     <g id="text_16">
      <!-- 35 -->
      <g style="fill:#262626;" transform="translate(431.865375 195.055625)scale(0.1 -0.1)">
       <use xlink:href="#ArialMT-33"/>
       <use x="55.615234375" xlink:href="#ArialMT-35"/>
      </g>
     </g>
    </g>
   </g>
   <g id="matplotlib.axis_4">
    <g id="ytick_7">
     <g id="line2d_34">
      <g>
       <use style="fill:#262626;stroke:#262626;" x="268.80390625" xlink:href="#m4aded61697" y="159.611557779"/>
      </g>
     </g>
    </g>
    <g id="ytick_8">
     <g id="line2d_35">
      <g>
       <use style="fill:#262626;stroke:#262626;" x="268.80390625" xlink:href="#m4aded61697" y="133.727108181"/>
      </g>
     </g>
    </g>
    <g id="ytick_9">
     <g id="line2d_36">
      <g>
       <use style="fill:#262626;stroke:#262626;" x="268.80390625" xlink:href="#m4aded61697" y="107.842658583"/>
      </g>
     </g>
    </g>
    <g id="ytick_10">
     <g id="line2d_37">
      <g>
       <use style="fill:#262626;stroke:#262626;" x="268.80390625" xlink:href="#m4aded61697" y="81.9582089845"/>
      </g>
     </g>
    </g>
    <g id="ytick_11">
     <g id="line2d_38">
      <g>
       <use style="fill:#262626;stroke:#262626;" x="268.80390625" xlink:href="#m4aded61697" y="56.0737593864"/>
      </g>
     </g>
    </g>
    <g id="ytick_12">
     <g id="line2d_39">
      <g>
       <use style="fill:#262626;stroke:#262626;" x="268.80390625" xlink:href="#m4aded61697" y="30.1893097883"/>
      </g>
     </g>
    </g>
   </g>
   <g id="line2d_40">
    <path clip-path="url(#pa61dcb5892)" d="
M268.804 153.175
L289.83 144.117
L310.857 130.864
L331.884 113.978
L352.91 108.778
L373.937 106.15
L394.963 96.5343
L415.99 91.774
L437.016 86.9265
L458.043 80.8524
L479.069 73.1191" style="fill:none;stroke:#03012d;stroke-linecap:round;"/>
   </g>
   <g id="line2d_41">
    <path clip-path="url(#pa61dcb5892)" d="
M268.804 146.497
L289.83 148.441
L310.857 135.192
L331.884 115.538
L352.91 107.639
L373.937 106.736
L394.963 96.8073
L415.99 84.2025
L437.016 83.5409
L458.043 83.9684
L479.069 77.7086" style="fill:none;stroke:#03012d;stroke-linecap:round;"/>
   </g>
   <g id="line2d_42">
    <path clip-path="url(#pa61dcb5892)" d="
M268.804 150.284
L289.83 147.904
L310.857 131.164
L331.884 108.631
L352.91 105.113
L373.937 112.057
L394.963 101.873
L415.99 85.0541
L437.016 84.7102
L458.043 84.9569
L479.069 74.5215" style="fill:none;stroke:#03012d;stroke-linecap:round;"/>
   </g>
   <g id="line2d_43">
    <path clip-path="url(#pa61dcb5892)" d="
M268.804 143.129
L289.83 156.218
L310.857 126.893
L331.884 113.195
L352.91 99.5624
L373.937 93.5214
L394.963 86.2919
L415.99 98.211
L437.016 100.725
L458.043 103.359
L479.069 65.1633" style="fill:none;stroke:#03012d;stroke-linecap:round;"/>
   </g>
   <g id="line2d_44">
    <path clip-path="url(#pa61dcb5892)" d="
M268.804 154.957
L289.83 144.551
L310.857 121.385
L331.884 111.901
L352.91 97.5785
L373.937 92.9061
L394.963 84.4764
L415.99 69.6976
L437.016 84.3697
L458.043 109.57
L479.069 114.877" style="fill:none;stroke:#03012d;stroke-linecap:round;"/>
   </g>
   <g id="line2d_45">
    <path clip-path="url(#pa61dcb5892)" d="
M268.804 161.605
L289.83 151.898
L310.857 122.837
L331.884 95.9653
L352.91 88.9084
L373.937 91.9074
L394.963 91.308
L415.99 94.3366
L437.016 96.0143
L458.043 96.7237
L479.069 94.7649" style="fill:none;stroke:#03012d;stroke-linecap:round;"/>
   </g>
   <g id="line2d_46">
    <path clip-path="url(#pa61dcb5892)" d="
M268.804 89.8168
L289.83 83.8973
L310.857 76.8028
L331.884 80.267
L352.91 90.4877
L373.937 101.923
L394.963 114.931
L415.99 124.186
L437.016 134.879
L458.043 144.608
L479.069 144.471" style="fill:none;stroke:#03012d;stroke-linecap:round;"/>
   </g>
   <g id="line2d_47">
    <path clip-path="url(#pa61dcb5892)" d="
M268.804 140.045
L289.83 138.986
L310.857 141.461
L331.884 120.676
L352.91 101.828
L373.937 86.6554
L394.963 68.7367
L415.99 84.5831
L437.016 107.623
L458.043 115.762
L479.069 79.9126" style="fill:none;stroke:#03012d;stroke-linecap:round;"/>
   </g>
   <g id="line2d_48">
    <path clip-path="url(#pa61dcb5892)" d="
M268.804 151.189
L289.83 145.432
L310.857 123.481
L331.884 107.782
L352.91 113.07
L373.937 116.413
L394.963 102.996
L415.99 92.8872
L437.016 84.2649
L458.043 77.5376
L479.069 71.2178" style="fill:none;stroke:#03012d;stroke-linecap:round;"/>
   </g>
   <g id="line2d_49">
    <path clip-path="url(#pa61dcb5892)" d="
M268.804 145.257
L289.83 141.647
L310.857 130.636
L331.884 119.195
L352.91 116.634
L373.937 112.181
L394.963 99.1137
L415.99 91.4373
L437.016 85.2284
L458.043 77.652
L479.069 67.2874" style="fill:none;stroke:#03012d;stroke-linecap:round;"/>
   </g>
   <g id="line2d_50">
    <path clip-path="url(#pa61dcb5892)" d="
M268.804 87.4981
L289.83 85.2018
L310.857 84.6881
L331.884 90.494
L352.91 91.0358
L373.937 95.383
L394.963 104.576
L415.99 113.074
L437.016 129.634
L458.043 148.772
L479.069 155.911" style="fill:none;stroke:#03012d;stroke-linecap:round;"/>
   </g>
   <g id="line2d_51">
    <path clip-path="url(#pa61dcb5892)" d="
M268.804 169.19
L289.83 144.357
L310.857 108.116
L331.884 105.795
L352.91 101.007
L373.937 97.6822
L394.963 88.4482
L415.99 83.1321
L437.016 95.5158
L458.043 101.687
L479.069 91.3378" style="fill:none;stroke:#03012d;stroke-linecap:round;"/>
   </g>
   <g id="line2d_52">
    <path clip-path="url(#pa61dcb5892)" d="
M268.804 169.171
L289.83 143.221
L310.857 117.501
L331.884 95.1795
L352.91 87.513
L373.937 90.539
L394.963 90.9952
L415.99 94.338
L437.016 96.8936
L458.043 104.049
L479.069 96.8686" style="fill:none;stroke:#03012d;stroke-linecap:round;"/>
   </g>
   <g id="line2d_53">
    <path clip-path="url(#pa61dcb5892)" d="
M268.804 142.843
L289.83 131.58
L310.857 120.326
L331.884 116.186
L352.91 116.382
L373.937 121.719
L394.963 118.815
L415.99 79.8708
L437.016 94.0091
L458.043 92.2128
L479.069 52.3256" style="fill:none;stroke:#03012d;stroke-linecap:round;"/>
   </g>
   <g id="line2d_54">
    <path clip-path="url(#pa61dcb5892)" d="
M268.804 105.857
L289.83 105.993
L310.857 103.087
L331.884 90.4813
L352.91 80.0412
L373.937 77.0654
L394.963 86.703
L415.99 110.237
L437.016 124.529
L458.043 141.958
L479.069 160.317" style="fill:none;stroke:#03012d;stroke-linecap:round;"/>
   </g>
   <g id="line2d_55">
    <path clip-path="url(#pa61dcb5892)" d="
M268.804 69.08
L289.83 83.808
L310.857 88.9823
L331.884 83.4927
L352.91 94.833
L373.937 114.401
L394.963 127.073
L415.99 141.819
L437.016 143.177
L458.043 133.947
L479.069 105.656" style="fill:none;stroke:#03012d;stroke-linecap:round;"/>
   </g>
   <g id="line2d_56">
    <path clip-path="url(#pa61dcb5892)" d="
M268.804 75.0872
L289.83 78.7885
L310.857 76.6223
L331.884 84.4526
L352.91 98.8048
L373.937 110.053
L394.963 122.302
L415.99 133.12
L437.016 135.845
L458.043 136.56
L479.069 134.634" style="fill:none;stroke:#03012d;stroke-linecap:round;"/>
   </g>
   <g id="line2d_57">
    <path clip-path="url(#pa61dcb5892)" d="
M268.804 110.035
L289.83 114.712
L310.857 92.1919
L331.884 74.4651
L352.91 77.0677
L373.937 85.3168
L394.963 90.8296
L415.99 120.425
L437.016 138.907
L458.043 151.203
L479.069 131.116" style="fill:none;stroke:#03012d;stroke-linecap:round;"/>
   </g>
   <g id="line2d_58">
    <path clip-path="url(#pa61dcb5892)" d="
M268.804 86.7856
L289.83 93.0497
L310.857 98.5127
L331.884 100.157
L352.91 93.7092
L373.937 75.8482
L394.963 85.4612
L415.99 120.051
L437.016 142.298
L458.043 149.684
L479.069 140.713" style="fill:none;stroke:#03012d;stroke-linecap:round;"/>
   </g>
   <g id="patch_6">
    <path d="
M268.804 174.898
L268.804 20.7894" style="fill:none;stroke:#262626;stroke-linecap:square;stroke-linejoin:miter;stroke-width:1.25;"/>
   </g>
   <g id="patch_7">
    <path d="
M268.804 174.898
L479.069 174.898" style="fill:none;stroke:#262626;stroke-linecap:square;stroke-linejoin:miter;stroke-width:1.25;"/>
   </g>
   <g id="text_17">
    <!-- Senescence -->
    <defs>
     <path d="
M4.5 23
L13.4219 23.7812
Q14.0625 18.4062 16.375 14.9688
Q18.7031 11.5312 23.5781 9.40625
Q28.4688 7.28125 34.5781 7.28125
Q39.9844 7.28125 44.1406 8.89062
Q48.2969 10.5 50.3125 13.2969
Q52.3438 16.1094 52.3438 19.4375
Q52.3438 22.7969 50.3906 25.3125
Q48.4375 27.8281 43.9531 29.5469
Q41.0625 30.6719 31.2031 33.0312
Q21.3438 35.4062 17.3906 37.5
Q12.25 40.1875 9.73438 44.1562
Q7.23438 48.1406 7.23438 53.0781
Q7.23438 58.5 10.2969 63.2031
Q13.375 67.9219 19.2812 70.3594
Q25.2031 72.7969 32.4219 72.7969
Q40.375 72.7969 46.4531 70.2344
Q52.5469 67.6719 55.8125 62.6875
Q59.0781 57.7188 59.3281 51.4219
L50.25 50.7344
Q49.5156 57.5156 45.2812 60.9844
Q41.0625 64.4531 32.8125 64.4531
Q24.2188 64.4531 20.2812 61.2969
Q16.3594 58.1562 16.3594 53.7188
Q16.3594 49.8594 19.1406 47.3594
Q21.875 44.875 33.4219 42.2656
Q44.9688 39.6562 49.2656 37.7031
Q55.5156 34.8125 58.4844 30.3906
Q61.4688 25.9844 61.4688 20.2188
Q61.4688 14.5 58.2031 9.4375
Q54.9375 4.39062 48.7969 1.57812
Q42.6719 -1.21875 35.0156 -1.21875
Q25.2969 -1.21875 18.7188 1.60938
Q12.1562 4.4375 8.42188 10.125
Q4.6875 15.8281 4.5 23" id="ArialMT-53"/>
     <path d="
M40.4375 19
L49.0781 17.875
Q47.6562 8.9375 41.8125 3.875
Q35.9844 -1.17188 27.4844 -1.17188
Q16.8438 -1.17188 10.375 5.78125
Q3.90625 12.75 3.90625 25.7344
Q3.90625 34.125 6.6875 40.4219
Q9.46875 46.7344 15.1562 49.875
Q20.8438 53.0312 27.5469 53.0312
Q35.9844 53.0312 41.3594 48.75
Q46.7344 44.4844 48.25 36.625
L39.7031 35.2969
Q38.4844 40.5312 35.375 43.1562
Q32.2812 45.7969 27.875 45.7969
Q21.2344 45.7969 17.0781 41.0312
Q12.9375 36.2812 12.9375 25.9844
Q12.9375 15.5312 16.9375 10.7969
Q20.9531 6.0625 27.3906 6.0625
Q32.5625 6.0625 36.0312 9.23438
Q39.5 12.4062 40.4375 19" id="ArialMT-63"/>
    </defs>
    <g style="fill:#262626;" transform="translate(341.4334375 15.789375)scale(0.12 -0.12)">
     <use xlink:href="#ArialMT-53"/>
     <use x="66.69921875" xlink:href="#ArialMT-65"/>
     <use x="122.314453125" xlink:href="#ArialMT-6e"/>
     <use x="177.9296875" xlink:href="#ArialMT-65"/>
     <use x="233.544921875" xlink:href="#ArialMT-73"/>
     <use x="283.544921875" xlink:href="#ArialMT-63"/>
     <use x="333.544921875" xlink:href="#ArialMT-65"/>
     <use x="389.16015625" xlink:href="#ArialMT-6e"/>
     <use x="444.775390625" xlink:href="#ArialMT-63"/>
     <use x="494.775390625" xlink:href="#ArialMT-65"/>
    </g>
   </g>
  </g>
  <g id="axes_3">
   <g id="patch_8">
    <path d="
M492.029 174.898
L702.295 174.898
L702.295 20.7894
L492.029 20.7894
z
" style="fill:#ffffff;"/>
   </g>
   <g id="matplotlib.axis_5">
    <g id="xtick_9">
     <g id="line2d_59">
      <g>
       <use style="fill:#262626;stroke:#262626;" x="532.292789229" xlink:href="#me1deecec79" y="174.8978125"/>
      </g>
     </g>
     <g id="text_18">
      <!-- 5 -->
      <g style="fill:#262626;" transform="translate(529.920132979 195.055625)scale(0.1 -0.1)">
       <use xlink:href="#ArialMT-35"/>
      </g>
     </g>
    </g>
    <g id="xtick_10">
     <g id="line2d_60">
      <g>
       <use style="fill:#262626;stroke:#262626;" x="577.030089761" xlink:href="#me1deecec79" y="174.8978125"/>
      </g>
     </g>
     <g id="text_19">
      <!-- 10 -->
      <g style="fill:#262626;" transform="translate(572.252746011 195.055625)scale(0.1 -0.1)">
       <use xlink:href="#ArialMT-31"/>
       <use x="55.615234375" xlink:href="#ArialMT-30"/>
      </g>
     </g>
    </g>
    <g id="xtick_11">
     <g id="line2d_61">
      <g>
       <use style="fill:#262626;stroke:#262626;" x="621.767390293" xlink:href="#me1deecec79" y="174.8978125"/>
      </g>
     </g>
     <g id="text_20">
      <!-- 15 -->
      <g style="fill:#262626;" transform="translate(616.950984043 195.055625)scale(0.1 -0.1)">
       <use xlink:href="#ArialMT-31"/>
       <use x="55.615234375" xlink:href="#ArialMT-35"/>
      </g>
     </g>
    </g>
    <g id="xtick_12">
     <g id="line2d_62">
      <g>
       <use style="fill:#262626;stroke:#262626;" x="666.504690824" xlink:href="#me1deecec79" y="174.8978125"/>
      </g>
     </g>
     <g id="text_21">
      <!-- 20 -->
      <g style="fill:#262626;" transform="translate(661.329690824 195.055625)scale(0.1 -0.1)">
       <use xlink:href="#ArialMT-32"/>
       <use x="55.615234375" xlink:href="#ArialMT-30"/>
      </g>
     </g>
    </g>
   </g>
   <g id="matplotlib.axis_6">
    <g id="ytick_13">
     <g id="line2d_63">
      <g>
       <use style="fill:#262626;stroke:#262626;" x="492.02921875" xlink:href="#m4aded61697" y="159.611557779"/>
      </g>
     </g>
    </g>
    <g id="ytick_14">
     <g id="line2d_64">
      <g>
       <use style="fill:#262626;stroke:#262626;" x="492.02921875" xlink:href="#m4aded61697" y="133.727108181"/>
      </g>
     </g>
    </g>
    <g id="ytick_15">
     <g id="line2d_65">
      <g>
       <use style="fill:#262626;stroke:#262626;" x="492.02921875" xlink:href="#m4aded61697" y="107.842658583"/>
      </g>
     </g>
    </g>
    <g id="ytick_16">
     <g id="line2d_66">
      <g>
       <use style="fill:#262626;stroke:#262626;" x="492.02921875" xlink:href="#m4aded61697" y="81.9582089845"/>
      </g>
     </g>
    </g>
    <g id="ytick_17">
     <g id="line2d_67">
      <g>
       <use style="fill:#262626;stroke:#262626;" x="492.02921875" xlink:href="#m4aded61697" y="56.0737593864"/>
      </g>
     </g>
    </g>
    <g id="ytick_18">
     <g id="line2d_68">
      <g>
       <use style="fill:#262626;stroke:#262626;" x="492.02921875" xlink:href="#m4aded61697" y="30.1893097883"/>
      </g>
     </g>
    </g>
   </g>
   <g id="line2d_69">
    <path clip-path="url(#p3aeff855be)" d="
M492.029 136.456
L496.503 135.383
L514.398 118.664
L541.24 95.5844
L594.925 82.5539
L702.295 78.4153" style="fill:none;stroke:#d9544d;stroke-linecap:round;"/>
   </g>
   <g id="line2d_70">
    <path clip-path="url(#p3aeff855be)" d="
M492.029 138.75
L496.503 135.101
L514.398 114.772
L541.24 96.8127
L594.925 84.0108
L702.295 77.6088" style="fill:none;stroke:#d9544d;stroke-linecap:round;"/>
   </g>
   <g id="line2d_71">
    <path clip-path="url(#p3aeff855be)" d="
M492.029 141.578
L496.503 135.128
L514.398 111.573
L541.24 92.0563
L594.925 85.0321
L702.295 81.6887" style="fill:none;stroke:#d9544d;stroke-linecap:round;"/>
   </g>
   <g id="line2d_72">
    <path clip-path="url(#p3aeff855be)" d="
M492.029 134.348
L496.503 131.381
L514.398 120.884
L541.24 105.947
L594.925 82.1286
L702.295 72.3667" style="fill:none;stroke:#d9544d;stroke-linecap:round;"/>
   </g>
   <g id="line2d_73">
    <path clip-path="url(#p3aeff855be)" d="
M492.029 140.322
L496.503 135.479
L514.398 113.904
L541.24 89.3561
L594.925 81.1996
L702.295 86.7953" style="fill:none;stroke:#d9544d;stroke-linecap:round;"/>
   </g>
   <g id="line2d_74">
    <path clip-path="url(#p3aeff855be)" d="
M492.029 134.179
L496.503 134.213
L514.398 122.98
L541.24 96.2762
L594.925 82.4055
L702.295 77.0029" style="fill:none;stroke:#d9544d;stroke-linecap:round;"/>
   </g>
   <g id="line2d_75">
    <path clip-path="url(#p3aeff855be)" d="
M492.029 134.133
L496.503 132.057
L514.398 123.366
L541.24 99.8102
L594.925 85.3762
L702.295 72.314" style="fill:none;stroke:#d9544d;stroke-linecap:round;"/>
   </g>
   <g id="line2d_76">
    <path clip-path="url(#p3aeff855be)" d="
M492.029 134.76
L496.503 129.274
L514.398 124.1
L541.24 103.602
L594.925 83.2207
L702.295 72.0986" style="fill:none;stroke:#d9544d;stroke-linecap:round;"/>
   </g>
   <g id="line2d_77">
    <path clip-path="url(#p3aeff855be)" d="
M492.029 133.022
L496.503 132.758
L514.398 124.737
L541.24 99.9171
L594.925 79.4915
L702.295 77.1305" style="fill:none;stroke:#d9544d;stroke-linecap:round;"/>
   </g>
   <g id="line2d_78">
    <path clip-path="url(#p3aeff855be)" d="
M492.029 137.065
L496.503 136.823
L514.398 115.897
L541.24 94.2333
L594.925 84.7026
L702.295 78.3353" style="fill:none;stroke:#d9544d;stroke-linecap:round;"/>
   </g>
   <g id="line2d_79">
    <path clip-path="url(#p3aeff855be)" d="
M492.029 126.69
L496.503 129.613
L514.398 121.979
L541.24 113.578
L594.925 92.7416
L702.295 62.4546" style="fill:none;stroke:#d9544d;stroke-linecap:round;"/>
   </g>
   <g id="line2d_80">
    <path clip-path="url(#p3aeff855be)" d="
M492.029 125.43
L496.503 127.664
L514.398 130.722
L541.24 110.853
L594.925 83.6777
L702.295 68.7098" style="fill:none;stroke:#d9544d;stroke-linecap:round;"/>
   </g>
   <g id="line2d_81">
    <path clip-path="url(#p3aeff855be)" d="
M492.029 130.814
L496.503 128.493
L514.398 124.5
L541.24 109.911
L594.925 85.903
L702.295 67.4347" style="fill:none;stroke:#d9544d;stroke-linecap:round;"/>
   </g>
   <g id="line2d_82">
    <path clip-path="url(#p3aeff855be)" d="
M492.029 135.019
L496.503 132.791
L514.398 120.679
L541.24 102.411
L594.925 81.4633
L702.295 74.6926" style="fill:none;stroke:#d9544d;stroke-linecap:round;"/>
   </g>
   <g id="line2d_83">
    <path clip-path="url(#p3aeff855be)" d="
M492.029 125.714
L496.503 134.75
L514.398 124.163
L541.24 107.847
L594.925 86.6018
L702.295 67.9795" style="fill:none;stroke:#d9544d;stroke-linecap:round;"/>
   </g>
   <g id="line2d_84">
    <path clip-path="url(#p3aeff855be)" d="
M492.029 137.3
L496.503 129.933
L514.398 118.134
L541.24 103.669
L594.925 89.2135
L702.295 68.8056" style="fill:none;stroke:#d9544d;stroke-linecap:round;"/>
   </g>
   <g id="line2d_85">
    <path clip-path="url(#p3aeff855be)" d="
M492.029 136.758
L496.503 134.134
L514.398 115.673
L541.24 103.754
L594.925 80.2754
L702.295 76.4622" style="fill:none;stroke:#d9544d;stroke-linecap:round;"/>
   </g>
   <g id="line2d_86">
    <path clip-path="url(#p3aeff855be)" d="
M492.029 135.542
L496.503 129.908
L514.398 122.915
L541.24 101.8
L594.925 85.6524
L702.295 71.2393" style="fill:none;stroke:#d9544d;stroke-linecap:round;"/>
   </g>
   <g id="line2d_87">
    <path clip-path="url(#p3aeff855be)" d="
M492.029 135.362
L496.503 133.712
L514.398 121.242
L541.24 97.411
L594.925 84.5158
L702.295 74.8128" style="fill:none;stroke:#d9544d;stroke-linecap:round;"/>
   </g>
   <g id="patch_9">
    <path d="
M492.029 174.898
L492.029 20.7894" style="fill:none;stroke:#262626;stroke-linecap:square;stroke-linejoin:miter;stroke-width:1.25;"/>
   </g>
   <g id="patch_10">
    <path d="
M492.029 174.898
L702.295 174.898" style="fill:none;stroke:#262626;stroke-linecap:square;stroke-linejoin:miter;stroke-width:1.25;"/>
   </g>
   <g id="text_22">
    <!-- Root Cold -->
    <defs>
     <path d="
M7.85938 0
L7.85938 71.5781
L39.5938 71.5781
Q49.1719 71.5781 54.1406 69.6406
Q59.125 67.7188 62.1094 62.8281
Q65.0938 57.9531 65.0938 52.0469
Q65.0938 44.4375 60.1562 39.2031
Q55.2188 33.9844 44.9219 32.5625
Q48.6875 30.7656 50.6406 29
Q54.7812 25.2031 58.5 19.4844
L70.9531 0
L59.0312 0
L49.5625 14.8906
Q45.4062 21.3438 42.7188 24.75
Q40.0469 28.1719 37.9219 29.5312
Q35.7969 30.9062 33.5938 31.4531
Q31.9844 31.7812 28.3281 31.7812
L17.3281 31.7812
L17.3281 0
z

M17.3281 39.9844
L37.7031 39.9844
Q44.1875 39.9844 47.8438 41.3281
Q51.5156 42.6719 53.4219 45.625
Q55.3281 48.5781 55.3281 52.0469
Q55.3281 57.125 51.6406 60.3906
Q47.9531 63.6719 39.9844 63.6719
L17.3281 63.6719
z
" id="ArialMT-52"/>
     <path d="
M58.7969 25.0938
L68.2656 22.7031
Q65.2812 11.0312 57.5469 4.90625
Q49.8125 -1.21875 38.625 -1.21875
Q27.0469 -1.21875 19.7969 3.48438
Q12.5469 8.20312 8.76562 17.1406
Q4.98438 26.0781 4.98438 36.3281
Q4.98438 47.5156 9.25 55.8281
Q13.5312 64.1562 21.4062 68.4688
Q29.2969 72.7969 38.7656 72.7969
Q49.5156 72.7969 56.8281 67.3281
Q64.1562 61.8594 67.0469 51.9531
L57.7188 49.75
Q55.2188 57.5625 50.4844 61.125
Q45.75 64.7031 38.5781 64.7031
Q30.3281 64.7031 24.7812 60.7344
Q19.2344 56.7812 16.9844 50.1094
Q14.75 43.4531 14.75 36.375
Q14.75 27.25 17.4062 20.4375
Q20.0625 13.625 25.6719 10.25
Q31.2969 6.89062 37.8438 6.89062
Q45.7969 6.89062 51.3125 11.4688
Q56.8438 16.0625 58.7969 25.0938" id="ArialMT-43"/>
     <path id="ArialMT-20"/>
     <path d="
M40.2344 0
L40.2344 6.54688
Q35.2969 -1.17188 25.7344 -1.17188
Q19.5312 -1.17188 14.3281 2.25
Q9.125 5.67188 6.26562 11.7969
Q3.42188 17.9219 3.42188 25.875
Q3.42188 33.6406 6 39.9688
Q8.59375 46.2969 13.7656 49.6562
Q18.9531 53.0312 25.3438 53.0312
Q30.0312 53.0312 33.6875 51.0469
Q37.3594 49.0781 39.6562 45.9062
L39.6562 71.5781
L48.3906 71.5781
L48.3906 0
z

M12.4531 25.875
Q12.4531 15.9219 16.6406 10.9844
Q20.8438 6.0625 26.5625 6.0625
Q32.3281 6.0625 36.3438 10.7656
Q40.375 15.4844 40.375 25.1406
Q40.375 35.7969 36.2656 40.7656
Q32.1719 45.75 26.1719 45.75
Q20.3125 45.75 16.375 40.9688
Q12.4531 36.1875 12.4531 25.875" id="ArialMT-64"/>
     <path d="
M6.39062 0
L6.39062 71.5781
L15.1875 71.5781
L15.1875 0
z
" id="ArialMT-6c"/>
    </defs>
    <g style="fill:#262626;" transform="translate(570.915625 15.789375)scale(0.12 -0.12)">
     <use xlink:href="#ArialMT-52"/>
     <use x="72.216796875" xlink:href="#ArialMT-6f"/>
     <use x="127.83203125" xlink:href="#ArialMT-6f"/>
     <use x="183.447265625" xlink:href="#ArialMT-74"/>
     <use x="211.23046875" xlink:href="#ArialMT-20"/>
     <use x="239.013671875" xlink:href="#ArialMT-43"/>
     <use x="311.23046875" xlink:href="#ArialMT-6f"/>
     <use x="366.845703125" xlink:href="#ArialMT-6c"/>
     <use x="389.0625" xlink:href="#ArialMT-64"/>
    </g>
   </g>
  </g>
  <g id="axes_4">
   <g id="patch_11">
    <path d="
M45.5786 377.418
L255.844 377.418
L255.844 223.309
L45.5786 223.309
z
" style="fill:#ffffff;"/>
   </g>
   <g id="matplotlib.axis_7">
    <g id="xtick_13">
     <g id="line2d_88">
      <g>
       <use style="fill:#262626;stroke:#262626;" x="87.63165625" xlink:href="#me1deecec79" y="377.4178125"/>
      </g>
     </g>
     <g id="text_23">
      <!-- 5 -->
      <g style="fill:#262626;" transform="translate(85.259 397.575625)scale(0.1 -0.1)">
       <use xlink:href="#ArialMT-35"/>
      </g>
     </g>
    </g>
    <g id="xtick_14">
     <g id="line2d_89">
      <g>
       <use style="fill:#262626;stroke:#262626;" x="131.898037829" xlink:href="#me1deecec79" y="377.4178125"/>
      </g>
     </g>
     <g id="text_24">
      <!-- 10 -->
      <g style="fill:#262626;" transform="translate(127.120694079 397.575625)scale(0.1 -0.1)">
       <use xlink:href="#ArialMT-31"/>
       <use x="55.615234375" xlink:href="#ArialMT-30"/>
      </g>
     </g>
    </g>
    <g id="xtick_15">
     <g id="line2d_90">
      <g>
       <use style="fill:#262626;stroke:#262626;" x="176.164419408" xlink:href="#me1deecec79" y="377.4178125"/>
      </g>
     </g>
     <g id="text_25">
      <!-- 15 -->
      <g style="fill:#262626;" transform="translate(171.348013158 397.575625)scale(0.1 -0.1)">
       <use xlink:href="#ArialMT-31"/>
       <use x="55.615234375" xlink:href="#ArialMT-35"/>
      </g>
     </g>
    </g>
    <g id="xtick_16">
     <g id="line2d_91">
      <g>
       <use style="fill:#262626;stroke:#262626;" x="220.430800987" xlink:href="#me1deecec79" y="377.4178125"/>
      </g>
     </g>
     <g id="text_26">
      <!-- 20 -->
      <g style="fill:#262626;" transform="translate(215.255800987 397.575625)scale(0.1 -0.1)">
       <use xlink:href="#ArialMT-32"/>
       <use x="55.615234375" xlink:href="#ArialMT-30"/>
      </g>
     </g>
    </g>
    <g id="text_27">
     <!-- Time -->
     <defs>
      <path d="
M6.59375 0
L6.59375 51.8594
L14.4531 51.8594
L14.4531 44.5781
Q16.8906 48.3906 20.9375 50.7031
Q25 53.0312 30.1719 53.0312
Q35.9375 53.0312 39.625 50.6406
Q43.3125 48.25 44.8281 43.9531
Q50.9844 53.0312 60.8438 53.0312
Q68.5625 53.0312 72.7031 48.75
Q76.8594 44.4844 76.8594 35.5938
L76.8594 0
L68.1094 0
L68.1094 32.6719
Q68.1094 37.9375 67.25 40.25
Q66.4062 42.5781 64.1562 43.9844
Q61.9219 45.4062 58.8906 45.4062
Q53.4219 45.4062 49.7969 41.7656
Q46.1875 38.1406 46.1875 30.125
L46.1875 0
L37.4062 0
L37.4062 33.6875
Q37.4062 39.5469 35.25 42.4688
Q33.1094 45.4062 28.2188 45.4062
Q24.5156 45.4062 21.3594 43.4531
Q18.2188 41.5 16.7969 37.7344
Q15.375 33.9844 15.375 26.9062
L15.375 0
z
" id="ArialMT-6d"/>
      <path d="
M25.9219 0
L25.9219 63.1406
L2.34375 63.1406
L2.34375 71.5781
L59.0781 71.5781
L59.0781 63.1406
L35.4062 63.1406
L35.4062 0
z
" id="ArialMT-54"/>
     </defs>
     <g style="fill:#262626;" transform="translate(139.05296875 412.43671875)scale(0.11 -0.11)">
      <use xlink:href="#ArialMT-54"/>
      <use x="57.333984375" xlink:href="#ArialMT-69"/>
      <use x="79.55078125" xlink:href="#ArialMT-6d"/>
      <use x="162.8515625" xlink:href="#ArialMT-65"/>
     </g>
    </g>
   </g>
   <g id="matplotlib.axis_8">
    <g id="ytick_19">
     <g id="line2d_92">
      <g>
       <use style="fill:#262626;stroke:#262626;" x="45.57859375" xlink:href="#m4aded61697" y="362.131557779"/>
      </g>
     </g>
     <g id="text_28">
      <!-- −2 -->
      <g style="fill:#262626;" transform="translate(22.25984375 364.716714029)scale(0.1 -0.1)">
       <use xlink:href="#ArialMT-2212"/>
       <use x="58.3984375" xlink:href="#ArialMT-32"/>
      </g>
     </g>
    </g>
    <g id="ytick_20">
     <g id="line2d_93">
      <g>
       <use style="fill:#262626;stroke:#262626;" x="45.57859375" xlink:href="#m4aded61697" y="336.247108181"/>
      </g>
     </g>
     <g id="text_29">
      <!-- −1 -->
      <g style="fill:#262626;" transform="translate(23.56921875 338.832264431)scale(0.1 -0.1)">
       <use xlink:href="#ArialMT-2212"/>
       <use x="58.3984375" xlink:href="#ArialMT-31"/>
      </g>
     </g>
    </g>
    <g id="ytick_21">
     <g id="line2d_94">
      <g>
       <use style="fill:#262626;stroke:#262626;" x="45.57859375" xlink:href="#m4aded61697" y="310.362658583"/>
      </g>
     </g>
     <g id="text_30">
      <!-- 0 -->
      <g style="fill:#262626;" transform="translate(27.91140625 312.947814833)scale(0.1 -0.1)">
       <use xlink:href="#ArialMT-30"/>
      </g>
     </g>
    </g>
    <g id="ytick_22">
     <g id="line2d_95">
      <g>
       <use style="fill:#262626;stroke:#262626;" x="45.57859375" xlink:href="#m4aded61697" y="284.478208985"/>
      </g>
     </g>
     <g id="text_31">
      <!-- 1 -->
      <g style="fill:#262626;" transform="translate(29.94265625 287.063365235)scale(0.1 -0.1)">
       <use xlink:href="#ArialMT-31"/>
      </g>
     </g>
    </g>
    <g id="ytick_23">
     <g id="line2d_96">
      <g>
       <use style="fill:#262626;stroke:#262626;" x="45.57859375" xlink:href="#m4aded61697" y="258.593759386"/>
      </g>
     </g>
     <g id="text_32">
      <!-- 2 -->
      <g style="fill:#262626;" transform="translate(27.83796875 261.178915636)scale(0.1 -0.1)">
       <use xlink:href="#ArialMT-32"/>
      </g>
     </g>
    </g>
    <g id="ytick_24">
     <g id="line2d_97">
      <g>
       <use style="fill:#262626;stroke:#262626;" x="45.57859375" xlink:href="#m4aded61697" y="232.709309788"/>
      </g>
     </g>
     <g id="text_33">
      <!-- 3 -->
      <g style="fill:#262626;" transform="translate(27.89109375 235.294466038)scale(0.1 -0.1)">
       <use xlink:href="#ArialMT-33"/>
      </g>
     </g>
    </g>
    <g id="text_34">
     <!-- Expression -->
     <g style="fill:#262626;" transform="translate(15.07359375 326.75671875)rotate(-90.0)scale(0.11 -0.11)">
      <use xlink:href="#ArialMT-45"/>
      <use x="66.69921875" xlink:href="#ArialMT-78"/>
      <use x="116.69921875" xlink:href="#ArialMT-70"/>
      <use x="172.314453125" xlink:href="#ArialMT-72"/>
      <use x="205.615234375" xlink:href="#ArialMT-65"/>
      <use x="261.23046875" xlink:href="#ArialMT-73"/>
      <use x="311.23046875" xlink:href="#ArialMT-73"/>
      <use x="361.23046875" xlink:href="#ArialMT-69"/>
      <use x="383.447265625" xlink:href="#ArialMT-6f"/>
      <use x="439.0625" xlink:href="#ArialMT-6e"/>
     </g>
    </g>
   </g>
   <g id="line2d_98">
    <path clip-path="url(#p4d13165c25)" d="
M45.5786 323.98
L47.7919 282.828
L52.2186 271.711
L69.9251 304.666
L96.4849 315.225
L149.605 329.975
L255.844 344.153" style="fill:none;stroke:#03012d;stroke-linecap:round;"/>
   </g>
   <g id="line2d_99">
    <path clip-path="url(#p4d13165c25)" d="
M45.5786 315.964
L47.7919 296.399
L52.2186 267.157
L69.9251 308.683
L96.4849 308.921
L149.605 323.103
L255.844 352.312" style="fill:none;stroke:#03012d;stroke-linecap:round;"/>
   </g>
   <g id="line2d_100">
    <path clip-path="url(#p4d13165c25)" d="
M45.5786 304.214
L47.7919 283.161
L52.2186 270.24
L69.9251 314.232
L96.4849 334.653
L149.605 333.657
L255.844 332.382" style="fill:none;stroke:#03012d;stroke-linecap:round;"/>
   </g>
   <g id="line2d_101">
    <path clip-path="url(#p4d13165c25)" d="
M45.5786 323.554
L47.7919 292.354
L52.2186 280.366
L69.9251 307.726
L96.4849 317.522
L149.605 293.067
L255.844 357.95" style="fill:none;stroke:#03012d;stroke-linecap:round;"/>
   </g>
   <g id="line2d_102">
    <path clip-path="url(#p4d13165c25)" d="
M45.5786 327.343
L47.7919 331.376
L52.2186 314.87
L69.9251 270.22
L96.4849 282.531
L149.605 306.376
L255.844 339.823" style="fill:none;stroke:#03012d;stroke-linecap:round;"/>
   </g>
   <g id="line2d_103">
    <path clip-path="url(#p4d13165c25)" d="
M45.5786 323.661
L47.7919 289.168
L52.2186 313.952
L69.9251 265.764
L96.4849 309.207
L149.605 343.692
L255.844 327.094" style="fill:none;stroke:#03012d;stroke-linecap:round;"/>
   </g>
   <g id="line2d_104">
    <path clip-path="url(#p4d13165c25)" d="
M45.5786 277.789
L47.7919 313.342
L52.2186 309.05
L69.9251 314.421
L96.4849 279.095
L149.605 327.9
L255.844 350.942" style="fill:none;stroke:#03012d;stroke-linecap:round;"/>
   </g>
   <g id="line2d_105">
    <path clip-path="url(#p4d13165c25)" d="
M45.5786 302.886
L47.7919 325.67
L52.2186 305.034
L69.9251 265.316
L96.4849 312.16
L149.605 351.215
L255.844 310.258" style="fill:none;stroke:#03012d;stroke-linecap:round;"/>
   </g>
   <g id="line2d_106">
    <path clip-path="url(#p4d13165c25)" d="
M45.5786 326.601
L47.7919 275.859
L52.2186 273.495
L69.9251 315.722
L96.4849 316.92
L149.605 321.946
L255.844 341.997" style="fill:none;stroke:#03012d;stroke-linecap:round;"/>
   </g>
   <g id="line2d_107">
    <path clip-path="url(#p4d13165c25)" d="
M45.5786 299.964
L47.7919 284.272
L52.2186 277.428
L69.9251 309.167
L96.4849 334.439
L149.605 349.162
L255.844 318.108" style="fill:none;stroke:#03012d;stroke-linecap:round;"/>
   </g>
   <g id="line2d_108">
    <path clip-path="url(#p4d13165c25)" d="
M45.5786 337.783
L47.7919 321.077
L52.2186 336.771
L69.9251 318.251
L96.4849 276.999
L149.605 274.744
L255.844 306.913" style="fill:none;stroke:#03012d;stroke-linecap:round;"/>
   </g>
   <g id="line2d_109">
    <path clip-path="url(#p4d13165c25)" d="
M45.5786 344.797
L47.7919 316.49
L52.2186 307.447
L69.9251 260.053
L96.4849 304.728
L149.605 324.9
L255.844 314.123" style="fill:none;stroke:#03012d;stroke-linecap:round;"/>
   </g>
   <g id="line2d_110">
    <path clip-path="url(#p4d13165c25)" d="
M45.5786 327.336
L47.7919 321.933
L52.2186 312.821
L69.9251 259.224
L96.4849 293.842
L149.605 324.692
L255.844 332.69" style="fill:none;stroke:#03012d;stroke-linecap:round;"/>
   </g>
   <g id="line2d_111">
    <path clip-path="url(#p4d13165c25)" d="
M45.5786 315.112
L47.7919 265.824
L52.2186 290.89
L69.9251 345.347
L96.4849 306.84
L149.605 321.832
L255.844 326.694" style="fill:none;stroke:#03012d;stroke-linecap:round;"/>
   </g>
   <g id="line2d_112">
    <path clip-path="url(#p4d13165c25)" d="
M45.5786 323.695
L47.7919 299.613
L52.2186 283.699
L69.9251 274.6
L96.4849 339.851
L149.605 311.285
L255.844 339.796" style="fill:none;stroke:#03012d;stroke-linecap:round;"/>
   </g>
   <g id="line2d_113">
    <path clip-path="url(#p4d13165c25)" d="
M45.5786 303.049
L47.7919 280.793
L52.2186 279.338
L69.9251 316.124
L96.4849 347.782
L149.605 308.753
L255.844 336.7" style="fill:none;stroke:#03012d;stroke-linecap:round;"/>
   </g>
   <g id="line2d_114">
    <path clip-path="url(#p4d13165c25)" d="
M45.5786 306.271
L47.7919 276.175
L52.2186 275.812
L69.9251 335.204
L96.4849 336.845
L149.605 314.368
L255.844 327.863" style="fill:none;stroke:#03012d;stroke-linecap:round;"/>
   </g>
   <g id="line2d_115">
    <path clip-path="url(#p4d13165c25)" d="
M45.5786 343.793
L47.7919 331.376
L52.2186 308.081
L69.9251 274.716
L96.4849 294.598
L149.605 288.352
L255.844 331.624" style="fill:none;stroke:#03012d;stroke-linecap:round;"/>
   </g>
   <g id="line2d_116">
    <path clip-path="url(#p4d13165c25)" d="
M45.5786 331.9
L47.7919 314.181
L52.2186 266.115
L69.9251 298.843
L96.4849 303.341
L149.605 347.803
L255.844 310.356" style="fill:none;stroke:#03012d;stroke-linecap:round;"/>
   </g>
   <g id="patch_12">
    <path d="
M45.5786 377.418
L45.5786 223.309" style="fill:none;stroke:#262626;stroke-linecap:square;stroke-linejoin:miter;stroke-width:1.25;"/>
   </g>
   <g id="patch_13">
    <path d="
M45.5786 377.418
L255.844 377.418" style="fill:none;stroke:#262626;stroke-linecap:square;stroke-linejoin:miter;stroke-width:1.25;"/>
   </g>
   <g id="text_35">
    <!-- Root Drought -->
    <defs>
     <path d="
M40.5781 0
L40.5781 7.625
Q34.5156 -1.17188 24.125 -1.17188
Q19.5312 -1.17188 15.5469 0.578125
Q11.5781 2.34375 9.64062 5
Q7.71875 7.67188 6.9375 11.5312
Q6.39062 14.1094 6.39062 19.7344
L6.39062 51.8594
L15.1875 51.8594
L15.1875 23.0938
Q15.1875 16.2188 15.7188 13.8125
Q16.5469 10.3594 19.2344 8.375
Q21.9219 6.39062 25.875 6.39062
Q29.8281 6.39062 33.2969 8.42188
Q36.7656 10.4531 38.2031 13.9375
Q39.6562 17.4375 39.6562 24.0781
L39.6562 51.8594
L48.4375 51.8594
L48.4375 0
z
" id="ArialMT-75"/>
     <path d="
M6.59375 0
L6.59375 71.5781
L15.375 71.5781
L15.375 45.9062
Q21.5312 53.0312 30.9062 53.0312
Q36.6719 53.0312 40.9219 50.75
Q45.1719 48.4844 47 44.4844
Q48.8281 40.4844 48.8281 32.8594
L48.8281 0
L40.0469 0
L40.0469 32.8594
Q40.0469 39.4531 37.1875 42.4531
Q34.3281 45.4531 29.1094 45.4531
Q25.2031 45.4531 21.75 43.4219
Q18.3125 41.4062 16.8438 37.9375
Q15.375 34.4688 15.375 28.375
L15.375 0
z
" id="ArialMT-68"/>
     <path d="
M7.71875 0
L7.71875 71.5781
L32.375 71.5781
Q40.7188 71.5781 45.125 70.5625
Q51.2656 69.1406 55.6094 65.4375
Q61.2812 60.6406 64.0781 53.1875
Q66.8906 45.75 66.8906 36.1875
Q66.8906 28.0312 64.9844 21.7344
Q63.0938 15.4375 60.1094 11.2969
Q57.125 7.17188 53.5781 4.79688
Q50.0469 2.4375 45.0469 1.21875
Q40.0469 0 33.5469 0
z

M17.1875 8.45312
L32.4688 8.45312
Q39.5469 8.45312 43.5781 9.76562
Q47.6094 11.0781 50 13.4844
Q53.375 16.8438 55.25 22.5312
Q57.125 28.2188 57.125 36.3281
Q57.125 47.5625 53.4375 53.5938
Q49.75 59.625 44.4844 61.6719
Q40.6719 63.1406 32.2344 63.1406
L17.1875 63.1406
z
" id="ArialMT-44"/>
     <path d="
M4.98438 -4.29688
L13.5312 -5.5625
Q14.0625 -9.51562 16.5 -11.3281
Q19.7812 -13.7656 25.4375 -13.7656
Q31.5469 -13.7656 34.8594 -11.3281
Q38.1875 -8.89062 39.3594 -4.5
Q40.0469 -1.8125 39.9844 6.78125
Q34.2344 0 25.6406 0
Q14.9375 0 9.07812 7.71875
Q3.21875 15.4375 3.21875 26.2188
Q3.21875 33.6406 5.90625 39.9062
Q8.59375 46.1875 13.6875 49.6094
Q18.7969 53.0312 25.6875 53.0312
Q34.8594 53.0312 40.8281 45.6094
L40.8281 51.8594
L48.9219 51.8594
L48.9219 7.03125
Q48.9219 -5.07812 46.4531 -10.125
Q44 -15.1875 38.6406 -18.1094
Q33.2969 -21.0469 25.4844 -21.0469
Q16.2188 -21.0469 10.5 -16.875
Q4.78125 -12.7031 4.98438 -4.29688
M12.25 26.8594
Q12.25 16.6562 16.2969 11.9688
Q20.3594 7.28125 26.4688 7.28125
Q32.5156 7.28125 36.6094 11.9375
Q40.7188 16.6094 40.7188 26.5625
Q40.7188 36.0781 36.5 40.9062
Q32.2812 45.75 26.3125 45.75
Q20.4531 45.75 16.3438 40.9844
Q12.25 36.2344 12.25 26.8594" id="ArialMT-67"/>
    </defs>
    <g style="fill:#262626;" transform="translate(115.07125 218.309375)scale(0.12 -0.12)">
     <use xlink:href="#ArialMT-52"/>
     <use x="72.216796875" xlink:href="#ArialMT-6f"/>
     <use x="127.83203125" xlink:href="#ArialMT-6f"/>
     <use x="183.447265625" xlink:href="#ArialMT-74"/>
     <use x="211.23046875" xlink:href="#ArialMT-20"/>
     <use x="239.013671875" xlink:href="#ArialMT-44"/>
     <use x="311.23046875" xlink:href="#ArialMT-72"/>
     <use x="344.53125" xlink:href="#ArialMT-6f"/>
     <use x="400.146484375" xlink:href="#ArialMT-75"/>
     <use x="455.76171875" xlink:href="#ArialMT-67"/>
     <use x="511.376953125" xlink:href="#ArialMT-68"/>
     <use x="566.9921875" xlink:href="#ArialMT-74"/>
    </g>
   </g>
  </g>
  <g id="axes_5">
   <g id="patch_14">
    <path d="
M268.804 377.418
L479.069 377.418
L479.069 223.309
L268.804 223.309
z
" style="fill:#ffffff;"/>
   </g>
   <g id="matplotlib.axis_9">
    <g id="xtick_17">
     <g id="line2d_117">
      <g>
       <use style="fill:#262626;stroke:#262626;" x="309.067476729" xlink:href="#me1deecec79" y="377.4178125"/>
      </g>
     </g>
     <g id="text_36">
      <!-- 5 -->
      <g style="fill:#262626;" transform="translate(306.694820479 397.575625)scale(0.1 -0.1)">
       <use xlink:href="#ArialMT-35"/>
      </g>
     </g>
    </g>
    <g id="xtick_18">
     <g id="line2d_118">
      <g>
       <use style="fill:#262626;stroke:#262626;" x="353.804777261" xlink:href="#me1deecec79" y="377.4178125"/>
      </g>
     </g>
     <g id="text_37">
      <!-- 10 -->
      <g style="fill:#262626;" transform="translate(349.027433511 397.575625)scale(0.1 -0.1)">
       <use xlink:href="#ArialMT-31"/>
       <use x="55.615234375" xlink:href="#ArialMT-30"/>
      </g>
     </g>
    </g>
    <g id="xtick_19">
     <g id="line2d_119">
      <g>
       <use style="fill:#262626;stroke:#262626;" x="398.542077793" xlink:href="#me1deecec79" y="377.4178125"/>
      </g>
     </g>
     <g id="text_38">
      <!-- 15 -->
      <g style="fill:#262626;" transform="translate(393.725671543 397.575625)scale(0.1 -0.1)">
       <use xlink:href="#ArialMT-31"/>
       <use x="55.615234375" xlink:href="#ArialMT-35"/>
      </g>
     </g>
    </g>
    <g id="xtick_20">
     <g id="line2d_120">
      <g>
       <use style="fill:#262626;stroke:#262626;" x="443.279378324" xlink:href="#me1deecec79" y="377.4178125"/>
      </g>
     </g>
     <g id="text_39">
      <!-- 20 -->
      <g style="fill:#262626;" transform="translate(438.104378324 397.575625)scale(0.1 -0.1)">
       <use xlink:href="#ArialMT-32"/>
       <use x="55.615234375" xlink:href="#ArialMT-30"/>
      </g>
     </g>
    </g>
    <g id="text_40">
     <!-- Time -->
     <g style="fill:#262626;" transform="translate(362.27828125 412.43671875)scale(0.11 -0.11)">
      <use xlink:href="#ArialMT-54"/>
      <use x="57.333984375" xlink:href="#ArialMT-69"/>
      <use x="79.55078125" xlink:href="#ArialMT-6d"/>
      <use x="162.8515625" xlink:href="#ArialMT-65"/>
     </g>
    </g>
   </g>
   <g id="matplotlib.axis_10">
    <g id="ytick_25">
     <g id="line2d_121">
      <g>
       <use style="fill:#262626;stroke:#262626;" x="268.80390625" xlink:href="#m4aded61697" y="362.131557779"/>
      </g>
     </g>
    </g>
    <g id="ytick_26">
     <g id="line2d_122">
      <g>
       <use style="fill:#262626;stroke:#262626;" x="268.80390625" xlink:href="#m4aded61697" y="336.247108181"/>
      </g>
     </g>
    </g>
    <g id="ytick_27">
     <g id="line2d_123">
      <g>
       <use style="fill:#262626;stroke:#262626;" x="268.80390625" xlink:href="#m4aded61697" y="310.362658583"/>
      </g>
     </g>
    </g>
    <g id="ytick_28">
     <g id="line2d_124">
      <g>
       <use style="fill:#262626;stroke:#262626;" x="268.80390625" xlink:href="#m4aded61697" y="284.478208985"/>
      </g>
     </g>
    </g>
    <g id="ytick_29">
     <g id="line2d_125">
      <g>
       <use style="fill:#262626;stroke:#262626;" x="268.80390625" xlink:href="#m4aded61697" y="258.593759386"/>
      </g>
     </g>
    </g>
    <g id="ytick_30">
     <g id="line2d_126">
      <g>
       <use style="fill:#262626;stroke:#262626;" x="268.80390625" xlink:href="#m4aded61697" y="232.709309788"/>
      </g>
     </g>
    </g>
   </g>
   <g id="line2d_127">
    <path clip-path="url(#p659f111a6e)" d="
M268.804 337.985
L273.278 340.223
L291.173 318.89
L318.015 298.848
L371.7 284.737
L479.069 281.494" style="fill:none;stroke:#d9544d;stroke-linecap:round;"/>
   </g>
   <g id="line2d_128">
    <path clip-path="url(#p659f111a6e)" d="
M268.804 347.715
L273.278 334.357
L291.173 311.465
L318.015 296.433
L371.7 287.938
L479.069 284.267" style="fill:none;stroke:#d9544d;stroke-linecap:round;"/>
   </g>
   <g id="line2d_129">
    <path clip-path="url(#p659f111a6e)" d="
M268.804 349.3
L273.278 334.073
L291.173 307.713
L318.015 296.867
L371.7 287.937
L479.069 286.285" style="fill:none;stroke:#d9544d;stroke-linecap:round;"/>
   </g>
   <g id="line2d_130">
    <path clip-path="url(#p659f111a6e)" d="
M268.804 342.79
L273.278 337.3
L291.173 317.828
L318.015 292.387
L371.7 286.449
L479.069 285.42" style="fill:none;stroke:#d9544d;stroke-linecap:round;"/>
   </g>
   <g id="line2d_131">
    <path clip-path="url(#p659f111a6e)" d="
M268.804 339.913
L273.278 338.804
L291.173 319.568
L318.015 290.733
L371.7 280.812
L479.069 292.346" style="fill:none;stroke:#d9544d;stroke-linecap:round;"/>
   </g>
   <g id="line2d_132">
    <path clip-path="url(#p659f111a6e)" d="
M268.804 344.591
L273.278 341.876
L291.173 302.456
L318.015 293.338
L371.7 289.642
L479.069 290.272" style="fill:none;stroke:#d9544d;stroke-linecap:round;"/>
   </g>
   <g id="line2d_133">
    <path clip-path="url(#p659f111a6e)" d="
M268.804 339.037
L273.278 340.808
L291.173 317.069
L318.015 296.448
L371.7 281.676
L479.069 287.139" style="fill:none;stroke:#d9544d;stroke-linecap:round;"/>
   </g>
   <g id="line2d_134">
    <path clip-path="url(#p659f111a6e)" d="
M268.804 338.637
L273.278 332.031
L291.173 327.257
L318.015 302.041
L371.7 283.782
L479.069 278.427" style="fill:none;stroke:#d9544d;stroke-linecap:round;"/>
   </g>
   <g id="line2d_135">
    <path clip-path="url(#p659f111a6e)" d="
M268.804 345.457
L273.278 340.261
L291.173 304.737
L318.015 293.959
L371.7 289.523
L479.069 288.239" style="fill:none;stroke:#d9544d;stroke-linecap:round;"/>
   </g>
   <g id="line2d_136">
    <path clip-path="url(#p659f111a6e)" d="
M268.804 347.778
L273.278 335.956
L291.173 307.739
L318.015 296.746
L371.7 289.119
L479.069 284.837" style="fill:none;stroke:#d9544d;stroke-linecap:round;"/>
   </g>
   <g id="line2d_137">
    <path clip-path="url(#p659f111a6e)" d="
M268.804 339.708
L273.278 334.63
L291.173 324.065
L318.015 299.476
L371.7 283.057
L479.069 281.24" style="fill:none;stroke:#d9544d;stroke-linecap:round;"/>
   </g>
   <g id="line2d_138">
    <path clip-path="url(#p659f111a6e)" d="
M268.804 343.248
L273.278 340.114
L291.173 311.165
L318.015 294.439
L371.7 286.242
L479.069 286.966" style="fill:none;stroke:#d9544d;stroke-linecap:round;"/>
   </g>
   <g id="line2d_139">
    <path clip-path="url(#p659f111a6e)" d="
M268.804 341.758
L273.278 338.377
L291.173 316.43
L318.015 297.005
L371.7 286.052
L479.069 282.554" style="fill:none;stroke:#d9544d;stroke-linecap:round;"/>
   </g>
   <g id="line2d_140">
    <path clip-path="url(#p659f111a6e)" d="
M268.804 340.109
L273.278 338.68
L291.173 319.44
L318.015 293.989
L371.7 288.459
L479.069 281.499" style="fill:none;stroke:#d9544d;stroke-linecap:round;"/>
   </g>
   <g id="line2d_141">
    <path clip-path="url(#p659f111a6e)" d="
M268.804 337.298
L273.278 340.232
L291.173 320.852
L318.015 295.227
L371.7 280.223
L479.069 288.344" style="fill:none;stroke:#d9544d;stroke-linecap:round;"/>
   </g>
   <g id="line2d_142">
    <path clip-path="url(#p659f111a6e)" d="
M268.804 335.397
L273.278 345.574
L291.173 313.226
L318.015 298.201
L371.7 288.73
L479.069 281.048" style="fill:none;stroke:#d9544d;stroke-linecap:round;"/>
   </g>
   <g id="line2d_143">
    <path clip-path="url(#p659f111a6e)" d="
M268.804 343.227
L273.278 340.003
L291.173 311.11
L318.015 295.369
L371.7 287.111
L479.069 285.356" style="fill:none;stroke:#d9544d;stroke-linecap:round;"/>
   </g>
   <g id="line2d_144">
    <path clip-path="url(#p659f111a6e)" d="
M268.804 337.321
L273.278 340.506
L291.173 318.591
L318.015 300.341
L371.7 285.623
L479.069 279.794" style="fill:none;stroke:#d9544d;stroke-linecap:round;"/>
   </g>
   <g id="line2d_145">
    <path clip-path="url(#p659f111a6e)" d="
M268.804 342.568
L273.278 337.429
L291.173 316.178
L318.015 298.119
L371.7 283.536
L479.069 284.346" style="fill:none;stroke:#d9544d;stroke-linecap:round;"/>
   </g>
   <g id="patch_15">
    <path d="
M268.804 377.418
L268.804 223.309" style="fill:none;stroke:#262626;stroke-linecap:square;stroke-linejoin:miter;stroke-width:1.25;"/>
   </g>
   <g id="patch_16">
    <path d="
M268.804 377.418
L479.069 377.418" style="fill:none;stroke:#262626;stroke-linecap:square;stroke-linejoin:miter;stroke-width:1.25;"/>
   </g>
   <g id="text_41">
    <!-- Shoot Cold -->
    <g style="fill:#262626;" transform="translate(344.6846875 218.309375)scale(0.12 -0.12)">
     <use xlink:href="#ArialMT-53"/>
     <use x="66.69921875" xlink:href="#ArialMT-68"/>
     <use x="122.314453125" xlink:href="#ArialMT-6f"/>
     <use x="177.9296875" xlink:href="#ArialMT-6f"/>
     <use x="233.544921875" xlink:href="#ArialMT-74"/>
     <use x="261.328125" xlink:href="#ArialMT-20"/>
     <use x="289.111328125" xlink:href="#ArialMT-43"/>
     <use x="361.328125" xlink:href="#ArialMT-6f"/>
     <use x="416.943359375" xlink:href="#ArialMT-6c"/>
     <use x="439.16015625" xlink:href="#ArialMT-64"/>
    </g>
   </g>
  </g>
  <g id="axes_6">
   <g id="patch_17">
    <path d="
M492.029 377.418
L702.295 377.418
L702.295 223.309
L492.029 223.309
z
" style="fill:#ffffff;"/>
   </g>
   <g id="matplotlib.axis_11">
    <g id="xtick_21">
     <g id="line2d_146">
      <g>
       <use style="fill:#262626;stroke:#262626;" x="534.08228125" xlink:href="#me1deecec79" y="377.4178125"/>
      </g>
     </g>
     <g id="text_42">
      <!-- 5 -->
      <g style="fill:#262626;" transform="translate(531.709625 397.575625)scale(0.1 -0.1)">
       <use xlink:href="#ArialMT-35"/>
      </g>
     </g>
    </g>
    <g id="xtick_22">
     <g id="line2d_147">
      <g>
       <use style="fill:#262626;stroke:#262626;" x="578.348662829" xlink:href="#me1deecec79" y="377.4178125"/>
      </g>
     </g>
     <g id="text_43">
      <!-- 10 -->
      <g style="fill:#262626;" transform="translate(573.571319079 397.575625)scale(0.1 -0.1)">
       <use xlink:href="#ArialMT-31"/>
       <use x="55.615234375" xlink:href="#ArialMT-30"/>
      </g>
     </g>
    </g>
    <g id="xtick_23">
     <g id="line2d_148">
      <g>
       <use style="fill:#262626;stroke:#262626;" x="622.615044408" xlink:href="#me1deecec79" y="377.4178125"/>
      </g>
     </g>
     <g id="text_44">
      <!-- 15 -->
      <g style="fill:#262626;" transform="translate(617.798638158 397.575625)scale(0.1 -0.1)">
       <use xlink:href="#ArialMT-31"/>
       <use x="55.615234375" xlink:href="#ArialMT-35"/>
      </g>
     </g>
    </g>
    <g id="xtick_24">
     <g id="line2d_149">
      <g>
       <use style="fill:#262626;stroke:#262626;" x="666.881425987" xlink:href="#me1deecec79" y="377.4178125"/>
      </g>
     </g>
     <g id="text_45">
      <!-- 20 -->
      <g style="fill:#262626;" transform="translate(661.706425987 397.575625)scale(0.1 -0.1)">
       <use xlink:href="#ArialMT-32"/>
       <use x="55.615234375" xlink:href="#ArialMT-30"/>
      </g>
     </g>
    </g>
    <g id="text_46">
     <!-- Time -->
     <g style="fill:#262626;" transform="translate(585.50359375 412.43671875)scale(0.11 -0.11)">
      <use xlink:href="#ArialMT-54"/>
      <use x="57.333984375" xlink:href="#ArialMT-69"/>
      <use x="79.55078125" xlink:href="#ArialMT-6d"/>
      <use x="162.8515625" xlink:href="#ArialMT-65"/>
     </g>
    </g>
   </g>
   <g id="matplotlib.axis_12">
    <g id="ytick_31">
     <g id="line2d_150">
      <g>
       <use style="fill:#262626;stroke:#262626;" x="492.02921875" xlink:href="#m4aded61697" y="362.131557779"/>
      </g>
     </g>
    </g>
    <g id="ytick_32">
     <g id="line2d_151">
      <g>
       <use style="fill:#262626;stroke:#262626;" x="492.02921875" xlink:href="#m4aded61697" y="336.247108181"/>
      </g>
     </g>
    </g>
    <g id="ytick_33">
     <g id="line2d_152">
      <g>
       <use style="fill:#262626;stroke:#262626;" x="492.02921875" xlink:href="#m4aded61697" y="310.362658583"/>
      </g>
     </g>
    </g>
    <g id="ytick_34">
     <g id="line2d_153">
      <g>
       <use style="fill:#262626;stroke:#262626;" x="492.02921875" xlink:href="#m4aded61697" y="284.478208985"/>
      </g>
     </g>
    </g>
    <g id="ytick_35">
     <g id="line2d_154">
      <g>
       <use style="fill:#262626;stroke:#262626;" x="492.02921875" xlink:href="#m4aded61697" y="258.593759386"/>
      </g>
     </g>
    </g>
    <g id="ytick_36">
     <g id="line2d_155">
      <g>
       <use style="fill:#262626;stroke:#262626;" x="492.02921875" xlink:href="#m4aded61697" y="232.709309788"/>
      </g>
     </g>
    </g>
   </g>
   <g id="line2d_156">
    <path clip-path="url(#p99eb28ba72)" d="
M492.029 338.058
L494.243 315.905
L498.669 298.919
L516.376 311.895
L542.936 269.26
L596.055 294.336
L702.295 344.166" style="fill:none;stroke:#03012d;stroke-linecap:round;"/>
   </g>
   <g id="line2d_157">
    <path clip-path="url(#p99eb28ba72)" d="
M492.029 323.731
L494.243 295.923
L498.669 269.234
L516.376 329.245
L542.936 287.927
L596.055 329.082
L702.295 337.397" style="fill:none;stroke:#03012d;stroke-linecap:round;"/>
   </g>
   <g id="line2d_158">
    <path clip-path="url(#p99eb28ba72)" d="
M492.029 314.144
L494.243 291.764
L498.669 266.528
L516.376 337.987
L542.936 304.121
L596.055 318.002
L702.295 339.993" style="fill:none;stroke:#03012d;stroke-linecap:round;"/>
   </g>
   <g id="line2d_159">
    <path clip-path="url(#p99eb28ba72)" d="
M492.029 328.121
L494.243 327.586
L498.669 292.547
L516.376 351.328
L542.936 298.162
L596.055 277.18
L702.295 297.614" style="fill:none;stroke:#03012d;stroke-linecap:round;"/>
   </g>
   <g id="line2d_160">
    <path clip-path="url(#p99eb28ba72)" d="
M492.029 335.571
L494.243 331.012
L498.669 320.961
L516.376 311.445
L542.936 267.481
L596.055 281.839
L702.295 324.228" style="fill:none;stroke:#03012d;stroke-linecap:round;"/>
   </g>
   <g id="line2d_161">
    <path clip-path="url(#p99eb28ba72)" d="
M492.029 330.597
L494.243 320.34
L498.669 289.636
L516.376 336.235
L542.936 295.075
L596.055 268.887
L702.295 331.769" style="fill:none;stroke:#03012d;stroke-linecap:round;"/>
   </g>
   <g id="line2d_162">
    <path clip-path="url(#p99eb28ba72)" d="
M492.029 303.619
L494.243 289.318
L498.669 293.635
L516.376 359.272
L542.936 323.147
L596.055 285.209
L702.295 318.337" style="fill:none;stroke:#03012d;stroke-linecap:round;"/>
   </g>
   <g id="line2d_163">
    <path clip-path="url(#p99eb28ba72)" d="
M492.029 342.902
L494.243 325.175
L498.669 291.647
L516.376 329.985
L542.936 287.939
L596.055 273.259
L702.295 321.631" style="fill:none;stroke:#03012d;stroke-linecap:round;"/>
   </g>
   <g id="line2d_164">
    <path clip-path="url(#p99eb28ba72)" d="
M492.029 345.119
L494.243 327.827
L498.669 296.152
L516.376 313.043
L542.936 274.421
L596.055 285.685
L702.295 330.292" style="fill:none;stroke:#03012d;stroke-linecap:round;"/>
   </g>
   <g id="line2d_165">
    <path clip-path="url(#p99eb28ba72)" d="
M492.029 302.681
L494.243 282.477
L498.669 270.072
L516.376 324.977
L542.936 330.471
L596.055 324.001
L702.295 337.86" style="fill:none;stroke:#03012d;stroke-linecap:round;"/>
   </g>
   <g id="line2d_166">
    <path clip-path="url(#p99eb28ba72)" d="
M492.029 326.025
L494.243 324.93
L498.669 316.713
L516.376 322.037
L542.936 294.758
L596.055 257.917
L702.295 330.158" style="fill:none;stroke:#03012d;stroke-linecap:round;"/>
   </g>
   <g id="line2d_167">
    <path clip-path="url(#p99eb28ba72)" d="
M492.029 338.923
L494.243 327.222
L498.669 278.665
L516.376 296.898
L542.936 294.593
L596.055 291.993
L702.295 344.244" style="fill:none;stroke:#03012d;stroke-linecap:round;"/>
   </g>
   <g id="line2d_168">
    <path clip-path="url(#p99eb28ba72)" d="
M492.029 332.456
L494.243 314.446
L498.669 271.166
L516.376 282.421
L542.936 306.653
L596.055 323.042
L702.295 342.356" style="fill:none;stroke:#03012d;stroke-linecap:round;"/>
   </g>
   <g id="line2d_169">
    <path clip-path="url(#p99eb28ba72)" d="
M492.029 335.553
L494.243 324.631
L498.669 320.228
L516.376 272.205
L542.936 275.935
L596.055 312.699
L702.295 331.287" style="fill:none;stroke:#03012d;stroke-linecap:round;"/>
   </g>
   <g id="line2d_170">
    <path clip-path="url(#p99eb28ba72)" d="
M492.029 325.765
L494.243 321.299
L498.669 256.667
L516.376 333.623
L542.936 302.405
L596.055 309.214
L702.295 323.566" style="fill:none;stroke:#03012d;stroke-linecap:round;"/>
   </g>
   <g id="line2d_171">
    <path clip-path="url(#p99eb28ba72)" d="
M492.029 330.432
L494.243 296.323
L498.669 260.45
L516.376 312.922
L542.936 339.38
L596.055 315
L702.295 318.031" style="fill:none;stroke:#03012d;stroke-linecap:round;"/>
   </g>
   <g id="line2d_172">
    <path clip-path="url(#p99eb28ba72)" d="
M492.029 302.941
L494.243 290.732
L498.669 273.85
L516.376 329.125
L542.936 353.006
L596.055 305.373
L702.295 317.511" style="fill:none;stroke:#03012d;stroke-linecap:round;"/>
   </g>
   <g id="line2d_173">
    <path clip-path="url(#p99eb28ba72)" d="
M492.029 332.271
L494.243 324.351
L498.669 318.396
L516.376 311.32
L542.936 277.724
L596.055 271.538
L702.295 336.939" style="fill:none;stroke:#03012d;stroke-linecap:round;"/>
   </g>
   <g id="line2d_174">
    <path clip-path="url(#p99eb28ba72)" d="
M492.029 335.579
L494.243 322.633
L498.669 293.618
L516.376 311.943
L542.936 288.935
L596.055 274.622
L702.295 345.209" style="fill:none;stroke:#03012d;stroke-linecap:round;"/>
   </g>
   <g id="patch_18">
    <path d="
M492.029 377.418
L492.029 223.309" style="fill:none;stroke:#262626;stroke-linecap:square;stroke-linejoin:miter;stroke-width:1.25;"/>
   </g>
   <g id="patch_19">
    <path d="
M492.029 377.418
L702.295 377.418" style="fill:none;stroke:#262626;stroke-linecap:square;stroke-linejoin:miter;stroke-width:1.25;"/>
   </g>
   <g id="text_47">
    <!-- Shoot Uv -->
    <defs>
     <path d="
M54.6875 71.5781
L64.1562 71.5781
L64.1562 30.2188
Q64.1562 19.4375 61.7188 13.0781
Q59.2812 6.73438 52.9062 2.75
Q46.5312 -1.21875 36.1875 -1.21875
Q26.125 -1.21875 19.7188 2.25
Q13.3281 5.71875 10.5938 12.2812
Q7.85938 18.8438 7.85938 30.2188
L7.85938 71.5781
L17.3281 71.5781
L17.3281 30.2812
Q17.3281 20.9531 19.0625 16.5312
Q20.7969 12.1094 25.0156 9.71875
Q29.25 7.32812 35.3594 7.32812
Q45.7969 7.32812 50.2344 12.0625
Q54.6875 16.7969 54.6875 30.2812
z
" id="ArialMT-55"/>
     <path d="
M21 0
L1.26562 51.8594
L10.5469 51.8594
L21.6875 20.7969
Q23.4844 15.7656 25 10.3594
Q26.1719 14.4531 28.2656 20.2188
L39.7969 51.8594
L48.8281 51.8594
L29.2031 0
z
" id="ArialMT-76"/>
    </defs>
    <g style="fill:#262626;" transform="translate(572.5534375 218.309375)scale(0.12 -0.12)">
     <use xlink:href="#ArialMT-53"/>
     <use x="66.69921875" xlink:href="#ArialMT-68"/>
     <use x="122.314453125" xlink:href="#ArialMT-6f"/>
     <use x="177.9296875" xlink:href="#ArialMT-6f"/>
     <use x="233.544921875" xlink:href="#ArialMT-74"/>
     <use x="261.328125" xlink:href="#ArialMT-20"/>
     <use x="289.111328125" xlink:href="#ArialMT-55"/>
     <use x="361.328125" xlink:href="#ArialMT-76"/>
    </g>
   </g>
  </g>
 </g>
 <defs>
  <clipPath id="pa61dcb5892">
   <rect height="154.1084375" width="210.2653125" x="268.80390625" y="20.789375"/>
  </clipPath>
  <clipPath id="pa691a7dfe0">
   <rect height="154.1084375" width="210.2653125" x="45.57859375" y="20.789375"/>
  </clipPath>
  <clipPath id="p99eb28ba72">
   <rect height="154.1084375" width="210.2653125" x="492.02921875" y="223.309375"/>
  </clipPath>
  <clipPath id="p4d13165c25">
   <rect height="154.1084375" width="210.2653125" x="45.57859375" y="223.309375"/>
  </clipPath>
  <clipPath id="p659f111a6e">
   <rect height="154.1084375" width="210.2653125" x="268.80390625" y="223.309375"/>
  </clipPath>
  <clipPath id="p3aeff855be">
   <rect height="154.1084375" width="210.2653125" x="492.02921875" y="20.789375"/>
  </clipPath>
 </defs>
</svg>
