<?xml version="1.0" encoding="utf-8" standalone="no"?>
<!DOCTYPE svg PUBLIC "-//W3C//DTD SVG 1.1//EN"
  "http://www.w3.org/Graphics/SVG/1.1/DTD/svg11.dtd">
<!-- Created with matplotlib (http://matplotlib.org/) -->
<svg height="421pt" version="1.1" viewBox="0 0 709 421" width="709pt" xmlns="http://www.w3.org/2000/svg" xmlns:xlink="http://www.w3.org/1999/xlink">
 <defs>
  <style type="text/css">
*{stroke-linecap:butt;stroke-linejoin:round;}
  </style>
 </defs>
 <g id="figure_1">
  <g id="patch_1">
   <path d="
M0 421.823
L709.495 421.823
L709.495 0
L0 0
z
" style="fill:#ffffff;"/>
  </g>
  <g id="axes_1">
   <g id="patch_2">
    <path d="
M45.5786 174.898
L255.844 174.898
L255.844 20.7894
L45.5786 20.7894
z
" style="fill:#ffffff;"/>
   </g>
   <g id="matplotlib.axis_1">
    <g id="xtick_1">
     <g id="line2d_1">
      <defs>
       <path d="
M0 0
L0 6" id="me1deecec79" style="stroke:#262626;"/>
      </defs>
      <g>
       <use style="fill:#262626;stroke:#262626;" x="82.1464741848" xlink:href="#me1deecec79" y="174.8978125"/>
      </g>
     </g>
     <g id="text_1">
      <!-- 10 -->
      <defs>
       <path d="
M4.15625 35.2969
Q4.15625 48 6.76562 55.7344
Q9.375 63.4844 14.5156 67.6719
Q19.6719 71.875 27.4844 71.875
Q33.25 71.875 37.5938 69.5469
Q41.9375 67.2344 44.7656 62.8594
Q47.6094 58.5 49.2188 52.2188
Q50.8281 45.9531 50.8281 35.2969
Q50.8281 22.7031 48.2344 14.9688
Q45.6562 7.23438 40.5 3
Q35.3594 -1.21875 27.4844 -1.21875
Q17.1406 -1.21875 11.2344 6.20312
Q4.15625 15.1406 4.15625 35.2969
M13.1875 35.2969
Q13.1875 17.6719 17.3125 11.8281
Q21.4375 6 27.4844 6
Q33.5469 6 37.6719 11.8594
Q41.7969 17.7188 41.7969 35.2969
Q41.7969 52.9844 37.6719 58.7812
Q33.5469 64.5938 27.3906 64.5938
Q21.3438 64.5938 17.7188 59.4688
Q13.1875 52.9375 13.1875 35.2969" id="ArialMT-30"/>
       <path d="
M37.25 0
L28.4688 0
L28.4688 56
Q25.2969 52.9844 20.1406 49.9531
Q14.9844 46.9219 10.8906 45.4062
L10.8906 53.9062
Q18.2656 57.375 23.7812 62.2969
Q29.2969 67.2344 31.5938 71.875
L37.25 71.875
z
" id="ArialMT-31"/>
      </defs>
      <g style="fill:#262626;" transform="translate(77.3691304348 195.055625)scale(0.1 -0.1)">
       <use xlink:href="#ArialMT-31"/>
       <use x="55.615234375" xlink:href="#ArialMT-30"/>
      </g>
     </g>
    </g>
    <g id="xtick_2">
     <g id="line2d_2">
      <g>
       <use style="fill:#262626;stroke:#262626;" x="127.856324728" xlink:href="#me1deecec79" y="174.8978125"/>
      </g>
     </g>
     <g id="text_2">
      <!-- 20 -->
      <defs>
       <path d="
M50.3438 8.45312
L50.3438 0
L3.03125 0
Q2.9375 3.17188 4.04688 6.10938
Q5.85938 10.9375 9.82812 15.625
Q13.8125 20.3125 21.3438 26.4688
Q33.0156 36.0312 37.1094 41.625
Q41.2188 47.2188 41.2188 52.2031
Q41.2188 57.4219 37.4688 61
Q33.7344 64.5938 27.7344 64.5938
Q21.3906 64.5938 17.5781 60.7812
Q13.7656 56.9844 13.7188 50.25
L4.6875 51.1719
Q5.60938 61.2812 11.6562 66.5781
Q17.7188 71.875 27.9375 71.875
Q38.2344 71.875 44.2344 66.1562
Q50.25 60.4531 50.25 52
Q50.25 47.7031 48.4844 43.5469
Q46.7344 39.4062 42.6562 34.8125
Q38.5781 30.2188 29.1094 22.2188
Q21.1875 15.5781 18.9375 13.2031
Q16.7031 10.8438 15.2344 8.45312
z
" id="ArialMT-32"/>
      </defs>
      <g style="fill:#262626;" transform="translate(122.681324728 195.055625)scale(0.1 -0.1)">
       <use xlink:href="#ArialMT-32"/>
       <use x="55.615234375" xlink:href="#ArialMT-30"/>
      </g>
     </g>
    </g>
    <g id="xtick_3">
     <g id="line2d_3">
      <g>
       <use style="fill:#262626;stroke:#262626;" x="173.566175272" xlink:href="#me1deecec79" y="174.8978125"/>
      </g>
     </g>
     <g id="text_3">
      <!-- 30 -->
      <defs>
       <path d="
M4.20312 18.8906
L12.9844 20.0625
Q14.5 12.5938 18.1406 9.29688
Q21.7812 6 27 6
Q33.2031 6 37.4688 10.2969
Q41.75 14.5938 41.75 20.9531
Q41.75 27 37.7969 30.9219
Q33.8438 34.8594 27.7344 34.8594
Q25.25 34.8594 21.5312 33.8906
L22.5156 41.6094
Q23.3906 41.5 23.9219 41.5
Q29.5469 41.5 34.0312 44.4219
Q38.5312 47.3594 38.5312 53.4688
Q38.5312 58.2969 35.25 61.4688
Q31.9844 64.6562 26.8125 64.6562
Q21.6875 64.6562 18.2656 61.4219
Q14.8438 58.2031 13.875 51.7656
L5.07812 53.3281
Q6.6875 62.1562 12.3906 67.0156
Q18.1094 71.875 26.6094 71.875
Q32.4688 71.875 37.3906 69.3594
Q42.3281 66.8438 44.9375 62.5
Q47.5625 58.1562 47.5625 53.2656
Q47.5625 48.6406 45.0625 44.8281
Q42.5781 41.0156 37.7031 38.7656
Q44.0469 37.3125 47.5625 32.6875
Q51.0781 28.0781 51.0781 21.1406
Q51.0781 11.7656 44.2344 5.25
Q37.4062 -1.26562 26.9531 -1.26562
Q17.5312 -1.26562 11.2969 4.34375
Q5.07812 9.96875 4.20312 18.8906" id="ArialMT-33"/>
      </defs>
      <g style="fill:#262626;" transform="translate(168.454456522 195.055625)scale(0.1 -0.1)">
       <use xlink:href="#ArialMT-33"/>
       <use x="55.615234375" xlink:href="#ArialMT-30"/>
      </g>
     </g>
    </g>
    <g id="xtick_4">
     <g id="line2d_4">
      <g>
       <use style="fill:#262626;stroke:#262626;" x="219.276025815" xlink:href="#me1deecec79" y="174.8978125"/>
      </g>
     </g>
     <g id="text_4">
      <!-- 40 -->
      <defs>
       <path d="
M32.3281 0
L32.3281 17.1406
L1.26562 17.1406
L1.26562 25.2031
L33.9375 71.5781
L41.1094 71.5781
L41.1094 25.2031
L50.7812 25.2031
L50.7812 17.1406
L41.1094 17.1406
L41.1094 0
z

M32.3281 25.2031
L32.3281 57.4688
L9.90625 25.2031
z
" id="ArialMT-34"/>
      </defs>
      <g style="fill:#262626;" transform="translate(214.017432065 195.055625)scale(0.1 -0.1)">
       <use xlink:href="#ArialMT-34"/>
       <use x="55.615234375" xlink:href="#ArialMT-30"/>
      </g>
     </g>
    </g>
   </g>
   <g id="matplotlib.axis_2">
    <g id="ytick_1">
     <g id="line2d_5">
      <defs>
       <path d="
M0 0
L-6 0" id="m4aded61697" style="stroke:#262626;"/>
      </defs>
      <g>
       <use style="fill:#262626;stroke:#262626;" x="45.57859375" xlink:href="#m4aded61697" y="162.158368221"/>
      </g>
     </g>
     <g id="text_5">
      <!-- −2 -->
      <defs>
       <path d="
M52.8281 31.2031
L5.5625 31.2031
L5.5625 39.4062
L52.8281 39.4062
z
" id="ArialMT-2212"/>
      </defs>
      <g style="fill:#262626;" transform="translate(22.25984375 164.743524471)scale(0.1 -0.1)">
       <use xlink:href="#ArialMT-2212"/>
       <use x="58.3984375" xlink:href="#ArialMT-32"/>
      </g>
     </g>
    </g>
    <g id="ytick_2">
     <g id="line2d_6">
      <g>
       <use style="fill:#262626;stroke:#262626;" x="45.57859375" xlink:href="#m4aded61697" y="130.517790984"/>
      </g>
     </g>
     <g id="text_6">
      <!-- −1 -->
      <g style="fill:#262626;" transform="translate(23.56921875 133.102947234)scale(0.1 -0.1)">
       <use xlink:href="#ArialMT-2212"/>
       <use x="58.3984375" xlink:href="#ArialMT-31"/>
      </g>
     </g>
    </g>
    <g id="ytick_3">
     <g id="line2d_7">
      <g>
       <use style="fill:#262626;stroke:#262626;" x="45.57859375" xlink:href="#m4aded61697" y="98.8772137482"/>
      </g>
     </g>
     <g id="text_7">
      <!-- 0 -->
      <g style="fill:#262626;" transform="translate(27.91140625 101.462369998)scale(0.1 -0.1)">
       <use xlink:href="#ArialMT-30"/>
      </g>
     </g>
    </g>
    <g id="ytick_4">
     <g id="line2d_8">
      <g>
       <use style="fill:#262626;stroke:#262626;" x="45.57859375" xlink:href="#m4aded61697" y="67.236636512"/>
      </g>
     </g>
     <g id="text_8">
      <!-- 1 -->
      <g style="fill:#262626;" transform="translate(29.94265625 69.821792762)scale(0.1 -0.1)">
       <use xlink:href="#ArialMT-31"/>
      </g>
     </g>
    </g>
    <g id="ytick_5">
     <g id="line2d_9">
      <g>
       <use style="fill:#262626;stroke:#262626;" x="45.57859375" xlink:href="#m4aded61697" y="35.5960592758"/>
      </g>
     </g>
     <g id="text_9">
      <!-- 2 -->
      <g style="fill:#262626;" transform="translate(27.83796875 38.1812155258)scale(0.1 -0.1)">
       <use xlink:href="#ArialMT-32"/>
      </g>
     </g>
    </g>
    <g id="text_10">
     <!-- Expression -->
     <defs>
      <path d="
M7.90625 0
L7.90625 71.5781
L59.6719 71.5781
L59.6719 63.1406
L17.3906 63.1406
L17.3906 41.2188
L56.9844 41.2188
L56.9844 32.8125
L17.3906 32.8125
L17.3906 8.45312
L61.3281 8.45312
L61.3281 0
z
" id="ArialMT-45"/>
      <path d="
M6.59375 -19.875
L6.59375 51.8594
L14.5938 51.8594
L14.5938 45.125
Q17.4375 49.0781 21 51.0469
Q24.5625 53.0312 29.6406 53.0312
Q36.2812 53.0312 41.3594 49.6094
Q46.4375 46.1875 49.0156 39.9531
Q51.6094 33.7344 51.6094 26.3125
Q51.6094 18.3594 48.75 11.9844
Q45.9062 5.60938 40.4531 2.21875
Q35.0156 -1.17188 29 -1.17188
Q24.6094 -1.17188 21.1094 0.6875
Q17.625 2.54688 15.375 5.375
L15.375 -19.875
z

M14.5469 25.6406
Q14.5469 15.625 18.5938 10.8438
Q22.6562 6.0625 28.4219 6.0625
Q34.2812 6.0625 38.4531 11.0156
Q42.625 15.9688 42.625 26.375
Q42.625 36.2812 38.5469 41.2031
Q34.4688 46.1406 28.8125 46.1406
Q23.1875 46.1406 18.8594 40.8906
Q14.5469 35.6406 14.5469 25.6406" id="ArialMT-70"/>
      <path d="
M3.32812 25.9219
Q3.32812 40.3281 11.3281 47.2656
Q18.0156 53.0312 27.6406 53.0312
Q38.3281 53.0312 45.1094 46.0156
Q51.9062 39.0156 51.9062 26.6562
Q51.9062 16.6562 48.9062 10.9062
Q45.9062 5.17188 40.1562 2
Q34.4219 -1.17188 27.6406 -1.17188
Q16.75 -1.17188 10.0312 5.8125
Q3.32812 12.7969 3.32812 25.9219
M12.3594 25.9219
Q12.3594 15.9688 16.7031 11.0156
Q21.0469 6.0625 27.6406 6.0625
Q34.1875 6.0625 38.5312 11.0312
Q42.875 16.0156 42.875 26.2188
Q42.875 35.8438 38.5 40.7969
Q34.125 45.75 27.6406 45.75
Q21.0469 45.75 16.7031 40.8125
Q12.3594 35.8906 12.3594 25.9219" id="ArialMT-6f"/>
      <path d="
M0.734375 0
L19.6719 26.9531
L2.15625 51.8594
L13.1406 51.8594
L21.0938 39.7031
Q23.3438 36.2344 24.7031 33.8906
Q26.8594 37.1094 28.6562 39.5938
L37.4062 51.8594
L47.9062 51.8594
L29.9844 27.4375
L49.2656 0
L38.4844 0
L27.8281 16.1094
L25 20.4531
L11.375 0
z
" id="ArialMT-78"/>
      <path d="
M6.64062 61.4688
L6.64062 71.5781
L15.4375 71.5781
L15.4375 61.4688
z

M6.64062 0
L6.64062 51.8594
L15.4375 51.8594
L15.4375 0
z
" id="ArialMT-69"/>
      <path d="
M3.07812 15.4844
L11.7656 16.8438
Q12.5 11.625 15.8438 8.84375
Q19.1875 6.0625 25.2031 6.0625
Q31.25 6.0625 34.1719 8.51562
Q37.1094 10.9844 37.1094 14.3125
Q37.1094 17.2812 34.5156 19
Q32.7188 20.1719 25.5312 21.9688
Q15.875 24.4219 12.1406 26.2031
Q8.40625 27.9844 6.46875 31.125
Q4.54688 34.2812 4.54688 38.0938
Q4.54688 41.5469 6.125 44.5
Q7.71875 47.4688 10.4531 49.4219
Q12.5 50.9219 16.0312 51.9688
Q19.5781 53.0312 23.6406 53.0312
Q29.7344 53.0312 34.3438 51.2656
Q38.9688 49.5156 41.1562 46.5
Q43.3594 43.5 44.1875 38.4844
L35.5938 37.3125
Q35.0156 41.3125 32.2031 43.5469
Q29.3906 45.7969 24.2656 45.7969
Q18.2188 45.7969 15.625 43.7969
Q13.0312 41.7969 13.0312 39.1094
Q13.0312 37.4062 14.1094 36.0312
Q15.1875 34.625 17.4844 33.6875
Q18.7969 33.2031 25.25 31.4531
Q34.5781 28.9531 38.25 27.3594
Q41.9375 25.7812 44.0312 22.75
Q46.1406 19.7344 46.1406 15.2344
Q46.1406 10.8438 43.5781 6.95312
Q41.0156 3.07812 36.1719 0.953125
Q31.3438 -1.17188 25.25 -1.17188
Q15.1406 -1.17188 9.84375 3.03125
Q4.54688 7.23438 3.07812 15.4844" id="ArialMT-73"/>
      <path d="
M6.59375 0
L6.59375 51.8594
L14.5 51.8594
L14.5 44.4844
Q20.2188 53.0312 31 53.0312
Q35.6875 53.0312 39.625 51.3438
Q43.5625 49.6562 45.5156 46.9219
Q47.4688 44.1875 48.25 40.4375
Q48.7344 37.9844 48.7344 31.8906
L48.7344 0
L39.9375 0
L39.9375 31.5469
Q39.9375 36.9219 38.9062 39.5781
Q37.8906 42.2344 35.2812 43.8125
Q32.6719 45.4062 29.1562 45.4062
Q23.5312 45.4062 19.4531 41.8438
Q15.375 38.2812 15.375 28.3281
L15.375 0
z
" id="ArialMT-6e"/>
      <path d="
M6.5 0
L6.5 51.8594
L14.4062 51.8594
L14.4062 44
Q17.4375 49.5156 20 51.2656
Q22.5625 53.0312 25.6406 53.0312
Q30.0781 53.0312 34.6719 50.2031
L31.6406 42.0469
Q28.4219 43.9531 25.2031 43.9531
Q22.3125 43.9531 20.0156 42.2188
Q17.7188 40.4844 16.75 37.4062
Q15.2812 32.7188 15.2812 27.1562
L15.2812 0
z
" id="ArialMT-72"/>
      <path d="
M42.0938 16.7031
L51.1719 15.5781
Q49.0312 7.625 43.2188 3.21875
Q37.4062 -1.17188 28.375 -1.17188
Q17 -1.17188 10.3281 5.82812
Q3.65625 12.8438 3.65625 25.4844
Q3.65625 38.5781 10.3906 45.7969
Q17.1406 53.0312 27.875 53.0312
Q38.2812 53.0312 44.875 45.9531
Q51.4688 38.875 51.4688 26.0312
Q51.4688 25.25 51.4219 23.6875
L12.75 23.6875
Q13.2344 15.1406 17.5781 10.5938
Q21.9219 6.0625 28.4219 6.0625
Q33.25 6.0625 36.6719 8.59375
Q40.0938 11.1406 42.0938 16.7031
M13.2344 30.9062
L42.1875 30.9062
Q41.6094 37.4531 38.875 40.7188
Q34.6719 45.7969 27.9844 45.7969
Q21.9219 45.7969 17.7969 41.75
Q13.6719 37.7031 13.2344 30.9062" id="ArialMT-65"/>
     </defs>
     <g style="fill:#262626;" transform="translate(15.07359375 124.23671875)rotate(-90.0)scale(0.11 -0.11)">
      <use xlink:href="#ArialMT-45"/>
      <use x="66.69921875" xlink:href="#ArialMT-78"/>
      <use x="116.69921875" xlink:href="#ArialMT-70"/>
      <use x="172.314453125" xlink:href="#ArialMT-72"/>
      <use x="205.615234375" xlink:href="#ArialMT-65"/>
      <use x="261.23046875" xlink:href="#ArialMT-73"/>
      <use x="311.23046875" xlink:href="#ArialMT-73"/>
      <use x="361.23046875" xlink:href="#ArialMT-69"/>
      <use x="383.447265625" xlink:href="#ArialMT-6f"/>
      <use x="439.0625" xlink:href="#ArialMT-6e"/>
     </g>
    </g>
   </g>
   <g id="line2d_10">
    <path clip-path="url(#pa691a7dfe0)" d="
M45.5786 106.325
L54.7206 113.44
L63.8625 123.602
L73.0045 128.765
L82.1465 142.511
L91.2884 150.017
L100.43 136.103
L109.572 127.454
L118.714 135.58
L127.856 139.859
L136.998 121.057
L146.14 111.526
L155.282 80.2624
L164.424 62.4582
L173.566 66.7467
L182.708 68.7478
L191.85 71.012
L200.992 76.7729
L210.134 81.7667
L219.276 59.2355
L228.418 59.3561
L237.56 71.3694
L246.702 75.5267
L255.844 63.5588" style="fill:none;stroke:#03012d;stroke-linecap:round;"/>
   </g>
   <g id="line2d_11">
    <path clip-path="url(#pa691a7dfe0)" d="
M45.5786 131.647
L54.7206 136.157
L63.8625 143.842
L73.0045 145.397
L82.1465 144.158
L91.2884 139.524
L100.43 135.626
L109.572 126.91
L118.714 120.213
L127.856 113.875
L136.998 98.6312
L146.14 90.1915
L155.282 73.5321
L164.424 63.64
L173.566 63.8966
L182.708 67.7689
L191.85 73.596
L200.992 77.2196
L210.134 71.0803
L219.276 71.0808
L228.418 72.069
L237.56 72.333
L246.702 70.5223
L255.844 70.1426" style="fill:none;stroke:#03012d;stroke-linecap:round;"/>
   </g>
   <g id="line2d_12">
    <path clip-path="url(#pa691a7dfe0)" d="
M45.5786 136.498
L54.7206 135.773
L63.8625 133.02
L73.0045 132.165
L82.1465 131.349
L91.2884 129.223
L100.43 136.93
L109.572 145.854
L118.714 135.764
L127.856 124.451
L136.998 102.358
L146.14 82.023
L155.282 62.8481
L164.424 59.0953
L173.566 66.1724
L182.708 66.4189
L191.85 69.3922
L200.992 77.0251
L210.134 70.5836
L219.276 68.7695
L228.418 75.9675
L237.56 81.7462
L246.702 75.2297
L255.844 74.3967" style="fill:none;stroke:#03012d;stroke-linecap:round;"/>
   </g>
   <g id="line2d_13">
    <path clip-path="url(#pa691a7dfe0)" d="
M45.5786 125.865
L54.7206 126.764
L63.8625 122.475
L73.0045 123.798
L82.1465 126.977
L91.2884 124.553
L100.43 137.352
L109.572 147.815
L118.714 143.634
L127.856 137.127
L136.998 123.888
L146.14 102.752
L155.282 71.2901
L164.424 61.6478
L173.566 74.8582
L182.708 69.9776
L191.85 74.6523
L200.992 77.9114
L210.134 73.2149
L219.276 66.7101
L228.418 61.7474
L237.56 67.972
L246.702 67.0307
L255.844 63.0404" style="fill:none;stroke:#03012d;stroke-linecap:round;"/>
   </g>
   <g id="line2d_14">
    <path clip-path="url(#pa691a7dfe0)" d="
M45.5786 75.0502
L54.7206 61.7747
L63.8625 67.2847
L73.0045 106.696
L82.1465 118.404
L91.2884 93.6901
L100.43 85.8833
L109.572 107.246
L118.714 125.629
L127.856 132.366
L136.998 112.6
L146.14 62.9442
L155.282 28.3933
L164.424 31.1156
L173.566 76.6292
L182.708 100.983
L191.85 117.908
L200.992 117.185
L210.134 113.335
L219.276 122.715
L228.418 141.993
L237.56 143.532
L246.702 123.844
L255.844 105.852" style="fill:none;stroke:#03012d;stroke-linecap:round;"/>
   </g>
   <g id="line2d_15">
    <path clip-path="url(#pa691a7dfe0)" d="
M45.5786 130.652
L54.7206 122.732
L63.8625 121.767
L73.0045 128.915
L82.1465 135.292
L91.2884 141.078
L100.43 141.386
L109.572 135.136
L118.714 125.038
L127.856 103.652
L136.998 76.5004
L146.14 63.3568
L155.282 44.2476
L164.424 45.0564
L173.566 51.6491
L182.708 52.2526
L191.85 68.1107
L200.992 102.38
L210.134 98.3485
L219.276 97.4784
L228.418 102.935
L237.56 93.5412
L246.702 93.3207
L255.844 98.2272" style="fill:none;stroke:#03012d;stroke-linecap:round;"/>
   </g>
   <g id="line2d_16">
    <path clip-path="url(#pa691a7dfe0)" d="
M45.5786 145.946
L54.7206 142.267
L63.8625 141.898
L73.0045 139.559
L82.1465 137.178
L91.2884 132.159
L100.43 134.214
L109.572 133.748
L118.714 121.764
L127.856 108.351
L136.998 84.1441
L146.14 74.3589
L155.282 57.6255
L164.424 55.8764
L173.566 64.0698
L182.708 73.4215
L191.85 73.2962
L200.992 79.0565
L210.134 77.9435
L219.276 75.4955
L228.418 78.9286
L237.56 88.9581
L246.702 75.509
L255.844 77.2873" style="fill:none;stroke:#03012d;stroke-linecap:round;"/>
   </g>
   <g id="line2d_17">
    <path clip-path="url(#pa691a7dfe0)" d="
M45.5786 109.958
L54.7206 109.545
L63.8625 121.691
L73.0045 119.435
L82.1465 131.768
L91.2884 139.408
L100.43 138.953
L109.572 136.163
L118.714 139.745
L127.856 149.223
L136.998 129.057
L146.14 82.9785
L155.282 45.0931
L164.424 53.1786
L173.566 69.9605
L182.708 76.7342
L191.85 84.5837
L200.992 92.0159
L210.134 86.9724
L219.276 81.7065
L228.418 77.1021
L237.56 70.3934
L246.702 63.3403
L255.844 64.0484" style="fill:none;stroke:#03012d;stroke-linecap:round;"/>
   </g>
   <g id="line2d_18">
    <path clip-path="url(#pa691a7dfe0)" d="
M45.5786 135.901
L54.7206 135.255
L63.8625 139.9
L73.0045 140.14
L82.1465 136.857
L91.2884 134.337
L100.43 135.502
L109.572 137.123
L118.714 128.327
L127.856 117.022
L136.998 101.967
L146.14 89.4763
L155.282 73.4643
L164.424 65.6025
L173.566 66.368
L182.708 66.0808
L191.85 71.8254
L200.992 77.1944
L210.134 68.4514
L219.276 69.8553
L228.418 74.368
L237.56 75.5708
L246.702 69.1847
L255.844 63.2818" style="fill:none;stroke:#03012d;stroke-linecap:round;"/>
   </g>
   <g id="line2d_19">
    <path clip-path="url(#pa691a7dfe0)" d="
M45.5786 139.833
L54.7206 133.727
L63.8625 134.306
L73.0045 137.692
L82.1465 139.833
L91.2884 139.848
L100.43 135.83
L109.572 130.872
L118.714 118.085
L127.856 109.637
L136.998 93.98
L146.14 82.9039
L155.282 55.1544
L164.424 52.3904
L173.566 56.6051
L182.708 53.8568
L191.85 65.505
L200.992 74.6933
L210.134 71.9231
L219.276 81.3408
L228.418 91.0319
L237.56 94.0997
L246.702 89.4662
L255.844 90.4395" style="fill:none;stroke:#03012d;stroke-linecap:round;"/>
   </g>
   <g id="line2d_20">
    <path clip-path="url(#pa691a7dfe0)" d="
M45.5786 97.0086
L54.7206 110.22
L63.8625 124.042
L73.0045 123.995
L82.1465 124.062
L91.2884 125.45
L100.43 127.688
L109.572 129.019
L118.714 137.512
L127.856 143.679
L136.998 116.571
L146.14 74.7643
L155.282 40.2371
L164.424 39.3523
L173.566 48.1838
L182.708 64.5103
L191.85 59.3623
L200.992 71.6482
L210.134 76.9653
L219.276 94.5094
L228.418 110.399
L237.56 113.516
L246.702 107.105
L255.844 113.253" style="fill:none;stroke:#03012d;stroke-linecap:round;"/>
   </g>
   <g id="line2d_21">
    <path clip-path="url(#pa691a7dfe0)" d="
M45.5786 73.1696
L54.7206 97.218
L63.8625 110.66
L73.0045 129.18
L82.1465 128.933
L91.2884 131.385
L100.43 128.656
L109.572 130.736
L118.714 137.84
L127.856 169.19
L136.998 139.554
L146.14 78.2959
L155.282 43.9939
L164.424 58.0939
L173.566 69.1332
L182.708 81.3137
L191.85 74.1451
L200.992 63.0967
L210.134 81.0651
L219.276 75.7824
L228.418 88.2188
L237.56 93.8326
L246.702 87.0591
L255.844 102.5" style="fill:none;stroke:#03012d;stroke-linecap:round;"/>
   </g>
   <g id="line2d_22">
    <path clip-path="url(#pa691a7dfe0)" d="
M45.5786 117.988
L54.7206 123.959
L63.8625 128.434
L73.0045 132.166
L82.1465 132.659
L91.2884 135.259
L100.43 138.09
L109.572 142.918
L118.714 141.986
L127.856 134.581
L136.998 114.321
L146.14 86.4719
L155.282 60.9353
L164.424 56.4029
L173.566 66.9044
L182.708 70.9213
L191.85 64.0848
L200.992 66.4739
L210.134 66.7819
L219.276 70.9246
L228.418 81.5032
L237.56 86.335
L246.702 76.366
L255.844 76.5863" style="fill:none;stroke:#03012d;stroke-linecap:round;"/>
   </g>
   <g id="line2d_23">
    <path clip-path="url(#pa691a7dfe0)" d="
M45.5786 132.42
L54.7206 134.727
L63.8625 136.441
L73.0045 134.139
L82.1465 133.85
L91.2884 131.449
L100.43 137.513
L109.572 143.647
L118.714 134.408
L127.856 123.197
L136.998 102.293
L146.14 88.2937
L155.282 69.3752
L164.424 65.1881
L173.566 69.8847
L182.708 65.4536
L191.85 67.3409
L200.992 80.2838
L210.134 74.7451
L219.276 73.0504
L228.418 70.3046
L237.56 66.4581
L246.702 65.2682
L255.844 73.324" style="fill:none;stroke:#03012d;stroke-linecap:round;"/>
   </g>
   <g id="line2d_24">
    <path clip-path="url(#pa691a7dfe0)" d="
M45.5786 123.364
L54.7206 125.179
L63.8625 138.053
L73.0045 147.722
L82.1465 152.128
L91.2884 148.956
L100.43 139.451
L109.572 128.246
L118.714 120.141
L127.856 108.378
L136.998 83.3766
L146.14 77.976
L155.282 63.035
L164.424 58.6181
L173.566 65.6886
L182.708 76.9997
L191.85 88.4547
L200.992 87.8642
L210.134 74.729
L219.276 73.5363
L228.418 75.7901
L237.56 78.438
L246.702 69.0768
L255.844 67.8528" style="fill:none;stroke:#03012d;stroke-linecap:round;"/>
   </g>
   <g id="line2d_25">
    <path clip-path="url(#pa691a7dfe0)" d="
M45.5786 118.854
L54.7206 112.687
L63.8625 113.474
L73.0045 119.188
L82.1465 135.754
L91.2884 132.505
L100.43 139.607
L109.572 147.648
L118.714 154.699
L127.856 137.315
L136.998 101.022
L146.14 90.8136
L155.282 67.0063
L164.424 49.6796
L173.566 55.85
L182.708 57.8549
L191.85 69.3583
L200.992 86.7815
L210.134 86.7428
L219.276 87.4215
L228.418 90.3074
L237.56 84.9995
L246.702 70.0068
L255.844 63.4785" style="fill:none;stroke:#03012d;stroke-linecap:round;"/>
   </g>
   <g id="line2d_26">
    <path clip-path="url(#pa691a7dfe0)" d="
M45.5786 123.182
L54.7206 120.44
L63.8625 121.522
L73.0045 129.728
L82.1465 137.53
L91.2884 132.565
L100.43 133.317
L109.572 134.843
L118.714 143.498
L127.856 141.398
L136.998 121.027
L146.14 98.7135
L155.282 76.1099
L164.424 62.5641
L173.566 59.2283
L182.708 57.7901
L191.85 59.7053
L200.992 72.1437
L210.134 68.3238
L219.276 66.7448
L228.418 73.0644
L237.56 74.8416
L246.702 80.4845
L255.844 84.2887" style="fill:none;stroke:#03012d;stroke-linecap:round;"/>
   </g>
   <g id="line2d_27">
    <path clip-path="url(#pa691a7dfe0)" d="
M45.5786 38.1644
L54.7206 81.2266
L63.8625 112.184
L73.0045 103.755
L82.1465 105.47
L91.2884 92.8618
L100.43 63.9085
L109.572 66.9406
L118.714 97.2845
L127.856 108.927
L136.998 72.7535
L146.14 26.4971
L155.282 66.6508
L164.424 106.6
L173.566 114.441
L182.708 138.44
L191.85 109.578
L200.992 111.542
L210.134 102.505
L219.276 93.299
L228.418 123.186
L237.56 137.778
L246.702 152.673
L255.844 146.387" style="fill:none;stroke:#03012d;stroke-linecap:round;"/>
   </g>
   <g id="line2d_28">
    <path clip-path="url(#pa691a7dfe0)" d="
M45.5786 125.898
L54.7206 126.209
L63.8625 128.135
L73.0045 131.896
L82.1465 138.331
L91.2884 143.84
L100.43 143.521
L109.572 136.103
L118.714 133.067
L127.856 128.369
L136.998 108.872
L146.14 94.6447
L155.282 76.4341
L164.424 69.4516
L173.566 68.8191
L182.708 63.7142
L191.85 65.1274
L200.992 73.6099
L210.134 67.5331
L219.276 66.9912
L228.418 72.2857
L237.56 71.9376
L246.702 69.4768
L255.844 68.7862" style="fill:none;stroke:#03012d;stroke-linecap:round;"/>
   </g>
   <g id="line2d_29">
    <path clip-path="url(#pa691a7dfe0)" d="
M45.5786 139.494
L54.7206 134.277
L63.8625 136.968
L73.0045 137.468
L82.1465 141.505
L91.2884 138.963
L100.43 136.537
L109.572 137.457
L118.714 126.174
L127.856 111.064
L136.998 99.1376
L146.14 85.6948
L155.282 68.2624
L164.424 63.4289
L173.566 64.3257
L182.708 64.6611
L191.85 71.602
L200.992 77.3886
L210.134 69.4887
L219.276 72.4105
L228.418 76.3259
L237.56 74.0923
L246.702 70.7948
L255.844 75.5325" style="fill:none;stroke:#03012d;stroke-linecap:round;"/>
   </g>
   <g id="line2d_30">
    <path clip-path="url(#pa691a7dfe0)" d="
M45.5786 88.6477
L54.7206 63.4212
L63.8625 63.2465
L73.0045 86.1181
L82.1465 102.77
L91.2884 101.769
L100.43 85.4294
L109.572 98.9486
L118.714 115.653
L127.856 110.648
L136.998 114.268
L146.14 86.0642
L155.282 43.5828
L164.424 36.9019
L173.566 52.3831
L182.708 74.3151
L191.85 113.062
L200.992 125.225
L210.134 132.46
L219.276 132.659
L228.418 130.801
L237.56 124.232
L246.702 130.722
L255.844 159.726" style="fill:none;stroke:#03012d;stroke-linecap:round;"/>
   </g>
   <g id="line2d_31">
    <path clip-path="url(#pa691a7dfe0)" d="
M45.5786 124.42
L54.7206 127.57
L63.8625 134.448
L73.0045 136.434
L82.1465 137.969
L91.2884 134.911
L100.43 138.754
L109.572 140.093
L118.714 134.259
L127.856 122.846
L136.998 104.077
L146.14 90.0831
L155.282 63.5393
L164.424 55.5023
L173.566 58.8749
L182.708 56.1959
L191.85 62.3306
L200.992 74.1229
L210.134 73.2903
L219.276 78.4267
L228.418 83.3218
L237.56 81.5096
L246.702 79.2774
L255.844 80.7961" style="fill:none;stroke:#03012d;stroke-linecap:round;"/>
   </g>
   <g id="line2d_32">
    <path clip-path="url(#pa691a7dfe0)" d="
M45.5786 105.9
L54.7206 114.874
L63.8625 113.511
L73.0045 95.1771
L82.1465 58.3699
L91.2884 63.2629
L100.43 72.5104
L109.572 58.403
L118.714 64.9959
L127.856 95.5276
L136.998 81.2046
L146.14 49.8771
L155.282 49.1838
L164.424 88.6768
L173.566 109.326
L182.708 137.024
L191.85 111.85
L200.992 89.3022
L210.134 113.979
L219.276 134.641
L228.418 143.067
L237.56 136.543
L246.702 132.405
L255.844 153.441" style="fill:none;stroke:#03012d;stroke-linecap:round;"/>
   </g>
   <g id="line2d_33">
    <path clip-path="url(#pa691a7dfe0)" d="
M45.5786 131.548
L54.7206 129.875
L63.8625 128.643
L73.0045 131.313
L82.1465 132.185
L91.2884 136.494
L100.43 141.427
L109.572 149.861
L118.714 138.59
L127.856 116.253
L136.998 98.9472
L146.14 90.5274
L155.282 62.1647
L164.424 60.5485
L173.566 69.829
L182.708 73.1062
L191.85 82.9093
L200.992 82.3848
L210.134 67.6058
L219.276 64.3289
L228.418 71.2774
L237.56 78.0417
L246.702 67.0869
L255.844 68.1068" style="fill:none;stroke:#03012d;stroke-linecap:round;"/>
   </g>
   <g id="patch_3">
    <path d="
M45.5786 174.898
L45.5786 20.7894" style="fill:none;stroke:#262626;stroke-linecap:square;stroke-linejoin:miter;stroke-width:1.25;"/>
   </g>
   <g id="patch_4">
    <path d="
M45.5786 174.898
L255.844 174.898" style="fill:none;stroke:#262626;stroke-linecap:square;stroke-linejoin:miter;stroke-width:1.25;"/>
   </g>
   <g id="text_11">
    <!-- Botrytis -->
    <defs>
     <path d="
M7.32812 0
L7.32812 71.5781
L34.1875 71.5781
Q42.3906 71.5781 47.3438 69.4062
Q52.2969 67.2344 55.0938 62.7188
Q57.9062 58.2031 57.9062 53.2656
Q57.9062 48.6875 55.4219 44.625
Q52.9375 40.5781 47.9062 38.0938
Q54.3906 36.1875 57.875 31.5938
Q61.375 27 61.375 20.75
Q61.375 15.7188 59.25 11.3906
Q57.125 7.07812 54 4.73438
Q50.875 2.39062 46.1562 1.1875
Q41.4531 0 34.625 0
z

M16.7969 41.5
L32.2812 41.5
Q38.5781 41.5 41.3125 42.3281
Q44.9219 43.4062 46.75 45.8906
Q48.5781 48.3906 48.5781 52.1562
Q48.5781 55.7188 46.875 58.4219
Q45.1719 61.1406 41.9844 62.1406
Q38.8125 63.1406 31.1094 63.1406
L16.7969 63.1406
z

M16.7969 8.45312
L34.625 8.45312
Q39.2031 8.45312 41.0625 8.79688
Q44.3438 9.375 46.5312 10.7344
Q48.7344 12.1094 50.1406 14.7188
Q51.5625 17.3281 51.5625 20.75
Q51.5625 24.75 49.5156 27.7031
Q47.4688 30.6719 43.8281 31.8594
Q40.1875 33.0625 33.3438 33.0625
L16.7969 33.0625
z
" id="ArialMT-42"/>
     <path d="
M6.20312 -19.9688
L5.21875 -11.7188
Q8.10938 -12.5 10.25 -12.5
Q13.1875 -12.5 14.9375 -11.5156
Q16.7031 -10.5469 17.8281 -8.79688
Q18.6562 -7.46875 20.5156 -2.25
Q20.75 -1.51562 21.2969 -0.09375
L1.60938 51.8594
L11.0781 51.8594
L21.875 21.8281
Q23.9688 16.1094 25.6406 9.8125
Q27.1562 15.875 29.25 21.625
L40.3281 51.8594
L49.125 51.8594
L29.3906 -0.875
Q26.2188 -9.42188 24.4688 -12.6406
Q22.125 -17 19.0938 -19.0156
Q16.0625 -21.0469 11.8594 -21.0469
Q9.32812 -21.0469 6.20312 -19.9688" id="ArialMT-79"/>
     <path d="
M25.7812 7.85938
L27.0469 0.09375
Q23.3438 -0.6875 20.4062 -0.6875
Q15.625 -0.6875 12.9844 0.828125
Q10.3594 2.34375 9.28125 4.8125
Q8.20312 7.28125 8.20312 15.1875
L8.20312 45.0156
L1.76562 45.0156
L1.76562 51.8594
L8.20312 51.8594
L8.20312 64.7031
L16.9375 69.9688
L16.9375 51.8594
L25.7812 51.8594
L25.7812 45.0156
L16.9375 45.0156
L16.9375 14.7031
Q16.9375 10.9375 17.4062 9.85938
Q17.875 8.79688 18.9219 8.15625
Q19.9688 7.51562 21.9219 7.51562
Q23.3906 7.51562 25.7812 7.85938" id="ArialMT-74"/>
    </defs>
    <g style="fill:#262626;" transform="translate(131.3790625 15.789375)scale(0.12 -0.12)">
     <use xlink:href="#ArialMT-42"/>
     <use x="66.69921875" xlink:href="#ArialMT-6f"/>
     <use x="122.314453125" xlink:href="#ArialMT-74"/>
     <use x="150.09765625" xlink:href="#ArialMT-72"/>
     <use x="183.3984375" xlink:href="#ArialMT-79"/>
     <use x="233.3984375" xlink:href="#ArialMT-74"/>
     <use x="261.181640625" xlink:href="#ArialMT-69"/>
     <use x="283.3984375" xlink:href="#ArialMT-73"/>
    </g>
   </g>
  </g>
  <g id="axes_2">
   <g id="patch_5">
    <path d="
M268.804 174.898
L479.069 174.898
L479.069 20.7894
L268.804 20.7894
z
" style="fill:#ffffff;"/>
   </g>
   <g id="matplotlib.axis_3">
    <g id="xtick_5">
     <g id="line2d_34">
      <g>
       <use style="fill:#262626;stroke:#262626;" x="279.317171875" xlink:href="#me1deecec79" y="174.8978125"/>
      </g>
     </g>
     <g id="text_12">
      <!-- 20 -->
      <g style="fill:#262626;" transform="translate(274.142171875 195.055625)scale(0.1 -0.1)">
       <use xlink:href="#ArialMT-32"/>
       <use x="55.615234375" xlink:href="#ArialMT-30"/>
      </g>
     </g>
    </g>
    <g id="xtick_6">
     <g id="line2d_35">
      <g>
       <use style="fill:#262626;stroke:#262626;" x="331.8835" xlink:href="#me1deecec79" y="174.8978125"/>
      </g>
     </g>
     <g id="text_13">
      <!-- 25 -->
      <defs>
       <path d="
M4.15625 18.75
L13.375 19.5312
Q14.4062 12.7969 18.1406 9.39062
Q21.875 6 27.1562 6
Q33.5 6 37.8906 10.7812
Q42.2812 15.5781 42.2812 23.4844
Q42.2812 31 38.0625 35.3438
Q33.8438 39.7031 27 39.7031
Q22.75 39.7031 19.3281 37.7656
Q15.9219 35.8438 13.9688 32.7656
L5.71875 33.8438
L12.6406 70.6094
L48.25 70.6094
L48.25 62.2031
L19.6719 62.2031
L15.8281 42.9688
Q22.2656 47.4688 29.3438 47.4688
Q38.7188 47.4688 45.1562 40.9688
Q51.6094 34.4688 51.6094 24.2656
Q51.6094 14.5469 45.9531 7.46875
Q39.0625 -1.21875 27.1562 -1.21875
Q17.3906 -1.21875 11.2031 4.25
Q5.03125 9.71875 4.15625 18.75" id="ArialMT-35"/>
      </defs>
      <g style="fill:#262626;" transform="translate(326.6694375 195.055625)scale(0.1 -0.1)">
       <use xlink:href="#ArialMT-32"/>
       <use x="55.615234375" xlink:href="#ArialMT-35"/>
      </g>
     </g>
    </g>
    <g id="xtick_7">
     <g id="line2d_36">
      <g>
       <use style="fill:#262626;stroke:#262626;" x="384.449828125" xlink:href="#me1deecec79" y="174.8978125"/>
      </g>
     </g>
     <g id="text_14">
      <!-- 30 -->
      <g style="fill:#262626;" transform="translate(379.338109375 195.055625)scale(0.1 -0.1)">
       <use xlink:href="#ArialMT-33"/>
       <use x="55.615234375" xlink:href="#ArialMT-30"/>
      </g>
     </g>
    </g>
    <g id="xtick_8">
     <g id="line2d_37">
      <g>
       <use style="fill:#262626;stroke:#262626;" x="437.01615625" xlink:href="#me1deecec79" y="174.8978125"/>
      </g>
     </g>
     <g id="text_15">
      <!-- 35 -->
      <g style="fill:#262626;" transform="translate(431.865375 195.055625)scale(0.1 -0.1)">
       <use xlink:href="#ArialMT-33"/>
       <use x="55.615234375" xlink:href="#ArialMT-35"/>
      </g>
     </g>
    </g>
   </g>
   <g id="matplotlib.axis_4">
    <g id="ytick_6">
     <g id="line2d_38">
      <g>
       <use style="fill:#262626;stroke:#262626;" x="268.80390625" xlink:href="#m4aded61697" y="162.158368221"/>
      </g>
     </g>
    </g>
    <g id="ytick_7">
     <g id="line2d_39">
      <g>
       <use style="fill:#262626;stroke:#262626;" x="268.80390625" xlink:href="#m4aded61697" y="130.517790984"/>
      </g>
     </g>
    </g>
    <g id="ytick_8">
     <g id="line2d_40">
      <g>
       <use style="fill:#262626;stroke:#262626;" x="268.80390625" xlink:href="#m4aded61697" y="98.8772137482"/>
      </g>
     </g>
    </g>
    <g id="ytick_9">
     <g id="line2d_41">
      <g>
       <use style="fill:#262626;stroke:#262626;" x="268.80390625" xlink:href="#m4aded61697" y="67.236636512"/>
      </g>
     </g>
    </g>
    <g id="ytick_10">
     <g id="line2d_42">
      <g>
       <use style="fill:#262626;stroke:#262626;" x="268.80390625" xlink:href="#m4aded61697" y="35.5960592758"/>
      </g>
     </g>
    </g>
   </g>
   <g id="line2d_43">
    <path clip-path="url(#pa61dcb5892)" d="
M268.804 151.033
L289.83 143.323
L310.857 112.438
L331.884 90.466
L352.91 104.179
L373.937 113.838
L394.963 101.245
L415.99 90.1669
L437.016 73.1302
L458.043 57.1872
L479.069 50.6428" style="fill:none;stroke:#03012d;stroke-linecap:round;"/>
   </g>
   <g id="line2d_44">
    <path clip-path="url(#pa61dcb5892)" d="
M268.804 136.303
L289.83 136.142
L310.857 130.971
L331.884 111.517
L352.91 115.009
L373.937 110.293
L394.963 90.6536
L415.99 81.3617
L437.016 73.0817
L458.043 56.0395
L479.069 46.2781" style="fill:none;stroke:#03012d;stroke-linecap:round;"/>
   </g>
   <g id="line2d_45">
    <path clip-path="url(#pa61dcb5892)" d="
M268.804 122.513
L289.83 129.001
L310.857 119.322
L331.884 97.155
L352.91 114.431
L373.937 128.933
L394.963 114.778
L415.99 99.466
L437.016 74.4482
L458.043 49.3706
L479.069 38.2305" style="fill:none;stroke:#03012d;stroke-linecap:round;"/>
   </g>
   <g id="line2d_46">
    <path clip-path="url(#pa61dcb5892)" d="
M268.804 119.256
L289.83 129.58
L310.857 132.896
L331.884 121.416
L352.91 126.066
L373.937 118.464
L394.963 94.6806
L415.99 73.7008
L437.016 56.5322
L458.043 58.3323
L479.069 56.7259" style="fill:none;stroke:#03012d;stroke-linecap:round;"/>
   </g>
   <g id="line2d_47">
    <path clip-path="url(#pa61dcb5892)" d="
M268.804 68.5
L289.83 92.6059
L310.857 142.284
L331.884 150.141
L352.91 131.406
L373.937 115.675
L394.963 100.98
L415.99 82.0087
L437.016 72.2483
L458.043 69.3368
L479.069 62.463" style="fill:none;stroke:#03012d;stroke-linecap:round;"/>
   </g>
   <g id="line2d_48">
    <path clip-path="url(#pa61dcb5892)" d="
M268.804 130.962
L289.83 132.324
L310.857 112.904
L331.884 96.1011
L352.91 108.372
L373.937 122.028
L394.963 118.91
L415.99 100.886
L437.016 76.5608
L458.043 53.5766
L479.069 35.0252" style="fill:none;stroke:#03012d;stroke-linecap:round;"/>
   </g>
   <g id="line2d_49">
    <path clip-path="url(#pa61dcb5892)" d="
M268.804 127.121
L289.83 128.674
L310.857 126.454
L331.884 122.149
L352.91 125.619
L373.937 116.947
L394.963 92.7292
L415.99 76.5688
L437.016 67.7025
L458.043 56.8446
L479.069 46.8396" style="fill:none;stroke:#03012d;stroke-linecap:round;"/>
   </g>
   <g id="line2d_50">
    <path clip-path="url(#pa61dcb5892)" d="
M268.804 114.485
L289.83 123.989
L310.857 131.483
L331.884 129.935
L352.91 127.251
L373.937 114.55
L394.963 97.1914
L415.99 77.2518
L437.016 68.3498
L458.043 61.1309
L479.069 42.0319" style="fill:none;stroke:#03012d;stroke-linecap:round;"/>
   </g>
   <g id="line2d_51">
    <path clip-path="url(#pa61dcb5892)" d="
M268.804 114.906
L289.83 130.891
L310.857 135.898
L331.884 131.198
L352.91 129.893
L373.937 108.129
L394.963 80.822
L415.99 70.334
L437.016 65.0056
L458.043 60.0832
L479.069 60.4886" style="fill:none;stroke:#03012d;stroke-linecap:round;"/>
   </g>
   <g id="line2d_52">
    <path clip-path="url(#pa61dcb5892)" d="
M268.804 154.356
L289.83 148.664
L310.857 124.54
L331.884 101.303
L352.91 103.246
L373.937 96.9785
L394.963 73.7793
L415.99 65.7645
L437.016 71.663
L458.043 77.5786
L479.069 69.7762" style="fill:none;stroke:#03012d;stroke-linecap:round;"/>
   </g>
   <g id="line2d_53">
    <path clip-path="url(#pa61dcb5892)" d="
M268.804 134.266
L289.83 135.172
L310.857 123.533
L331.884 110.674
L352.91 122.379
L373.937 118.833
L394.963 94.6357
L415.99 74.8703
L437.016 64.224
L458.043 57.3167
L479.069 51.7449" style="fill:none;stroke:#03012d;stroke-linecap:round;"/>
   </g>
   <g id="line2d_54">
    <path clip-path="url(#pa61dcb5892)" d="
M268.804 151.988
L289.83 142.016
L310.857 113.773
L331.884 91.0494
L352.91 105.542
L373.937 112.195
L394.963 106.416
L415.99 83.8406
L437.016 67.1083
L458.043 57.7838
L479.069 55.9377" style="fill:none;stroke:#03012d;stroke-linecap:round;"/>
   </g>
   <g id="line2d_55">
    <path clip-path="url(#pa61dcb5892)" d="
M268.804 147.113
L289.83 143.071
L310.857 113.049
L331.884 93.1711
L352.91 110.476
L373.937 116.414
L394.963 102.368
L415.99 82.4472
L437.016 70.5499
L458.043 58.503
L479.069 50.4889" style="fill:none;stroke:#03012d;stroke-linecap:round;"/>
   </g>
   <g id="line2d_56">
    <path clip-path="url(#pa61dcb5892)" d="
M268.804 128.814
L289.83 133.127
L310.857 125.221
L331.884 107.735
L352.91 126.134
L373.937 120.71
L394.963 87.0878
L415.99 85.9694
L437.016 75.5019
L458.043 54.0228
L479.069 43.3255" style="fill:none;stroke:#03012d;stroke-linecap:round;"/>
   </g>
   <g id="line2d_57">
    <path clip-path="url(#pa61dcb5892)" d="
M268.804 156.722
L289.83 148.44
L310.857 126.863
L331.884 95.9605
L352.91 98.5574
L373.937 89.7543
L394.963 66.7584
L415.99 65.9809
L437.016 76.2089
L458.043 87.5762
L479.069 74.8277" style="fill:none;stroke:#03012d;stroke-linecap:round;"/>
   </g>
   <g id="line2d_58">
    <path clip-path="url(#pa61dcb5892)" d="
M268.804 136.778
L289.83 134.981
L310.857 125.481
L331.884 112.463
L352.91 120.799
L373.937 115.988
L394.963 90.6458
L415.99 76.0822
L437.016 63.0094
L458.043 57.3187
L479.069 54.1036" style="fill:none;stroke:#03012d;stroke-linecap:round;"/>
   </g>
   <g id="line2d_59">
    <path clip-path="url(#pa61dcb5892)" d="
M268.804 146.79
L289.83 144.17
L310.857 126.231
L331.884 107.862
L352.91 111.709
L373.937 101.795
L394.963 82.8849
L415.99 76.186
L437.016 70.4159
L458.043 63.538
L479.069 56.0688" style="fill:none;stroke:#03012d;stroke-linecap:round;"/>
   </g>
   <g id="line2d_60">
    <path clip-path="url(#pa61dcb5892)" d="
M268.804 143.91
L289.83 140.501
L310.857 122.739
L331.884 106.283
L352.91 112.17
L373.937 112.745
L394.963 94.0109
L415.99 78.1805
L437.016 64.2856
L458.043 57.4868
L479.069 55.3375" style="fill:none;stroke:#03012d;stroke-linecap:round;"/>
   </g>
   <g id="line2d_61">
    <path clip-path="url(#pa61dcb5892)" d="
M268.804 131.867
L289.83 136.202
L310.857 132.653
L331.884 118.956
L352.91 117.363
L373.937 107.641
L394.963 89.5724
L415.99 77.6771
L437.016 67.8616
L458.043 57.7
L479.069 50.1563" style="fill:none;stroke:#03012d;stroke-linecap:round;"/>
   </g>
   <g id="line2d_62">
    <path clip-path="url(#pa61dcb5892)" d="
M268.804 137.34
L289.83 137.185
L310.857 130.918
L331.884 116.069
L352.91 111.925
L373.937 107.213
L394.963 92.4102
L415.99 80.0151
L437.016 67.4
L458.043 56.003
L479.069 51.171" style="fill:none;stroke:#03012d;stroke-linecap:round;"/>
   </g>
   <g id="line2d_63">
    <path clip-path="url(#pa61dcb5892)" d="
M268.804 126.809
L289.83 131.191
L310.857 96.2984
L331.884 66.1928
L352.91 114.422
L373.937 126.305
L394.963 118.368
L415.99 116.255
L437.016 92.4009
L458.043 66.4081
L479.069 32.9987" style="fill:none;stroke:#03012d;stroke-linecap:round;"/>
   </g>
   <g id="line2d_64">
    <path clip-path="url(#pa61dcb5892)" d="
M268.804 138.274
L289.83 140.688
L310.857 127.464
L331.884 115.46
L352.91 119.631
L373.937 106.179
L394.963 83.5333
L415.99 69.7945
L437.016 65.5554
L458.043 61.7804
L479.069 59.2906" style="fill:none;stroke:#03012d;stroke-linecap:round;"/>
   </g>
   <g id="line2d_65">
    <path clip-path="url(#pa61dcb5892)" d="
M268.804 123.148
L289.83 126.254
L310.857 114.252
L331.884 95.2887
L352.91 128.23
L373.937 139.444
L394.963 106.538
L415.99 82.0509
L437.016 72.6178
L458.043 56.618
L479.069 43.2086" style="fill:none;stroke:#03012d;stroke-linecap:round;"/>
   </g>
   <g id="line2d_66">
    <path clip-path="url(#pa61dcb5892)" d="
M268.804 119.852
L289.83 128.51
L310.857 142.12
L331.884 120.384
L352.91 116.051
L373.937 110.787
L394.963 97.2923
L415.99 82.8189
L437.016 68.3675
L458.043 57.6952
L479.069 43.7705" style="fill:none;stroke:#03012d;stroke-linecap:round;"/>
   </g>
   <g id="patch_6">
    <path d="
M268.804 174.898
L268.804 20.7894" style="fill:none;stroke:#262626;stroke-linecap:square;stroke-linejoin:miter;stroke-width:1.25;"/>
   </g>
   <g id="patch_7">
    <path d="
M268.804 174.898
L479.069 174.898" style="fill:none;stroke:#262626;stroke-linecap:square;stroke-linejoin:miter;stroke-width:1.25;"/>
   </g>
   <g id="text_16">
    <!-- Senescence -->
    <defs>
     <path d="
M4.5 23
L13.4219 23.7812
Q14.0625 18.4062 16.375 14.9688
Q18.7031 11.5312 23.5781 9.40625
Q28.4688 7.28125 34.5781 7.28125
Q39.9844 7.28125 44.1406 8.89062
Q48.2969 10.5 50.3125 13.2969
Q52.3438 16.1094 52.3438 19.4375
Q52.3438 22.7969 50.3906 25.3125
Q48.4375 27.8281 43.9531 29.5469
Q41.0625 30.6719 31.2031 33.0312
Q21.3438 35.4062 17.3906 37.5
Q12.25 40.1875 9.73438 44.1562
Q7.23438 48.1406 7.23438 53.0781
Q7.23438 58.5 10.2969 63.2031
Q13.375 67.9219 19.2812 70.3594
Q25.2031 72.7969 32.4219 72.7969
Q40.375 72.7969 46.4531 70.2344
Q52.5469 67.6719 55.8125 62.6875
Q59.0781 57.7188 59.3281 51.4219
L50.25 50.7344
Q49.5156 57.5156 45.2812 60.9844
Q41.0625 64.4531 32.8125 64.4531
Q24.2188 64.4531 20.2812 61.2969
Q16.3594 58.1562 16.3594 53.7188
Q16.3594 49.8594 19.1406 47.3594
Q21.875 44.875 33.4219 42.2656
Q44.9688 39.6562 49.2656 37.7031
Q55.5156 34.8125 58.4844 30.3906
Q61.4688 25.9844 61.4688 20.2188
Q61.4688 14.5 58.2031 9.4375
Q54.9375 4.39062 48.7969 1.57812
Q42.6719 -1.21875 35.0156 -1.21875
Q25.2969 -1.21875 18.7188 1.60938
Q12.1562 4.4375 8.42188 10.125
Q4.6875 15.8281 4.5 23" id="ArialMT-53"/>
     <path d="
M40.4375 19
L49.0781 17.875
Q47.6562 8.9375 41.8125 3.875
Q35.9844 -1.17188 27.4844 -1.17188
Q16.8438 -1.17188 10.375 5.78125
Q3.90625 12.75 3.90625 25.7344
Q3.90625 34.125 6.6875 40.4219
Q9.46875 46.7344 15.1562 49.875
Q20.8438 53.0312 27.5469 53.0312
Q35.9844 53.0312 41.3594 48.75
Q46.7344 44.4844 48.25 36.625
L39.7031 35.2969
Q38.4844 40.5312 35.375 43.1562
Q32.2812 45.7969 27.875 45.7969
Q21.2344 45.7969 17.0781 41.0312
Q12.9375 36.2812 12.9375 25.9844
Q12.9375 15.5312 16.9375 10.7969
Q20.9531 6.0625 27.3906 6.0625
Q32.5625 6.0625 36.0312 9.23438
Q39.5 12.4062 40.4375 19" id="ArialMT-63"/>
    </defs>
    <g style="fill:#262626;" transform="translate(341.4334375 15.789375)scale(0.12 -0.12)">
     <use xlink:href="#ArialMT-53"/>
     <use x="66.69921875" xlink:href="#ArialMT-65"/>
     <use x="122.314453125" xlink:href="#ArialMT-6e"/>
     <use x="177.9296875" xlink:href="#ArialMT-65"/>
     <use x="233.544921875" xlink:href="#ArialMT-73"/>
     <use x="283.544921875" xlink:href="#ArialMT-63"/>
     <use x="333.544921875" xlink:href="#ArialMT-65"/>
     <use x="389.16015625" xlink:href="#ArialMT-6e"/>
     <use x="444.775390625" xlink:href="#ArialMT-63"/>
     <use x="494.775390625" xlink:href="#ArialMT-65"/>
    </g>
   </g>
  </g>
  <g id="axes_3">
   <g id="patch_8">
    <path d="
M492.029 174.898
L702.295 174.898
L702.295 20.7894
L492.029 20.7894
z
" style="fill:#ffffff;"/>
   </g>
   <g id="matplotlib.axis_5">
    <g id="xtick_9">
     <g id="line2d_67">
      <g>
       <use style="fill:#262626;stroke:#262626;" x="532.292789229" xlink:href="#me1deecec79" y="174.8978125"/>
      </g>
     </g>
     <g id="text_17">
      <!-- 5 -->
      <g style="fill:#262626;" transform="translate(529.920132979 195.055625)scale(0.1 -0.1)">
       <use xlink:href="#ArialMT-35"/>
      </g>
     </g>
    </g>
    <g id="xtick_10">
     <g id="line2d_68">
      <g>
       <use style="fill:#262626;stroke:#262626;" x="577.030089761" xlink:href="#me1deecec79" y="174.8978125"/>
      </g>
     </g>
     <g id="text_18">
      <!-- 10 -->
      <g style="fill:#262626;" transform="translate(572.252746011 195.055625)scale(0.1 -0.1)">
       <use xlink:href="#ArialMT-31"/>
       <use x="55.615234375" xlink:href="#ArialMT-30"/>
      </g>
     </g>
    </g>
    <g id="xtick_11">
     <g id="line2d_69">
      <g>
       <use style="fill:#262626;stroke:#262626;" x="621.767390293" xlink:href="#me1deecec79" y="174.8978125"/>
      </g>
     </g>
     <g id="text_19">
      <!-- 15 -->
      <g style="fill:#262626;" transform="translate(616.950984043 195.055625)scale(0.1 -0.1)">
       <use xlink:href="#ArialMT-31"/>
       <use x="55.615234375" xlink:href="#ArialMT-35"/>
      </g>
     </g>
    </g>
    <g id="xtick_12">
     <g id="line2d_70">
      <g>
       <use style="fill:#262626;stroke:#262626;" x="666.504690824" xlink:href="#me1deecec79" y="174.8978125"/>
      </g>
     </g>
     <g id="text_20">
      <!-- 20 -->
      <g style="fill:#262626;" transform="translate(661.329690824 195.055625)scale(0.1 -0.1)">
       <use xlink:href="#ArialMT-32"/>
       <use x="55.615234375" xlink:href="#ArialMT-30"/>
      </g>
     </g>
    </g>
   </g>
   <g id="matplotlib.axis_6">
    <g id="ytick_11">
     <g id="line2d_71">
      <g>
       <use style="fill:#262626;stroke:#262626;" x="492.02921875" xlink:href="#m4aded61697" y="162.158368221"/>
      </g>
     </g>
    </g>
    <g id="ytick_12">
     <g id="line2d_72">
      <g>
       <use style="fill:#262626;stroke:#262626;" x="492.02921875" xlink:href="#m4aded61697" y="130.517790984"/>
      </g>
     </g>
    </g>
    <g id="ytick_13">
     <g id="line2d_73">
      <g>
       <use style="fill:#262626;stroke:#262626;" x="492.02921875" xlink:href="#m4aded61697" y="98.8772137482"/>
      </g>
     </g>
    </g>
    <g id="ytick_14">
     <g id="line2d_74">
      <g>
       <use style="fill:#262626;stroke:#262626;" x="492.02921875" xlink:href="#m4aded61697" y="67.236636512"/>
      </g>
     </g>
    </g>
    <g id="ytick_15">
     <g id="line2d_75">
      <g>
       <use style="fill:#262626;stroke:#262626;" x="492.02921875" xlink:href="#m4aded61697" y="35.5960592758"/>
      </g>
     </g>
    </g>
   </g>
   <g id="line2d_76">
    <path clip-path="url(#p3aeff855be)" d="
M492.029 144.785
L496.503 133.877
L514.398 83.1182
L541.24 75.8894
L594.925 75.8519
L702.295 79.7418" style="fill:none;stroke:#d9544d;stroke-linecap:round;"/>
   </g>
   <g id="line2d_77">
    <path clip-path="url(#p3aeff855be)" d="
M492.029 138.643
L496.503 127.622
L514.398 112.38
L541.24 82.291
L594.925 65.7489
L702.295 66.5791" style="fill:none;stroke:#d9544d;stroke-linecap:round;"/>
   </g>
   <g id="line2d_78">
    <path clip-path="url(#p3aeff855be)" d="
M492.029 144.254
L496.503 128.316
L514.398 94.4867
L541.24 87.1423
L594.925 79.5526
L702.295 59.5125" style="fill:none;stroke:#d9544d;stroke-linecap:round;"/>
   </g>
   <g id="line2d_79">
    <path clip-path="url(#p3aeff855be)" d="
M492.029 141.561
L496.503 132.305
L514.398 100.381
L541.24 73.5869
L594.925 77.981
L702.295 67.4481" style="fill:none;stroke:#d9544d;stroke-linecap:round;"/>
   </g>
   <g id="line2d_80">
    <path clip-path="url(#p3aeff855be)" d="
M492.029 137.093
L496.503 131.687
L514.398 90.6777
L541.24 94.3033
L594.925 88.2444
L702.295 51.2585" style="fill:none;stroke:#d9544d;stroke-linecap:round;"/>
   </g>
   <g id="line2d_81">
    <path clip-path="url(#p3aeff855be)" d="
M492.029 148.865
L496.503 125.38
L514.398 76.0649
L541.24 68.2063
L594.925 81.1005
L702.295 93.6467" style="fill:none;stroke:#d9544d;stroke-linecap:round;"/>
   </g>
   <g id="line2d_82">
    <path clip-path="url(#p3aeff855be)" d="
M492.029 149.046
L496.503 127.922
L514.398 86.6092
L541.24 76.5455
L594.925 75.9561
L702.295 77.1848" style="fill:none;stroke:#d9544d;stroke-linecap:round;"/>
   </g>
   <g id="line2d_83">
    <path clip-path="url(#p3aeff855be)" d="
M492.029 141.747
L496.503 133.297
L514.398 97.2345
L541.24 68.5243
L594.925 72.1506
L702.295 80.3096" style="fill:none;stroke:#d9544d;stroke-linecap:round;"/>
   </g>
   <g id="line2d_84">
    <path clip-path="url(#p3aeff855be)" d="
M492.029 149.823
L496.503 126.782
L514.398 82.5351
L541.24 71.8229
L594.925 79.7406
L702.295 82.5595" style="fill:none;stroke:#d9544d;stroke-linecap:round;"/>
   </g>
   <g id="line2d_85">
    <path clip-path="url(#p3aeff855be)" d="
M492.029 137.094
L496.503 137.271
L514.398 97.7244
L541.24 73.5543
L594.925 64.5448
L702.295 83.0746" style="fill:none;stroke:#d9544d;stroke-linecap:round;"/>
   </g>
   <g id="line2d_86">
    <path clip-path="url(#p3aeff855be)" d="
M492.029 143.208
L496.503 133.023
L514.398 89.7492
L541.24 81.7979
L594.925 80.9118
L702.295 64.5737" style="fill:none;stroke:#d9544d;stroke-linecap:round;"/>
   </g>
   <g id="line2d_87">
    <path clip-path="url(#p3aeff855be)" d="
M492.029 141.524
L496.503 133.058
L514.398 88.4225
L541.24 64.2507
L594.925 72.8474
L702.295 93.1603" style="fill:none;stroke:#d9544d;stroke-linecap:round;"/>
   </g>
   <g id="line2d_88">
    <path clip-path="url(#p3aeff855be)" d="
M492.029 142.499
L496.503 130.846
L514.398 100.563
L541.24 79.1581
L594.925 74.1373
L702.295 66.0598" style="fill:none;stroke:#d9544d;stroke-linecap:round;"/>
   </g>
   <g id="line2d_89">
    <path clip-path="url(#p3aeff855be)" d="
M492.029 150.037
L496.503 126.747
L514.398 83.8513
L541.24 80.7425
L594.925 77.5207
L702.295 74.3647" style="fill:none;stroke:#d9544d;stroke-linecap:round;"/>
   </g>
   <g id="line2d_90">
    <path clip-path="url(#p3aeff855be)" d="
M492.029 143.937
L496.503 125.595
L514.398 107.763
L541.24 72.4982
L594.925 69.1568
L702.295 74.3142" style="fill:none;stroke:#d9544d;stroke-linecap:round;"/>
   </g>
   <g id="line2d_91">
    <path clip-path="url(#p3aeff855be)" d="
M492.029 149.544
L496.503 126.207
L514.398 89.7271
L541.24 74.1107
L594.925 73.4491
L702.295 80.2252" style="fill:none;stroke:#d9544d;stroke-linecap:round;"/>
   </g>
   <g id="line2d_92">
    <path clip-path="url(#p3aeff855be)" d="
M492.029 142.316
L496.503 132.783
L514.398 98.1168
L541.24 74.6287
L594.925 70.3573
L702.295 75.0618" style="fill:none;stroke:#d9544d;stroke-linecap:round;"/>
   </g>
   <g id="line2d_93">
    <path clip-path="url(#p3aeff855be)" d="
M492.029 141.944
L496.503 133.454
L514.398 92.6914
L541.24 69.353
L594.925 68.7953
L702.295 87.0256" style="fill:none;stroke:#d9544d;stroke-linecap:round;"/>
   </g>
   <g id="line2d_94">
    <path clip-path="url(#p3aeff855be)" d="
M492.029 150.433
L496.503 125.581
L514.398 85.0169
L541.24 72.4731
L594.925 83.3044
L702.295 76.4549" style="fill:none;stroke:#d9544d;stroke-linecap:round;"/>
   </g>
   <g id="line2d_95">
    <path clip-path="url(#p3aeff855be)" d="
M492.029 140.415
L496.503 130.479
L514.398 107.055
L541.24 69.3044
L594.925 72.1489
L702.295 73.8614" style="fill:none;stroke:#d9544d;stroke-linecap:round;"/>
   </g>
   <g id="line2d_96">
    <path clip-path="url(#p3aeff855be)" d="
M492.029 137.71
L496.503 136.924
L514.398 98.7072
L541.24 80.6595
L594.925 67.6848
L702.295 71.5782" style="fill:none;stroke:#d9544d;stroke-linecap:round;"/>
   </g>
   <g id="line2d_97">
    <path clip-path="url(#p3aeff855be)" d="
M492.029 146.247
L496.503 123.609
L514.398 100.346
L541.24 85.5658
L594.925 77.5528
L702.295 59.9422" style="fill:none;stroke:#d9544d;stroke-linecap:round;"/>
   </g>
   <g id="line2d_98">
    <path clip-path="url(#p3aeff855be)" d="
M492.029 144.653
L496.503 132.939
L514.398 85.264
L541.24 73.9942
L594.925 71.4652
L702.295 84.9472" style="fill:none;stroke:#d9544d;stroke-linecap:round;"/>
   </g>
   <g id="line2d_99">
    <path clip-path="url(#p3aeff855be)" d="
M492.029 148.713
L496.503 127.277
L514.398 74.2846
L541.24 81.922
L594.925 89.1999
L702.295 71.8669" style="fill:none;stroke:#d9544d;stroke-linecap:round;"/>
   </g>
   <g id="patch_9">
    <path d="
M492.029 174.898
L492.029 20.7894" style="fill:none;stroke:#262626;stroke-linecap:square;stroke-linejoin:miter;stroke-width:1.25;"/>
   </g>
   <g id="patch_10">
    <path d="
M492.029 174.898
L702.295 174.898" style="fill:none;stroke:#262626;stroke-linecap:square;stroke-linejoin:miter;stroke-width:1.25;"/>
   </g>
   <g id="text_21">
    <!-- Root Cold -->
    <defs>
     <path d="
M7.85938 0
L7.85938 71.5781
L39.5938 71.5781
Q49.1719 71.5781 54.1406 69.6406
Q59.125 67.7188 62.1094 62.8281
Q65.0938 57.9531 65.0938 52.0469
Q65.0938 44.4375 60.1562 39.2031
Q55.2188 33.9844 44.9219 32.5625
Q48.6875 30.7656 50.6406 29
Q54.7812 25.2031 58.5 19.4844
L70.9531 0
L59.0312 0
L49.5625 14.8906
Q45.4062 21.3438 42.7188 24.75
Q40.0469 28.1719 37.9219 29.5312
Q35.7969 30.9062 33.5938 31.4531
Q31.9844 31.7812 28.3281 31.7812
L17.3281 31.7812
L17.3281 0
z

M17.3281 39.9844
L37.7031 39.9844
Q44.1875 39.9844 47.8438 41.3281
Q51.5156 42.6719 53.4219 45.625
Q55.3281 48.5781 55.3281 52.0469
Q55.3281 57.125 51.6406 60.3906
Q47.9531 63.6719 39.9844 63.6719
L17.3281 63.6719
z
" id="ArialMT-52"/>
     <path d="
M58.7969 25.0938
L68.2656 22.7031
Q65.2812 11.0312 57.5469 4.90625
Q49.8125 -1.21875 38.625 -1.21875
Q27.0469 -1.21875 19.7969 3.48438
Q12.5469 8.20312 8.76562 17.1406
Q4.98438 26.0781 4.98438 36.3281
Q4.98438 47.5156 9.25 55.8281
Q13.5312 64.1562 21.4062 68.4688
Q29.2969 72.7969 38.7656 72.7969
Q49.5156 72.7969 56.8281 67.3281
Q64.1562 61.8594 67.0469 51.9531
L57.7188 49.75
Q55.2188 57.5625 50.4844 61.125
Q45.75 64.7031 38.5781 64.7031
Q30.3281 64.7031 24.7812 60.7344
Q19.2344 56.7812 16.9844 50.1094
Q14.75 43.4531 14.75 36.375
Q14.75 27.25 17.4062 20.4375
Q20.0625 13.625 25.6719 10.25
Q31.2969 6.89062 37.8438 6.89062
Q45.7969 6.89062 51.3125 11.4688
Q56.8438 16.0625 58.7969 25.0938" id="ArialMT-43"/>
     <path id="ArialMT-20"/>
     <path d="
M40.2344 0
L40.2344 6.54688
Q35.2969 -1.17188 25.7344 -1.17188
Q19.5312 -1.17188 14.3281 2.25
Q9.125 5.67188 6.26562 11.7969
Q3.42188 17.9219 3.42188 25.875
Q3.42188 33.6406 6 39.9688
Q8.59375 46.2969 13.7656 49.6562
Q18.9531 53.0312 25.3438 53.0312
Q30.0312 53.0312 33.6875 51.0469
Q37.3594 49.0781 39.6562 45.9062
L39.6562 71.5781
L48.3906 71.5781
L48.3906 0
z

M12.4531 25.875
Q12.4531 15.9219 16.6406 10.9844
Q20.8438 6.0625 26.5625 6.0625
Q32.3281 6.0625 36.3438 10.7656
Q40.375 15.4844 40.375 25.1406
Q40.375 35.7969 36.2656 40.7656
Q32.1719 45.75 26.1719 45.75
Q20.3125 45.75 16.375 40.9688
Q12.4531 36.1875 12.4531 25.875" id="ArialMT-64"/>
     <path d="
M6.39062 0
L6.39062 71.5781
L15.1875 71.5781
L15.1875 0
z
" id="ArialMT-6c"/>
    </defs>
    <g style="fill:#262626;" transform="translate(570.915625 15.789375)scale(0.12 -0.12)">
     <use xlink:href="#ArialMT-52"/>
     <use x="72.216796875" xlink:href="#ArialMT-6f"/>
     <use x="127.83203125" xlink:href="#ArialMT-6f"/>
     <use x="183.447265625" xlink:href="#ArialMT-74"/>
     <use x="211.23046875" xlink:href="#ArialMT-20"/>
     <use x="239.013671875" xlink:href="#ArialMT-43"/>
     <use x="311.23046875" xlink:href="#ArialMT-6f"/>
     <use x="366.845703125" xlink:href="#ArialMT-6c"/>
     <use x="389.0625" xlink:href="#ArialMT-64"/>
    </g>
   </g>
  </g>
  <g id="axes_4">
   <g id="patch_11">
    <path d="
M45.5786 377.418
L255.844 377.418
L255.844 223.309
L45.5786 223.309
z
" style="fill:#ffffff;"/>
   </g>
   <g id="matplotlib.axis_7">
    <g id="xtick_13">
     <g id="line2d_100">
      <g>
       <use style="fill:#262626;stroke:#262626;" x="87.63165625" xlink:href="#me1deecec79" y="377.4178125"/>
      </g>
     </g>
     <g id="text_22">
      <!-- 5 -->
      <g style="fill:#262626;" transform="translate(85.259 397.575625)scale(0.1 -0.1)">
       <use xlink:href="#ArialMT-35"/>
      </g>
     </g>
    </g>
    <g id="xtick_14">
     <g id="line2d_101">
      <g>
       <use style="fill:#262626;stroke:#262626;" x="131.898037829" xlink:href="#me1deecec79" y="377.4178125"/>
      </g>
     </g>
     <g id="text_23">
      <!-- 10 -->
      <g style="fill:#262626;" transform="translate(127.120694079 397.575625)scale(0.1 -0.1)">
       <use xlink:href="#ArialMT-31"/>
       <use x="55.615234375" xlink:href="#ArialMT-30"/>
      </g>
     </g>
    </g>
    <g id="xtick_15">
     <g id="line2d_102">
      <g>
       <use style="fill:#262626;stroke:#262626;" x="176.164419408" xlink:href="#me1deecec79" y="377.4178125"/>
      </g>
     </g>
     <g id="text_24">
      <!-- 15 -->
      <g style="fill:#262626;" transform="translate(171.348013158 397.575625)scale(0.1 -0.1)">
       <use xlink:href="#ArialMT-31"/>
       <use x="55.615234375" xlink:href="#ArialMT-35"/>
      </g>
     </g>
    </g>
    <g id="xtick_16">
     <g id="line2d_103">
      <g>
       <use style="fill:#262626;stroke:#262626;" x="220.430800987" xlink:href="#me1deecec79" y="377.4178125"/>
      </g>
     </g>
     <g id="text_25">
      <!-- 20 -->
      <g style="fill:#262626;" transform="translate(215.255800987 397.575625)scale(0.1 -0.1)">
       <use xlink:href="#ArialMT-32"/>
       <use x="55.615234375" xlink:href="#ArialMT-30"/>
      </g>
     </g>
    </g>
    <g id="text_26">
     <!-- Time -->
     <defs>
      <path d="
M6.59375 0
L6.59375 51.8594
L14.4531 51.8594
L14.4531 44.5781
Q16.8906 48.3906 20.9375 50.7031
Q25 53.0312 30.1719 53.0312
Q35.9375 53.0312 39.625 50.6406
Q43.3125 48.25 44.8281 43.9531
Q50.9844 53.0312 60.8438 53.0312
Q68.5625 53.0312 72.7031 48.75
Q76.8594 44.4844 76.8594 35.5938
L76.8594 0
L68.1094 0
L68.1094 32.6719
Q68.1094 37.9375 67.25 40.25
Q66.4062 42.5781 64.1562 43.9844
Q61.9219 45.4062 58.8906 45.4062
Q53.4219 45.4062 49.7969 41.7656
Q46.1875 38.1406 46.1875 30.125
L46.1875 0
L37.4062 0
L37.4062 33.6875
Q37.4062 39.5469 35.25 42.4688
Q33.1094 45.4062 28.2188 45.4062
Q24.5156 45.4062 21.3594 43.4531
Q18.2188 41.5 16.7969 37.7344
Q15.375 33.9844 15.375 26.9062
L15.375 0
z
" id="ArialMT-6d"/>
      <path d="
M25.9219 0
L25.9219 63.1406
L2.34375 63.1406
L2.34375 71.5781
L59.0781 71.5781
L59.0781 63.1406
L35.4062 63.1406
L35.4062 0
z
" id="ArialMT-54"/>
     </defs>
     <g style="fill:#262626;" transform="translate(139.05296875 412.43671875)scale(0.11 -0.11)">
      <use xlink:href="#ArialMT-54"/>
      <use x="57.333984375" xlink:href="#ArialMT-69"/>
      <use x="79.55078125" xlink:href="#ArialMT-6d"/>
      <use x="162.8515625" xlink:href="#ArialMT-65"/>
     </g>
    </g>
   </g>
   <g id="matplotlib.axis_8">
    <g id="ytick_16">
     <g id="line2d_104">
      <g>
       <use style="fill:#262626;stroke:#262626;" x="45.57859375" xlink:href="#m4aded61697" y="364.678368221"/>
      </g>
     </g>
     <g id="text_27">
      <!-- −2 -->
      <g style="fill:#262626;" transform="translate(22.25984375 367.263524471)scale(0.1 -0.1)">
       <use xlink:href="#ArialMT-2212"/>
       <use x="58.3984375" xlink:href="#ArialMT-32"/>
      </g>
     </g>
    </g>
    <g id="ytick_17">
     <g id="line2d_105">
      <g>
       <use style="fill:#262626;stroke:#262626;" x="45.57859375" xlink:href="#m4aded61697" y="333.037790984"/>
      </g>
     </g>
     <g id="text_28">
      <!-- −1 -->
      <g style="fill:#262626;" transform="translate(23.56921875 335.622947234)scale(0.1 -0.1)">
       <use xlink:href="#ArialMT-2212"/>
       <use x="58.3984375" xlink:href="#ArialMT-31"/>
      </g>
     </g>
    </g>
    <g id="ytick_18">
     <g id="line2d_106">
      <g>
       <use style="fill:#262626;stroke:#262626;" x="45.57859375" xlink:href="#m4aded61697" y="301.397213748"/>
      </g>
     </g>
     <g id="text_29">
      <!-- 0 -->
      <g style="fill:#262626;" transform="translate(27.91140625 303.982369998)scale(0.1 -0.1)">
       <use xlink:href="#ArialMT-30"/>
      </g>
     </g>
    </g>
    <g id="ytick_19">
     <g id="line2d_107">
      <g>
       <use style="fill:#262626;stroke:#262626;" x="45.57859375" xlink:href="#m4aded61697" y="269.756636512"/>
      </g>
     </g>
     <g id="text_30">
      <!-- 1 -->
      <g style="fill:#262626;" transform="translate(29.94265625 272.341792762)scale(0.1 -0.1)">
       <use xlink:href="#ArialMT-31"/>
      </g>
     </g>
    </g>
    <g id="ytick_20">
     <g id="line2d_108">
      <g>
       <use style="fill:#262626;stroke:#262626;" x="45.57859375" xlink:href="#m4aded61697" y="238.116059276"/>
      </g>
     </g>
     <g id="text_31">
      <!-- 2 -->
      <g style="fill:#262626;" transform="translate(27.83796875 240.701215526)scale(0.1 -0.1)">
       <use xlink:href="#ArialMT-32"/>
      </g>
     </g>
    </g>
    <g id="text_32">
     <!-- Expression -->
     <g style="fill:#262626;" transform="translate(15.07359375 326.75671875)rotate(-90.0)scale(0.11 -0.11)">
      <use xlink:href="#ArialMT-45"/>
      <use x="66.69921875" xlink:href="#ArialMT-78"/>
      <use x="116.69921875" xlink:href="#ArialMT-70"/>
      <use x="172.314453125" xlink:href="#ArialMT-72"/>
      <use x="205.615234375" xlink:href="#ArialMT-65"/>
      <use x="261.23046875" xlink:href="#ArialMT-73"/>
      <use x="311.23046875" xlink:href="#ArialMT-73"/>
      <use x="361.23046875" xlink:href="#ArialMT-69"/>
      <use x="383.447265625" xlink:href="#ArialMT-6f"/>
      <use x="439.0625" xlink:href="#ArialMT-6e"/>
     </g>
    </g>
   </g>
   <g id="line2d_109">
    <path clip-path="url(#p4d13165c25)" d="
M45.5786 280.159
L47.7919 252.976
L52.2186 275.236
L69.9251 313.7
L96.4849 323.45
L149.605 332.05
L255.844 332.209" style="fill:none;stroke:#d9544d;stroke-linecap:round;"/>
   </g>
   <g id="line2d_110">
    <path clip-path="url(#p4d13165c25)" d="
M45.5786 268.983
L47.7919 258.37
L52.2186 283.343
L69.9251 310.639
L96.4849 314.76
L149.605 337.837
L255.844 335.848" style="fill:none;stroke:#d9544d;stroke-linecap:round;"/>
   </g>
   <g id="line2d_111">
    <path clip-path="url(#p4d13165c25)" d="
M45.5786 286.246
L47.7919 248.322
L52.2186 276.557
L69.9251 313.732
L96.4849 327.115
L149.605 331.77
L255.844 326.038" style="fill:none;stroke:#d9544d;stroke-linecap:round;"/>
   </g>
   <g id="line2d_112">
    <path clip-path="url(#p4d13165c25)" d="
M45.5786 264.037
L47.7919 269.204
L52.2186 269.934
L69.9251 322.287
L96.4849 327.126
L149.605 326.781
L255.844 330.412" style="fill:none;stroke:#d9544d;stroke-linecap:round;"/>
   </g>
   <g id="line2d_113">
    <path clip-path="url(#p4d13165c25)" d="
M45.5786 285.232
L47.7919 251.464
L52.2186 273.402
L69.9251 322.923
L96.4849 316.106
L149.605 337.904
L255.844 322.75" style="fill:none;stroke:#d9544d;stroke-linecap:round;"/>
   </g>
   <g id="line2d_114">
    <path clip-path="url(#p4d13165c25)" d="
M45.5786 262.503
L47.7919 267.412
L52.2186 279.082
L69.9251 305.929
L96.4849 324.284
L149.605 335.219
L255.844 335.35" style="fill:none;stroke:#d9544d;stroke-linecap:round;"/>
   </g>
   <g id="line2d_115">
    <path clip-path="url(#p4d13165c25)" d="
M45.5786 255.264
L47.7919 277.125
L52.2186 278.777
L69.9251 312.665
L96.4849 313.523
L149.605 329.91
L255.844 342.515" style="fill:none;stroke:#d9544d;stroke-linecap:round;"/>
   </g>
   <g id="line2d_116">
    <path clip-path="url(#p4d13165c25)" d="
M45.5786 265.333
L47.7919 266.9
L52.2186 275.193
L69.9251 309.308
L96.4849 321.559
L149.605 335.027
L255.844 336.459" style="fill:none;stroke:#d9544d;stroke-linecap:round;"/>
   </g>
   <g id="line2d_117">
    <path clip-path="url(#p4d13165c25)" d="
M45.5786 263.259
L47.7919 259.844
L52.2186 285.989
L69.9251 317.364
L96.4849 315.102
L149.605 335.698
L255.844 332.524" style="fill:none;stroke:#d9544d;stroke-linecap:round;"/>
   </g>
   <g id="line2d_118">
    <path clip-path="url(#p4d13165c25)" d="
M45.5786 265.342
L47.7919 266.63
L52.2186 273.178
L69.9251 315.293
L96.4849 321.954
L149.605 333.956
L255.844 333.428" style="fill:none;stroke:#d9544d;stroke-linecap:round;"/>
   </g>
   <g id="line2d_119">
    <path clip-path="url(#p4d13165c25)" d="
M45.5786 260.677
L47.7919 258.605
L52.2186 292.071
L69.9251 316.41
L96.4849 316.92
L149.605 329.138
L255.844 335.96" style="fill:none;stroke:#d9544d;stroke-linecap:round;"/>
   </g>
   <g id="line2d_120">
    <path clip-path="url(#p4d13165c25)" d="
M45.5786 276.916
L47.7919 254.127
L52.2186 282.534
L69.9251 309.256
L96.4849 324.086
L149.605 316.659
L255.844 346.204" style="fill:none;stroke:#d9544d;stroke-linecap:round;"/>
   </g>
   <g id="line2d_121">
    <path clip-path="url(#p4d13165c25)" d="
M45.5786 259.921
L47.7919 261.249
L52.2186 294.432
L69.9251 302.568
L96.4849 324.434
L149.605 336.868
L255.844 330.309" style="fill:none;stroke:#d9544d;stroke-linecap:round;"/>
   </g>
   <g id="line2d_122">
    <path clip-path="url(#p4d13165c25)" d="
M45.5786 269.834
L47.7919 253.188
L52.2186 285.934
L69.9251 316.031
L96.4849 328.949
L149.605 333.703
L255.844 322.142" style="fill:none;stroke:#d9544d;stroke-linecap:round;"/>
   </g>
   <g id="line2d_123">
    <path clip-path="url(#p4d13165c25)" d="
M45.5786 285.834
L47.7919 267.05
L52.2186 260.355
L69.9251 306.6
L96.4849 314.36
L149.605 332.483
L255.844 343.098" style="fill:none;stroke:#d9544d;stroke-linecap:round;"/>
   </g>
   <g id="line2d_124">
    <path clip-path="url(#p4d13165c25)" d="
M45.5786 262.192
L47.7919 259.811
L52.2186 288.983
L69.9251 311.163
L96.4849 319.157
L149.605 337.27
L255.844 331.206" style="fill:none;stroke:#d9544d;stroke-linecap:round;"/>
   </g>
   <g id="line2d_125">
    <path clip-path="url(#p4d13165c25)" d="
M45.5786 283.182
L47.7919 261.183
L52.2186 280.774
L69.9251 290.202
L96.4849 308.666
L149.605 340.475
L255.844 345.298" style="fill:none;stroke:#d9544d;stroke-linecap:round;"/>
   </g>
   <g id="line2d_126">
    <path clip-path="url(#p4d13165c25)" d="
M45.5786 269.607
L47.7919 247.889
L52.2186 299.544
L69.9251 310.049
L96.4849 327.251
L149.605 327.255
L255.844 328.187" style="fill:none;stroke:#d9544d;stroke-linecap:round;"/>
   </g>
   <g id="line2d_127">
    <path clip-path="url(#p4d13165c25)" d="
M45.5786 255.766
L47.7919 282.696
L52.2186 289.819
L69.9251 285.584
L96.4849 315.934
L149.605 339.501
L255.844 340.48" style="fill:none;stroke:#d9544d;stroke-linecap:round;"/>
   </g>
   <g id="line2d_128">
    <path clip-path="url(#p4d13165c25)" d="
M45.5786 262.971
L47.7919 263.009
L52.2186 279.649
L69.9251 317.856
L96.4849 322.736
L149.605 334.142
L255.844 329.416" style="fill:none;stroke:#d9544d;stroke-linecap:round;"/>
   </g>
   <g id="line2d_129">
    <path clip-path="url(#p4d13165c25)" d="
M45.5786 276.334
L47.7919 257.888
L52.2186 272.96
L69.9251 313.821
L96.4849 322.163
L149.605 338.543
L255.844 328.072" style="fill:none;stroke:#d9544d;stroke-linecap:round;"/>
   </g>
   <g id="line2d_130">
    <path clip-path="url(#p4d13165c25)" d="
M45.5786 256.334
L47.7919 272.506
L52.2186 279.196
L69.9251 309.847
L96.4849 329.146
L149.605 333.57
L255.844 329.183" style="fill:none;stroke:#d9544d;stroke-linecap:round;"/>
   </g>
   <g id="line2d_131">
    <path clip-path="url(#p4d13165c25)" d="
M45.5786 284.152
L47.7919 247.471
L52.2186 279.594
L69.9251 319.179
L96.4849 320.056
L149.605 324.026
L255.844 335.302" style="fill:none;stroke:#d9544d;stroke-linecap:round;"/>
   </g>
   <g id="line2d_132">
    <path clip-path="url(#p4d13165c25)" d="
M45.5786 260.436
L47.7919 273.829
L52.2186 282.09
L69.9251 302.234
L96.4849 309.869
L149.605 345.15
L255.844 336.173" style="fill:none;stroke:#d9544d;stroke-linecap:round;"/>
   </g>
   <g id="patch_12">
    <path d="
M45.5786 377.418
L45.5786 223.309" style="fill:none;stroke:#262626;stroke-linecap:square;stroke-linejoin:miter;stroke-width:1.25;"/>
   </g>
   <g id="patch_13">
    <path d="
M45.5786 377.418
L255.844 377.418" style="fill:none;stroke:#262626;stroke-linecap:square;stroke-linejoin:miter;stroke-width:1.25;"/>
   </g>
   <g id="text_33">
    <!-- Root Drought -->
    <defs>
     <path d="
M40.5781 0
L40.5781 7.625
Q34.5156 -1.17188 24.125 -1.17188
Q19.5312 -1.17188 15.5469 0.578125
Q11.5781 2.34375 9.64062 5
Q7.71875 7.67188 6.9375 11.5312
Q6.39062 14.1094 6.39062 19.7344
L6.39062 51.8594
L15.1875 51.8594
L15.1875 23.0938
Q15.1875 16.2188 15.7188 13.8125
Q16.5469 10.3594 19.2344 8.375
Q21.9219 6.39062 25.875 6.39062
Q29.8281 6.39062 33.2969 8.42188
Q36.7656 10.4531 38.2031 13.9375
Q39.6562 17.4375 39.6562 24.0781
L39.6562 51.8594
L48.4375 51.8594
L48.4375 0
z
" id="ArialMT-75"/>
     <path d="
M6.59375 0
L6.59375 71.5781
L15.375 71.5781
L15.375 45.9062
Q21.5312 53.0312 30.9062 53.0312
Q36.6719 53.0312 40.9219 50.75
Q45.1719 48.4844 47 44.4844
Q48.8281 40.4844 48.8281 32.8594
L48.8281 0
L40.0469 0
L40.0469 32.8594
Q40.0469 39.4531 37.1875 42.4531
Q34.3281 45.4531 29.1094 45.4531
Q25.2031 45.4531 21.75 43.4219
Q18.3125 41.4062 16.8438 37.9375
Q15.375 34.4688 15.375 28.375
L15.375 0
z
" id="ArialMT-68"/>
     <path d="
M7.71875 0
L7.71875 71.5781
L32.375 71.5781
Q40.7188 71.5781 45.125 70.5625
Q51.2656 69.1406 55.6094 65.4375
Q61.2812 60.6406 64.0781 53.1875
Q66.8906 45.75 66.8906 36.1875
Q66.8906 28.0312 64.9844 21.7344
Q63.0938 15.4375 60.1094 11.2969
Q57.125 7.17188 53.5781 4.79688
Q50.0469 2.4375 45.0469 1.21875
Q40.0469 0 33.5469 0
z

M17.1875 8.45312
L32.4688 8.45312
Q39.5469 8.45312 43.5781 9.76562
Q47.6094 11.0781 50 13.4844
Q53.375 16.8438 55.25 22.5312
Q57.125 28.2188 57.125 36.3281
Q57.125 47.5625 53.4375 53.5938
Q49.75 59.625 44.4844 61.6719
Q40.6719 63.1406 32.2344 63.1406
L17.1875 63.1406
z
" id="ArialMT-44"/>
     <path d="
M4.98438 -4.29688
L13.5312 -5.5625
Q14.0625 -9.51562 16.5 -11.3281
Q19.7812 -13.7656 25.4375 -13.7656
Q31.5469 -13.7656 34.8594 -11.3281
Q38.1875 -8.89062 39.3594 -4.5
Q40.0469 -1.8125 39.9844 6.78125
Q34.2344 0 25.6406 0
Q14.9375 0 9.07812 7.71875
Q3.21875 15.4375 3.21875 26.2188
Q3.21875 33.6406 5.90625 39.9062
Q8.59375 46.1875 13.6875 49.6094
Q18.7969 53.0312 25.6875 53.0312
Q34.8594 53.0312 40.8281 45.6094
L40.8281 51.8594
L48.9219 51.8594
L48.9219 7.03125
Q48.9219 -5.07812 46.4531 -10.125
Q44 -15.1875 38.6406 -18.1094
Q33.2969 -21.0469 25.4844 -21.0469
Q16.2188 -21.0469 10.5 -16.875
Q4.78125 -12.7031 4.98438 -4.29688
M12.25 26.8594
Q12.25 16.6562 16.2969 11.9688
Q20.3594 7.28125 26.4688 7.28125
Q32.5156 7.28125 36.6094 11.9375
Q40.7188 16.6094 40.7188 26.5625
Q40.7188 36.0781 36.5 40.9062
Q32.2812 45.75 26.3125 45.75
Q20.4531 45.75 16.3438 40.9844
Q12.25 36.2344 12.25 26.8594" id="ArialMT-67"/>
    </defs>
    <g style="fill:#262626;" transform="translate(115.07125 218.309375)scale(0.12 -0.12)">
     <use xlink:href="#ArialMT-52"/>
     <use x="72.216796875" xlink:href="#ArialMT-6f"/>
     <use x="127.83203125" xlink:href="#ArialMT-6f"/>
     <use x="183.447265625" xlink:href="#ArialMT-74"/>
     <use x="211.23046875" xlink:href="#ArialMT-20"/>
     <use x="239.013671875" xlink:href="#ArialMT-44"/>
     <use x="311.23046875" xlink:href="#ArialMT-72"/>
     <use x="344.53125" xlink:href="#ArialMT-6f"/>
     <use x="400.146484375" xlink:href="#ArialMT-75"/>
     <use x="455.76171875" xlink:href="#ArialMT-67"/>
     <use x="511.376953125" xlink:href="#ArialMT-68"/>
     <use x="566.9921875" xlink:href="#ArialMT-74"/>
    </g>
   </g>
  </g>
  <g id="axes_5">
   <g id="patch_14">
    <path d="
M268.804 377.418
L479.069 377.418
L479.069 223.309
L268.804 223.309
z
" style="fill:#ffffff;"/>
   </g>
   <g id="matplotlib.axis_9">
    <g id="xtick_17">
     <g id="line2d_133">
      <g>
       <use style="fill:#262626;stroke:#262626;" x="309.067476729" xlink:href="#me1deecec79" y="377.4178125"/>
      </g>
     </g>
     <g id="text_34">
      <!-- 5 -->
      <g style="fill:#262626;" transform="translate(306.694820479 397.575625)scale(0.1 -0.1)">
       <use xlink:href="#ArialMT-35"/>
      </g>
     </g>
    </g>
    <g id="xtick_18">
     <g id="line2d_134">
      <g>
       <use style="fill:#262626;stroke:#262626;" x="353.804777261" xlink:href="#me1deecec79" y="377.4178125"/>
      </g>
     </g>
     <g id="text_35">
      <!-- 10 -->
      <g style="fill:#262626;" transform="translate(349.027433511 397.575625)scale(0.1 -0.1)">
       <use xlink:href="#ArialMT-31"/>
       <use x="55.615234375" xlink:href="#ArialMT-30"/>
      </g>
     </g>
    </g>
    <g id="xtick_19">
     <g id="line2d_135">
      <g>
       <use style="fill:#262626;stroke:#262626;" x="398.542077793" xlink:href="#me1deecec79" y="377.4178125"/>
      </g>
     </g>
     <g id="text_36">
      <!-- 15 -->
      <g style="fill:#262626;" transform="translate(393.725671543 397.575625)scale(0.1 -0.1)">
       <use xlink:href="#ArialMT-31"/>
       <use x="55.615234375" xlink:href="#ArialMT-35"/>
      </g>
     </g>
    </g>
    <g id="xtick_20">
     <g id="line2d_136">
      <g>
       <use style="fill:#262626;stroke:#262626;" x="443.279378324" xlink:href="#me1deecec79" y="377.4178125"/>
      </g>
     </g>
     <g id="text_37">
      <!-- 20 -->
      <g style="fill:#262626;" transform="translate(438.104378324 397.575625)scale(0.1 -0.1)">
       <use xlink:href="#ArialMT-32"/>
       <use x="55.615234375" xlink:href="#ArialMT-30"/>
      </g>
     </g>
    </g>
    <g id="text_38">
     <!-- Time -->
     <g style="fill:#262626;" transform="translate(362.27828125 412.43671875)scale(0.11 -0.11)">
      <use xlink:href="#ArialMT-54"/>
      <use x="57.333984375" xlink:href="#ArialMT-69"/>
      <use x="79.55078125" xlink:href="#ArialMT-6d"/>
      <use x="162.8515625" xlink:href="#ArialMT-65"/>
     </g>
    </g>
   </g>
   <g id="matplotlib.axis_10">
    <g id="ytick_21">
     <g id="line2d_137">
      <g>
       <use style="fill:#262626;stroke:#262626;" x="268.80390625" xlink:href="#m4aded61697" y="364.678368221"/>
      </g>
     </g>
    </g>
    <g id="ytick_22">
     <g id="line2d_138">
      <g>
       <use style="fill:#262626;stroke:#262626;" x="268.80390625" xlink:href="#m4aded61697" y="333.037790984"/>
      </g>
     </g>
    </g>
    <g id="ytick_23">
     <g id="line2d_139">
      <g>
       <use style="fill:#262626;stroke:#262626;" x="268.80390625" xlink:href="#m4aded61697" y="301.397213748"/>
      </g>
     </g>
    </g>
    <g id="ytick_24">
     <g id="line2d_140">
      <g>
       <use style="fill:#262626;stroke:#262626;" x="268.80390625" xlink:href="#m4aded61697" y="269.756636512"/>
      </g>
     </g>
    </g>
    <g id="ytick_25">
     <g id="line2d_141">
      <g>
       <use style="fill:#262626;stroke:#262626;" x="268.80390625" xlink:href="#m4aded61697" y="238.116059276"/>
      </g>
     </g>
    </g>
   </g>
   <g id="line2d_142">
    <path clip-path="url(#p659f111a6e)" d="
M268.804 354.292
L273.278 323.746
L291.173 279.512
L318.015 271.92
L371.7 295.59
L479.069 283.323" style="fill:none;stroke:#d9544d;stroke-linecap:round;"/>
   </g>
   <g id="line2d_143">
    <path clip-path="url(#p659f111a6e)" d="
M268.804 349.683
L273.278 313.594
L291.173 271.019
L318.015 272.676
L371.7 320.411
L479.069 281.001" style="fill:none;stroke:#d9544d;stroke-linecap:round;"/>
   </g>
   <g id="line2d_144">
    <path clip-path="url(#p659f111a6e)" d="
M268.804 334.368
L273.278 321.065
L291.173 272.302
L318.015 264.693
L371.7 282.963
L479.069 332.992" style="fill:none;stroke:#d9544d;stroke-linecap:round;"/>
   </g>
   <g id="line2d_145">
    <path clip-path="url(#p659f111a6e)" d="
M268.804 334.902
L273.278 344.68
L291.173 265.95
L318.015 279.758
L371.7 298.287
L479.069 284.807" style="fill:none;stroke:#d9544d;stroke-linecap:round;"/>
   </g>
   <g id="line2d_146">
    <path clip-path="url(#p659f111a6e)" d="
M268.804 351.301
L273.278 317.552
L291.173 276.434
L318.015 267.037
L371.7 283.406
L479.069 312.653" style="fill:none;stroke:#d9544d;stroke-linecap:round;"/>
   </g>
   <g id="line2d_147">
    <path clip-path="url(#p659f111a6e)" d="
M268.804 345.089
L273.278 322.128
L291.173 268.316
L318.015 262.386
L371.7 301.974
L479.069 308.49" style="fill:none;stroke:#d9544d;stroke-linecap:round;"/>
   </g>
   <g id="line2d_148">
    <path clip-path="url(#p659f111a6e)" d="
M268.804 351.398
L273.278 328.002
L291.173 279.811
L318.015 269.57
L371.7 284.806
L479.069 294.796" style="fill:none;stroke:#d9544d;stroke-linecap:round;"/>
   </g>
   <g id="line2d_149">
    <path clip-path="url(#p659f111a6e)" d="
M268.804 325.255
L273.278 323.066
L291.173 249.726
L318.015 274.686
L371.7 322.498
L479.069 313.153" style="fill:none;stroke:#d9544d;stroke-linecap:round;"/>
   </g>
   <g id="line2d_150">
    <path clip-path="url(#p659f111a6e)" d="
M268.804 343.914
L273.278 301.933
L291.173 265.305
L318.015 267.017
L371.7 302.123
L479.069 328.09" style="fill:none;stroke:#d9544d;stroke-linecap:round;"/>
   </g>
   <g id="line2d_151">
    <path clip-path="url(#p659f111a6e)" d="
M268.804 350.132
L273.278 332.471
L291.173 287.534
L318.015 276.482
L371.7 283.141
L479.069 278.623" style="fill:none;stroke:#d9544d;stroke-linecap:round;"/>
   </g>
   <g id="line2d_152">
    <path clip-path="url(#p659f111a6e)" d="
M268.804 340.85
L273.278 322.618
L291.173 268.035
L318.015 263.073
L371.7 320.253
L479.069 293.555" style="fill:none;stroke:#d9544d;stroke-linecap:round;"/>
   </g>
   <g id="line2d_153">
    <path clip-path="url(#p659f111a6e)" d="
M268.804 347.223
L273.278 328.048
L291.173 277.943
L318.015 266.344
L371.7 281.784
L479.069 307.042" style="fill:none;stroke:#d9544d;stroke-linecap:round;"/>
   </g>
   <g id="line2d_154">
    <path clip-path="url(#p659f111a6e)" d="
M268.804 351.336
L273.278 327.566
L291.173 280.791
L318.015 272.486
L371.7 277.783
L479.069 298.422" style="fill:none;stroke:#d9544d;stroke-linecap:round;"/>
   </g>
   <g id="line2d_155">
    <path clip-path="url(#p659f111a6e)" d="
M268.804 345.425
L273.278 312.471
L291.173 269.46
L318.015 267.861
L371.7 287.27
L479.069 325.897" style="fill:none;stroke:#d9544d;stroke-linecap:round;"/>
   </g>
   <g id="line2d_156">
    <path clip-path="url(#p659f111a6e)" d="
M268.804 348.218
L273.278 322.522
L291.173 285.684
L318.015 269.372
L371.7 270.193
L479.069 312.395" style="fill:none;stroke:#d9544d;stroke-linecap:round;"/>
   </g>
   <g id="line2d_157">
    <path clip-path="url(#p659f111a6e)" d="
M268.804 343.715
L273.278 306.234
L291.173 260.617
L318.015 268.664
L371.7 307.175
L479.069 321.977" style="fill:none;stroke:#d9544d;stroke-linecap:round;"/>
   </g>
   <g id="line2d_158">
    <path clip-path="url(#p659f111a6e)" d="
M268.804 344.536
L273.278 317.383
L291.173 267.279
L318.015 265.125
L371.7 293.878
L479.069 320.183" style="fill:none;stroke:#d9544d;stroke-linecap:round;"/>
   </g>
   <g id="line2d_159">
    <path clip-path="url(#p659f111a6e)" d="
M268.804 342.484
L273.278 339.264
L291.173 284.634
L318.015 270.603
L371.7 294.684
L479.069 276.714" style="fill:none;stroke:#d9544d;stroke-linecap:round;"/>
   </g>
   <g id="line2d_160">
    <path clip-path="url(#p659f111a6e)" d="
M268.804 352.515
L273.278 308.432
L291.173 255.812
L318.015 296.159
L371.7 307.998
L479.069 287.467" style="fill:none;stroke:#d9544d;stroke-linecap:round;"/>
   </g>
   <g id="line2d_161">
    <path clip-path="url(#p659f111a6e)" d="
M268.804 346.56
L273.278 336.848
L291.173 281.45
L318.015 275.979
L371.7 279.083
L479.069 288.463" style="fill:none;stroke:#d9544d;stroke-linecap:round;"/>
   </g>
   <g id="line2d_162">
    <path clip-path="url(#p659f111a6e)" d="
M268.804 327.507
L273.278 329.887
L291.173 269.361
L318.015 255.76
L371.7 304.657
L479.069 321.21" style="fill:none;stroke:#d9544d;stroke-linecap:round;"/>
   </g>
   <g id="line2d_163">
    <path clip-path="url(#p659f111a6e)" d="
M268.804 349.768
L273.278 310.988
L291.173 277.928
L318.015 257.336
L371.7 310.418
L479.069 301.945" style="fill:none;stroke:#d9544d;stroke-linecap:round;"/>
   </g>
   <g id="line2d_164">
    <path clip-path="url(#p659f111a6e)" d="
M268.804 345.172
L273.278 329.902
L291.173 281.644
L318.015 268.034
L371.7 274.641
L479.069 308.991" style="fill:none;stroke:#d9544d;stroke-linecap:round;"/>
   </g>
   <g id="line2d_165">
    <path clip-path="url(#p659f111a6e)" d="
M268.804 336.92
L273.278 319.344
L291.173 252.814
L318.015 279.549
L371.7 324.715
L479.069 295.042" style="fill:none;stroke:#d9544d;stroke-linecap:round;"/>
   </g>
   <g id="patch_15">
    <path d="
M268.804 377.418
L268.804 223.309" style="fill:none;stroke:#262626;stroke-linecap:square;stroke-linejoin:miter;stroke-width:1.25;"/>
   </g>
   <g id="patch_16">
    <path d="
M268.804 377.418
L479.069 377.418" style="fill:none;stroke:#262626;stroke-linecap:square;stroke-linejoin:miter;stroke-width:1.25;"/>
   </g>
   <g id="text_39">
    <!-- Shoot Cold -->
    <g style="fill:#262626;" transform="translate(344.6846875 218.309375)scale(0.12 -0.12)">
     <use xlink:href="#ArialMT-53"/>
     <use x="66.69921875" xlink:href="#ArialMT-68"/>
     <use x="122.314453125" xlink:href="#ArialMT-6f"/>
     <use x="177.9296875" xlink:href="#ArialMT-6f"/>
     <use x="233.544921875" xlink:href="#ArialMT-74"/>
     <use x="261.328125" xlink:href="#ArialMT-20"/>
     <use x="289.111328125" xlink:href="#ArialMT-43"/>
     <use x="361.328125" xlink:href="#ArialMT-6f"/>
     <use x="416.943359375" xlink:href="#ArialMT-6c"/>
     <use x="439.16015625" xlink:href="#ArialMT-64"/>
    </g>
   </g>
  </g>
  <g id="axes_6">
   <g id="patch_17">
    <path d="
M492.029 377.418
L702.295 377.418
L702.295 223.309
L492.029 223.309
z
" style="fill:#ffffff;"/>
   </g>
   <g id="matplotlib.axis_11">
    <g id="xtick_21">
     <g id="line2d_166">
      <g>
       <use style="fill:#262626;stroke:#262626;" x="534.08228125" xlink:href="#me1deecec79" y="377.4178125"/>
      </g>
     </g>
     <g id="text_40">
      <!-- 5 -->
      <g style="fill:#262626;" transform="translate(531.709625 397.575625)scale(0.1 -0.1)">
       <use xlink:href="#ArialMT-35"/>
      </g>
     </g>
    </g>
    <g id="xtick_22">
     <g id="line2d_167">
      <g>
       <use style="fill:#262626;stroke:#262626;" x="578.348662829" xlink:href="#me1deecec79" y="377.4178125"/>
      </g>
     </g>
     <g id="text_41">
      <!-- 10 -->
      <g style="fill:#262626;" transform="translate(573.571319079 397.575625)scale(0.1 -0.1)">
       <use xlink:href="#ArialMT-31"/>
       <use x="55.615234375" xlink:href="#ArialMT-30"/>
      </g>
     </g>
    </g>
    <g id="xtick_23">
     <g id="line2d_168">
      <g>
       <use style="fill:#262626;stroke:#262626;" x="622.615044408" xlink:href="#me1deecec79" y="377.4178125"/>
      </g>
     </g>
     <g id="text_42">
      <!-- 15 -->
      <g style="fill:#262626;" transform="translate(617.798638158 397.575625)scale(0.1 -0.1)">
       <use xlink:href="#ArialMT-31"/>
       <use x="55.615234375" xlink:href="#ArialMT-35"/>
      </g>
     </g>
    </g>
    <g id="xtick_24">
     <g id="line2d_169">
      <g>
       <use style="fill:#262626;stroke:#262626;" x="666.881425987" xlink:href="#me1deecec79" y="377.4178125"/>
      </g>
     </g>
     <g id="text_43">
      <!-- 20 -->
      <g style="fill:#262626;" transform="translate(661.706425987 397.575625)scale(0.1 -0.1)">
       <use xlink:href="#ArialMT-32"/>
       <use x="55.615234375" xlink:href="#ArialMT-30"/>
      </g>
     </g>
    </g>
    <g id="text_44">
     <!-- Time -->
     <g style="fill:#262626;" transform="translate(585.50359375 412.43671875)scale(0.11 -0.11)">
      <use xlink:href="#ArialMT-54"/>
      <use x="57.333984375" xlink:href="#ArialMT-69"/>
      <use x="79.55078125" xlink:href="#ArialMT-6d"/>
      <use x="162.8515625" xlink:href="#ArialMT-65"/>
     </g>
    </g>
   </g>
   <g id="matplotlib.axis_12">
    <g id="ytick_26">
     <g id="line2d_170">
      <g>
       <use style="fill:#262626;stroke:#262626;" x="492.02921875" xlink:href="#m4aded61697" y="364.678368221"/>
      </g>
     </g>
    </g>
    <g id="ytick_27">
     <g id="line2d_171">
      <g>
       <use style="fill:#262626;stroke:#262626;" x="492.02921875" xlink:href="#m4aded61697" y="333.037790984"/>
      </g>
     </g>
    </g>
    <g id="ytick_28">
     <g id="line2d_172">
      <g>
       <use style="fill:#262626;stroke:#262626;" x="492.02921875" xlink:href="#m4aded61697" y="301.397213748"/>
      </g>
     </g>
    </g>
    <g id="ytick_29">
     <g id="line2d_173">
      <g>
       <use style="fill:#262626;stroke:#262626;" x="492.02921875" xlink:href="#m4aded61697" y="269.756636512"/>
      </g>
     </g>
    </g>
    <g id="ytick_30">
     <g id="line2d_174">
      <g>
       <use style="fill:#262626;stroke:#262626;" x="492.02921875" xlink:href="#m4aded61697" y="238.116059276"/>
      </g>
     </g>
    </g>
   </g>
   <g id="line2d_175">
    <path clip-path="url(#p99eb28ba72)" d="
M492.029 274.716
L494.243 268.092
L498.669 270.509
L516.376 304.478
L542.936 324.058
L596.055 351.101
L702.295 316.827" style="fill:none;stroke:#d9544d;stroke-linecap:round;"/>
   </g>
   <g id="line2d_176">
    <path clip-path="url(#p99eb28ba72)" d="
M492.029 298.299
L494.243 284.648
L498.669 278.225
L516.376 267.907
L542.936 290.281
L596.055 338.305
L702.295 352.115" style="fill:none;stroke:#d9544d;stroke-linecap:round;"/>
   </g>
   <g id="line2d_177">
    <path clip-path="url(#p99eb28ba72)" d="
M492.029 296.373
L494.243 277.353
L498.669 274.421
L516.376 271.068
L542.936 302.993
L596.055 352.717
L702.295 334.856" style="fill:none;stroke:#d9544d;stroke-linecap:round;"/>
   </g>
   <g id="line2d_178">
    <path clip-path="url(#p99eb28ba72)" d="
M492.029 287.67
L494.243 263.709
L498.669 286.309
L516.376 271.222
L542.936 324.459
L596.055 341.218
L702.295 335.193" style="fill:none;stroke:#d9544d;stroke-linecap:round;"/>
   </g>
   <g id="line2d_179">
    <path clip-path="url(#p99eb28ba72)" d="
M492.029 278.086
L494.243 264.006
L498.669 285.636
L516.376 283.501
L542.936 323.908
L596.055 351.615
L702.295 323.029" style="fill:none;stroke:#d9544d;stroke-linecap:round;"/>
   </g>
   <g id="line2d_180">
    <path clip-path="url(#p99eb28ba72)" d="
M492.029 283.049
L494.243 273.419
L498.669 269.857
L516.376 288.115
L542.936 306.661
L596.055 344.726
L702.295 343.953" style="fill:none;stroke:#d9544d;stroke-linecap:round;"/>
   </g>
   <g id="line2d_181">
    <path clip-path="url(#p99eb28ba72)" d="
M492.029 277.569
L494.243 291.911
L498.669 264.339
L516.376 282.974
L542.936 305.295
L596.055 340.911
L702.295 346.781" style="fill:none;stroke:#d9544d;stroke-linecap:round;"/>
   </g>
   <g id="line2d_182">
    <path clip-path="url(#p99eb28ba72)" d="
M492.029 277.115
L494.243 283.835
L498.669 301.222
L516.376 258.345
L542.936 306.66
L596.055 345.921
L702.295 336.683" style="fill:none;stroke:#d9544d;stroke-linecap:round;"/>
   </g>
   <g id="line2d_183">
    <path clip-path="url(#p99eb28ba72)" d="
M492.029 266.576
L494.243 268.301
L498.669 291.726
L516.376 293.88
L542.936 302.325
L596.055 341.921
L702.295 345.052" style="fill:none;stroke:#d9544d;stroke-linecap:round;"/>
   </g>
   <g id="line2d_184">
    <path clip-path="url(#p99eb28ba72)" d="
M492.029 260.607
L494.243 265.004
L498.669 298.208
L516.376 293.385
L542.936 324.264
L596.055 322.432
L702.295 345.881" style="fill:none;stroke:#d9544d;stroke-linecap:round;"/>
   </g>
   <g id="line2d_185">
    <path clip-path="url(#p99eb28ba72)" d="
M492.029 281.281
L494.243 288.986
L498.669 267.334
L516.376 282.563
L542.936 298.931
L596.055 339.668
L702.295 351.018" style="fill:none;stroke:#d9544d;stroke-linecap:round;"/>
   </g>
   <g id="line2d_186">
    <path clip-path="url(#p99eb28ba72)" d="
M492.029 302.829
L494.243 279.153
L498.669 258.363
L516.376 292.167
L542.936 296.095
L596.055 355.965
L702.295 325.208" style="fill:none;stroke:#d9544d;stroke-linecap:round;"/>
   </g>
   <g id="line2d_187">
    <path clip-path="url(#p99eb28ba72)" d="
M492.029 274.834
L494.243 268.152
L498.669 276.828
L516.376 304.221
L542.936 298.416
L596.055 344.743
L702.295 342.586" style="fill:none;stroke:#d9544d;stroke-linecap:round;"/>
   </g>
   <g id="line2d_188">
    <path clip-path="url(#p99eb28ba72)" d="
M492.029 282.507
L494.243 276.525
L498.669 259.762
L516.376 298.72
L542.936 320.076
L596.055 352.432
L702.295 319.759" style="fill:none;stroke:#d9544d;stroke-linecap:round;"/>
   </g>
   <g id="line2d_189">
    <path clip-path="url(#p99eb28ba72)" d="
M492.029 290.933
L494.243 274.557
L498.669 284.658
L516.376 268.972
L542.936 301.744
L596.055 336.194
L702.295 352.723" style="fill:none;stroke:#d9544d;stroke-linecap:round;"/>
   </g>
   <g id="line2d_190">
    <path clip-path="url(#p99eb28ba72)" d="
M492.029 275.43
L494.243 280.309
L498.669 285.378
L516.376 287.249
L542.936 286.951
L596.055 350.446
L702.295 344.018" style="fill:none;stroke:#d9544d;stroke-linecap:round;"/>
   </g>
   <g id="line2d_191">
    <path clip-path="url(#p99eb28ba72)" d="
M492.029 275.555
L494.243 273.737
L498.669 300.9
L516.376 280.608
L542.936 287.501
L596.055 342.929
L702.295 348.551" style="fill:none;stroke:#d9544d;stroke-linecap:round;"/>
   </g>
   <g id="line2d_192">
    <path clip-path="url(#p99eb28ba72)" d="
M492.029 276.673
L494.243 276.926
L498.669 264.396
L516.376 295.144
L542.936 313.587
L596.055 344.618
L702.295 338.436" style="fill:none;stroke:#d9544d;stroke-linecap:round;"/>
   </g>
   <g id="line2d_193">
    <path clip-path="url(#p99eb28ba72)" d="
M492.029 278.327
L494.243 290.074
L498.669 274.299
L516.376 277.373
L542.936 297.274
L596.055 345.943
L702.295 346.492" style="fill:none;stroke:#d9544d;stroke-linecap:round;"/>
   </g>
   <g id="line2d_194">
    <path clip-path="url(#p99eb28ba72)" d="
M492.029 293.908
L494.243 263.042
L498.669 272.794
L516.376 281.859
L542.936 318.258
L596.055 343.215
L702.295 336.705" style="fill:none;stroke:#d9544d;stroke-linecap:round;"/>
   </g>
   <g id="line2d_195">
    <path clip-path="url(#p99eb28ba72)" d="
M492.029 284.288
L494.243 280.119
L498.669 256.876
L516.376 295.786
L542.936 310.968
L596.055 345.321
L702.295 336.423" style="fill:none;stroke:#d9544d;stroke-linecap:round;"/>
   </g>
   <g id="line2d_196">
    <path clip-path="url(#p99eb28ba72)" d="
M492.029 294.089
L494.243 269.661
L498.669 265.997
L516.376 284.121
L542.936 312.482
L596.055 338.495
L702.295 344.934" style="fill:none;stroke:#d9544d;stroke-linecap:round;"/>
   </g>
   <g id="line2d_197">
    <path clip-path="url(#p99eb28ba72)" d="
M492.029 290.02
L494.243 271.955
L498.669 263.235
L516.376 291.93
L542.936 307.479
L596.055 338.381
L702.295 346.781" style="fill:none;stroke:#d9544d;stroke-linecap:round;"/>
   </g>
   <g id="line2d_198">
    <path clip-path="url(#p99eb28ba72)" d="
M492.029 266.099
L494.243 275.724
L498.669 269.8
L516.376 302.889
L542.936 316.799
L596.055 338.724
L702.295 339.745" style="fill:none;stroke:#d9544d;stroke-linecap:round;"/>
   </g>
   <g id="patch_18">
    <path d="
M492.029 377.418
L492.029 223.309" style="fill:none;stroke:#262626;stroke-linecap:square;stroke-linejoin:miter;stroke-width:1.25;"/>
   </g>
   <g id="patch_19">
    <path d="
M492.029 377.418
L702.295 377.418" style="fill:none;stroke:#262626;stroke-linecap:square;stroke-linejoin:miter;stroke-width:1.25;"/>
   </g>
   <g id="text_45">
    <!-- Shoot Uv -->
    <defs>
     <path d="
M54.6875 71.5781
L64.1562 71.5781
L64.1562 30.2188
Q64.1562 19.4375 61.7188 13.0781
Q59.2812 6.73438 52.9062 2.75
Q46.5312 -1.21875 36.1875 -1.21875
Q26.125 -1.21875 19.7188 2.25
Q13.3281 5.71875 10.5938 12.2812
Q7.85938 18.8438 7.85938 30.2188
L7.85938 71.5781
L17.3281 71.5781
L17.3281 30.2812
Q17.3281 20.9531 19.0625 16.5312
Q20.7969 12.1094 25.0156 9.71875
Q29.25 7.32812 35.3594 7.32812
Q45.7969 7.32812 50.2344 12.0625
Q54.6875 16.7969 54.6875 30.2812
z
" id="ArialMT-55"/>
     <path d="
M21 0
L1.26562 51.8594
L10.5469 51.8594
L21.6875 20.7969
Q23.4844 15.7656 25 10.3594
Q26.1719 14.4531 28.2656 20.2188
L39.7969 51.8594
L48.8281 51.8594
L29.2031 0
z
" id="ArialMT-76"/>
    </defs>
    <g style="fill:#262626;" transform="translate(572.5534375 218.309375)scale(0.12 -0.12)">
     <use xlink:href="#ArialMT-53"/>
     <use x="66.69921875" xlink:href="#ArialMT-68"/>
     <use x="122.314453125" xlink:href="#ArialMT-6f"/>
     <use x="177.9296875" xlink:href="#ArialMT-6f"/>
     <use x="233.544921875" xlink:href="#ArialMT-74"/>
     <use x="261.328125" xlink:href="#ArialMT-20"/>
     <use x="289.111328125" xlink:href="#ArialMT-55"/>
     <use x="361.328125" xlink:href="#ArialMT-76"/>
    </g>
   </g>
  </g>
 </g>
 <defs>
  <clipPath id="pa61dcb5892">
   <rect height="154.1084375" width="210.2653125" x="268.80390625" y="20.789375"/>
  </clipPath>
  <clipPath id="pa691a7dfe0">
   <rect height="154.1084375" width="210.2653125" x="45.57859375" y="20.789375"/>
  </clipPath>
  <clipPath id="p99eb28ba72">
   <rect height="154.1084375" width="210.2653125" x="492.02921875" y="223.309375"/>
  </clipPath>
  <clipPath id="p4d13165c25">
   <rect height="154.1084375" width="210.2653125" x="45.57859375" y="223.309375"/>
  </clipPath>
  <clipPath id="p659f111a6e">
   <rect height="154.1084375" width="210.2653125" x="268.80390625" y="223.309375"/>
  </clipPath>
  <clipPath id="p3aeff855be">
   <rect height="154.1084375" width="210.2653125" x="492.02921875" y="20.789375"/>
  </clipPath>
 </defs>
</svg>
