<?xml version="1.0" encoding="utf-8" standalone="no"?>
<!DOCTYPE svg PUBLIC "-//W3C//DTD SVG 1.1//EN"
  "http://www.w3.org/Graphics/SVG/1.1/DTD/svg11.dtd">
<!-- Created with matplotlib (http://matplotlib.org/) -->
<svg height="421pt" version="1.1" viewBox="0 0 709 421" width="709pt" xmlns="http://www.w3.org/2000/svg" xmlns:xlink="http://www.w3.org/1999/xlink">
 <defs>
  <style type="text/css">
*{stroke-linecap:butt;stroke-linejoin:round;}
  </style>
 </defs>
 <g id="figure_1">
  <g id="patch_1">
   <path d="
M0 421.823
L709.424 421.823
L709.424 0
L0 0
z
" style="fill:#ffffff;"/>
  </g>
  <g id="axes_1">
   <g id="patch_2">
    <path d="
M54.0442 174.898
L261.464 174.898
L261.464 20.7894
L54.0442 20.7894
z
" style="fill:#ffffff;"/>
   </g>
   <g id="matplotlib.axis_1">
    <g id="xtick_1">
     <g id="line2d_1">
      <defs>
       <path d="
M0 0
L0 6" id="me1deecec79" style="stroke:#262626;"/>
      </defs>
      <g>
       <use style="fill:#262626;stroke:#262626;" x="90.1172622283" xlink:href="#me1deecec79" y="174.8978125"/>
      </g>
     </g>
     <g id="text_1">
      <!-- 10 -->
      <defs>
       <path d="
M4.15625 35.2969
Q4.15625 48 6.76562 55.7344
Q9.375 63.4844 14.5156 67.6719
Q19.6719 71.875 27.4844 71.875
Q33.25 71.875 37.5938 69.5469
Q41.9375 67.2344 44.7656 62.8594
Q47.6094 58.5 49.2188 52.2188
Q50.8281 45.9531 50.8281 35.2969
Q50.8281 22.7031 48.2344 14.9688
Q45.6562 7.23438 40.5 3
Q35.3594 -1.21875 27.4844 -1.21875
Q17.1406 -1.21875 11.2344 6.20312
Q4.15625 15.1406 4.15625 35.2969
M13.1875 35.2969
Q13.1875 17.6719 17.3125 11.8281
Q21.4375 6 27.4844 6
Q33.5469 6 37.6719 11.8594
Q41.7969 17.7188 41.7969 35.2969
Q41.7969 52.9844 37.6719 58.7812
Q33.5469 64.5938 27.3906 64.5938
Q21.3438 64.5938 17.7188 59.4688
Q13.1875 52.9375 13.1875 35.2969" id="ArialMT-30"/>
       <path d="
M37.25 0
L28.4688 0
L28.4688 56
Q25.2969 52.9844 20.1406 49.9531
Q14.9844 46.9219 10.8906 45.4062
L10.8906 53.9062
Q18.2656 57.375 23.7812 62.2969
Q29.2969 67.2344 31.5938 71.875
L37.25 71.875
z
" id="ArialMT-31"/>
      </defs>
      <g style="fill:#262626;" transform="translate(85.3399184783 195.055625)scale(0.1 -0.1)">
       <use xlink:href="#ArialMT-31"/>
       <use x="55.615234375" xlink:href="#ArialMT-30"/>
      </g>
     </g>
    </g>
    <g id="xtick_2">
     <g id="line2d_2">
      <g>
       <use style="fill:#262626;stroke:#262626;" x="135.208566576" xlink:href="#me1deecec79" y="174.8978125"/>
      </g>
     </g>
     <g id="text_2">
      <!-- 20 -->
      <defs>
       <path d="
M50.3438 8.45312
L50.3438 0
L3.03125 0
Q2.9375 3.17188 4.04688 6.10938
Q5.85938 10.9375 9.82812 15.625
Q13.8125 20.3125 21.3438 26.4688
Q33.0156 36.0312 37.1094 41.625
Q41.2188 47.2188 41.2188 52.2031
Q41.2188 57.4219 37.4688 61
Q33.7344 64.5938 27.7344 64.5938
Q21.3906 64.5938 17.5781 60.7812
Q13.7656 56.9844 13.7188 50.25
L4.6875 51.1719
Q5.60938 61.2812 11.6562 66.5781
Q17.7188 71.875 27.9375 71.875
Q38.2344 71.875 44.2344 66.1562
Q50.25 60.4531 50.25 52
Q50.25 47.7031 48.4844 43.5469
Q46.7344 39.4062 42.6562 34.8125
Q38.5781 30.2188 29.1094 22.2188
Q21.1875 15.5781 18.9375 13.2031
Q16.7031 10.8438 15.2344 8.45312
z
" id="ArialMT-32"/>
      </defs>
      <g style="fill:#262626;" transform="translate(130.033566576 195.055625)scale(0.1 -0.1)">
       <use xlink:href="#ArialMT-32"/>
       <use x="55.615234375" xlink:href="#ArialMT-30"/>
      </g>
     </g>
    </g>
    <g id="xtick_3">
     <g id="line2d_3">
      <g>
       <use style="fill:#262626;stroke:#262626;" x="180.299870924" xlink:href="#me1deecec79" y="174.8978125"/>
      </g>
     </g>
     <g id="text_3">
      <!-- 30 -->
      <defs>
       <path d="
M4.20312 18.8906
L12.9844 20.0625
Q14.5 12.5938 18.1406 9.29688
Q21.7812 6 27 6
Q33.2031 6 37.4688 10.2969
Q41.75 14.5938 41.75 20.9531
Q41.75 27 37.7969 30.9219
Q33.8438 34.8594 27.7344 34.8594
Q25.25 34.8594 21.5312 33.8906
L22.5156 41.6094
Q23.3906 41.5 23.9219 41.5
Q29.5469 41.5 34.0312 44.4219
Q38.5312 47.3594 38.5312 53.4688
Q38.5312 58.2969 35.25 61.4688
Q31.9844 64.6562 26.8125 64.6562
Q21.6875 64.6562 18.2656 61.4219
Q14.8438 58.2031 13.875 51.7656
L5.07812 53.3281
Q6.6875 62.1562 12.3906 67.0156
Q18.1094 71.875 26.6094 71.875
Q32.4688 71.875 37.3906 69.3594
Q42.3281 66.8438 44.9375 62.5
Q47.5625 58.1562 47.5625 53.2656
Q47.5625 48.6406 45.0625 44.8281
Q42.5781 41.0156 37.7031 38.7656
Q44.0469 37.3125 47.5625 32.6875
Q51.0781 28.0781 51.0781 21.1406
Q51.0781 11.7656 44.2344 5.25
Q37.4062 -1.26562 26.9531 -1.26562
Q17.5312 -1.26562 11.2969 4.34375
Q5.07812 9.96875 4.20312 18.8906" id="ArialMT-33"/>
      </defs>
      <g style="fill:#262626;" transform="translate(175.188152174 195.055625)scale(0.1 -0.1)">
       <use xlink:href="#ArialMT-33"/>
       <use x="55.615234375" xlink:href="#ArialMT-30"/>
      </g>
     </g>
    </g>
    <g id="xtick_4">
     <g id="line2d_4">
      <g>
       <use style="fill:#262626;stroke:#262626;" x="225.391175272" xlink:href="#me1deecec79" y="174.8978125"/>
      </g>
     </g>
     <g id="text_4">
      <!-- 40 -->
      <defs>
       <path d="
M32.3281 0
L32.3281 17.1406
L1.26562 17.1406
L1.26562 25.2031
L33.9375 71.5781
L41.1094 71.5781
L41.1094 25.2031
L50.7812 25.2031
L50.7812 17.1406
L41.1094 17.1406
L41.1094 0
z

M32.3281 25.2031
L32.3281 57.4688
L9.90625 25.2031
z
" id="ArialMT-34"/>
      </defs>
      <g style="fill:#262626;" transform="translate(220.132581522 195.055625)scale(0.1 -0.1)">
       <use xlink:href="#ArialMT-34"/>
       <use x="55.615234375" xlink:href="#ArialMT-30"/>
      </g>
     </g>
    </g>
   </g>
   <g id="matplotlib.axis_2">
    <g id="ytick_1">
     <g id="line2d_5">
      <defs>
       <path d="
M0 0
L-6 0" id="m4aded61697" style="stroke:#262626;"/>
      </defs>
      <g>
       <use style="fill:#262626;stroke:#262626;" x="54.04421875" xlink:href="#m4aded61697" y="157.43110284"/>
      </g>
     </g>
     <g id="text_5">
      <!-- −1.5 -->
      <defs>
       <path d="
M52.8281 31.2031
L5.5625 31.2031
L5.5625 39.4062
L52.8281 39.4062
z
" id="ArialMT-2212"/>
       <path d="
M9.07812 0
L9.07812 10.0156
L19.0938 10.0156
L19.0938 0
z
" id="ArialMT-2e"/>
       <path d="
M4.15625 18.75
L13.375 19.5312
Q14.4062 12.7969 18.1406 9.39062
Q21.875 6 27.1562 6
Q33.5 6 37.8906 10.7812
Q42.2812 15.5781 42.2812 23.4844
Q42.2812 31 38.0625 35.3438
Q33.8438 39.7031 27 39.7031
Q22.75 39.7031 19.3281 37.7656
Q15.9219 35.8438 13.9688 32.7656
L5.71875 33.8438
L12.6406 70.6094
L48.25 70.6094
L48.25 62.2031
L19.6719 62.2031
L15.8281 42.9688
Q22.2656 47.4688 29.3438 47.4688
Q38.7188 47.4688 45.1562 40.9688
Q51.6094 34.4688 51.6094 24.2656
Q51.6094 14.5469 45.9531 7.46875
Q39.0625 -1.21875 27.1562 -1.21875
Q17.3906 -1.21875 11.2031 4.25
Q5.03125 9.71875 4.15625 18.75" id="ArialMT-35"/>
      </defs>
      <g style="fill:#262626;" transform="translate(22.25984375 160.01625909)scale(0.1 -0.1)">
       <use xlink:href="#ArialMT-2212"/>
       <use x="58.3984375" xlink:href="#ArialMT-31"/>
       <use x="114.013671875" xlink:href="#ArialMT-2e"/>
       <use x="141.796875" xlink:href="#ArialMT-35"/>
      </g>
     </g>
    </g>
    <g id="ytick_2">
     <g id="line2d_6">
      <g>
       <use style="fill:#262626;stroke:#262626;" x="54.04421875" xlink:href="#m4aded61697" y="138.896492973"/>
      </g>
     </g>
     <g id="text_6">
      <!-- −1.0 -->
      <g style="fill:#262626;" transform="translate(22.33796875 141.481649223)scale(0.1 -0.1)">
       <use xlink:href="#ArialMT-2212"/>
       <use x="58.3984375" xlink:href="#ArialMT-31"/>
       <use x="114.013671875" xlink:href="#ArialMT-2e"/>
       <use x="141.796875" xlink:href="#ArialMT-30"/>
      </g>
     </g>
    </g>
    <g id="ytick_3">
     <g id="line2d_7">
      <g>
       <use style="fill:#262626;stroke:#262626;" x="54.04421875" xlink:href="#m4aded61697" y="120.361883106"/>
      </g>
     </g>
     <g id="text_7">
      <!-- −0.5 -->
      <g style="fill:#262626;" transform="translate(22.25984375 122.947039356)scale(0.1 -0.1)">
       <use xlink:href="#ArialMT-2212"/>
       <use x="58.3984375" xlink:href="#ArialMT-30"/>
       <use x="114.013671875" xlink:href="#ArialMT-2e"/>
       <use x="141.796875" xlink:href="#ArialMT-35"/>
      </g>
     </g>
    </g>
    <g id="ytick_4">
     <g id="line2d_8">
      <g>
       <use style="fill:#262626;stroke:#262626;" x="54.04421875" xlink:href="#m4aded61697" y="101.82727324"/>
      </g>
     </g>
     <g id="text_8">
      <!-- 0.0 -->
      <g style="fill:#262626;" transform="translate(28.03796875 104.41242949)scale(0.1 -0.1)">
       <use xlink:href="#ArialMT-30"/>
       <use x="55.615234375" xlink:href="#ArialMT-2e"/>
       <use x="83.3984375" xlink:href="#ArialMT-30"/>
      </g>
     </g>
    </g>
    <g id="ytick_5">
     <g id="line2d_9">
      <g>
       <use style="fill:#262626;stroke:#262626;" x="54.04421875" xlink:href="#m4aded61697" y="83.2926633732"/>
      </g>
     </g>
     <g id="text_9">
      <!-- 0.5 -->
      <g style="fill:#262626;" transform="translate(27.95984375 85.8778196232)scale(0.1 -0.1)">
       <use xlink:href="#ArialMT-30"/>
       <use x="55.615234375" xlink:href="#ArialMT-2e"/>
       <use x="83.3984375" xlink:href="#ArialMT-35"/>
      </g>
     </g>
    </g>
    <g id="ytick_6">
     <g id="line2d_10">
      <g>
       <use style="fill:#262626;stroke:#262626;" x="54.04421875" xlink:href="#m4aded61697" y="64.7580535065"/>
      </g>
     </g>
     <g id="text_10">
      <!-- 1.0 -->
      <g style="fill:#262626;" transform="translate(28.71140625 67.3432097565)scale(0.1 -0.1)">
       <use xlink:href="#ArialMT-31"/>
       <use x="55.615234375" xlink:href="#ArialMT-2e"/>
       <use x="83.3984375" xlink:href="#ArialMT-30"/>
      </g>
     </g>
    </g>
    <g id="ytick_7">
     <g id="line2d_11">
      <g>
       <use style="fill:#262626;stroke:#262626;" x="54.04421875" xlink:href="#m4aded61697" y="46.2234436398"/>
      </g>
     </g>
     <g id="text_11">
      <!-- 1.5 -->
      <g style="fill:#262626;" transform="translate(28.63328125 48.8085998898)scale(0.1 -0.1)">
       <use xlink:href="#ArialMT-31"/>
       <use x="55.615234375" xlink:href="#ArialMT-2e"/>
       <use x="83.3984375" xlink:href="#ArialMT-35"/>
      </g>
     </g>
    </g>
    <g id="ytick_8">
     <g id="line2d_12">
      <g>
       <use style="fill:#262626;stroke:#262626;" x="54.04421875" xlink:href="#m4aded61697" y="27.6888337732"/>
      </g>
     </g>
     <g id="text_12">
      <!-- 2.0 -->
      <g style="fill:#262626;" transform="translate(27.91609375 30.2739900232)scale(0.1 -0.1)">
       <use xlink:href="#ArialMT-32"/>
       <use x="55.615234375" xlink:href="#ArialMT-2e"/>
       <use x="83.3984375" xlink:href="#ArialMT-30"/>
      </g>
     </g>
    </g>
    <g id="text_13">
     <!-- Expression -->
     <defs>
      <path d="
M7.90625 0
L7.90625 71.5781
L59.6719 71.5781
L59.6719 63.1406
L17.3906 63.1406
L17.3906 41.2188
L56.9844 41.2188
L56.9844 32.8125
L17.3906 32.8125
L17.3906 8.45312
L61.3281 8.45312
L61.3281 0
z
" id="ArialMT-45"/>
      <path d="
M6.59375 -19.875
L6.59375 51.8594
L14.5938 51.8594
L14.5938 45.125
Q17.4375 49.0781 21 51.0469
Q24.5625 53.0312 29.6406 53.0312
Q36.2812 53.0312 41.3594 49.6094
Q46.4375 46.1875 49.0156 39.9531
Q51.6094 33.7344 51.6094 26.3125
Q51.6094 18.3594 48.75 11.9844
Q45.9062 5.60938 40.4531 2.21875
Q35.0156 -1.17188 29 -1.17188
Q24.6094 -1.17188 21.1094 0.6875
Q17.625 2.54688 15.375 5.375
L15.375 -19.875
z

M14.5469 25.6406
Q14.5469 15.625 18.5938 10.8438
Q22.6562 6.0625 28.4219 6.0625
Q34.2812 6.0625 38.4531 11.0156
Q42.625 15.9688 42.625 26.375
Q42.625 36.2812 38.5469 41.2031
Q34.4688 46.1406 28.8125 46.1406
Q23.1875 46.1406 18.8594 40.8906
Q14.5469 35.6406 14.5469 25.6406" id="ArialMT-70"/>
      <path d="
M3.32812 25.9219
Q3.32812 40.3281 11.3281 47.2656
Q18.0156 53.0312 27.6406 53.0312
Q38.3281 53.0312 45.1094 46.0156
Q51.9062 39.0156 51.9062 26.6562
Q51.9062 16.6562 48.9062 10.9062
Q45.9062 5.17188 40.1562 2
Q34.4219 -1.17188 27.6406 -1.17188
Q16.75 -1.17188 10.0312 5.8125
Q3.32812 12.7969 3.32812 25.9219
M12.3594 25.9219
Q12.3594 15.9688 16.7031 11.0156
Q21.0469 6.0625 27.6406 6.0625
Q34.1875 6.0625 38.5312 11.0312
Q42.875 16.0156 42.875 26.2188
Q42.875 35.8438 38.5 40.7969
Q34.125 45.75 27.6406 45.75
Q21.0469 45.75 16.7031 40.8125
Q12.3594 35.8906 12.3594 25.9219" id="ArialMT-6f"/>
      <path d="
M0.734375 0
L19.6719 26.9531
L2.15625 51.8594
L13.1406 51.8594
L21.0938 39.7031
Q23.3438 36.2344 24.7031 33.8906
Q26.8594 37.1094 28.6562 39.5938
L37.4062 51.8594
L47.9062 51.8594
L29.9844 27.4375
L49.2656 0
L38.4844 0
L27.8281 16.1094
L25 20.4531
L11.375 0
z
" id="ArialMT-78"/>
      <path d="
M6.64062 61.4688
L6.64062 71.5781
L15.4375 71.5781
L15.4375 61.4688
z

M6.64062 0
L6.64062 51.8594
L15.4375 51.8594
L15.4375 0
z
" id="ArialMT-69"/>
      <path d="
M3.07812 15.4844
L11.7656 16.8438
Q12.5 11.625 15.8438 8.84375
Q19.1875 6.0625 25.2031 6.0625
Q31.25 6.0625 34.1719 8.51562
Q37.1094 10.9844 37.1094 14.3125
Q37.1094 17.2812 34.5156 19
Q32.7188 20.1719 25.5312 21.9688
Q15.875 24.4219 12.1406 26.2031
Q8.40625 27.9844 6.46875 31.125
Q4.54688 34.2812 4.54688 38.0938
Q4.54688 41.5469 6.125 44.5
Q7.71875 47.4688 10.4531 49.4219
Q12.5 50.9219 16.0312 51.9688
Q19.5781 53.0312 23.6406 53.0312
Q29.7344 53.0312 34.3438 51.2656
Q38.9688 49.5156 41.1562 46.5
Q43.3594 43.5 44.1875 38.4844
L35.5938 37.3125
Q35.0156 41.3125 32.2031 43.5469
Q29.3906 45.7969 24.2656 45.7969
Q18.2188 45.7969 15.625 43.7969
Q13.0312 41.7969 13.0312 39.1094
Q13.0312 37.4062 14.1094 36.0312
Q15.1875 34.625 17.4844 33.6875
Q18.7969 33.2031 25.25 31.4531
Q34.5781 28.9531 38.25 27.3594
Q41.9375 25.7812 44.0312 22.75
Q46.1406 19.7344 46.1406 15.2344
Q46.1406 10.8438 43.5781 6.95312
Q41.0156 3.07812 36.1719 0.953125
Q31.3438 -1.17188 25.25 -1.17188
Q15.1406 -1.17188 9.84375 3.03125
Q4.54688 7.23438 3.07812 15.4844" id="ArialMT-73"/>
      <path d="
M6.59375 0
L6.59375 51.8594
L14.5 51.8594
L14.5 44.4844
Q20.2188 53.0312 31 53.0312
Q35.6875 53.0312 39.625 51.3438
Q43.5625 49.6562 45.5156 46.9219
Q47.4688 44.1875 48.25 40.4375
Q48.7344 37.9844 48.7344 31.8906
L48.7344 0
L39.9375 0
L39.9375 31.5469
Q39.9375 36.9219 38.9062 39.5781
Q37.8906 42.2344 35.2812 43.8125
Q32.6719 45.4062 29.1562 45.4062
Q23.5312 45.4062 19.4531 41.8438
Q15.375 38.2812 15.375 28.3281
L15.375 0
z
" id="ArialMT-6e"/>
      <path d="
M6.5 0
L6.5 51.8594
L14.4062 51.8594
L14.4062 44
Q17.4375 49.5156 20 51.2656
Q22.5625 53.0312 25.6406 53.0312
Q30.0781 53.0312 34.6719 50.2031
L31.6406 42.0469
Q28.4219 43.9531 25.2031 43.9531
Q22.3125 43.9531 20.0156 42.2188
Q17.7188 40.4844 16.75 37.4062
Q15.2812 32.7188 15.2812 27.1562
L15.2812 0
z
" id="ArialMT-72"/>
      <path d="
M42.0938 16.7031
L51.1719 15.5781
Q49.0312 7.625 43.2188 3.21875
Q37.4062 -1.17188 28.375 -1.17188
Q17 -1.17188 10.3281 5.82812
Q3.65625 12.8438 3.65625 25.4844
Q3.65625 38.5781 10.3906 45.7969
Q17.1406 53.0312 27.875 53.0312
Q38.2812 53.0312 44.875 45.9531
Q51.4688 38.875 51.4688 26.0312
Q51.4688 25.25 51.4219 23.6875
L12.75 23.6875
Q13.2344 15.1406 17.5781 10.5938
Q21.9219 6.0625 28.4219 6.0625
Q33.25 6.0625 36.6719 8.59375
Q40.0938 11.1406 42.0938 16.7031
M13.2344 30.9062
L42.1875 30.9062
Q41.6094 37.4531 38.875 40.7188
Q34.6719 45.7969 27.9844 45.7969
Q21.9219 45.7969 17.7969 41.75
Q13.6719 37.7031 13.2344 30.9062" id="ArialMT-65"/>
     </defs>
     <g style="fill:#262626;" transform="translate(15.07359375 124.23671875)rotate(-90.0)scale(0.11 -0.11)">
      <use xlink:href="#ArialMT-45"/>
      <use x="66.69921875" xlink:href="#ArialMT-78"/>
      <use x="116.69921875" xlink:href="#ArialMT-70"/>
      <use x="172.314453125" xlink:href="#ArialMT-72"/>
      <use x="205.615234375" xlink:href="#ArialMT-65"/>
      <use x="261.23046875" xlink:href="#ArialMT-73"/>
      <use x="311.23046875" xlink:href="#ArialMT-73"/>
      <use x="361.23046875" xlink:href="#ArialMT-69"/>
      <use x="383.447265625" xlink:href="#ArialMT-6f"/>
      <use x="439.0625" xlink:href="#ArialMT-6e"/>
     </g>
    </g>
   </g>
   <g id="line2d_13">
    <path clip-path="url(#p2fc4386486)" d="
M54.0442 152.107
L63.0625 147.574
L72.0807 146.083
L81.099 151.6
L90.1173 146.774
L99.1355 136.926
L108.154 139.103
L117.172 146.59
L126.19 135.303
L135.209 120.377
L144.227 98.7216
L153.245 89.1397
L162.263 63.3088
L171.282 69.0833
L180.3 80.6271
L189.318 80.8581
L198.336 88.3275
L207.355 82.8725
L216.373 54.4928
L225.391 49.4714
L234.409 57.1224
L243.428 76.4486
L252.446 68.0485
L261.464 62.8948" style="fill:none;stroke:#d9544d;stroke-linecap:round;"/>
   </g>
   <g id="line2d_14">
    <path clip-path="url(#p2fc4386486)" d="
M54.0442 147.38
L63.0625 144.862
L72.0807 147.656
L81.099 143.931
L90.1173 137.115
L99.1355 140.977
L108.154 138.401
L117.172 136.198
L126.19 135.914
L135.209 145.345
L144.227 122.424
L153.245 101.111
L162.263 69.1298
L171.282 56.1782
L180.3 64.3808
L189.318 67.3581
L198.336 72.9362
L207.355 77.7944
L216.373 67.9778
L225.391 65.2037
L234.409 68.1949
L243.428 70.9942
L252.446 61.9995
L261.464 60.3931" style="fill:none;stroke:#d9544d;stroke-linecap:round;"/>
   </g>
   <g id="line2d_15">
    <path clip-path="url(#p2fc4386486)" d="
M54.0442 145.252
L63.0625 147.493
L72.0807 148.762
L81.099 147.785
L90.1173 147.584
L99.1355 145.47
L108.154 146.891
L117.172 144.029
L126.19 133.086
L135.209 121.917
L144.227 96.2492
L153.245 82.8786
L162.263 59.4815
L171.282 51.1703
L180.3 56.9164
L189.318 60.6973
L198.336 68.5622
L207.355 76.197
L216.373 67.9453
L225.391 72.742
L234.409 82.8779
L243.428 88.5377
L252.446 77.6394
L261.464 73.6896" style="fill:none;stroke:#d9544d;stroke-linecap:round;"/>
   </g>
   <g id="line2d_16">
    <path clip-path="url(#p2fc4386486)" d="
M54.0442 155.383
L63.0625 151.07
L72.0807 149.455
L81.099 147.067
L90.1173 150.677
L99.1355 149.391
L108.154 145.015
L117.172 142.229
L126.19 129.38
L135.209 108.459
L144.227 79.1614
L153.245 68.34
L162.263 52.7532
L171.282 62.6357
L180.3 78.2683
L189.318 72.0621
L198.336 77.5835
L207.355 84.7791
L216.373 81.2793
L225.391 81.3117
L234.409 74.7738
L243.428 71.3372
L252.446 70.0194
L261.464 61.4237" style="fill:none;stroke:#d9544d;stroke-linecap:round;"/>
   </g>
   <g id="line2d_17">
    <path clip-path="url(#p2fc4386486)" d="
M54.0442 105.216
L63.0625 127.548
L72.0807 143.743
L81.099 141.988
L90.1173 142.037
L99.1355 145.112
L108.154 145.847
L117.172 143.141
L126.19 140.469
L135.209 143.209
L144.227 133.847
L153.245 115.879
L162.263 76.0371
L171.282 53.926
L180.3 43.4145
L189.318 49.306
L198.336 62.4242
L207.355 87.2998
L216.373 88.5343
L225.391 67.4775
L234.409 67.293
L243.428 74.5417
L252.446 64.9105
L261.464 80.6533" style="fill:none;stroke:#d9544d;stroke-linecap:round;"/>
   </g>
   <g id="line2d_18">
    <path clip-path="url(#p2fc4386486)" d="
M54.0442 154.43
L63.0625 147.142
L72.0807 146.924
L81.099 144.845
L90.1173 146.73
L99.1355 144.594
L108.154 142.713
L117.172 137.169
L126.19 136.401
L135.209 127.695
L144.227 107.72
L153.245 88.0169
L162.263 62.2176
L171.282 55.2125
L180.3 58.9118
L189.318 63.4601
L198.336 70.7823
L207.355 75.2161
L216.373 66.3879
L225.391 69.1308
L234.409 74.6322
L243.428 75.3206
L252.446 71.641
L261.464 76.5617" style="fill:none;stroke:#d9544d;stroke-linecap:round;"/>
   </g>
   <g id="line2d_19">
    <path clip-path="url(#p2fc4386486)" d="
M54.0442 153.442
L63.0625 147.747
L72.0807 146.045
L81.099 144.772
L90.1173 149.079
L99.1355 148.358
L108.154 143.16
L117.172 138.18
L126.19 135.118
L135.209 124.647
L144.227 102.826
L153.245 92.8114
L162.263 68.8265
L171.282 56.6757
L180.3 62.4593
L189.318 65.2867
L198.336 69.0947
L207.355 76.1639
L216.373 73.3421
L225.391 70.9082
L234.409 69.6484
L243.428 68.2834
L252.446 68.1888
L261.464 68.7917" style="fill:none;stroke:#d9544d;stroke-linecap:round;"/>
   </g>
   <g id="line2d_20">
    <path clip-path="url(#p2fc4386486)" d="
M54.0442 145.203
L63.0625 144.446
L72.0807 149.888
L81.099 150.169
L90.1173 146.324
L99.1355 143.371
L108.154 144.736
L117.172 146.635
L126.19 136.33
L135.209 123.085
L144.227 105.447
L153.245 90.8134
L162.263 72.0542
L171.282 62.8435
L180.3 63.7403
L189.318 63.4039
L198.336 70.1341
L207.355 76.4243
L216.373 66.1813
L225.391 67.8261
L234.409 73.113
L243.428 74.5221
L252.446 67.0404
L261.464 60.1247" style="fill:none;stroke:#d9544d;stroke-linecap:round;"/>
   </g>
   <g id="line2d_21">
    <path clip-path="url(#p2fc4386486)" d="
M54.0442 126.205
L63.0625 131.505
L72.0807 137.618
L81.099 138.022
L90.1173 137.904
L99.1355 142.581
L108.154 148.776
L117.172 148.606
L126.19 149.398
L135.209 146.462
L144.227 127.42
L153.245 101.45
L162.263 67.4356
L171.282 49.783
L180.3 56.1762
L189.318 57.9334
L198.336 69.587
L207.355 82.8695
L216.373 66.1344
L225.391 65.5924
L234.409 75.3164
L243.428 79.514
L252.446 69.6067
L261.464 67.9598" style="fill:none;stroke:#d9544d;stroke-linecap:round;"/>
   </g>
   <g id="line2d_22">
    <path clip-path="url(#p2fc4386486)" d="
M54.0442 132.108
L63.0625 136.424
L72.0807 140.559
L81.099 144.805
L90.1173 147.41
L99.1355 147.858
L108.154 147.873
L117.172 144.693
L126.19 145.86
L135.209 137.059
L144.227 116.197
L153.245 96.7068
L162.263 72.3798
L171.282 63.2491
L180.3 64.0758
L189.318 62.263
L198.336 67.497
L207.355 76.265
L216.373 68.9531
L225.391 66.1437
L234.409 66.8088
L243.428 68.332
L252.446 63.0759
L261.464 67.2598" style="fill:none;stroke:#d9544d;stroke-linecap:round;"/>
   </g>
   <g id="line2d_23">
    <path clip-path="url(#p2fc4386486)" d="
M54.0442 146.197
L63.0625 145.695
L72.0807 155.212
L81.099 158.135
L90.1173 154.336
L99.1355 150.053
L108.154 144.962
L117.172 139.007
L126.19 125.714
L135.209 107.215
L144.227 86.4926
L153.245 79.7937
L162.263 61.1333
L171.282 57.3999
L180.3 62.9619
L189.318 68.4665
L198.336 74.1288
L207.355 77.3903
L216.373 71.6619
L225.391 76.3676
L234.409 78.196
L243.428 80.8667
L252.446 71.0594
L261.464 71.4105" style="fill:none;stroke:#d9544d;stroke-linecap:round;"/>
   </g>
   <g id="line2d_24">
    <path clip-path="url(#p2fc4386486)" d="
M54.0442 126.388
L63.0625 129.24
L72.0807 142.293
L81.099 153.883
L90.1173 157.056
L99.1355 148.242
L108.154 146.233
L117.172 146.123
L126.19 138.863
L135.209 132.507
L144.227 107.052
L153.245 93.445
L162.263 67.7664
L171.282 64.0752
L180.3 68.7621
L189.318 75.6062
L198.336 85.1579
L207.355 77.5002
L216.373 52.178
L225.391 57.3839
L234.409 70.2013
L243.428 80.5399
L252.446 61.1545
L261.464 62.2028" style="fill:none;stroke:#d9544d;stroke-linecap:round;"/>
   </g>
   <g id="line2d_25">
    <path clip-path="url(#p2fc4386486)" d="
M54.0442 115.319
L63.0625 130.495
L72.0807 141.529
L81.099 143.86
L90.1173 147.595
L99.1355 153.722
L108.154 155.486
L117.172 152.143
L126.19 147.827
L135.209 130.771
L144.227 112.187
L153.245 90.8913
L162.263 62.1258
L171.282 55.8944
L180.3 58.3727
L189.318 65.9443
L198.336 72.0773
L207.355 79.3323
L216.373 71.0087
L225.391 68.7529
L234.409 71.5748
L243.428 70.251
L252.446 68.4763
L261.464 78.2175" style="fill:none;stroke:#d9544d;stroke-linecap:round;"/>
   </g>
   <g id="line2d_26">
    <path clip-path="url(#p2fc4386486)" d="
M54.0442 122.747
L63.0625 125.614
L72.0807 138.833
L81.099 150.54
L90.1173 144.992
L99.1355 139.096
L108.154 144.783
L117.172 151.617
L126.19 140.082
L135.209 124.637
L144.227 100.738
L153.245 73.5161
L162.263 32.3592
L171.282 33.9676
L180.3 49.4982
L189.318 49.8695
L198.336 77.1861
L207.355 96.7216
L216.373 95.3636
L225.391 97.4875
L234.409 93.2736
L243.428 97.9817
L252.446 84.4366
L261.464 78.5147" style="fill:none;stroke:#d9544d;stroke-linecap:round;"/>
   </g>
   <g id="line2d_27">
    <path clip-path="url(#p2fc4386486)" d="
M54.0442 150.562
L63.0625 140.556
L72.0807 141.336
L81.099 144.912
L90.1173 144.713
L99.1355 142.089
L108.154 142.108
L117.172 136.042
L126.19 129.072
L135.209 129.618
L144.227 118.772
L153.245 87.999
L162.263 44.4188
L171.282 39.7167
L180.3 49.2284
L189.318 52.1248
L198.336 67.4943
L207.355 86.4932
L216.373 81.1211
L225.391 80.8344
L234.409 86.3418
L243.428 89.1841
L252.446 78.7273
L261.464 80.392" style="fill:none;stroke:#d9544d;stroke-linecap:round;"/>
   </g>
   <g id="line2d_28">
    <path clip-path="url(#p2fc4386486)" d="
M54.0442 149.21
L63.0625 139.043
L72.0807 147.774
L81.099 159.48
L90.1173 156.226
L99.1355 143.911
L108.154 143.044
L117.172 140.031
L126.19 124.766
L135.209 107.004
L144.227 90.0187
L153.245 79.9233
L162.263 42.0456
L171.282 42.7368
L180.3 57.1416
L189.318 68.7888
L198.336 79.7417
L207.355 85.3719
L216.373 79.1909
L225.391 82.798
L234.409 79.7373
L243.428 80.6271
L252.446 79.7092
L261.464 85.5343" style="fill:none;stroke:#d9544d;stroke-linecap:round;"/>
   </g>
   <g id="line2d_29">
    <path clip-path="url(#p2fc4386486)" d="
M54.0442 142.661
L63.0625 138.4
L72.0807 144.76
L81.099 153.715
L90.1173 160.476
L99.1355 149.255
L108.154 149.275
L117.172 137.654
L126.19 119.499
L135.209 105.476
L144.227 73.2465
L153.245 65.2384
L162.263 46.6532
L171.282 44.24
L180.3 56.3472
L189.318 62.35
L198.336 76.218
L207.355 99.5209
L216.373 91.7539
L225.391 88.6375
L234.409 94.0674
L243.428 90.7701
L252.446 77.8514
L261.464 75.7888" style="fill:none;stroke:#d9544d;stroke-linecap:round;"/>
   </g>
   <g id="line2d_30">
    <path clip-path="url(#p2fc4386486)" d="
M54.0442 137.148
L63.0625 137.539
L72.0807 140.758
L81.099 143.057
L90.1173 146.362
L99.1355 148.181
L108.154 150.491
L117.172 146.348
L126.19 144.551
L135.209 133.087
L144.227 110.409
L153.245 90.7778
L162.263 66.6
L171.282 55.932
L180.3 57.8174
L189.318 59.838
L198.336 68.2562
L207.355 79.5799
L216.373 75.8287
L225.391 71.1939
L234.409 73.2069
L243.428 74.3394
L252.446 66.4778
L261.464 66.0754" style="fill:none;stroke:#d9544d;stroke-linecap:round;"/>
   </g>
   <g id="patch_3">
    <path d="
M54.0442 174.898
L54.0442 20.7894" style="fill:none;stroke:#262626;stroke-linecap:square;stroke-linejoin:miter;stroke-width:1.25;"/>
   </g>
   <g id="patch_4">
    <path d="
M54.0442 174.898
L261.464 174.898" style="fill:none;stroke:#262626;stroke-linecap:square;stroke-linejoin:miter;stroke-width:1.25;"/>
   </g>
   <g id="text_14">
    <!-- Botrytis -->
    <defs>
     <path d="
M7.32812 0
L7.32812 71.5781
L34.1875 71.5781
Q42.3906 71.5781 47.3438 69.4062
Q52.2969 67.2344 55.0938 62.7188
Q57.9062 58.2031 57.9062 53.2656
Q57.9062 48.6875 55.4219 44.625
Q52.9375 40.5781 47.9062 38.0938
Q54.3906 36.1875 57.875 31.5938
Q61.375 27 61.375 20.75
Q61.375 15.7188 59.25 11.3906
Q57.125 7.07812 54 4.73438
Q50.875 2.39062 46.1562 1.1875
Q41.4531 0 34.625 0
z

M16.7969 41.5
L32.2812 41.5
Q38.5781 41.5 41.3125 42.3281
Q44.9219 43.4062 46.75 45.8906
Q48.5781 48.3906 48.5781 52.1562
Q48.5781 55.7188 46.875 58.4219
Q45.1719 61.1406 41.9844 62.1406
Q38.8125 63.1406 31.1094 63.1406
L16.7969 63.1406
z

M16.7969 8.45312
L34.625 8.45312
Q39.2031 8.45312 41.0625 8.79688
Q44.3438 9.375 46.5312 10.7344
Q48.7344 12.1094 50.1406 14.7188
Q51.5625 17.3281 51.5625 20.75
Q51.5625 24.75 49.5156 27.7031
Q47.4688 30.6719 43.8281 31.8594
Q40.1875 33.0625 33.3438 33.0625
L16.7969 33.0625
z
" id="ArialMT-42"/>
     <path d="
M6.20312 -19.9688
L5.21875 -11.7188
Q8.10938 -12.5 10.25 -12.5
Q13.1875 -12.5 14.9375 -11.5156
Q16.7031 -10.5469 17.8281 -8.79688
Q18.6562 -7.46875 20.5156 -2.25
Q20.75 -1.51562 21.2969 -0.09375
L1.60938 51.8594
L11.0781 51.8594
L21.875 21.8281
Q23.9688 16.1094 25.6406 9.8125
Q27.1562 15.875 29.25 21.625
L40.3281 51.8594
L49.125 51.8594
L29.3906 -0.875
Q26.2188 -9.42188 24.4688 -12.6406
Q22.125 -17 19.0938 -19.0156
Q16.0625 -21.0469 11.8594 -21.0469
Q9.32812 -21.0469 6.20312 -19.9688" id="ArialMT-79"/>
     <path d="
M25.7812 7.85938
L27.0469 0.09375
Q23.3438 -0.6875 20.4062 -0.6875
Q15.625 -0.6875 12.9844 0.828125
Q10.3594 2.34375 9.28125 4.8125
Q8.20312 7.28125 8.20312 15.1875
L8.20312 45.0156
L1.76562 45.0156
L1.76562 51.8594
L8.20312 51.8594
L8.20312 64.7031
L16.9375 69.9688
L16.9375 51.8594
L25.7812 51.8594
L25.7812 45.0156
L16.9375 45.0156
L16.9375 14.7031
Q16.9375 10.9375 17.4062 9.85938
Q17.875 8.79688 18.9219 8.15625
Q19.9688 7.51562 21.9219 7.51562
Q23.3906 7.51562 25.7812 7.85938" id="ArialMT-74"/>
    </defs>
    <g style="fill:#262626;" transform="translate(138.42203125 15.789375)scale(0.12 -0.12)">
     <use xlink:href="#ArialMT-42"/>
     <use x="66.69921875" xlink:href="#ArialMT-6f"/>
     <use x="122.314453125" xlink:href="#ArialMT-74"/>
     <use x="150.09765625" xlink:href="#ArialMT-72"/>
     <use x="183.3984375" xlink:href="#ArialMT-79"/>
     <use x="233.3984375" xlink:href="#ArialMT-74"/>
     <use x="261.181640625" xlink:href="#ArialMT-69"/>
     <use x="283.3984375" xlink:href="#ArialMT-73"/>
    </g>
   </g>
  </g>
  <g id="axes_2">
   <g id="patch_5">
    <path d="
M274.424 174.898
L481.844 174.898
L481.844 20.7894
L274.424 20.7894
z
" style="fill:#ffffff;"/>
   </g>
   <g id="matplotlib.axis_3">
    <g id="xtick_5">
     <g id="line2d_31">
      <g>
       <use style="fill:#262626;stroke:#262626;" x="284.79521875" xlink:href="#me1deecec79" y="174.8978125"/>
      </g>
     </g>
     <g id="text_15">
      <!-- 20 -->
      <g style="fill:#262626;" transform="translate(279.62021875 195.055625)scale(0.1 -0.1)">
       <use xlink:href="#ArialMT-32"/>
       <use x="55.615234375" xlink:href="#ArialMT-30"/>
      </g>
     </g>
    </g>
    <g id="xtick_6">
     <g id="line2d_32">
      <g>
       <use style="fill:#262626;stroke:#262626;" x="336.65021875" xlink:href="#me1deecec79" y="174.8978125"/>
      </g>
     </g>
     <g id="text_16">
      <!-- 25 -->
      <g style="fill:#262626;" transform="translate(331.43615625 195.055625)scale(0.1 -0.1)">
       <use xlink:href="#ArialMT-32"/>
       <use x="55.615234375" xlink:href="#ArialMT-35"/>
      </g>
     </g>
    </g>
    <g id="xtick_7">
     <g id="line2d_33">
      <g>
       <use style="fill:#262626;stroke:#262626;" x="388.50521875" xlink:href="#me1deecec79" y="174.8978125"/>
      </g>
     </g>
     <g id="text_17">
      <!-- 30 -->
      <g style="fill:#262626;" transform="translate(383.3935 195.055625)scale(0.1 -0.1)">
       <use xlink:href="#ArialMT-33"/>
       <use x="55.615234375" xlink:href="#ArialMT-30"/>
      </g>
     </g>
    </g>
    <g id="xtick_8">
     <g id="line2d_34">
      <g>
       <use style="fill:#262626;stroke:#262626;" x="440.36021875" xlink:href="#me1deecec79" y="174.8978125"/>
      </g>
     </g>
     <g id="text_18">
      <!-- 35 -->
      <g style="fill:#262626;" transform="translate(435.2094375 195.055625)scale(0.1 -0.1)">
       <use xlink:href="#ArialMT-33"/>
       <use x="55.615234375" xlink:href="#ArialMT-35"/>
      </g>
     </g>
    </g>
   </g>
   <g id="matplotlib.axis_4">
    <g id="ytick_9">
     <g id="line2d_35">
      <g>
       <use style="fill:#262626;stroke:#262626;" x="274.42421875" xlink:href="#m4aded61697" y="157.43110284"/>
      </g>
     </g>
    </g>
    <g id="ytick_10">
     <g id="line2d_36">
      <g>
       <use style="fill:#262626;stroke:#262626;" x="274.42421875" xlink:href="#m4aded61697" y="138.896492973"/>
      </g>
     </g>
    </g>
    <g id="ytick_11">
     <g id="line2d_37">
      <g>
       <use style="fill:#262626;stroke:#262626;" x="274.42421875" xlink:href="#m4aded61697" y="120.361883106"/>
      </g>
     </g>
    </g>
    <g id="ytick_12">
     <g id="line2d_38">
      <g>
       <use style="fill:#262626;stroke:#262626;" x="274.42421875" xlink:href="#m4aded61697" y="101.82727324"/>
      </g>
     </g>
    </g>
    <g id="ytick_13">
     <g id="line2d_39">
      <g>
       <use style="fill:#262626;stroke:#262626;" x="274.42421875" xlink:href="#m4aded61697" y="83.2926633732"/>
      </g>
     </g>
    </g>
    <g id="ytick_14">
     <g id="line2d_40">
      <g>
       <use style="fill:#262626;stroke:#262626;" x="274.42421875" xlink:href="#m4aded61697" y="64.7580535065"/>
      </g>
     </g>
    </g>
    <g id="ytick_15">
     <g id="line2d_41">
      <g>
       <use style="fill:#262626;stroke:#262626;" x="274.42421875" xlink:href="#m4aded61697" y="46.2234436398"/>
      </g>
     </g>
    </g>
    <g id="ytick_16">
     <g id="line2d_42">
      <g>
       <use style="fill:#262626;stroke:#262626;" x="274.42421875" xlink:href="#m4aded61697" y="27.6888337732"/>
      </g>
     </g>
    </g>
   </g>
   <g id="line2d_43">
    <path clip-path="url(#p5d6dd64791)" d="
M274.424 110.52
L295.166 124.3
L315.908 163.374
L336.65 141.601
L357.392 122.269
L378.134 114.699
L398.876 100.11
L419.618 78.6101
L440.36 59.5652
L461.102 55.5243
L481.844 49.5279" style="fill:none;stroke:#03012d;stroke-linecap:round;"/>
   </g>
   <g id="line2d_44">
    <path clip-path="url(#p5d6dd64791)" d="
M274.424 126.444
L295.166 138.593
L315.908 137.46
L336.65 129.007
L357.392 130.489
L378.134 121.063
L398.876 102.033
L419.618 84.0028
L440.36 64.5661
L461.102 45.2545
L481.844 41.1883" style="fill:none;stroke:#03012d;stroke-linecap:round;"/>
   </g>
   <g id="line2d_45">
    <path clip-path="url(#p5d6dd64791)" d="
M274.424 136.884
L295.166 144.761
L315.908 143.462
L336.65 133.128
L357.392 129.996
L378.134 108.291
L398.876 76.0979
L419.618 64.9946
L440.36 64.1106
L461.102 63.8246
L481.844 54.5499" style="fill:none;stroke:#03012d;stroke-linecap:round;"/>
   </g>
   <g id="line2d_46">
    <path clip-path="url(#p5d6dd64791)" d="
M274.424 156.796
L295.166 156.717
L315.908 133.828
L336.65 105.98
L357.392 116.24
L378.134 111.157
L398.876 87.1689
L419.618 66.6907
L440.36 65.6275
L461.102 67.1277
L481.844 52.7671" style="fill:none;stroke:#03012d;stroke-linecap:round;"/>
   </g>
   <g id="line2d_47">
    <path clip-path="url(#p5d6dd64791)" d="
M274.424 121.863
L295.166 132.232
L315.908 111.167
L336.65 97.7755
L357.392 125.92
L378.134 144.188
L398.876 129.244
L419.618 109.464
L440.36 72.8816
L461.102 43.1565
L481.844 32.2087" style="fill:none;stroke:#03012d;stroke-linecap:round;"/>
   </g>
   <g id="line2d_48">
    <path clip-path="url(#p5d6dd64791)" d="
M274.424 137.634
L295.166 128.08
L315.908 119.936
L336.65 124.226
L357.392 135.462
L378.134 128.947
L398.876 107.004
L419.618 92.1806
L440.36 67.7638
L461.102 41.3434
L481.844 37.5228" style="fill:none;stroke:#03012d;stroke-linecap:round;"/>
   </g>
   <g id="line2d_49">
    <path clip-path="url(#p5d6dd64791)" d="
M274.424 151.102
L295.166 149.295
L315.908 138.276
L336.65 121.523
L357.392 121.382
L378.134 107.367
L398.876 82.7806
L419.618 71.8159
L440.36 66.8861
L461.102 58.7241
L481.844 50.9501" style="fill:none;stroke:#03012d;stroke-linecap:round;"/>
   </g>
   <g id="line2d_50">
    <path clip-path="url(#p5d6dd64791)" d="
M274.424 120.606
L295.166 139.334
L315.908 145.2
L336.65 139.694
L357.392 138.165
L378.134 112.667
L398.876 80.6743
L419.618 68.3868
L440.36 62.1442
L461.102 56.3773
L481.844 56.8523" style="fill:none;stroke:#03012d;stroke-linecap:round;"/>
   </g>
   <g id="line2d_51">
    <path clip-path="url(#p5d6dd64791)" d="
M274.424 107.215
L295.166 120.374
L315.908 127.126
L336.65 130.947
L357.392 145.628
L378.134 136.234
L398.876 108.992
L419.618 94.0557
L440.36 68.2126
L461.102 45.7932
L481.844 35.5218" style="fill:none;stroke:#03012d;stroke-linecap:round;"/>
   </g>
   <g id="line2d_52">
    <path clip-path="url(#p5d6dd64791)" d="
M274.424 147.782
L295.166 152.344
L315.908 135.516
L336.65 123.846
L357.392 124.434
L378.134 107.916
L398.876 81.7587
L419.618 64.7329
L440.36 63.6448
L461.102 61.8198
L481.844 56.3048" style="fill:none;stroke:#03012d;stroke-linecap:round;"/>
   </g>
   <g id="line2d_53">
    <path clip-path="url(#p5d6dd64791)" d="
M274.424 107.04
L295.166 128.242
L315.908 131.791
L336.65 123.31
L357.392 136.506
L378.134 135.776
L398.876 112.371
L419.618 95.4996
L440.36 73.4037
L461.102 48.4566
L481.844 27.7034" style="fill:none;stroke:#03012d;stroke-linecap:round;"/>
   </g>
   <g id="line2d_54">
    <path clip-path="url(#p5d6dd64791)" d="
M274.424 151.148
L295.166 154.123
L315.908 153.595
L336.65 123.749
L357.392 101.822
L378.134 82.8568
L398.876 64.7472
L419.618 62.5871
L440.36 75.1548
L461.102 76.7328
L481.844 73.5846" style="fill:none;stroke:#03012d;stroke-linecap:round;"/>
   </g>
   <g id="line2d_55">
    <path clip-path="url(#p5d6dd64791)" d="
M274.424 140.266
L295.166 139.613
L315.908 124.997
L336.65 101.497
L357.392 122.203
L378.134 125.264
L398.876 115.231
L419.618 98.9967
L440.36 77.7111
L461.102 47.2028
L481.844 27.1181" style="fill:none;stroke:#03012d;stroke-linecap:round;"/>
   </g>
   <g id="line2d_56">
    <path clip-path="url(#p5d6dd64791)" d="
M274.424 128.104
L295.166 149.939
L315.908 140.514
L336.65 128.481
L357.392 132.536
L378.134 115.958
L398.876 80.8799
L419.618 54.0599
L440.36 61.8252
L461.102 73.6182
L481.844 54.1844" style="fill:none;stroke:#03012d;stroke-linecap:round;"/>
   </g>
   <g id="line2d_57">
    <path clip-path="url(#p5d6dd64791)" d="
M274.424 135.914
L295.166 144.005
L315.908 135.028
L336.65 123.258
L357.392 128.256
L378.134 118.947
L398.876 98.6769
L419.618 77.2072
L440.36 66.2253
L461.102 56.1706
L481.844 36.4119" style="fill:none;stroke:#03012d;stroke-linecap:round;"/>
   </g>
   <g id="line2d_58">
    <path clip-path="url(#p5d6dd64791)" d="
M274.424 137.72
L295.166 146.176
L315.908 143.299
L336.65 124.822
L357.392 122.76
L378.134 118.31
L398.876 88.2912
L419.618 68.7626
L440.36 63.8359
L461.102 58.1386
L481.844 47.9843" style="fill:none;stroke:#03012d;stroke-linecap:round;"/>
   </g>
   <g id="line2d_59">
    <path clip-path="url(#p5d6dd64791)" d="
M274.424 118.647
L295.166 125.876
L315.908 131.406
L336.65 139.875
L357.392 153.44
L378.134 125.098
L398.876 83.1816
L419.618 64.8943
L440.36 66.5937
L461.102 63.1153
L481.844 47.9726" style="fill:none;stroke:#03012d;stroke-linecap:round;"/>
   </g>
   <g id="line2d_60">
    <path clip-path="url(#p5d6dd64791)" d="
M274.424 144.892
L295.166 142.015
L315.908 121.139
L336.65 116.08
L357.392 128.734
L378.134 120.898
L398.876 102.786
L419.618 92.8022
L440.36 69.1173
L461.102 43.204
L481.844 38.4324" style="fill:none;stroke:#03012d;stroke-linecap:round;"/>
   </g>
   <g id="patch_6">
    <path d="
M274.424 174.898
L274.424 20.7894" style="fill:none;stroke:#262626;stroke-linecap:square;stroke-linejoin:miter;stroke-width:1.25;"/>
   </g>
   <g id="patch_7">
    <path d="
M274.424 174.898
L481.844 174.898" style="fill:none;stroke:#262626;stroke-linecap:square;stroke-linejoin:miter;stroke-width:1.25;"/>
   </g>
   <g id="text_19">
    <!-- Senescence -->
    <defs>
     <path d="
M4.5 23
L13.4219 23.7812
Q14.0625 18.4062 16.375 14.9688
Q18.7031 11.5312 23.5781 9.40625
Q28.4688 7.28125 34.5781 7.28125
Q39.9844 7.28125 44.1406 8.89062
Q48.2969 10.5 50.3125 13.2969
Q52.3438 16.1094 52.3438 19.4375
Q52.3438 22.7969 50.3906 25.3125
Q48.4375 27.8281 43.9531 29.5469
Q41.0625 30.6719 31.2031 33.0312
Q21.3438 35.4062 17.3906 37.5
Q12.25 40.1875 9.73438 44.1562
Q7.23438 48.1406 7.23438 53.0781
Q7.23438 58.5 10.2969 63.2031
Q13.375 67.9219 19.2812 70.3594
Q25.2031 72.7969 32.4219 72.7969
Q40.375 72.7969 46.4531 70.2344
Q52.5469 67.6719 55.8125 62.6875
Q59.0781 57.7188 59.3281 51.4219
L50.25 50.7344
Q49.5156 57.5156 45.2812 60.9844
Q41.0625 64.4531 32.8125 64.4531
Q24.2188 64.4531 20.2812 61.2969
Q16.3594 58.1562 16.3594 53.7188
Q16.3594 49.8594 19.1406 47.3594
Q21.875 44.875 33.4219 42.2656
Q44.9688 39.6562 49.2656 37.7031
Q55.5156 34.8125 58.4844 30.3906
Q61.4688 25.9844 61.4688 20.2188
Q61.4688 14.5 58.2031 9.4375
Q54.9375 4.39062 48.7969 1.57812
Q42.6719 -1.21875 35.0156 -1.21875
Q25.2969 -1.21875 18.7188 1.60938
Q12.1562 4.4375 8.42188 10.125
Q4.6875 15.8281 4.5 23" id="ArialMT-53"/>
     <path d="
M40.4375 19
L49.0781 17.875
Q47.6562 8.9375 41.8125 3.875
Q35.9844 -1.17188 27.4844 -1.17188
Q16.8438 -1.17188 10.375 5.78125
Q3.90625 12.75 3.90625 25.7344
Q3.90625 34.125 6.6875 40.4219
Q9.46875 46.7344 15.1562 49.875
Q20.8438 53.0312 27.5469 53.0312
Q35.9844 53.0312 41.3594 48.75
Q46.7344 44.4844 48.25 36.625
L39.7031 35.2969
Q38.4844 40.5312 35.375 43.1562
Q32.2812 45.7969 27.875 45.7969
Q21.2344 45.7969 17.0781 41.0312
Q12.9375 36.2812 12.9375 25.9844
Q12.9375 15.5312 16.9375 10.7969
Q20.9531 6.0625 27.3906 6.0625
Q32.5625 6.0625 36.0312 9.23438
Q39.5 12.4062 40.4375 19" id="ArialMT-63"/>
    </defs>
    <g style="fill:#262626;" transform="translate(345.63109375 15.789375)scale(0.12 -0.12)">
     <use xlink:href="#ArialMT-53"/>
     <use x="66.69921875" xlink:href="#ArialMT-65"/>
     <use x="122.314453125" xlink:href="#ArialMT-6e"/>
     <use x="177.9296875" xlink:href="#ArialMT-65"/>
     <use x="233.544921875" xlink:href="#ArialMT-73"/>
     <use x="283.544921875" xlink:href="#ArialMT-63"/>
     <use x="333.544921875" xlink:href="#ArialMT-65"/>
     <use x="389.16015625" xlink:href="#ArialMT-6e"/>
     <use x="444.775390625" xlink:href="#ArialMT-63"/>
     <use x="494.775390625" xlink:href="#ArialMT-65"/>
    </g>
   </g>
  </g>
  <g id="axes_3">
   <g id="patch_8">
    <path d="
M494.804 174.898
L702.224 174.898
L702.224 20.7894
L494.804 20.7894
z
" style="fill:#ffffff;"/>
   </g>
   <g id="matplotlib.axis_5">
    <g id="xtick_9">
     <g id="line2d_61">
      <g>
       <use style="fill:#262626;stroke:#262626;" x="534.522942154" xlink:href="#me1deecec79" y="174.8978125"/>
      </g>
     </g>
     <g id="text_20">
      <!-- 5 -->
      <g style="fill:#262626;" transform="translate(532.150285904 195.055625)scale(0.1 -0.1)">
       <use xlink:href="#ArialMT-35"/>
      </g>
     </g>
    </g>
    <g id="xtick_10">
     <g id="line2d_62">
      <g>
       <use style="fill:#262626;stroke:#262626;" x="578.654857048" xlink:href="#me1deecec79" y="174.8978125"/>
      </g>
     </g>
     <g id="text_21">
      <!-- 10 -->
      <g style="fill:#262626;" transform="translate(573.877513298 195.055625)scale(0.1 -0.1)">
       <use xlink:href="#ArialMT-31"/>
       <use x="55.615234375" xlink:href="#ArialMT-30"/>
      </g>
     </g>
    </g>
    <g id="xtick_11">
     <g id="line2d_63">
      <g>
       <use style="fill:#262626;stroke:#262626;" x="622.786771941" xlink:href="#me1deecec79" y="174.8978125"/>
      </g>
     </g>
     <g id="text_22">
      <!-- 15 -->
      <g style="fill:#262626;" transform="translate(617.970365691 195.055625)scale(0.1 -0.1)">
       <use xlink:href="#ArialMT-31"/>
       <use x="55.615234375" xlink:href="#ArialMT-35"/>
      </g>
     </g>
    </g>
    <g id="xtick_12">
     <g id="line2d_64">
      <g>
       <use style="fill:#262626;stroke:#262626;" x="666.918686835" xlink:href="#me1deecec79" y="174.8978125"/>
      </g>
     </g>
     <g id="text_23">
      <!-- 20 -->
      <g style="fill:#262626;" transform="translate(661.743686835 195.055625)scale(0.1 -0.1)">
       <use xlink:href="#ArialMT-32"/>
       <use x="55.615234375" xlink:href="#ArialMT-30"/>
      </g>
     </g>
    </g>
   </g>
   <g id="matplotlib.axis_6">
    <g id="ytick_17">
     <g id="line2d_65">
      <g>
       <use style="fill:#262626;stroke:#262626;" x="494.80421875" xlink:href="#m4aded61697" y="157.43110284"/>
      </g>
     </g>
    </g>
    <g id="ytick_18">
     <g id="line2d_66">
      <g>
       <use style="fill:#262626;stroke:#262626;" x="494.80421875" xlink:href="#m4aded61697" y="138.896492973"/>
      </g>
     </g>
    </g>
    <g id="ytick_19">
     <g id="line2d_67">
      <g>
       <use style="fill:#262626;stroke:#262626;" x="494.80421875" xlink:href="#m4aded61697" y="120.361883106"/>
      </g>
     </g>
    </g>
    <g id="ytick_20">
     <g id="line2d_68">
      <g>
       <use style="fill:#262626;stroke:#262626;" x="494.80421875" xlink:href="#m4aded61697" y="101.82727324"/>
      </g>
     </g>
    </g>
    <g id="ytick_21">
     <g id="line2d_69">
      <g>
       <use style="fill:#262626;stroke:#262626;" x="494.80421875" xlink:href="#m4aded61697" y="83.2926633732"/>
      </g>
     </g>
    </g>
    <g id="ytick_22">
     <g id="line2d_70">
      <g>
       <use style="fill:#262626;stroke:#262626;" x="494.80421875" xlink:href="#m4aded61697" y="64.7580535065"/>
      </g>
     </g>
    </g>
    <g id="ytick_23">
     <g id="line2d_71">
      <g>
       <use style="fill:#262626;stroke:#262626;" x="494.80421875" xlink:href="#m4aded61697" y="46.2234436398"/>
      </g>
     </g>
    </g>
    <g id="ytick_24">
     <g id="line2d_72">
      <g>
       <use style="fill:#262626;stroke:#262626;" x="494.80421875" xlink:href="#m4aded61697" y="27.6888337732"/>
      </g>
     </g>
    </g>
   </g>
   <g id="line2d_73">
    <path clip-path="url(#pb2724296c0)" d="
M494.804 157.416
L499.217 133.989
L516.87 69.7547
L543.349 67.6349
L596.308 78.484
L702.224 103.685" style="fill:none;stroke:#d9544d;stroke-linecap:round;"/>
   </g>
   <g id="line2d_74">
    <path clip-path="url(#pb2724296c0)" d="
M494.804 161.437
L499.217 132.814
L516.87 82.4756
L543.349 67.3133
L596.308 75.8166
L702.224 91.1076" style="fill:none;stroke:#d9544d;stroke-linecap:round;"/>
   </g>
   <g id="line2d_75">
    <path clip-path="url(#pb2724296c0)" d="
M494.804 159.974
L499.217 113.847
L516.87 66.1596
L543.349 60.9046
L596.308 91.2977
L702.224 118.781" style="fill:none;stroke:#d9544d;stroke-linecap:round;"/>
   </g>
   <g id="line2d_76">
    <path clip-path="url(#pb2724296c0)" d="
M494.804 151.868
L499.217 128.946
L516.87 60.5173
L543.349 59.8642
L596.308 96.3685
L702.224 113.399" style="fill:none;stroke:#d9544d;stroke-linecap:round;"/>
   </g>
   <g id="line2d_77">
    <path clip-path="url(#pb2724296c0)" d="
M494.804 159.447
L499.217 120.409
L516.87 104.347
L543.349 48.5175
L596.308 93.2561
L702.224 84.987" style="fill:none;stroke:#d9544d;stroke-linecap:round;"/>
   </g>
   <g id="line2d_78">
    <path clip-path="url(#pb2724296c0)" d="
M494.804 156.065
L499.217 132.003
L516.87 108.783
L543.349 76.004
L596.308 77.8564
L702.224 60.2522" style="fill:none;stroke:#d9544d;stroke-linecap:round;"/>
   </g>
   <g id="line2d_79">
    <path clip-path="url(#pb2724296c0)" d="
M494.804 158.912
L499.217 137.453
L516.87 89.4192
L543.349 69.9434
L596.308 77.9189
L702.224 77.318" style="fill:none;stroke:#d9544d;stroke-linecap:round;"/>
   </g>
   <g id="line2d_80">
    <path clip-path="url(#pb2724296c0)" d="
M494.804 161.514
L499.217 134.52
L516.87 82.6813
L543.349 70.1312
L596.308 79.4074
L702.224 82.7099" style="fill:none;stroke:#d9544d;stroke-linecap:round;"/>
   </g>
   <g id="line2d_81">
    <path clip-path="url(#pb2724296c0)" d="
M494.804 161.048
L499.217 130.051
L516.87 76.5513
L543.349 64.1577
L596.308 79.3548
L702.224 99.8011" style="fill:none;stroke:#d9544d;stroke-linecap:round;"/>
   </g>
   <g id="line2d_82">
    <path clip-path="url(#pb2724296c0)" d="
M494.804 149.736
L499.217 118.828
L516.87 53.4072
L543.349 61.204
L596.308 114.353
L702.224 113.436" style="fill:none;stroke:#d9544d;stroke-linecap:round;"/>
   </g>
   <g id="line2d_83">
    <path clip-path="url(#pb2724296c0)" d="
M494.804 159.438
L499.217 137.577
L516.87 86.1704
L543.349 74.7498
L596.308 79.1426
L702.224 73.8862" style="fill:none;stroke:#d9544d;stroke-linecap:round;"/>
   </g>
   <g id="line2d_84">
    <path clip-path="url(#pb2724296c0)" d="
M494.804 161.142
L499.217 118.549
L516.87 67.2172
L543.349 58.6615
L596.308 100.452
L702.224 104.941" style="fill:none;stroke:#d9544d;stroke-linecap:round;"/>
   </g>
   <g id="line2d_85">
    <path clip-path="url(#pb2724296c0)" d="
M494.804 157.56
L499.217 137.879
L516.87 87.5663
L543.349 79.4708
L596.308 85.1944
L702.224 63.2928" style="fill:none;stroke:#d9544d;stroke-linecap:round;"/>
   </g>
   <g id="line2d_86">
    <path clip-path="url(#pb2724296c0)" d="
M494.804 161.05
L499.217 122.86
L516.87 64.7029
L543.349 64.8085
L596.308 90.0068
L702.224 107.535" style="fill:none;stroke:#d9544d;stroke-linecap:round;"/>
   </g>
   <g id="line2d_87">
    <path clip-path="url(#pb2724296c0)" d="
M494.804 159.85
L499.217 136.457
L516.87 78.4769
L543.349 69.6906
L596.308 87.4928
L702.224 78.996" style="fill:none;stroke:#d9544d;stroke-linecap:round;"/>
   </g>
   <g id="line2d_88">
    <path clip-path="url(#pb2724296c0)" d="
M494.804 155.175
L499.217 132.55
L516.87 108.725
L543.349 65.7181
L596.308 84.9968
L702.224 63.7995" style="fill:none;stroke:#d9544d;stroke-linecap:round;"/>
   </g>
   <g id="line2d_89">
    <path clip-path="url(#pb2724296c0)" d="
M494.804 157.167
L499.217 133.243
L516.87 97.5593
L543.349 56.3469
L596.308 88.3107
L702.224 78.3366" style="fill:none;stroke:#d9544d;stroke-linecap:round;"/>
   </g>
   <g id="line2d_90">
    <path clip-path="url(#pb2724296c0)" d="
M494.804 156.614
L499.217 138.701
L516.87 71.5447
L543.349 67.2757
L596.308 92.8105
L702.224 84.0172" style="fill:none;stroke:#d9544d;stroke-linecap:round;"/>
   </g>
   <g id="patch_9">
    <path d="
M494.804 174.898
L494.804 20.7894" style="fill:none;stroke:#262626;stroke-linecap:square;stroke-linejoin:miter;stroke-width:1.25;"/>
   </g>
   <g id="patch_10">
    <path d="
M494.804 174.898
L702.224 174.898" style="fill:none;stroke:#262626;stroke-linecap:square;stroke-linejoin:miter;stroke-width:1.25;"/>
   </g>
   <g id="text_24">
    <!-- Root Cold -->
    <defs>
     <path d="
M7.85938 0
L7.85938 71.5781
L39.5938 71.5781
Q49.1719 71.5781 54.1406 69.6406
Q59.125 67.7188 62.1094 62.8281
Q65.0938 57.9531 65.0938 52.0469
Q65.0938 44.4375 60.1562 39.2031
Q55.2188 33.9844 44.9219 32.5625
Q48.6875 30.7656 50.6406 29
Q54.7812 25.2031 58.5 19.4844
L70.9531 0
L59.0312 0
L49.5625 14.8906
Q45.4062 21.3438 42.7188 24.75
Q40.0469 28.1719 37.9219 29.5312
Q35.7969 30.9062 33.5938 31.4531
Q31.9844 31.7812 28.3281 31.7812
L17.3281 31.7812
L17.3281 0
z

M17.3281 39.9844
L37.7031 39.9844
Q44.1875 39.9844 47.8438 41.3281
Q51.5156 42.6719 53.4219 45.625
Q55.3281 48.5781 55.3281 52.0469
Q55.3281 57.125 51.6406 60.3906
Q47.9531 63.6719 39.9844 63.6719
L17.3281 63.6719
z
" id="ArialMT-52"/>
     <path d="
M58.7969 25.0938
L68.2656 22.7031
Q65.2812 11.0312 57.5469 4.90625
Q49.8125 -1.21875 38.625 -1.21875
Q27.0469 -1.21875 19.7969 3.48438
Q12.5469 8.20312 8.76562 17.1406
Q4.98438 26.0781 4.98438 36.3281
Q4.98438 47.5156 9.25 55.8281
Q13.5312 64.1562 21.4062 68.4688
Q29.2969 72.7969 38.7656 72.7969
Q49.5156 72.7969 56.8281 67.3281
Q64.1562 61.8594 67.0469 51.9531
L57.7188 49.75
Q55.2188 57.5625 50.4844 61.125
Q45.75 64.7031 38.5781 64.7031
Q30.3281 64.7031 24.7812 60.7344
Q19.2344 56.7812 16.9844 50.1094
Q14.75 43.4531 14.75 36.375
Q14.75 27.25 17.4062 20.4375
Q20.0625 13.625 25.6719 10.25
Q31.2969 6.89062 37.8438 6.89062
Q45.7969 6.89062 51.3125 11.4688
Q56.8438 16.0625 58.7969 25.0938" id="ArialMT-43"/>
     <path id="ArialMT-20"/>
     <path d="
M40.2344 0
L40.2344 6.54688
Q35.2969 -1.17188 25.7344 -1.17188
Q19.5312 -1.17188 14.3281 2.25
Q9.125 5.67188 6.26562 11.7969
Q3.42188 17.9219 3.42188 25.875
Q3.42188 33.6406 6 39.9688
Q8.59375 46.2969 13.7656 49.6562
Q18.9531 53.0312 25.3438 53.0312
Q30.0312 53.0312 33.6875 51.0469
Q37.3594 49.0781 39.6562 45.9062
L39.6562 71.5781
L48.3906 71.5781
L48.3906 0
z

M12.4531 25.875
Q12.4531 15.9219 16.6406 10.9844
Q20.8438 6.0625 26.5625 6.0625
Q32.3281 6.0625 36.3438 10.7656
Q40.375 15.4844 40.375 25.1406
Q40.375 35.7969 36.2656 40.7656
Q32.1719 45.75 26.1719 45.75
Q20.3125 45.75 16.375 40.9688
Q12.4531 36.1875 12.4531 25.875" id="ArialMT-64"/>
     <path d="
M6.39062 0
L6.39062 71.5781
L15.1875 71.5781
L15.1875 0
z
" id="ArialMT-6c"/>
    </defs>
    <g style="fill:#262626;" transform="translate(572.26796875 15.789375)scale(0.12 -0.12)">
     <use xlink:href="#ArialMT-52"/>
     <use x="72.216796875" xlink:href="#ArialMT-6f"/>
     <use x="127.83203125" xlink:href="#ArialMT-6f"/>
     <use x="183.447265625" xlink:href="#ArialMT-74"/>
     <use x="211.23046875" xlink:href="#ArialMT-20"/>
     <use x="239.013671875" xlink:href="#ArialMT-43"/>
     <use x="311.23046875" xlink:href="#ArialMT-6f"/>
     <use x="366.845703125" xlink:href="#ArialMT-6c"/>
     <use x="389.0625" xlink:href="#ArialMT-64"/>
    </g>
   </g>
  </g>
  <g id="axes_4">
   <g id="patch_11">
    <path d="
M54.0442 377.418
L261.464 377.418
L261.464 223.309
L54.0442 223.309
z
" style="fill:#ffffff;"/>
   </g>
   <g id="matplotlib.axis_7">
    <g id="xtick_13">
     <g id="line2d_91">
      <g>
       <use style="fill:#262626;stroke:#262626;" x="95.52821875" xlink:href="#me1deecec79" y="377.4178125"/>
      </g>
     </g>
     <g id="text_25">
      <!-- 5 -->
      <g style="fill:#262626;" transform="translate(93.1555625 397.575625)scale(0.1 -0.1)">
       <use xlink:href="#ArialMT-35"/>
      </g>
     </g>
    </g>
    <g id="xtick_14">
     <g id="line2d_92">
      <g>
       <use style="fill:#262626;stroke:#262626;" x="139.195587171" xlink:href="#me1deecec79" y="377.4178125"/>
      </g>
     </g>
     <g id="text_26">
      <!-- 10 -->
      <g style="fill:#262626;" transform="translate(134.418243421 397.575625)scale(0.1 -0.1)">
       <use xlink:href="#ArialMT-31"/>
       <use x="55.615234375" xlink:href="#ArialMT-30"/>
      </g>
     </g>
    </g>
    <g id="xtick_15">
     <g id="line2d_93">
      <g>
       <use style="fill:#262626;stroke:#262626;" x="182.862955592" xlink:href="#me1deecec79" y="377.4178125"/>
      </g>
     </g>
     <g id="text_27">
      <!-- 15 -->
      <g style="fill:#262626;" transform="translate(178.046549342 397.575625)scale(0.1 -0.1)">
       <use xlink:href="#ArialMT-31"/>
       <use x="55.615234375" xlink:href="#ArialMT-35"/>
      </g>
     </g>
    </g>
    <g id="xtick_16">
     <g id="line2d_94">
      <g>
       <use style="fill:#262626;stroke:#262626;" x="226.530324013" xlink:href="#me1deecec79" y="377.4178125"/>
      </g>
     </g>
     <g id="text_28">
      <!-- 20 -->
      <g style="fill:#262626;" transform="translate(221.355324013 397.575625)scale(0.1 -0.1)">
       <use xlink:href="#ArialMT-32"/>
       <use x="55.615234375" xlink:href="#ArialMT-30"/>
      </g>
     </g>
    </g>
    <g id="text_29">
     <!-- Time -->
     <defs>
      <path d="
M6.59375 0
L6.59375 51.8594
L14.4531 51.8594
L14.4531 44.5781
Q16.8906 48.3906 20.9375 50.7031
Q25 53.0312 30.1719 53.0312
Q35.9375 53.0312 39.625 50.6406
Q43.3125 48.25 44.8281 43.9531
Q50.9844 53.0312 60.8438 53.0312
Q68.5625 53.0312 72.7031 48.75
Q76.8594 44.4844 76.8594 35.5938
L76.8594 0
L68.1094 0
L68.1094 32.6719
Q68.1094 37.9375 67.25 40.25
Q66.4062 42.5781 64.1562 43.9844
Q61.9219 45.4062 58.8906 45.4062
Q53.4219 45.4062 49.7969 41.7656
Q46.1875 38.1406 46.1875 30.125
L46.1875 0
L37.4062 0
L37.4062 33.6875
Q37.4062 39.5469 35.25 42.4688
Q33.1094 45.4062 28.2188 45.4062
Q24.5156 45.4062 21.3594 43.4531
Q18.2188 41.5 16.7969 37.7344
Q15.375 33.9844 15.375 26.9062
L15.375 0
z
" id="ArialMT-6d"/>
      <path d="
M25.9219 0
L25.9219 63.1406
L2.34375 63.1406
L2.34375 71.5781
L59.0781 71.5781
L59.0781 63.1406
L35.4062 63.1406
L35.4062 0
z
" id="ArialMT-54"/>
     </defs>
     <g style="fill:#262626;" transform="translate(146.0959375 412.43671875)scale(0.11 -0.11)">
      <use xlink:href="#ArialMT-54"/>
      <use x="57.333984375" xlink:href="#ArialMT-69"/>
      <use x="79.55078125" xlink:href="#ArialMT-6d"/>
      <use x="162.8515625" xlink:href="#ArialMT-65"/>
     </g>
    </g>
   </g>
   <g id="matplotlib.axis_8">
    <g id="ytick_25">
     <g id="line2d_95">
      <g>
       <use style="fill:#262626;stroke:#262626;" x="54.04421875" xlink:href="#m4aded61697" y="359.95110284"/>
      </g>
     </g>
     <g id="text_30">
      <!-- −1.5 -->
      <g style="fill:#262626;" transform="translate(22.25984375 362.53625909)scale(0.1 -0.1)">
       <use xlink:href="#ArialMT-2212"/>
       <use x="58.3984375" xlink:href="#ArialMT-31"/>
       <use x="114.013671875" xlink:href="#ArialMT-2e"/>
       <use x="141.796875" xlink:href="#ArialMT-35"/>
      </g>
     </g>
    </g>
    <g id="ytick_26">
     <g id="line2d_96">
      <g>
       <use style="fill:#262626;stroke:#262626;" x="54.04421875" xlink:href="#m4aded61697" y="341.416492973"/>
      </g>
     </g>
     <g id="text_31">
      <!-- −1.0 -->
      <g style="fill:#262626;" transform="translate(22.33796875 344.001649223)scale(0.1 -0.1)">
       <use xlink:href="#ArialMT-2212"/>
       <use x="58.3984375" xlink:href="#ArialMT-31"/>
       <use x="114.013671875" xlink:href="#ArialMT-2e"/>
       <use x="141.796875" xlink:href="#ArialMT-30"/>
      </g>
     </g>
    </g>
    <g id="ytick_27">
     <g id="line2d_97">
      <g>
       <use style="fill:#262626;stroke:#262626;" x="54.04421875" xlink:href="#m4aded61697" y="322.881883106"/>
      </g>
     </g>
     <g id="text_32">
      <!-- −0.5 -->
      <g style="fill:#262626;" transform="translate(22.25984375 325.467039356)scale(0.1 -0.1)">
       <use xlink:href="#ArialMT-2212"/>
       <use x="58.3984375" xlink:href="#ArialMT-30"/>
       <use x="114.013671875" xlink:href="#ArialMT-2e"/>
       <use x="141.796875" xlink:href="#ArialMT-35"/>
      </g>
     </g>
    </g>
    <g id="ytick_28">
     <g id="line2d_98">
      <g>
       <use style="fill:#262626;stroke:#262626;" x="54.04421875" xlink:href="#m4aded61697" y="304.34727324"/>
      </g>
     </g>
     <g id="text_33">
      <!-- 0.0 -->
      <g style="fill:#262626;" transform="translate(28.03796875 306.93242949)scale(0.1 -0.1)">
       <use xlink:href="#ArialMT-30"/>
       <use x="55.615234375" xlink:href="#ArialMT-2e"/>
       <use x="83.3984375" xlink:href="#ArialMT-30"/>
      </g>
     </g>
    </g>
    <g id="ytick_29">
     <g id="line2d_99">
      <g>
       <use style="fill:#262626;stroke:#262626;" x="54.04421875" xlink:href="#m4aded61697" y="285.812663373"/>
      </g>
     </g>
     <g id="text_34">
      <!-- 0.5 -->
      <g style="fill:#262626;" transform="translate(27.95984375 288.397819623)scale(0.1 -0.1)">
       <use xlink:href="#ArialMT-30"/>
       <use x="55.615234375" xlink:href="#ArialMT-2e"/>
       <use x="83.3984375" xlink:href="#ArialMT-35"/>
      </g>
     </g>
    </g>
    <g id="ytick_30">
     <g id="line2d_100">
      <g>
       <use style="fill:#262626;stroke:#262626;" x="54.04421875" xlink:href="#m4aded61697" y="267.278053507"/>
      </g>
     </g>
     <g id="text_35">
      <!-- 1.0 -->
      <g style="fill:#262626;" transform="translate(28.71140625 269.863209757)scale(0.1 -0.1)">
       <use xlink:href="#ArialMT-31"/>
       <use x="55.615234375" xlink:href="#ArialMT-2e"/>
       <use x="83.3984375" xlink:href="#ArialMT-30"/>
      </g>
     </g>
    </g>
    <g id="ytick_31">
     <g id="line2d_101">
      <g>
       <use style="fill:#262626;stroke:#262626;" x="54.04421875" xlink:href="#m4aded61697" y="248.74344364"/>
      </g>
     </g>
     <g id="text_36">
      <!-- 1.5 -->
      <g style="fill:#262626;" transform="translate(28.63328125 251.32859989)scale(0.1 -0.1)">
       <use xlink:href="#ArialMT-31"/>
       <use x="55.615234375" xlink:href="#ArialMT-2e"/>
       <use x="83.3984375" xlink:href="#ArialMT-35"/>
      </g>
     </g>
    </g>
    <g id="ytick_32">
     <g id="line2d_102">
      <g>
       <use style="fill:#262626;stroke:#262626;" x="54.04421875" xlink:href="#m4aded61697" y="230.208833773"/>
      </g>
     </g>
     <g id="text_37">
      <!-- 2.0 -->
      <g style="fill:#262626;" transform="translate(27.91609375 232.793990023)scale(0.1 -0.1)">
       <use xlink:href="#ArialMT-32"/>
       <use x="55.615234375" xlink:href="#ArialMT-2e"/>
       <use x="83.3984375" xlink:href="#ArialMT-30"/>
      </g>
     </g>
    </g>
    <g id="text_38">
     <!-- Expression -->
     <g style="fill:#262626;" transform="translate(15.07359375 326.75671875)rotate(-90.0)scale(0.11 -0.11)">
      <use xlink:href="#ArialMT-45"/>
      <use x="66.69921875" xlink:href="#ArialMT-78"/>
      <use x="116.69921875" xlink:href="#ArialMT-70"/>
      <use x="172.314453125" xlink:href="#ArialMT-72"/>
      <use x="205.615234375" xlink:href="#ArialMT-65"/>
      <use x="261.23046875" xlink:href="#ArialMT-73"/>
      <use x="311.23046875" xlink:href="#ArialMT-73"/>
      <use x="361.23046875" xlink:href="#ArialMT-69"/>
      <use x="383.447265625" xlink:href="#ArialMT-6f"/>
      <use x="439.0625" xlink:href="#ArialMT-6e"/>
     </g>
    </g>
   </g>
   <g id="line2d_103">
    <path clip-path="url(#pbcd7330b36)" d="
M54.0442 278.31
L56.2276 236.472
L60.5943 300.505
L78.0613 340.785
L104.262 311.979
L156.663 323.511
L261.464 338.869" style="fill:none;stroke:#03012d;stroke-linecap:round;"/>
   </g>
   <g id="line2d_104">
    <path clip-path="url(#pbcd7330b36)" d="
M54.0442 280.361
L56.2276 249.734
L60.5943 278.679
L78.0613 311.343
L104.262 314.047
L156.663 343.11
L261.464 353.157" style="fill:none;stroke:#03012d;stroke-linecap:round;"/>
   </g>
   <g id="line2d_105">
    <path clip-path="url(#pbcd7330b36)" d="
M54.0442 249.175
L56.2276 264.776
L60.5943 290.159
L78.0613 324.214
L104.262 318.299
L156.663 338.492
L261.464 345.316" style="fill:none;stroke:#03012d;stroke-linecap:round;"/>
   </g>
   <g id="line2d_106">
    <path clip-path="url(#pbcd7330b36)" d="
M54.0442 264.937
L56.2276 248.706
L60.5943 287.1
L78.0613 336.991
L104.262 324.393
L156.663 339.355
L261.464 328.949" style="fill:none;stroke:#03012d;stroke-linecap:round;"/>
   </g>
   <g id="line2d_107">
    <path clip-path="url(#pbcd7330b36)" d="
M54.0442 264.607
L56.2276 255.805
L60.5943 277.562
L78.0613 328.451
L104.262 322.379
L156.663 337.212
L261.464 344.415" style="fill:none;stroke:#03012d;stroke-linecap:round;"/>
   </g>
   <g id="line2d_108">
    <path clip-path="url(#pbcd7330b36)" d="
M54.0442 273.959
L56.2276 260.69
L60.5943 266.43
L78.0613 324.286
L104.262 324.588
L156.663 357.473
L261.464 323.005" style="fill:none;stroke:#03012d;stroke-linecap:round;"/>
   </g>
   <g id="line2d_109">
    <path clip-path="url(#pbcd7330b36)" d="
M54.0442 253.757
L56.2276 252.639
L60.5943 303.153
L78.0613 331.559
L104.262 316.011
L156.663 341.454
L261.464 331.858" style="fill:none;stroke:#03012d;stroke-linecap:round;"/>
   </g>
   <g id="line2d_110">
    <path clip-path="url(#pbcd7330b36)" d="
M54.0442 259.666
L56.2276 255.665
L60.5943 286.296
L78.0613 323.053
L104.262 320.404
L156.663 344.533
L261.464 340.815" style="fill:none;stroke:#03012d;stroke-linecap:round;"/>
   </g>
   <g id="line2d_111">
    <path clip-path="url(#pbcd7330b36)" d="
M54.0442 232.971
L56.2276 280.673
L60.5943 299.03
L78.0613 326.453
L104.262 326.107
L156.663 331.38
L261.464 333.818" style="fill:none;stroke:#03012d;stroke-linecap:round;"/>
   </g>
   <g id="line2d_112">
    <path clip-path="url(#pbcd7330b36)" d="
M54.0442 229.017
L56.2276 294.461
L60.5943 295.26
L78.0613 318.12
L104.262 326.384
L156.663 334.953
L261.464 332.236" style="fill:none;stroke:#03012d;stroke-linecap:round;"/>
   </g>
   <g id="line2d_113">
    <path clip-path="url(#pbcd7330b36)" d="
M54.0442 257.084
L56.2276 259.303
L60.5943 285.162
L78.0613 330.843
L104.262 319.661
L156.663 328.023
L261.464 350.355" style="fill:none;stroke:#03012d;stroke-linecap:round;"/>
   </g>
   <g id="line2d_114">
    <path clip-path="url(#pbcd7330b36)" d="
M54.0442 258.635
L56.2276 256.993
L60.5943 288.539
L78.0613 313.626
L104.262 324.871
L156.663 347.708
L261.464 340.059" style="fill:none;stroke:#03012d;stroke-linecap:round;"/>
   </g>
   <g id="line2d_115">
    <path clip-path="url(#pbcd7330b36)" d="
M54.0442 286.22
L56.2276 250.583
L60.5943 264.302
L78.0613 331.154
L104.262 319.011
L156.663 337.902
L261.464 341.259" style="fill:none;stroke:#03012d;stroke-linecap:round;"/>
   </g>
   <g id="line2d_116">
    <path clip-path="url(#pbcd7330b36)" d="
M54.0442 243.706
L56.2276 266.476
L60.5943 294.976
L78.0613 325.543
L104.262 331.433
L156.663 327.579
L261.464 340.718" style="fill:none;stroke:#03012d;stroke-linecap:round;"/>
   </g>
   <g id="line2d_117">
    <path clip-path="url(#pbcd7330b36)" d="
M54.0442 255.3
L56.2276 261.159
L60.5943 281.561
L78.0613 328.912
L104.262 325.68
L156.663 337.038
L261.464 340.781" style="fill:none;stroke:#03012d;stroke-linecap:round;"/>
   </g>
   <g id="line2d_118">
    <path clip-path="url(#pbcd7330b36)" d="
M54.0442 238.058
L56.2276 274.912
L60.5943 294.058
L78.0613 323.942
L104.262 334.779
L156.663 332.99
L261.464 331.692" style="fill:none;stroke:#03012d;stroke-linecap:round;"/>
   </g>
   <g id="line2d_119">
    <path clip-path="url(#pbcd7330b36)" d="
M54.0442 269.562
L56.2276 281.306
L60.5943 269.502
L78.0613 295.125
L104.262 315.672
L156.663 371.71
L261.464 327.554" style="fill:none;stroke:#03012d;stroke-linecap:round;"/>
   </g>
   <g id="line2d_120">
    <path clip-path="url(#pbcd7330b36)" d="
M54.0442 244.28
L56.2276 289.091
L60.5943 277.102
L78.0613 328.665
L104.262 307.53
L156.663 330.868
L261.464 352.895" style="fill:none;stroke:#03012d;stroke-linecap:round;"/>
   </g>
   <g id="patch_12">
    <path d="
M54.0442 377.418
L54.0442 223.309" style="fill:none;stroke:#262626;stroke-linecap:square;stroke-linejoin:miter;stroke-width:1.25;"/>
   </g>
   <g id="patch_13">
    <path d="
M54.0442 377.418
L261.464 377.418" style="fill:none;stroke:#262626;stroke-linecap:square;stroke-linejoin:miter;stroke-width:1.25;"/>
   </g>
   <g id="text_39">
    <!-- Root Drought -->
    <defs>
     <path d="
M40.5781 0
L40.5781 7.625
Q34.5156 -1.17188 24.125 -1.17188
Q19.5312 -1.17188 15.5469 0.578125
Q11.5781 2.34375 9.64062 5
Q7.71875 7.67188 6.9375 11.5312
Q6.39062 14.1094 6.39062 19.7344
L6.39062 51.8594
L15.1875 51.8594
L15.1875 23.0938
Q15.1875 16.2188 15.7188 13.8125
Q16.5469 10.3594 19.2344 8.375
Q21.9219 6.39062 25.875 6.39062
Q29.8281 6.39062 33.2969 8.42188
Q36.7656 10.4531 38.2031 13.9375
Q39.6562 17.4375 39.6562 24.0781
L39.6562 51.8594
L48.4375 51.8594
L48.4375 0
z
" id="ArialMT-75"/>
     <path d="
M6.59375 0
L6.59375 71.5781
L15.375 71.5781
L15.375 45.9062
Q21.5312 53.0312 30.9062 53.0312
Q36.6719 53.0312 40.9219 50.75
Q45.1719 48.4844 47 44.4844
Q48.8281 40.4844 48.8281 32.8594
L48.8281 0
L40.0469 0
L40.0469 32.8594
Q40.0469 39.4531 37.1875 42.4531
Q34.3281 45.4531 29.1094 45.4531
Q25.2031 45.4531 21.75 43.4219
Q18.3125 41.4062 16.8438 37.9375
Q15.375 34.4688 15.375 28.375
L15.375 0
z
" id="ArialMT-68"/>
     <path d="
M7.71875 0
L7.71875 71.5781
L32.375 71.5781
Q40.7188 71.5781 45.125 70.5625
Q51.2656 69.1406 55.6094 65.4375
Q61.2812 60.6406 64.0781 53.1875
Q66.8906 45.75 66.8906 36.1875
Q66.8906 28.0312 64.9844 21.7344
Q63.0938 15.4375 60.1094 11.2969
Q57.125 7.17188 53.5781 4.79688
Q50.0469 2.4375 45.0469 1.21875
Q40.0469 0 33.5469 0
z

M17.1875 8.45312
L32.4688 8.45312
Q39.5469 8.45312 43.5781 9.76562
Q47.6094 11.0781 50 13.4844
Q53.375 16.8438 55.25 22.5312
Q57.125 28.2188 57.125 36.3281
Q57.125 47.5625 53.4375 53.5938
Q49.75 59.625 44.4844 61.6719
Q40.6719 63.1406 32.2344 63.1406
L17.1875 63.1406
z
" id="ArialMT-44"/>
     <path d="
M4.98438 -4.29688
L13.5312 -5.5625
Q14.0625 -9.51562 16.5 -11.3281
Q19.7812 -13.7656 25.4375 -13.7656
Q31.5469 -13.7656 34.8594 -11.3281
Q38.1875 -8.89062 39.3594 -4.5
Q40.0469 -1.8125 39.9844 6.78125
Q34.2344 0 25.6406 0
Q14.9375 0 9.07812 7.71875
Q3.21875 15.4375 3.21875 26.2188
Q3.21875 33.6406 5.90625 39.9062
Q8.59375 46.1875 13.6875 49.6094
Q18.7969 53.0312 25.6875 53.0312
Q34.8594 53.0312 40.8281 45.6094
L40.8281 51.8594
L48.9219 51.8594
L48.9219 7.03125
Q48.9219 -5.07812 46.4531 -10.125
Q44 -15.1875 38.6406 -18.1094
Q33.2969 -21.0469 25.4844 -21.0469
Q16.2188 -21.0469 10.5 -16.875
Q4.78125 -12.7031 4.98438 -4.29688
M12.25 26.8594
Q12.25 16.6562 16.2969 11.9688
Q20.3594 7.28125 26.4688 7.28125
Q32.5156 7.28125 36.6094 11.9375
Q40.7188 16.6094 40.7188 26.5625
Q40.7188 36.0781 36.5 40.9062
Q32.2812 45.75 26.3125 45.75
Q20.4531 45.75 16.3438 40.9844
Q12.25 36.2344 12.25 26.8594" id="ArialMT-67"/>
    </defs>
    <g style="fill:#262626;" transform="translate(122.11421875 218.309375)scale(0.12 -0.12)">
     <use xlink:href="#ArialMT-52"/>
     <use x="72.216796875" xlink:href="#ArialMT-6f"/>
     <use x="127.83203125" xlink:href="#ArialMT-6f"/>
     <use x="183.447265625" xlink:href="#ArialMT-74"/>
     <use x="211.23046875" xlink:href="#ArialMT-20"/>
     <use x="239.013671875" xlink:href="#ArialMT-44"/>
     <use x="311.23046875" xlink:href="#ArialMT-72"/>
     <use x="344.53125" xlink:href="#ArialMT-6f"/>
     <use x="400.146484375" xlink:href="#ArialMT-75"/>
     <use x="455.76171875" xlink:href="#ArialMT-67"/>
     <use x="511.376953125" xlink:href="#ArialMT-68"/>
     <use x="566.9921875" xlink:href="#ArialMT-74"/>
    </g>
   </g>
  </g>
  <g id="axes_5">
   <g id="patch_14">
    <path d="
M274.424 377.418
L481.844 377.418
L481.844 223.309
L274.424 223.309
z
" style="fill:#ffffff;"/>
   </g>
   <g id="matplotlib.axis_9">
    <g id="xtick_17">
     <g id="line2d_121">
      <g>
       <use style="fill:#262626;stroke:#262626;" x="314.142942154" xlink:href="#me1deecec79" y="377.4178125"/>
      </g>
     </g>
     <g id="text_40">
      <!-- 5 -->
      <g style="fill:#262626;" transform="translate(311.770285904 397.575625)scale(0.1 -0.1)">
       <use xlink:href="#ArialMT-35"/>
      </g>
     </g>
    </g>
    <g id="xtick_18">
     <g id="line2d_122">
      <g>
       <use style="fill:#262626;stroke:#262626;" x="358.274857048" xlink:href="#me1deecec79" y="377.4178125"/>
      </g>
     </g>
     <g id="text_41">
      <!-- 10 -->
      <g style="fill:#262626;" transform="translate(353.497513298 397.575625)scale(0.1 -0.1)">
       <use xlink:href="#ArialMT-31"/>
       <use x="55.615234375" xlink:href="#ArialMT-30"/>
      </g>
     </g>
    </g>
    <g id="xtick_19">
     <g id="line2d_123">
      <g>
       <use style="fill:#262626;stroke:#262626;" x="402.406771941" xlink:href="#me1deecec79" y="377.4178125"/>
      </g>
     </g>
     <g id="text_42">
      <!-- 15 -->
      <g style="fill:#262626;" transform="translate(397.590365691 397.575625)scale(0.1 -0.1)">
       <use xlink:href="#ArialMT-31"/>
       <use x="55.615234375" xlink:href="#ArialMT-35"/>
      </g>
     </g>
    </g>
    <g id="xtick_20">
     <g id="line2d_124">
      <g>
       <use style="fill:#262626;stroke:#262626;" x="446.538686835" xlink:href="#me1deecec79" y="377.4178125"/>
      </g>
     </g>
     <g id="text_43">
      <!-- 20 -->
      <g style="fill:#262626;" transform="translate(441.363686835 397.575625)scale(0.1 -0.1)">
       <use xlink:href="#ArialMT-32"/>
       <use x="55.615234375" xlink:href="#ArialMT-30"/>
      </g>
     </g>
    </g>
    <g id="text_44">
     <!-- Time -->
     <g style="fill:#262626;" transform="translate(366.4759375 412.43671875)scale(0.11 -0.11)">
      <use xlink:href="#ArialMT-54"/>
      <use x="57.333984375" xlink:href="#ArialMT-69"/>
      <use x="79.55078125" xlink:href="#ArialMT-6d"/>
      <use x="162.8515625" xlink:href="#ArialMT-65"/>
     </g>
    </g>
   </g>
   <g id="matplotlib.axis_10">
    <g id="ytick_33">
     <g id="line2d_125">
      <g>
       <use style="fill:#262626;stroke:#262626;" x="274.42421875" xlink:href="#m4aded61697" y="359.95110284"/>
      </g>
     </g>
    </g>
    <g id="ytick_34">
     <g id="line2d_126">
      <g>
       <use style="fill:#262626;stroke:#262626;" x="274.42421875" xlink:href="#m4aded61697" y="341.416492973"/>
      </g>
     </g>
    </g>
    <g id="ytick_35">
     <g id="line2d_127">
      <g>
       <use style="fill:#262626;stroke:#262626;" x="274.42421875" xlink:href="#m4aded61697" y="322.881883106"/>
      </g>
     </g>
    </g>
    <g id="ytick_36">
     <g id="line2d_128">
      <g>
       <use style="fill:#262626;stroke:#262626;" x="274.42421875" xlink:href="#m4aded61697" y="304.34727324"/>
      </g>
     </g>
    </g>
    <g id="ytick_37">
     <g id="line2d_129">
      <g>
       <use style="fill:#262626;stroke:#262626;" x="274.42421875" xlink:href="#m4aded61697" y="285.812663373"/>
      </g>
     </g>
    </g>
    <g id="ytick_38">
     <g id="line2d_130">
      <g>
       <use style="fill:#262626;stroke:#262626;" x="274.42421875" xlink:href="#m4aded61697" y="267.278053507"/>
      </g>
     </g>
    </g>
    <g id="ytick_39">
     <g id="line2d_131">
      <g>
       <use style="fill:#262626;stroke:#262626;" x="274.42421875" xlink:href="#m4aded61697" y="248.74344364"/>
      </g>
     </g>
    </g>
    <g id="ytick_40">
     <g id="line2d_132">
      <g>
       <use style="fill:#262626;stroke:#262626;" x="274.42421875" xlink:href="#m4aded61697" y="230.208833773"/>
      </g>
     </g>
    </g>
   </g>
   <g id="line2d_133">
    <path clip-path="url(#p9f233a080d)" d="
M274.424 296.418
L278.837 290.339
L296.49 266.288
L322.969 277.163
L375.928 330.277
L481.844 365.598" style="fill:none;stroke:#d9544d;stroke-linecap:round;"/>
   </g>
   <g id="line2d_134">
    <path clip-path="url(#p9f233a080d)" d="
M274.424 312.202
L278.837 276.89
L296.49 262.284
L322.969 280.089
L375.928 349.008
L481.844 345.611" style="fill:none;stroke:#d9544d;stroke-linecap:round;"/>
   </g>
   <g id="line2d_135">
    <path clip-path="url(#p9f233a080d)" d="
M274.424 326.306
L278.837 298.438
L296.49 255.575
L322.969 269.302
L375.928 323.227
L481.844 353.236" style="fill:none;stroke:#d9544d;stroke-linecap:round;"/>
   </g>
   <g id="line2d_136">
    <path clip-path="url(#p9f233a080d)" d="
M274.424 350.944
L278.837 311.391
L296.49 251.227
L322.969 269.494
L375.928 324.971
L481.844 318.057" style="fill:none;stroke:#d9544d;stroke-linecap:round;"/>
   </g>
   <g id="line2d_137">
    <path clip-path="url(#p9f233a080d)" d="
M274.424 328.765
L278.837 312.979
L296.49 253.865
L322.969 262.349
L375.928 341.857
L481.844 326.269" style="fill:none;stroke:#d9544d;stroke-linecap:round;"/>
   </g>
   <g id="line2d_138">
    <path clip-path="url(#p9f233a080d)" d="
M274.424 322.473
L278.837 295.85
L296.49 261.035
L322.969 262.603
L375.928 340.237
L481.844 343.886" style="fill:none;stroke:#d9544d;stroke-linecap:round;"/>
   </g>
   <g id="line2d_139">
    <path clip-path="url(#p9f233a080d)" d="
M274.424 318.68
L278.837 301.259
L296.49 262.273
L322.969 264.292
L375.928 320.184
L481.844 359.395" style="fill:none;stroke:#d9544d;stroke-linecap:round;"/>
   </g>
   <g id="line2d_140">
    <path clip-path="url(#p9f233a080d)" d="
M274.424 354.159
L278.837 304.975
L296.49 262.063
L322.969 264.069
L375.928 305.198
L481.844 335.62" style="fill:none;stroke:#d9544d;stroke-linecap:round;"/>
   </g>
   <g id="line2d_141">
    <path clip-path="url(#p9f233a080d)" d="
M274.424 349.727
L278.837 316.649
L296.49 250.095
L322.969 272.242
L375.928 306.965
L481.844 330.405" style="fill:none;stroke:#d9544d;stroke-linecap:round;"/>
   </g>
   <g id="line2d_142">
    <path clip-path="url(#p9f233a080d)" d="
M274.424 330.506
L278.837 308.051
L296.49 250.084
L322.969 267.673
L375.928 337.888
L481.844 331.882" style="fill:none;stroke:#d9544d;stroke-linecap:round;"/>
   </g>
   <g id="line2d_143">
    <path clip-path="url(#p9f233a080d)" d="
M274.424 309.898
L278.837 293.072
L296.49 257.614
L322.969 272.979
L375.928 342.296
L481.844 350.224" style="fill:none;stroke:#d9544d;stroke-linecap:round;"/>
   </g>
   <g id="line2d_144">
    <path clip-path="url(#p9f233a080d)" d="
M274.424 319.294
L278.837 298.556
L296.49 255.63
L322.969 272.203
L375.928 322.365
L481.844 358.036" style="fill:none;stroke:#d9544d;stroke-linecap:round;"/>
   </g>
   <g id="line2d_145">
    <path clip-path="url(#p9f233a080d)" d="
M274.424 321.926
L278.837 304.276
L296.49 246.914
L322.969 276.913
L375.928 349.019
L481.844 327.037" style="fill:none;stroke:#d9544d;stroke-linecap:round;"/>
   </g>
   <g id="line2d_146">
    <path clip-path="url(#p9f233a080d)" d="
M274.424 313.529
L278.837 285.472
L296.49 254.167
L322.969 282.101
L375.928 350.164
L481.844 340.651" style="fill:none;stroke:#d9544d;stroke-linecap:round;"/>
   </g>
   <g id="line2d_147">
    <path clip-path="url(#p9f233a080d)" d="
M274.424 318.481
L278.837 294.027
L296.49 249.248
L322.969 280.165
L375.928 349.008
L481.844 335.154" style="fill:none;stroke:#d9544d;stroke-linecap:round;"/>
   </g>
   <g id="line2d_148">
    <path clip-path="url(#p9f233a080d)" d="
M274.424 337.606
L278.837 291.196
L296.49 244.811
L322.969 286.333
L375.928 339.098
L481.844 327.039" style="fill:none;stroke:#d9544d;stroke-linecap:round;"/>
   </g>
   <g id="line2d_149">
    <path clip-path="url(#p9f233a080d)" d="
M274.424 304.7
L278.837 304.55
L296.49 237.579
L322.969 301.428
L375.928 341.586
L481.844 336.241" style="fill:none;stroke:#d9544d;stroke-linecap:round;"/>
   </g>
   <g id="line2d_150">
    <path clip-path="url(#p9f233a080d)" d="
M274.424 320.766
L278.837 302.872
L296.49 251.591
L322.969 269.892
L375.928 337.55
L481.844 343.412" style="fill:none;stroke:#d9544d;stroke-linecap:round;"/>
   </g>
   <g id="patch_15">
    <path d="
M274.424 377.418
L274.424 223.309" style="fill:none;stroke:#262626;stroke-linecap:square;stroke-linejoin:miter;stroke-width:1.25;"/>
   </g>
   <g id="patch_16">
    <path d="
M274.424 377.418
L481.844 377.418" style="fill:none;stroke:#262626;stroke-linecap:square;stroke-linejoin:miter;stroke-width:1.25;"/>
   </g>
   <g id="text_45">
    <!-- Shoot Cold -->
    <g style="fill:#262626;" transform="translate(348.88234375 218.309375)scale(0.12 -0.12)">
     <use xlink:href="#ArialMT-53"/>
     <use x="66.69921875" xlink:href="#ArialMT-68"/>
     <use x="122.314453125" xlink:href="#ArialMT-6f"/>
     <use x="177.9296875" xlink:href="#ArialMT-6f"/>
     <use x="233.544921875" xlink:href="#ArialMT-74"/>
     <use x="261.328125" xlink:href="#ArialMT-20"/>
     <use x="289.111328125" xlink:href="#ArialMT-43"/>
     <use x="361.328125" xlink:href="#ArialMT-6f"/>
     <use x="416.943359375" xlink:href="#ArialMT-6c"/>
     <use x="439.16015625" xlink:href="#ArialMT-64"/>
    </g>
   </g>
  </g>
  <g id="axes_6">
   <g id="patch_17">
    <path d="
M494.804 377.418
L702.224 377.418
L702.224 223.309
L494.804 223.309
z
" style="fill:#ffffff;"/>
   </g>
   <g id="matplotlib.axis_11">
    <g id="xtick_21">
     <g id="line2d_151">
      <g>
       <use style="fill:#262626;stroke:#262626;" x="536.28821875" xlink:href="#me1deecec79" y="377.4178125"/>
      </g>
     </g>
     <g id="text_46">
      <!-- 5 -->
      <g style="fill:#262626;" transform="translate(533.9155625 397.575625)scale(0.1 -0.1)">
       <use xlink:href="#ArialMT-35"/>
      </g>
     </g>
    </g>
    <g id="xtick_22">
     <g id="line2d_152">
      <g>
       <use style="fill:#262626;stroke:#262626;" x="579.955587171" xlink:href="#me1deecec79" y="377.4178125"/>
      </g>
     </g>
     <g id="text_47">
      <!-- 10 -->
      <g style="fill:#262626;" transform="translate(575.178243421 397.575625)scale(0.1 -0.1)">
       <use xlink:href="#ArialMT-31"/>
       <use x="55.615234375" xlink:href="#ArialMT-30"/>
      </g>
     </g>
    </g>
    <g id="xtick_23">
     <g id="line2d_153">
      <g>
       <use style="fill:#262626;stroke:#262626;" x="623.622955592" xlink:href="#me1deecec79" y="377.4178125"/>
      </g>
     </g>
     <g id="text_48">
      <!-- 15 -->
      <g style="fill:#262626;" transform="translate(618.806549342 397.575625)scale(0.1 -0.1)">
       <use xlink:href="#ArialMT-31"/>
       <use x="55.615234375" xlink:href="#ArialMT-35"/>
      </g>
     </g>
    </g>
    <g id="xtick_24">
     <g id="line2d_154">
      <g>
       <use style="fill:#262626;stroke:#262626;" x="667.290324013" xlink:href="#me1deecec79" y="377.4178125"/>
      </g>
     </g>
     <g id="text_49">
      <!-- 20 -->
      <g style="fill:#262626;" transform="translate(662.115324013 397.575625)scale(0.1 -0.1)">
       <use xlink:href="#ArialMT-32"/>
       <use x="55.615234375" xlink:href="#ArialMT-30"/>
      </g>
     </g>
    </g>
    <g id="text_50">
     <!-- Time -->
     <g style="fill:#262626;" transform="translate(586.8559375 412.43671875)scale(0.11 -0.11)">
      <use xlink:href="#ArialMT-54"/>
      <use x="57.333984375" xlink:href="#ArialMT-69"/>
      <use x="79.55078125" xlink:href="#ArialMT-6d"/>
      <use x="162.8515625" xlink:href="#ArialMT-65"/>
     </g>
    </g>
   </g>
   <g id="matplotlib.axis_12">
    <g id="ytick_41">
     <g id="line2d_155">
      <g>
       <use style="fill:#262626;stroke:#262626;" x="494.80421875" xlink:href="#m4aded61697" y="359.95110284"/>
      </g>
     </g>
    </g>
    <g id="ytick_42">
     <g id="line2d_156">
      <g>
       <use style="fill:#262626;stroke:#262626;" x="494.80421875" xlink:href="#m4aded61697" y="341.416492973"/>
      </g>
     </g>
    </g>
    <g id="ytick_43">
     <g id="line2d_157">
      <g>
       <use style="fill:#262626;stroke:#262626;" x="494.80421875" xlink:href="#m4aded61697" y="322.881883106"/>
      </g>
     </g>
    </g>
    <g id="ytick_44">
     <g id="line2d_158">
      <g>
       <use style="fill:#262626;stroke:#262626;" x="494.80421875" xlink:href="#m4aded61697" y="304.34727324"/>
      </g>
     </g>
    </g>
    <g id="ytick_45">
     <g id="line2d_159">
      <g>
       <use style="fill:#262626;stroke:#262626;" x="494.80421875" xlink:href="#m4aded61697" y="285.812663373"/>
      </g>
     </g>
    </g>
    <g id="ytick_46">
     <g id="line2d_160">
      <g>
       <use style="fill:#262626;stroke:#262626;" x="494.80421875" xlink:href="#m4aded61697" y="267.278053507"/>
      </g>
     </g>
    </g>
    <g id="ytick_47">
     <g id="line2d_161">
      <g>
       <use style="fill:#262626;stroke:#262626;" x="494.80421875" xlink:href="#m4aded61697" y="248.74344364"/>
      </g>
     </g>
    </g>
    <g id="ytick_48">
     <g id="line2d_162">
      <g>
       <use style="fill:#262626;stroke:#262626;" x="494.80421875" xlink:href="#m4aded61697" y="230.208833773"/>
      </g>
     </g>
    </g>
   </g>
   <g id="line2d_163">
    <path clip-path="url(#pc9fa587bab)" d="
M494.804 291.482
L496.988 280.575
L501.354 270.696
L518.821 268.808
L545.022 309.552
L597.423 358.467
L702.224 350.852" style="fill:none;stroke:#d9544d;stroke-linecap:round;"/>
   </g>
   <g id="line2d_164">
    <path clip-path="url(#pc9fa587bab)" d="
M494.804 258.88
L496.988 273.265
L501.354 302.704
L518.821 277.714
L545.022 315.73
L597.423 352.478
L702.224 349.66" style="fill:none;stroke:#d9544d;stroke-linecap:round;"/>
   </g>
   <g id="line2d_165">
    <path clip-path="url(#pc9fa587bab)" d="
M494.804 270.474
L496.988 280.864
L501.354 270.156
L518.821 284.646
L545.022 317.585
L597.423 351.056
L702.224 355.649" style="fill:none;stroke:#d9544d;stroke-linecap:round;"/>
   </g>
   <g id="line2d_166">
    <path clip-path="url(#pc9fa587bab)" d="
M494.804 274.976
L496.988 265.616
L501.354 278.746
L518.821 285.306
L545.022 321.494
L597.423 351.681
L702.224 352.612" style="fill:none;stroke:#d9544d;stroke-linecap:round;"/>
   </g>
   <g id="line2d_167">
    <path clip-path="url(#pc9fa587bab)" d="
M494.804 288.68
L496.988 260.508
L501.354 284.692
L518.821 279.316
L545.022 308.358
L597.423 358.318
L702.224 350.56" style="fill:none;stroke:#d9544d;stroke-linecap:round;"/>
   </g>
   <g id="line2d_168">
    <path clip-path="url(#pc9fa587bab)" d="
M494.804 265.434
L496.988 284.394
L501.354 261.019
L518.821 302.565
L545.022 330.635
L597.423 362.467
L702.224 323.916" style="fill:none;stroke:#d9544d;stroke-linecap:round;"/>
   </g>
   <g id="line2d_169">
    <path clip-path="url(#pc9fa587bab)" d="
M494.804 276.024
L496.988 276.976
L501.354 272.237
L518.821 294.587
L545.022 300.156
L597.423 368.871
L702.224 341.579" style="fill:none;stroke:#d9544d;stroke-linecap:round;"/>
   </g>
   <g id="line2d_170">
    <path clip-path="url(#pc9fa587bab)" d="
M494.804 263.551
L496.988 265.572
L501.354 293.017
L518.821 295.54
L545.022 305.434
L597.423 351.824
L702.224 355.492" style="fill:none;stroke:#d9544d;stroke-linecap:round;"/>
   </g>
   <g id="line2d_171">
    <path clip-path="url(#pc9fa587bab)" d="
M494.804 288.708
L496.988 291.261
L501.354 271.691
L518.821 271.283
L545.022 294.336
L597.423 349.045
L702.224 364.106" style="fill:none;stroke:#d9544d;stroke-linecap:round;"/>
   </g>
   <g id="line2d_172">
    <path clip-path="url(#pc9fa587bab)" d="
M494.804 261.581
L496.988 284.164
L501.354 270.439
L518.821 296.949
L545.022 311.614
L597.423 357.726
L702.224 347.957" style="fill:none;stroke:#d9544d;stroke-linecap:round;"/>
   </g>
   <g id="line2d_173">
    <path clip-path="url(#pc9fa587bab)" d="
M494.804 263.41
L496.988 290.499
L501.354 289.103
L518.821 270.299
L545.022 309.332
L597.423 358.935
L702.224 348.853" style="fill:none;stroke:#d9544d;stroke-linecap:round;"/>
   </g>
   <g id="line2d_174">
    <path clip-path="url(#pc9fa587bab)" d="
M494.804 274.576
L496.988 274.857
L501.354 271.876
L518.821 282.667
L545.022 320.948
L597.423 353.874
L702.224 351.632" style="fill:none;stroke:#d9544d;stroke-linecap:round;"/>
   </g>
   <g id="line2d_175">
    <path clip-path="url(#pc9fa587bab)" d="
M494.804 273.667
L496.988 273.735
L501.354 262.288
L518.821 294.499
L545.022 331.137
L597.423 352.526
L702.224 342.577" style="fill:none;stroke:#d9544d;stroke-linecap:round;"/>
   </g>
   <g id="line2d_176">
    <path clip-path="url(#pc9fa587bab)" d="
M494.804 265.504
L496.988 269.697
L501.354 270.377
L518.821 299.124
L545.022 333.366
L597.423 348.597
L702.224 343.767" style="fill:none;stroke:#d9544d;stroke-linecap:round;"/>
   </g>
   <g id="line2d_177">
    <path clip-path="url(#pc9fa587bab)" d="
M494.804 254.75
L496.988 264.807
L501.354 284.268
L518.821 310.757
L545.022 338.476
L597.423 349.956
L702.224 327.417" style="fill:none;stroke:#d9544d;stroke-linecap:round;"/>
   </g>
   <g id="line2d_178">
    <path clip-path="url(#pc9fa587bab)" d="
M494.804 288.977
L496.988 259.979
L501.354 269.773
L518.821 283.627
L545.022 341.209
L597.423 342.677
L702.224 344.189" style="fill:none;stroke:#d9544d;stroke-linecap:round;"/>
   </g>
   <g id="line2d_179">
    <path clip-path="url(#pc9fa587bab)" d="
M494.804 284.655
L496.988 282.832
L501.354 259.009
L518.821 286.096
L545.022 309.592
L597.423 357.469
L702.224 350.779" style="fill:none;stroke:#d9544d;stroke-linecap:round;"/>
   </g>
   <g id="line2d_180">
    <path clip-path="url(#pc9fa587bab)" d="
M494.804 264.127
L496.988 276.603
L501.354 288.024
L518.821 277.665
L545.022 320.103
L597.423 344.961
L702.224 358.948" style="fill:none;stroke:#d9544d;stroke-linecap:round;"/>
   </g>
   <g id="patch_18">
    <path d="
M494.804 377.418
L494.804 223.309" style="fill:none;stroke:#262626;stroke-linecap:square;stroke-linejoin:miter;stroke-width:1.25;"/>
   </g>
   <g id="patch_19">
    <path d="
M494.804 377.418
L702.224 377.418" style="fill:none;stroke:#262626;stroke-linecap:square;stroke-linejoin:miter;stroke-width:1.25;"/>
   </g>
   <g id="text_51">
    <!-- Shoot Uv -->
    <defs>
     <path d="
M54.6875 71.5781
L64.1562 71.5781
L64.1562 30.2188
Q64.1562 19.4375 61.7188 13.0781
Q59.2812 6.73438 52.9062 2.75
Q46.5312 -1.21875 36.1875 -1.21875
Q26.125 -1.21875 19.7188 2.25
Q13.3281 5.71875 10.5938 12.2812
Q7.85938 18.8438 7.85938 30.2188
L7.85938 71.5781
L17.3281 71.5781
L17.3281 30.2812
Q17.3281 20.9531 19.0625 16.5312
Q20.7969 12.1094 25.0156 9.71875
Q29.25 7.32812 35.3594 7.32812
Q45.7969 7.32812 50.2344 12.0625
Q54.6875 16.7969 54.6875 30.2812
z
" id="ArialMT-55"/>
     <path d="
M21 0
L1.26562 51.8594
L10.5469 51.8594
L21.6875 20.7969
Q23.4844 15.7656 25 10.3594
Q26.1719 14.4531 28.2656 20.2188
L39.7969 51.8594
L48.8281 51.8594
L29.2031 0
z
" id="ArialMT-76"/>
    </defs>
    <g style="fill:#262626;" transform="translate(573.90578125 218.309375)scale(0.12 -0.12)">
     <use xlink:href="#ArialMT-53"/>
     <use x="66.69921875" xlink:href="#ArialMT-68"/>
     <use x="122.314453125" xlink:href="#ArialMT-6f"/>
     <use x="177.9296875" xlink:href="#ArialMT-6f"/>
     <use x="233.544921875" xlink:href="#ArialMT-74"/>
     <use x="261.328125" xlink:href="#ArialMT-20"/>
     <use x="289.111328125" xlink:href="#ArialMT-55"/>
     <use x="361.328125" xlink:href="#ArialMT-76"/>
    </g>
   </g>
  </g>
 </g>
 <defs>
  <clipPath id="pbcd7330b36">
   <rect height="154.1084375" width="207.42" x="54.04421875" y="223.309375"/>
  </clipPath>
  <clipPath id="pb2724296c0">
   <rect height="154.1084375" width="207.42" x="494.80421875" y="20.789375"/>
  </clipPath>
  <clipPath id="p5d6dd64791">
   <rect height="154.1084375" width="207.42" x="274.42421875" y="20.789375"/>
  </clipPath>
  <clipPath id="pc9fa587bab">
   <rect height="154.1084375" width="207.42" x="494.80421875" y="223.309375"/>
  </clipPath>
  <clipPath id="p2fc4386486">
   <rect height="154.1084375" width="207.42" x="54.04421875" y="20.789375"/>
  </clipPath>
  <clipPath id="p9f233a080d">
   <rect height="154.1084375" width="207.42" x="274.42421875" y="223.309375"/>
  </clipPath>
 </defs>
</svg>
